%FSDAX24Y24*%
%MOIN*%
%SFA1B1*%

%IPPOS*%
%ADD10R,0.043300X0.055100*%
%ADD11R,0.035400X0.027600*%
%ADD12R,0.039400X0.037400*%
%ADD13R,0.043300X0.066900*%
%ADD14R,0.066900X0.043300*%
%ADD15R,0.350400X0.419300*%
%ADD16R,0.094500X0.041300*%
%ADD17R,0.037400X0.039400*%
%ADD18R,0.027600X0.035400*%
%ADD19O,0.021700X0.068900*%
%ADD20O,0.068900X0.021700*%
%LNmetr4810_pcb_c_layout-1*%
%LPD*%
G54D10*
X019803Y006529D03*
X020394D03*
X019803Y008068D03*
X020394D03*
X019803Y007299D03*
X020394D03*
X009655Y012350D03*
X010245D03*
X010995Y005700D03*
X010405D03*
G54D11*
X016759Y007995D03*
Y007405D03*
X018041D03*
Y007995D03*
X016186Y007405D03*
Y007995D03*
X009043Y012099D03*
Y012690D03*
X012373Y005723D03*
Y005133D03*
G54D12*
X017400Y008015D03*
Y007385D03*
X011731Y005723D03*
Y005093D03*
G54D13*
X020394Y009800D03*
X019331D03*
X020394Y008896D03*
X019331D03*
X015081Y009100D03*
X014018D03*
G54D14*
X006750Y009582D03*
Y008518D03*
G54D15*
X015025Y012550D03*
G54D16*
X019100Y013550D03*
Y011550D03*
G54D17*
X018945Y002668D03*
X018315D03*
X018965Y006591D03*
X018335D03*
G54D18*
X018926Y005027D03*
X018335D03*
Y003309D03*
X018926D03*
Y005950D03*
X018335D03*
Y004454D03*
X018926D03*
Y003882D03*
X018335D03*
G54D19*
X011975Y011324D03*
X011660D03*
X011345D03*
X011030D03*
X010715D03*
X010400D03*
X010085D03*
X009770D03*
X009455D03*
X009140D03*
X008825D03*
Y006876D03*
X009140D03*
X009455D03*
X009770D03*
X010085D03*
X010400D03*
X010715D03*
X011030D03*
X011345D03*
X011660D03*
X011975D03*
G54D20*
X008176Y010675D03*
Y010360D03*
Y010045D03*
Y009730D03*
Y009415D03*
Y009100D03*
Y008785D03*
Y008470D03*
Y008155D03*
Y007840D03*
Y007525D03*
X012624D03*
Y007840D03*
Y008155D03*
Y008470D03*
Y008785D03*
Y009100D03*
Y009415D03*
Y009730D03*
Y010045D03*
Y010360D03*
Y010675D03*
M02*