%FSDAX24Y24*%
%MOIN*%
%SFA1B1*%

%IPPOS*%
%ADD47C,0.165500*%
%ADD48C,0.068000*%
%ADD49C,0.067100*%
%ADD50R,0.067100X0.067100*%
%ADD51R,0.067100X0.067100*%
%ADD52C,0.058000*%
%ADD53C,0.204900*%
%LNmetr4810_pcb_c_layout-1*%
%LPD*%
G54D47*
X002850Y013790D03*
Y003747D03*
G54D48*
X003850Y010568D03*
Y008768D03*
Y009668D03*
Y007868D03*
Y006968D03*
X002850Y007418D03*
Y008318D03*
Y010118D03*
Y009218D03*
Y011018D03*
X001850Y006968D03*
Y007868D03*
Y009668D03*
Y008768D03*
Y010568D03*
G54D49*
X016573Y015650D03*
X017573D03*
X018573D03*
X020380Y012550D03*
X020130Y003555D03*
Y004555D03*
Y005555D03*
X004500Y-000445D03*
X003500D03*
X016215D03*
X015215D03*
X014215D03*
X013215D03*
X012215D03*
X011215D03*
X010215D03*
X016215Y002555D03*
X015215D03*
X014215D03*
X013215D03*
X012215D03*
X011215D03*
X010215D03*
X016573Y018161D03*
X006858Y000555D03*
Y001555D03*
Y002555D03*
X007858Y018161D03*
X008858D03*
X012215D03*
X013215D03*
X004500D03*
X003500D03*
X002500D03*
X009800Y014000D03*
X008800D03*
X009800Y015000D03*
X008800D03*
X009800Y016000D03*
G54D50*
X019573Y015650D03*
X002500Y-000445D03*
X009215D03*
Y002555D03*
X017573Y018161D03*
X009858D03*
X014215D03*
X005500D03*
G54D51*
X020380Y011550D03*
X020130Y002555D03*
X006858Y-000445D03*
X008800Y016000D03*
G54D52*
X015000Y011500D03*
Y013650D03*
Y012575D03*
X006500Y008000D03*
X009500Y009050D03*
X015552Y003900D03*
X010850Y004900D03*
X010400Y010350D03*
G54D53*
X000000Y000000D03*
Y017717D03*
X019685Y000000D03*
Y017717D03*
M02*