%FSDAX24Y24*%
%MOIN*%
%SFA1B1*%

%IPPOS*%
%ADD36R,0.051300X0.063100*%
%ADD37R,0.043400X0.035600*%
%ADD38R,0.047400X0.045400*%
%ADD39R,0.051300X0.074900*%
%ADD40R,0.074900X0.051300*%
%ADD41R,0.358400X0.427300*%
%ADD42R,0.102500X0.049300*%
%ADD43R,0.045400X0.047400*%
%ADD44R,0.035600X0.043400*%
%ADD45O,0.029700X0.076900*%
%ADD46O,0.076900X0.029700*%
%ADD47C,0.165500*%
%ADD48C,0.068000*%
%ADD49C,0.067100*%
%ADD50R,0.067100X0.067100*%
%ADD51R,0.067100X0.067100*%
%ADD52C,0.058000*%
%ADD53C,0.204900*%
%LNmetr4810_pcb_c_layout-1*%
%LPD*%
G54D36*
X019803Y006529D03*
X020394D03*
X019803Y008068D03*
X020394D03*
X019803Y007299D03*
X020394D03*
X009655Y012350D03*
X010245D03*
X010995Y005700D03*
X010405D03*
G54D37*
X016759Y007995D03*
Y007405D03*
X018041D03*
Y007995D03*
X016186Y007405D03*
Y007995D03*
X009043Y012099D03*
Y012690D03*
X012373Y005723D03*
Y005133D03*
G54D38*
X017400Y008015D03*
Y007385D03*
X011731Y005723D03*
Y005093D03*
G54D39*
X020394Y009800D03*
X019331D03*
X020394Y008896D03*
X019331D03*
X015081Y009100D03*
X014018D03*
G54D40*
X006750Y009582D03*
Y008518D03*
G54D41*
X015025Y012550D03*
G54D42*
X019100Y013550D03*
Y011550D03*
G54D43*
X018945Y002668D03*
X018315D03*
X018965Y006591D03*
X018335D03*
G54D44*
X018926Y005027D03*
X018335D03*
Y003309D03*
X018926D03*
Y005950D03*
X018335D03*
Y004454D03*
X018926D03*
Y003882D03*
X018335D03*
G54D45*
X011975Y011324D03*
X011660D03*
X011345D03*
X011030D03*
X010715D03*
X010400D03*
X010085D03*
X009770D03*
X009455D03*
X009140D03*
X008825D03*
Y006876D03*
X009140D03*
X009455D03*
X009770D03*
X010085D03*
X010400D03*
X010715D03*
X011030D03*
X011345D03*
X011660D03*
X011975D03*
G54D46*
X008176Y010675D03*
Y010360D03*
Y010045D03*
Y009730D03*
Y009415D03*
Y009100D03*
Y008785D03*
Y008470D03*
Y008155D03*
Y007840D03*
Y007525D03*
X012624D03*
Y007840D03*
Y008155D03*
Y008470D03*
Y008785D03*
Y009100D03*
Y009415D03*
Y009730D03*
Y010045D03*
Y010360D03*
Y010675D03*
G54D47*
X002850Y013790D03*
Y003747D03*
G54D48*
X003850Y010568D03*
Y008768D03*
Y009668D03*
Y007868D03*
Y006968D03*
X002850Y007418D03*
Y008318D03*
Y010118D03*
Y009218D03*
Y011018D03*
X001850Y006968D03*
Y007868D03*
Y009668D03*
Y008768D03*
Y010568D03*
G54D49*
X016573Y015650D03*
X017573D03*
X018573D03*
X020380Y012550D03*
X020130Y003555D03*
Y004555D03*
Y005555D03*
X004500Y-000445D03*
X003500D03*
X016215D03*
X015215D03*
X014215D03*
X013215D03*
X012215D03*
X011215D03*
X010215D03*
X016215Y002555D03*
X015215D03*
X014215D03*
X013215D03*
X012215D03*
X011215D03*
X010215D03*
X016573Y018161D03*
X006858Y000555D03*
Y001555D03*
Y002555D03*
X007858Y018161D03*
X008858D03*
X012215D03*
X013215D03*
X004500D03*
X003500D03*
X002500D03*
X009800Y014000D03*
X008800D03*
X009800Y015000D03*
X008800D03*
X009800Y016000D03*
G54D50*
X019573Y015650D03*
X002500Y-000445D03*
X009215D03*
Y002555D03*
X017573Y018161D03*
X009858D03*
X014215D03*
X005500D03*
G54D51*
X020380Y011550D03*
X020130Y002555D03*
X006858Y-000445D03*
X008800Y016000D03*
G54D52*
X015000Y011500D03*
Y013650D03*
Y012575D03*
X006500Y008000D03*
X009500Y009050D03*
X015552Y003900D03*
X010850Y004900D03*
X010400Y010350D03*
G54D53*
X000000Y000000D03*
Y017717D03*
X019685Y000000D03*
Y017717D03*
M02*