%FSDAX24Y24*%
%MOIN*%
%SFA1B1*%

%IPPOS*%
%ADD41C,0.067100*%
%ADD42R,0.067100X0.067100*%
%ADD43R,0.067100X0.067100*%
%ADD44C,0.204900*%
%ADD45C,0.058000*%
%LNmetr4810_pcblayout-1*%
%LPD*%
G54D41*
X015498Y002229D03*
Y003229D03*
X016498Y002229D03*
Y003229D03*
X017498Y002229D03*
Y003229D03*
X018498Y002229D03*
X005111D03*
Y003229D03*
X006111Y002229D03*
Y003229D03*
X007111Y002229D03*
Y003229D03*
X008111Y002229D03*
X013371Y003229D03*
Y002229D03*
X012371Y003229D03*
Y002229D03*
X011371Y003229D03*
Y002229D03*
X010371Y003229D03*
X019039Y018856D03*
Y015363D03*
X003459Y013805D03*
X002459Y012805D03*
X003459D03*
X002459Y011805D03*
X003459D03*
X019039Y006150D03*
X018039D03*
X019039Y007150D03*
X018039D03*
X019039Y008150D03*
X018039D03*
X019039Y009150D03*
X018039D03*
X019039Y010150D03*
X018039D03*
X019039Y011150D03*
X002459Y007961D03*
X003459D03*
X002459Y006961D03*
X003459D03*
X002459Y005961D03*
X003459D03*
X002459Y004961D03*
G54D42*
X018498Y003229D03*
X008111D03*
X010371Y002229D03*
G54D43*
X019039Y017856D03*
Y014363D03*
X002459Y013805D03*
X018039Y011150D03*
X003459Y004961D03*
G54D44*
X000000Y000000D03*
Y021000D03*
X021000Y000000D03*
Y021000D03*
G54D45*
X011450Y007850D03*
X010300Y009050D03*
X014650Y011750D03*
X015282Y018086D03*
X010632D03*
X003800Y018200D03*
Y016100D03*
M02*