%FSDAX24Y24*%
%MOIN*%
%SFA1B1*%

%IPPOS*%
%ADD20C,0.010000*%
%ADD21C,0.059100*%
%ADD22R,0.059100X0.059100*%
%ADD23R,0.059100X0.059100*%
%ADD24C,0.196900*%
%ADD25C,0.050000*%
%ADD46C,0.005000*%
%ADD47C,0.020000*%
%ADD48C,0.040000*%
%ADD49C,0.080000*%
%ADD50C,0.160000*%
%ADD51C,0.320000*%
%ADD52C,0.640000*%
%LNmetr4810_pcblayout-1*%
%LPD*%
G54D46*
X022822Y-001822D02*
X-001822D01*
Y022822*
X022822*
Y-001822*
G54D20*
X022772Y-001771D02*
X-001772Y-001772D01*
Y022772*
X022772*
Y-001771*
G54D47*
X022672Y-001671D02*
X-001672D01*
Y022672*
X022672*
Y-001671*
G54D48*
X022472Y-001471D02*
X-001471Y-001471D01*
X-001472Y022472*
X022472*
Y-001471*
G54D49*
X022072Y-001071D02*
X-001071D01*
Y022072*
X022072*
Y-001071*
G54D50*
X021272Y-000271D02*
X-000271D01*
Y021272*
X021272*
Y-000271*
G54D51*
X019672Y001328D02*
X001328D01*
Y019672*
X019672*
Y001328*
G54D52*
X016472Y004528D02*
X004528D01*
Y016472*
X016472*
Y004528*
X013272Y007728D02*
X007728D01*
Y013272*
X013272*
Y007728*
X010072Y010928D02*
X010928D01*
Y010072*
X010072*
Y010928*
%LNmetr4810_pcblayout-2*%
%LPC*%
G36*
X018989Y007542D02*
X018935Y007535D01*
X018839Y007495*
X018757Y007432*
X018693Y007349*
X018654Y007253*
X018647Y007200*
X018989*
Y007542*
G37*
G36*
Y007100D02*
X018647D01*
X018654Y007047*
X018693Y006951*
X018757Y006868*
X018839Y006805*
X018935Y006765*
X018989Y006758*
Y007100*
G37*
G36*
X019431D02*
X019089D01*
Y006758*
X019142Y006765*
X019238Y006805*
X019321Y006868*
X019384Y006951*
X019424Y007047*
X019431Y007100*
G37*
G36*
X011796Y007800D02*
X011500D01*
Y007504*
X011541Y007509*
X011627Y007544*
X011700Y007600*
X011756Y007673*
X011791Y007759*
X011796Y007800*
G37*
G36*
X011400D02*
X011104D01*
X011109Y007759*
X011144Y007673*
X011200Y007600*
X011273Y007544*
X011359Y007509*
X011400Y007504*
Y007800*
G37*
G36*
X019089Y007542D02*
Y007200D01*
X019431*
X019424Y007253*
X019384Y007349*
X019321Y007432*
X019238Y007495*
X019142Y007535*
X019089Y007542*
G37*
G36*
X018039Y007549D02*
X017935Y007535D01*
X017839Y007495*
X017757Y007432*
X017693Y007349*
X017654Y007253*
X017640Y007150*
X017654Y007047*
X017693Y006951*
X017757Y006868*
X017839Y006805*
X017935Y006765*
X018039Y006751*
X018142Y006765*
X018238Y006805*
X018321Y006868*
X018384Y006951*
X018424Y007047*
X018437Y007150*
X018424Y007253*
X018384Y007349*
X018321Y007432*
X018238Y007495*
X018142Y007535*
X018039Y007549*
G37*
G36*
X018989Y006542D02*
X018935Y006535D01*
X018839Y006495*
X018757Y006432*
X018693Y006349*
X018654Y006253*
X018647Y006200*
X018989*
Y006542*
G37*
G36*
X003509Y006353D02*
Y006011D01*
X003851*
X003844Y006064*
X003804Y006161*
X003741Y006243*
X003658Y006306*
X003562Y006346*
X003509Y006353*
G37*
G36*
X018989Y006100D02*
X018647D01*
X018654Y006047*
X018693Y005951*
X018757Y005868*
X018839Y005805*
X018935Y005765*
X018989Y005758*
Y006100*
G37*
G36*
X003459Y007360D02*
X003355Y007346D01*
X003259Y007306*
X003177Y007243*
X003113Y007161*
X003074Y007064*
X003060Y006961*
X003074Y006858*
X003113Y006762*
X003177Y006679*
X003259Y006616*
X003355Y006576*
X003459Y006562*
X003562Y006576*
X003658Y006616*
X003741Y006679*
X003804Y006762*
X003844Y006858*
X003857Y006961*
X003844Y007064*
X003804Y007161*
X003741Y007243*
X003658Y007306*
X003562Y007346*
X003459Y007360*
G37*
G36*
X002459D02*
X002355Y007346D01*
X002259Y007306*
X002177Y007243*
X002113Y007161*
X002074Y007064*
X002060Y006961*
X002074Y006858*
X002113Y006762*
X002177Y006679*
X002259Y006616*
X002355Y006576*
X002459Y006562*
X002562Y006576*
X002658Y006616*
X002741Y006679*
X002804Y006762*
X002844Y006858*
X002857Y006961*
X002844Y007064*
X002804Y007161*
X002741Y007243*
X002658Y007306*
X002562Y007346*
X002459Y007360*
G37*
G36*
X019089Y006542D02*
Y006200D01*
X019431*
X019424Y006253*
X019384Y006349*
X019321Y006432*
X019238Y006495*
X019142Y006535*
X019089Y006542*
G37*
G36*
X018989Y008542D02*
X018935Y008535D01*
X018839Y008495*
X018757Y008432*
X018693Y008349*
X018654Y008253*
X018647Y008200*
X018989*
Y008542*
G37*
G36*
X002509Y008353D02*
Y008011D01*
X002851*
X002844Y008064*
X002804Y008160*
X002741Y008243*
X002658Y008306*
X002562Y008346*
X002509Y008353*
G37*
G36*
X002409D02*
X002355Y008346D01*
X002259Y008306*
X002177Y008243*
X002113Y008160*
X002074Y008064*
X002067Y008011*
X002409*
Y008353*
G37*
G36*
X010646Y009000D02*
X010350D01*
Y008704*
X010391Y008709*
X010477Y008744*
X010550Y008800*
X010606Y008873*
X010641Y008959*
X010646Y009000*
G37*
G36*
X010250D02*
X009954D01*
X009959Y008959*
X009994Y008873*
X010050Y008800*
X010123Y008744*
X010209Y008709*
X010250Y008704*
Y009000*
G37*
G36*
X019089Y008542D02*
Y008200D01*
X019431*
X019424Y008253*
X019384Y008349*
X019321Y008432*
X019238Y008495*
X019142Y008535*
X019089Y008542*
G37*
G36*
X011500Y008196D02*
Y007900D01*
X011796*
X011791Y007941*
X011756Y008027*
X011700Y008100*
X011627Y008156*
X011541Y008191*
X011500Y008196*
G37*
G36*
X018039Y008549D02*
X017935Y008535D01*
X017839Y008495*
X017757Y008432*
X017693Y008349*
X017654Y008253*
X017640Y008150*
X017654Y008047*
X017693Y007951*
X017757Y007868*
X017839Y007805*
X017935Y007765*
X018039Y007751*
X018142Y007765*
X018238Y007805*
X018321Y007868*
X018384Y007951*
X018424Y008047*
X018437Y008150*
X018424Y008253*
X018384Y008349*
X018321Y008432*
X018238Y008495*
X018142Y008535*
X018039Y008549*
G37*
G36*
X002409Y007911D02*
X002067D01*
X002074Y007858*
X002113Y007762*
X002177Y007679*
X002259Y007616*
X002355Y007576*
X002409Y007569*
Y007911*
G37*
G36*
X002851D02*
X002509D01*
Y007569*
X002562Y007576*
X002658Y007616*
X002741Y007679*
X002804Y007762*
X002844Y007858*
X002851Y007911*
G37*
G36*
X011400Y008196D02*
X011359Y008191D01*
X011273Y008156*
X011200Y008100*
X011144Y008027*
X011109Y007941*
X011104Y007900*
X011400*
Y008196*
G37*
G36*
X018989Y008100D02*
X018647D01*
X018654Y008047*
X018693Y007951*
X018757Y007868*
X018839Y007805*
X018935Y007765*
X018989Y007758*
Y008100*
G37*
G36*
X019431D02*
X019089D01*
Y007758*
X019142Y007765*
X019238Y007805*
X019321Y007868*
X019384Y007951*
X019424Y008047*
X019431Y008100*
G37*
G36*
Y006100D02*
X019089D01*
Y005758*
X019142Y005765*
X019238Y005805*
X019321Y005868*
X019384Y005951*
X019424Y006047*
X019431Y006100*
G37*
G36*
X005061Y002179D02*
X004719D01*
X004726Y002126*
X004766Y002030*
X004829Y001947*
X004912Y001884*
X005008Y001844*
X005061Y001837*
Y002179*
G37*
G36*
X015890D02*
X015548D01*
Y001837*
X015601Y001844*
X015697Y001884*
X015780Y001947*
X015843Y002030*
X015883Y002126*
X015890Y002179*
G37*
G36*
X005503D02*
X005161D01*
Y001837*
X005215Y001844*
X005311Y001884*
X005393Y001947*
X005457Y002030*
X005496Y002126*
X005503Y002179*
G37*
G36*
X015448Y002621D02*
X015395Y002614D01*
X015299Y002574*
X015216Y002511*
X015153Y002428*
X015113Y002332*
X015106Y002279*
X015448*
Y002621*
G37*
G36*
X005061D02*
X005008Y002614D01*
X004912Y002574*
X004829Y002511*
X004766Y002428*
X004726Y002332*
X004719Y002279*
X005061*
Y002621*
G37*
G36*
X015448Y002179D02*
X015106D01*
X015113Y002126*
X015153Y002030*
X015216Y001947*
X015299Y001884*
X015395Y001844*
X015448Y001837*
Y002179*
G37*
G36*
X010767Y002624D02*
X009976D01*
Y001834*
X010767*
Y002624*
G37*
G36*
X012371Y003628D02*
X012268Y003614D01*
X012172Y003574*
X012090Y003511*
X012026Y003428*
X011986Y003332*
X011973Y003229*
X011986Y003126*
X012026Y003029*
X012090Y002947*
X012172Y002884*
X012219Y002864*
Y002859*
X012230Y002800*
X012263Y002750*
X012340Y002674*
X012322Y002621*
X012268Y002614*
X012172Y002574*
X012090Y002511*
X012026Y002428*
X011986Y002332*
X011973Y002229*
X011986Y002126*
X012026Y002030*
X012090Y001947*
X012172Y001884*
X012268Y001844*
X012371Y001830*
X012475Y001844*
X012571Y001884*
X012653Y001947*
X012664Y001961*
X012725Y001958*
X013035Y001649*
X013015Y001603*
X006954*
X006477Y002079*
X006496Y002126*
X006510Y002229*
X006496Y002332*
X006457Y002428*
X006393Y002511*
X006311Y002574*
X006215Y002614*
X006111Y002628*
X006008Y002614*
X005912Y002574*
X005829Y002511*
X005766Y002428*
X005726Y002332*
X005713Y002229*
X005726Y002126*
X005766Y002030*
X005829Y001947*
X005912Y001884*
X006008Y001844*
X006111Y001830*
X006215Y001844*
X006261Y001863*
X006782Y001342*
X006832Y001309*
X006890Y001297*
X015719*
X015778Y001309*
X015827Y001342*
X016348Y001863*
X016395Y001844*
X016498Y001830*
X016601Y001844*
X016697Y001884*
X016780Y001947*
X016843Y002030*
X016883Y002126*
X016897Y002229*
X016883Y002332*
X016843Y002428*
X016780Y002511*
X016697Y002574*
X016601Y002614*
X016498Y002628*
X016395Y002614*
X016299Y002574*
X016216Y002511*
X016153Y002428*
X016113Y002332*
X016099Y002229*
X016113Y002126*
X016132Y002079*
X015656Y001603*
X013513*
X013328Y001788*
X013350Y001833*
X013371Y001830*
X013475Y001844*
X013571Y001884*
X013653Y001947*
X013717Y002030*
X013757Y002126*
X013770Y002229*
X013757Y002332*
X013717Y002428*
X013653Y002511*
X013571Y002574*
X013475Y002614*
X013371Y002628*
X013268Y002614*
X013172Y002574*
X013090Y002511*
X013026Y002428*
X013017Y002426*
X012960Y002464*
X012958Y002472*
X012925Y002521*
X012602Y002844*
X012606Y002911*
X012653Y002947*
X012717Y003029*
X012757Y003126*
X012770Y003229*
X012757Y003332*
X012717Y003428*
X012653Y003511*
X012571Y003574*
X012475Y003614*
X012371Y003628*
G37*
G36*
X021000Y001088D02*
X020830Y001074D01*
X020664Y001034*
X020506Y000969*
X020361Y000880*
X020231Y000769*
X020120Y000639*
X020031Y000494*
X019966Y000336*
X019926Y000170*
X019912Y000000*
X019926Y-000170*
X019966Y-000336*
X020031Y-000494*
X020120Y-000639*
X020231Y-000769*
X020361Y-000880*
X020506Y-000969*
X020664Y-001034*
X020830Y-001074*
X021000Y-001088*
X021170Y-001074*
X021336Y-001034*
X021494Y-000969*
X021639Y-000880*
X021769Y-000769*
X021880Y-000639*
X021969Y-000494*
X022034Y-000336*
X022074Y-000170*
X022088Y000000*
X022074Y000170*
X022034Y000336*
X021969Y000494*
X021880Y000639*
X021769Y000769*
X021639Y000880*
X021494Y000969*
X021336Y001034*
X021170Y001074*
X021000Y001088*
G37*
G36*
X000000D02*
X-000170Y001074D01*
X-000336Y001034*
X-000494Y000969*
X-000639Y000880*
X-000769Y000769*
X-000880Y000639*
X-000969Y000494*
X-001034Y000336*
X-001074Y000170*
X-001088Y000000*
X-001074Y-000170*
X-001034Y-000336*
X-000969Y-000494*
X-000880Y-000639*
X-000769Y-000769*
X-000639Y-000880*
X-000494Y-000969*
X-000336Y-001034*
X-000170Y-001074*
X000000Y-001088*
X000170Y-001074*
X000336Y-001034*
X000494Y-000969*
X000639Y-000880*
X000769Y-000769*
X000880Y-000639*
X000969Y-000494*
X001034Y-000336*
X001074Y-000170*
X001088Y000000*
X001074Y000170*
X001034Y000336*
X000969Y000494*
X000880Y000639*
X000769Y000769*
X000639Y000880*
X000494Y000969*
X000336Y001034*
X000170Y001074*
X000000Y001088*
G37*
G36*
X018498Y002628D02*
X018395Y002614D01*
X018299Y002574*
X018216Y002511*
X018153Y002428*
X018113Y002332*
X018099Y002229*
X018113Y002126*
X018153Y002030*
X018216Y001947*
X018299Y001884*
X018395Y001844*
X018498Y001830*
X018601Y001844*
X018697Y001884*
X018780Y001947*
X018843Y002030*
X018883Y002126*
X018897Y002229*
X018883Y002332*
X018843Y002428*
X018780Y002511*
X018697Y002574*
X018601Y002614*
X018498Y002628*
G37*
G36*
X011371D02*
X011268Y002614D01*
X011172Y002574*
X011090Y002511*
X011026Y002428*
X010986Y002332*
X010973Y002229*
X010986Y002126*
X011026Y002030*
X011090Y001947*
X011172Y001884*
X011268Y001844*
X011371Y001830*
X011475Y001844*
X011571Y001884*
X011653Y001947*
X011717Y002030*
X011757Y002126*
X011770Y002229*
X011757Y002332*
X011717Y002428*
X011653Y002511*
X011571Y002574*
X011475Y002614*
X011371Y002628*
G37*
G36*
X008111D02*
X008008Y002614D01*
X007912Y002574*
X007829Y002511*
X007766Y002428*
X007726Y002332*
X007713Y002229*
X007726Y002126*
X007766Y002030*
X007829Y001947*
X007912Y001884*
X008008Y001844*
X008111Y001830*
X008215Y001844*
X008311Y001884*
X008393Y001947*
X008457Y002030*
X008496Y002126*
X008510Y002229*
X008496Y002332*
X008457Y002428*
X008393Y002511*
X008311Y002574*
X008215Y002614*
X008111Y002628*
G37*
G36*
X013421Y003621D02*
Y003279D01*
X013764*
X013757Y003332*
X013717Y003428*
X013653Y003511*
X013571Y003574*
X013475Y003614*
X013421Y003621*
G37*
G36*
X013321D02*
X013268Y003614D01*
X013172Y003574*
X013090Y003511*
X013026Y003428*
X012986Y003332*
X012979Y003279*
X013321*
Y003621*
G37*
G36*
X013764Y003179D02*
X013421D01*
Y002837*
X013475Y002844*
X013571Y002884*
X013653Y002947*
X013717Y003029*
X013757Y003126*
X013764Y003179*
G37*
G36*
X018039Y006549D02*
X017935Y006535D01*
X017839Y006495*
X017757Y006432*
X017693Y006349*
X017654Y006253*
X017640Y006150*
X017654Y006047*
X017693Y005951*
X017757Y005868*
X017839Y005805*
X017935Y005765*
X018039Y005751*
X018142Y005765*
X018238Y005805*
X018321Y005868*
X018384Y005951*
X018424Y006047*
X018437Y006150*
X018424Y006253*
X018384Y006349*
X018321Y006432*
X018238Y006495*
X018142Y006535*
X018039Y006549*
G37*
G36*
X002459Y005360D02*
X002355Y005346D01*
X002259Y005306*
X002177Y005243*
X002113Y005160*
X002074Y005064*
X002060Y004961*
X002074Y004858*
X002113Y004762*
X002177Y004679*
X002259Y004616*
X002355Y004576*
X002459Y004562*
X002562Y004576*
X002658Y004616*
X002741Y004679*
X002804Y004762*
X002844Y004858*
X002857Y004961*
X002844Y005064*
X002804Y005160*
X002741Y005243*
X002658Y005306*
X002562Y005346*
X002459Y005360*
G37*
G36*
X019434Y014759D02*
X018643D01*
Y013968*
X019218*
X019497Y013689*
Y005247*
X017945Y003694*
X017911Y003645*
X017900Y003586*
Y003422*
X017850Y003412*
X017843Y003428*
X017780Y003511*
X017697Y003574*
X017601Y003614*
X017498Y003628*
X017395Y003614*
X017299Y003574*
X017216Y003511*
X017153Y003428*
X017143Y003426*
X017086Y003464*
X017085Y003472*
X017051Y003521*
X016565Y004008*
X016515Y004041*
X016457Y004053*
X006133*
X004562Y005624*
X004513Y005657*
X004454Y005669*
X003796*
X003771Y005719*
X003804Y005762*
X003844Y005858*
X003851Y005911*
X003459*
Y005961*
X003409*
Y006353*
X003355Y006346*
X003259Y006306*
X003177Y006243*
X003113Y006161*
X003074Y006064*
X003066Y006011*
X003014Y005993*
X002937Y006069*
X002887Y006102*
X002829Y006114*
X002823*
X002804Y006161*
X002741Y006243*
X002658Y006306*
X002562Y006346*
X002459Y006360*
X002355Y006346*
X002259Y006306*
X002177Y006243*
X002113Y006161*
X002074Y006064*
X002060Y005961*
X002074Y005858*
X002113Y005762*
X002177Y005679*
X002259Y005616*
X002355Y005576*
X002459Y005562*
X002562Y005576*
X002658Y005616*
X002741Y005679*
X002777Y005726*
X002843Y005731*
X003166Y005408*
X003168Y005406*
X003153Y005356*
X003063*
Y004566*
X003854*
Y005356*
X003901Y005363*
X004391*
X005962Y003792*
X006080Y003674*
X006062Y003621*
X006008Y003614*
X005912Y003574*
X005829Y003511*
X005766Y003428*
X005726Y003332*
X005713Y003229*
X005726Y003126*
X005766Y003029*
X005829Y002947*
X005912Y002884*
X006008Y002844*
X006111Y002830*
X006215Y002844*
X006311Y002884*
X006354Y002917*
X006404Y002892*
Y002784*
X006415Y002725*
X006448Y002675*
X006745Y002378*
X006726Y002332*
X006713Y002229*
X006726Y002126*
X006766Y002030*
X006829Y001947*
X006912Y001884*
X007008Y001844*
X007111Y001830*
X007215Y001844*
X007311Y001884*
X007393Y001947*
X007457Y002030*
X007496Y002126*
X007510Y002229*
X007496Y002332*
X007457Y002428*
X007393Y002511*
X007311Y002574*
X007215Y002614*
X007111Y002628*
X007008Y002614*
X006962Y002595*
X006710Y002847*
Y003035*
X006760Y003045*
X006766Y003029*
X006829Y002947*
X006912Y002884*
X007008Y002844*
X007111Y002830*
X007215Y002844*
X007311Y002884*
X007393Y002947*
X007457Y003029*
X007496Y003126*
X007510Y003229*
X007496Y003332*
X007457Y003428*
X007393Y003511*
X007311Y003574*
X007215Y003614*
X007111Y003628*
X007008Y003614*
X006912Y003574*
X006829Y003511*
X006766Y003428*
X006757Y003426*
X006700Y003464*
X006698Y003472*
X006665Y003521*
X006485Y003701*
X006504Y003747*
X010637*
X011006Y003378*
X010986Y003332*
X010973Y003229*
X010986Y003126*
X011026Y003029*
X011090Y002947*
X011172Y002884*
X011268Y002844*
X011371Y002830*
X011475Y002844*
X011571Y002884*
X011653Y002947*
X011717Y003029*
X011757Y003126*
X011770Y003229*
X011757Y003332*
X011717Y003428*
X011653Y003511*
X011571Y003574*
X011475Y003614*
X011371Y003628*
X011268Y003614*
X011222Y003595*
X011116Y003701*
X011135Y003747*
X016393*
X016466Y003674*
X016449Y003621*
X016395Y003614*
X016299Y003574*
X016216Y003511*
X016153Y003428*
X016113Y003332*
X016099Y003229*
X016113Y003126*
X016153Y003029*
X016216Y002947*
X016299Y002884*
X016395Y002844*
X016498Y002830*
X016601Y002844*
X016697Y002884*
X016740Y002917*
X016790Y002892*
Y002784*
X016802Y002725*
X016835Y002675*
X017132Y002378*
X017113Y002332*
X017099Y002229*
X017113Y002126*
X017153Y002030*
X017216Y001947*
X017299Y001884*
X017395Y001844*
X017498Y001830*
X017601Y001844*
X017697Y001884*
X017780Y001947*
X017843Y002030*
X017883Y002126*
X017897Y002229*
X017883Y002332*
X017864Y002378*
X018161Y002675*
X018194Y002725*
X018206Y002784*
Y002834*
X018893*
Y003624*
X018372*
X018353Y003670*
X019758Y005075*
X019791Y005125*
X019803Y005184*
Y013752*
X019791Y013811*
X019758Y013860*
X019434Y014184*
Y014759*
G37*
G36*
X013321Y003179D02*
X012979D01*
X012986Y003126*
X013026Y003029*
X013090Y002947*
X013172Y002884*
X013268Y002844*
X013321Y002837*
Y003179*
G37*
G36*
X005111Y003628D02*
X005008Y003614D01*
X004912Y003574*
X004829Y003511*
X004766Y003428*
X004726Y003332*
X004713Y003229*
X004726Y003126*
X004766Y003029*
X004829Y002947*
X004912Y002884*
X005008Y002844*
X005111Y002830*
X005215Y002844*
X005311Y002884*
X005393Y002947*
X005457Y003029*
X005496Y003126*
X005510Y003229*
X005496Y003332*
X005457Y003428*
X005393Y003511*
X005311Y003574*
X005215Y003614*
X005111Y003628*
G37*
G36*
X015548Y002621D02*
Y002279D01*
X015890*
X015883Y002332*
X015843Y002428*
X015780Y002511*
X015697Y002574*
X015601Y002614*
X015548Y002621*
G37*
G36*
X005161D02*
Y002279D01*
X005503*
X005496Y002332*
X005457Y002428*
X005393Y002511*
X005311Y002574*
X005215Y002614*
X005161Y002621*
G37*
G36*
X008507Y003624D02*
X007716D01*
Y002834*
X008507*
Y003624*
G37*
G36*
X015498Y003628D02*
X015395Y003614D01*
X015299Y003574*
X015216Y003511*
X015153Y003428*
X015113Y003332*
X015099Y003229*
X015113Y003126*
X015153Y003029*
X015216Y002947*
X015299Y002884*
X015395Y002844*
X015498Y002830*
X015601Y002844*
X015697Y002884*
X015780Y002947*
X015843Y003029*
X015883Y003126*
X015897Y003229*
X015883Y003332*
X015843Y003428*
X015780Y003511*
X015697Y003574*
X015601Y003614*
X015498Y003628*
G37*
G36*
X010371D02*
X010268Y003614D01*
X010172Y003574*
X010090Y003511*
X010026Y003428*
X009986Y003332*
X009973Y003229*
X009986Y003126*
X010026Y003029*
X010090Y002947*
X010172Y002884*
X010268Y002844*
X010371Y002830*
X010475Y002844*
X010571Y002884*
X010653Y002947*
X010717Y003029*
X010757Y003126*
X010770Y003229*
X010757Y003332*
X010717Y003428*
X010653Y003511*
X010571Y003574*
X010475Y003614*
X010371Y003628*
G37*
G36*
X010582Y018036D02*
X010285D01*
X010291Y017994*
X010326Y017909*
X010382Y017836*
X010455Y017780*
X010540Y017745*
X010582Y017739*
Y018036*
G37*
G36*
X019434Y018251D02*
X018643D01*
Y017460*
X019434*
Y018251*
G37*
G36*
X003850Y016446D02*
Y016150D01*
X004146*
X004141Y016191*
X004106Y016277*
X004050Y016350*
X003977Y016406*
X003891Y016441*
X003850Y016446*
G37*
G36*
X015628Y018036D02*
X015332D01*
Y017739*
X015373Y017745*
X015458Y017780*
X015531Y017836*
X015587Y017909*
X015623Y017994*
X015628Y018036*
G37*
G36*
X015232D02*
X014935D01*
X014941Y017994*
X014976Y017909*
X015032Y017836*
X015105Y017780*
X015190Y017745*
X015232Y017739*
Y018036*
G37*
G36*
X010978D02*
X010682D01*
Y017739*
X010723Y017745*
X010808Y017780*
X010881Y017836*
X010937Y017909*
X010973Y017994*
X010978Y018036*
G37*
G36*
X003750Y016446D02*
X003709Y016441D01*
X003623Y016406*
X003550Y016350*
X003494Y016277*
X003459Y016191*
X003454Y016150*
X003750*
Y016446*
G37*
G36*
X018989Y015755D02*
X018935Y015748D01*
X018839Y015709*
X018757Y015645*
X018693Y015563*
X018654Y015467*
X018647Y015413*
X018989*
Y015755*
G37*
G36*
Y015313D02*
X018647D01*
X018654Y015260*
X018693Y015164*
X018757Y015081*
X018839Y015018*
X018935Y014978*
X018989Y014971*
Y015313*
G37*
G36*
X019431D02*
X019089D01*
Y014971*
X019142Y014978*
X019238Y015018*
X019321Y015081*
X019384Y015164*
X019424Y015260*
X019431Y015313*
G37*
G36*
X004146Y016050D02*
X003850D01*
Y015754*
X003891Y015759*
X003977Y015794*
X004050Y015850*
X004106Y015923*
X004141Y016009*
X004146Y016050*
G37*
G36*
X003750D02*
X003454D01*
X003459Y016009*
X003494Y015923*
X003550Y015850*
X003623Y015794*
X003709Y015759*
X003750Y015754*
Y016050*
G37*
G36*
X019089Y015755D02*
Y015413D01*
X019431*
X019424Y015467*
X019384Y015563*
X019321Y015645*
X019238Y015709*
X019142Y015748*
X019089Y015755*
G37*
G36*
X003750Y018150D02*
X003454D01*
X003459Y018109*
X003494Y018023*
X003550Y017950*
X003623Y017894*
X003709Y017859*
X003750Y017854*
Y018150*
G37*
G36*
X018989Y019248D02*
X018935Y019241D01*
X018839Y019201*
X018757Y019137*
X018693Y019055*
X018654Y018959*
X018647Y018906*
X018989*
Y019248*
G37*
G36*
Y018806D02*
X018647D01*
X018654Y018752*
X018693Y018656*
X018757Y018574*
X018839Y018510*
X018935Y018470*
X018989Y018463*
Y018806*
G37*
G36*
X019431D02*
X019089D01*
Y018463*
X019142Y018470*
X019238Y018510*
X019321Y018574*
X019384Y018656*
X019424Y018752*
X019431Y018806*
G37*
G36*
X021000Y022088D02*
X020830Y022074D01*
X020664Y022034*
X020506Y021969*
X020361Y021880*
X020231Y021769*
X020120Y021639*
X020031Y021494*
X019966Y021336*
X019926Y021170*
X019912Y021000*
X019926Y020830*
X019966Y020664*
X020031Y020506*
X020120Y020361*
X020231Y020231*
X020361Y020120*
X020506Y020031*
X020664Y019966*
X020830Y019926*
X021000Y019912*
X021170Y019926*
X021336Y019966*
X021494Y020031*
X021639Y020120*
X021769Y020231*
X021880Y020361*
X021969Y020506*
X022034Y020664*
X022074Y020830*
X022088Y021000*
X022074Y021170*
X022034Y021336*
X021969Y021494*
X021880Y021639*
X021769Y021769*
X021639Y021880*
X021494Y021969*
X021336Y022034*
X021170Y022074*
X021000Y022088*
G37*
G36*
X000000D02*
X-000170Y022074D01*
X-000336Y022034*
X-000494Y021969*
X-000639Y021880*
X-000769Y021769*
X-000880Y021639*
X-000969Y021494*
X-001034Y021336*
X-001074Y021170*
X-001088Y021000*
X-001074Y020830*
X-001034Y020664*
X-000969Y020506*
X-000880Y020361*
X-000769Y020231*
X-000639Y020120*
X-000494Y020031*
X-000336Y019966*
X-000170Y019926*
X000000Y019912*
X000170Y019926*
X000336Y019966*
X000494Y020031*
X000639Y020120*
X000769Y020231*
X000880Y020361*
X000969Y020506*
X001034Y020664*
X001074Y020830*
X001088Y021000*
X001074Y021170*
X001034Y021336*
X000969Y021494*
X000880Y021639*
X000769Y021769*
X000639Y021880*
X000494Y021969*
X000336Y022034*
X000170Y022074*
X000000Y022088*
G37*
G36*
X019089Y019248D02*
Y018906D01*
X019431*
X019424Y018959*
X019384Y019055*
X019321Y019137*
X019238Y019201*
X019142Y019241*
X019089Y019248*
G37*
G36*
X003850Y018546D02*
Y018250D01*
X004146*
X004141Y018291*
X004106Y018377*
X004050Y018450*
X003977Y018506*
X003891Y018541*
X003850Y018546*
G37*
G36*
X010682Y018432D02*
Y018136D01*
X010978*
X010973Y018177*
X010937Y018262*
X010881Y018335*
X010808Y018392*
X010723Y018427*
X010682Y018432*
G37*
G36*
X010582D02*
X010540Y018427D01*
X010455Y018392*
X010382Y018335*
X010326Y018262*
X010291Y018177*
X010285Y018136*
X010582*
Y018432*
G37*
G36*
X004146Y018150D02*
X003850D01*
Y017854*
X003891Y017859*
X003977Y017894*
X004050Y017950*
X004106Y018023*
X004141Y018109*
X004146Y018150*
G37*
G36*
X003750Y018546D02*
X003709Y018541D01*
X003623Y018506*
X003550Y018450*
X003494Y018377*
X003459Y018291*
X003454Y018250*
X003750*
Y018546*
G37*
G36*
X015332Y018432D02*
Y018136D01*
X015628*
X015623Y018177*
X015587Y018262*
X015531Y018335*
X015458Y018392*
X015373Y018427*
X015332Y018432*
G37*
G36*
X015232D02*
X015190Y018427D01*
X015105Y018392*
X015032Y018335*
X014976Y018262*
X014941Y018177*
X014935Y018136*
X015232*
Y018432*
G37*
G36*
X018989Y010100D02*
X018647D01*
X018654Y010047*
X018693Y009951*
X018757Y009868*
X018839Y009805*
X018935Y009765*
X018989Y009758*
Y010100*
G37*
G36*
X019431D02*
X019089D01*
Y009758*
X019142Y009765*
X019238Y009805*
X019321Y009868*
X019384Y009951*
X019424Y010047*
X019431Y010100*
G37*
G36*
X018039Y010549D02*
X017935Y010535D01*
X017839Y010495*
X017757Y010432*
X017693Y010349*
X017654Y010253*
X017640Y010150*
X017654Y010047*
X017693Y009951*
X017757Y009868*
X017839Y009805*
X017935Y009765*
X018039Y009751*
X018142Y009765*
X018238Y009805*
X018321Y009868*
X018384Y009951*
X018424Y010047*
X018437Y010150*
X018424Y010253*
X018384Y010349*
X018321Y010432*
X018238Y010495*
X018142Y010535*
X018039Y010549*
G37*
G36*
X018434Y011545D02*
X017643D01*
Y010755*
X018434*
Y011545*
G37*
G36*
X019089Y010542D02*
Y010200D01*
X019431*
X019424Y010253*
X019384Y010349*
X019321Y010432*
X019238Y010495*
X019142Y010535*
X019089Y010542*
G37*
G36*
X018989D02*
X018935Y010535D01*
X018839Y010495*
X018757Y010432*
X018693Y010349*
X018654Y010253*
X018647Y010200*
X018989*
Y010542*
G37*
G36*
X019089Y009542D02*
Y009200D01*
X019431*
X019424Y009253*
X019384Y009349*
X019321Y009432*
X019238Y009495*
X019142Y009535*
X019089Y009542*
G37*
G36*
X018989Y009100D02*
X018647D01*
X018654Y009047*
X018693Y008951*
X018757Y008868*
X018839Y008805*
X018935Y008765*
X018989Y008758*
Y009100*
G37*
G36*
X019431D02*
X019089D01*
Y008758*
X019142Y008765*
X019238Y008805*
X019321Y008868*
X019384Y008951*
X019424Y009047*
X019431Y009100*
G37*
G36*
X018039Y009549D02*
X017935Y009535D01*
X017839Y009495*
X017757Y009432*
X017693Y009349*
X017654Y009253*
X017640Y009150*
X017654Y009047*
X017693Y008951*
X017757Y008868*
X017839Y008805*
X017935Y008765*
X018039Y008751*
X018142Y008765*
X018238Y008805*
X018321Y008868*
X018384Y008951*
X018424Y009047*
X018437Y009150*
X018424Y009253*
X018384Y009349*
X018321Y009432*
X018238Y009495*
X018142Y009535*
X018039Y009549*
G37*
G36*
X018989Y009542D02*
X018935Y009535D01*
X018839Y009495*
X018757Y009432*
X018693Y009349*
X018654Y009253*
X018647Y009200*
X018989*
Y009542*
G37*
G36*
X010350Y009396D02*
Y009100D01*
X010646*
X010641Y009141*
X010606Y009227*
X010550Y009300*
X010477Y009356*
X010391Y009391*
X010350Y009396*
G37*
G36*
X010250D02*
X010209Y009391D01*
X010123Y009356*
X010050Y009300*
X009994Y009227*
X009959Y009141*
X009954Y009100*
X010250*
Y009396*
G37*
G36*
X019431Y011100D02*
X019089D01*
Y010758*
X019142Y010765*
X019238Y010805*
X019321Y010868*
X019384Y010951*
X019424Y011047*
X019431Y011100*
G37*
G36*
X002459Y013204D02*
X002355Y013190D01*
X002259Y013151*
X002177Y013087*
X002113Y013005*
X002074Y012909*
X002060Y012805*
X002074Y012702*
X002113Y012606*
X002177Y012523*
X002259Y012460*
X002355Y012420*
X002459Y012407*
X002562Y012420*
X002658Y012460*
X002741Y012523*
X002804Y012606*
X002844Y012702*
X002857Y012805*
X002844Y012909*
X002804Y013005*
X002741Y013087*
X002658Y013151*
X002562Y013190*
X002459Y013204*
G37*
G36*
X003509Y012197D02*
Y011855D01*
X003851*
X003844Y011909*
X003804Y012005*
X003741Y012087*
X003658Y012151*
X003562Y012190*
X003509Y012197*
G37*
G36*
X003409D02*
X003355Y012190D01*
X003259Y012151*
X003177Y012087*
X003113Y012005*
X003074Y011909*
X003067Y011855*
X003409*
Y012197*
G37*
G36*
X002854Y014201D02*
X002063D01*
Y013410*
X002854*
Y014201*
G37*
G36*
X003459Y014204D02*
X003355Y014190D01*
X003259Y014151*
X003177Y014087*
X003113Y014005*
X003074Y013909*
X003060Y013805*
X003074Y013702*
X003113Y013606*
X003177Y013523*
X003259Y013460*
X003355Y013420*
X003459Y013407*
X003562Y013420*
X003658Y013460*
X003741Y013523*
X003804Y013606*
X003844Y013702*
X003857Y013805*
X003844Y013909*
X003804Y014005*
X003741Y014087*
X003658Y014151*
X003562Y014190*
X003459Y014204*
G37*
G36*
Y013204D02*
X003355Y013190D01*
X003259Y013151*
X003177Y013087*
X003113Y013005*
X003074Y012909*
X003060Y012805*
X003074Y012702*
X003113Y012606*
X003177Y012523*
X003259Y012460*
X003355Y012420*
X003459Y012407*
X003562Y012420*
X003658Y012460*
X003741Y012523*
X003804Y012606*
X003844Y012702*
X003857Y012805*
X003844Y012909*
X003804Y013005*
X003741Y013087*
X003658Y013151*
X003562Y013190*
X003459Y013204*
G37*
G36*
X003851Y011755D02*
X003509D01*
Y011413*
X003562Y011420*
X003658Y011460*
X003741Y011523*
X003804Y011606*
X003844Y011702*
X003851Y011755*
G37*
G36*
X019089Y011542D02*
Y011200D01*
X019431*
X019424Y011253*
X019384Y011349*
X019321Y011432*
X019238Y011495*
X019142Y011535*
X019089Y011542*
G37*
G36*
X018989D02*
X018935Y011535D01*
X018839Y011495*
X018757Y011432*
X018693Y011349*
X018654Y011253*
X018647Y011200*
X018989*
Y011542*
G37*
G36*
Y011100D02*
X018647D01*
X018654Y011047*
X018693Y010951*
X018757Y010868*
X018839Y010805*
X018935Y010765*
X018989Y010758*
Y011100*
G37*
G36*
X003409Y011755D02*
X003067D01*
X003074Y011702*
X003113Y011606*
X003177Y011523*
X003259Y011460*
X003355Y011420*
X003409Y011413*
Y011755*
G37*
G36*
X002459Y012204D02*
X002355Y012190D01*
X002259Y012151*
X002177Y012087*
X002113Y012005*
X002074Y011909*
X002060Y011805*
X002074Y011702*
X002113Y011606*
X002177Y011523*
X002259Y011460*
X002355Y011420*
X002459Y011407*
X002562Y011420*
X002658Y011460*
X002741Y011523*
X002804Y011606*
X002844Y011702*
X002857Y011805*
X002844Y011909*
X002804Y012005*
X002741Y012087*
X002658Y012151*
X002562Y012190*
X002459Y012204*
G37*
G36*
X014650Y012103D02*
X014559Y012091D01*
X014473Y012056*
X014400Y012000*
X014344Y011927*
X014335Y011903*
X007247*
X007189Y011891*
X007139Y011858*
X003608Y008327*
X003562Y008346*
X003459Y008360*
X003355Y008346*
X003259Y008306*
X003177Y008243*
X003113Y008160*
X003074Y008064*
X003060Y007961*
X003074Y007858*
X003113Y007762*
X003177Y007679*
X003259Y007616*
X003355Y007576*
X003459Y007562*
X003562Y007576*
X003658Y007616*
X003741Y007679*
X003804Y007762*
X003844Y007858*
X003857Y007961*
X003844Y008064*
X003825Y008111*
X007311Y011597*
X014335*
X014344Y011573*
X014400Y011500*
X014473Y011444*
X014559Y011409*
X014650Y011397*
X014741Y011409*
X014827Y011444*
X014900Y011500*
X014956Y011573*
X014991Y011659*
X015003Y011750*
X014991Y011841*
X014956Y011927*
X014900Y012000*
X014827Y012056*
X014741Y012091*
X014650Y012103*
G37*
%LNmetr4810_pcblayout-3*%
%LPD*%
G54D20*
X003459Y007961D02*
X007247Y011750D01*
X014650*
X017498Y002229D02*
X018053Y002784D01*
Y003586*
X019650Y005184*
Y013752*
X019039Y014363D02*
X019650Y013752D01*
X016943Y002784D02*
X017498Y002229D01*
X016943Y002784D02*
Y003413D01*
X016457Y003900D02*
X016943Y003413D01*
X010700Y003900D02*
X016457D01*
X006070D02*
X006557Y003413D01*
X004454Y005516D02*
X006070Y003900D01*
X010700*
X011371Y003229*
X006557Y002784D02*
X007111Y002229D01*
X006557Y002784D02*
Y003413D01*
X003274Y005516D02*
X004454D01*
X002829Y005961D02*
X003274Y005516D01*
X002459Y005961D02*
X002829D01*
X013450Y001450D02*
X015719D01*
X006890D02*
X013450D01*
X012817Y002083D02*
X013450Y001450D01*
X012817Y002083D02*
Y002413D01*
X012371Y002859D02*
X012817Y002413D01*
X012371Y002859D02*
Y003229D01*
X015719Y001450D02*
X016498Y002229D01*
X006111D02*
X006890Y001450D01*
G54D21*
X015498Y002229D03*
Y003229D03*
X016498Y002229D03*
Y003229D03*
X017498Y002229D03*
Y003229D03*
X018498Y002229D03*
X005111D03*
Y003229D03*
X006111Y002229D03*
Y003229D03*
X007111Y002229D03*
Y003229D03*
X008111Y002229D03*
X013371Y003229D03*
Y002229D03*
X012371Y003229D03*
Y002229D03*
X011371Y003229D03*
Y002229D03*
X010371Y003229D03*
X019039Y018856D03*
Y015363D03*
X003459Y013805D03*
X002459Y012805D03*
X003459D03*
X002459Y011805D03*
X003459D03*
X019039Y006150D03*
X018039D03*
X019039Y007150D03*
X018039D03*
X019039Y008150D03*
X018039D03*
X019039Y009150D03*
X018039D03*
X019039Y010150D03*
X018039D03*
X019039Y011150D03*
X002459Y007961D03*
X003459D03*
X002459Y006961D03*
X003459D03*
X002459Y005961D03*
X003459D03*
X002459Y004961D03*
G54D22*
X018498Y003229D03*
X008111D03*
X010371Y002229D03*
G54D23*
X019039Y017856D03*
Y014363D03*
X002459Y013805D03*
X018039Y011150D03*
X003459Y004961D03*
G54D24*
X000000Y000000D03*
Y021000D03*
X021000Y000000D03*
Y021000D03*
G54D25*
X011450Y007850D03*
X010300Y009050D03*
X014650Y011750D03*
X015282Y018086D03*
X010632D03*
X003800Y018200D03*
Y016100D03*
M02*