%FSDAX24Y24*%
%MOIN*%
%SFA1B1*%

%IPPOS*%
%ADD31R,0.074900X0.051300*%
%ADD32R,0.043400X0.035600*%
%ADD33R,0.047400X0.045400*%
%ADD34O,0.029700X0.076900*%
%ADD35O,0.076900X0.029700*%
%ADD36R,0.035600X0.043400*%
%ADD37R,0.358400X0.427300*%
%ADD38R,0.102500X0.049300*%
%ADD39R,0.098600X0.187100*%
%ADD40R,0.047400X0.031600*%
%ADD41C,0.067100*%
%ADD42R,0.067100X0.067100*%
%ADD43R,0.067100X0.067100*%
%ADD44C,0.204900*%
%ADD45C,0.058000*%
%LNmetr4810_pcblayout-1*%
%LPD*%
G54D31*
X007675Y013547D03*
Y014610D03*
X006788Y013547D03*
Y014610D03*
G54D32*
X006150Y006505D03*
Y007095D03*
X005577D03*
Y006505D03*
X017122Y013399D03*
Y012809D03*
X015271Y013399D03*
Y012809D03*
X013419Y013399D03*
Y012809D03*
X005005Y006445D03*
Y005855D03*
X009717Y012809D03*
Y013399D03*
X010642D03*
Y012809D03*
X011568D03*
Y013399D03*
G54D33*
X016265Y013419D03*
Y012789D03*
X014414Y013419D03*
Y012789D03*
X012563Y013419D03*
Y012789D03*
X008860Y013419D03*
Y012789D03*
G54D34*
X009325Y010624D03*
X009640D03*
X009955D03*
X010270D03*
X010585D03*
X010900D03*
X011215D03*
X011530D03*
X011845D03*
X012160D03*
X012475D03*
Y006176D03*
X012160D03*
X011845D03*
X011530D03*
X011215D03*
X010900D03*
X010585D03*
X010270D03*
X009955D03*
X009640D03*
X009325D03*
G54D35*
X013124Y009975D03*
Y009660D03*
Y009345D03*
Y009030D03*
Y008715D03*
Y008400D03*
Y008085D03*
Y007770D03*
Y007455D03*
Y007140D03*
Y006825D03*
X008676D03*
Y007140D03*
Y007455D03*
Y007770D03*
Y008085D03*
Y008400D03*
Y008715D03*
Y009030D03*
Y009345D03*
Y009660D03*
Y009975D03*
G54D36*
X002845Y009311D03*
X002255D03*
X017202Y005900D03*
X016612D03*
X017202Y006950D03*
X016612D03*
X017202Y008050D03*
X016612D03*
X017202Y009100D03*
X016612D03*
X017202Y010100D03*
X016612D03*
X017202Y011150D03*
X016612D03*
G54D37*
X003789Y017190D03*
G54D38*
X007864Y018190D03*
Y016190D03*
G54D39*
X015282Y015133D03*
Y018086D03*
X010632Y015133D03*
Y018086D03*
G54D40*
X016010Y006955D03*
X015104Y006581D03*
Y007329D03*
G54D41*
X015498Y002229D03*
Y003229D03*
X016498Y002229D03*
Y003229D03*
X017498Y002229D03*
Y003229D03*
X018498Y002229D03*
X005111D03*
Y003229D03*
X006111Y002229D03*
Y003229D03*
X007111Y002229D03*
Y003229D03*
X008111Y002229D03*
X013371Y003229D03*
Y002229D03*
X012371Y003229D03*
Y002229D03*
X011371Y003229D03*
Y002229D03*
X010371Y003229D03*
X019039Y018856D03*
Y015363D03*
X003459Y013805D03*
X002459Y012805D03*
X003459D03*
X002459Y011805D03*
X003459D03*
X019039Y006150D03*
X018039D03*
X019039Y007150D03*
X018039D03*
X019039Y008150D03*
X018039D03*
X019039Y009150D03*
X018039D03*
X019039Y010150D03*
X018039D03*
X019039Y011150D03*
X002459Y007961D03*
X003459D03*
X002459Y006961D03*
X003459D03*
X002459Y005961D03*
X003459D03*
X002459Y004961D03*
G54D42*
X018498Y003229D03*
X008111D03*
X010371Y002229D03*
G54D43*
X019039Y017856D03*
Y014363D03*
X002459Y013805D03*
X018039Y011150D03*
X003459Y004961D03*
G54D44*
X000000Y000000D03*
Y021000D03*
X021000Y000000D03*
Y021000D03*
G54D45*
X011450Y007850D03*
X010300Y009050D03*
X014650Y011750D03*
X015282Y018086D03*
X010632D03*
X003800Y018200D03*
Y016100D03*
M02*