%FSTAX24Y24*%
%MOIN*%
%SFA1B1*%

%IPPOS*%
%ADD10R,0.094500X0.041300*%
%ADD11R,0.350400X0.419300*%
%ADD12R,0.090600X0.179100*%
%ADD13R,0.027600X0.035400*%
%ADD14R,0.037400X0.039400*%
%ADD15R,0.031500X0.035400*%
%ADD16R,0.070900X0.043300*%
%ADD17O,0.021700X0.053200*%
%ADD18O,0.053200X0.021700*%
%ADD19C,0.010000*%
%ADD20C,0.060000*%
%ADD21R,0.059100X0.059100*%
%ADD22C,0.059100*%
%ADD23R,0.059100X0.059100*%
%ADD24C,0.050000*%
%ADD25C,0.114000*%
%ADD47C,0.005000*%
%ADD48C,0.020000*%
%ADD49C,0.040000*%
%ADD50C,0.080000*%
%ADD51C,0.160000*%
%ADD52C,0.320000*%
%LNpcb1-1*%
%LPD*%
G54D47*
X009665Y000178D02*
X000177D01*
X000178Y025413*
X009665*
Y000178*
G54D19*
X009615Y000228D02*
X000227D01*
Y025363*
X009615*
Y000228*
G54D48*
X009515Y000328D02*
X000327D01*
X000327Y025263*
X009515*
Y000328*
G54D49*
X009315Y000527D02*
X000527Y000528D01*
Y025063*
X009314*
X009315Y000527*
G54D50*
X008914Y000927D02*
X000927D01*
Y024663*
X008914*
Y000927*
G54D51*
X008114Y001727D02*
X001727D01*
Y023863*
X008114*
Y001727*
G54D52*
X006514Y003327D02*
X003327Y003327D01*
Y022263*
X006514*
Y003327*
%LNpcb1-2*%
%LPC*%
G36*
X001336Y0126D02*
X000991D01*
Y012255*
X001336*
Y0126*
G37*
G36*
X001781Y012155D02*
X001436D01*
Y011809*
X001781*
Y012155*
G37*
G36*
X001336D02*
X000991D01*
Y011809*
X001336*
Y012155*
G37*
G36*
X001781Y0126D02*
X001436D01*
Y012255*
X001781*
Y0126*
G37*
G36*
X00748Y013592D02*
X007376Y013579D01*
X007279Y013538*
X007195Y013474*
X007131Y013391*
X007091Y013293*
X007077Y013189*
X007091Y013085*
X007131Y012987*
X007195Y012904*
X007279Y01284*
X007376Y012799*
X00748Y012786*
X007585Y012799*
X007682Y01284*
X007766Y012904*
X00783Y012987*
X00787Y013085*
X007884Y013189*
X00787Y013293*
X00783Y013391*
X007766Y013474*
X007682Y013538*
X007585Y013579*
X00748Y013592*
G37*
G36*
X00753Y012602D02*
Y012255D01*
X007877*
X00787Y012309*
X00783Y012406*
X007766Y01249*
X007682Y012554*
X007585Y012594*
X00753Y012602*
G37*
G36*
X00743D02*
X007376Y012594D01*
X007279Y012554*
X007195Y01249*
X007131Y012406*
X007091Y012309*
X007083Y012255*
X00743*
Y012602*
G37*
G36*
Y012155D02*
X007083D01*
X007091Y0121*
X007131Y012003*
X007195Y011919*
X007279Y011855*
X007376Y011815*
X00743Y011808*
Y012155*
G37*
G36*
X005048Y005467D02*
X004861D01*
Y005239*
X005048*
Y005467*
G37*
G36*
X005336Y005139D02*
X005148D01*
Y004912*
X005336*
Y005139*
G37*
G36*
X003836Y002597D02*
X003783Y00259D01*
X003686Y00255*
X003604Y002487*
X003541Y002404*
X003501Y002308*
X003494Y002255*
X003836*
Y002597*
G37*
G36*
X005336Y005467D02*
X005148D01*
Y005239*
X005336*
Y005467*
G37*
G36*
X001386Y014603D02*
X001283Y01459D01*
X001186Y01455*
X001104Y014487*
X001041Y014404*
X001001Y014308*
X000987Y014205*
X001001Y014102*
X001041Y014005*
X001104Y013923*
X001186Y013859*
X001283Y01382*
X001386Y013806*
X001408Y013809*
X001993Y013224*
X001972Y013175*
X001959Y013071*
X001972Y012966*
X002013Y012869*
X002077Y012786*
X00216Y012721*
X002199Y012705*
Y012314*
X002176Y012304*
X002103Y012248*
X002047Y012175*
X002011Y012089*
X001999Y011998*
X002011Y011907*
X002047Y011822*
X002103Y011748*
X002176Y011692*
X002261Y011657*
X002289Y011653*
X002294Y01165*
X002352Y011638*
X002411Y01165*
X002416Y011653*
X002444Y011657*
X002529Y011692*
X002602Y011748*
X002658Y011822*
X002693Y011907*
X002705Y011998*
X002693Y012089*
X002658Y012175*
X002602Y012248*
X002529Y012304*
X002505Y012314*
Y012697*
X002564Y012721*
X002647Y012786*
X002712Y012869*
X002752Y012966*
X002766Y013071*
X002752Y013175*
X002712Y013273*
X002647Y013356*
X002564Y01342*
X002467Y013461*
X002362Y013474*
X002258Y013461*
X002209Y01344*
X001693Y013956*
X001731Y014005*
X001771Y014102*
X001785Y014205*
X001771Y014308*
X001731Y014404*
X001668Y014487*
X001585Y01455*
X001489Y01459*
X001386Y014603*
G37*
G36*
Y011603D02*
X001283Y01159D01*
X001186Y01155*
X001104Y011487*
X001041Y011404*
X001001Y011308*
X000987Y011205*
X001001Y011102*
X001041Y011005*
X001104Y010923*
X001186Y010859*
X001283Y01082*
X001386Y010806*
X001489Y01082*
X001585Y010859*
X001668Y010923*
X001731Y011005*
X001771Y011102*
X001785Y011205*
X001771Y011308*
X001731Y011404*
X001668Y011487*
X001585Y01155*
X001489Y01159*
X001386Y011603*
G37*
G36*
X002386Y014603D02*
X002283Y01459D01*
X002186Y01455*
X002104Y014487*
X002041Y014404*
X002001Y014308*
X001987Y014205*
X002001Y014102*
X002041Y014005*
X002104Y013923*
X002186Y013859*
X002283Y01382*
X002386Y013806*
X002489Y01382*
X002496Y013823*
X003144Y013175*
X00313Y013071*
X003144Y012966*
X003184Y012869*
X003248Y012786*
X003332Y012721*
X003381Y012701*
Y012314*
X003357Y012304*
X003284Y012248*
X003228Y012175*
X003192Y012089*
X00318Y011998*
X003192Y011907*
X003228Y011822*
X003259Y011781*
X003234Y011731*
X002759*
X002701Y011719*
X002651Y011686*
X001535Y010571*
X001489Y01059*
X001386Y010603*
X001283Y01059*
X001186Y01055*
X001104Y010487*
X001041Y010404*
X001001Y010308*
X000987Y010205*
X001001Y010102*
X00102Y010055*
X000432Y009468*
X000399Y009418*
X000388Y009359*
Y000855*
X000399Y000796*
X000432Y000746*
X000928Y000251*
X000977Y000218*
X001036Y000207*
X002035*
X002093Y000218*
X002143Y000251*
X002428Y000536*
X00437*
X004429Y000548*
X004478Y000581*
X004736Y000839*
X004783Y00082*
X004886Y000806*
X004989Y00082*
X005085Y000859*
X005168Y000923*
X005231Y001005*
X005271Y001102*
X005285Y001205*
X005271Y001308*
X005231Y001404*
X005168Y001487*
X005085Y00155*
X004989Y00159*
X004886Y001603*
X004783Y00159*
X004686Y00155*
X004604Y001487*
X004541Y001404*
X004501Y001308*
X004487Y001205*
X004501Y001102*
X00452Y001055*
X004331Y000866*
X004281Y000887*
Y0016*
X004192*
X004173Y001646*
X004501Y001974*
X004568Y00197*
X004604Y001923*
X004686Y001859*
X004783Y00182*
X004886Y001806*
X004989Y00182*
X005085Y001859*
X005168Y001923*
X00523Y002004*
X005234Y002005*
X00528Y001993*
Y001657*
X005292Y001599*
X005325Y001549*
X00552Y001354*
X005501Y001308*
X005487Y001205*
X005501Y001102*
X005541Y001005*
X005604Y000923*
X005686Y000859*
X005783Y00082*
X005886Y000806*
X005989Y00082*
X006035Y000839*
X006431Y000443*
X006481Y00041*
X006539Y000398*
X008898*
X008956Y00041*
X009006Y000443*
X009242Y000679*
X009275Y000729*
X009287Y000787*
Y011086*
X009275Y011145*
X009242Y011195*
X008678Y011758*
X008629Y011791*
X008621Y011793*
X008583Y01185*
X008585Y011859*
X008668Y011923*
X008731Y012005*
X008771Y012102*
X008785Y012205*
X008771Y012308*
X008731Y012404*
X008668Y012487*
X008585Y01255*
X008489Y01259*
X008386Y012603*
X008283Y01259*
X008186Y01255*
X008104Y012487*
X008041Y012404*
X008001Y012308*
X007987Y012205*
X007999Y012113*
X00788Y011994*
X007838Y012022*
X00787Y0121*
X007877Y012155*
X00753*
Y011808*
X007585Y011815*
X007663Y011847*
X007691Y011805*
X007135Y011249*
X007102Y011199*
X00709Y011141*
Y010358*
X007024Y010291*
X00687*
X006789Y010275*
X00672Y010229*
X006674Y01016*
X006658Y010079*
X006674Y009997*
X00672Y009929*
Y009914*
X006674Y009845*
X006658Y009764*
X006674Y009683*
X00672Y009614*
Y009599*
X006674Y00953*
X006658Y009449*
X006674Y009368*
X00672Y009299*
Y009284*
X006674Y009215*
X006658Y009134*
X006674Y009053*
X00672Y008984*
Y008969*
X006674Y0089*
X006658Y008819*
X006674Y008738*
X00672Y008669*
Y008654*
X006674Y008585*
X006658Y008504*
X006674Y008423*
X00672Y008354*
Y008339*
X006674Y00827*
X006658Y008189*
X006674Y008108*
X00672Y008039*
Y008024*
X006674Y007955*
X006658Y007874*
X006674Y007793*
X00672Y007724*
X006789Y007678*
X00687Y007662*
X006875*
Y007563*
X006886Y007504*
X006919Y007455*
X00802Y006354*
X008001Y006308*
X007987Y006205*
X007997Y006128*
X00795Y006105*
X006708Y007346*
Y0075*
X006692Y007581*
X006646Y00765*
X006577Y007696*
X006496Y007712*
X006415Y007696*
X006346Y00765*
X006331*
X006262Y007696*
X006181Y007712*
X0061Y007696*
X006031Y00765*
X006016*
X005947Y007696*
X005866Y007712*
X005785Y007696*
X005716Y00765*
X005701*
X005632Y007696*
X005551Y007712*
X00547Y007696*
X005401Y00765*
X005386*
X005317Y007696*
X005236Y007712*
X005155Y007696*
X005086Y00765*
X005071*
X005003Y007696*
X004971Y007702*
Y007343*
X004871*
Y007702*
X00484Y007696*
X004771Y00765*
X004756*
X004688Y007696*
X004606Y007712*
X004525Y007696*
X004456Y00765*
X004441*
X004373Y007696*
X004291Y007712*
X00421Y007696*
X004141Y00765*
X004095Y007581*
X004079Y0075*
Y007185*
X004095Y007104*
X004138Y007039*
Y006772*
X00415Y006713*
X004183Y006664*
X004498Y006349*
X004548Y006315*
X004606Y006304*
X004991*
X006346Y004949*
X006327Y004903*
X005687*
Y004403*
X005315*
X005276Y004395*
X005243Y004373*
X005221Y00434*
X005213Y004301*
Y003587*
X005167Y003568*
X004838Y003896*
Y004872*
X004861Y004912*
X004888*
X005048*
Y005139*
X004861*
Y00511*
X004811Y005094*
X004793Y00512*
X004746Y005168*
Y005467*
X00427*
Y005168*
X004005Y004903*
X003246*
Y004346*
X003242Y00434*
X003235Y004301*
Y003415*
X003242Y003376*
X003246Y00337*
Y002813*
X004155*
Y003313*
X004518*
X004557Y003321*
X00459Y003343*
X004612Y003376*
X00462Y003415*
Y003617*
X004666Y003636*
X00528Y003022*
Y002416*
X005234Y002405*
X00523*
X005168Y002487*
X005085Y00255*
X004989Y00259*
X004886Y002603*
X004783Y00259*
X004686Y00255*
X004604Y002487*
X004541Y002404*
X004521Y002358*
X004516*
X004457Y002346*
X004407Y002313*
X004331Y002236*
X004278Y002254*
X004271Y002308*
X004231Y002404*
X004168Y002487*
X004085Y00255*
X003989Y00259*
X003936Y002597*
Y002205*
X003886*
Y002155*
X003494*
X003501Y002102*
X003541Y002005*
X003604Y001923*
X003639Y001896*
X003622Y001846*
X002803*
X002744Y001834*
X002694Y001801*
X001806Y000912*
X001723*
X001698Y000962*
X001731Y001005*
X001771Y001102*
X001785Y001205*
X001771Y001308*
X001731Y001404*
X001668Y001487*
X001667Y001491*
X002673Y002497*
X002707Y002546*
X002718Y002605*
Y004646*
X003159Y005086*
X003192Y005135*
X003203Y005194*
Y007341*
X003537Y007675*
X003602Y007662*
X003917*
X003999Y007678*
X004067Y007724*
X004114Y007793*
X00413Y007874*
X004114Y007955*
X004067Y008024*
Y008039*
X004114Y008108*
X00413Y008189*
X004114Y00827*
X004067Y008339*
Y008354*
X004114Y008423*
X00413Y008504*
X004114Y008585*
X004067Y008654*
Y008669*
X004099Y008716*
X004158Y008727*
X004284Y008601*
X004265Y008556*
X004253Y008465*
X004265Y008373*
X004301Y008288*
X004357Y008215*
X00443Y008159*
X004515Y008124*
X004606Y008112*
X004698Y008124*
X004783Y008159*
X004856Y008215*
X004912Y008288*
X004947Y008373*
X004959Y008465*
X004947Y008556*
X004912Y008641*
X004856Y008714*
X004811Y008749*
Y008811*
X004856Y008845*
X004912Y008918*
X004947Y009003*
X004959Y009094*
X004947Y009186*
X004912Y009271*
X004856Y009344*
X004811Y009378*
Y00944*
X004856Y009475*
X004912Y009548*
X004947Y009633*
X004959Y009724*
X004947Y009816*
X004938Y009839*
X005344Y010246*
X005362Y010273*
X005366Y010276*
X005419Y010287*
X005426Y010286*
X00547Y010257*
X005501Y01025*
Y01061*
X005601*
Y01025*
X005632Y010257*
X005701Y010303*
X005716*
X005763Y010271*
X005774Y010212*
X005595Y010032*
X005551Y010038*
X00546Y010026*
X005375Y009991*
X005302Y009935*
X005245Y009862*
X00521Y009776*
X005198Y009685*
X00521Y009594*
X005245Y009509*
X005302Y009435*
X005375Y009379*
X00546Y009344*
X005551Y009332*
X005643Y009344*
X005728Y009379*
X005801Y009435*
X005857Y009509*
X005892Y009594*
X005904Y009685*
X005892Y009776*
X005857Y009862*
X006249Y010254*
X006262Y010257*
X006331Y010303*
X006346*
X006415Y010257*
X006496Y01024*
X006577Y010257*
X006646Y010303*
X006692Y010371*
X006708Y010453*
Y010768*
X006692Y010849*
X006646Y010918*
X006577Y010964*
X006558Y010968*
X006548Y010983*
X005844Y011686*
X005795Y011719*
X005736Y011731*
X003833*
X003808Y011781*
X003839Y011822*
X003874Y011907*
X003886Y011998*
X003874Y012089*
X003839Y012175*
X003783Y012248*
X00371Y012304*
X003686Y012314*
Y012701*
X003735Y012721*
X003819Y012786*
X003883Y012869*
X003923Y012966*
X003937Y013071*
X003923Y013175*
X003883Y013273*
X003819Y013356*
X003735Y01342*
X003638Y013461*
X003533Y013474*
X003429Y013461*
X003332Y01342*
X002736Y014016*
X002771Y014102*
X002785Y014205*
X002771Y014308*
X002731Y014404*
X002668Y014487*
X002585Y01455*
X002489Y01459*
X002386Y014603*
G37*
G36*
X008454Y02367D02*
X007932D01*
Y023413*
X008454*
Y02367*
G37*
G36*
X009076D02*
X008554D01*
Y023413*
X009076*
Y02367*
G37*
G36*
X0025Y022706D02*
X002292D01*
Y022479*
X0025*
Y022706*
G37*
G36*
Y023033D02*
X002292D01*
Y022806*
X0025*
Y023033*
G37*
G36*
X008454Y024027D02*
X007932D01*
Y02377*
X008454*
Y024027*
G37*
G36*
X009076D02*
X008554D01*
Y02377*
X009076*
Y024027*
G37*
G36*
X006281Y024916D02*
X002577D01*
Y023461*
X00255Y02344*
X0025Y023465*
Y023651*
X002242*
Y023701*
X002192*
Y023978*
X001985*
X001949*
X001935*
X001434*
Y023424*
X001752*
X001906Y023269*
X00167Y023033*
X001434*
Y022479*
X001935*
X001949*
X001985*
X002192*
Y022756*
Y023033*
X002168*
X002149Y023079*
X002186Y023116*
X002577*
Y0222*
X001918*
X001859Y022189*
X001809Y022155*
X001604Y02195*
X001237*
Y021357*
X001811*
Y021684*
X001817Y021688*
X001867Y021661*
Y021357*
X002109*
Y021029*
X002024*
Y020474*
X0025*
Y021029*
X002415*
Y021357*
X002441*
Y021894*
X002577*
Y020523*
X006281*
Y024916*
G37*
G36*
X0025Y023978D02*
X002292D01*
Y023751*
X0025*
Y023978*
G37*
G36*
X004336Y014155D02*
X003991D01*
Y013809*
X004336*
Y014155*
G37*
G36*
X004781D02*
X004436D01*
Y013809*
X004781*
Y014155*
G37*
G36*
X003318Y017149D02*
X002213D01*
Y015158*
X003016*
Y014421*
X003027Y01437*
X003001Y014308*
X002987Y014205*
X003001Y014102*
X003041Y014005*
X003104Y013923*
X003186Y013859*
X003283Y01382*
X003386Y013806*
X003489Y01382*
X003585Y013859*
X003668Y013923*
X003731Y014005*
X003771Y014102*
X003785Y014205*
X003771Y014308*
X003731Y014404*
X003668Y014487*
X003585Y01455*
X003489Y01459*
X003386Y014603*
X00336Y0146*
X003322Y014633*
Y01575*
X003318Y015768*
Y017149*
G37*
G36*
X007572D02*
X006467D01*
Y015158*
X007233*
Y014569*
X007186Y01455*
X007104Y014487*
X007041Y014404*
X007001Y014308*
X006987Y014205*
X007001Y014102*
X007041Y014005*
X007104Y013923*
X007186Y013859*
X007283Y01382*
X007386Y013806*
X007489Y01382*
X007585Y013859*
X007668Y013923*
X007731Y014005*
X007771Y014102*
X007785Y014205*
X007771Y014308*
X007731Y014404*
X007668Y014487*
X007585Y01455*
X007539Y014569*
Y015158*
X007572*
Y017149*
G37*
G36*
X001909Y021029D02*
X001434D01*
Y020474*
X001519*
Y020355*
X001495Y020345*
X001422Y020289*
X001366Y020216*
X001331Y020131*
X001319Y020039*
X001331Y019948*
X001366Y019863*
X001422Y01979*
X001495Y019734*
X00158Y019698*
X001672Y019686*
X001763Y019698*
X001848Y019734*
X001921Y01979*
X001977Y019863*
X002013Y019948*
X002025Y020039*
X002013Y020131*
X001977Y020216*
X001921Y020289*
X001848Y020345*
X001824Y020355*
Y020474*
X001909*
Y021029*
G37*
G36*
X009076Y022027D02*
X007932D01*
Y021413*
X007931*
X007946Y021378*
X006911Y020343*
X006878Y020294*
X006866Y020235*
Y020102*
X006467*
Y019259*
X003318*
Y020102*
X002213*
Y01811*
X003318*
Y018953*
X006467*
Y01811*
X007572*
Y018272*
X007618Y018291*
X008233Y017676*
Y0146*
X007991*
Y013809*
X008233*
Y013515*
X008179Y013474*
X008115Y013391*
X008075Y013293*
X008061Y013189*
X008075Y013085*
X008115Y012987*
X008179Y012904*
X008263Y01284*
X00836Y012799*
X008465Y012786*
X008569Y012799*
X008666Y01284*
X00875Y012904*
X008814Y012987*
X008854Y013085*
X008868Y013189*
X008854Y013293*
X008814Y013391*
X00875Y013474*
X008666Y013538*
X008569Y013579*
X008539Y013583*
Y013809*
X008781*
Y0146*
X008539*
Y01774*
X008527Y017798*
X008494Y017848*
X007572Y01877*
Y020102*
X007172*
Y020172*
X008414Y021413*
X009076*
Y022027*
G37*
G36*
X004336Y0146D02*
X003991D01*
Y014255*
X004336*
Y0146*
G37*
G36*
X004781D02*
X004436D01*
Y014255*
X004781*
Y0146*
G37*
%LNpcb1-3*%
%LPD*%
G54D10*
X008504Y02172D03*
Y02372D03*
G54D11*
X004429Y02272D03*
G54D12*
X002766Y016153D03*
Y019106D03*
X007019Y016153D03*
Y019106D03*
G54D13*
X001672Y020751D03*
X002262D03*
X005098Y005189D03*
X004508D03*
G54D14*
X001524Y021654D03*
X002154D03*
G54D15*
X002242Y022756D03*
X001691D03*
X002242Y023701D03*
X001691D03*
G54D16*
X003701Y004587D03*
Y00313D03*
X006142Y004587D03*
Y00313D03*
G54D17*
X006496Y01061D03*
X006181D03*
X005866D03*
X005551D03*
X005236D03*
X004921D03*
X004606D03*
X004291D03*
Y007343D03*
X004606D03*
X004921D03*
X005236D03*
X005551D03*
X005866D03*
X006181D03*
X006496D03*
G54D18*
X00376Y010079D03*
Y009764D03*
Y009449D03*
Y009134D03*
Y008819D03*
Y008504D03*
Y008189D03*
Y007874D03*
X007028D03*
Y008189D03*
Y008504D03*
Y008819D03*
Y009134D03*
Y009449D03*
Y009764D03*
Y010079D03*
G54D19*
X002352Y011998D02*
Y013061D01*
Y011791D02*
Y011998D01*
X003533D02*
Y013002D01*
X003559Y011378D02*
X005457D01*
X001386Y009205D02*
X003559Y011378D01*
X002759Y011578D02*
X005736D01*
X004013Y011178D02*
X004373D01*
X001386Y008551D02*
X004013Y011178D01*
X003728Y01061D02*
X004291D01*
X00185Y008733D02*
X003728Y01061D01*
X002352Y013061D02*
X002362Y013071D01*
X005736Y011578D02*
X006439Y010875D01*
X001386Y010205D02*
X002759Y011578D01*
X005457Y011378D02*
X005809Y011026D01*
X004373Y011178D02*
X004606Y010945D01*
X004004Y001693D02*
X004516Y002205D01*
X002803Y001693D02*
X004004D01*
X001869Y000759D02*
X002803Y001693D01*
X004685Y003833D02*
X005433Y003085D01*
Y001657D02*
Y003085D01*
Y001657D02*
X005886Y001205D01*
X004508Y005189D02*
X004685Y005012D01*
Y003833D02*
Y005012D01*
X005809Y010667D02*
Y011026D01*
X005551Y009773D02*
X006181Y010402D01*
X004606Y009724D02*
X005236Y010354D01*
X006439Y010667D02*
Y010875D01*
X003968Y009134D02*
X004606Y008495D01*
X004252Y009449D02*
X004606Y009094D01*
X00376Y009449D02*
X004252D01*
X006583Y002205D02*
X008028Y000759D01*
X005886Y002205D02*
X006583D01*
X008028Y000759D02*
X008823D01*
X008934Y00087*
Y002286*
X00857Y00265D02*
X008934Y002286D01*
X008311Y00265D02*
X00857D01*
X007447Y003514D02*
X008311Y00265D01*
X007447Y003514D02*
Y00463D01*
X005236Y006841D02*
X007447Y00463D01*
X005236Y006841D02*
Y007343D01*
X009134Y000787D02*
Y011086D01*
X008898Y000551D02*
X009134Y000787D01*
X006539Y000551D02*
X008898D01*
X00857Y01165D02*
X009134Y011086D01*
X005886Y001205D02*
X006539Y000551D01*
X006181Y010402D02*
Y01061D01*
X005551Y009685D02*
Y009773D01*
X005236Y010354D02*
Y01061D01*
X006439Y010667D02*
X006496Y01061D01*
X004606Y008465D02*
Y008495D01*
X00376Y009134D02*
X003968D01*
X001691Y022838D02*
X002123Y023269D01*
X001691Y022756D02*
Y022838D01*
Y023701D02*
X002123Y023269D01*
X00437Y000689D02*
X004886Y001205D01*
X002364Y000689D02*
X00437D01*
X002035Y000359D02*
X002364Y000689D01*
X001036Y000359D02*
X002035D01*
X001952Y000559D02*
X002597Y001205D01*
X001119Y000559D02*
X001952D01*
X001201Y000759D02*
X001869D01*
X008386Y013169D02*
X008465Y013189D01*
X008179Y004205D02*
X008386D01*
X00824Y005205D02*
X008386D01*
X008Y008819D02*
X008386Y009205D01*
X001386Y002205D02*
X001614D01*
X001386Y003205D02*
X001433D01*
X001386Y005205D02*
X001543D01*
X001386Y006205D02*
X001559D01*
X005886Y002205D02*
Y002874D01*
X006142Y00313*
X003701Y004587D02*
X003905D01*
X004508Y005189*
X001614Y022679D02*
X001691Y022756D01*
X002766Y019106D02*
X007019D01*
X007386Y014205D02*
Y015787D01*
X007019Y016153D02*
X007386Y015787D01*
X007019Y019106D02*
Y020235D01*
X008504Y02172*
X008386Y014205D02*
Y01774D01*
X007019Y019106D02*
X008386Y01774D01*
X003639Y004648D02*
X003701Y004587D01*
X004516Y002205D02*
X004886D01*
X000941Y00102D02*
X001201Y000759D01*
X000941Y00102D02*
Y005759D01*
X001386Y006205*
Y006834D02*
Y007205D01*
X000741Y006189D02*
X001386Y006834D01*
X000741Y000937D02*
Y006189D01*
Y000937D02*
X001119Y000559D01*
X002597Y001205D02*
X003886D01*
X002123Y023269D02*
X00388D01*
X007941Y010389D02*
X008386Y010834D01*
X007941Y010042D02*
Y010389D01*
X007404Y009506D02*
X007941Y010042D01*
X007065Y009506D02*
X007404D01*
X007028Y009469D02*
X007065Y009506D01*
X007028Y009449D02*
Y009469D01*
X008386Y010834D02*
Y011205D01*
X007315Y009134D02*
X008386Y010205D01*
X007028Y009134D02*
X007315D01*
X007028Y008819D02*
X008D01*
X007028D02*
D01*
Y008504D02*
X008087D01*
X008386Y008205*
X007028Y008189D02*
X007402D01*
X008386Y007205*
X007028Y007563D02*
Y007874D01*
Y007563D02*
X008386Y006205D01*
Y005205D02*
Y005453D01*
X006496Y007343D02*
X008386Y005453D01*
Y004205D02*
Y004409D01*
X006181Y006614D02*
X008386Y004409D01*
X006181Y006614D02*
Y007343D01*
X005866Y006646D02*
Y007343D01*
X004291Y006772D02*
Y007343D01*
Y006772D02*
X004606Y006457D01*
Y00674D02*
X004689Y006657D01*
X004606Y00674D02*
Y007343D01*
X007028Y009764D02*
Y00982D01*
X007292D02*
X007443Y009972D01*
Y010892*
X008307Y012205D02*
X008386D01*
X00376Y008132D02*
Y008189D01*
X003703Y008447D02*
X00376Y008504D01*
X003703Y009707D02*
X00376Y009764D01*
X003495Y008447D02*
X003703D01*
Y010022D02*
X00376Y010079D01*
X005809Y010667D02*
X005866Y01061D01*
X000541Y000855D02*
X001036Y000359D01*
X003495Y008762D02*
X003703D01*
X00376Y008819*
X006439Y01061D02*
X006496D01*
X00376Y009449D02*
X003799Y009488D01*
X007028Y010079D02*
X007243Y010294D01*
Y011141*
X004606Y006457D02*
X005055D01*
X004689Y006657D02*
X005137D01*
X00811Y002205D02*
X008386D01*
X000541Y000855D02*
Y009359D01*
X001386Y010205*
X001433Y003205D02*
X002165Y003937D01*
X001386Y008205D02*
Y008551D01*
X003422Y010022D02*
X003703D01*
X00339Y009707D02*
X003703D01*
X001614Y002205D02*
X002365Y002956D01*
X00352Y007874D02*
X00376D01*
X001386Y001205D02*
Y001425D01*
X002565Y002605*
X001386Y007205D02*
X00185Y007669D01*
Y008733*
X00205Y00865D02*
X003422Y010022D01*
X001559Y006205D02*
X00205Y006696D01*
Y00865*
X00225Y005912D02*
Y008567D01*
X00339Y009707*
X001543Y005205D02*
X00225Y005912D01*
X00245Y007717D02*
X003495Y008762D01*
X00265Y007602D02*
X003495Y008447D01*
X00285Y007487D02*
X003495Y008132D01*
X00305Y007404D02*
X00352Y007874D01*
X001386Y004378D02*
X00245Y005443D01*
Y007717*
X001386Y004205D02*
Y004378D01*
X002165Y003937D02*
Y004875D01*
X00265Y00536*
Y007602*
X002365Y002956D02*
Y004792D01*
X00285Y005277*
Y007487*
X002565Y002605D02*
Y004709D01*
X00305Y005194*
Y007404*
X002262Y020751D02*
Y021545D01*
X002154Y021654D02*
X002262Y021545D01*
X001524Y021654D02*
X001918Y022047D01*
X003756*
X004429Y02272*
X005866Y006646D02*
X007913Y004599D01*
X007047Y002543D02*
X008386Y001205D01*
X007047Y002543D02*
Y004464D01*
X005055Y006457D02*
X007047Y004464D01*
X007247Y003068D02*
X00811Y002205D01*
X007247Y003068D02*
Y004547D01*
X005137Y006657D02*
X007247Y004547D01*
X007913Y003677D02*
X008386Y003205D01*
X007913Y003677D02*
Y004599D01*
X007243Y011141D02*
X008307Y012205D01*
X007443Y010892D02*
X008201Y01165D01*
X00857*
X004606Y01061D02*
Y010945D01*
X001672Y020039D02*
Y020751D01*
X001386Y014047D02*
Y014205D01*
Y014047D02*
X002362Y013071D01*
X002386Y01415D02*
Y014205D01*
X002766Y016153D02*
X003169Y01575D01*
Y014421D02*
X003386Y014205D01*
X003169Y014421D02*
Y01575D01*
X002386Y01415D02*
X003533Y013002D01*
X008386Y013169D02*
Y014205D01*
X007028Y00982D02*
X007292D01*
X001691Y023788D02*
X001735Y023744D01*
X00388Y023269D02*
X004429Y02272D01*
X003495Y008132D02*
X00376D01*
G54D20*
X003533Y013071D03*
X002362D03*
X008465Y013189D03*
X00748Y012205D03*
Y013189D03*
G54D21*
X004386Y014205D03*
X003886Y001205D03*
X008386Y014205D03*
G54D22*
X003386Y014205D03*
X002386D03*
X001386D03*
X005886Y002205D03*
Y001205D03*
X004886Y002205D03*
Y001205D03*
X003886Y002205D03*
X001386Y011205D03*
Y010205D03*
Y009205D03*
Y008205D03*
Y007205D03*
Y006205D03*
Y005205D03*
Y004205D03*
Y003205D03*
Y002205D03*
Y001205D03*
X008386Y002205D03*
Y003205D03*
Y004205D03*
Y005205D03*
Y006205D03*
Y007205D03*
Y008205D03*
Y009205D03*
Y010205D03*
Y011205D03*
Y012205D03*
X007386Y014205D03*
G54D23*
X001386Y012205D03*
X008386Y001205D03*
G54D24*
X002352Y011998D03*
X003533D03*
X004606Y009724D03*
Y009094D03*
Y008465D03*
X005551Y009685D03*
X001672Y020039D03*
G54D25*
X004488Y022913D03*
M02*