%FSDAX24Y24*%
%MOIN*%
%SFA1B1*%

%IPPOS*%
%ADD21C,0.010000*%
%ADD22R,0.059100X0.059100*%
%ADD23C,0.059100*%
%ADD24R,0.059100X0.059100*%
%ADD25C,0.196900*%
%ADD26C,0.050000*%
%ADD31C,0.005000*%
%ADD48C,0.020000*%
%ADD49C,0.040000*%
%ADD50C,0.080000*%
%ADD51C,0.160000*%
%ADD52C,0.320000*%
%LN7april_pcb-1*%
%LPD*%
G54D31*
X021237Y017309D02*
X021472Y017262D01*
X021698Y017185*
X021912Y017080*
X022110Y016947*
X022290Y016790*
X022447Y016610*
X022580Y016412*
X022685Y016198*
X022762Y015972*
X022809Y015737*
X022823Y015511*
X022822Y015502*
Y-000002*
X022823Y-000011*
X022809Y-000237*
X022762Y-000472*
X022685Y-000698*
X022580Y-000912*
X022447Y-001110*
X022290Y-001290*
X022110Y-001447*
X021912Y-001580*
X021698Y-001685*
X021472Y-001762*
X021237Y-001809*
X021011Y-001823*
X021002Y-001822*
X-000002*
X-000011Y-001823*
X-000237Y-001809*
X-000472Y-001762*
X-000698Y-001685*
X-000912Y-001580*
X-001110Y-001447*
X-001290Y-001290*
X-001447Y-001110*
X-001580Y-000912*
X-001685Y-000698*
X-001762Y-000472*
X-001809Y-000237*
X-001823Y-000011*
X-001822Y-000002*
Y015502*
X-001823Y015511*
X-001809Y015737*
X-001762Y015972*
X-001685Y016198*
X-001580Y016412*
X-001447Y016610*
X-001290Y016790*
X-001110Y016947*
X-000912Y017080*
X-000698Y017185*
X-000472Y017262*
X-000237Y017309*
X-000011Y017323*
X-000002Y017322*
X021002*
X021011Y017323*
X021237Y017309*
G54D21*
X021231Y017259D02*
X021459Y017214D01*
X021679Y017139*
X021887Y017036*
X022080Y016907*
X022254Y016754*
X022407Y016580*
X022536Y016387*
X022639Y016179*
X022714Y015959*
X022759Y015731*
X022773Y015514*
X022772Y015507*
Y-000007*
X022773Y-000014*
X022759Y-000231*
X022714Y-000459*
X022639Y-000679*
X022536Y-000887*
X022407Y-001080*
X022254Y-001254*
X022080Y-001407*
X021887Y-001536*
X021679Y-001639*
X021459Y-001714*
X021231Y-001759*
X021014Y-001773*
X021007Y-001772*
X-000007*
X-000014Y-001773*
X-000231Y-001759*
X-000459Y-001714*
X-000679Y-001639*
X-000887Y-001536*
X-001080Y-001407*
X-001254Y-001254*
X-001407Y-001080*
X-001536Y-000887*
X-001639Y-000679*
X-001714Y-000459*
X-001759Y-000231*
X-001773Y-000014*
X-001772Y-000007*
Y015507*
X-001773Y015514*
X-001759Y015731*
X-001714Y015959*
X-001639Y016179*
X-001536Y016387*
X-001407Y016580*
X-001254Y016754*
X-001080Y016907*
X-000887Y017036*
X-000679Y017139*
X-000459Y017214*
X-000231Y017259*
X-000014Y017273*
X-000007Y017272*
X021007*
X021014Y017273*
X021231Y017259*
G54D48*
X021218Y017160D02*
X021433Y017117D01*
X021640Y017046*
X021837Y016950*
X022019Y016827*
X022183Y016683*
X022327Y016519*
X022450Y016337*
X022546Y016140*
X022617Y015933*
X022660Y015718*
X022672Y015521*
X022672Y015517*
Y-000017*
X022672Y-000021*
X022660Y-000218*
X022617Y-000433*
X022546Y-000640*
X022450Y-000837*
X022327Y-001019*
X022183Y-001183*
X022019Y-001327*
X021837Y-001450*
X021640Y-001546*
X021433Y-001617*
X021218Y-001660*
X021021Y-001672*
X021017Y-001672*
X-000017*
X-000021Y-001672*
X-000218Y-001660*
X-000433Y-001617*
X-000640Y-001546*
X-000837Y-001450*
X-001019Y-001327*
X-001183Y-001183*
X-001327Y-001019*
X-001450Y-000837*
X-001546Y-000640*
X-001617Y-000433*
X-001660Y-000218*
X-001672Y-000021*
X-001672Y-000017*
Y015517*
X-001672Y015521*
X-001660Y015718*
X-001617Y015933*
X-001546Y016140*
X-001450Y016337*
X-001327Y016519*
X-001183Y016683*
X-001019Y016827*
X-000837Y016950*
X-000640Y017046*
X-000433Y017117*
X-000218Y017160*
X-000021Y017172*
X-000017Y017172*
X021017*
X021021Y017172*
X021218Y017160*
G54D49*
X021192Y016961D02*
X021381Y016923D01*
X021564Y016861*
X021736Y016776*
X021897Y016668*
X022042Y016542*
X022168Y016397*
X022276Y016236*
X022361Y016064*
X022423Y015881*
X022461Y015692*
X022471Y015534*
X022472Y015536*
Y-000036*
X022471Y-000034*
X022461Y-000192*
X022423Y-000381*
X022361Y-000564*
X022276Y-000736*
X022168Y-000897*
X022042Y-001042*
X021897Y-001168*
X021736Y-001276*
X021564Y-001361*
X021381Y-001423*
X021192Y-001461*
X021034Y-001471*
X021036Y-001472*
X-000036*
X-000034Y-001471*
X-000192Y-001461*
X-000381Y-001423*
X-000564Y-001361*
X-000736Y-001276*
X-000897Y-001168*
X-001042Y-001042*
X-001168Y-000897*
X-001276Y-000736*
X-001361Y-000564*
X-001423Y-000381*
X-001461Y-000192*
X-001471Y-000034*
X-001472Y-000036*
Y015536*
X-001471Y015534*
X-001461Y015692*
X-001423Y015881*
X-001361Y016064*
X-001276Y016236*
X-001168Y016397*
X-001042Y016542*
X-000897Y016668*
X-000736Y016776*
X-000564Y016861*
X-000381Y016923*
X-000192Y016961*
X-000034Y016971*
X-000036Y016972*
X021036*
X021034Y016971*
X021192Y016961*
G54D50*
X021140Y016563D02*
X021278Y016536D01*
X021410Y016491*
X021535Y016429*
X021653Y016351*
X021758Y016258*
X021851Y016153*
X021929Y016035*
X021991Y015910*
X022036Y015778*
X022063Y015640*
X022271Y012449*
X022072Y011439*
Y004060*
X022271Y003050*
X022063Y-000140*
X022036Y-000278*
X021991Y-000410*
X021929Y-000535*
X021851Y-000653*
X021758Y-000758*
X021653Y-000851*
X021535Y-000929*
X021410Y-000991*
X021278Y-001036*
X021140Y-001063*
X017949Y-001271*
X016939Y-001072*
X004060*
X003050Y-001271*
X-000140Y-001063*
X-000278Y-001036*
X-000410Y-000991*
X-000535Y-000929*
X-000653Y-000851*
X-000758Y-000758*
X-000851Y-000653*
X-000929Y-000535*
X-000991Y-000410*
X-001036Y-000278*
X-001063Y-000140*
X-001271Y003050*
X-001072Y004060*
Y011439*
X-001271Y012449*
X-001063Y015640*
X-001036Y015778*
X-000991Y015910*
X-000929Y016035*
X-000851Y016153*
X-000758Y016258*
X-000653Y016351*
X-000535Y016429*
X-000410Y016491*
X-000278Y016536*
X-000140Y016563*
X003050Y016771*
X004060Y016572*
X016939*
X017949Y016771*
X021140Y016563*
G54D51*
X021036Y015768D02*
X021070Y015762D01*
X021103Y015751*
X021134Y015735*
X021164Y015715*
X021191Y015691*
X021215Y015664*
X021235Y015634*
X021251Y015603*
X021262Y015570*
X021268Y015536*
X021465Y012501*
X021272Y011517*
Y003982*
X021465Y002998*
X021268Y-000036*
X021262Y-000070*
X021251Y-000103*
X021235Y-000134*
X021215Y-000164*
X021191Y-000191*
X021164Y-000215*
X021134Y-000235*
X021103Y-000251*
X021070Y-000262*
X021036Y-000268*
X018001Y-000465*
X017017Y-000272*
X003982*
X002998Y-000465*
X-000036Y-000268*
X-000070Y-000262*
X-000103Y-000251*
X-000134Y-000235*
X-000164Y-000215*
X-000191Y-000191*
X-000215Y-000164*
X-000235Y-000134*
X-000251Y-000103*
X-000262Y-000070*
X-000268Y-000036*
X-000465Y002998*
X-000272Y003982*
Y011517*
X-000465Y012501*
X-000268Y015536*
X-000262Y015570*
X-000251Y015603*
X-000235Y015634*
X-000215Y015664*
X-000191Y015691*
X-000164Y015715*
X-000134Y015735*
X-000103Y015751*
X-000070Y015762*
X-000036Y015768*
X002998Y015965*
X003982Y015772*
X017017*
X018001Y015965*
X021036Y015768*
G54D52*
X020828Y014179D02*
X020656Y014213D01*
X020488Y014270*
X020330Y014348*
X020188Y014443*
X020057Y014557*
X019943Y014688*
X019848Y014830*
X019770Y014988*
X019713Y015156*
X019679Y015328*
X019855Y012606*
X019672Y011673*
Y003826*
X019855Y002893*
X019679Y000171*
X019713Y000343*
X019770Y000511*
X019848Y000669*
X019943Y000811*
X020057Y000942*
X020188Y001056*
X020330Y001151*
X020488Y001229*
X020656Y001286*
X020828Y001320*
X018106Y001144*
X017173Y001328*
X003826*
X002893Y001144*
X000171Y001320*
X000343Y001286*
X000511Y001229*
X000669Y001151*
X000811Y001056*
X000942Y000942*
X001056Y000811*
X001151Y000669*
X001229Y000511*
X001286Y000343*
X001320Y000171*
X001144Y002893*
X001328Y003826*
Y011673*
X001144Y012606*
X001320Y015328*
X001286Y015156*
X001229Y014988*
X001151Y014830*
X001056Y014688*
X000942Y014557*
X000811Y014443*
X000669Y014348*
X000511Y014270*
X000343Y014213*
X000171Y014179*
X002893Y014355*
X003826Y014172*
X017173*
X018106Y014355*
X020828Y014179*
X001840Y001830D02*
X019430D01*
X001840Y005030D02*
X019430D01*
X001840Y008230D02*
X019430D01*
X001840Y011430D02*
X019430D01*
X001040Y014630D02*
X001030D01*
%LN7april_pcb-2*%
%LPC*%
G36*
X019344Y002792D02*
Y002450D01*
X019686*
X019679Y002503*
X019639Y002599*
X019576Y002682*
X019494Y002745*
X019397Y002785*
X019344Y002792*
G37*
G36*
X019244D02*
X019191Y002785D01*
X019095Y002745*
X019012Y002682*
X018949Y002599*
X018909Y002503*
X018902Y002450*
X019244*
Y002792*
G37*
G36*
Y002350D02*
X018902D01*
X018909Y002297*
X018949Y002201*
X019012Y002118*
X019095Y002055*
X019191Y002015*
X019244Y002008*
Y002350*
G37*
G36*
X020294Y003799D02*
X020191Y003785D01*
X020095Y003745*
X020012Y003682*
X019949Y003599*
X019909Y003503*
X019896Y003400*
X019909Y003297*
X019949Y003201*
X020012Y003118*
X020095Y003055*
X020191Y003015*
X020294Y003001*
X020397Y003015*
X020494Y003055*
X020576Y003118*
X020639Y003201*
X020679Y003297*
X020693Y003400*
X020679Y003503*
X020639Y003599*
X020576Y003682*
X020494Y003745*
X020397Y003785*
X020294Y003799*
G37*
G36*
X019244Y003792D02*
X019191Y003785D01*
X019095Y003745*
X019012Y003682*
X018949Y003599*
X018909Y003503*
X018902Y003450*
X019244*
Y003792*
G37*
G36*
Y003350D02*
X018902D01*
X018909Y003297*
X018949Y003201*
X019012Y003118*
X019095Y003055*
X019191Y003015*
X019244Y003008*
Y003350*
G37*
G36*
X019686D02*
X019344D01*
Y003008*
X019397Y003015*
X019494Y003055*
X019576Y003118*
X019639Y003201*
X019679Y003297*
X019686Y003350*
G37*
G36*
Y002350D02*
X019344D01*
Y002008*
X019397Y002015*
X019494Y002055*
X019576Y002118*
X019639Y002201*
X019679Y002297*
X019686Y002350*
G37*
G36*
X-000461Y001900D02*
X-000803D01*
X-000796Y001847*
X-000756Y001751*
X-000693Y001668*
X-000610Y001605*
X-000514Y001565*
X-000461Y001558*
Y001900*
G37*
G36*
X017950Y001096D02*
Y000800D01*
X018246*
X018241Y000841*
X018206Y000927*
X018150Y001000*
X018077Y001056*
X017991Y001091*
X017950Y001096*
G37*
G36*
X017850D02*
X017809Y001091D01*
X017723Y001056*
X017650Y001000*
X017594Y000927*
X017559Y000841*
X017554Y000800*
X017850*
Y001096*
G37*
G36*
X-000019Y001900D02*
X-000361D01*
Y001558*
X-000308Y001565*
X-000212Y001605*
X-000129Y001668*
X-000066Y001751*
X-000026Y001847*
X-000019Y001900*
G37*
G36*
X020689Y002795D02*
X019899D01*
Y002005*
X020689*
Y002795*
G37*
G36*
X-000361Y002342D02*
Y002000D01*
X-000019*
X-000026Y002053*
X-000066Y002149*
X-000129Y002232*
X-000212Y002295*
X-000308Y002335*
X-000361Y002342*
G37*
G36*
X-000461D02*
X-000514Y002335D01*
X-000610Y002295*
X-000693Y002232*
X-000756Y002149*
X-000796Y002053*
X-000803Y002000*
X-000461*
Y002342*
G37*
G36*
X019344Y003792D02*
Y003450D01*
X019686*
X019679Y003503*
X019639Y003599*
X019576Y003682*
X019494Y003745*
X019397Y003785*
X019344Y003792*
G37*
G36*
Y005792D02*
Y005450D01*
X019686*
X019679Y005503*
X019639Y005599*
X019576Y005682*
X019494Y005745*
X019397Y005785*
X019344Y005792*
G37*
G36*
X019244D02*
X019191Y005785D01*
X019095Y005745*
X019012Y005682*
X018949Y005599*
X018909Y005503*
X018902Y005450*
X019244*
Y005792*
G37*
G36*
Y005350D02*
X018902D01*
X018909Y005297*
X018949Y005201*
X019012Y005118*
X019095Y005055*
X019191Y005015*
X019244Y005008*
Y005350*
G37*
G36*
X-000411Y006618D02*
X-000514Y006605D01*
X-000610Y006565*
X-000693Y006501*
X-000756Y006419*
X-000796Y006323*
X-000810Y006219*
X-000796Y006116*
X-000756Y006020*
X-000693Y005938*
X-000610Y005874*
X-000514Y005834*
X-000411Y005821*
X-000308Y005834*
X-000212Y005874*
X-000129Y005938*
X-000066Y006020*
X-000026Y006116*
X-000012Y006219*
X-000026Y006323*
X-000066Y006419*
X-000129Y006501*
X-000212Y006565*
X-000308Y006605*
X-000411Y006618*
G37*
G36*
X019686Y006350D02*
X019344D01*
Y006008*
X019397Y006015*
X019494Y006055*
X019576Y006118*
X019639Y006201*
X019679Y006297*
X019686Y006350*
G37*
G36*
X020294Y006799D02*
X020191Y006785D01*
X020095Y006745*
X020012Y006682*
X019949Y006599*
X019909Y006503*
X019896Y006400*
X019909Y006297*
X019949Y006201*
X020012Y006118*
X020095Y006055*
X020191Y006015*
X020294Y006001*
X020397Y006015*
X020494Y006055*
X020576Y006118*
X020639Y006201*
X020679Y006297*
X020693Y006400*
X020679Y006503*
X020639Y006599*
X020576Y006682*
X020494Y006745*
X020397Y006785*
X020294Y006799*
G37*
G36*
X002589Y006618D02*
X002486Y006605D01*
X002390Y006565*
X002307Y006501*
X002244Y006419*
X002204Y006323*
X002190Y006219*
X002204Y006116*
X002244Y006020*
X002307Y005938*
X002390Y005874*
X002486Y005834*
X002589Y005821*
X002692Y005834*
X002788Y005874*
X002871Y005938*
X002934Y006020*
X002974Y006116*
X002988Y006219*
X002974Y006323*
X002934Y006419*
X002871Y006501*
X002788Y006565*
X002692Y006605*
X002589Y006618*
G37*
G36*
X019686Y005350D02*
X019344D01*
Y005008*
X019397Y005015*
X019494Y005055*
X019576Y005118*
X019639Y005201*
X019679Y005297*
X019686Y005350*
G37*
G36*
X019244Y004350D02*
X018902D01*
X018909Y004297*
X018949Y004201*
X019012Y004118*
X019095Y004055*
X019191Y004015*
X019244Y004008*
Y004350*
G37*
G36*
X019686D02*
X019344D01*
Y004008*
X019397Y004015*
X019494Y004055*
X019576Y004118*
X019639Y004201*
X019679Y004297*
X019686Y004350*
G37*
G36*
X020294Y004799D02*
X020191Y004785D01*
X020095Y004745*
X020012Y004682*
X019949Y004599*
X019909Y004503*
X019896Y004400*
X019909Y004297*
X019949Y004201*
X020012Y004118*
X020095Y004055*
X020191Y004015*
X020294Y004001*
X020397Y004015*
X020494Y004055*
X020576Y004118*
X020639Y004201*
X020679Y004297*
X020693Y004400*
X020679Y004503*
X020639Y004599*
X020576Y004682*
X020494Y004745*
X020397Y004785*
X020294Y004799*
G37*
G36*
X019244Y004792D02*
X019191Y004785D01*
X019095Y004745*
X019012Y004682*
X018949Y004599*
X018909Y004503*
X018902Y004450*
X019244*
Y004792*
G37*
G36*
X020294Y005799D02*
X020191Y005785D01*
X020095Y005745*
X020012Y005682*
X019949Y005599*
X019909Y005503*
X019896Y005400*
X019909Y005297*
X019949Y005201*
X020012Y005118*
X020095Y005055*
X020191Y005015*
X020294Y005001*
X020397Y005015*
X020494Y005055*
X020576Y005118*
X020639Y005201*
X020679Y005297*
X020693Y005400*
X020679Y005503*
X020639Y005599*
X020576Y005682*
X020494Y005745*
X020397Y005785*
X020294Y005799*
G37*
G36*
X002589Y005618D02*
X002486Y005605D01*
X002390Y005565*
X002307Y005501*
X002244Y005419*
X002204Y005323*
X002190Y005219*
X002204Y005116*
X002244Y005020*
X002307Y004938*
X002390Y004874*
X002486Y004834*
X002589Y004821*
X002692Y004834*
X002788Y004874*
X002871Y004938*
X002934Y005020*
X002974Y005116*
X002988Y005219*
X002974Y005323*
X002934Y005419*
X002871Y005501*
X002788Y005565*
X002692Y005605*
X002589Y005618*
G37*
G36*
X019344Y004792D02*
Y004450D01*
X019686*
X019679Y004503*
X019639Y004599*
X019576Y004682*
X019494Y004745*
X019397Y004785*
X019344Y004792*
G37*
G36*
X016440Y001096D02*
Y000800D01*
X016736*
X016731Y000841*
X016696Y000927*
X016640Y001000*
X016567Y001056*
X016481Y001091*
X016440Y001096*
G37*
G36*
X010300Y000700D02*
X010004D01*
X010009Y000659*
X010044Y000573*
X010100Y000500*
X010173Y000444*
X010259Y000409*
X010300Y000404*
Y000700*
G37*
G36*
X007609Y000665D02*
Y000368D01*
X007905*
X007900Y000410*
X007865Y000495*
X007808Y000568*
X007735Y000624*
X007650Y000659*
X007609Y000665*
G37*
G36*
X007509D02*
X007467Y000659D01*
X007382Y000624*
X007309Y000568*
X007253Y000495*
X007218Y000410*
X007212Y000368*
X007509*
Y000665*
G37*
G36*
X010696Y000700D02*
X010400D01*
Y000404*
X010441Y000409*
X010527Y000444*
X010600Y000500*
X010656Y000573*
X010691Y000659*
X010696Y000700*
G37*
G36*
X013320D02*
X013024D01*
X013029Y000659*
X013064Y000573*
X013120Y000500*
X013193Y000444*
X013279Y000409*
X013320Y000404*
Y000700*
G37*
G36*
X012206D02*
X011910D01*
Y000404*
X011951Y000409*
X012037Y000444*
X012110Y000500*
X012166Y000573*
X012201Y000659*
X012206Y000700*
G37*
G36*
X011810D02*
X011514D01*
X011519Y000659*
X011554Y000573*
X011610Y000500*
X011683Y000444*
X011769Y000409*
X011810Y000404*
Y000700*
G37*
G36*
X003355Y000665D02*
Y000368D01*
X003652*
X003646Y000410*
X003611Y000495*
X003555Y000568*
X003482Y000624*
X003397Y000659*
X003355Y000665*
G37*
G36*
X003255Y000268D02*
X002959D01*
X002964Y000227*
X002999Y000142*
X003056Y000069*
X003129Y000012*
X003214Y-000023*
X003255Y-000028*
Y000268*
G37*
G36*
X021000Y001088D02*
X020830Y001074D01*
X020664Y001034*
X020506Y000969*
X020361Y000880*
X020231Y000769*
X020120Y000639*
X020031Y000494*
X019966Y000336*
X019926Y000170*
X019912Y000000*
X019926Y-000170*
X019966Y-000336*
X020031Y-000494*
X020120Y-000639*
X020231Y-000769*
X020361Y-000880*
X020506Y-000969*
X020664Y-001034*
X020830Y-001074*
X021000Y-001088*
X021170Y-001074*
X021336Y-001034*
X021494Y-000969*
X021639Y-000880*
X021769Y-000769*
X021880Y-000639*
X021969Y-000494*
X022034Y-000336*
X022074Y-000170*
X022088Y000000*
X022074Y000170*
X022034Y000336*
X021969Y000494*
X021880Y000639*
X021769Y000769*
X021639Y000880*
X021494Y000969*
X021336Y001034*
X021170Y001074*
X021000Y001088*
G37*
G36*
X000000D02*
X-000170Y001074D01*
X-000336Y001034*
X-000494Y000969*
X-000639Y000880*
X-000769Y000769*
X-000880Y000639*
X-000969Y000494*
X-001034Y000336*
X-001074Y000170*
X-001088Y000000*
X-001074Y-000170*
X-001034Y-000336*
X-000969Y-000494*
X-000880Y-000639*
X-000769Y-000769*
X-000639Y-000880*
X-000494Y-000969*
X-000336Y-001034*
X-000170Y-001074*
X000000Y-001088*
X000170Y-001074*
X000336Y-001034*
X000494Y-000969*
X000639Y-000880*
X000769Y-000769*
X000880Y-000639*
X000969Y-000494*
X001034Y-000336*
X001074Y-000170*
X001088Y000000*
X001074Y000170*
X001034Y000336*
X000969Y000494*
X000880Y000639*
X000769Y000769*
X000639Y000880*
X000494Y000969*
X000336Y001034*
X000170Y001074*
X000000Y001088*
G37*
G36*
X003652Y000268D02*
X003355D01*
Y-000028*
X003397Y-000023*
X003482Y000012*
X003555Y000069*
X003611Y000142*
X003646Y000227*
X003652Y000268*
G37*
G36*
X003255Y000665D02*
X003214Y000659D01*
X003129Y000624*
X003056Y000568*
X002999Y000495*
X002964Y000410*
X002959Y000368*
X003255*
Y000665*
G37*
G36*
X007905Y000268D02*
X007609D01*
Y-000028*
X007650Y-000023*
X007735Y000012*
X007808Y000069*
X007865Y000142*
X007900Y000227*
X007905Y000268*
G37*
G36*
X007509D02*
X007212D01*
X007218Y000227*
X007253Y000142*
X007309Y000069*
X007382Y000012*
X007467Y-000023*
X007509Y-000028*
Y000268*
G37*
G36*
X013716Y000700D02*
X013420D01*
Y000404*
X013461Y000409*
X013547Y000444*
X013620Y000500*
X013676Y000573*
X013711Y000659*
X013716Y000700*
G37*
G36*
X013320Y001096D02*
X013279Y001091D01*
X013193Y001056*
X013120Y001000*
X013064Y000927*
X013029Y000841*
X013024Y000800*
X013320*
Y001096*
G37*
G36*
X011910D02*
Y000800D01*
X012206*
X012201Y000841*
X012166Y000927*
X012110Y001000*
X012037Y001056*
X011951Y001091*
X011910Y001096*
G37*
G36*
X011810D02*
X011769Y001091D01*
X011683Y001056*
X011610Y001000*
X011554Y000927*
X011519Y000841*
X011514Y000800*
X011810*
Y001096*
G37*
G36*
X013420D02*
Y000800D01*
X013716*
X013711Y000841*
X013676Y000927*
X013620Y001000*
X013547Y001056*
X013461Y001091*
X013420Y001096*
G37*
G36*
X016340D02*
X016299Y001091D01*
X016213Y001056*
X016140Y001000*
X016084Y000927*
X016049Y000841*
X016044Y000800*
X016340*
Y001096*
G37*
G36*
X014930D02*
Y000800D01*
X015226*
X015221Y000841*
X015186Y000927*
X015130Y001000*
X015057Y001056*
X014971Y001091*
X014930Y001096*
G37*
G36*
X014830D02*
X014789Y001091D01*
X014703Y001056*
X014630Y001000*
X014574Y000927*
X014539Y000841*
X014534Y000800*
X014830*
Y001096*
G37*
G36*
X010400D02*
Y000800D01*
X010696*
X010691Y000841*
X010656Y000927*
X010600Y001000*
X010527Y001056*
X010441Y001091*
X010400Y001096*
G37*
G36*
X016340Y000700D02*
X016044D01*
X016049Y000659*
X016084Y000573*
X016140Y000500*
X016213Y000444*
X016299Y000409*
X016340Y000404*
Y000700*
G37*
G36*
X015226D02*
X014930D01*
Y000404*
X014971Y000409*
X015057Y000444*
X015130Y000500*
X015186Y000573*
X015221Y000659*
X015226Y000700*
G37*
G36*
X014830D02*
X014534D01*
X014539Y000659*
X014574Y000573*
X014630Y000500*
X014703Y000444*
X014789Y000409*
X014830Y000404*
Y000700*
G37*
G36*
X016736D02*
X016440D01*
Y000404*
X016481Y000409*
X016567Y000444*
X016640Y000500*
X016696Y000573*
X016731Y000659*
X016736Y000700*
G37*
G36*
X010300Y001096D02*
X010259Y001091D01*
X010173Y001056*
X010100Y001000*
X010044Y000927*
X010009Y000841*
X010004Y000800*
X010300*
Y001096*
G37*
G36*
X018246Y000700D02*
X017950D01*
Y000404*
X017991Y000409*
X018077Y000444*
X018150Y000500*
X018206Y000573*
X018241Y000659*
X018246Y000700*
G37*
G36*
X017850D02*
X017554D01*
X017559Y000659*
X017594Y000573*
X017650Y000500*
X017723Y000444*
X017809Y000409*
X017850Y000404*
Y000700*
G37*
G36*
X019244Y006350D02*
X018902D01*
X018909Y006297*
X018949Y006201*
X019012Y006118*
X019095Y006055*
X019191Y006015*
X019244Y006008*
Y006350*
G37*
G36*
X005150Y015344D02*
X005047Y015330D01*
X004951Y015290*
X004868Y015227*
X004805Y015144*
X004765Y015048*
X004751Y014945*
X004765Y014842*
X004805Y014746*
X004868Y014663*
X004951Y014600*
X005047Y014560*
X005150Y014546*
X005253Y014560*
X005349Y014600*
X005432Y014663*
X005495Y014746*
X005535Y014842*
X005549Y014945*
X005535Y015048*
X005495Y015144*
X005432Y015227*
X005349Y015290*
X005253Y015330*
X005150Y015344*
G37*
G36*
X004150D02*
X004047Y015330D01*
X003951Y015290*
X003868Y015227*
X003805Y015144*
X003765Y015048*
X003751Y014945*
X003765Y014842*
X003805Y014746*
X003868Y014663*
X003951Y014600*
X004047Y014560*
X004150Y014546*
X004253Y014560*
X004349Y014600*
X004432Y014663*
X004495Y014746*
X004535Y014842*
X004549Y014945*
X004535Y015048*
X004495Y015144*
X004432Y015227*
X004349Y015290*
X004253Y015330*
X004150Y015344*
G37*
G36*
X021000Y016588D02*
X020830Y016574D01*
X020664Y016534*
X020506Y016469*
X020361Y016380*
X020231Y016269*
X020120Y016139*
X020031Y015994*
X019966Y015836*
X019926Y015670*
X019912Y015500*
X019926Y015330*
X019966Y015164*
X020031Y015006*
X020120Y014861*
X020231Y014731*
X020361Y014620*
X020506Y014531*
X020664Y014466*
X020830Y014426*
X021000Y014412*
X021170Y014426*
X021336Y014466*
X021494Y014531*
X021639Y014620*
X021769Y014731*
X021880Y014861*
X021969Y015006*
X022034Y015164*
X022074Y015330*
X022088Y015500*
X022074Y015670*
X022034Y015836*
X021969Y015994*
X021880Y016139*
X021769Y016269*
X021639Y016380*
X021494Y016469*
X021336Y016534*
X021170Y016574*
X021000Y016588*
G37*
G36*
X008410Y015344D02*
X008307Y015330D01*
X008211Y015290*
X008128Y015227*
X008065Y015144*
X008025Y015048*
X008011Y014945*
X008025Y014842*
X008065Y014746*
X008128Y014663*
X008211Y014600*
X008307Y014560*
X008410Y014546*
X008513Y014560*
X008609Y014600*
X008692Y014663*
X008755Y014746*
X008795Y014842*
X008809Y014945*
X008795Y015048*
X008755Y015144*
X008692Y015227*
X008609Y015290*
X008513Y015330*
X008410Y015344*
G37*
G36*
X003100Y014895D02*
X002758D01*
X002765Y014842*
X002805Y014746*
X002868Y014663*
X002951Y014600*
X003047Y014560*
X003100Y014553*
Y014895*
G37*
G36*
X010410Y015344D02*
X010307Y015330D01*
X010211Y015290*
X010128Y015227*
X010065Y015144*
X010025Y015048*
X010011Y014945*
X010025Y014842*
X010065Y014746*
X010128Y014663*
X010211Y014600*
X010307Y014560*
X010410Y014546*
X010513Y014560*
X010609Y014600*
X010692Y014663*
X010755Y014746*
X010795Y014842*
X010809Y014945*
X010795Y015048*
X010755Y015144*
X010692Y015227*
X010609Y015290*
X010513Y015330*
X010410Y015344*
G37*
G36*
X009410D02*
X009307Y015330D01*
X009211Y015290*
X009128Y015227*
X009065Y015144*
X009025Y015048*
X009011Y014945*
X009025Y014842*
X009065Y014746*
X009128Y014663*
X009211Y014600*
X009307Y014560*
X009410Y014546*
X009513Y014560*
X009609Y014600*
X009692Y014663*
X009755Y014746*
X009795Y014842*
X009809Y014945*
X009795Y015048*
X009755Y015144*
X009692Y015227*
X009609Y015290*
X009513Y015330*
X009410Y015344*
G37*
G36*
X000000Y016588D02*
X-000170Y016574D01*
X-000336Y016534*
X-000494Y016469*
X-000639Y016380*
X-000769Y016269*
X-000880Y016139*
X-000969Y015994*
X-001034Y015836*
X-001074Y015670*
X-001088Y015500*
X-001074Y015330*
X-001034Y015164*
X-000969Y015006*
X-000880Y014861*
X-000769Y014731*
X-000639Y014620*
X-000494Y014531*
X-000336Y014466*
X-000170Y014426*
X000000Y014412*
X000170Y014426*
X000336Y014466*
X000494Y014531*
X000639Y014620*
X000769Y014731*
X000880Y014861*
X000969Y015006*
X001034Y015164*
X001074Y015330*
X001088Y015500*
X001074Y015670*
X001034Y015836*
X000969Y015994*
X000880Y016139*
X000769Y016269*
X000639Y016380*
X000494Y016469*
X000336Y016534*
X000170Y016574*
X000000Y016588*
G37*
G36*
X007805Y015340D02*
X007015D01*
Y014881*
X006437Y014303*
X001750*
X001691Y014291*
X001642Y014258*
X001374Y013991*
X001346Y013985*
X001296Y013952*
X001036Y013691*
X001002Y013641*
X001001Y013633*
X000944Y013596*
X000934Y013598*
X000871Y013680*
X000788Y013744*
X000692Y013783*
X000589Y013797*
X000486Y013783*
X000390Y013744*
X000307Y013680*
X000244Y013598*
X000204Y013502*
X000190Y013398*
X000204Y013295*
X000244Y013199*
X000307Y013116*
X000390Y013053*
X000436Y013034*
Y008283*
X-000261Y007585*
X-000308Y007605*
X-000411Y007618*
X-000514Y007605*
X-000610Y007565*
X-000693Y007501*
X-000756Y007419*
X-000796Y007323*
X-000810Y007219*
X-000796Y007116*
X-000756Y007020*
X-000693Y006938*
X-000610Y006874*
X-000514Y006834*
X-000411Y006821*
X-000308Y006834*
X-000212Y006874*
X-000129Y006938*
X-000066Y007020*
X-000026Y007116*
X-000012Y007219*
X-000026Y007323*
X-000045Y007369*
X000697Y008111*
X000730Y008161*
X000742Y008219*
Y013034*
X000788Y013053*
X000871Y013116*
X000934Y013199*
X000941Y013215*
X000991Y013205*
Y006728*
X-000190Y005548*
X-000212Y005565*
X-000308Y005605*
X-000411Y005618*
X-000514Y005605*
X-000610Y005565*
X-000693Y005501*
X-000756Y005419*
X-000796Y005323*
X-000810Y005219*
X-000796Y005116*
X-000756Y005020*
X-000693Y004938*
X-000610Y004874*
X-000564Y004855*
Y002950*
X-000552Y002891*
X-000519Y002842*
X000194Y002129*
Y001555*
X000984*
Y002345*
X000410*
X-000258Y003013*
Y004855*
X-000212Y004874*
X-000129Y004938*
X-000066Y005020*
X-000026Y005116*
X-000012Y005219*
X-000021Y005284*
X001252Y006557*
X001285Y006606*
X001297Y006665*
Y013061*
X001347Y013086*
X001390Y013053*
X001436Y013034*
Y011219*
X001448Y011161*
X001481Y011111*
X002223Y010369*
X002204Y010323*
X002190Y010219*
X002204Y010116*
X002244Y010020*
X002307Y009938*
X002390Y009874*
X002486Y009834*
X002589Y009821*
X002692Y009834*
X002788Y009874*
X002871Y009938*
X002886Y009957*
X002936Y009940*
Y009499*
X002886Y009482*
X002871Y009501*
X002788Y009565*
X002692Y009605*
X002639Y009612*
Y009219*
Y008827*
X002692Y008834*
X002788Y008874*
X002871Y008938*
X002886Y008957*
X002936Y008940*
Y008499*
X002886Y008482*
X002871Y008501*
X002788Y008565*
X002692Y008605*
X002639Y008612*
Y008219*
Y007827*
X002692Y007834*
X002788Y007874*
X002871Y007938*
X002886Y007957*
X002936Y007940*
Y007783*
X002739Y007585*
X002692Y007605*
X002589Y007618*
X002486Y007605*
X002390Y007565*
X002307Y007501*
X002244Y007419*
X002204Y007323*
X002190Y007219*
X002204Y007116*
X002244Y007020*
X002307Y006938*
X002390Y006874*
X002486Y006834*
X002589Y006821*
X002692Y006834*
X002788Y006874*
X002871Y006938*
X002934Y007020*
X002974Y007116*
X002988Y007219*
X002974Y007323*
X002955Y007369*
X003197Y007611*
X003230Y007661*
X003242Y007719*
Y012898*
X003230Y012957*
X003197Y013006*
X002955Y013249*
X002974Y013295*
X002988Y013398*
X002974Y013502*
X002934Y013598*
X002871Y013680*
X002788Y013744*
X002692Y013783*
X002589Y013797*
X002486Y013783*
X002390Y013744*
X002307Y013680*
X002244Y013598*
X002204Y013502*
X002190Y013398*
X002204Y013295*
X002244Y013199*
X002307Y013116*
X002390Y013053*
X002486Y013013*
X002589Y013000*
X002692Y013013*
X002739Y013032*
X002936Y012835*
Y012615*
X002194*
Y011824*
X002936*
Y011499*
X002886Y011482*
X002871Y011501*
X002788Y011565*
X002692Y011605*
X002589Y011618*
X002486Y011605*
X002390Y011565*
X002307Y011501*
X002244Y011419*
X002204Y011323*
X002190Y011219*
X002204Y011116*
X002244Y011020*
X002307Y010938*
X002390Y010874*
X002486Y010834*
X002589Y010821*
X002692Y010834*
X002788Y010874*
X002871Y010938*
X002886Y010957*
X002936Y010940*
Y010499*
X002886Y010482*
X002871Y010501*
X002788Y010565*
X002692Y010605*
X002589Y010618*
X002486Y010605*
X002439Y010585*
X001742Y011283*
Y013034*
X001788Y013053*
X001871Y013116*
X001934Y013199*
X001974Y013295*
X001988Y013398*
X001974Y013502*
X001934Y013598*
X001871Y013680*
X001788Y013744*
X001692Y013783*
X001667Y013787*
X001650Y013834*
X001813Y013997*
X006500*
X006559Y014009*
X006608Y014042*
X007116Y014550*
X007805*
Y015340*
G37*
G36*
X016792Y013600D02*
X016450D01*
Y013258*
X016503Y013265*
X016599Y013305*
X016682Y013368*
X016745Y013451*
X016785Y013547*
X016792Y013600*
G37*
G36*
X016350D02*
X016008D01*
X016015Y013547*
X016055Y013451*
X016118Y013368*
X016201Y013305*
X016297Y013265*
X016350Y013258*
Y013600*
G37*
G36*
Y014042D02*
X016297Y014035D01*
X016201Y013995*
X016118Y013932*
X016055Y013849*
X016015Y013753*
X016008Y013700*
X016350*
Y014042*
G37*
G36*
X017400Y015049D02*
X017297Y015035D01*
X017201Y014995*
X017118Y014932*
X017055Y014849*
X017015Y014753*
X017001Y014650*
X017015Y014547*
X017055Y014451*
X017118Y014368*
X017201Y014305*
X017297Y014265*
X017400Y014251*
X017503Y014265*
X017599Y014305*
X017682Y014368*
X017745Y014451*
X017785Y014547*
X017799Y014650*
X017785Y014753*
X017745Y014849*
X017682Y014932*
X017599Y014995*
X017503Y015035*
X017400Y015049*
G37*
G36*
X016400D02*
X016297Y015035D01*
X016201Y014995*
X016118Y014932*
X016055Y014849*
X016015Y014753*
X016001Y014650*
X016015Y014547*
X016055Y014451*
X016118Y014368*
X016201Y014305*
X016297Y014265*
X016400Y014251*
X016503Y014265*
X016599Y014305*
X016682Y014368*
X016745Y014451*
X016785Y014547*
X016799Y014650*
X016785Y014753*
X016745Y014849*
X016682Y014932*
X016599Y014995*
X016503Y015035*
X016400Y015049*
G37*
G36*
X016450Y014042D02*
Y013700D01*
X016792*
X016785Y013753*
X016745Y013849*
X016682Y013932*
X016599Y013995*
X016503Y014035*
X016450Y014042*
G37*
G36*
X003542Y014895D02*
X003200D01*
Y014553*
X003253Y014560*
X003349Y014600*
X003432Y014663*
X003495Y014746*
X003535Y014842*
X003542Y014895*
G37*
G36*
Y015895D02*
X003200D01*
Y015553*
X003253Y015560*
X003349Y015600*
X003432Y015663*
X003495Y015746*
X003535Y015842*
X003542Y015895*
G37*
G36*
X010802D02*
X010460D01*
Y015553*
X010513Y015560*
X010609Y015600*
X010692Y015663*
X010755Y015746*
X010795Y015842*
X010802Y015895*
G37*
G36*
X010360D02*
X010018D01*
X010025Y015842*
X010065Y015746*
X010128Y015663*
X010211Y015600*
X010307Y015560*
X010360Y015553*
Y015895*
G37*
G36*
X003100Y016337D02*
X003047Y016330D01*
X002951Y016290*
X002868Y016227*
X002805Y016144*
X002765Y016048*
X002758Y015995*
X003100*
Y016337*
G37*
G36*
X010460D02*
Y015995D01*
X010802*
X010795Y016048*
X010755Y016144*
X010692Y016227*
X010609Y016290*
X010513Y016330*
X010460Y016337*
G37*
G36*
X010360D02*
X010307Y016330D01*
X010211Y016290*
X010128Y016227*
X010065Y016144*
X010025Y016048*
X010018Y015995*
X010360*
Y016337*
G37*
G36*
X003200D02*
Y015995D01*
X003542*
X003535Y016048*
X003495Y016144*
X003432Y016227*
X003349Y016290*
X003253Y016330*
X003200Y016337*
G37*
G36*
X003100Y015895D02*
X002758D01*
X002765Y015842*
X002805Y015746*
X002868Y015663*
X002951Y015600*
X003047Y015560*
X003100Y015553*
Y015895*
G37*
G36*
X004150Y016344D02*
X004047Y016330D01*
X003951Y016290*
X003868Y016227*
X003805Y016144*
X003765Y016048*
X003751Y015945*
X003765Y015842*
X003805Y015746*
X003868Y015663*
X003951Y015600*
X004047Y015560*
X004150Y015546*
X004253Y015560*
X004349Y015600*
X004432Y015663*
X004495Y015746*
X004535Y015842*
X004549Y015945*
X004535Y016048*
X004495Y016144*
X004432Y016227*
X004349Y016290*
X004253Y016330*
X004150Y016344*
G37*
G36*
X003200Y015337D02*
Y014995D01*
X003542*
X003535Y015048*
X003495Y015144*
X003432Y015227*
X003349Y015290*
X003253Y015330*
X003200Y015337*
G37*
G36*
X003100D02*
X003047Y015330D01*
X002951Y015290*
X002868Y015227*
X002805Y015144*
X002765Y015048*
X002758Y014995*
X003100*
Y015337*
G37*
G36*
X007410Y016344D02*
X007307Y016330D01*
X007211Y016290*
X007128Y016227*
X007065Y016144*
X007025Y016048*
X007011Y015945*
X007025Y015842*
X007065Y015746*
X007128Y015663*
X007211Y015600*
X007307Y015560*
X007410Y015546*
X007513Y015560*
X007609Y015600*
X007692Y015663*
X007755Y015746*
X007795Y015842*
X007809Y015945*
X007795Y016048*
X007755Y016144*
X007692Y016227*
X007609Y016290*
X007513Y016330*
X007410Y016344*
G37*
G36*
X005545Y016340D02*
X004755D01*
Y015550*
X005545*
Y016340*
G37*
G36*
X009410Y016344D02*
X009307Y016330D01*
X009211Y016290*
X009128Y016227*
X009065Y016144*
X009025Y016048*
X009011Y015945*
X009025Y015842*
X009065Y015746*
X009128Y015663*
X009211Y015600*
X009307Y015560*
X009410Y015546*
X009513Y015560*
X009609Y015600*
X009692Y015663*
X009755Y015746*
X009795Y015842*
X009809Y015945*
X009795Y016048*
X009755Y016144*
X009692Y016227*
X009609Y016290*
X009513Y016330*
X009410Y016344*
G37*
G36*
X008410D02*
X008307Y016330D01*
X008211Y016290*
X008128Y016227*
X008065Y016144*
X008025Y016048*
X008011Y015945*
X008025Y015842*
X008065Y015746*
X008128Y015663*
X008211Y015600*
X008307Y015560*
X008410Y015546*
X008513Y015560*
X008609Y015600*
X008692Y015663*
X008755Y015746*
X008795Y015842*
X008809Y015945*
X008795Y016048*
X008755Y016144*
X008692Y016227*
X008609Y016290*
X008513Y016330*
X008410Y016344*
G37*
G36*
X017400Y014049D02*
X017297Y014035D01*
X017201Y013995*
X017118Y013932*
X017055Y013849*
X017015Y013753*
X017001Y013650*
X017015Y013547*
X017055Y013451*
X017118Y013368*
X017201Y013305*
X017297Y013265*
X017400Y013251*
X017503Y013265*
X017599Y013305*
X017682Y013368*
X017745Y013451*
X017785Y013547*
X017799Y013650*
X017785Y013753*
X017745Y013849*
X017682Y013932*
X017599Y013995*
X017503Y014035*
X017400Y014049*
G37*
G36*
X-000461Y008612D02*
X-000514Y008605D01*
X-000610Y008565*
X-000693Y008501*
X-000756Y008419*
X-000796Y008323*
X-000803Y008269*
X-000461*
Y008612*
G37*
G36*
X002539Y008169D02*
X002197D01*
X002204Y008116*
X002244Y008020*
X002307Y007938*
X002390Y007874*
X002486Y007834*
X002539Y007827*
Y008169*
G37*
G36*
X-000461D02*
X-000803D01*
X-000796Y008116*
X-000756Y008020*
X-000693Y007938*
X-000610Y007874*
X-000514Y007834*
X-000461Y007827*
Y008169*
G37*
G36*
X002539Y008612D02*
X002486Y008605D01*
X002390Y008565*
X002307Y008501*
X002244Y008419*
X002204Y008323*
X002197Y008269*
X002539*
Y008612*
G37*
G36*
X-000461Y009169D02*
X-000803D01*
X-000796Y009116*
X-000756Y009020*
X-000693Y008938*
X-000610Y008874*
X-000514Y008834*
X-000461Y008827*
Y009169*
G37*
G36*
X-000019D02*
X-000361D01*
Y008827*
X-000308Y008834*
X-000212Y008874*
X-000129Y008938*
X-000066Y009020*
X-000026Y009116*
X-000019Y009169*
G37*
G36*
X-000361Y008612D02*
Y008269D01*
X-000019*
X-000026Y008323*
X-000066Y008419*
X-000129Y008501*
X-000212Y008565*
X-000308Y008605*
X-000361Y008612*
G37*
G36*
X-000019Y008169D02*
X-000361D01*
Y007827*
X-000308Y007834*
X-000212Y007874*
X-000129Y007938*
X-000066Y008020*
X-000026Y008116*
X-000019Y008169*
G37*
G36*
X020294Y007799D02*
X020191Y007785D01*
X020095Y007745*
X020012Y007682*
X019949Y007599*
X019909Y007503*
X019896Y007400*
X019909Y007297*
X019949Y007201*
X020012Y007118*
X020095Y007055*
X020191Y007015*
X020294Y007001*
X020397Y007015*
X020494Y007055*
X020576Y007118*
X020639Y007201*
X020679Y007297*
X020693Y007400*
X020679Y007503*
X020639Y007599*
X020576Y007682*
X020494Y007745*
X020397Y007785*
X020294Y007799*
G37*
G36*
X019344Y006792D02*
Y006450D01*
X019686*
X019679Y006503*
X019639Y006599*
X019576Y006682*
X019494Y006745*
X019397Y006785*
X019344Y006792*
G37*
G36*
X019244D02*
X019191Y006785D01*
X019095Y006745*
X019012Y006682*
X018949Y006599*
X018909Y006503*
X018902Y006450*
X019244*
Y006792*
G37*
G36*
X019686Y007350D02*
X019344D01*
Y007008*
X019397Y007015*
X019494Y007055*
X019576Y007118*
X019639Y007201*
X019679Y007297*
X019686Y007350*
G37*
G36*
X019344Y007792D02*
Y007450D01*
X019686*
X019679Y007503*
X019639Y007599*
X019576Y007682*
X019494Y007745*
X019397Y007785*
X019344Y007792*
G37*
G36*
X019244D02*
X019191Y007785D01*
X019095Y007745*
X019012Y007682*
X018949Y007599*
X018909Y007503*
X018902Y007450*
X019244*
Y007792*
G37*
G36*
Y007350D02*
X018902D01*
X018909Y007297*
X018949Y007201*
X019012Y007118*
X019095Y007055*
X019191Y007015*
X019244Y007008*
Y007350*
G37*
G36*
X002539Y009169D02*
X002197D01*
X002204Y009116*
X002244Y009020*
X002307Y008938*
X002390Y008874*
X002486Y008834*
X002539Y008827*
Y009169*
G37*
G36*
X016400Y013049D02*
X016297Y013035D01*
X016201Y012995*
X016118Y012932*
X016055Y012849*
X016015Y012753*
X016001Y012650*
X016015Y012547*
X016055Y012451*
X016118Y012368*
X016201Y012305*
X016297Y012265*
X016400Y012251*
X016503Y012265*
X016550Y012284*
X016802Y012032*
Y011844*
X016752Y011834*
X016745Y011849*
X016682Y011932*
X016599Y011995*
X016503Y012035*
X016400Y012049*
X016297Y012035*
X016201Y011995*
X016118Y011932*
X016055Y011849*
X016015Y011753*
X016001Y011650*
X016015Y011547*
X016055Y011451*
X016118Y011368*
X016201Y011305*
X016297Y011265*
X016400Y011251*
X016503Y011265*
X016599Y011305*
X016682Y011368*
X016745Y011451*
X016752Y011466*
X016802Y011456*
Y009594*
X016752Y009584*
X016745Y009599*
X016682Y009682*
X016599Y009745*
X016503Y009785*
X016450Y009792*
Y009400*
Y009008*
X016503Y009015*
X016599Y009055*
X016682Y009118*
X016745Y009201*
X016752Y009216*
X016802Y009206*
Y008594*
X016752Y008584*
X016745Y008599*
X016682Y008682*
X016599Y008745*
X016503Y008785*
X016400Y008799*
X016297Y008785*
X016201Y008745*
X016118Y008682*
X016055Y008599*
X016015Y008503*
X016001Y008400*
X016015Y008297*
X016055Y008201*
X016118Y008118*
X016201Y008055*
X016297Y008015*
X016400Y008001*
X016503Y008015*
X016599Y008055*
X016682Y008118*
X016745Y008201*
X016752Y008216*
X016802Y008206*
Y007594*
X016752Y007584*
X016745Y007599*
X016682Y007682*
X016599Y007745*
X016503Y007785*
X016400Y007799*
X016297Y007785*
X016201Y007745*
X016118Y007682*
X016055Y007599*
X016015Y007503*
X016001Y007400*
X016015Y007297*
X016055Y007201*
X016118Y007118*
X016201Y007055*
X016297Y007015*
X016400Y007001*
X016503Y007015*
X016599Y007055*
X016682Y007118*
X016745Y007201*
X016752Y007216*
X016802Y007206*
Y005449*
X016813Y005391*
X016847Y005341*
X017119Y005069*
X017109Y005045*
X017097Y004954*
X017109Y004863*
X017144Y004778*
X017200Y004704*
X017273Y004648*
X017359Y004613*
X017450Y004601*
X017541Y004613*
X017627Y004648*
X017700Y004704*
X017756Y004778*
X017791Y004863*
X017803Y004954*
X017791Y005045*
X017756Y005131*
X017700Y005204*
X017627Y005260*
X017541Y005295*
X017450Y005307*
X017359Y005295*
X017335Y005285*
X017108Y005513*
Y007005*
X017795*
Y007795*
X017108*
Y008063*
X017158Y008088*
X017201Y008055*
X017297Y008015*
X017400Y008001*
X017503Y008015*
X017599Y008055*
X017682Y008118*
X017745Y008201*
X017785Y008297*
X017799Y008400*
X017785Y008503*
X017745Y008599*
X017682Y008682*
X017599Y008745*
X017503Y008785*
X017400Y008799*
X017297Y008785*
X017201Y008745*
X017158Y008712*
X017108Y008737*
Y009063*
X017158Y009088*
X017201Y009055*
X017297Y009015*
X017400Y009001*
X017503Y009015*
X017599Y009055*
X017682Y009118*
X017745Y009201*
X017785Y009297*
X017799Y009400*
X017785Y009503*
X017745Y009599*
X017682Y009682*
X017599Y009745*
X017503Y009785*
X017400Y009799*
X017297Y009785*
X017201Y009745*
X017158Y009712*
X017108Y009737*
Y011255*
X017795*
Y012045*
X017108*
Y012095*
X017096Y012154*
X017063Y012203*
X016766Y012500*
X016785Y012547*
X016799Y012650*
X016785Y012753*
X016745Y012849*
X016682Y012932*
X016599Y012995*
X016503Y013035*
X016400Y013049*
G37*
G36*
X-000016Y013794D02*
X-000806D01*
Y013219*
X-000969Y013056*
X-001002Y013007*
X-001014Y012948*
Y010669*
X-001002Y010611*
X-000969Y010561*
X-000777Y010369*
X-000796Y010323*
X-000810Y010219*
X-000796Y010116*
X-000756Y010020*
X-000693Y009938*
X-000610Y009874*
X-000514Y009834*
X-000411Y009821*
X-000308Y009834*
X-000212Y009874*
X-000129Y009938*
X-000066Y010020*
X-000026Y010116*
X-000012Y010219*
X-000026Y010323*
X-000066Y010419*
X-000129Y010501*
X-000212Y010565*
X-000308Y010605*
X-000411Y010618*
X-000514Y010605*
X-000561Y010585*
X-000708Y010733*
Y010886*
X-000658Y010911*
X-000610Y010874*
X-000514Y010834*
X-000411Y010821*
X-000308Y010834*
X-000212Y010874*
X-000129Y010938*
X-000066Y011020*
X-000026Y011116*
X-000012Y011219*
X-000026Y011323*
X-000066Y011419*
X-000129Y011501*
X-000212Y011565*
X-000308Y011605*
X-000411Y011618*
X-000514Y011605*
X-000610Y011565*
X-000658Y011528*
X-000708Y011553*
Y011824*
X-000016*
Y012615*
X-000708*
Y012885*
X-000590Y013003*
X-000016*
Y013794*
G37*
G36*
X010200Y010296D02*
Y010000D01*
X010496*
X010491Y010041*
X010456Y010127*
X010400Y010200*
X010327Y010256*
X010241Y010291*
X010200Y010296*
G37*
G36*
X017350Y012600D02*
X017008D01*
X017015Y012547*
X017055Y012451*
X017118Y012368*
X017201Y012305*
X017297Y012265*
X017350Y012258*
Y012600*
G37*
G36*
X017450Y013042D02*
Y012700D01*
X017792*
X017785Y012753*
X017745Y012849*
X017682Y012932*
X017599Y012995*
X017503Y013035*
X017450Y013042*
G37*
G36*
X017350D02*
X017297Y013035D01*
X017201Y012995*
X017118Y012932*
X017055Y012849*
X017015Y012753*
X017008Y012700*
X017350*
Y013042*
G37*
G36*
X017792Y012600D02*
X017450D01*
Y012258*
X017503Y012265*
X017599Y012305*
X017682Y012368*
X017745Y012451*
X017785Y012547*
X017792Y012600*
G37*
G36*
X010100Y010296D02*
X010059Y010291D01*
X009973Y010256*
X009900Y010200*
X009844Y010127*
X009809Y010041*
X009804Y010000*
X010100*
Y010296*
G37*
G36*
X002539Y009612D02*
X002486Y009605D01*
X002390Y009565*
X002307Y009501*
X002244Y009419*
X002204Y009323*
X002197Y009269*
X002539*
Y009612*
G37*
G36*
X-000461D02*
X-000514Y009605D01*
X-000610Y009565*
X-000693Y009501*
X-000756Y009419*
X-000796Y009323*
X-000803Y009269*
X-000461*
Y009612*
G37*
G36*
X016350Y009350D02*
X016008D01*
X016015Y009297*
X016055Y009201*
X016118Y009118*
X016201Y009055*
X016297Y009015*
X016350Y009008*
Y009350*
G37*
G36*
X-000361Y009612D02*
Y009269D01*
X-000019*
X-000026Y009323*
X-000066Y009419*
X-000129Y009501*
X-000212Y009565*
X-000308Y009605*
X-000361Y009612*
G37*
G36*
X010496Y009900D02*
X010200D01*
Y009604*
X010241Y009609*
X010327Y009644*
X010400Y009700*
X010456Y009773*
X010491Y009859*
X010496Y009900*
G37*
G36*
X010100D02*
X009804D01*
X009809Y009859*
X009844Y009773*
X009900Y009700*
X009973Y009644*
X010059Y009609*
X010100Y009604*
Y009900*
G37*
G36*
X016350Y009792D02*
X016297Y009785D01*
X016201Y009745*
X016118Y009682*
X016055Y009599*
X016015Y009503*
X016008Y009450*
X016350*
Y009792*
G37*
%LN7april_pcb-3*%
%LPD*%
G54D21*
X001444Y013844D02*
X001750Y014150D01*
X006500*
X007295Y014945*
X007410*
X001144Y006665D02*
Y013583D01*
X001405Y013844*
X001444*
X016400Y012650D02*
X016955Y012095D01*
Y005449D02*
X017450Y004954D01*
X016955Y005449D02*
Y012095D01*
X-000411Y002950D02*
Y005219D01*
Y002950D02*
X000589Y001950D01*
X-000411Y005219D02*
X-000302D01*
X001144Y006665*
X000589Y008219D02*
Y013398D01*
X-000411Y007219D02*
X000589Y008219D01*
X001589Y011219D02*
Y013398D01*
Y011219D02*
X002589Y010219D01*
Y013398D02*
X003089Y012898D01*
Y007719D02*
Y012898D01*
X002589Y007219D02*
X003089Y007719D01*
X-000861Y010669D02*
X-000411Y010219D01*
X-000861Y010669D02*
Y012948D01*
X-000411Y013398*
G54D22*
X020294Y002400D03*
X-000411Y012219D03*
X002589D03*
X017400Y007400D03*
Y011650D03*
G54D23*
X019294Y002400D03*
X020294Y003400D03*
X019294D03*
X020294Y004400D03*
X019294D03*
X020294Y005400D03*
X019294D03*
X020294Y006400D03*
X019294D03*
X020294Y007400D03*
X019294D03*
X-000411Y005219D03*
Y006219D03*
Y007219D03*
Y008219D03*
Y009219D03*
Y010219D03*
Y011219D03*
X002589Y005219D03*
Y006219D03*
Y007219D03*
Y008219D03*
Y009219D03*
Y010219D03*
Y011219D03*
X016400Y009400D03*
X017400D03*
X016400Y008400D03*
X017400D03*
X016400Y007400D03*
X003150Y014945D03*
Y015945D03*
X004150Y014945D03*
Y015945D03*
X005150Y014945D03*
X016400Y011650D03*
X017400Y012650D03*
X016400D03*
X017400Y013650D03*
X016400D03*
X017400Y014650D03*
X016400D03*
X-000411Y001950D03*
X007410Y015945D03*
X008410Y014945D03*
Y015945D03*
X009410Y014945D03*
Y015945D03*
X010410Y014945D03*
Y015945D03*
X000589Y013398D03*
X001589D03*
X002589D03*
G54D24*
X005150Y015945D03*
X000589Y001950D03*
X007410Y014945D03*
X-000411Y013398D03*
G54D25*
X000000Y000000D03*
X021000D03*
Y015500D03*
X000000D03*
G54D26*
X003305Y000318D03*
X007559D03*
X013370Y000750D03*
X011860D03*
X016390D03*
X014880D03*
X010350D03*
X017900D03*
X010150Y009950D03*
X017450Y004954D03*
M02*