%FSDAX24Y24*%
%MOIN*%
%SFA1B1*%

%IPPOS*%
%ADD43R,0.067100X0.067100*%
%ADD44C,0.067100*%
%ADD45R,0.067100X0.067100*%
%ADD46C,0.204900*%
%ADD47C,0.058000*%
%LN7april_pcb-1*%
%LPD*%
G54D43*
X020294Y002400D03*
X-000411Y012219D03*
X002589D03*
X017400Y007400D03*
Y011650D03*
G54D44*
X019294Y002400D03*
X020294Y003400D03*
X019294D03*
X020294Y004400D03*
X019294D03*
X020294Y005400D03*
X019294D03*
X020294Y006400D03*
X019294D03*
X020294Y007400D03*
X019294D03*
X-000411Y005219D03*
Y006219D03*
Y007219D03*
Y008219D03*
Y009219D03*
Y010219D03*
Y011219D03*
X002589Y005219D03*
Y006219D03*
Y007219D03*
Y008219D03*
Y009219D03*
Y010219D03*
Y011219D03*
X016400Y009400D03*
X017400D03*
X016400Y008400D03*
X017400D03*
X016400Y007400D03*
X003150Y014945D03*
Y015945D03*
X004150Y014945D03*
Y015945D03*
X005150Y014945D03*
X016400Y011650D03*
X017400Y012650D03*
X016400D03*
X017400Y013650D03*
X016400D03*
X017400Y014650D03*
X016400D03*
X-000411Y001950D03*
X007410Y015945D03*
X008410Y014945D03*
Y015945D03*
X009410Y014945D03*
Y015945D03*
X010410Y014945D03*
Y015945D03*
X000589Y013398D03*
X001589D03*
X002589D03*
G54D45*
X005150Y015945D03*
X000589Y001950D03*
X007410Y014945D03*
X-000411Y013398D03*
G54D46*
X000000Y000000D03*
X021000D03*
Y015500D03*
X000000D03*
G54D47*
X003305Y000318D03*
X007559D03*
X013370Y000750D03*
X011860D03*
X016390D03*
X014880D03*
X010350D03*
X017900D03*
X010150Y009950D03*
X017450Y004954D03*
M02*