%FSDAX24Y24*%
%MOIN*%
%SFA1B1*%

%IPPOS*%
%ADD21C,0.010000*%
%ADD27C,0.009800*%
%ADD28C,0.023600*%
%ADD29C,0.007900*%
%ADD30C,0.008000*%
%ADD31C,0.005000*%
%LN7april_pcb-1*%
%LPD*%
G54D21*
X006512Y009600D02*
D01*
D01*
G75*
G03X004488I-1012J0D01*
G74*G01*
D01*
G75*
G03X006512I1012J0D01*
G74*G01*
X004900Y009950D02*
X005300D01*
X005750D02*
X006150D01*
X004900Y009350D02*
X006150D01*
X003489Y013279D02*
Y013879D01*
X003689Y013679*
X003889Y013879*
Y013279*
X004489Y013879D02*
X004089D01*
Y013279*
X004489*
X004089Y013579D02*
X004289D01*
X004689Y013879D02*
X005088D01*
X004889*
Y013279*
X005288D02*
Y013879D01*
X005588*
X005688Y013779*
Y013579*
X005588Y013479*
X005288*
X005488D02*
X005688Y013279D01*
X006188D02*
Y013879D01*
X005888Y013579*
X006288*
X006488Y013779D02*
X006588Y013879D01*
X006788*
X006888Y013779*
Y013679*
X006788Y013579*
X006888Y013479*
Y013379*
X006788Y013279*
X006588*
X006488Y013379*
Y013479*
X006588Y013579*
X006488Y013679*
Y013779*
X006588Y013579D02*
X006788D01*
X007088Y013279D02*
X007288D01*
X007188*
Y013879*
X007088Y013779*
X007588D02*
X007688Y013879D01*
X007888*
X007988Y013779*
Y013379*
X007888Y013279*
X007688*
X007588Y013379*
Y013779*
X003489Y012919D02*
X003889D01*
X003689*
Y012319*
X004489Y012919D02*
X004089D01*
Y012319*
X004489*
X004089Y012619D02*
X004289D01*
X004689Y012319D02*
Y012719D01*
X004889Y012919*
X005088Y012719*
Y012319*
Y012619*
X004689*
X005288Y012319D02*
Y012919D01*
X005488Y012719*
X005688Y012919*
Y012319*
X006488D02*
X006688D01*
X006588*
Y012919*
X006488Y012819*
X006988D02*
X007088Y012919D01*
X007288*
X007388Y012819*
Y012419*
X007288Y012319*
X007088*
X006988Y012419*
Y012819*
G54D27*
X019150Y009337D02*
D01*
D01*
G75*
G03X019052I-49J0D01*
G74*G01*
D01*
G75*
G03X019150I49J0D01*
G74*G01*
X020756D02*
D01*
D01*
G75*
G03X020658I-49J0D01*
G74*G01*
D01*
G75*
G03X020756I49J0D01*
G74*G01*
X017922Y004954D02*
D01*
D01*
G75*
G03X017824I-49J0D01*
G74*G01*
D01*
G75*
G03X017922I49J0D01*
G74*G01*
X013413D02*
D01*
D01*
G75*
G03X013315I-49J0D01*
G74*G01*
D01*
G75*
G03X013413I49J0D01*
G74*G01*
X012099Y012174D02*
D01*
D01*
G75*
G03X012001I-49J0D01*
G74*G01*
D01*
G75*
G03X012099I49J0D01*
G74*G01*
G54D28*
X011587Y011269D02*
D01*
D01*
G75*
G03X011351I-118J0D01*
G74*G01*
D01*
G75*
G03X011587I118J0D01*
G74*G01*
G54D29*
X021347Y002212D02*
X021505D01*
X021347Y002488D02*
X021505D01*
X021347Y003262D02*
X021505D01*
X021347Y003538D02*
X021505D01*
X021347Y004262D02*
X021505D01*
X021347Y004538D02*
X021505D01*
X021347Y005112D02*
X021505D01*
X021347Y005388D02*
X021505D01*
X021347Y006212D02*
X021505D01*
X021347Y006488D02*
X021505D01*
X021347Y007312D02*
X021505D01*
X021347Y007588D02*
X021505D01*
X000164Y003278D02*
X000479D01*
X000164Y002688D02*
X000479D01*
X014517Y006058D02*
Y006216D01*
X014241Y006058D02*
Y006216D01*
X001632Y000121D02*
Y002858D01*
Y000121D02*
X002734D01*
X003876D02*
X004978D01*
Y002858*
X002242Y003468D02*
X002734D01*
X001632Y002858D02*
X002242Y003468D01*
X004368D02*
X004978Y002858D01*
X003876Y003468D02*
X004368D01*
X005886Y000121D02*
Y002858D01*
Y000121D02*
X006988D01*
X008130D02*
X009232D01*
Y002858*
X006496Y003468D02*
X006988D01*
X005886Y002858D02*
X006496Y003468D01*
X008622D02*
X009232Y002858D01*
X008130Y003468D02*
X008622D01*
X015090Y006058D02*
Y006216D01*
X014814Y006058D02*
Y006216D01*
X020360Y009760D02*
Y010016D01*
X019218D02*
X020360D01*
X019218Y009760D02*
Y010016D01*
Y009760D02*
X020360D01*
X021966D02*
Y010016D01*
X020825D02*
X021966D01*
X020825Y009760D02*
Y010016D01*
Y009760D02*
X021966D01*
X015662Y006058D02*
Y006216D01*
X015387Y006058D02*
Y006216D01*
X018517Y002789D02*
Y003340D01*
X014383D02*
X018517D01*
X014383Y002789D02*
Y003340D01*
X018794Y001900D02*
X020794D01*
X018794D02*
Y007900D01*
X020794*
Y001900D02*
Y007900D01*
X011660Y006058D02*
Y006216D01*
X011385Y006058D02*
Y006216D01*
X012233Y006058D02*
Y006216D01*
X011957Y006058D02*
Y006216D01*
X011088Y006058D02*
Y006216D01*
X010812Y006058D02*
Y006216D01*
X014007Y002789D02*
Y003340D01*
X009874D02*
X014007D01*
X009874Y002789D02*
Y003340D01*
X000089Y004719D02*
Y012719D01*
X-000911D02*
X000089D01*
X-000911Y004719D02*
Y012719D01*
Y004719D02*
X000089D01*
X003089D02*
Y012719D01*
X002089D02*
X003089D01*
X002089Y004719D02*
Y012719D01*
Y004719D02*
X003089D01*
X006313Y005221D02*
Y005379D01*
X006038Y005221D02*
Y005379D01*
X017900Y007983D02*
Y009900D01*
Y006900D02*
Y009900D01*
X015900Y006900D02*
Y009900D01*
Y006900D02*
X017900D01*
X015900Y009900D02*
X017900D01*
X005465Y005221D02*
Y005379D01*
X005741Y005221D02*
Y005379D01*
X004458Y005221D02*
Y005379D01*
X004182Y005221D02*
Y005379D01*
X000164Y004166D02*
X000479D01*
X000164Y003575D02*
X000479D01*
X002650Y016445D02*
X004567D01*
X002650D02*
X005650D01*
X002650Y014445D02*
X005650D01*
Y016445*
X002650Y014445D02*
Y016445D01*
X015900Y015150D02*
X017900D01*
X015900Y011150D02*
X017900D01*
X015900D02*
Y015150D01*
X017900Y011150D02*
Y015150D01*
X018138Y009026D02*
Y009183D01*
X018413Y009026D02*
Y009183D01*
X-000911Y001450D02*
X001089D01*
Y002450*
X-000911D02*
X001089D01*
X-000911Y001450D02*
Y002450D01*
X010910Y014445D02*
Y016445D01*
X006910Y014445D02*
Y016445D01*
X010910*
X006910Y014445D02*
X010910D01*
X018853Y014462D02*
X019010D01*
X018853Y014738D02*
X019010D01*
X013498Y014980D02*
X013655D01*
X013498Y015255D02*
X013655D01*
X014838Y014980D02*
X014996D01*
X014838Y015255D02*
X014996D01*
X007321Y005221D02*
Y005379D01*
X007596Y005221D02*
Y005379D01*
X018853Y014165D02*
X019010D01*
X018853Y013890D02*
X019010D01*
X018853Y013317D02*
X019010D01*
X018853Y013593D02*
X019010D01*
X008437Y011663D02*
X011863D01*
X008437Y008237D02*
X011863D01*
Y011663*
X008437Y008237D02*
Y011663D01*
X003089Y012898D02*
Y013898D01*
X-000911Y012898D02*
X003089D01*
X-000911Y013898D02*
X003089D01*
X-000911Y012898D02*
Y013898D01*
G54D30*
X019494Y001733D02*
Y001400D01*
X019161Y001733*
X019078*
X018994Y001650*
Y001483*
X019078Y001400*
X020494D02*
Y001567D01*
Y001483*
X019994*
X020078Y001400*
X020494Y008200D02*
Y008367D01*
Y008283*
X019994*
X020078Y008200*
X020494Y008600D02*
Y008767D01*
Y008683*
X019994*
X020078Y008600*
X019494Y008200D02*
Y008367D01*
Y008283*
X018994*
X019078Y008200*
X019494Y008950D02*
Y008617D01*
X019161Y008950*
X019078*
X018994Y008866*
Y008700*
X019078Y008617*
X017600Y006600D02*
Y006767D01*
Y006683*
X017100*
X017183Y006600*
X016600Y006733D02*
Y006400D01*
X016267Y006733*
X016183*
X016100Y006650*
Y006483*
X016183Y006400*
X017100Y010333D02*
Y010000D01*
X017350*
X017267Y010167*
Y010250*
X017350Y010333*
X017517*
X017600Y010250*
Y010083*
X017517Y010000*
X016100Y010333D02*
X016183Y010167D01*
X016350Y010000*
X016517*
X016600Y010083*
Y010250*
X016517Y010333*
X016433*
X016350Y010250*
Y010000*
X005950Y016145D02*
X005783D01*
X005867*
Y015645*
X005950Y015728*
X005817Y015145D02*
X006150D01*
X005817Y014812*
Y014728*
X005900Y014645*
X006067*
X006150Y014728*
X002217Y015645D02*
X002550D01*
Y015895*
X002383Y015812*
X002300*
X002217Y015895*
Y016062*
X002300Y016145*
X002467*
X002550Y016062*
X002217Y014645D02*
X002383Y014728D01*
X002550Y014895*
Y015062*
X002467Y015145*
X002300*
X002217Y015062*
Y014978*
X002300Y014895*
X002550*
X016183Y015250D02*
X016100Y015333D01*
Y015500*
X016183Y015583*
X016267*
X016350Y015500*
X016433Y015583*
X016517*
X016600Y015500*
Y015333*
X016517Y015250*
X016433*
X016350Y015333*
X016267Y015250*
X016183*
X016350Y015333D02*
Y015500D01*
X017100Y015250D02*
Y015583D01*
X017183*
X017517Y015250*
X017600*
Y010850D02*
Y011017D01*
Y010933*
X017100*
X017183Y010850*
X016600Y010983D02*
Y010650D01*
X016267Y010983*
X016183*
X016100Y010900*
Y010733*
X016183Y010650*
X011010Y016161D02*
X011093Y016245D01*
X011260*
X011343Y016161*
Y016078*
X011260Y015995*
X011343Y015911*
Y015828*
X011260Y015745*
X011093*
X011010Y015828*
Y015911*
X011093Y015995*
X011010Y016078*
Y016161*
X011093Y015995D02*
X011260D01*
X011010Y015245D02*
X011343D01*
Y015161*
X011010Y014828*
Y014745*
X006610D02*
X006777D01*
X006693*
Y015245*
X006610Y015161*
X006743Y015745D02*
X006410D01*
X006743Y016078*
Y016161*
X006660Y016245*
X006493*
X006410Y016161*
G54D31*
X015070Y009510D02*
X015020Y009560D01*
X014920*
X014870Y009510*
Y009310*
X014920Y009260*
X015020*
X015070Y009310*
Y009410*
X014970*
X015170Y009260D02*
Y009560D01*
X015370Y009260*
Y009560*
X015470D02*
Y009260D01*
X015620*
X015670Y009310*
Y009510*
X015620Y009560*
X015470*
X014670Y008260D02*
Y008560D01*
X014770Y008460*
X014870Y008560*
Y008260*
X015120Y008560D02*
X015020D01*
X014970Y008510*
Y008310*
X015020Y008260*
X015120*
X015170Y008310*
Y008510*
X015120Y008560*
X015470Y008510D02*
X015420Y008560D01*
X015320*
X015270Y008510*
Y008460*
X015320Y008410*
X015420*
X015470Y008360*
Y008310*
X015420Y008260*
X015320*
X015270Y008310*
X015570Y008560D02*
X015670D01*
X015620*
Y008260*
X015570*
X015670*
X014870Y007560D02*
Y007360D01*
X014970Y007260*
X015070Y007360*
Y007560*
X015370Y007510D02*
X015320Y007560D01*
X015220*
X015170Y007510*
Y007310*
X015220Y007260*
X015320*
X015370Y007310*
X015670Y007510D02*
X015620Y007560D01*
X015520*
X015470Y007510*
Y007310*
X015520Y007260*
X015620*
X015670Y007310*
X013039Y005969D02*
X013139D01*
X013089*
Y006269*
X013039Y006219*
X013289Y005969D02*
Y006269D01*
X013439*
X013489Y006219*
Y006119*
X013439Y006069*
X013289*
X013389D02*
X013489Y005969D01*
X004355Y005960D02*
Y006260D01*
X004455Y006160*
X004555Y006260*
Y005960*
X004655Y006260D02*
X004755D01*
X004705*
Y005960*
X004655*
X004755*
X005105Y006210D02*
X005055Y006260D01*
X004955*
X004905Y006210*
Y006160*
X004955Y006110*
X005055*
X005105Y006060*
Y006010*
X005055Y005960*
X004955*
X004905Y006010*
X005355Y006260D02*
X005255D01*
X005205Y006210*
Y006010*
X005255Y005960*
X005355*
X005405Y006010*
Y006210*
X005355Y006260*
X006255Y005910D02*
Y006210D01*
X006355Y006110*
X006455Y006210*
Y005910*
X006555Y006210D02*
X006655D01*
X006605*
Y005910*
X006555*
X006655*
X007005Y006160D02*
X006955Y006210D01*
X006855*
X006805Y006160*
Y006110*
X006855Y006060*
X006955*
X007005Y006010*
Y005960*
X006955Y005910*
X006855*
X006805Y005960*
X007255Y006210D02*
X007155D01*
X007105Y006160*
Y005960*
X007155Y005910*
X007255*
X007305Y005960*
Y006160*
X007255Y006210*
X-001250Y002950D02*
X-001300Y003000D01*
X-001400*
X-001450Y002950*
Y002750*
X-001400Y002700*
X-001300*
X-001250Y002750*
Y002850*
X-001350*
X-001150Y002700D02*
Y003000D01*
X-000950Y002700*
Y003000*
X-000850D02*
Y002700D01*
X-000700*
X-000650Y002750*
Y002950*
X-000700Y003000*
X-000850*
X-001461Y012070D02*
X-001361D01*
X-001411*
Y012369*
X-001461Y012319*
Y005319D02*
X-001411Y005369D01*
X-001311*
X-001261Y005319*
Y005269*
X-001311Y005219*
X-001261Y005170*
Y005120*
X-001311Y005070*
X-001411*
X-001461Y005120*
Y005170*
X-001411Y005219*
X-001461Y005269*
Y005319*
X-001411Y005219D02*
X-001311D01*
Y009070D02*
Y009369D01*
X-001461Y009219*
X-001261*
X-000661Y014319D02*
X-000711Y014369D01*
X-000811*
X-000861Y014319*
Y014269*
X-000811Y014219*
X-000711*
X-000661Y014169*
Y014119*
X-000711Y014069*
X-000811*
X-000861Y014119*
X-000561Y014069D02*
X-000461D01*
X-000511*
Y014369*
X-000561Y014319*
X002950Y016910D02*
X002900Y016960D01*
X002800*
X002750Y016910*
Y016710*
X002800Y016660*
X002900*
X002950Y016710*
Y016810*
X002850*
X003050Y016660D02*
Y016960D01*
X003250Y016660*
Y016960*
X003350D02*
Y016660D01*
X003500*
X003550Y016710*
Y016910*
X003500Y016960*
X003350*
X003750D02*
Y016760D01*
X003850Y016660*
X003950Y016760*
Y016960*
X004250Y016910D02*
X004200Y016960D01*
X004100*
X004050Y016910*
Y016710*
X004100Y016660*
X004200*
X004250Y016710*
X004550Y016910D02*
X004500Y016960D01*
X004400*
X004350Y016910*
Y016710*
X004400Y016660*
X004500*
X004550Y016710*
X004750Y016660D02*
Y016960D01*
X004900*
X004950Y016910*
Y016810*
X004900Y016760*
X004750*
X005050Y016960D02*
Y016660D01*
X005150Y016760*
X005250Y016660*
Y016960*
X005350Y016660D02*
Y016960D01*
X005450Y016860*
X005550Y016960*
Y016660*
X007010Y016960D02*
Y016760D01*
X007110Y016660*
X007210Y016760*
Y016960*
X007510Y016910D02*
X007460Y016960D01*
X007360*
X007310Y016910*
Y016710*
X007360Y016660*
X007460*
X007510Y016710*
X007810Y016910D02*
X007760Y016960D01*
X007660*
X007610Y016910*
Y016710*
X007660Y016660*
X007760*
X007810Y016710*
X008010Y016660D02*
Y016960D01*
X008160*
X008210Y016910*
Y016810*
X008160Y016760*
X008010*
X008310Y016960D02*
Y016660D01*
X008410Y016760*
X008510Y016660*
Y016960*
X008610Y016660D02*
Y016960D01*
X008710Y016860*
X008810Y016960*
Y016660*
X009160Y016960D02*
Y016660D01*
X009310*
X009360Y016710*
Y016910*
X009310Y016960*
X009160*
X009660Y016910D02*
X009610Y016960D01*
X009510*
X009460Y016910*
Y016710*
X009510Y016660*
X009610*
X009660Y016710*
X010210Y016910D02*
X010160Y016960D01*
X010060*
X010010Y016910*
Y016710*
X010060Y016660*
X010160*
X010210Y016710*
Y016810*
X010110*
X010310Y016660D02*
Y016960D01*
X010510Y016660*
Y016960*
X010610D02*
Y016660D01*
X010760*
X010810Y016710*
Y016910*
X010760Y016960*
X010610*
X013339Y016419D02*
X013539D01*
X013439*
Y016119*
X013639Y016419D02*
X013839Y016119D01*
Y016419D02*
X013639Y016119D01*
X014639D02*
Y016419D01*
X014789*
X014839Y016369*
Y016269*
X014789Y016219*
X014639*
X014739D02*
X014839Y016119D01*
X014939Y016419D02*
X015139Y016119D01*
Y016419D02*
X014939Y016119D01*
X018139Y015010D02*
Y015310D01*
X018289*
X018339Y015260*
Y015160*
X018289Y015110*
X018139*
X018239D02*
X018339Y015010D01*
X018439Y015310D02*
X018639Y015010D01*
Y015310D02*
X018439Y015010D01*
X018339Y012750D02*
X018289Y012800D01*
X018189*
X018139Y012750*
Y012550*
X018189Y012500*
X018289*
X018339Y012550*
Y012650*
X018239*
X018439Y012500D02*
Y012800D01*
X018639Y012500*
Y012800*
X018739D02*
Y012500D01*
X018889*
X018939Y012550*
Y012750*
X018889Y012800*
X018739*
X018139Y011800D02*
Y011600D01*
X018239Y011500*
X018339Y011600*
Y011800*
X018639Y011750D02*
X018589Y011800D01*
X018489*
X018439Y011750*
Y011550*
X018489Y011500*
X018589*
X018639Y011550*
X018939Y011750D02*
X018889Y011800D01*
X018789*
X018739Y011750*
Y011550*
X018789Y011500*
X018889*
X018939Y011550*
X-001261Y008369D02*
X-001461D01*
Y008219*
X-001361Y008269*
X-001311*
X-001261Y008219*
Y008120*
X-001311Y008070*
X-001411*
X-001461Y008120*
X018239Y006069D02*
X018289Y006119D01*
X018389*
X018439Y006069*
Y005869*
X018389Y005819*
X018289*
X018239Y005869*
Y006069*
M02*