%FSDAX24Y24*%
%MOIN*%
%SFA1B1*%

%IPPOS*%
%ADD17C,0.007900*%
%ADD18C,0.008000*%
%LNbreakout_layout_b-1*%
%LPD*%
G54D17*
X032529Y035250D02*
X033529D01*
Y031250D02*
Y035250D01*
X032529Y031250D02*
Y035250D01*
Y031250D02*
X033529D01*
X032903Y025471D02*
X033060D01*
X032903Y025196D02*
X033060D01*
X034186Y030908D02*
X034343D01*
X034186Y030632D02*
X034343D01*
X034186Y030059D02*
X034343D01*
X034186Y030335D02*
X034343D01*
X032588Y030405D02*
Y030562D01*
X032863Y030405D02*
Y030562D01*
X034210Y031480D02*
X034367D01*
X034210Y031205D02*
X034367D01*
X034210Y035191D02*
X034367D01*
X034210Y034915D02*
X034367D01*
X034210Y032922D02*
X034367D01*
X034210Y033198D02*
X034367D01*
X034210Y031777D02*
X034367D01*
X034210Y032053D02*
X034367D01*
X034210Y032625D02*
X034367D01*
X034210Y032350D02*
X034367D01*
X031350Y035250D02*
X032350D01*
Y025250D02*
Y035250D01*
X031350Y025250D02*
X032350D01*
X031350D02*
Y026000D01*
Y035250*
X034529Y027333D02*
Y029250D01*
Y026250D02*
Y029250D01*
X032529Y026250D02*
Y029250D01*
Y026250D02*
X034529D01*
X032529Y029250D02*
X034529D01*
G54D18*
X034229Y025950D02*
Y026117D01*
Y026033*
X033729*
X033812Y025950*
X033229Y026083D02*
Y025750D01*
X032896Y026083*
X032812*
X032729Y026000*
Y025833*
X032812Y025750*
X033729Y029683D02*
Y029350D01*
X033979*
X033896Y029517*
Y029600*
X033979Y029683*
X034146*
X034229Y029600*
Y029433*
X034146Y029350*
X032729Y029683D02*
X032812Y029517D01*
X032979Y029350*
X033146*
X033229Y029433*
Y029600*
X033146Y029683*
X033062*
X032979Y029600*
Y029350*
M02*