%FSTAX24Y24*%
%MOIN*%
%SFA1B1*%

%IPPOS*%
%ADD45C,0.002000*%
%LNpcb1-1*%
%LPD*%
G54D45*
X003383Y013071D02*
X003683D01*
X003533Y012921D02*
Y013221D01*
X002212Y013071D02*
X002512D01*
X002362Y012921D02*
Y013221D01*
X008315Y013189D02*
X008615D01*
X008465Y013039D02*
Y013339D01*
X00733Y012205D02*
X00763D01*
X00748Y012055D02*
Y012355D01*
X00733Y013189D02*
X00763D01*
X00748Y013039D02*
Y013339D01*
X004209Y014205D02*
X004563D01*
X004386Y014028D02*
Y014382D01*
X003209Y014205D02*
X003563D01*
X003386Y014028D02*
Y014382D01*
X002209Y014205D02*
X002563D01*
X002386Y014028D02*
Y014382D01*
X001209Y014205D02*
X001563D01*
X001386Y014028D02*
Y014382D01*
X005709Y002205D02*
X006063D01*
X005886Y002028D02*
Y002382D01*
X005709Y001205D02*
X006063D01*
X005886Y001028D02*
Y001382D01*
X004709Y002205D02*
X005063D01*
X004886Y002028D02*
Y002382D01*
X004709Y001205D02*
X005063D01*
X004886Y001028D02*
Y001382D01*
X003709Y002205D02*
X004063D01*
X003886Y002028D02*
Y002382D01*
X003709Y001205D02*
X004063D01*
X003886Y001028D02*
Y001382D01*
X001209Y012205D02*
X001563D01*
X001386Y012028D02*
Y012382D01*
X001209Y011205D02*
X001563D01*
X001386Y011028D02*
Y011382D01*
X001209Y010205D02*
X001563D01*
X001386Y010028D02*
Y010382D01*
X001209Y009205D02*
X001563D01*
X001386Y009028D02*
Y009382D01*
X001209Y008205D02*
X001563D01*
X001386Y008028D02*
Y008382D01*
X001209Y007205D02*
X001563D01*
X001386Y007028D02*
Y007382D01*
X001209Y006205D02*
X001563D01*
X001386Y006028D02*
Y006382D01*
X001209Y005205D02*
X001563D01*
X001386Y005028D02*
Y005382D01*
X001209Y004205D02*
X001563D01*
X001386Y004028D02*
Y004382D01*
X001209Y003205D02*
X001563D01*
X001386Y003028D02*
Y003382D01*
X001209Y002205D02*
X001563D01*
X001386Y002028D02*
Y002382D01*
X001209Y001205D02*
X001563D01*
X001386Y001028D02*
Y001382D01*
X008209Y001205D02*
X008563D01*
X008386Y001028D02*
Y001382D01*
X008209Y002205D02*
X008563D01*
X008386Y002028D02*
Y002382D01*
X008209Y003205D02*
X008563D01*
X008386Y003028D02*
Y003382D01*
X008209Y004205D02*
X008563D01*
X008386Y004028D02*
Y004382D01*
X008209Y005205D02*
X008563D01*
X008386Y005028D02*
Y005382D01*
X008209Y006205D02*
X008563D01*
X008386Y006028D02*
Y006382D01*
X008209Y007205D02*
X008563D01*
X008386Y007028D02*
Y007382D01*
X008209Y008205D02*
X008563D01*
X008386Y008028D02*
Y008382D01*
X008209Y009205D02*
X008563D01*
X008386Y009028D02*
Y009382D01*
X008209Y010205D02*
X008563D01*
X008386Y010028D02*
Y010382D01*
X008209Y011205D02*
X008563D01*
X008386Y011028D02*
Y011382D01*
X008209Y012205D02*
X008563D01*
X008386Y012028D02*
Y012382D01*
X007209Y014205D02*
X007563D01*
X007386Y014028D02*
Y014382D01*
X008209Y014205D02*
X008563D01*
X008386Y014028D02*
Y014382D01*
X002212Y011998D02*
X002492D01*
X002352Y011858D02*
Y012138D01*
X003393Y011998D02*
X003673D01*
X003533Y011858D02*
Y012138D01*
X004466Y009724D02*
X004746D01*
X004606Y009584D02*
Y009864D01*
X004466Y009094D02*
X004746D01*
X004606Y008954D02*
Y009234D01*
X004466Y008465D02*
X004746D01*
X004606Y008325D02*
Y008605D01*
X005411Y009685D02*
X005691D01*
X005551Y009545D02*
Y009825D01*
X003988Y022913D02*
X004988D01*
X004488Y022413D02*
Y023413D01*
X001532Y020039D02*
X001812D01*
X001672Y019899D02*
Y020179D01*
M02*