%FSTAX24Y24*%
%MOIN*%
%SFA1B1*%

%IPPOS*%
%ADD10R,0.094500X0.041300*%
%ADD11R,0.350400X0.419300*%
%ADD12R,0.090600X0.179100*%
%ADD13R,0.027600X0.035400*%
%ADD14R,0.037400X0.039400*%
%ADD15R,0.031500X0.035400*%
%ADD16R,0.070900X0.043300*%
%ADD17O,0.021700X0.053200*%
%ADD18O,0.053200X0.021700*%
%LNpcb1-1*%
%LPD*%
G54D10*
X008504Y02172D03*
Y02372D03*
G54D11*
X004429Y02272D03*
G54D12*
X002766Y016153D03*
Y019106D03*
X007019Y016153D03*
Y019106D03*
G54D13*
X001672Y020751D03*
X002262D03*
X005098Y005189D03*
X004508D03*
G54D14*
X001524Y021654D03*
X002154D03*
G54D15*
X002242Y022756D03*
X001691D03*
X002242Y023701D03*
X001691D03*
G54D16*
X003701Y004587D03*
Y00313D03*
X006142Y004587D03*
Y00313D03*
G54D17*
X006496Y01061D03*
X006181D03*
X005866D03*
X005551D03*
X005236D03*
X004921D03*
X004606D03*
X004291D03*
Y007343D03*
X004606D03*
X004921D03*
X005236D03*
X005551D03*
X005866D03*
X006181D03*
X006496D03*
G54D18*
X00376Y010079D03*
Y009764D03*
Y009449D03*
Y009134D03*
Y008819D03*
Y008504D03*
Y008189D03*
Y007874D03*
X007028D03*
Y008189D03*
Y008504D03*
Y008819D03*
Y009134D03*
Y009449D03*
Y009764D03*
Y010079D03*
M02*