%FSTAX24Y24*%
%MOIN*%
%SFA1B1*%

%IPPOS*%
%ADD30R,0.102500X0.049300*%
%ADD31R,0.358400X0.427300*%
%ADD32R,0.098600X0.187100*%
%ADD33R,0.035600X0.043400*%
%ADD34R,0.045400X0.047400*%
%ADD35R,0.039500X0.043400*%
%ADD36R,0.078900X0.051300*%
%ADD37O,0.029700X0.061200*%
%ADD38O,0.061200X0.029700*%
%ADD39C,0.068000*%
%ADD40R,0.067100X0.067100*%
%ADD41C,0.067100*%
%ADD42R,0.067100X0.067100*%
%ADD43C,0.058000*%
%ADD44C,0.122000*%
%LNpcb1-1*%
%LPD*%
G54D30*
X008504Y02172D03*
Y02372D03*
G54D31*
X004429Y02272D03*
G54D32*
X002766Y016153D03*
Y019106D03*
X007019Y016153D03*
Y019106D03*
G54D33*
X001672Y020751D03*
X002262D03*
X005098Y005189D03*
X004508D03*
G54D34*
X001524Y021654D03*
X002154D03*
G54D35*
X002242Y022756D03*
X001691D03*
X002242Y023701D03*
X001691D03*
G54D36*
X003701Y004587D03*
Y00313D03*
X006142Y004587D03*
Y00313D03*
G54D37*
X006496Y01061D03*
X006181D03*
X005866D03*
X005551D03*
X005236D03*
X004921D03*
X004606D03*
X004291D03*
Y007343D03*
X004606D03*
X004921D03*
X005236D03*
X005551D03*
X005866D03*
X006181D03*
X006496D03*
G54D38*
X00376Y010079D03*
Y009764D03*
Y009449D03*
Y009134D03*
Y008819D03*
Y008504D03*
Y008189D03*
Y007874D03*
X007028D03*
Y008189D03*
Y008504D03*
Y008819D03*
Y009134D03*
Y009449D03*
Y009764D03*
Y010079D03*
G54D39*
X003533Y013071D03*
X002362D03*
X008465Y013189D03*
X00748Y012205D03*
Y013189D03*
G54D40*
X004386Y014205D03*
X003886Y001205D03*
X008386Y014205D03*
G54D41*
X003386Y014205D03*
X002386D03*
X001386D03*
X005886Y002205D03*
Y001205D03*
X004886Y002205D03*
Y001205D03*
X003886Y002205D03*
X001386Y011205D03*
Y010205D03*
Y009205D03*
Y008205D03*
Y007205D03*
Y006205D03*
Y005205D03*
Y004205D03*
Y003205D03*
Y002205D03*
Y001205D03*
X008386Y002205D03*
Y003205D03*
Y004205D03*
Y005205D03*
Y006205D03*
Y007205D03*
Y008205D03*
Y009205D03*
Y010205D03*
Y011205D03*
Y012205D03*
X007386Y014205D03*
G54D42*
X001386Y012205D03*
X008386Y001205D03*
G54D43*
X002352Y011998D03*
X003533D03*
X004606Y009724D03*
Y009094D03*
Y008465D03*
X005551Y009685D03*
X001672Y020039D03*
G54D44*
X004488Y022913D03*
M02*