G04 Layer_Physical_Order=2*
G04 Layer_Color=16711680*
%FSLAX24Y24*%
%MOIN*%
G70*
G01*
G75*
%ADD22C,0.0200*%
%ADD23C,0.0591*%
%ADD24R,0.0591X0.0591*%
%ADD25R,0.0591X0.0591*%
%ADD26C,0.0500*%
%ADD27C,0.1140*%
%ADD28C,0.1969*%
G36*
X23859Y19518D02*
X24092Y19472D01*
X24318Y19396D01*
X24531Y19290D01*
X24728Y19158D01*
X24907Y19002D01*
X25064Y18823D01*
X25196Y18625D01*
X25301Y18412D01*
X25378Y18187D01*
X25424Y17954D01*
X25439Y17723D01*
X25438Y17717D01*
Y0D01*
X25439Y-7D01*
X25424Y-237D01*
X25378Y-470D01*
X25301Y-695D01*
X25196Y-909D01*
X25064Y-1106D01*
X24907Y-1285D01*
X24728Y-1442D01*
X24531Y-1574D01*
X24318Y-1679D01*
X24092Y-1755D01*
X23859Y-1802D01*
X23629Y-1817D01*
X23622Y-1816D01*
X0D01*
X-7Y-1817D01*
X-237Y-1802D01*
X-470Y-1755D01*
X-695Y-1679D01*
X-909Y-1574D01*
X-1106Y-1442D01*
X-1285Y-1285D01*
X-1442Y-1106D01*
X-1574Y-909D01*
X-1679Y-695D01*
X-1755Y-470D01*
X-1802Y-237D01*
X-1817Y-7D01*
X-1816Y0D01*
Y17717D01*
X-1817Y17723D01*
X-1802Y17954D01*
X-1755Y18187D01*
X-1679Y18412D01*
X-1574Y18625D01*
X-1442Y18823D01*
X-1285Y19002D01*
X-1106Y19158D01*
X-909Y19290D01*
X-695Y19396D01*
X-470Y19472D01*
X-237Y19518D01*
X-7Y19533D01*
X0Y19532D01*
X23622D01*
X23629Y19533D01*
X23859Y19518D01*
D02*
G37*
%LPC*%
G36*
X11992Y7262D02*
X11901Y7250D01*
X11816Y7215D01*
X11743Y7159D01*
X11686Y7086D01*
X11651Y7001D01*
X11639Y6909D01*
X11651Y6818D01*
X11686Y6733D01*
X11743Y6660D01*
X11788Y6625D01*
Y5814D01*
X11746Y5781D01*
X11690Y5708D01*
X11654Y5623D01*
X11642Y5531D01*
X11654Y5440D01*
X11690Y5355D01*
X11746Y5282D01*
X11819Y5226D01*
X11904Y5191D01*
X11995Y5178D01*
X12087Y5191D01*
X12172Y5226D01*
X12245Y5282D01*
X12301Y5355D01*
X12336Y5440D01*
X12348Y5531D01*
X12336Y5623D01*
X12301Y5708D01*
X12245Y5781D01*
X12196Y5819D01*
Y6625D01*
X12242Y6660D01*
X12298Y6733D01*
X12333Y6818D01*
X12345Y6909D01*
X12333Y7001D01*
X12298Y7086D01*
X12242Y7159D01*
X12169Y7215D01*
X12083Y7250D01*
X11992Y7262D01*
D02*
G37*
G36*
X22197Y5265D02*
X21900D01*
Y4969D01*
X21942Y4974D01*
X22027Y5009D01*
X22100Y5065D01*
X22156Y5138D01*
X22191Y5224D01*
X22197Y5265D01*
D02*
G37*
G36*
X-50Y5544D02*
X-392D01*
X-385Y5491D01*
X-345Y5395D01*
X-282Y5313D01*
X-199Y5249D01*
X-103Y5209D01*
X-50Y5202D01*
Y5544D01*
D02*
G37*
G36*
X17470Y5661D02*
X17428Y5656D01*
X17343Y5621D01*
X17270Y5565D01*
X17214Y5491D01*
X17179Y5406D01*
X17173Y5365D01*
X17470D01*
Y5661D01*
D02*
G37*
G36*
X392Y5544D02*
X50D01*
Y5202D01*
X103Y5209D01*
X199Y5249D01*
X282Y5313D01*
X345Y5395D01*
X385Y5491D01*
X392Y5544D01*
D02*
G37*
G36*
X13042Y3621D02*
Y3003D01*
X13660D01*
X13652Y3084D01*
X13614Y3210D01*
X13552Y3327D01*
X13468Y3429D01*
X13366Y3513D01*
X13250Y3575D01*
X13123Y3613D01*
X13042Y3621D01*
D02*
G37*
G36*
X12942D02*
X12861Y3613D01*
X12734Y3575D01*
X12618Y3513D01*
X12516Y3429D01*
X12432Y3327D01*
X12370Y3210D01*
X12332Y3084D01*
X12324Y3003D01*
X12942D01*
Y3621D01*
D02*
G37*
G36*
X-50Y3640D02*
X-103Y3633D01*
X-199Y3593D01*
X-282Y3530D01*
X-345Y3447D01*
X-385Y3351D01*
X-392Y3298D01*
X-50D01*
Y3640D01*
D02*
G37*
G36*
X17470Y5265D02*
X17173D01*
X17179Y5224D01*
X17214Y5138D01*
X17270Y5065D01*
X17343Y5009D01*
X17428Y4974D01*
X17470Y4969D01*
Y5265D01*
D02*
G37*
G36*
X50Y3640D02*
Y3298D01*
X392D01*
X385Y3351D01*
X345Y3447D01*
X282Y3530D01*
X199Y3593D01*
X103Y3633D01*
X50Y3640D01*
D02*
G37*
G36*
X21900Y5661D02*
Y5365D01*
X22197D01*
X22191Y5406D01*
X22156Y5491D01*
X22100Y5565D01*
X22027Y5621D01*
X21942Y5656D01*
X21900Y5661D01*
D02*
G37*
G36*
Y7774D02*
Y7432D01*
X22243D01*
X22236Y7485D01*
X22196Y7581D01*
X22132Y7664D01*
X22050Y7727D01*
X21954Y7767D01*
X21900Y7774D01*
D02*
G37*
G36*
X21800D02*
X21747Y7767D01*
X21651Y7727D01*
X21568Y7664D01*
X21505Y7581D01*
X21465Y7485D01*
X21458Y7432D01*
X21800D01*
Y7774D01*
D02*
G37*
G36*
X14365Y9310D02*
X14274Y9298D01*
X14189Y9262D01*
X14116Y9206D01*
X14059Y9133D01*
X14024Y9048D01*
X14012Y8957D01*
X14024Y8865D01*
X14032Y8848D01*
X13424Y8240D01*
X6311D01*
X6276Y8285D01*
X6203Y8342D01*
X6202Y8342D01*
X6212Y8392D01*
X9875D01*
X9953Y8407D01*
X10020Y8452D01*
X10173Y8605D01*
X10414D01*
X10449Y8559D01*
X10522Y8503D01*
X10607Y8468D01*
X10699Y8456D01*
X10790Y8468D01*
X10875Y8503D01*
X10948Y8559D01*
X11005Y8633D01*
X11040Y8718D01*
X11052Y8809D01*
X11040Y8900D01*
X11005Y8986D01*
X10948Y9059D01*
X10875Y9115D01*
X10790Y9150D01*
X10699Y9162D01*
X10607Y9150D01*
X10522Y9115D01*
X10449Y9059D01*
X10414Y9013D01*
X10089D01*
X10011Y8997D01*
X9944Y8953D01*
X9791Y8800D01*
X3393D01*
X3383Y8813D01*
X3310Y8869D01*
X3225Y8904D01*
X3134Y8916D01*
X3042Y8904D01*
X2957Y8869D01*
X2884Y8813D01*
X2828Y8740D01*
X2793Y8654D01*
X2781Y8563D01*
X2793Y8472D01*
X2828Y8386D01*
X2884Y8313D01*
X2957Y8257D01*
X3042Y8222D01*
X3134Y8210D01*
X3225Y8222D01*
X3310Y8257D01*
X3383Y8313D01*
X3440Y8386D01*
X3442Y8392D01*
X5841D01*
X5851Y8342D01*
X5850Y8342D01*
X5777Y8285D01*
X5721Y8212D01*
X5685Y8127D01*
X5673Y8036D01*
X5685Y7944D01*
X5721Y7859D01*
X5777Y7786D01*
X5850Y7730D01*
X5935Y7695D01*
X6026Y7683D01*
X6118Y7695D01*
X6203Y7730D01*
X6276Y7786D01*
X6311Y7832D01*
X13508D01*
X13586Y7847D01*
X13652Y7892D01*
X14365Y8604D01*
X14365Y8604D01*
X14457Y8616D01*
X14542Y8651D01*
X14615Y8707D01*
X14671Y8780D01*
X14706Y8865D01*
X14718Y8957D01*
X14706Y9048D01*
X14671Y9133D01*
X14615Y9206D01*
X14542Y9262D01*
X14457Y9298D01*
X14365Y9310D01*
D02*
G37*
G36*
X392Y8907D02*
X50D01*
Y8565D01*
X103Y8572D01*
X199Y8611D01*
X282Y8675D01*
X345Y8757D01*
X385Y8853D01*
X392Y8907D01*
D02*
G37*
G36*
X-50D02*
X-392D01*
X-385Y8853D01*
X-345Y8757D01*
X-282Y8675D01*
X-199Y8611D01*
X-103Y8572D01*
X-50Y8565D01*
Y8907D01*
D02*
G37*
G36*
Y5987D02*
X-103Y5980D01*
X-199Y5940D01*
X-282Y5876D01*
X-345Y5794D01*
X-385Y5698D01*
X-392Y5644D01*
X-50D01*
Y5987D01*
D02*
G37*
G36*
X21800Y5661D02*
X21759Y5656D01*
X21674Y5621D01*
X21601Y5565D01*
X21566Y5519D01*
X17804D01*
X17769Y5565D01*
X17696Y5621D01*
X17611Y5656D01*
X17570Y5661D01*
Y5315D01*
Y4969D01*
X17611Y4974D01*
X17696Y5009D01*
X17769Y5065D01*
X17804Y5111D01*
X21566D01*
X21601Y5065D01*
X21674Y5009D01*
X21759Y4974D01*
X21800Y4969D01*
Y5315D01*
Y5661D01*
D02*
G37*
G36*
X50Y5987D02*
Y5644D01*
X392D01*
X385Y5698D01*
X345Y5794D01*
X282Y5876D01*
X199Y5940D01*
X103Y5980D01*
X50Y5987D01*
D02*
G37*
G36*
X23246Y7777D02*
X22455D01*
Y7275D01*
X22271Y7091D01*
X22188D01*
X22163Y7141D01*
X22196Y7183D01*
X22236Y7279D01*
X22243Y7332D01*
X21850D01*
X21458D01*
X21465Y7279D01*
X21505Y7183D01*
X21535Y7144D01*
X21510Y7094D01*
X15147D01*
X15112Y7139D01*
X15039Y7195D01*
X14954Y7231D01*
X14862Y7243D01*
X14771Y7231D01*
X14686Y7195D01*
X14613Y7139D01*
X14556Y7066D01*
X14521Y6981D01*
X14509Y6890D01*
X14521Y6798D01*
X14556Y6713D01*
X14613Y6640D01*
X14686Y6584D01*
X14771Y6549D01*
X14862Y6537D01*
X14954Y6549D01*
X15039Y6584D01*
X15112Y6640D01*
X15147Y6686D01*
X21629D01*
X21645Y6683D01*
X22355D01*
X22433Y6698D01*
X22499Y6742D01*
X22744Y6987D01*
X23246D01*
Y7777D01*
D02*
G37*
G36*
X395Y6990D02*
X-395D01*
Y6199D01*
X395D01*
Y6990D01*
D02*
G37*
G36*
X392Y3198D02*
X50D01*
Y2856D01*
X103Y2863D01*
X199Y2903D01*
X282Y2966D01*
X345Y3049D01*
X385Y3145D01*
X392Y3198D01*
D02*
G37*
G36*
X4068Y1426D02*
X3726D01*
X3733Y1373D01*
X3773Y1277D01*
X3836Y1194D01*
X3919Y1131D01*
X4015Y1091D01*
X4068Y1084D01*
Y1426D01*
D02*
G37*
G36*
X1509D02*
X1167D01*
X1174Y1373D01*
X1214Y1277D01*
X1277Y1194D01*
X1360Y1131D01*
X1456Y1091D01*
X1509Y1084D01*
Y1426D01*
D02*
G37*
G36*
X6627D02*
X6285D01*
X6292Y1373D01*
X6332Y1277D01*
X6395Y1194D01*
X6478Y1131D01*
X6574Y1091D01*
X6627Y1084D01*
Y1426D01*
D02*
G37*
G36*
X4510D02*
X4168D01*
Y1084D01*
X4221Y1091D01*
X4317Y1131D01*
X4400Y1194D01*
X4463Y1277D01*
X4503Y1373D01*
X4510Y1426D01*
D02*
G37*
G36*
X1951D02*
X1609D01*
Y1084D01*
X1662Y1091D01*
X1758Y1131D01*
X1841Y1194D01*
X1904Y1277D01*
X1944Y1373D01*
X1951Y1426D01*
D02*
G37*
G36*
X23622Y1088D02*
X23452Y1074D01*
X23286Y1034D01*
X23128Y969D01*
X22983Y880D01*
X22853Y769D01*
X22742Y639D01*
X22653Y494D01*
X22588Y336D01*
X22548Y170D01*
X22534Y0D01*
X22548Y-170D01*
X22588Y-336D01*
X22653Y-494D01*
X22742Y-639D01*
X22853Y-769D01*
X22983Y-880D01*
X23128Y-969D01*
X23286Y-1034D01*
X23452Y-1074D01*
X23622Y-1088D01*
X23792Y-1074D01*
X23958Y-1034D01*
X24116Y-969D01*
X24261Y-880D01*
X24391Y-769D01*
X24502Y-639D01*
X24591Y-494D01*
X24656Y-336D01*
X24696Y-170D01*
X24710Y0D01*
X24696Y170D01*
X24656Y336D01*
X24591Y494D01*
X24502Y639D01*
X24391Y769D01*
X24261Y880D01*
X24116Y969D01*
X23958Y1034D01*
X23792Y1074D01*
X23622Y1088D01*
D02*
G37*
G36*
X0D02*
X-170Y1074D01*
X-336Y1034D01*
X-494Y969D01*
X-639Y880D01*
X-769Y769D01*
X-880Y639D01*
X-969Y494D01*
X-1034Y336D01*
X-1074Y170D01*
X-1088Y0D01*
X-1074Y-170D01*
X-1034Y-336D01*
X-969Y-494D01*
X-880Y-639D01*
X-769Y-769D01*
X-639Y-880D01*
X-494Y-969D01*
X-336Y-1034D01*
X-170Y-1074D01*
X0Y-1088D01*
X170Y-1074D01*
X336Y-1034D01*
X494Y-969D01*
X639Y-880D01*
X769Y-769D01*
X880Y-639D01*
X969Y-494D01*
X1034Y-336D01*
X1074Y-170D01*
X1088Y0D01*
X1074Y170D01*
X1034Y336D01*
X969Y494D01*
X880Y639D01*
X769Y769D01*
X639Y880D01*
X494Y969D01*
X336Y1034D01*
X170Y1074D01*
X0Y1088D01*
D02*
G37*
G36*
X2954Y1872D02*
X2164D01*
Y1081D01*
X2954D01*
Y1872D01*
D02*
G37*
G36*
X8072D02*
X7282D01*
Y1081D01*
X8072D01*
Y1872D01*
D02*
G37*
G36*
X5513D02*
X4723D01*
Y1081D01*
X5513D01*
Y1872D01*
D02*
G37*
G36*
X7069Y1426D02*
X6727D01*
Y1084D01*
X6780Y1091D01*
X6877Y1131D01*
X6959Y1194D01*
X7022Y1277D01*
X7062Y1373D01*
X7069Y1426D01*
D02*
G37*
G36*
X395Y2643D02*
X-395D01*
Y1853D01*
X395D01*
Y2643D01*
D02*
G37*
G36*
X6727Y1868D02*
Y1526D01*
X7069D01*
X7062Y1580D01*
X7022Y1676D01*
X6959Y1758D01*
X6877Y1822D01*
X6780Y1861D01*
X6727Y1868D01*
D02*
G37*
G36*
X12942Y2903D02*
X12324D01*
X12332Y2821D01*
X12370Y2695D01*
X12432Y2579D01*
X12516Y2477D01*
X12618Y2393D01*
X12734Y2331D01*
X12861Y2292D01*
X12942Y2284D01*
Y2903D01*
D02*
G37*
G36*
X-50Y3198D02*
X-392D01*
X-385Y3145D01*
X-345Y3049D01*
X-282Y2966D01*
X-199Y2903D01*
X-103Y2863D01*
X-50Y2856D01*
Y3198D01*
D02*
G37*
G36*
X13660Y2903D02*
X13042D01*
Y2284D01*
X13123Y2292D01*
X13250Y2331D01*
X13366Y2393D01*
X13468Y2477D01*
X13552Y2579D01*
X13614Y2695D01*
X13652Y2821D01*
X13660Y2903D01*
D02*
G37*
G36*
X4068Y1868D02*
X4015Y1861D01*
X3919Y1822D01*
X3836Y1758D01*
X3773Y1676D01*
X3733Y1580D01*
X3726Y1526D01*
X4068D01*
Y1868D01*
D02*
G37*
G36*
X1509D02*
X1456Y1861D01*
X1360Y1822D01*
X1277Y1758D01*
X1214Y1676D01*
X1174Y1580D01*
X1167Y1526D01*
X1509D01*
Y1868D01*
D02*
G37*
G36*
X6627D02*
X6574Y1861D01*
X6478Y1822D01*
X6395Y1758D01*
X6332Y1676D01*
X6292Y1580D01*
X6285Y1526D01*
X6627D01*
Y1868D01*
D02*
G37*
G36*
X4168D02*
Y1526D01*
X4510D01*
X4503Y1580D01*
X4463Y1676D01*
X4400Y1758D01*
X4317Y1822D01*
X4221Y1861D01*
X4168Y1868D01*
D02*
G37*
G36*
X1609D02*
Y1526D01*
X1951D01*
X1944Y1580D01*
X1904Y1676D01*
X1841Y1758D01*
X1758Y1822D01*
X1662Y1861D01*
X1609Y1868D01*
D02*
G37*
G36*
X50Y13737D02*
Y13394D01*
X392D01*
X385Y13448D01*
X345Y13544D01*
X282Y13626D01*
X199Y13690D01*
X103Y13730D01*
X50Y13737D01*
D02*
G37*
G36*
X-50D02*
X-103Y13730D01*
X-199Y13690D01*
X-282Y13626D01*
X-345Y13544D01*
X-385Y13448D01*
X-392Y13394D01*
X-50D01*
Y13737D01*
D02*
G37*
G36*
X22850Y15749D02*
X22747Y15735D01*
X22651Y15696D01*
X22568Y15632D01*
X22505Y15550D01*
X22465Y15454D01*
X22452Y15350D01*
X22465Y15247D01*
X22505Y15151D01*
X22568Y15068D01*
X22651Y15005D01*
X22747Y14965D01*
X22850Y14952D01*
X22954Y14965D01*
X23050Y15005D01*
X23132Y15068D01*
X23196Y15151D01*
X23235Y15247D01*
X23249Y15350D01*
X23235Y15454D01*
X23196Y15550D01*
X23132Y15632D01*
X23050Y15696D01*
X22954Y15735D01*
X22850Y15749D01*
D02*
G37*
G36*
X-0Y14743D02*
X-103Y14730D01*
X-199Y14690D01*
X-282Y14626D01*
X-345Y14544D01*
X-385Y14448D01*
X-399Y14344D01*
X-385Y14241D01*
X-345Y14145D01*
X-282Y14063D01*
X-199Y13999D01*
X-103Y13959D01*
X-0Y13946D01*
X103Y13959D01*
X199Y13999D01*
X282Y14063D01*
X345Y14145D01*
X385Y14241D01*
X399Y14344D01*
X385Y14448D01*
X345Y14544D01*
X282Y14626D01*
X199Y14690D01*
X103Y14730D01*
X-0Y14743D01*
D02*
G37*
G36*
X1123Y13606D02*
Y13309D01*
X1419D01*
X1414Y13351D01*
X1379Y13436D01*
X1322Y13509D01*
X1249Y13565D01*
X1164Y13600D01*
X1123Y13606D01*
D02*
G37*
G36*
X-50Y13294D02*
X-392D01*
X-385Y13241D01*
X-345Y13145D01*
X-282Y13063D01*
X-199Y12999D01*
X-103Y12959D01*
X-50Y12952D01*
Y13294D01*
D02*
G37*
G36*
X1419Y13209D02*
X1123D01*
Y12913D01*
X1164Y12918D01*
X1249Y12953D01*
X1322Y13010D01*
X1379Y13083D01*
X1414Y13168D01*
X1419Y13209D01*
D02*
G37*
G36*
X1023Y13606D02*
X981Y13600D01*
X896Y13565D01*
X823Y13509D01*
X767Y13436D01*
X732Y13351D01*
X726Y13309D01*
X1023D01*
Y13606D01*
D02*
G37*
G36*
X392Y13294D02*
X50D01*
Y12952D01*
X103Y12959D01*
X199Y12999D01*
X282Y13063D01*
X345Y13145D01*
X385Y13241D01*
X392Y13294D01*
D02*
G37*
G36*
X23622Y18804D02*
X23452Y18791D01*
X23286Y18751D01*
X23128Y18686D01*
X22983Y18596D01*
X22853Y18486D01*
X22742Y18356D01*
X22653Y18210D01*
X22588Y18053D01*
X22548Y17887D01*
X22534Y17717D01*
X22548Y17546D01*
X22588Y17380D01*
X22653Y17223D01*
X22742Y17077D01*
X22853Y16947D01*
X22983Y16837D01*
X23128Y16747D01*
X23286Y16682D01*
X23452Y16642D01*
X23622Y16629D01*
X23792Y16642D01*
X23958Y16682D01*
X24116Y16747D01*
X24261Y16837D01*
X24391Y16947D01*
X24502Y17077D01*
X24591Y17223D01*
X24656Y17380D01*
X24696Y17546D01*
X24710Y17717D01*
X24696Y17887D01*
X24656Y18053D01*
X24591Y18210D01*
X24502Y18356D01*
X24391Y18486D01*
X24261Y18596D01*
X24116Y18686D01*
X23958Y18751D01*
X23792Y18791D01*
X23622Y18804D01*
D02*
G37*
G36*
X0D02*
X-170Y18791D01*
X-336Y18751D01*
X-494Y18686D01*
X-639Y18596D01*
X-769Y18486D01*
X-880Y18356D01*
X-969Y18210D01*
X-1034Y18053D01*
X-1074Y17887D01*
X-1088Y17717D01*
X-1074Y17546D01*
X-1034Y17380D01*
X-969Y17223D01*
X-880Y17077D01*
X-769Y16947D01*
X-639Y16837D01*
X-494Y16747D01*
X-336Y16682D01*
X-170Y16642D01*
X0Y16629D01*
X170Y16642D01*
X336Y16682D01*
X494Y16747D01*
X639Y16837D01*
X769Y16947D01*
X880Y17077D01*
X969Y17223D01*
X1034Y17380D01*
X1074Y17546D01*
X1088Y17717D01*
X1074Y17887D01*
X1034Y18053D01*
X969Y18210D01*
X880Y18356D01*
X769Y18486D01*
X639Y18596D01*
X494Y18686D01*
X336Y18751D01*
X170Y18791D01*
X0Y18804D01*
D02*
G37*
G36*
X21270Y16951D02*
Y16654D01*
X21567D01*
X21561Y16696D01*
X21526Y16781D01*
X21470Y16854D01*
X21397Y16910D01*
X21312Y16945D01*
X21270Y16951D01*
D02*
G37*
G36*
X21170D02*
X21129Y16945D01*
X21044Y16910D01*
X20971Y16854D01*
X20915Y16781D01*
X20879Y16696D01*
X20874Y16654D01*
X21170D01*
Y16951D01*
D02*
G37*
G36*
X9410Y16813D02*
Y16517D01*
X9707D01*
X9701Y16558D01*
X9666Y16643D01*
X9610Y16716D01*
X9537Y16772D01*
X9452Y16808D01*
X9410Y16813D01*
D02*
G37*
G36*
X9310Y16417D02*
X9014D01*
X9019Y16375D01*
X9055Y16290D01*
X9111Y16217D01*
X9184Y16161D01*
X9269Y16126D01*
X9310Y16120D01*
Y16417D01*
D02*
G37*
G36*
X8415Y16820D02*
X8324Y16808D01*
X8239Y16772D01*
X8166Y16716D01*
X8131Y16670D01*
X7892D01*
X7814Y16655D01*
X7748Y16611D01*
X7748Y16611D01*
X6867Y15730D01*
X6770Y15743D01*
X6666Y15730D01*
X6570Y15690D01*
X6488Y15626D01*
X6424Y15544D01*
X6385Y15448D01*
X6371Y15344D01*
X6384Y15247D01*
X6096Y14959D01*
X6052Y14893D01*
X6036Y14815D01*
Y13957D01*
X6052Y13879D01*
X6096Y13813D01*
X6803Y13106D01*
X6869Y13062D01*
X6947Y13046D01*
X7233D01*
X7252Y13000D01*
X6662Y12410D01*
X6618Y12344D01*
X6602Y12266D01*
Y11210D01*
X6557Y11175D01*
X6501Y11102D01*
X6465Y11017D01*
X6453Y10925D01*
X6465Y10834D01*
X6501Y10749D01*
X6557Y10676D01*
X6630Y10619D01*
X6715Y10584D01*
X6806Y10572D01*
X6898Y10584D01*
X6983Y10619D01*
X7056Y10676D01*
X7112Y10749D01*
X7147Y10834D01*
X7159Y10925D01*
X7147Y11017D01*
X7112Y11102D01*
X7056Y11175D01*
X7010Y11210D01*
Y12181D01*
X7285Y12456D01*
X7332Y12439D01*
X7336Y12409D01*
X7371Y12323D01*
X7427Y12250D01*
X7501Y12194D01*
X7586Y12159D01*
X7677Y12147D01*
X7734Y12154D01*
X8784Y11105D01*
X8850Y11061D01*
X8928Y11045D01*
X20749D01*
X20756Y11047D01*
X20777Y11000D01*
X20774Y10998D01*
X20739Y10952D01*
X8343D01*
X8303Y10997D01*
X8306Y11024D01*
X8294Y11116D01*
X8259Y11201D01*
X8203Y11274D01*
X8130Y11330D01*
X8045Y11365D01*
X7953Y11377D01*
X7862Y11365D01*
X7777Y11330D01*
X7704Y11274D01*
X7647Y11201D01*
X7612Y11116D01*
X7600Y11024D01*
X7608Y10967D01*
X7262Y10621D01*
X7205Y10629D01*
X7113Y10617D01*
X7028Y10581D01*
X6955Y10525D01*
X6899Y10452D01*
X6864Y10367D01*
X6852Y10276D01*
X6853Y10265D01*
X6808Y10243D01*
X5785Y11267D01*
Y15669D01*
X5769Y15747D01*
X5725Y15813D01*
X5554Y15984D01*
X5488Y16028D01*
X5410Y16044D01*
X2793D01*
X2714Y16028D01*
X2648Y15984D01*
X2494Y15830D01*
X2450Y15764D01*
X2435Y15686D01*
Y15675D01*
X2385Y15650D01*
X2333Y15690D01*
X2237Y15730D01*
X2134Y15743D01*
X2031Y15730D01*
X1935Y15690D01*
X1852Y15626D01*
X1789Y15544D01*
X1749Y15448D01*
X1735Y15344D01*
X1749Y15241D01*
X1789Y15145D01*
X1852Y15063D01*
X1935Y14999D01*
X2031Y14959D01*
X2134Y14946D01*
X2237Y14959D01*
X2333Y14999D01*
X2385Y15039D01*
X2435Y15014D01*
Y14934D01*
X2241Y14740D01*
X1739D01*
Y13996D01*
X1739Y13965D01*
X1692Y13941D01*
X386Y15247D01*
X399Y15344D01*
X385Y15448D01*
X345Y15544D01*
X282Y15626D01*
X199Y15690D01*
X103Y15730D01*
X-0Y15743D01*
X-103Y15730D01*
X-199Y15690D01*
X-282Y15626D01*
X-345Y15544D01*
X-385Y15448D01*
X-399Y15344D01*
X-385Y15241D01*
X-345Y15145D01*
X-282Y15063D01*
X-199Y14999D01*
X-103Y14959D01*
X-0Y14946D01*
X97Y14959D01*
X4472Y10584D01*
X4538Y10540D01*
X4557Y10536D01*
X4601Y10479D01*
X4675Y10423D01*
X4760Y10387D01*
X4851Y10375D01*
X4942Y10387D01*
X5028Y10423D01*
X5101Y10479D01*
X5157Y10552D01*
X5192Y10637D01*
X5204Y10728D01*
X5197Y10783D01*
X5244Y10806D01*
X6568Y9482D01*
X6535Y9438D01*
X6500Y9353D01*
X6488Y9262D01*
X6500Y9170D01*
X6535Y9085D01*
X6591Y9012D01*
X6664Y8956D01*
X6749Y8921D01*
X6841Y8909D01*
X6932Y8921D01*
X7017Y8956D01*
X7090Y9012D01*
X7146Y9085D01*
X7182Y9170D01*
X7194Y9262D01*
X7182Y9353D01*
X7157Y9411D01*
X7188Y9461D01*
X7671D01*
X7698Y9467D01*
X7704Y9466D01*
X7752Y9427D01*
X7759Y9367D01*
X7795Y9282D01*
X7851Y9209D01*
X7924Y9153D01*
X8009Y9118D01*
X8050Y9112D01*
Y9459D01*
X8100D01*
Y9509D01*
X8447D01*
X8441Y9550D01*
X8406Y9635D01*
X8350Y9708D01*
X8277Y9764D01*
X8192Y9800D01*
X8161Y9804D01*
X8145Y9851D01*
X8191Y9897D01*
X8199Y9891D01*
X8285Y9856D01*
X8376Y9844D01*
X8467Y9856D01*
X8552Y9891D01*
X8626Y9947D01*
X8682Y10020D01*
X8717Y10105D01*
X8729Y10197D01*
X8717Y10288D01*
X8682Y10373D01*
X8626Y10446D01*
X8564Y10494D01*
X8576Y10543D01*
X8576Y10544D01*
X20739D01*
X20774Y10498D01*
X20847Y10442D01*
X20932Y10407D01*
X21024Y10395D01*
X21115Y10407D01*
X21200Y10442D01*
X21273Y10498D01*
X21329Y10572D01*
X21365Y10657D01*
X21377Y10748D01*
X21365Y10839D01*
X21329Y10925D01*
X21273Y10998D01*
X21200Y11054D01*
X21115Y11089D01*
X21024Y11101D01*
X20951Y11091D01*
X20927Y11139D01*
X21753Y11965D01*
X21850Y11952D01*
X21954Y11965D01*
X22050Y12005D01*
X22092Y12038D01*
X22142Y12013D01*
Y11170D01*
X20841Y9869D01*
X20574D01*
X20549Y9919D01*
X20581Y9961D01*
X20617Y10046D01*
X20629Y10138D01*
X20617Y10229D01*
X20581Y10314D01*
X20525Y10387D01*
X20452Y10444D01*
X20367Y10479D01*
X20276Y10491D01*
X20184Y10479D01*
X20099Y10444D01*
X20026Y10387D01*
X19991Y10342D01*
X12205D01*
X12205Y10342D01*
X12127Y10326D01*
X12108Y10314D01*
X12058Y10304D01*
X11992Y10260D01*
X11372Y9639D01*
X11327Y9573D01*
X11312Y9495D01*
Y9468D01*
X11266Y9433D01*
X11210Y9360D01*
X11175Y9274D01*
X11163Y9183D01*
X11175Y9092D01*
X11210Y9007D01*
X11266Y8933D01*
X11339Y8877D01*
X11424Y8842D01*
X11516Y8830D01*
X11607Y8842D01*
X11692Y8877D01*
X11765Y8933D01*
X11821Y9007D01*
X11857Y9092D01*
X11869Y9183D01*
X11857Y9274D01*
X11821Y9360D01*
X11765Y9433D01*
X11764Y9454D01*
X11930Y9621D01*
X11978Y9605D01*
X11982Y9574D01*
X12017Y9489D01*
X12073Y9416D01*
X12146Y9360D01*
X12231Y9324D01*
X12323Y9312D01*
X12414Y9324D01*
X12499Y9360D01*
X12572Y9416D01*
X12608Y9461D01*
X20926D01*
X21004Y9477D01*
X21070Y9521D01*
X21422Y9873D01*
X21462Y9849D01*
X21465Y9845D01*
X21458Y9794D01*
X21800D01*
Y10136D01*
X21749Y10129D01*
X21745Y10132D01*
X21722Y10173D01*
X22490Y10942D01*
X22535Y11008D01*
X22550Y11086D01*
Y12019D01*
X22600Y12044D01*
X22651Y12005D01*
X22747Y11965D01*
X22800Y11958D01*
Y12350D01*
Y12742D01*
X22747Y12735D01*
X22651Y12696D01*
X22600Y12657D01*
X22550Y12681D01*
Y13019D01*
X22600Y13044D01*
X22651Y13005D01*
X22747Y12965D01*
X22850Y12952D01*
X22954Y12965D01*
X23050Y13005D01*
X23132Y13068D01*
X23196Y13151D01*
X23235Y13247D01*
X23249Y13350D01*
X23235Y13454D01*
X23196Y13550D01*
X23132Y13632D01*
X23050Y13696D01*
X22954Y13735D01*
X22850Y13749D01*
X22747Y13735D01*
X22651Y13696D01*
X22600Y13657D01*
X22550Y13681D01*
Y13854D01*
X22550Y13854D01*
X22535Y13933D01*
X22490Y13999D01*
X22490Y13999D01*
X22236Y14253D01*
X22249Y14350D01*
X22236Y14454D01*
X22196Y14550D01*
X22163Y14592D01*
X22188Y14642D01*
X22270D01*
X22465Y14448D01*
X22452Y14350D01*
X22465Y14247D01*
X22505Y14151D01*
X22568Y14068D01*
X22651Y14005D01*
X22747Y13965D01*
X22850Y13952D01*
X22954Y13965D01*
X23050Y14005D01*
X23132Y14068D01*
X23196Y14151D01*
X23235Y14247D01*
X23249Y14350D01*
X23235Y14454D01*
X23196Y14550D01*
X23132Y14632D01*
X23050Y14696D01*
X22954Y14735D01*
X22850Y14749D01*
X22753Y14736D01*
X22499Y14990D01*
X22433Y15034D01*
X22355Y15050D01*
X22246D01*
Y15746D01*
X21744D01*
X21319Y16170D01*
X21264Y16207D01*
X21270Y16257D01*
X21271Y16258D01*
X21312Y16263D01*
X21397Y16299D01*
X21470Y16355D01*
X21526Y16428D01*
X21561Y16513D01*
X21567Y16554D01*
X20874D01*
X20879Y16513D01*
X20915Y16428D01*
X20971Y16355D01*
X21044Y16299D01*
X21089Y16280D01*
X21080Y16230D01*
X17966D01*
X17888Y16214D01*
X17822Y16170D01*
X16737Y15085D01*
X16715Y15088D01*
X16694Y15142D01*
X16704Y15155D01*
X16743Y15251D01*
X16757Y15354D01*
X16743Y15458D01*
X16704Y15554D01*
X16640Y15636D01*
X16558Y15700D01*
X16461Y15739D01*
X16358Y15753D01*
X16255Y15739D01*
X16159Y15700D01*
X16076Y15636D01*
X16013Y15554D01*
X15973Y15458D01*
X15960Y15354D01*
X15973Y15251D01*
X16013Y15155D01*
X16048Y15110D01*
X16023Y15060D01*
X15860D01*
X15804Y15049D01*
X15754Y15081D01*
Y15750D01*
X15251D01*
X15011Y15990D01*
X14945Y16034D01*
X14867Y16050D01*
X8271D01*
X8193Y16034D01*
X8127Y15990D01*
X7867Y15730D01*
X7770Y15743D01*
X7666Y15730D01*
X7570Y15690D01*
X7488Y15626D01*
X7424Y15544D01*
X7385Y15448D01*
X7371Y15344D01*
X7385Y15241D01*
X7424Y15145D01*
X7459Y15100D01*
X7435Y15050D01*
X7271D01*
X7193Y15034D01*
X7127Y14990D01*
X6877Y14740D01*
X6519D01*
X6500Y14786D01*
X6672Y14959D01*
X6770Y14946D01*
X6873Y14959D01*
X6969Y14999D01*
X7052Y15063D01*
X7115Y15145D01*
X7155Y15241D01*
X7168Y15344D01*
X7156Y15442D01*
X7976Y16263D01*
X8131D01*
X8166Y16217D01*
X8239Y16161D01*
X8324Y16126D01*
X8415Y16114D01*
X8507Y16126D01*
X8592Y16161D01*
X8665Y16217D01*
X8721Y16290D01*
X8756Y16375D01*
X8768Y16467D01*
X8756Y16558D01*
X8721Y16643D01*
X8665Y16716D01*
X8592Y16772D01*
X8507Y16808D01*
X8415Y16820D01*
D02*
G37*
G36*
X9310Y16813D02*
X9269Y16808D01*
X9184Y16772D01*
X9111Y16716D01*
X9055Y16643D01*
X9019Y16558D01*
X9014Y16517D01*
X9310D01*
Y16813D01*
D02*
G37*
G36*
X9707Y16417D02*
X9410D01*
Y16120D01*
X9452Y16126D01*
X9537Y16161D01*
X9610Y16217D01*
X9666Y16290D01*
X9701Y16375D01*
X9707Y16417D01*
D02*
G37*
G36*
X1023Y13209D02*
X726D01*
X732Y13168D01*
X767Y13083D01*
X823Y13010D01*
X896Y12953D01*
X981Y12918D01*
X1023Y12913D01*
Y13209D01*
D02*
G37*
G36*
X23242Y12300D02*
X22900D01*
Y11958D01*
X22954Y11965D01*
X23050Y12005D01*
X23132Y12068D01*
X23196Y12151D01*
X23235Y12247D01*
X23242Y12300D01*
D02*
G37*
G36*
X22243Y9694D02*
X21900D01*
Y9352D01*
X21954Y9359D01*
X22050Y9399D01*
X22132Y9462D01*
X22196Y9545D01*
X22236Y9641D01*
X22243Y9694D01*
D02*
G37*
G36*
X395Y10352D02*
X-395D01*
Y9561D01*
X395D01*
Y10352D01*
D02*
G37*
G36*
Y12740D02*
X-395D01*
Y11949D01*
X395D01*
Y12740D01*
D02*
G37*
G36*
X21900Y10136D02*
Y9794D01*
X22243D01*
X22236Y9847D01*
X22196Y9943D01*
X22132Y10026D01*
X22050Y10089D01*
X21954Y10129D01*
X21900Y10136D01*
D02*
G37*
G36*
X21800Y9694D02*
X21458D01*
X21465Y9641D01*
X21505Y9545D01*
X21568Y9462D01*
X21651Y9399D01*
X21747Y9359D01*
X21800Y9352D01*
Y9694D01*
D02*
G37*
G36*
X22900Y12742D02*
Y12400D01*
X23242D01*
X23235Y12454D01*
X23196Y12550D01*
X23132Y12632D01*
X23050Y12696D01*
X22954Y12735D01*
X22900Y12742D01*
D02*
G37*
G36*
X50Y9349D02*
Y9007D01*
X392D01*
X385Y9060D01*
X345Y9156D01*
X282Y9239D01*
X199Y9302D01*
X103Y9342D01*
X50Y9349D01*
D02*
G37*
G36*
X-50D02*
X-103Y9342D01*
X-199Y9302D01*
X-282Y9239D01*
X-345Y9156D01*
X-385Y9060D01*
X-392Y9007D01*
X-50D01*
Y9349D01*
D02*
G37*
G36*
X8447Y9409D02*
X8150D01*
Y9112D01*
X8192Y9118D01*
X8277Y9153D01*
X8350Y9209D01*
X8406Y9282D01*
X8441Y9367D01*
X8447Y9409D01*
D02*
G37*
G36*
X23246Y10139D02*
X22455D01*
Y9349D01*
X23246D01*
Y10139D01*
D02*
G37*
%LPD*%
G36*
X5377Y15585D02*
Y11316D01*
X5331Y11296D01*
X3842Y12784D01*
Y14007D01*
X3893Y14031D01*
X3935Y13999D01*
X4031Y13959D01*
X4134Y13946D01*
X4237Y13959D01*
X4333Y13999D01*
X4416Y14063D01*
X4479Y14145D01*
X4519Y14241D01*
X4533Y14344D01*
X4519Y14448D01*
X4479Y14544D01*
X4519Y14572D01*
X4648Y14443D01*
Y13544D01*
X4603Y13509D01*
X4547Y13436D01*
X4511Y13351D01*
X4506Y13309D01*
X5199D01*
X5193Y13351D01*
X5158Y13436D01*
X5102Y13509D01*
X5056Y13544D01*
Y14528D01*
X5056Y14528D01*
X5041Y14606D01*
X4997Y14672D01*
X4492Y15176D01*
X4519Y15241D01*
X4526Y15294D01*
X4184D01*
Y14908D01*
X4362Y14730D01*
X4333Y14690D01*
X4237Y14730D01*
X4134Y14743D01*
X4031Y14730D01*
X3935Y14690D01*
X3893Y14658D01*
X3842Y14682D01*
Y14840D01*
X3827Y14918D01*
X3783Y14984D01*
X3520Y15247D01*
X3533Y15344D01*
X3519Y15448D01*
X3479Y15544D01*
X3447Y15586D01*
X3472Y15636D01*
X3796D01*
X3821Y15586D01*
X3789Y15544D01*
X3749Y15448D01*
X3742Y15394D01*
X4526D01*
X4519Y15448D01*
X4479Y15544D01*
X4447Y15586D01*
X4472Y15636D01*
X5326D01*
X5377Y15585D01*
D02*
G37*
G36*
X12048Y15592D02*
X12011Y15544D01*
X11971Y15448D01*
X11964Y15394D01*
X12356D01*
Y15294D01*
X11964D01*
X11971Y15241D01*
X12011Y15145D01*
X12046Y15100D01*
X12021Y15050D01*
X9105D01*
X9080Y15100D01*
X9115Y15145D01*
X9155Y15241D01*
X9162Y15294D01*
X8770D01*
Y15394D01*
X9162D01*
X9155Y15448D01*
X9115Y15544D01*
X9078Y15592D01*
X9103Y15642D01*
X12023D01*
X12048Y15592D01*
D02*
G37*
G36*
X19112Y14452D02*
X19099Y14354D01*
X19113Y14251D01*
X19153Y14155D01*
X19216Y14072D01*
X19299Y14009D01*
X19395Y13969D01*
X19498Y13956D01*
X19601Y13969D01*
X19697Y14009D01*
X19780Y14072D01*
X19843Y14155D01*
X19883Y14251D01*
X19897Y14354D01*
X19884Y14452D01*
X20074Y14642D01*
X20955D01*
X20966Y14617D01*
X20968Y14592D01*
X20902Y14541D01*
X20846Y14468D01*
X20811Y14383D01*
X20805Y14341D01*
X21152D01*
Y14241D01*
X20805D01*
X20811Y14200D01*
X20846Y14115D01*
X20900Y14044D01*
X19596Y12740D01*
X19548Y12746D01*
Y12404D01*
X19890D01*
X19884Y12452D01*
X21296Y13864D01*
X21340Y13930D01*
X21355Y14006D01*
X21401Y14042D01*
X21457Y14115D01*
X21463Y14129D01*
X21519Y14133D01*
X21568Y14068D01*
X21651Y14005D01*
X21747Y13965D01*
X21850Y13952D01*
X21948Y13965D01*
X22142Y13770D01*
Y13688D01*
X22092Y13663D01*
X22050Y13696D01*
X21954Y13735D01*
X21850Y13749D01*
X21747Y13735D01*
X21651Y13696D01*
X21568Y13632D01*
X21505Y13550D01*
X21465Y13454D01*
X21452Y13350D01*
X21465Y13247D01*
X21505Y13151D01*
X21568Y13068D01*
X21651Y13005D01*
X21747Y12965D01*
X21850Y12952D01*
X21954Y12965D01*
X22050Y13005D01*
X22092Y13038D01*
X22142Y13013D01*
Y12688D01*
X22092Y12663D01*
X22050Y12696D01*
X21954Y12735D01*
X21850Y12749D01*
X21747Y12735D01*
X21651Y12696D01*
X21568Y12632D01*
X21505Y12550D01*
X21465Y12454D01*
X21452Y12350D01*
X21465Y12253D01*
X20665Y11453D01*
X16951D01*
X16931Y11499D01*
X18401Y12968D01*
X18498Y12956D01*
X18601Y12969D01*
X18697Y13009D01*
X18739Y13041D01*
X18789Y13017D01*
Y12859D01*
X18805Y12781D01*
X18849Y12715D01*
X19112Y12452D01*
X19106Y12404D01*
X19448D01*
Y12746D01*
X19401Y12740D01*
X19197Y12944D01*
Y13024D01*
X19247Y13049D01*
X19299Y13009D01*
X19395Y12969D01*
X19498Y12956D01*
X19601Y12969D01*
X19697Y13009D01*
X19780Y13072D01*
X19843Y13155D01*
X19883Y13251D01*
X19897Y13354D01*
X19883Y13458D01*
X19843Y13554D01*
X19780Y13636D01*
X19697Y13700D01*
X19601Y13739D01*
X19498Y13753D01*
X19395Y13739D01*
X19299Y13700D01*
X19231Y13647D01*
X19222Y13646D01*
X19183Y13651D01*
X19169Y13657D01*
X19138Y13704D01*
X18847Y13994D01*
X18800Y14025D01*
X18794Y14039D01*
X18789Y14078D01*
X18791Y14087D01*
X18843Y14155D01*
X18883Y14251D01*
X18897Y14354D01*
X18883Y14458D01*
X18843Y14554D01*
X18806Y14602D01*
X18831Y14652D01*
X18912D01*
X19112Y14452D01*
D02*
G37*
G36*
X18190Y14602D02*
X18153Y14554D01*
X18113Y14458D01*
X18099Y14354D01*
X18113Y14251D01*
X18153Y14155D01*
X18205Y14087D01*
X18207Y14078D01*
X18202Y14039D01*
X18196Y14025D01*
X18149Y13994D01*
X16741Y12586D01*
X16676Y12589D01*
X16640Y12636D01*
X16558Y12700D01*
X16461Y12739D01*
X16408Y12746D01*
Y12354D01*
Y11962D01*
X16461Y11969D01*
X16558Y12009D01*
X16640Y12072D01*
X16700Y12150D01*
X16798D01*
X16876Y12166D01*
X16942Y12210D01*
X18053Y13322D01*
X18106Y13304D01*
X18112Y13257D01*
X16608Y11753D01*
X13119D01*
X13100Y11799D01*
X13249Y11949D01*
X13752D01*
Y12740D01*
X13105D01*
X13086Y12786D01*
X13259Y12959D01*
X13356Y12946D01*
X13459Y12959D01*
X13556Y12999D01*
X13638Y13063D01*
X13702Y13145D01*
X13741Y13241D01*
X13755Y13344D01*
X13741Y13448D01*
X13702Y13544D01*
X13665Y13592D01*
X13689Y13642D01*
X14346D01*
X14397Y13652D01*
X15025D01*
X15050Y13602D01*
X15013Y13554D01*
X14973Y13458D01*
X14960Y13354D01*
X14973Y13251D01*
X15013Y13155D01*
X15076Y13072D01*
X15159Y13009D01*
X15255Y12969D01*
X15358Y12956D01*
X15461Y12969D01*
X15558Y13009D01*
X15640Y13072D01*
X15704Y13155D01*
X15743Y13251D01*
X15757Y13354D01*
X15743Y13458D01*
X15704Y13554D01*
X15667Y13602D01*
X15691Y13652D01*
X15860D01*
X15938Y13667D01*
X16004Y13712D01*
X16261Y13968D01*
X16358Y13956D01*
X16461Y13969D01*
X16558Y14009D01*
X16640Y14072D01*
X16700Y14150D01*
X17176D01*
X17254Y14166D01*
X17320Y14210D01*
X17762Y14652D01*
X18165D01*
X18190Y14602D01*
D02*
G37*
%LPC*%
G36*
X5199Y13209D02*
X4506D01*
X4511Y13168D01*
X4547Y13083D01*
X4603Y13010D01*
X4657Y12968D01*
X4664Y12934D01*
X4708Y12868D01*
X4774Y12823D01*
X4852Y12808D01*
X4930Y12823D01*
X4997Y12868D01*
X5041Y12934D01*
X5048Y12968D01*
X5102Y13010D01*
X5158Y13083D01*
X5193Y13168D01*
X5199Y13209D01*
D02*
G37*
G36*
X4084Y15294D02*
X3742D01*
X3749Y15241D01*
X3789Y15145D01*
X3852Y15063D01*
X3935Y14999D01*
X4031Y14959D01*
X4084Y14952D01*
Y15294D01*
D02*
G37*
G36*
X19890Y12304D02*
X19548D01*
Y11962D01*
X19601Y11969D01*
X19697Y12009D01*
X19780Y12072D01*
X19843Y12155D01*
X19883Y12251D01*
X19890Y12304D01*
D02*
G37*
G36*
X19448D02*
X19106D01*
X19113Y12251D01*
X19153Y12155D01*
X19216Y12072D01*
X19299Y12009D01*
X19395Y11969D01*
X19448Y11962D01*
Y12304D01*
D02*
G37*
G36*
X18498Y12753D02*
X18395Y12739D01*
X18299Y12700D01*
X18216Y12636D01*
X18153Y12554D01*
X18113Y12458D01*
X18099Y12354D01*
X18113Y12251D01*
X18153Y12155D01*
X18216Y12072D01*
X18299Y12009D01*
X18395Y11969D01*
X18498Y11956D01*
X18601Y11969D01*
X18697Y12009D01*
X18780Y12072D01*
X18843Y12155D01*
X18883Y12251D01*
X18897Y12354D01*
X18883Y12458D01*
X18843Y12554D01*
X18780Y12636D01*
X18697Y12700D01*
X18601Y12739D01*
X18498Y12753D01*
D02*
G37*
G36*
X16358Y13753D02*
X16255Y13739D01*
X16159Y13700D01*
X16076Y13636D01*
X16013Y13554D01*
X15973Y13458D01*
X15960Y13354D01*
X15973Y13251D01*
X16013Y13155D01*
X16076Y13072D01*
X16159Y13009D01*
X16255Y12969D01*
X16358Y12956D01*
X16461Y12969D01*
X16558Y13009D01*
X16640Y13072D01*
X16704Y13155D01*
X16743Y13251D01*
X16757Y13354D01*
X16743Y13458D01*
X16704Y13554D01*
X16640Y13636D01*
X16558Y13700D01*
X16461Y13739D01*
X16358Y13753D01*
D02*
G37*
G36*
X16308Y12746D02*
X16255Y12739D01*
X16159Y12700D01*
X16076Y12636D01*
X16013Y12554D01*
X15973Y12458D01*
X15966Y12404D01*
X16308D01*
Y12746D01*
D02*
G37*
G36*
X15358Y12753D02*
X15255Y12739D01*
X15159Y12700D01*
X15076Y12636D01*
X15013Y12554D01*
X14973Y12458D01*
X14960Y12354D01*
X14973Y12251D01*
X15013Y12155D01*
X15076Y12072D01*
X15159Y12009D01*
X15255Y11969D01*
X15358Y11956D01*
X15461Y11969D01*
X15558Y12009D01*
X15640Y12072D01*
X15704Y12155D01*
X15743Y12251D01*
X15757Y12354D01*
X15743Y12458D01*
X15704Y12554D01*
X15640Y12636D01*
X15558Y12700D01*
X15461Y12739D01*
X15358Y12753D01*
D02*
G37*
G36*
X16308Y12304D02*
X15966D01*
X15973Y12251D01*
X16013Y12155D01*
X16076Y12072D01*
X16159Y12009D01*
X16255Y11969D01*
X16308Y11962D01*
Y12304D01*
D02*
G37*
%LPD*%
D22*
X15860Y13856D02*
X16358Y14354D01*
X14356Y13856D02*
X15860D01*
X8228Y10748D02*
X21024D01*
X19498Y12354D02*
X21152Y14008D01*
Y14291D01*
X4852Y13259D02*
Y14528D01*
Y13012D02*
Y13259D01*
X-0Y15344D02*
X4616Y10728D01*
X7892Y16467D02*
X8415D01*
X6770Y15344D02*
X7892Y16467D01*
X8928Y11249D02*
X20749D01*
X7677Y12500D02*
X8928Y11249D01*
X10700Y13849D02*
X10728Y13878D01*
X8265Y13849D02*
X10700D01*
X20926Y9665D02*
X22346Y11086D01*
X3134Y8563D02*
X3167Y8596D01*
X20749Y11249D02*
X21850Y12350D01*
X9252Y11713D02*
X9415Y11549D01*
X9449Y13287D02*
X11220D01*
X9415Y11549D02*
X16693D01*
X11220Y13287D02*
X11659Y12849D01*
X12861D01*
X13356Y13344D01*
X7770Y14344D02*
X8265Y13849D01*
X13508Y8036D02*
X14365Y8893D01*
Y8957D01*
X6026Y8036D02*
X13508D01*
X4616Y10728D02*
X4851D01*
X6770Y14344D02*
X7271Y14846D01*
X14867D01*
X15358Y14354D01*
X19498D02*
X19990Y14846D01*
X22355D01*
X22850Y14350D01*
X14867Y15846D02*
X15358Y15354D01*
X8271Y15846D02*
X14867D01*
X7770Y15344D02*
X8271Y15846D01*
X12356Y13344D02*
X12858Y13846D01*
X14346D01*
X14356Y13856D01*
X15358Y14354D02*
X15860Y14856D01*
X16796D01*
X17966Y16026D01*
X21175D01*
X21850Y15350D01*
X18997Y14856D02*
X19498Y14354D01*
X17678Y14856D02*
X18997D01*
X17176Y14354D02*
X17678Y14856D01*
X16358Y14354D02*
X17176D01*
X16693Y11549D02*
X18498Y13354D01*
X12861Y11849D02*
X13356Y12344D01*
X21850Y14350D02*
X22346Y13854D01*
Y11086D02*
Y13854D01*
X2639Y15686D02*
X2793Y15840D01*
X5410D01*
X22355Y6887D02*
X22850Y7382D01*
X21645Y6887D02*
X22355D01*
X21642Y6890D02*
X21645Y6887D01*
X14862Y6890D02*
X21642D01*
X12323Y9665D02*
X20926D01*
X11516Y9495D02*
X12136Y10115D01*
X12182D01*
X12205Y10138D01*
X20276D01*
X3167Y8596D02*
X9875D01*
X2134Y14344D02*
X2639Y14849D01*
Y15686D01*
X3134Y15344D02*
X3639Y14840D01*
Y12700D02*
Y14840D01*
X4134Y15246D02*
Y15344D01*
Y15246D02*
X4852Y14528D01*
X5410Y15840D02*
X5581Y15669D01*
X7491Y12950D02*
X8330D01*
X9117Y12163D01*
X9438D01*
X9752Y11849D02*
X12861D01*
X9438Y12163D02*
X9752Y11849D01*
X9681Y12344D02*
X12356D01*
X8775Y13250D02*
X9681Y12344D01*
X6947Y13250D02*
X8775D01*
X6240Y13957D02*
X6947Y13250D01*
X6240Y13957D02*
Y14815D01*
X6770Y15344D01*
X19498Y15354D02*
X20630D01*
X6806Y12266D02*
X7491Y12950D01*
X6806Y10925D02*
Y12266D01*
X17520Y5315D02*
X21850D01*
X16358Y12354D02*
X16798D01*
X18293Y13850D01*
X18703D01*
X18993Y13559D01*
Y12859D02*
Y13559D01*
Y12859D02*
X19498Y12354D01*
X9875Y8596D02*
X10089Y8809D01*
X10699D01*
X11516Y9183D02*
Y9495D01*
X5581Y11182D02*
Y15669D01*
X3639Y12700D02*
X6841Y9498D01*
Y9262D02*
Y9498D01*
X5581Y11182D02*
X7097Y9665D01*
X7671D01*
X8202Y10197D01*
X8376D01*
X8228Y10748D02*
Y10749D01*
X7953Y11024D02*
X8228Y10749D01*
X7205Y10276D02*
X7953Y11024D01*
X11992Y5535D02*
Y6909D01*
Y5535D02*
X11995Y5531D01*
D23*
X6677Y1476D02*
D03*
X4118D02*
D03*
X1559D02*
D03*
X-0Y3248D02*
D03*
Y5594D02*
D03*
Y8957D02*
D03*
X8770Y15344D02*
D03*
Y14344D02*
D03*
X7770Y15344D02*
D03*
Y14344D02*
D03*
X6770Y15344D02*
D03*
X12356Y12344D02*
D03*
X13356Y13344D02*
D03*
X12356D02*
D03*
X13356Y14344D02*
D03*
X12356D02*
D03*
X13356Y15344D02*
D03*
X12356D02*
D03*
X16358Y15354D02*
D03*
X15358Y14354D02*
D03*
X16358D02*
D03*
X15358Y13354D02*
D03*
X16358D02*
D03*
X15358Y12354D02*
D03*
X16358D02*
D03*
X19498Y15354D02*
D03*
X18498Y14354D02*
D03*
X19498D02*
D03*
X18498Y13354D02*
D03*
X19498D02*
D03*
X18498Y12354D02*
D03*
X19498D02*
D03*
X22850Y15350D02*
D03*
X21850Y14350D02*
D03*
X22850D02*
D03*
X21850Y13350D02*
D03*
X22850D02*
D03*
X21850Y12350D02*
D03*
X22850D02*
D03*
X4134Y15344D02*
D03*
Y14344D02*
D03*
X3134Y15344D02*
D03*
Y14344D02*
D03*
X2134Y15344D02*
D03*
X-0Y13344D02*
D03*
Y14344D02*
D03*
Y15344D02*
D03*
X21850Y7382D02*
D03*
Y9744D02*
D03*
D24*
X7677Y1476D02*
D03*
X5118D02*
D03*
X2559D02*
D03*
X6770Y14344D02*
D03*
X2134D02*
D03*
X22850Y7382D02*
D03*
Y9744D02*
D03*
D25*
X-0Y2248D02*
D03*
Y6594D02*
D03*
Y9957D02*
D03*
X13356Y12344D02*
D03*
X15358Y15354D02*
D03*
X18498D02*
D03*
X21850Y15350D02*
D03*
X-0Y12344D02*
D03*
D26*
X21024Y10748D02*
D03*
X21152Y14291D02*
D03*
X21220Y16604D02*
D03*
X8415Y16467D02*
D03*
X20276Y10138D02*
D03*
X10728Y13878D02*
D03*
X9449Y13287D02*
D03*
X9252Y11713D02*
D03*
X7677Y12500D02*
D03*
X14365Y8957D02*
D03*
X3134Y8563D02*
D03*
X4851Y10728D02*
D03*
X6026Y8036D02*
D03*
X17520Y5315D02*
D03*
X21850D02*
D03*
X14862Y6890D02*
D03*
X12323Y9665D02*
D03*
X4852Y13259D02*
D03*
X20630Y15354D02*
D03*
X6806Y10925D02*
D03*
X7953Y11024D02*
D03*
X9360Y16467D02*
D03*
X10699Y8809D02*
D03*
X11516Y9183D02*
D03*
X8100Y9459D02*
D03*
X6841Y9262D02*
D03*
X8376Y10197D02*
D03*
X7205Y10276D02*
D03*
X1073Y13259D02*
D03*
X11992Y6909D02*
D03*
X11995Y5531D02*
D03*
D27*
X12992Y2953D02*
D03*
D28*
X0Y0D02*
D03*
X23622D02*
D03*
Y17717D02*
D03*
X0D02*
D03*
M02*
