G04 Layer_Color=8421504*
%FSLAX24Y24*%
%MOIN*%
G70*
G01*
G75*
%ADD10R,0.0433X0.0709*%
%ADD11R,0.0354X0.0315*%
%ADD12O,0.0532X0.0217*%
%ADD13O,0.0217X0.0532*%
%ADD14C,0.0600*%
%ADD15R,0.0276X0.0354*%
%ADD16R,0.0354X0.0276*%
%ADD17R,0.0394X0.0374*%
%ADD18R,0.4193X0.3504*%
%ADD19R,0.0413X0.0945*%
%ADD20R,0.0394X0.0236*%
%ADD21R,0.0906X0.1791*%
D10*
X8720Y1437D02*
D03*
X10177D02*
D03*
X8720Y3878D02*
D03*
X10177D02*
D03*
D11*
X4921Y5689D02*
D03*
Y5138D02*
D03*
X3937Y5689D02*
D03*
Y5138D02*
D03*
D12*
X9311Y11240D02*
D03*
Y10925D02*
D03*
Y10610D02*
D03*
Y10295D02*
D03*
Y9980D02*
D03*
Y9665D02*
D03*
Y9350D02*
D03*
Y9035D02*
D03*
X6043D02*
D03*
Y9350D02*
D03*
Y9665D02*
D03*
Y9980D02*
D03*
Y10295D02*
D03*
Y10610D02*
D03*
Y10925D02*
D03*
Y11240D02*
D03*
D13*
X8780Y8504D02*
D03*
X8465D02*
D03*
X8150D02*
D03*
X7835D02*
D03*
X7520D02*
D03*
X7205D02*
D03*
X6890D02*
D03*
X6575D02*
D03*
Y11772D02*
D03*
X6890D02*
D03*
X7205D02*
D03*
X7520D02*
D03*
X7835D02*
D03*
X8150D02*
D03*
X8465D02*
D03*
X8780D02*
D03*
D14*
X20177Y8169D02*
D03*
X18602D02*
D03*
D15*
X10138Y4823D02*
D03*
X9547D02*
D03*
X2461Y3445D02*
D03*
X3051D02*
D03*
X5118D02*
D03*
X5709D02*
D03*
X7677D02*
D03*
X7087D02*
D03*
D16*
X7677Y5118D02*
D03*
Y5709D02*
D03*
X1772Y10039D02*
D03*
Y9449D02*
D03*
Y6594D02*
D03*
Y7185D02*
D03*
Y4134D02*
D03*
Y4724D02*
D03*
D17*
X6496Y5098D02*
D03*
Y5728D02*
D03*
D18*
X12992Y2835D02*
D03*
D19*
X11992Y6909D02*
D03*
X13992D02*
D03*
D20*
X4587Y6811D02*
D03*
Y7559D02*
D03*
X3681Y7185D02*
D03*
D21*
X21850Y5315D02*
D03*
Y2362D02*
D03*
X17520Y5315D02*
D03*
Y2362D02*
D03*
M02*
