G04 Layer_Color=16711935*
%FSLAX24Y24*%
%MOIN*%
G70*
G01*
G75*
%ADD38C,0.0680*%
%ADD46R,0.0671X0.0671*%
%ADD47C,0.0671*%
%ADD48R,0.0671X0.0671*%
%ADD49C,0.2049*%
%ADD50C,0.0580*%
%ADD51C,0.1220*%
D38*
X19390Y8169D02*
D03*
D46*
X22850Y9744D02*
D03*
Y7382D02*
D03*
X2134Y14344D02*
D03*
X6770D02*
D03*
X2559Y1476D02*
D03*
X5118D02*
D03*
X7677D02*
D03*
D47*
X21850Y9744D02*
D03*
Y7382D02*
D03*
X-0Y15344D02*
D03*
Y14344D02*
D03*
Y13344D02*
D03*
X2134Y15344D02*
D03*
X3134Y14344D02*
D03*
Y15344D02*
D03*
X4134Y14344D02*
D03*
Y15344D02*
D03*
X22850Y12350D02*
D03*
X21850D02*
D03*
X22850Y13350D02*
D03*
X21850D02*
D03*
X22850Y14350D02*
D03*
X21850D02*
D03*
X22850Y15350D02*
D03*
X19498Y12354D02*
D03*
X18498D02*
D03*
X19498Y13354D02*
D03*
X18498D02*
D03*
X19498Y14354D02*
D03*
X18498D02*
D03*
X19498Y15354D02*
D03*
X16358Y12354D02*
D03*
X15358D02*
D03*
X16358Y13354D02*
D03*
X15358D02*
D03*
X16358Y14354D02*
D03*
X15358D02*
D03*
X16358Y15354D02*
D03*
X12356Y15344D02*
D03*
X13356D02*
D03*
X12356Y14344D02*
D03*
X13356D02*
D03*
X12356Y13344D02*
D03*
X13356D02*
D03*
X12356Y12344D02*
D03*
X6770Y15344D02*
D03*
X7770Y14344D02*
D03*
Y15344D02*
D03*
X8770Y14344D02*
D03*
Y15344D02*
D03*
X-0Y8957D02*
D03*
Y5594D02*
D03*
Y3248D02*
D03*
X1559Y1476D02*
D03*
X4118D02*
D03*
X6677D02*
D03*
D48*
X-0Y12344D02*
D03*
X21850Y15350D02*
D03*
X18498Y15354D02*
D03*
X15358D02*
D03*
X13356Y12344D02*
D03*
X-0Y9957D02*
D03*
Y6594D02*
D03*
Y2248D02*
D03*
D49*
X0Y17717D02*
D03*
X23622D02*
D03*
Y0D02*
D03*
X0D02*
D03*
D50*
X14862Y6890D02*
D03*
X21850Y5315D02*
D03*
X17520D02*
D03*
X8150Y9696D02*
D03*
X6806Y10925D02*
D03*
X6026Y8036D02*
D03*
X4851Y10728D02*
D03*
X3134Y8563D02*
D03*
X14365Y8957D02*
D03*
X7677Y12500D02*
D03*
X9252Y11713D02*
D03*
X9449Y13287D02*
D03*
X12323Y9665D02*
D03*
X7480Y9350D02*
D03*
X10827Y9154D02*
D03*
X6644Y9744D02*
D03*
X10728Y13878D02*
D03*
X20276Y10138D02*
D03*
X8645Y9236D02*
D03*
D51*
X12992Y2953D02*
D03*
M02*
