G04 Layer_Physical_Order=1*
G04 Layer_Color=255*
%FSLAX24Y24*%
%MOIN*%
G70*
G01*
G75*
%ADD10R,0.0433X0.0709*%
%ADD11R,0.0354X0.0315*%
%ADD12O,0.0532X0.0217*%
%ADD13O,0.0217X0.0532*%
%ADD14C,0.0600*%
%ADD15R,0.0276X0.0354*%
%ADD16R,0.0354X0.0276*%
%ADD17R,0.0394X0.0374*%
%ADD18R,0.4193X0.3504*%
%ADD19R,0.0413X0.0945*%
%ADD20R,0.0394X0.0236*%
%ADD21R,0.0906X0.1791*%
%ADD22C,0.0200*%
%ADD23R,0.0591X0.0591*%
%ADD24C,0.0591*%
%ADD25R,0.0591X0.0591*%
%ADD26C,0.1969*%
%ADD27C,0.0500*%
%ADD28C,0.1140*%
G36*
X23859Y19518D02*
X24092Y19472D01*
X24318Y19396D01*
X24531Y19290D01*
X24728Y19158D01*
X24907Y19002D01*
X25064Y18823D01*
X25196Y18625D01*
X25301Y18412D01*
X25378Y18187D01*
X25424Y17954D01*
X25439Y17723D01*
X25438Y17717D01*
Y0D01*
X25439Y-7D01*
X25424Y-237D01*
X25378Y-470D01*
X25301Y-695D01*
X25196Y-909D01*
X25064Y-1106D01*
X24907Y-1285D01*
X24728Y-1442D01*
X24531Y-1574D01*
X24318Y-1679D01*
X24092Y-1755D01*
X23859Y-1802D01*
X23629Y-1817D01*
X23622Y-1816D01*
X0D01*
X-7Y-1817D01*
X-237Y-1802D01*
X-470Y-1755D01*
X-695Y-1679D01*
X-909Y-1574D01*
X-1106Y-1442D01*
X-1285Y-1285D01*
X-1442Y-1106D01*
X-1574Y-909D01*
X-1679Y-695D01*
X-1755Y-470D01*
X-1802Y-237D01*
X-1817Y-7D01*
X-1816Y0D01*
Y17717D01*
X-1817Y17723D01*
X-1802Y17954D01*
X-1755Y18187D01*
X-1679Y18412D01*
X-1574Y18625D01*
X-1442Y18823D01*
X-1285Y19002D01*
X-1106Y19158D01*
X-909Y19290D01*
X-695Y19396D01*
X-470Y19472D01*
X-237Y19518D01*
X-7Y19533D01*
X0Y19532D01*
X23622D01*
X23629Y19533D01*
X23859Y19518D01*
D02*
G37*
%LPC*%
G36*
X4214Y5088D02*
X3987D01*
Y4880D01*
X4214D01*
Y5088D01*
D02*
G37*
G36*
X3887D02*
X3660D01*
Y4880D01*
X3887D01*
Y5088D01*
D02*
G37*
G36*
X5198D02*
X4971D01*
Y4880D01*
X5198D01*
Y5088D01*
D02*
G37*
G36*
X4871D02*
X4644D01*
Y4880D01*
X4871D01*
Y5088D01*
D02*
G37*
G36*
X9785Y5100D02*
X9597D01*
Y4873D01*
X9785D01*
Y5100D01*
D02*
G37*
G36*
X9497Y4773D02*
X9309D01*
Y4546D01*
X9497D01*
Y4773D01*
D02*
G37*
G36*
X18072Y6311D02*
X16967D01*
Y4319D01*
X18072D01*
Y6311D01*
D02*
G37*
G36*
X9497Y5100D02*
X9309D01*
Y4873D01*
X9497D01*
Y5100D01*
D02*
G37*
G36*
X9785Y4773D02*
X9597D01*
Y4546D01*
X9785D01*
Y4773D01*
D02*
G37*
G36*
X18552Y8566D02*
X18498Y8559D01*
X18401Y8519D01*
X18317Y8455D01*
X18253Y8371D01*
X18213Y8274D01*
X18205Y8219D01*
X18552D01*
Y8566D01*
D02*
G37*
G36*
Y8119D02*
X18205D01*
X18213Y8065D01*
X18253Y7968D01*
X18317Y7884D01*
X18401Y7820D01*
X18498Y7780D01*
X18552Y7772D01*
Y8119D01*
D02*
G37*
G36*
X21850Y10143D02*
X21747Y10129D01*
X21651Y10089D01*
X21568Y10026D01*
X21505Y9943D01*
X21465Y9847D01*
X21452Y9744D01*
X21465Y9641D01*
X21505Y9545D01*
X21568Y9462D01*
X21651Y9399D01*
X21747Y9359D01*
X21850Y9345D01*
X21954Y9359D01*
X22050Y9399D01*
X22132Y9462D01*
X22196Y9545D01*
X22236Y9641D01*
X22249Y9744D01*
X22236Y9847D01*
X22196Y9943D01*
X22132Y10026D01*
X22050Y10089D01*
X21954Y10129D01*
X21850Y10143D01*
D02*
G37*
G36*
X-0Y9355D02*
X-103Y9342D01*
X-199Y9302D01*
X-282Y9239D01*
X-345Y9156D01*
X-385Y9060D01*
X-399Y8957D01*
X-385Y8853D01*
X-345Y8757D01*
X-282Y8675D01*
X-199Y8611D01*
X-103Y8572D01*
X-0Y8558D01*
X103Y8572D01*
X199Y8611D01*
X282Y8675D01*
X345Y8757D01*
X385Y8853D01*
X399Y8957D01*
X385Y9060D01*
X345Y9156D01*
X282Y9239D01*
X199Y9302D01*
X103Y9342D01*
X-0Y9355D01*
D02*
G37*
G36*
X4883Y6761D02*
X4637D01*
Y6593D01*
X4883D01*
Y6761D01*
D02*
G37*
G36*
X-0Y5993D02*
X-103Y5980D01*
X-199Y5940D01*
X-282Y5876D01*
X-345Y5794D01*
X-385Y5698D01*
X-399Y5594D01*
X-385Y5491D01*
X-345Y5395D01*
X-282Y5313D01*
X-199Y5249D01*
X-103Y5209D01*
X-0Y5196D01*
X103Y5209D01*
X199Y5249D01*
X282Y5313D01*
X345Y5395D01*
X385Y5491D01*
X399Y5594D01*
X385Y5698D01*
X345Y5794D01*
X282Y5876D01*
X199Y5940D01*
X103Y5980D01*
X-0Y5993D01*
D02*
G37*
G36*
X6793Y5385D02*
X6199D01*
Y4811D01*
X6793D01*
Y4914D01*
X7400D01*
Y4880D01*
X7954D01*
Y5356D01*
X7400D01*
Y5322D01*
X6793D01*
Y5385D01*
D02*
G37*
G36*
X4537Y6761D02*
X4290D01*
Y6593D01*
X4537D01*
Y6761D01*
D02*
G37*
G36*
X395Y6990D02*
X-395D01*
Y6199D01*
X395D01*
Y6391D01*
X1494D01*
Y6357D01*
X2049D01*
Y6832D01*
X1494D01*
Y6798D01*
X395D01*
Y6990D01*
D02*
G37*
G36*
X3001Y3395D02*
X2813D01*
Y3168D01*
X3001D01*
Y3395D01*
D02*
G37*
G36*
X7915Y3722D02*
X7439D01*
Y3168D01*
X7473D01*
Y1872D01*
X7282D01*
Y1081D01*
X8072D01*
Y1872D01*
X7881D01*
Y3168D01*
X7915D01*
Y3722D01*
D02*
G37*
G36*
X5659Y3395D02*
X5471D01*
Y3168D01*
X5659D01*
Y3395D01*
D02*
G37*
G36*
X3289D02*
X3101D01*
Y3168D01*
X3289D01*
Y3395D01*
D02*
G37*
G36*
X5356Y3722D02*
X4880D01*
Y3168D01*
X4914D01*
Y1872D01*
X4723D01*
Y1081D01*
X5513D01*
Y1872D01*
X5322D01*
Y3168D01*
X5356D01*
Y3722D01*
D02*
G37*
G36*
X23622Y1088D02*
X23452Y1074D01*
X23286Y1034D01*
X23128Y969D01*
X22983Y880D01*
X22853Y769D01*
X22742Y639D01*
X22653Y494D01*
X22588Y336D01*
X22548Y170D01*
X22534Y0D01*
X22548Y-170D01*
X22588Y-336D01*
X22653Y-494D01*
X22742Y-639D01*
X22853Y-769D01*
X22983Y-880D01*
X23128Y-969D01*
X23286Y-1034D01*
X23452Y-1074D01*
X23622Y-1088D01*
X23792Y-1074D01*
X23958Y-1034D01*
X24116Y-969D01*
X24261Y-880D01*
X24391Y-769D01*
X24502Y-639D01*
X24591Y-494D01*
X24656Y-336D01*
X24696Y-170D01*
X24710Y0D01*
X24696Y170D01*
X24656Y336D01*
X24591Y494D01*
X24502Y639D01*
X24391Y769D01*
X24261Y880D01*
X24116Y969D01*
X23958Y1034D01*
X23792Y1074D01*
X23622Y1088D01*
D02*
G37*
G36*
X0D02*
X-170Y1074D01*
X-336Y1034D01*
X-494Y969D01*
X-639Y880D01*
X-769Y769D01*
X-880Y639D01*
X-969Y494D01*
X-1034Y336D01*
X-1074Y170D01*
X-1088Y0D01*
X-1074Y-170D01*
X-1034Y-336D01*
X-969Y-494D01*
X-880Y-639D01*
X-769Y-769D01*
X-639Y-880D01*
X-494Y-969D01*
X-336Y-1034D01*
X-170Y-1074D01*
X0Y-1088D01*
X170Y-1074D01*
X336Y-1034D01*
X494Y-969D01*
X639Y-880D01*
X769Y-769D01*
X880Y-639D01*
X969Y-494D01*
X1034Y-336D01*
X1074Y-170D01*
X1088Y0D01*
X1074Y170D01*
X1034Y336D01*
X969Y494D01*
X880Y639D01*
X769Y769D01*
X639Y880D01*
X494Y969D01*
X336Y1034D01*
X170Y1074D01*
X0Y1088D01*
D02*
G37*
G36*
X6677Y1875D02*
X6574Y1861D01*
X6478Y1822D01*
X6395Y1758D01*
X6332Y1676D01*
X6292Y1580D01*
X6278Y1476D01*
X6292Y1373D01*
X6332Y1277D01*
X6395Y1194D01*
X6478Y1131D01*
X6574Y1091D01*
X6677Y1078D01*
X6780Y1091D01*
X6877Y1131D01*
X6959Y1194D01*
X7022Y1277D01*
X7062Y1373D01*
X7076Y1476D01*
X7062Y1580D01*
X7022Y1676D01*
X6959Y1758D01*
X6877Y1822D01*
X6780Y1861D01*
X6677Y1875D01*
D02*
G37*
G36*
X4118D02*
X4015Y1861D01*
X3919Y1822D01*
X3836Y1758D01*
X3773Y1676D01*
X3733Y1580D01*
X3719Y1476D01*
X3733Y1373D01*
X3773Y1277D01*
X3836Y1194D01*
X3919Y1131D01*
X4015Y1091D01*
X4118Y1078D01*
X4221Y1091D01*
X4317Y1131D01*
X4400Y1194D01*
X4463Y1277D01*
X4503Y1373D01*
X4517Y1476D01*
X4503Y1580D01*
X4463Y1676D01*
X4400Y1758D01*
X4317Y1822D01*
X4221Y1861D01*
X4118Y1875D01*
D02*
G37*
G36*
X7324Y3722D02*
X7137D01*
Y3495D01*
X7324D01*
Y3722D01*
D02*
G37*
G36*
X7037D02*
X6849D01*
Y3495D01*
X7037D01*
Y3722D01*
D02*
G37*
G36*
X5946D02*
X5759D01*
Y3495D01*
X5946D01*
Y3722D01*
D02*
G37*
G36*
X3289D02*
X3101D01*
Y3495D01*
X3289D01*
Y3722D01*
D02*
G37*
G36*
X5659D02*
X5471D01*
Y3495D01*
X5659D01*
Y3722D01*
D02*
G37*
G36*
X7037Y3395D02*
X6849D01*
Y3168D01*
X7037D01*
Y3395D01*
D02*
G37*
G36*
X5946D02*
X5759D01*
Y3168D01*
X5946D01*
Y3395D01*
D02*
G37*
G36*
X3001Y3722D02*
X2813D01*
Y3495D01*
X3001D01*
Y3722D01*
D02*
G37*
G36*
X7324Y3395D02*
X7137D01*
Y3168D01*
X7324D01*
Y3395D01*
D02*
G37*
G36*
X2526Y15294D02*
X2184D01*
Y14952D01*
X2237Y14959D01*
X2333Y14999D01*
X2416Y15063D01*
X2479Y15145D01*
X2519Y15241D01*
X2526Y15294D01*
D02*
G37*
G36*
X22246Y15746D02*
X21455D01*
Y14955D01*
X22246D01*
Y15746D01*
D02*
G37*
G36*
X22800Y15300D02*
X22458D01*
X22465Y15247D01*
X22505Y15151D01*
X22568Y15068D01*
X22651Y15005D01*
X22747Y14965D01*
X22800Y14958D01*
Y15300D01*
D02*
G37*
G36*
X2084Y15294D02*
X1742D01*
X1749Y15241D01*
X1789Y15145D01*
X1852Y15063D01*
X1935Y14999D01*
X2031Y14959D01*
X2084Y14952D01*
Y15294D01*
D02*
G37*
G36*
X-0Y15743D02*
X-103Y15730D01*
X-199Y15690D01*
X-282Y15626D01*
X-345Y15544D01*
X-385Y15448D01*
X-399Y15344D01*
X-385Y15241D01*
X-345Y15145D01*
X-282Y15063D01*
X-199Y14999D01*
X-103Y14959D01*
X-0Y14946D01*
X103Y14959D01*
X199Y14999D01*
X282Y15063D01*
X345Y15145D01*
X385Y15241D01*
X399Y15344D01*
X385Y15448D01*
X345Y15544D01*
X282Y15626D01*
X199Y15690D01*
X103Y15730D01*
X-0Y15743D01*
D02*
G37*
G36*
X3134D02*
X3031Y15730D01*
X2935Y15690D01*
X2852Y15626D01*
X2789Y15544D01*
X2749Y15448D01*
X2735Y15344D01*
X2749Y15241D01*
X2789Y15145D01*
X2852Y15063D01*
X2935Y14999D01*
X3031Y14959D01*
X3134Y14946D01*
X3237Y14959D01*
X3333Y14999D01*
X3416Y15063D01*
X3479Y15145D01*
X3519Y15241D01*
X3533Y15344D01*
X3519Y15448D01*
X3479Y15544D01*
X3416Y15626D01*
X3333Y15690D01*
X3237Y15730D01*
X3134Y15743D01*
D02*
G37*
G36*
X10875Y16654D02*
X10797Y16638D01*
X10731Y16594D01*
X8867Y14730D01*
X8770Y14743D01*
X8666Y14730D01*
X8570Y14690D01*
X8520Y14651D01*
X8470Y14676D01*
Y15013D01*
X8520Y15038D01*
X8570Y14999D01*
X8666Y14959D01*
X8770Y14946D01*
X8873Y14959D01*
X8969Y14999D01*
X9052Y15063D01*
X9115Y15145D01*
X9155Y15241D01*
X9168Y15344D01*
X9155Y15448D01*
X9115Y15544D01*
X9052Y15626D01*
X8969Y15690D01*
X8873Y15730D01*
X8770Y15743D01*
X8666Y15730D01*
X8570Y15690D01*
X8520Y15651D01*
X8470Y15676D01*
Y15686D01*
X8455Y15764D01*
X8410Y15830D01*
X7950Y16290D01*
X7884Y16334D01*
X7806Y16350D01*
X1801D01*
X1723Y16334D01*
X1657Y16290D01*
X1657Y16290D01*
X97Y14730D01*
X-0Y14743D01*
X-103Y14730D01*
X-199Y14690D01*
X-282Y14626D01*
X-345Y14544D01*
X-385Y14448D01*
X-399Y14344D01*
X-385Y14241D01*
X-345Y14145D01*
X-282Y14063D01*
X-199Y13999D01*
X-103Y13959D01*
X-0Y13946D01*
X103Y13959D01*
X199Y13999D01*
X282Y14063D01*
X345Y14145D01*
X385Y14241D01*
X399Y14344D01*
X386Y14442D01*
X1886Y15942D01*
X7722D01*
X7888Y15776D01*
X7883Y15760D01*
X7862Y15731D01*
X7770Y15743D01*
X7666Y15730D01*
X7570Y15690D01*
X7488Y15626D01*
X7424Y15544D01*
X7423Y15540D01*
X7388Y15533D01*
X7322Y15489D01*
X7278Y15423D01*
X7274Y15402D01*
X7216Y15344D01*
X7166Y15364D01*
X7155Y15448D01*
X7115Y15544D01*
X7052Y15626D01*
X6969Y15690D01*
X6873Y15730D01*
X6820Y15737D01*
Y15344D01*
X6770D01*
Y15294D01*
X6378D01*
X6385Y15241D01*
X6424Y15145D01*
X6459Y15100D01*
X6435Y15050D01*
X6396D01*
X6318Y15034D01*
X6252Y14990D01*
X5892Y14630D01*
X5848Y14564D01*
X5832Y14486D01*
Y11442D01*
X5805Y11436D01*
X5766Y11410D01*
X5716Y11437D01*
Y14468D01*
X5700Y14547D01*
X5656Y14613D01*
X5279Y14990D01*
X5213Y15034D01*
X5134Y15050D01*
X4469D01*
X4444Y15100D01*
X4479Y15145D01*
X4519Y15241D01*
X4533Y15344D01*
X4519Y15448D01*
X4479Y15544D01*
X4416Y15626D01*
X4333Y15690D01*
X4237Y15730D01*
X4134Y15743D01*
X4031Y15730D01*
X3935Y15690D01*
X3852Y15626D01*
X3789Y15544D01*
X3749Y15448D01*
X3735Y15344D01*
X3749Y15241D01*
X3789Y15145D01*
X3840Y15078D01*
X3840Y15078D01*
X3835Y15027D01*
X3830Y15016D01*
X3791Y14990D01*
X3494Y14694D01*
X3463Y14647D01*
X3449Y14641D01*
X3410Y14636D01*
X3401Y14638D01*
X3333Y14690D01*
X3237Y14730D01*
X3134Y14743D01*
X3031Y14730D01*
X2935Y14690D01*
X2852Y14626D01*
X2789Y14544D01*
X2749Y14448D01*
X2735Y14344D01*
X2749Y14241D01*
X2789Y14145D01*
X2852Y14063D01*
X2930Y14003D01*
Y8848D01*
X2884Y8813D01*
X2828Y8740D01*
X2793Y8654D01*
X2781Y8563D01*
X2793Y8472D01*
X2821Y8405D01*
X2778Y8376D01*
X1993Y9161D01*
X2014Y9211D01*
X2049D01*
Y9687D01*
X1494D01*
Y9211D01*
X1568D01*
Y9094D01*
X1583Y9016D01*
X1627Y8950D01*
X3143Y7435D01*
X3123Y7389D01*
X2049D01*
Y7423D01*
X1494D01*
Y6947D01*
X2049D01*
Y6981D01*
X3123D01*
X3143Y6935D01*
X1627Y5420D01*
X1583Y5354D01*
X1568Y5276D01*
Y4962D01*
X1494D01*
Y4487D01*
X2049D01*
Y4962D01*
X1976D01*
Y5191D01*
X3751Y6967D01*
X3978D01*
Y7180D01*
X4024Y7200D01*
X4132Y7092D01*
X4198Y7047D01*
X4244Y7038D01*
X4276Y7032D01*
X4290Y6985D01*
Y6861D01*
X4587D01*
X4883D01*
X4883Y7029D01*
X4932Y7032D01*
X5665D01*
X6635Y6062D01*
X6616Y6015D01*
X6199D01*
Y5932D01*
X5198D01*
Y5946D01*
X4644D01*
Y5893D01*
X4214D01*
Y5946D01*
X3660D01*
Y5929D01*
X3630Y5893D01*
X3552Y5877D01*
X3486Y5833D01*
X2218Y4565D01*
X2174Y4499D01*
X2158Y4421D01*
Y4199D01*
X2095Y4135D01*
X2049Y4155D01*
Y4372D01*
X1494D01*
Y4145D01*
X400Y3051D01*
X358Y3079D01*
X385Y3145D01*
X399Y3248D01*
X385Y3351D01*
X345Y3447D01*
X282Y3530D01*
X199Y3593D01*
X103Y3633D01*
X-0Y3647D01*
X-103Y3633D01*
X-199Y3593D01*
X-282Y3530D01*
X-345Y3447D01*
X-385Y3351D01*
X-399Y3248D01*
X-385Y3145D01*
X-345Y3049D01*
X-282Y2966D01*
X-199Y2903D01*
X-103Y2863D01*
X-0Y2849D01*
X103Y2863D01*
X169Y2890D01*
X197Y2848D01*
X-7Y2643D01*
X-395D01*
Y1853D01*
X395D01*
Y2469D01*
X1321Y3395D01*
X1367Y3370D01*
X1355Y3311D01*
Y1818D01*
X1277Y1758D01*
X1214Y1676D01*
X1174Y1580D01*
X1160Y1476D01*
X1174Y1373D01*
X1214Y1277D01*
X1277Y1194D01*
X1360Y1131D01*
X1456Y1091D01*
X1559Y1078D01*
X1662Y1091D01*
X1758Y1131D01*
X1841Y1194D01*
X1904Y1277D01*
X1944Y1373D01*
X1958Y1476D01*
X1944Y1580D01*
X1904Y1676D01*
X1841Y1758D01*
X1763Y1818D01*
Y3227D01*
X2177Y3640D01*
X2223Y3621D01*
Y3168D01*
X2257D01*
Y1872D01*
X2164D01*
Y1081D01*
X2954D01*
Y1872D01*
X2665D01*
Y3168D01*
X2698D01*
Y3722D01*
X2324D01*
X2305Y3768D01*
X2506Y3970D01*
X2551Y4036D01*
X2566Y4114D01*
Y4337D01*
X3610Y5380D01*
X3660Y5360D01*
Y5188D01*
X4214D01*
Y5381D01*
X4214Y5395D01*
Y5435D01*
X4239Y5485D01*
X4609D01*
X4644Y5450D01*
X4644Y5395D01*
X4644Y5381D01*
Y5188D01*
X5198D01*
Y5381D01*
X5198Y5395D01*
Y5431D01*
X5198Y5445D01*
Y5505D01*
X5227Y5524D01*
X6199D01*
Y5441D01*
X6793D01*
Y5838D01*
X6839Y5857D01*
X7132Y5564D01*
X7198Y5520D01*
X7276Y5505D01*
X7400D01*
Y5471D01*
X7954D01*
X7954Y5913D01*
X7954Y5939D01*
X7970Y5964D01*
X7970D01*
X7970Y5964D01*
X8015Y5982D01*
X14669D01*
X14688Y5936D01*
X13752Y5000D01*
X10376D01*
Y5100D01*
X9900D01*
Y4546D01*
X9973D01*
Y4361D01*
X9965Y4356D01*
X9923Y4338D01*
X9892Y4344D01*
X9006D01*
X8967Y4336D01*
X8961Y4332D01*
X8404D01*
Y3424D01*
X8904D01*
Y3061D01*
X8912Y3022D01*
X8934Y2989D01*
X8967Y2967D01*
X9006Y2959D01*
X9040D01*
X9059Y2913D01*
X8576Y2430D01*
X8532Y2364D01*
X8517Y2286D01*
Y1891D01*
X8404D01*
Y983D01*
X8995D01*
X9006Y981D01*
X9892D01*
X9902Y983D01*
X10494D01*
Y1891D01*
X9994D01*
Y2264D01*
X9986Y2303D01*
X9964Y2336D01*
X9931Y2358D01*
X9892Y2366D01*
X9154D01*
X9135Y2412D01*
X9354Y2631D01*
X10796D01*
Y983D01*
X15189D01*
Y4687D01*
X14081D01*
X14062Y4733D01*
X20046Y10717D01*
X20092Y10698D01*
Y10438D01*
X20026Y10387D01*
X19970Y10314D01*
X19935Y10229D01*
X19923Y10138D01*
X19935Y10046D01*
X19970Y9961D01*
X20026Y9888D01*
X20099Y9832D01*
X20184Y9797D01*
X20276Y9785D01*
X20367Y9797D01*
X20452Y9832D01*
X20525Y9888D01*
X20581Y9961D01*
X20617Y10046D01*
X20629Y10138D01*
X20617Y10229D01*
X20581Y10314D01*
X20525Y10387D01*
X20500Y10407D01*
Y11712D01*
X21753Y12965D01*
X21850Y12952D01*
X21954Y12965D01*
X22050Y13005D01*
X22132Y13068D01*
X22196Y13151D01*
X22236Y13247D01*
X22249Y13350D01*
X22236Y13454D01*
X22196Y13550D01*
X22132Y13632D01*
X22050Y13696D01*
X21954Y13735D01*
X21850Y13749D01*
X21747Y13735D01*
X21651Y13696D01*
X21568Y13632D01*
X21505Y13550D01*
X21465Y13454D01*
X21452Y13350D01*
X21465Y13253D01*
X20246Y12035D01*
X20200Y12054D01*
Y15556D01*
X20185Y15635D01*
X20140Y15701D01*
X19247Y16594D01*
X19181Y16638D01*
X19103Y16654D01*
X10875D01*
X10875Y16654D01*
D02*
G37*
G36*
X23242Y15300D02*
X22900D01*
Y14958D01*
X22954Y14965D01*
X23050Y15005D01*
X23132Y15068D01*
X23196Y15151D01*
X23235Y15247D01*
X23242Y15300D01*
D02*
G37*
G36*
X22900Y15742D02*
Y15400D01*
X23242D01*
X23235Y15454D01*
X23196Y15550D01*
X23132Y15632D01*
X23050Y15696D01*
X22954Y15735D01*
X22900Y15742D01*
D02*
G37*
G36*
X0Y18804D02*
X-170Y18791D01*
X-336Y18751D01*
X-494Y18686D01*
X-639Y18596D01*
X-769Y18486D01*
X-880Y18356D01*
X-969Y18210D01*
X-1034Y18053D01*
X-1074Y17887D01*
X-1088Y17717D01*
X-1074Y17546D01*
X-1034Y17380D01*
X-969Y17223D01*
X-880Y17077D01*
X-769Y16947D01*
X-639Y16837D01*
X-494Y16747D01*
X-336Y16682D01*
X-170Y16642D01*
X0Y16629D01*
X170Y16642D01*
X336Y16682D01*
X494Y16747D01*
X639Y16837D01*
X769Y16947D01*
X880Y17077D01*
X969Y17223D01*
X1034Y17380D01*
X1074Y17546D01*
X1088Y17717D01*
X1074Y17887D01*
X1034Y18053D01*
X969Y18210D01*
X880Y18356D01*
X769Y18486D01*
X639Y18596D01*
X494Y18686D01*
X336Y18751D01*
X170Y18791D01*
X0Y18804D01*
D02*
G37*
G36*
X23622D02*
X23452Y18791D01*
X23286Y18751D01*
X23128Y18686D01*
X22983Y18596D01*
X22853Y18486D01*
X22742Y18356D01*
X22653Y18210D01*
X22588Y18053D01*
X22548Y17887D01*
X22534Y17717D01*
X22548Y17546D01*
X22588Y17380D01*
X22653Y17223D01*
X22742Y17077D01*
X22853Y16947D01*
X22983Y16837D01*
X23128Y16747D01*
X23286Y16682D01*
X23452Y16642D01*
X23622Y16629D01*
X23792Y16642D01*
X23958Y16682D01*
X24116Y16747D01*
X24261Y16837D01*
X24391Y16947D01*
X24502Y17077D01*
X24591Y17223D01*
X24656Y17380D01*
X24696Y17546D01*
X24710Y17717D01*
X24696Y17887D01*
X24656Y18053D01*
X24591Y18210D01*
X24502Y18356D01*
X24391Y18486D01*
X24261Y18596D01*
X24116Y18686D01*
X23958Y18751D01*
X23792Y18791D01*
X23622Y18804D01*
D02*
G37*
G36*
X22800Y15742D02*
X22747Y15735D01*
X22651Y15696D01*
X22568Y15632D01*
X22505Y15550D01*
X22465Y15454D01*
X22458Y15400D01*
X22800D01*
Y15742D01*
D02*
G37*
G36*
X2084Y15737D02*
X2031Y15730D01*
X1935Y15690D01*
X1852Y15626D01*
X1789Y15544D01*
X1749Y15448D01*
X1742Y15394D01*
X2084D01*
Y15737D01*
D02*
G37*
G36*
X2184D02*
Y15394D01*
X2526D01*
X2519Y15448D01*
X2479Y15544D01*
X2416Y15626D01*
X2333Y15690D01*
X2237Y15730D01*
X2184Y15737D01*
D02*
G37*
G36*
X6720D02*
X6666Y15730D01*
X6570Y15690D01*
X6488Y15626D01*
X6424Y15544D01*
X6385Y15448D01*
X6378Y15394D01*
X6720D01*
Y15737D01*
D02*
G37*
G36*
X-50Y12740D02*
X-395D01*
Y12394D01*
X-50D01*
Y12740D01*
D02*
G37*
G36*
X395D02*
X50D01*
Y12394D01*
X395D01*
Y12740D01*
D02*
G37*
G36*
X-0Y13743D02*
X-103Y13730D01*
X-199Y13690D01*
X-282Y13626D01*
X-345Y13544D01*
X-385Y13448D01*
X-399Y13344D01*
X-385Y13241D01*
X-345Y13145D01*
X-282Y13063D01*
X-199Y12999D01*
X-103Y12959D01*
X-0Y12946D01*
X103Y12959D01*
X199Y12999D01*
X282Y13063D01*
X345Y13145D01*
X385Y13241D01*
X399Y13344D01*
X385Y13448D01*
X345Y13544D01*
X282Y13626D01*
X199Y13690D01*
X103Y13730D01*
X-0Y13743D01*
D02*
G37*
G36*
X21850Y12749D02*
X21747Y12735D01*
X21651Y12696D01*
X21568Y12632D01*
X21505Y12550D01*
X21465Y12454D01*
X21452Y12350D01*
X21465Y12247D01*
X21505Y12151D01*
X21568Y12068D01*
X21651Y12005D01*
X21747Y11965D01*
X21850Y11952D01*
X21954Y11965D01*
X22050Y12005D01*
X22132Y12068D01*
X22196Y12151D01*
X22236Y12247D01*
X22249Y12350D01*
X22236Y12454D01*
X22196Y12550D01*
X22132Y12632D01*
X22050Y12696D01*
X21954Y12735D01*
X21850Y12749D01*
D02*
G37*
G36*
X395Y10352D02*
X-395D01*
Y9561D01*
X395D01*
Y9835D01*
X1494D01*
Y9802D01*
X2049D01*
Y10277D01*
X1494D01*
Y10243D01*
X395D01*
Y10352D01*
D02*
G37*
G36*
X-50Y12294D02*
X-395D01*
Y11949D01*
X-50D01*
Y12294D01*
D02*
G37*
G36*
X395D02*
X50D01*
Y11949D01*
X395D01*
Y12294D01*
D02*
G37*
G36*
X2529Y14740D02*
X1739D01*
Y13949D01*
X2529D01*
Y14740D01*
D02*
G37*
G36*
X22850Y14749D02*
X22747Y14735D01*
X22651Y14696D01*
X22568Y14632D01*
X22505Y14550D01*
X22465Y14454D01*
X22452Y14350D01*
X22465Y14247D01*
X22505Y14151D01*
X22568Y14068D01*
X22651Y14005D01*
X22747Y13965D01*
X22850Y13952D01*
X22948Y13965D01*
X23142Y13770D01*
Y13688D01*
X23092Y13663D01*
X23050Y13696D01*
X22954Y13735D01*
X22850Y13749D01*
X22747Y13735D01*
X22651Y13696D01*
X22568Y13632D01*
X22505Y13550D01*
X22465Y13454D01*
X22452Y13350D01*
X22465Y13247D01*
X22505Y13151D01*
X22568Y13068D01*
X22651Y13005D01*
X22747Y12965D01*
X22850Y12952D01*
X22954Y12965D01*
X23050Y13005D01*
X23092Y13038D01*
X23142Y13013D01*
Y12688D01*
X23092Y12663D01*
X23050Y12696D01*
X22954Y12735D01*
X22850Y12749D01*
X22747Y12735D01*
X22651Y12696D01*
X22568Y12632D01*
X22505Y12550D01*
X22465Y12454D01*
X22452Y12350D01*
X22465Y12247D01*
X22505Y12151D01*
X22568Y12068D01*
X22651Y12005D01*
X22747Y11965D01*
X22850Y11952D01*
X22954Y11965D01*
X23050Y12005D01*
X23092Y12038D01*
X23142Y12013D01*
Y10324D01*
X22957Y10139D01*
X22455D01*
Y9349D01*
X22646D01*
Y7777D01*
X22455D01*
Y7275D01*
X22271Y7091D01*
X22188D01*
X22163Y7141D01*
X22196Y7183D01*
X22236Y7279D01*
X22249Y7382D01*
X22236Y7485D01*
X22196Y7581D01*
X22132Y7664D01*
X22050Y7727D01*
X21954Y7767D01*
X21850Y7781D01*
X21747Y7767D01*
X21651Y7727D01*
X21568Y7664D01*
X21505Y7581D01*
X21465Y7485D01*
X21452Y7382D01*
X21465Y7279D01*
X21492Y7213D01*
X21450Y7185D01*
X20567Y8068D01*
X20581Y8169D01*
X20567Y8274D01*
X20527Y8371D01*
X20462Y8455D01*
X20379Y8519D01*
X20282Y8559D01*
X20177Y8573D01*
X20073Y8559D01*
X19975Y8519D01*
X19892Y8455D01*
X19828Y8371D01*
X19811Y8329D01*
X19756D01*
X19739Y8371D01*
X19675Y8455D01*
X19591Y8519D01*
X19494Y8559D01*
X19390Y8573D01*
X19285Y8559D01*
X19188Y8519D01*
X19104Y8455D01*
X19040Y8371D01*
X19023Y8329D01*
X18969D01*
X18952Y8371D01*
X18888Y8455D01*
X18804Y8519D01*
X18707Y8559D01*
X18652Y8566D01*
Y8169D01*
Y7772D01*
X18707Y7780D01*
X18804Y7820D01*
X18888Y7884D01*
X18952Y7968D01*
X18969Y8009D01*
X19023D01*
X19040Y7968D01*
X19104Y7884D01*
X19188Y7820D01*
X19285Y7780D01*
X19390Y7766D01*
X19494Y7780D01*
X19591Y7820D01*
X19675Y7884D01*
X19739Y7968D01*
X19756Y8009D01*
X19811D01*
X19828Y7968D01*
X19892Y7884D01*
X19975Y7820D01*
X20073Y7780D01*
X20177Y7766D01*
X20279Y7779D01*
X21218Y6841D01*
X17735Y3358D01*
X16967D01*
Y1367D01*
X18072D01*
Y3119D01*
X21248Y6294D01*
X21298Y6273D01*
Y4319D01*
X22403D01*
Y6311D01*
X21335D01*
X21314Y6361D01*
X21636Y6683D01*
X22355D01*
X22433Y6698D01*
X22499Y6742D01*
X22600Y6843D01*
X22646Y6824D01*
Y3939D01*
X22066Y3358D01*
X21298D01*
Y1367D01*
X22403D01*
Y3119D01*
X22995Y3710D01*
X22995Y3710D01*
X23039Y3776D01*
X23054Y3854D01*
X23054Y3854D01*
Y6987D01*
X23246D01*
Y7777D01*
X23054D01*
Y9349D01*
X23246D01*
Y9851D01*
X23490Y10096D01*
X23490Y10096D01*
X23535Y10162D01*
X23550Y10240D01*
X23550Y10240D01*
Y13854D01*
X23550Y13854D01*
X23535Y13933D01*
X23490Y13999D01*
X23490Y13999D01*
X23236Y14253D01*
X23249Y14350D01*
X23235Y14454D01*
X23196Y14550D01*
X23132Y14632D01*
X23050Y14696D01*
X22954Y14735D01*
X22850Y14749D01*
D02*
G37*
G36*
X21850D02*
X21747Y14735D01*
X21651Y14696D01*
X21568Y14632D01*
X21505Y14550D01*
X21465Y14454D01*
X21452Y14350D01*
X21465Y14247D01*
X21505Y14151D01*
X21568Y14068D01*
X21651Y14005D01*
X21747Y13965D01*
X21850Y13952D01*
X21954Y13965D01*
X22050Y14005D01*
X22132Y14068D01*
X22196Y14151D01*
X22236Y14247D01*
X22249Y14350D01*
X22236Y14454D01*
X22196Y14550D01*
X22132Y14632D01*
X22050Y14696D01*
X21954Y14735D01*
X21850Y14749D01*
D02*
G37*
%LPD*%
G36*
X19465Y15799D02*
X19447Y15746D01*
X19395Y15739D01*
X19299Y15700D01*
X19216Y15636D01*
X19153Y15554D01*
X19113Y15458D01*
X19106Y15404D01*
X19498D01*
Y15354D01*
X19548D01*
Y14962D01*
X19601Y14969D01*
X19697Y15009D01*
X19742Y15044D01*
X19792Y15019D01*
Y14690D01*
X19742Y14665D01*
X19697Y14700D01*
X19601Y14739D01*
X19498Y14753D01*
X19395Y14739D01*
X19299Y14700D01*
X19216Y14636D01*
X19153Y14554D01*
X19113Y14458D01*
X19099Y14354D01*
X19113Y14251D01*
X19153Y14155D01*
X19216Y14072D01*
X19299Y14009D01*
X19395Y13969D01*
X19498Y13956D01*
X19601Y13969D01*
X19697Y14009D01*
X19742Y14044D01*
X19792Y14019D01*
Y13690D01*
X19742Y13665D01*
X19697Y13700D01*
X19601Y13739D01*
X19498Y13753D01*
X19395Y13739D01*
X19299Y13700D01*
X19216Y13636D01*
X19153Y13554D01*
X19113Y13458D01*
X19099Y13354D01*
X19113Y13251D01*
X19153Y13155D01*
X19216Y13072D01*
X19299Y13009D01*
X19395Y12969D01*
X19498Y12956D01*
X19601Y12969D01*
X19697Y13009D01*
X19742Y13044D01*
X19792Y13019D01*
Y12690D01*
X19742Y12665D01*
X19697Y12700D01*
X19601Y12739D01*
X19498Y12753D01*
X19395Y12739D01*
X19299Y12700D01*
X19250Y12662D01*
X19200Y12686D01*
X19185Y12764D01*
X19140Y12830D01*
X18970Y13000D01*
X18904Y13044D01*
X18832Y13059D01*
X18821Y13076D01*
X18809Y13110D01*
X18843Y13155D01*
X18883Y13251D01*
X18897Y13354D01*
X18883Y13458D01*
X18843Y13554D01*
X18780Y13636D01*
X18697Y13700D01*
X18601Y13739D01*
X18498Y13753D01*
X18395Y13739D01*
X18299Y13700D01*
X18216Y13636D01*
X18153Y13554D01*
X18113Y13458D01*
X18099Y13354D01*
X18113Y13251D01*
X18153Y13155D01*
X18187Y13110D01*
X18163Y13060D01*
X16693D01*
X16669Y13110D01*
X16704Y13155D01*
X16743Y13251D01*
X16757Y13354D01*
X16743Y13458D01*
X16704Y13554D01*
X16640Y13636D01*
X16558Y13700D01*
X16461Y13739D01*
X16358Y13753D01*
X16255Y13739D01*
X16159Y13700D01*
X16076Y13636D01*
X16013Y13554D01*
X15973Y13458D01*
X15960Y13354D01*
X15973Y13251D01*
X16013Y13155D01*
X16048Y13110D01*
X16023Y13060D01*
X15941D01*
X15744Y13257D01*
X15757Y13354D01*
X15743Y13458D01*
X15704Y13554D01*
X15640Y13636D01*
X15558Y13700D01*
X15461Y13739D01*
X15358Y13753D01*
X15255Y13739D01*
X15159Y13700D01*
X15076Y13636D01*
X15013Y13554D01*
X14973Y13458D01*
X14960Y13354D01*
X14973Y13251D01*
X15013Y13155D01*
X15076Y13072D01*
X15159Y13009D01*
X15255Y12969D01*
X15358Y12956D01*
X15456Y12968D01*
X15713Y12712D01*
X15713Y12712D01*
X15779Y12667D01*
X15857Y12652D01*
X16025D01*
X16050Y12602D01*
X16013Y12554D01*
X15973Y12458D01*
X15960Y12354D01*
X15973Y12251D01*
X16013Y12155D01*
X16076Y12072D01*
X16159Y12009D01*
X16255Y11969D01*
X16358Y11956D01*
X16461Y11969D01*
X16558Y12009D01*
X16640Y12072D01*
X16704Y12155D01*
X16743Y12251D01*
X16757Y12354D01*
X16743Y12458D01*
X16704Y12554D01*
X16667Y12602D01*
X16691Y12652D01*
X18165D01*
X18190Y12602D01*
X18153Y12554D01*
X18113Y12458D01*
X18099Y12354D01*
X18112Y12257D01*
X14790Y8935D01*
X14738Y8953D01*
X14736Y8975D01*
X15502Y9742D01*
X15547Y9808D01*
X15562Y9886D01*
Y12013D01*
X15640Y12072D01*
X15704Y12155D01*
X15743Y12251D01*
X15757Y12354D01*
X15743Y12458D01*
X15704Y12554D01*
X15640Y12636D01*
X15558Y12700D01*
X15461Y12739D01*
X15358Y12753D01*
X15255Y12739D01*
X15159Y12700D01*
X15076Y12636D01*
X15013Y12554D01*
X14973Y12458D01*
X14960Y12354D01*
X14973Y12251D01*
X15013Y12155D01*
X15076Y12072D01*
X15154Y12013D01*
Y9970D01*
X14474Y9290D01*
X14457Y9298D01*
X14365Y9310D01*
X14274Y9298D01*
X14189Y9262D01*
X14116Y9206D01*
X14110Y9199D01*
X14060Y9216D01*
Y14844D01*
X14045Y14923D01*
X14000Y14989D01*
X13742Y15247D01*
X13755Y15344D01*
X13741Y15448D01*
X13702Y15544D01*
X13662Y15596D01*
X13686Y15646D01*
X14963D01*
Y14959D01*
X15754D01*
Y15646D01*
X16021D01*
X16045Y15596D01*
X16013Y15554D01*
X15973Y15458D01*
X15966Y15404D01*
X16358D01*
X16750D01*
X16743Y15458D01*
X16704Y15554D01*
X16671Y15596D01*
X16696Y15646D01*
X16918D01*
X18112Y14452D01*
X18099Y14354D01*
X18113Y14251D01*
X18153Y14155D01*
X18216Y14072D01*
X18299Y14009D01*
X18395Y13969D01*
X18498Y13956D01*
X18601Y13969D01*
X18697Y14009D01*
X18780Y14072D01*
X18843Y14155D01*
X18883Y14251D01*
X18897Y14354D01*
X18883Y14458D01*
X18843Y14554D01*
X18780Y14636D01*
X18697Y14700D01*
X18601Y14739D01*
X18498Y14753D01*
X18401Y14740D01*
X18228Y14913D01*
X18247Y14959D01*
X18893D01*
Y15750D01*
X18391D01*
X17941Y16199D01*
X17960Y16246D01*
X19019D01*
X19465Y15799D01*
D02*
G37*
G36*
X7197Y7375D02*
X7197Y7375D01*
X11685D01*
Y6959D01*
X12299D01*
Y7375D01*
X13685D01*
Y6390D01*
X12299D01*
Y6859D01*
X11685D01*
Y6390D01*
X8081D01*
X7134Y7336D01*
X7159Y7382D01*
X7197Y7375D01*
D02*
G37*
G36*
X7885Y11412D02*
X7916Y11418D01*
X7953Y11443D01*
X7992Y11461D01*
X8031Y11443D01*
X8068Y11418D01*
X8150Y11402D01*
X8231Y11418D01*
X8268Y11443D01*
X8307Y11461D01*
X8346Y11443D01*
X8383Y11418D01*
X8465Y11402D01*
X8538Y11417D01*
X8555Y11414D01*
X8600Y11394D01*
X8635Y11342D01*
X8701Y11297D01*
X8780Y11282D01*
X8858Y11297D01*
X8909Y11331D01*
X8954Y11303D01*
X8941Y11240D01*
X8957Y11159D01*
X8982Y11121D01*
X9000Y11083D01*
X8982Y11044D01*
X8957Y11006D01*
X8941Y10925D01*
X8957Y10844D01*
X8982Y10806D01*
X9000Y10768D01*
X8982Y10729D01*
X8957Y10692D01*
X8941Y10610D01*
X8957Y10529D01*
X9003Y10460D01*
Y10445D01*
X8957Y10377D01*
X8941Y10295D01*
X8957Y10214D01*
X8982Y10177D01*
X9000Y10138D01*
X8982Y10099D01*
X8957Y10062D01*
X8941Y9980D01*
X8957Y9899D01*
X8982Y9862D01*
X9000Y9823D01*
X8982Y9784D01*
X8957Y9747D01*
X8941Y9665D01*
X8957Y9584D01*
X8982Y9547D01*
X9000Y9508D01*
X8982Y9469D01*
X8977Y9460D01*
X8915Y9458D01*
X8895Y9485D01*
X8822Y9541D01*
X8736Y9577D01*
X8645Y9589D01*
X8554Y9577D01*
X8529Y9566D01*
X8491Y9604D01*
X8503Y9696D01*
X8491Y9787D01*
X8455Y9872D01*
X8399Y9945D01*
X8326Y10002D01*
X8241Y10037D01*
X8150Y10049D01*
X8058Y10037D01*
X7973Y10002D01*
X7900Y9945D01*
X7844Y9872D01*
X7809Y9787D01*
X7797Y9696D01*
X7809Y9604D01*
X7844Y9519D01*
X7900Y9446D01*
X7946Y9411D01*
Y8893D01*
X7896Y8862D01*
X7835Y8874D01*
X7753Y8858D01*
X7734Y8845D01*
X7684Y8872D01*
Y9066D01*
X7730Y9101D01*
X7786Y9174D01*
X7821Y9259D01*
X7833Y9350D01*
X7821Y9442D01*
X7786Y9527D01*
X7730Y9600D01*
X7657Y9656D01*
X7641Y9663D01*
Y11301D01*
X7664Y11324D01*
X7708Y11390D01*
X7710Y11400D01*
X7764Y11416D01*
X7785Y11412D01*
Y11772D01*
X7885D01*
Y11412D01*
D02*
G37*
G36*
X13043Y15586D02*
X13011Y15544D01*
X12971Y15448D01*
X12958Y15344D01*
X12971Y15241D01*
X13011Y15145D01*
X13074Y15063D01*
X13157Y14999D01*
X13253Y14959D01*
X13356Y14946D01*
X13454Y14959D01*
X13652Y14760D01*
Y14679D01*
X13602Y14654D01*
X13556Y14690D01*
X13459Y14730D01*
X13356Y14743D01*
X13253Y14730D01*
X13157Y14690D01*
X13074Y14626D01*
X13015Y14548D01*
X13006D01*
X12928Y14533D01*
X12862Y14489D01*
X12791Y14417D01*
X12743Y14433D01*
X12741Y14448D01*
X12702Y14544D01*
X12638Y14626D01*
X12556Y14690D01*
X12459Y14730D01*
X12356Y14743D01*
X12253Y14730D01*
X12157Y14690D01*
X12074Y14626D01*
X12011Y14544D01*
X11971Y14448D01*
X11958Y14344D01*
X11971Y14241D01*
X12011Y14145D01*
X12074Y14063D01*
X12157Y13999D01*
X12253Y13959D01*
X12356Y13946D01*
X12459Y13959D01*
X12556Y13999D01*
X12602Y14035D01*
X12652Y14010D01*
Y13679D01*
X12602Y13654D01*
X12556Y13690D01*
X12459Y13730D01*
X12356Y13743D01*
X12253Y13730D01*
X12157Y13690D01*
X12074Y13626D01*
X12011Y13544D01*
X11971Y13448D01*
X11958Y13344D01*
X11971Y13241D01*
X12011Y13145D01*
X12074Y13063D01*
X12157Y12999D01*
X12253Y12959D01*
X12356Y12946D01*
X12459Y12959D01*
X12556Y12999D01*
X12602Y13035D01*
X12652Y13010D01*
Y12679D01*
X12602Y12654D01*
X12556Y12690D01*
X12459Y12730D01*
X12406Y12737D01*
Y12344D01*
Y11952D01*
X12459Y11959D01*
X12556Y11999D01*
X12602Y12035D01*
X12652Y12010D01*
Y9893D01*
X12602Y9876D01*
X12572Y9915D01*
X12499Y9971D01*
X12414Y10006D01*
X12323Y10018D01*
X12231Y10006D01*
X12146Y9971D01*
X12073Y9915D01*
X12038Y9869D01*
X11033D01*
X11014Y9915D01*
X11640Y10542D01*
X11685Y10608D01*
X11700Y10686D01*
Y15152D01*
X11914Y15366D01*
X11932Y15357D01*
X11958Y15339D01*
X11971Y15241D01*
X12011Y15145D01*
X12074Y15063D01*
X12157Y14999D01*
X12253Y14959D01*
X12356Y14946D01*
X12459Y14959D01*
X12556Y14999D01*
X12638Y15063D01*
X12702Y15145D01*
X12741Y15241D01*
X12755Y15344D01*
X12741Y15448D01*
X12702Y15544D01*
X12669Y15586D01*
X12694Y15636D01*
X13019D01*
X13043Y15586D01*
D02*
G37*
G36*
X6374Y14470D02*
Y14167D01*
X6371Y14150D01*
Y11971D01*
X6362Y11929D01*
Y11614D01*
X6379Y11533D01*
X6425Y11464D01*
X6494Y11418D01*
X6575Y11402D01*
X6656Y11418D01*
X6725Y11464D01*
X6740D01*
X6809Y11418D01*
X6890Y11402D01*
X6971Y11418D01*
X7008Y11443D01*
X7047Y11461D01*
X7086Y11443D01*
X7123Y11418D01*
X7205Y11402D01*
X7233Y11356D01*
Y9602D01*
X7231Y9600D01*
X7175Y9527D01*
X7139Y9442D01*
X7127Y9350D01*
X7139Y9259D01*
X7175Y9174D01*
X7231Y9101D01*
X7276Y9066D01*
Y8899D01*
X7255Y8881D01*
Y8504D01*
Y8144D01*
X7286Y8150D01*
X7355Y8196D01*
X7370D01*
X7438Y8150D01*
X7520Y8134D01*
X7601Y8150D01*
X7670Y8196D01*
X7684D01*
X7753Y8150D01*
X7835Y8134D01*
X7916Y8150D01*
X7985Y8196D01*
X7999D01*
X8068Y8150D01*
X8150Y8134D01*
X8216Y8147D01*
X8272Y8122D01*
X8276Y8102D01*
X8320Y8036D01*
X8462Y7894D01*
X8528Y7850D01*
X8606Y7834D01*
X8606Y7834D01*
X11625D01*
X11646Y7784D01*
X11645Y7783D01*
X7281D01*
X7094Y7970D01*
Y8115D01*
X7144Y8146D01*
X7155Y8144D01*
Y8504D01*
Y8864D01*
X7123Y8858D01*
X7055Y8812D01*
X7040D01*
X6971Y8858D01*
X6890Y8874D01*
X6809Y8858D01*
X6740Y8812D01*
X6725D01*
X6656Y8858D01*
X6575Y8874D01*
X6494Y8858D01*
X6425Y8812D01*
X6379Y8743D01*
X6362Y8661D01*
Y8346D01*
X6371Y8304D01*
Y8244D01*
X6321Y8227D01*
X6276Y8285D01*
X6230Y8321D01*
Y8829D01*
X6282Y8839D01*
X6351Y8885D01*
X6397Y8954D01*
X6413Y9035D01*
X6397Y9117D01*
X6351Y9186D01*
Y9200D01*
X6397Y9269D01*
X6413Y9350D01*
X6401Y9411D01*
X6407Y9421D01*
X6467Y9438D01*
X6552Y9403D01*
X6644Y9391D01*
X6735Y9403D01*
X6820Y9438D01*
X6893Y9494D01*
X6949Y9568D01*
X6985Y9653D01*
X6997Y9744D01*
X6985Y9835D01*
X6949Y9921D01*
X6893Y9994D01*
X6820Y10050D01*
X6735Y10085D01*
X6644Y10097D01*
X6552Y10085D01*
X6467Y10050D01*
X6446Y10033D01*
X6399Y10051D01*
X6397Y10062D01*
X6351Y10130D01*
Y10145D01*
X6397Y10214D01*
X6413Y10295D01*
X6397Y10377D01*
X6351Y10445D01*
Y10460D01*
X6397Y10529D01*
X6413Y10610D01*
X6401Y10671D01*
X6433Y10721D01*
X6522D01*
X6557Y10676D01*
X6630Y10619D01*
X6715Y10584D01*
X6806Y10572D01*
X6898Y10584D01*
X6983Y10619D01*
X7056Y10676D01*
X7112Y10749D01*
X7147Y10834D01*
X7159Y10925D01*
X7147Y11017D01*
X7112Y11102D01*
X7056Y11175D01*
X6983Y11231D01*
X6898Y11266D01*
X6806Y11278D01*
X6715Y11266D01*
X6630Y11231D01*
X6557Y11175D01*
X6522Y11129D01*
X6433D01*
X6401Y11179D01*
X6413Y11240D01*
X6397Y11321D01*
X6351Y11390D01*
X6282Y11436D01*
X6240Y11445D01*
Y14401D01*
X6328Y14489D01*
X6374Y14470D01*
D02*
G37*
%LPC*%
G36*
X16358Y14753D02*
X16255Y14739D01*
X16159Y14700D01*
X16076Y14636D01*
X16013Y14554D01*
X15973Y14458D01*
X15960Y14354D01*
X15973Y14251D01*
X16013Y14155D01*
X16076Y14072D01*
X16159Y14009D01*
X16255Y13969D01*
X16358Y13956D01*
X16461Y13969D01*
X16558Y14009D01*
X16640Y14072D01*
X16704Y14155D01*
X16743Y14251D01*
X16757Y14354D01*
X16743Y14458D01*
X16704Y14554D01*
X16640Y14636D01*
X16558Y14700D01*
X16461Y14739D01*
X16358Y14753D01*
D02*
G37*
G36*
X15358D02*
X15255Y14739D01*
X15159Y14700D01*
X15076Y14636D01*
X15013Y14554D01*
X14973Y14458D01*
X14960Y14354D01*
X14973Y14251D01*
X15013Y14155D01*
X15076Y14072D01*
X15159Y14009D01*
X15255Y13969D01*
X15358Y13956D01*
X15461Y13969D01*
X15558Y14009D01*
X15640Y14072D01*
X15704Y14155D01*
X15743Y14251D01*
X15757Y14354D01*
X15743Y14458D01*
X15704Y14554D01*
X15640Y14636D01*
X15558Y14700D01*
X15461Y14739D01*
X15358Y14753D01*
D02*
G37*
G36*
X16308Y15304D02*
X15966D01*
X15973Y15251D01*
X16013Y15155D01*
X16076Y15072D01*
X16159Y15009D01*
X16255Y14969D01*
X16308Y14962D01*
Y15304D01*
D02*
G37*
G36*
X16750D02*
X16408D01*
Y14962D01*
X16461Y14969D01*
X16558Y15009D01*
X16640Y15072D01*
X16704Y15155D01*
X16743Y15251D01*
X16750Y15304D01*
D02*
G37*
G36*
X19448D02*
X19106D01*
X19113Y15251D01*
X19153Y15155D01*
X19216Y15072D01*
X19299Y15009D01*
X19395Y14969D01*
X19448Y14962D01*
Y15304D01*
D02*
G37*
G36*
X12306Y12294D02*
X11964D01*
X11971Y12241D01*
X12011Y12145D01*
X12074Y12063D01*
X12157Y11999D01*
X12253Y11959D01*
X12306Y11952D01*
Y12294D01*
D02*
G37*
G36*
Y12737D02*
X12253Y12730D01*
X12157Y12690D01*
X12074Y12626D01*
X12011Y12544D01*
X11971Y12448D01*
X11964Y12394D01*
X12306D01*
Y12737D01*
D02*
G37*
%LPD*%
D10*
X8720Y1437D02*
D03*
X10177D02*
D03*
X8720Y3878D02*
D03*
X10177D02*
D03*
D11*
X4921Y5689D02*
D03*
Y5138D02*
D03*
X3937Y5689D02*
D03*
Y5138D02*
D03*
D12*
X9311Y11240D02*
D03*
Y10925D02*
D03*
Y10610D02*
D03*
Y10295D02*
D03*
Y9980D02*
D03*
Y9665D02*
D03*
Y9350D02*
D03*
Y9035D02*
D03*
X6043D02*
D03*
Y9350D02*
D03*
Y9665D02*
D03*
Y9980D02*
D03*
Y10295D02*
D03*
Y10610D02*
D03*
Y10925D02*
D03*
Y11240D02*
D03*
D13*
X8780Y8504D02*
D03*
X8465D02*
D03*
X8150D02*
D03*
X7835D02*
D03*
X7520D02*
D03*
X7205D02*
D03*
X6890D02*
D03*
X6575D02*
D03*
Y11772D02*
D03*
X6890D02*
D03*
X7205D02*
D03*
X7520D02*
D03*
X7835D02*
D03*
X8150D02*
D03*
X8465D02*
D03*
X8780D02*
D03*
D14*
X20177Y8169D02*
D03*
X18602D02*
D03*
X19390D02*
D03*
D15*
X10138Y4823D02*
D03*
X9547D02*
D03*
X2461Y3445D02*
D03*
X3051D02*
D03*
X5118D02*
D03*
X5709D02*
D03*
X7677D02*
D03*
X7087D02*
D03*
D16*
X7677Y5118D02*
D03*
Y5709D02*
D03*
X1772Y10039D02*
D03*
Y9449D02*
D03*
Y6594D02*
D03*
Y7185D02*
D03*
Y4134D02*
D03*
Y4724D02*
D03*
D17*
X6496Y5098D02*
D03*
Y5728D02*
D03*
D18*
X12992Y2835D02*
D03*
D19*
X11992Y6909D02*
D03*
X13992D02*
D03*
D20*
X4587Y6811D02*
D03*
Y7559D02*
D03*
X3681Y7185D02*
D03*
D21*
X21850Y5315D02*
D03*
Y2362D02*
D03*
X17520Y5315D02*
D03*
Y2362D02*
D03*
D22*
X7437Y9329D02*
Y11385D01*
Y9329D02*
X7480Y9285D01*
X10177Y3878D02*
Y4823D01*
X8780Y8496D02*
X12266D01*
X9252Y11240D02*
Y11713D01*
X10726Y11086D02*
Y13878D01*
X6026Y8036D02*
Y9035D01*
X9311Y9355D02*
X10625D01*
X7466Y15306D02*
Y15344D01*
X6036Y11240D02*
Y14486D01*
X20296Y11796D02*
X21850Y13350D01*
X20296Y10159D02*
Y11796D01*
X21552Y6887D02*
X22355D01*
X21460D02*
X21552D01*
X20177Y8169D02*
X21460Y6887D01*
X22850Y3854D02*
Y7382D01*
X21850Y2854D02*
X22850Y3854D01*
X21850Y2362D02*
Y2854D01*
X17520Y2854D02*
X21552Y6887D01*
X17520Y2362D02*
Y2854D01*
X22355Y6887D02*
X22850Y7382D01*
X14843Y6909D02*
X14862Y6890D01*
X13992Y6909D02*
X14843D01*
X4921Y5689D02*
X5113D01*
X10204Y4796D02*
X13836D01*
X19996Y10956D01*
X12100Y15840D02*
X13562D01*
X10791Y9980D02*
X11496Y10686D01*
X9311Y9980D02*
X10791D01*
X9311Y10610D02*
X10251D01*
X10726Y11086D01*
X6043Y10925D02*
X6806D01*
X6890Y11772D02*
Y12236D01*
X13356Y15344D02*
X13856Y14844D01*
X8465Y8180D02*
Y8504D01*
X6026Y9035D02*
X6043D01*
X15358Y9886D02*
Y12354D01*
X22850Y14350D02*
X23346Y13854D01*
Y10240D02*
Y13854D01*
X22850Y9744D02*
X23346Y10240D01*
X8720Y1437D02*
Y2286D01*
X9269Y2835D01*
X12992D01*
X6575Y7607D02*
Y8504D01*
Y7607D02*
X7996Y6186D01*
X18826Y12856D02*
X18996Y12686D01*
X15857Y12856D02*
X18826D01*
X15358Y13354D02*
X15857Y12856D01*
X4276Y7236D02*
X5749D01*
X7276Y5709D01*
X7677D01*
X5406Y9350D02*
X6043D01*
X7520Y11469D02*
Y11772D01*
X8780Y11486D02*
Y11772D01*
X6043Y9665D02*
X6566D01*
X7466Y15344D02*
X7770D01*
X7006Y14846D02*
X7466Y15306D01*
X6396Y14846D02*
X7006D01*
X6036Y14486D02*
X6396Y14846D01*
X6036Y11240D02*
X6043D01*
X6890Y7886D02*
Y8504D01*
X-0Y14344D02*
X1801Y16146D01*
X7806D01*
X8266Y15686D01*
X9311Y10925D02*
X9626D01*
X13006Y14344D02*
X13356D01*
X12856Y14194D02*
X13006Y14344D01*
X8780Y8496D02*
Y8504D01*
X83Y10039D02*
X1772D01*
X6575Y11772D02*
Y14150D01*
X3937Y5689D02*
X4921D01*
X22850Y7382D02*
Y9744D01*
X1772Y7185D02*
X3681D01*
X1772Y5276D02*
X3681Y7185D01*
X1772Y4724D02*
Y5276D01*
X-0Y6594D02*
X1772D01*
X-0Y2248D02*
Y2362D01*
X1772Y4134D01*
X2461Y1575D02*
X2559Y1476D01*
X2461Y1575D02*
Y3445D01*
X5118Y1476D02*
Y3445D01*
X7677Y1476D02*
Y3445D01*
X10177Y4823D02*
X10204Y4796D01*
X4488Y9980D02*
X6043D01*
X4134Y10335D02*
X4488Y9980D01*
X4134Y10335D02*
Y14344D01*
X3636Y7876D02*
Y14168D01*
X3639Y14170D01*
Y14550D01*
X3935Y14846D01*
X5134D01*
X5702Y10610D02*
X6043D01*
X1772Y9094D02*
Y9449D01*
Y9094D02*
X3681Y7185D01*
X3134Y8563D02*
Y14344D01*
X3636Y7876D02*
X4276Y7236D01*
X6516Y5118D02*
X7677D01*
X6496Y5098D02*
X6516Y5118D01*
X5074Y5728D02*
X6496D01*
X5074D02*
X5113Y5689D01*
X3630D02*
X3937D01*
X1559Y1476D02*
Y3311D01*
X2362Y4114D01*
Y4421D01*
X-0Y3248D02*
Y3335D01*
X7480Y8543D02*
X7520Y8504D01*
X7480Y8543D02*
Y9285D01*
X7437Y11385D02*
X7520Y11469D01*
X13856Y9166D02*
Y14844D01*
X14429Y8957D02*
X15358Y9886D01*
X12729Y8038D02*
X13856Y9166D01*
X8465Y8180D02*
X8606Y8038D01*
X14802Y6186D02*
X18996Y10380D01*
Y12686D01*
X7996Y6186D02*
X14802D01*
X6890Y7886D02*
X7197Y7579D01*
X11699D02*
X11703Y7582D01*
X12282D01*
X12285Y7579D01*
X13699D01*
X13703Y7582D01*
X13726D01*
X18498Y12354D01*
X14365Y8957D02*
X14429D01*
X8780Y11772D02*
Y13012D01*
X8266Y13484D02*
Y15686D01*
Y13484D02*
X8465Y13286D01*
Y11772D02*
Y13286D01*
X8780Y13012D02*
X9055Y13287D01*
X6890Y12236D02*
X7154Y12500D01*
X7677D01*
X7677Y12500D01*
X9252Y11240D02*
X9311D01*
X9626Y10925D02*
X10236Y11536D01*
X9055Y13287D02*
X9449D01*
X9028Y14344D02*
X10236Y13136D01*
X8770Y14344D02*
X9028D01*
X10236Y11536D02*
Y13136D01*
X4587Y7559D02*
Y8531D01*
X5406Y9350D01*
X5134Y14846D02*
X5512Y14468D01*
Y10800D02*
X5702Y10610D01*
X5512Y10800D02*
Y14468D01*
X-0Y9957D02*
X83Y10039D01*
X4851Y10602D02*
Y10728D01*
Y10602D02*
X5157Y10295D01*
X6043D01*
X12856Y9086D02*
Y14194D01*
X9311Y9665D02*
X12323D01*
X12266Y8496D02*
X12856Y9086D01*
X7480Y9285D02*
Y9350D01*
X8150Y8504D02*
Y9696D01*
X7197Y7579D02*
X11699D01*
X8606Y8038D02*
X12729D01*
X10625Y9355D02*
X10827Y9154D01*
X6566Y9665D02*
X6644Y9743D01*
Y9744D01*
X6575Y14150D02*
X6770Y14344D01*
X10728Y13878D02*
Y15354D01*
X11496Y15236D02*
X12100Y15840D01*
X11496Y10686D02*
Y15236D01*
X11524Y16150D02*
X17703D01*
X10728Y15354D02*
X11524Y16150D01*
X17703D02*
X18498Y15354D01*
X8770Y14344D02*
X10875Y16450D01*
X13562Y15840D02*
X13572Y15850D01*
X17003D01*
X18498Y14354D01*
X19103Y16450D02*
X19996Y15556D01*
X10875Y16450D02*
X19103D01*
X19996Y10956D02*
Y15556D01*
X20276Y10138D02*
X20296Y10159D01*
X8825Y9055D02*
X9350D01*
X2362Y4421D02*
X3630Y5689D01*
D23*
X22850Y9744D02*
D03*
Y7382D02*
D03*
X2134Y14344D02*
D03*
X6770D02*
D03*
X2559Y1476D02*
D03*
X5118D02*
D03*
X7677D02*
D03*
D24*
X21850Y9744D02*
D03*
Y7382D02*
D03*
X-0Y15344D02*
D03*
Y14344D02*
D03*
Y13344D02*
D03*
X2134Y15344D02*
D03*
X3134Y14344D02*
D03*
Y15344D02*
D03*
X4134Y14344D02*
D03*
Y15344D02*
D03*
X22850Y12350D02*
D03*
X21850D02*
D03*
X22850Y13350D02*
D03*
X21850D02*
D03*
X22850Y14350D02*
D03*
X21850D02*
D03*
X22850Y15350D02*
D03*
X19498Y12354D02*
D03*
X18498D02*
D03*
X19498Y13354D02*
D03*
X18498D02*
D03*
X19498Y14354D02*
D03*
X18498D02*
D03*
X19498Y15354D02*
D03*
X16358Y12354D02*
D03*
X15358D02*
D03*
X16358Y13354D02*
D03*
X15358D02*
D03*
X16358Y14354D02*
D03*
X15358D02*
D03*
X16358Y15354D02*
D03*
X12356Y15344D02*
D03*
X13356D02*
D03*
X12356Y14344D02*
D03*
X13356D02*
D03*
X12356Y13344D02*
D03*
X13356D02*
D03*
X12356Y12344D02*
D03*
X6770Y15344D02*
D03*
X7770Y14344D02*
D03*
Y15344D02*
D03*
X8770Y14344D02*
D03*
Y15344D02*
D03*
X-0Y8957D02*
D03*
Y5594D02*
D03*
Y3248D02*
D03*
X1559Y1476D02*
D03*
X4118D02*
D03*
X6677D02*
D03*
D25*
X-0Y12344D02*
D03*
X21850Y15350D02*
D03*
X18498Y15354D02*
D03*
X15358D02*
D03*
X13356Y12344D02*
D03*
X-0Y9957D02*
D03*
Y6594D02*
D03*
Y2248D02*
D03*
D26*
X0Y17717D02*
D03*
X23622D02*
D03*
Y0D02*
D03*
X0D02*
D03*
D27*
X14862Y6890D02*
D03*
X21850Y5315D02*
D03*
X17520D02*
D03*
X8150Y9696D02*
D03*
X6806Y10925D02*
D03*
X6026Y8036D02*
D03*
X4851Y10728D02*
D03*
X3134Y8563D02*
D03*
X14365Y8957D02*
D03*
X7677Y12500D02*
D03*
X9252Y11713D02*
D03*
X9449Y13287D02*
D03*
X12323Y9665D02*
D03*
X7480Y9350D02*
D03*
X10827Y9154D02*
D03*
X6644Y9744D02*
D03*
X10728Y13878D02*
D03*
X20276Y10138D02*
D03*
X8645Y9236D02*
D03*
D28*
X12992Y2953D02*
D03*
M02*
