G04 Layer_Color=16711935*
%FSLAX24Y24*%
%MOIN*%
G70*
G01*
G75*
%ADD46C,0.0671*%
%ADD47R,0.0671X0.0671*%
%ADD48R,0.0671X0.0671*%
%ADD49C,0.0580*%
%ADD50C,0.1220*%
%ADD51C,0.2049*%
D46*
X6677Y1476D02*
D03*
X4118D02*
D03*
X1559D02*
D03*
X-0Y3248D02*
D03*
Y5594D02*
D03*
Y8957D02*
D03*
X8770Y15344D02*
D03*
Y14344D02*
D03*
X7770Y15344D02*
D03*
Y14344D02*
D03*
X6770Y15344D02*
D03*
X12356Y12344D02*
D03*
X13356Y13344D02*
D03*
X12356D02*
D03*
X13356Y14344D02*
D03*
X12356D02*
D03*
X13356Y15344D02*
D03*
X12356D02*
D03*
X16358Y15354D02*
D03*
X15358Y14354D02*
D03*
X16358D02*
D03*
X15358Y13354D02*
D03*
X16358D02*
D03*
X15358Y12354D02*
D03*
X16358D02*
D03*
X19498Y15354D02*
D03*
X18498Y14354D02*
D03*
X19498D02*
D03*
X18498Y13354D02*
D03*
X19498D02*
D03*
X18498Y12354D02*
D03*
X19498D02*
D03*
X22850Y15350D02*
D03*
X21850Y14350D02*
D03*
X22850D02*
D03*
X21850Y13350D02*
D03*
X22850D02*
D03*
X21850Y12350D02*
D03*
X22850D02*
D03*
X4134Y15344D02*
D03*
Y14344D02*
D03*
X3134Y15344D02*
D03*
Y14344D02*
D03*
X2134Y15344D02*
D03*
X-0Y13344D02*
D03*
Y14344D02*
D03*
Y15344D02*
D03*
X21850Y7382D02*
D03*
Y9744D02*
D03*
D47*
X7677Y1476D02*
D03*
X5118D02*
D03*
X2559D02*
D03*
X6770Y14344D02*
D03*
X2134D02*
D03*
X22850Y7382D02*
D03*
Y9744D02*
D03*
D48*
X-0Y2248D02*
D03*
Y6594D02*
D03*
Y9957D02*
D03*
X13356Y12344D02*
D03*
X15358Y15354D02*
D03*
X18498D02*
D03*
X21850Y15350D02*
D03*
X-0Y12344D02*
D03*
D49*
X21024Y10748D02*
D03*
X21152Y14291D02*
D03*
X21220Y16604D02*
D03*
X8415Y16467D02*
D03*
X20276Y10138D02*
D03*
X10728Y13878D02*
D03*
X9449Y13287D02*
D03*
X9252Y11713D02*
D03*
X7677Y12500D02*
D03*
X14365Y8957D02*
D03*
X3134Y8563D02*
D03*
X4851Y10728D02*
D03*
X6026Y8036D02*
D03*
X17520Y5315D02*
D03*
X21850D02*
D03*
X14862Y6890D02*
D03*
X12323Y9665D02*
D03*
X4852Y13259D02*
D03*
X20630Y15354D02*
D03*
X6806Y10925D02*
D03*
X7953Y11024D02*
D03*
X9360Y16467D02*
D03*
X10699Y8809D02*
D03*
X11516Y9183D02*
D03*
X8100Y9459D02*
D03*
X6841Y9262D02*
D03*
X8376Y10197D02*
D03*
X7205Y10276D02*
D03*
X1073Y13259D02*
D03*
X11992Y6909D02*
D03*
X11995Y5531D02*
D03*
D50*
X12992Y2953D02*
D03*
D51*
X0Y0D02*
D03*
X23622D02*
D03*
Y17717D02*
D03*
X0D02*
D03*
M02*
