M48
;Layer_Color=9474304
;FILE_FORMAT=2:4
INCH,LZ
;TYPE=PLATED
T1F00S00C0.0280
T2F00S00C0.0354
T3F00S00C0.1260
%
T01
X0179Y00075
X01745Y004954
X01639Y00075
X01488
X01337
X01186
X01035
X007559Y000318
X003305
X01015Y00995
T02
X019294Y0024
X020294
Y0034
X019294
Y0044
X020294
Y0054
X019294
Y0064
X020294
Y0074
X019294
X0174
X0164
X002589Y007219
Y006219
Y005219
Y008219
X-000411
Y007219
Y006219
Y005219
Y00195
X000589
X-000411Y009219
Y010219
Y011219
Y012219
Y013398
X000589
X001589
X002589
Y012219
Y011219
Y010219
Y009219
X00315Y014945
Y015945
X00415
Y014945
X00515
Y015945
X00741
Y014945
X00841
Y015945
X00941
Y014945
X01041
Y015945
X0164Y01465
Y01365
Y01265
Y01165
Y0094
Y0084
X0174
Y0094
Y01165
Y01265
Y01365
Y01465
T03
X021Y0
X0
Y0155
X021
M30
