G04 Layer_Color=65535*
%FSLAX24Y24*%
%MOIN*%
G70*
G01*
G75*
%ADD26C,0.0236*%
%ADD27C,0.0098*%
%ADD28C,0.0079*%
%ADD29C,0.0049*%
%ADD30C,0.0080*%
D26*
X9699Y9719D02*
G03*
X9699Y9719I-118J0D01*
G01*
D27*
X8725Y10300D02*
G03*
X8725Y10300I-49J0D01*
G01*
X7913Y15767D02*
G03*
X7913Y15767I-49J0D01*
G01*
X15055Y7644D02*
G03*
X15055Y7644I-49J0D01*
G01*
D28*
X7380Y13921D02*
Y14236D01*
X7971Y13921D02*
Y14236D01*
X6493Y13921D02*
Y14236D01*
X7083Y13921D02*
Y14236D01*
X6012Y6721D02*
Y6879D01*
X6288Y6721D02*
Y6879D01*
X14998Y3729D02*
X18998D01*
X14998Y1729D02*
X18998D01*
Y3729D01*
X14998Y1729D02*
Y3729D01*
X5715Y6721D02*
Y6879D01*
X5440Y6721D02*
Y6879D01*
X17260Y13025D02*
Y13183D01*
X16984Y13025D02*
Y13183D01*
X15409Y13025D02*
Y13183D01*
X15133Y13025D02*
Y13183D01*
X13557Y13025D02*
Y13183D01*
X13282Y13025D02*
Y13183D01*
X5143Y6071D02*
Y6229D01*
X4867Y6071D02*
Y6229D01*
X4611Y3729D02*
X8611D01*
X4611Y1729D02*
X8611D01*
Y3729D01*
X4611Y1729D02*
Y3729D01*
X9187Y6687D02*
X12613D01*
X9187Y10113D02*
X12613D01*
Y6687D02*
Y10113D01*
X9187Y6687D02*
Y10113D01*
X9871Y1729D02*
X13871D01*
X9871Y3729D02*
X13871D01*
X9871Y1729D02*
Y3729D01*
X13871Y1729D02*
Y3729D01*
X18539Y19356D02*
X19539D01*
Y17356D02*
Y19356D01*
X18539Y17356D02*
X19539D01*
X18539D02*
Y19356D01*
Y15863D02*
X19539D01*
Y13863D02*
Y15863D01*
X18539Y13863D02*
X19539D01*
X18539D02*
Y15863D01*
X9579Y13025D02*
Y13183D01*
X9855Y13025D02*
Y13183D01*
X10780Y13025D02*
Y13183D01*
X10505Y13025D02*
Y13183D01*
X2471Y9173D02*
X2629D01*
X2471Y9449D02*
X2629D01*
X1959Y11305D02*
X3959D01*
X1959Y14305D02*
X3959D01*
Y11305D02*
Y14305D01*
X1959Y11305D02*
Y14305D01*
Y11305D02*
Y13222D01*
X11430Y13025D02*
Y13183D01*
X11706Y13025D02*
Y13183D01*
X5699Y19257D02*
X6250D01*
Y15123D02*
Y19257D01*
X5699Y15123D02*
X6250D01*
X14219Y14936D02*
X14711D01*
X13608Y15546D02*
X14219Y14936D01*
X16345D02*
X16955Y15546D01*
X15852Y14936D02*
X16345D01*
X13608Y15546D02*
Y18283D01*
X14711D01*
X15852D02*
X16955D01*
Y15546D02*
Y18283D01*
X9569Y14936D02*
X10061D01*
X8958Y15546D02*
X9569Y14936D01*
X11695D02*
X12305Y15546D01*
X11202Y14936D02*
X11695D01*
X8958Y15546D02*
Y18283D01*
X10061D01*
X11202D02*
X12305D01*
Y15546D02*
Y18283D01*
X17539Y5650D02*
Y11650D01*
Y5650D02*
X19539D01*
Y11650D01*
X17539D02*
X19539D01*
X15429Y6384D02*
Y7526D01*
X15685D01*
Y6384D02*
Y7526D01*
X15429Y6384D02*
X15685D01*
X3959Y4461D02*
Y8461D01*
X1959Y4461D02*
Y8461D01*
Y4461D02*
X3959D01*
X1959Y8461D02*
X3959D01*
X16828Y5762D02*
X16986D01*
X16828Y6038D02*
X16986D01*
X16828Y6812D02*
X16986D01*
X16828Y7088D02*
X16986D01*
X16828Y7912D02*
X16986D01*
X16828Y8188D02*
X16986D01*
X16828Y8962D02*
X16986D01*
X16828Y9238D02*
X16986D01*
X16828Y9962D02*
X16986D01*
X16828Y10238D02*
X16986D01*
X16828Y11012D02*
X16986D01*
X16828Y11288D02*
X16986D01*
D29*
X4205Y5297D02*
Y5100D01*
X4352D01*
X4303Y5198D01*
Y5248D01*
X4352Y5297D01*
X4451D01*
X4500Y5248D01*
Y5149D01*
X4451Y5100D01*
X4352Y5395D02*
Y5592D01*
X4254Y5690D02*
X4205Y5740D01*
Y5838D01*
X4254Y5887D01*
X4451D01*
X4500Y5838D01*
Y5740D01*
X4451Y5690D01*
X4254D01*
X1455Y5597D02*
Y5400D01*
X1602D01*
X1553Y5498D01*
Y5548D01*
X1602Y5597D01*
X1701D01*
X1750Y5548D01*
Y5449D01*
X1701Y5400D01*
X1602Y5695D02*
Y5892D01*
X1455Y5990D02*
X1750D01*
Y6187D01*
X1602Y6286D02*
Y6482D01*
X1455Y6581D02*
X1750D01*
Y6728D01*
X1701Y6778D01*
X1652D01*
X1602Y6728D01*
Y6581D01*
Y6728D01*
X1553Y6778D01*
X1504D01*
X1455Y6728D01*
Y6581D01*
X1602Y6876D02*
Y7073D01*
X1504Y7171D02*
X1455Y7220D01*
Y7319D01*
X1504Y7368D01*
X1701D01*
X1750Y7319D01*
Y7220D01*
X1701Y7171D01*
X1504D01*
X11051Y4195D02*
X10854D01*
Y4048D01*
X10953Y4097D01*
X11002D01*
X11051Y4048D01*
Y3949D01*
X11002Y3900D01*
X10903D01*
X10854Y3949D01*
X11149Y4048D02*
X11346D01*
X11444Y4195D02*
Y3900D01*
X11641D01*
X11740Y4048D02*
X11936D01*
X12035Y4195D02*
Y3900D01*
X12182D01*
X12232Y3949D01*
Y3998D01*
X12182Y4048D01*
X12035D01*
X12182D01*
X12232Y4097D01*
Y4146D01*
X12182Y4195D01*
X12035D01*
X12330Y4048D02*
X12527D01*
X12625Y4146D02*
X12674Y4195D01*
X12773D01*
X12822Y4146D01*
Y3949D01*
X12773Y3900D01*
X12674D01*
X12625Y3949D01*
Y4146D01*
X5661Y1546D02*
X5710Y1595D01*
X5808D01*
X5858Y1546D01*
Y1349D01*
X5808Y1300D01*
X5710D01*
X5661Y1349D01*
Y1546D01*
X5956Y1448D02*
X6153D01*
X6251Y1595D02*
Y1300D01*
X6399D01*
X6448Y1349D01*
Y1398D01*
X6399Y1448D01*
X6251D01*
X6399D01*
X6448Y1497D01*
Y1546D01*
X6399Y1595D01*
X6251D01*
X6546Y1448D02*
X6743D01*
X6842Y1595D02*
Y1300D01*
X7038D01*
X7137Y1448D02*
X7333D01*
X7629Y1595D02*
X7432D01*
Y1448D01*
X7530Y1497D01*
X7579D01*
X7629Y1448D01*
Y1349D01*
X7579Y1300D01*
X7481D01*
X7432Y1349D01*
X15850Y1546D02*
X15899Y1595D01*
X15998D01*
X16047Y1546D01*
Y1349D01*
X15998Y1300D01*
X15899D01*
X15850Y1349D01*
Y1546D01*
X16145Y1448D02*
X16342D01*
X16440Y1595D02*
Y1300D01*
X16588D01*
X16637Y1349D01*
Y1398D01*
X16588Y1448D01*
X16440D01*
X16588D01*
X16637Y1497D01*
Y1546D01*
X16588Y1595D01*
X16440D01*
X16736Y1448D02*
X16932D01*
X17031Y1595D02*
Y1300D01*
X17228D01*
X17326Y1448D02*
X17523D01*
X17818Y1595D02*
X17621D01*
Y1448D01*
X17719Y1497D01*
X17769D01*
X17818Y1448D01*
Y1349D01*
X17769Y1300D01*
X17670D01*
X17621Y1349D01*
X4329Y11904D02*
X4280Y11953D01*
X4182D01*
X4133Y11904D01*
Y11707D01*
X4182Y11658D01*
X4280D01*
X4329Y11707D01*
Y11805D01*
X4231D01*
X4428Y11658D02*
Y11953D01*
X4625Y11658D01*
Y11953D01*
X4723D02*
Y11658D01*
X4871D01*
X4920Y11707D01*
Y11904D01*
X4871Y11953D01*
X4723D01*
X4133Y12658D02*
Y12953D01*
X4231Y12855D01*
X4329Y12953D01*
Y12658D01*
X4575Y12953D02*
X4477D01*
X4428Y12904D01*
Y12707D01*
X4477Y12658D01*
X4575D01*
X4625Y12707D01*
Y12904D01*
X4575Y12953D01*
X4920Y12904D02*
X4871Y12953D01*
X4772D01*
X4723Y12904D01*
Y12855D01*
X4772Y12805D01*
X4871D01*
X4920Y12756D01*
Y12707D01*
X4871Y12658D01*
X4772D01*
X4723Y12707D01*
X5018Y12953D02*
X5117D01*
X5067D01*
Y12658D01*
X5018D01*
X5117D01*
X4133Y13953D02*
Y13756D01*
X4231Y13658D01*
X4329Y13756D01*
Y13953D01*
X4625Y13904D02*
X4575Y13953D01*
X4477D01*
X4428Y13904D01*
Y13707D01*
X4477Y13658D01*
X4575D01*
X4625Y13707D01*
X4920Y13904D02*
X4871Y13953D01*
X4772D01*
X4723Y13904D01*
Y13707D01*
X4772Y13658D01*
X4871D01*
X4920Y13707D01*
X4083Y7245D02*
X4279D01*
X4181D01*
Y6950D01*
X4378Y7245D02*
X4575Y6950D01*
Y7245D02*
X4378Y6950D01*
X4673Y7245D02*
Y6950D01*
X4821D01*
X4870Y6999D01*
Y7196D01*
X4821Y7245D01*
X4673D01*
X4083Y7800D02*
Y8095D01*
X4230D01*
X4279Y8046D01*
Y7948D01*
X4230Y7898D01*
X4083D01*
X4181D02*
X4279Y7800D01*
X4378Y8095D02*
X4575Y7800D01*
Y8095D02*
X4378Y7800D01*
X4673Y8095D02*
Y7800D01*
X4821D01*
X4870Y7849D01*
Y8046D01*
X4821Y8095D01*
X4673D01*
X5779Y4195D02*
X5583D01*
Y3900D01*
X5779D01*
X5583Y4048D02*
X5681D01*
X5878Y4195D02*
Y3900D01*
X6025D01*
X6075Y3949D01*
Y4146D01*
X6025Y4195D01*
X5878D01*
X6173Y3900D02*
X6271D01*
X6222D01*
Y4195D01*
X6173Y4146D01*
X4344Y4195D02*
X4147D01*
Y3900D01*
X4344D01*
X4147Y4048D02*
X4246D01*
X4443Y4195D02*
Y3900D01*
X4590D01*
X4639Y3949D01*
Y4146D01*
X4590Y4195D01*
X4443D01*
X4934Y3900D02*
X4738D01*
X4934Y4097D01*
Y4146D01*
X4885Y4195D01*
X4787D01*
X4738Y4146D01*
X7018Y3900D02*
Y4195D01*
X7166D01*
X7215Y4146D01*
Y4048D01*
X7166Y3998D01*
X7018D01*
X7313Y4195D02*
Y3900D01*
X7461D01*
X7510Y3949D01*
Y4146D01*
X7461Y4195D01*
X7313D01*
X7805Y3900D02*
X7608D01*
X7805Y4097D01*
Y4146D01*
X7756Y4195D01*
X7658D01*
X7608Y4146D01*
X8453Y3900D02*
Y4195D01*
X8601D01*
X8650Y4146D01*
Y4048D01*
X8601Y3998D01*
X8453D01*
X8749Y4195D02*
Y3900D01*
X8896D01*
X8945Y3949D01*
Y4146D01*
X8896Y4195D01*
X8749D01*
X9044Y3900D02*
X9142D01*
X9093D01*
Y4195D01*
X9044Y4146D01*
X10743Y1300D02*
Y1595D01*
X10891D01*
X10940Y1546D01*
Y1448D01*
X10891Y1398D01*
X10743D01*
X11235Y1546D02*
X11186Y1595D01*
X11088D01*
X11038Y1546D01*
Y1497D01*
X11088Y1448D01*
X11186D01*
X11235Y1398D01*
Y1349D01*
X11186Y1300D01*
X11088D01*
X11038Y1349D01*
X11530Y1300D02*
X11334D01*
X11530Y1497D01*
Y1546D01*
X11481Y1595D01*
X11383D01*
X11334Y1546D01*
X9341Y1300D02*
Y1595D01*
X9488D01*
X9537Y1546D01*
Y1448D01*
X9488Y1398D01*
X9341D01*
X9833Y1546D02*
X9783Y1595D01*
X9685D01*
X9636Y1546D01*
Y1497D01*
X9685Y1448D01*
X9783D01*
X9833Y1398D01*
Y1349D01*
X9783Y1300D01*
X9685D01*
X9636Y1349D01*
X9931Y1300D02*
X10029D01*
X9980D01*
Y1595D01*
X9931Y1546D01*
X12343Y1595D02*
X12146D01*
Y1300D01*
X12343D01*
X12146Y1448D02*
X12244D01*
X12638Y1546D02*
X12589Y1595D01*
X12490D01*
X12441Y1546D01*
Y1497D01*
X12490Y1448D01*
X12589D01*
X12638Y1398D01*
Y1349D01*
X12589Y1300D01*
X12490D01*
X12441Y1349D01*
X12736Y1300D02*
X12835D01*
X12785D01*
Y1595D01*
X12736Y1546D01*
X13745Y1595D02*
X13548D01*
Y1300D01*
X13745D01*
X13548Y1448D02*
X13647D01*
X14040Y1546D02*
X13991Y1595D01*
X13893D01*
X13844Y1546D01*
Y1497D01*
X13893Y1448D01*
X13991D01*
X14040Y1398D01*
Y1349D01*
X13991Y1300D01*
X13893D01*
X13844Y1349D01*
X14335Y1300D02*
X14139D01*
X14335Y1497D01*
Y1546D01*
X14286Y1595D01*
X14188D01*
X14139Y1546D01*
X19332Y4146D02*
X19283Y4195D01*
X19184D01*
X19135Y4146D01*
Y4097D01*
X19184Y4048D01*
X19283D01*
X19332Y3998D01*
Y3949D01*
X19283Y3900D01*
X19184D01*
X19135Y3949D01*
X19430Y3900D02*
X19529D01*
X19480D01*
Y4195D01*
X19430Y4146D01*
X17798D02*
X17749Y4195D01*
X17651D01*
X17601Y4146D01*
Y4097D01*
X17651Y4048D01*
X17749D01*
X17798Y3998D01*
Y3949D01*
X17749Y3900D01*
X17651D01*
X17601Y3949D01*
X18093Y3900D02*
X17897D01*
X18093Y4097D01*
Y4146D01*
X18044Y4195D01*
X17946D01*
X17897Y4146D01*
X14731D02*
X14682Y4195D01*
X14583D01*
X14534Y4146D01*
Y4097D01*
X14583Y4048D01*
X14682D01*
X14731Y3998D01*
Y3949D01*
X14682Y3900D01*
X14583D01*
X14534Y3949D01*
X14977Y3900D02*
Y4195D01*
X14829Y4048D01*
X15026D01*
X16265Y4146D02*
X16215Y4195D01*
X16117D01*
X16068Y4146D01*
Y4097D01*
X16117Y4048D01*
X16215D01*
X16265Y3998D01*
Y3949D01*
X16215Y3900D01*
X16117D01*
X16068Y3949D01*
X16363Y4146D02*
X16412Y4195D01*
X16511D01*
X16560Y4146D01*
Y4097D01*
X16511Y4048D01*
X16461D01*
X16511D01*
X16560Y3998D01*
Y3949D01*
X16511Y3900D01*
X16412D01*
X16363Y3949D01*
X18847Y12596D02*
X18798Y12645D01*
X18699D01*
X18650Y12596D01*
Y12399D01*
X18699Y12350D01*
X18798D01*
X18847Y12399D01*
Y12498D01*
X18748D01*
X18945Y12350D02*
Y12645D01*
X19142Y12350D01*
Y12645D01*
X19240D02*
Y12350D01*
X19388D01*
X19437Y12399D01*
Y12596D01*
X19388Y12645D01*
X19240D01*
X17700D02*
Y12448D01*
X17798Y12350D01*
X17897Y12448D01*
Y12645D01*
X18192Y12596D02*
X18143Y12645D01*
X18044D01*
X17995Y12596D01*
Y12399D01*
X18044Y12350D01*
X18143D01*
X18192Y12399D01*
X18487Y12596D02*
X18438Y12645D01*
X18340D01*
X18290Y12596D01*
Y12399D01*
X18340Y12350D01*
X18438D01*
X18487Y12399D01*
X17855Y14347D02*
X18150D01*
Y14544D01*
X17855Y14642D02*
Y14740D01*
Y14691D01*
X18150D01*
Y14642D01*
Y14740D01*
Y14888D02*
X17855D01*
Y15036D01*
X17904Y15085D01*
X18002D01*
X18052Y15036D01*
Y14888D01*
X17855Y15331D02*
Y15232D01*
X17904Y15183D01*
X18101D01*
X18150Y15232D01*
Y15331D01*
X18101Y15380D01*
X17904D01*
X17855Y15331D01*
Y17962D02*
X18150D01*
Y18110D01*
X18101Y18159D01*
X18052D01*
X18002Y18110D01*
Y17962D01*
Y18110D01*
X17953Y18159D01*
X17904D01*
X17855Y18110D01*
Y17962D01*
X18150Y18257D02*
X17953D01*
X17855Y18356D01*
X17953Y18454D01*
X18150D01*
X18002D01*
Y18257D01*
X17855Y18552D02*
Y18749D01*
Y18651D01*
X18150D01*
X15997Y12396D02*
X15948Y12445D01*
X15849D01*
X15800Y12396D01*
Y12347D01*
X15849Y12298D01*
X15948D01*
X15997Y12248D01*
Y12199D01*
X15948Y12150D01*
X15849D01*
X15800Y12199D01*
X16095Y12445D02*
X16292D01*
X16194D01*
Y12150D01*
X16390D02*
Y12347D01*
X16489Y12445D01*
X16587Y12347D01*
Y12150D01*
Y12298D01*
X16390D01*
X16686Y12445D02*
X16882D01*
X16784D01*
Y12150D01*
X16981Y12445D02*
Y12199D01*
X17030Y12150D01*
X17128D01*
X17178Y12199D01*
Y12445D01*
X17473Y12396D02*
X17423Y12445D01*
X17325D01*
X17276Y12396D01*
Y12347D01*
X17325Y12298D01*
X17423D01*
X17473Y12248D01*
Y12199D01*
X17423Y12150D01*
X17325D01*
X17276Y12199D01*
X14050Y12150D02*
Y12445D01*
X14198D01*
X14247Y12396D01*
Y12298D01*
X14198Y12248D01*
X14050D01*
X14148D02*
X14247Y12150D01*
X14345Y12445D02*
X14542Y12150D01*
Y12445D02*
X14345Y12150D01*
X14640Y12445D02*
Y12150D01*
X14788D01*
X14837Y12199D01*
Y12396D01*
X14788Y12445D01*
X14640D01*
X12150D02*
X12347D01*
X12248D01*
Y12150D01*
X12445Y12445D02*
X12642Y12150D01*
Y12445D02*
X12445Y12150D01*
X12740Y12445D02*
Y12150D01*
X12888D01*
X12937Y12199D01*
Y12396D01*
X12888Y12445D01*
X12740D01*
X8150Y12150D02*
Y12445D01*
X8298D01*
X8347Y12396D01*
Y12298D01*
X8298Y12248D01*
X8150D01*
X8593Y12445D02*
X8494D01*
X8445Y12396D01*
Y12199D01*
X8494Y12150D01*
X8593D01*
X8642Y12199D01*
Y12396D01*
X8593Y12445D01*
X8740D02*
Y12150D01*
X8839Y12248D01*
X8937Y12150D01*
Y12445D01*
X9232D02*
X9036D01*
Y12150D01*
X9232D01*
X9036Y12298D02*
X9134D01*
X9331Y12150D02*
Y12445D01*
X9478D01*
X9528Y12396D01*
Y12298D01*
X9478Y12248D01*
X9331D01*
X9429D02*
X9528Y12150D01*
X8300Y12798D02*
X8497D01*
D30*
X19165Y2429D02*
X19498D01*
X19165Y2096D01*
Y2012D01*
X19248Y1929D01*
X19415D01*
X19498Y2012D01*
X19298Y3429D02*
X19131D01*
X19215D01*
Y2929D01*
X19298Y3012D01*
X14898Y2929D02*
X14565D01*
Y3012D01*
X14898Y3346D01*
Y3429D01*
Y2012D02*
X14815Y1929D01*
X14648D01*
X14565Y2012D01*
Y2096D01*
X14648Y2179D01*
X14565Y2262D01*
Y2346D01*
X14648Y2429D01*
X14815D01*
X14898Y2346D01*
Y2262D01*
X14815Y2179D01*
X14898Y2096D01*
Y2012D01*
X14815Y2179D02*
X14648D01*
X8778Y2429D02*
X9111D01*
X8778Y2096D01*
Y2012D01*
X8861Y1929D01*
X9028D01*
X9111Y2012D01*
X8911Y3429D02*
X8745D01*
X8828D01*
Y2929D01*
X8911Y3012D01*
X4511Y2929D02*
X4178D01*
Y3012D01*
X4511Y3346D01*
Y3429D01*
Y2012D02*
X4428Y1929D01*
X4261D01*
X4178Y2012D01*
Y2096D01*
X4261Y2179D01*
X4178Y2262D01*
Y2346D01*
X4261Y2429D01*
X4428D01*
X4511Y2346D01*
Y2262D01*
X4428Y2179D01*
X4511Y2096D01*
Y2012D01*
X4428Y2179D02*
X4261D01*
X9705Y3029D02*
X9371D01*
X9705Y3362D01*
Y3445D01*
X9621Y3529D01*
X9455D01*
X9371Y3445D01*
X9571Y2029D02*
X9738D01*
X9655D01*
Y2529D01*
X9571Y2445D01*
X13971Y2529D02*
X14305D01*
Y2445D01*
X13971Y2112D01*
Y2029D01*
Y3445D02*
X14055Y3529D01*
X14221D01*
X14305Y3445D01*
Y3362D01*
X14221Y3279D01*
X14305Y3195D01*
Y3112D01*
X14221Y3029D01*
X14055D01*
X13971Y3112D01*
Y3195D01*
X14055Y3279D01*
X13971Y3362D01*
Y3445D01*
X14055Y3279D02*
X14221D01*
X3758Y10872D02*
X3675Y11039D01*
X3509Y11205D01*
X3342D01*
X3259Y11122D01*
Y10955D01*
X3342Y10872D01*
X3425D01*
X3509Y10955D01*
Y11205D01*
X2758Y10872D02*
Y11205D01*
X2509D01*
X2592Y11039D01*
Y10955D01*
X2509Y10872D01*
X2342D01*
X2259Y10955D01*
Y11122D01*
X2342Y11205D01*
X3259Y14472D02*
Y14805D01*
X3592Y14472D01*
X3675D01*
X3758Y14555D01*
Y14722D01*
X3675Y14805D01*
X2259Y14605D02*
Y14439D01*
Y14522D01*
X2758D01*
X2675Y14605D01*
X18839Y5350D02*
Y5183D01*
Y5267D01*
X19338D01*
X19255Y5350D01*
X18839Y4600D02*
Y4933D01*
X19172Y4600D01*
X19255D01*
X19338Y4684D01*
Y4850D01*
X19255Y4933D01*
X17839Y4950D02*
Y4783D01*
Y4867D01*
X18338D01*
X18255Y4950D01*
X17839Y5350D02*
Y5183D01*
Y5267D01*
X18338D01*
X18255Y5350D01*
X17839Y12150D02*
Y11983D01*
Y12067D01*
X18338D01*
X18255Y12150D01*
X18839Y11817D02*
Y12150D01*
X19172Y11817D01*
X19255D01*
X19338Y11900D01*
Y12067D01*
X19255Y12150D01*
X2659Y4294D02*
Y3961D01*
X2325Y4294D01*
X2242D01*
X2159Y4211D01*
Y4044D01*
X2242Y3961D01*
X3659Y4161D02*
Y4328D01*
Y4244D01*
X3159D01*
X3242Y4161D01*
X3159Y8561D02*
Y8894D01*
X3242D01*
X3575Y8561D01*
X3659D01*
X2242D02*
X2159Y8644D01*
Y8811D01*
X2242Y8894D01*
X2325D01*
X2409Y8811D01*
X2492Y8894D01*
X2575D01*
X2659Y8811D01*
Y8644D01*
X2575Y8561D01*
X2492D01*
X2409Y8644D01*
X2325Y8561D01*
X2242D01*
X2409Y8644D02*
Y8811D01*
M02*
