G04 Layer_Color=16711935*
%FSLAX24Y24*%
%MOIN*%
G70*
G01*
G75*
%ADD47C,0.1655*%
%ADD48C,0.0680*%
%ADD49C,0.0671*%
%ADD50R,0.0671X0.0671*%
%ADD51R,0.0671X0.0671*%
%ADD52C,0.0580*%
%ADD53C,0.2049*%
D47*
X2850Y13790D02*
D03*
Y3747D02*
D03*
D48*
X3850Y10568D02*
D03*
Y8768D02*
D03*
Y9668D02*
D03*
Y7868D02*
D03*
Y6968D02*
D03*
X2850Y7418D02*
D03*
Y8318D02*
D03*
Y10118D02*
D03*
Y9218D02*
D03*
Y11018D02*
D03*
X1850Y6968D02*
D03*
Y7868D02*
D03*
Y9668D02*
D03*
Y8768D02*
D03*
Y10568D02*
D03*
D49*
X16573Y15650D02*
D03*
X17573D02*
D03*
X18573D02*
D03*
X20380Y12550D02*
D03*
X20130Y3555D02*
D03*
Y4555D02*
D03*
Y5555D02*
D03*
X4500Y-445D02*
D03*
X3500D02*
D03*
X16215D02*
D03*
X15215D02*
D03*
X14215D02*
D03*
X13215D02*
D03*
X12215D02*
D03*
X11215D02*
D03*
X10215D02*
D03*
X16215Y2555D02*
D03*
X15215D02*
D03*
X14215D02*
D03*
X13215D02*
D03*
X12215D02*
D03*
X11215D02*
D03*
X10215D02*
D03*
X16573Y18161D02*
D03*
X6858Y555D02*
D03*
Y1555D02*
D03*
Y2555D02*
D03*
X7858Y18161D02*
D03*
X8858D02*
D03*
X12215D02*
D03*
X13215D02*
D03*
X4500D02*
D03*
X3500D02*
D03*
X2500D02*
D03*
X9800Y14000D02*
D03*
X8800D02*
D03*
X9800Y15000D02*
D03*
X8800D02*
D03*
X9800Y16000D02*
D03*
D50*
X19573Y15650D02*
D03*
X2500Y-445D02*
D03*
X9215D02*
D03*
Y2555D02*
D03*
X17573Y18161D02*
D03*
X9858D02*
D03*
X14215D02*
D03*
X5500D02*
D03*
D51*
X20380Y11550D02*
D03*
X20130Y2555D02*
D03*
X6858Y-445D02*
D03*
X8800Y16000D02*
D03*
D52*
X15000Y11500D02*
D03*
Y13650D02*
D03*
Y12575D02*
D03*
X6500Y8000D02*
D03*
X9500Y9050D02*
D03*
X15552Y3900D02*
D03*
X10850Y4900D02*
D03*
X10400Y10350D02*
D03*
D53*
X0Y0D02*
D03*
Y17717D02*
D03*
X19685Y0D02*
D03*
Y17717D02*
D03*
M02*
