G04 Layer_Physical_Order=2*
G04 Layer_Color=16711680*
%FSLAX24Y24*%
%MOIN*%
G70*
G01*
G75*
%ADD21C,0.0200*%
%ADD22C,0.0100*%
%ADD23C,0.0400*%
%ADD24C,0.1575*%
%ADD25C,0.0600*%
%ADD26C,0.0591*%
%ADD27R,0.0591X0.0591*%
%ADD28R,0.0591X0.0591*%
%ADD29C,0.0500*%
%ADD30C,0.1969*%
G36*
X19922Y19518D02*
X20155Y19472D01*
X20381Y19396D01*
X20594Y19290D01*
X20791Y19158D01*
X20970Y19002D01*
X21127Y18823D01*
X21259Y18625D01*
X21364Y18412D01*
X21441Y18187D01*
X21487Y17954D01*
X21502Y17723D01*
X21501Y17717D01*
Y0D01*
X21502Y-7D01*
X21487Y-237D01*
X21441Y-470D01*
X21364Y-695D01*
X21259Y-909D01*
X21127Y-1106D01*
X20970Y-1285D01*
X20791Y-1442D01*
X20594Y-1574D01*
X20381Y-1679D01*
X20155Y-1755D01*
X19922Y-1802D01*
X19692Y-1817D01*
X19685Y-1816D01*
X0D01*
X-7Y-1817D01*
X-237Y-1802D01*
X-470Y-1755D01*
X-695Y-1679D01*
X-909Y-1574D01*
X-1106Y-1442D01*
X-1285Y-1285D01*
X-1442Y-1106D01*
X-1574Y-909D01*
X-1679Y-695D01*
X-1755Y-470D01*
X-1802Y-237D01*
X-1817Y-7D01*
X-1816Y0D01*
Y17717D01*
X-1817Y17723D01*
X-1802Y17954D01*
X-1755Y18187D01*
X-1679Y18412D01*
X-1574Y18625D01*
X-1442Y18823D01*
X-1285Y19002D01*
X-1106Y19158D01*
X-909Y19290D01*
X-695Y19396D01*
X-470Y19472D01*
X-237Y19518D01*
X-7Y19533D01*
X0Y19532D01*
X19685D01*
X19692Y19533D01*
X19922Y19518D01*
D02*
G37*
%LPC*%
G36*
X9500Y9403D02*
X9409Y9391D01*
X9323Y9356D01*
X9250Y9300D01*
X9194Y9227D01*
X9159Y9141D01*
X9147Y9050D01*
X9159Y8959D01*
X9194Y8873D01*
X9250Y8800D01*
X9323Y8744D01*
X9409Y8709D01*
X9500Y8697D01*
X9591Y8709D01*
X9677Y8744D01*
X9750Y8800D01*
X9806Y8873D01*
X9815Y8897D01*
X10339D01*
X15221Y4015D01*
X15211Y3991D01*
X15199Y3900D01*
X15211Y3809D01*
X15246Y3723D01*
X15302Y3650D01*
X15375Y3594D01*
X15460Y3559D01*
X15552Y3547D01*
X15643Y3559D01*
X15728Y3594D01*
X15801Y3650D01*
X15858Y3723D01*
X15893Y3809D01*
X15905Y3900D01*
X15893Y3991D01*
X15858Y4077D01*
X15801Y4150D01*
X15728Y4206D01*
X15643Y4241D01*
X15552Y4253D01*
X15460Y4241D01*
X15437Y4231D01*
X10510Y9158D01*
X10460Y9191D01*
X10402Y9203D01*
X9815D01*
X9806Y9227D01*
X9750Y9300D01*
X9677Y9356D01*
X9591Y9391D01*
X9500Y9403D01*
D02*
G37*
G36*
X20080Y3505D02*
X19738D01*
X19745Y3452D01*
X19785Y3356D01*
X19848Y3273D01*
X19931Y3210D01*
X20027Y3170D01*
X20080Y3163D01*
Y3505D01*
D02*
G37*
G36*
X20522D02*
X20180D01*
Y3163D01*
X20233Y3170D01*
X20329Y3210D01*
X20412Y3273D01*
X20475Y3356D01*
X20515Y3452D01*
X20522Y3505D01*
D02*
G37*
G36*
X20080Y3947D02*
X20027Y3940D01*
X19931Y3900D01*
X19848Y3837D01*
X19785Y3754D01*
X19745Y3658D01*
X19738Y3605D01*
X20080D01*
Y3947D01*
D02*
G37*
G36*
X10800Y4850D02*
X10504D01*
X10509Y4809D01*
X10544Y4723D01*
X10600Y4650D01*
X10673Y4594D01*
X10759Y4559D01*
X10800Y4554D01*
Y4850D01*
D02*
G37*
G36*
X20130Y4954D02*
X20027Y4940D01*
X19931Y4900D01*
X19848Y4837D01*
X19785Y4754D01*
X19745Y4658D01*
X19731Y4555D01*
X19745Y4452D01*
X19785Y4356D01*
X19848Y4273D01*
X19931Y4210D01*
X20027Y4170D01*
X20130Y4156D01*
X20233Y4170D01*
X20329Y4210D01*
X20412Y4273D01*
X20475Y4356D01*
X20515Y4452D01*
X20529Y4555D01*
X20515Y4658D01*
X20475Y4754D01*
X20412Y4837D01*
X20329Y4900D01*
X20233Y4940D01*
X20130Y4954D01*
D02*
G37*
G36*
X20180Y3947D02*
Y3605D01*
X20522D01*
X20515Y3658D01*
X20475Y3754D01*
X20412Y3837D01*
X20329Y3900D01*
X20233Y3940D01*
X20180Y3947D01*
D02*
G37*
G36*
X12165Y2947D02*
X12112Y2940D01*
X12016Y2900D01*
X11933Y2837D01*
X11870Y2754D01*
X11830Y2658D01*
X11823Y2605D01*
X12165D01*
Y2947D01*
D02*
G37*
G36*
X13607Y2505D02*
X13265D01*
Y2163D01*
X13319Y2170D01*
X13415Y2210D01*
X13497Y2273D01*
X13561Y2356D01*
X13600Y2452D01*
X13607Y2505D01*
D02*
G37*
G36*
X13165D02*
X12823D01*
X12830Y2452D01*
X12870Y2356D01*
X12933Y2273D01*
X13016Y2210D01*
X13112Y2170D01*
X13165Y2163D01*
Y2505D01*
D02*
G37*
G36*
X12265Y2947D02*
Y2605D01*
X12607D01*
X12600Y2658D01*
X12561Y2754D01*
X12497Y2837D01*
X12415Y2900D01*
X12319Y2940D01*
X12265Y2947D01*
D02*
G37*
G36*
X2850Y4638D02*
X2676Y4621D01*
X2509Y4570D01*
X2355Y4488D01*
X2219Y4377D01*
X2109Y4242D01*
X2026Y4088D01*
X1975Y3921D01*
X1958Y3747D01*
X1975Y3573D01*
X2026Y3405D01*
X2109Y3251D01*
X2219Y3116D01*
X2355Y3005D01*
X2509Y2923D01*
X2676Y2872D01*
X2850Y2855D01*
X3024Y2872D01*
X3191Y2923D01*
X3345Y3005D01*
X3481Y3116D01*
X3591Y3251D01*
X3674Y3405D01*
X3725Y3573D01*
X3742Y3747D01*
X3725Y3921D01*
X3674Y4088D01*
X3591Y4242D01*
X3481Y4377D01*
X3345Y4488D01*
X3191Y4570D01*
X3024Y4621D01*
X2850Y4638D01*
D02*
G37*
G36*
X13265Y2947D02*
Y2605D01*
X13607D01*
X13600Y2658D01*
X13561Y2754D01*
X13497Y2837D01*
X13415Y2900D01*
X13319Y2940D01*
X13265Y2947D01*
D02*
G37*
G36*
X13165D02*
X13112Y2940D01*
X13016Y2900D01*
X12933Y2837D01*
X12870Y2754D01*
X12830Y2658D01*
X12823Y2605D01*
X13165D01*
Y2947D01*
D02*
G37*
G36*
X2900Y7815D02*
Y7468D01*
X3247D01*
X3240Y7523D01*
X3199Y7620D01*
X3135Y7704D01*
X3052Y7768D01*
X2954Y7808D01*
X2900Y7815D01*
D02*
G37*
G36*
X3850Y8272D02*
X3746Y8258D01*
X3648Y8218D01*
X3565Y8154D01*
X3501Y8070D01*
X3460Y7973D01*
X3447Y7868D01*
X3460Y7764D01*
X3501Y7667D01*
X3565Y7583D01*
X3648Y7519D01*
X3746Y7479D01*
X3850Y7465D01*
X3954Y7479D01*
X4052Y7519D01*
X4135Y7583D01*
X4199Y7667D01*
X4240Y7764D01*
X4253Y7868D01*
X4240Y7973D01*
X4199Y8070D01*
X4135Y8154D01*
X4052Y8218D01*
X3954Y8258D01*
X3850Y8272D01*
D02*
G37*
G36*
X3247Y7368D02*
X2900D01*
Y7021D01*
X2954Y7029D01*
X3052Y7069D01*
X3135Y7133D01*
X3199Y7217D01*
X3240Y7314D01*
X3247Y7368D01*
D02*
G37*
G36*
X1800Y7818D02*
X1453D01*
X1460Y7764D01*
X1501Y7667D01*
X1565Y7583D01*
X1648Y7519D01*
X1746Y7479D01*
X1800Y7471D01*
Y7818D01*
D02*
G37*
G36*
Y8265D02*
X1746Y8258D01*
X1648Y8218D01*
X1565Y8154D01*
X1501Y8070D01*
X1460Y7973D01*
X1453Y7918D01*
X1800D01*
Y8265D01*
D02*
G37*
G36*
X6846Y7950D02*
X6550D01*
Y7654D01*
X6591Y7659D01*
X6677Y7694D01*
X6750Y7750D01*
X6806Y7823D01*
X6841Y7909D01*
X6846Y7950D01*
D02*
G37*
G36*
X6450D02*
X6154D01*
X6159Y7909D01*
X6194Y7823D01*
X6250Y7750D01*
X6323Y7694D01*
X6409Y7659D01*
X6450Y7654D01*
Y7950D01*
D02*
G37*
G36*
X10900Y5246D02*
Y4950D01*
X11196D01*
X11191Y4991D01*
X11156Y5077D01*
X11100Y5150D01*
X11027Y5206D01*
X10941Y5241D01*
X10900Y5246D01*
D02*
G37*
G36*
X10800D02*
X10759Y5241D01*
X10673Y5206D01*
X10600Y5150D01*
X10544Y5077D01*
X10509Y4991D01*
X10504Y4950D01*
X10800D01*
Y5246D01*
D02*
G37*
G36*
X11196Y4850D02*
X10900D01*
Y4554D01*
X10941Y4559D01*
X11027Y4594D01*
X11100Y4650D01*
X11156Y4723D01*
X11191Y4809D01*
X11196Y4850D01*
D02*
G37*
G36*
X20130Y5954D02*
X20027Y5940D01*
X19931Y5900D01*
X19848Y5837D01*
X19785Y5754D01*
X19745Y5658D01*
X19731Y5555D01*
X19745Y5452D01*
X19785Y5356D01*
X19848Y5273D01*
X19931Y5210D01*
X20027Y5170D01*
X20130Y5156D01*
X20233Y5170D01*
X20329Y5210D01*
X20412Y5273D01*
X20475Y5356D01*
X20515Y5452D01*
X20529Y5555D01*
X20515Y5658D01*
X20475Y5754D01*
X20412Y5837D01*
X20329Y5900D01*
X20233Y5940D01*
X20130Y5954D01*
D02*
G37*
G36*
X1800Y7365D02*
X1746Y7358D01*
X1648Y7318D01*
X1565Y7254D01*
X1501Y7170D01*
X1460Y7073D01*
X1453Y7018D01*
X1800D01*
Y7365D01*
D02*
G37*
G36*
Y6918D02*
X1453D01*
X1460Y6864D01*
X1501Y6767D01*
X1565Y6683D01*
X1648Y6619D01*
X1746Y6579D01*
X1800Y6571D01*
Y6918D01*
D02*
G37*
G36*
X3850Y7372D02*
X3746Y7358D01*
X3648Y7318D01*
X3565Y7254D01*
X3501Y7170D01*
X3460Y7073D01*
X3447Y6968D01*
X3460Y6864D01*
X3501Y6767D01*
X3565Y6683D01*
X3648Y6619D01*
X3746Y6579D01*
X3850Y6565D01*
X3954Y6579D01*
X4052Y6619D01*
X4135Y6683D01*
X4199Y6767D01*
X4240Y6864D01*
X4253Y6968D01*
X4240Y7073D01*
X4199Y7170D01*
X4135Y7254D01*
X4052Y7318D01*
X3954Y7358D01*
X3850Y7372D01*
D02*
G37*
G36*
X4892Y-495D02*
X4550D01*
Y-837D01*
X4603Y-830D01*
X4699Y-790D01*
X4782Y-727D01*
X4845Y-644D01*
X4885Y-548D01*
X4892Y-495D01*
D02*
G37*
G36*
X4450D02*
X4108D01*
X4115Y-548D01*
X4155Y-644D01*
X4218Y-727D01*
X4301Y-790D01*
X4397Y-830D01*
X4450Y-837D01*
Y-495D01*
D02*
G37*
G36*
X9611Y-50D02*
X8820D01*
Y-840D01*
X9611D01*
Y-50D01*
D02*
G37*
G36*
X12165Y-495D02*
X11823D01*
X11830Y-548D01*
X11870Y-644D01*
X11933Y-727D01*
X12016Y-790D01*
X12112Y-830D01*
X12165Y-837D01*
Y-495D01*
D02*
G37*
G36*
X13607D02*
X13265D01*
Y-837D01*
X13319Y-830D01*
X13415Y-790D01*
X13497Y-727D01*
X13561Y-644D01*
X13600Y-548D01*
X13607Y-495D01*
D02*
G37*
G36*
X13165D02*
X12823D01*
X12830Y-548D01*
X12870Y-644D01*
X12933Y-727D01*
X13016Y-790D01*
X13112Y-830D01*
X13165Y-837D01*
Y-495D01*
D02*
G37*
G36*
X12607D02*
X12265D01*
Y-837D01*
X12319Y-830D01*
X12415Y-790D01*
X12497Y-727D01*
X12561Y-644D01*
X12600Y-548D01*
X12607Y-495D01*
D02*
G37*
G36*
X10215Y-46D02*
X10112Y-60D01*
X10016Y-100D01*
X9933Y-163D01*
X9870Y-246D01*
X9830Y-342D01*
X9817Y-445D01*
X9830Y-548D01*
X9870Y-644D01*
X9933Y-727D01*
X10016Y-790D01*
X10112Y-830D01*
X10215Y-844D01*
X10319Y-830D01*
X10415Y-790D01*
X10497Y-727D01*
X10561Y-644D01*
X10600Y-548D01*
X10614Y-445D01*
X10600Y-342D01*
X10561Y-246D01*
X10497Y-163D01*
X10415Y-100D01*
X10319Y-60D01*
X10215Y-46D01*
D02*
G37*
G36*
X19685Y1088D02*
X19515Y1074D01*
X19349Y1034D01*
X19191Y969D01*
X19046Y880D01*
X18916Y769D01*
X18805Y639D01*
X18716Y494D01*
X18651Y336D01*
X18611Y170D01*
X18597Y0D01*
X18611Y-170D01*
X18651Y-336D01*
X18716Y-494D01*
X18805Y-639D01*
X18916Y-769D01*
X19046Y-880D01*
X19191Y-969D01*
X19349Y-1034D01*
X19515Y-1074D01*
X19685Y-1088D01*
X19855Y-1074D01*
X20021Y-1034D01*
X20179Y-969D01*
X20324Y-880D01*
X20454Y-769D01*
X20565Y-639D01*
X20654Y-494D01*
X20719Y-336D01*
X20759Y-170D01*
X20773Y0D01*
X20759Y170D01*
X20719Y336D01*
X20654Y494D01*
X20565Y639D01*
X20454Y769D01*
X20324Y880D01*
X20179Y969D01*
X20021Y1034D01*
X19855Y1074D01*
X19685Y1088D01*
D02*
G37*
G36*
X0D02*
X-170Y1074D01*
X-336Y1034D01*
X-494Y969D01*
X-639Y880D01*
X-769Y769D01*
X-880Y639D01*
X-969Y494D01*
X-1034Y336D01*
X-1074Y170D01*
X-1088Y0D01*
X-1074Y-170D01*
X-1034Y-336D01*
X-969Y-494D01*
X-880Y-639D01*
X-769Y-769D01*
X-639Y-880D01*
X-494Y-969D01*
X-336Y-1034D01*
X-170Y-1074D01*
X0Y-1088D01*
X170Y-1074D01*
X336Y-1034D01*
X494Y-969D01*
X639Y-880D01*
X769Y-769D01*
X880Y-639D01*
X969Y-494D01*
X1034Y-336D01*
X1074Y-170D01*
X1088Y0D01*
X1074Y170D01*
X1034Y336D01*
X969Y494D01*
X880Y639D01*
X769Y769D01*
X639Y880D01*
X494Y969D01*
X336Y1034D01*
X170Y1074D01*
X0Y1088D01*
D02*
G37*
G36*
X6858Y954D02*
X6754Y940D01*
X6658Y900D01*
X6576Y837D01*
X6512Y754D01*
X6473Y658D01*
X6459Y555D01*
X6473Y452D01*
X6512Y356D01*
X6576Y273D01*
X6658Y210D01*
X6754Y170D01*
X6858Y156D01*
X6961Y170D01*
X7057Y210D01*
X7140Y273D01*
X7199Y351D01*
X7300D01*
X7319Y305D01*
X6965Y-50D01*
X6462D01*
Y-840D01*
X7253D01*
Y-338D01*
X7637Y46D01*
X10486D01*
X10843Y-311D01*
X10830Y-342D01*
X10817Y-445D01*
X10830Y-548D01*
X10870Y-644D01*
X10933Y-727D01*
X11016Y-790D01*
X11112Y-830D01*
X11215Y-844D01*
X11319Y-830D01*
X11415Y-790D01*
X11497Y-727D01*
X11561Y-644D01*
X11600Y-548D01*
X11614Y-445D01*
X11600Y-342D01*
X11561Y-246D01*
X11497Y-163D01*
X11415Y-100D01*
X11319Y-60D01*
X11215Y-46D01*
X11162Y-53D01*
X10804Y305D01*
X10823Y351D01*
X13181D01*
X13843Y-311D01*
X13830Y-342D01*
X13817Y-445D01*
X13830Y-548D01*
X13870Y-644D01*
X13933Y-727D01*
X14016Y-790D01*
X14112Y-830D01*
X14215Y-844D01*
X14319Y-830D01*
X14415Y-790D01*
X14497Y-727D01*
X14561Y-644D01*
X14600Y-548D01*
X14614Y-445D01*
X14600Y-342D01*
X14561Y-246D01*
X14497Y-163D01*
X14415Y-100D01*
X14319Y-60D01*
X14215Y-46D01*
X14162Y-53D01*
X13410Y699D01*
X13343Y744D01*
X13265Y759D01*
X7199D01*
X7140Y837D01*
X7057Y900D01*
X6961Y940D01*
X6858Y954D01*
D02*
G37*
G36*
X2895Y-50D02*
X2105D01*
Y-840D01*
X2895D01*
Y-50D01*
D02*
G37*
G36*
X16215Y-46D02*
X16112Y-60D01*
X16016Y-100D01*
X15933Y-163D01*
X15870Y-246D01*
X15830Y-342D01*
X15817Y-445D01*
X15830Y-548D01*
X15870Y-644D01*
X15933Y-727D01*
X16016Y-790D01*
X16112Y-830D01*
X16215Y-844D01*
X16319Y-830D01*
X16415Y-790D01*
X16497Y-727D01*
X16561Y-644D01*
X16600Y-548D01*
X16614Y-445D01*
X16600Y-342D01*
X16561Y-246D01*
X16497Y-163D01*
X16415Y-100D01*
X16319Y-60D01*
X16215Y-46D01*
D02*
G37*
G36*
X15215D02*
X15112Y-60D01*
X15016Y-100D01*
X14933Y-163D01*
X14870Y-246D01*
X14830Y-342D01*
X14817Y-445D01*
X14830Y-548D01*
X14870Y-644D01*
X14933Y-727D01*
X15016Y-790D01*
X15112Y-830D01*
X15215Y-844D01*
X15319Y-830D01*
X15415Y-790D01*
X15497Y-727D01*
X15561Y-644D01*
X15600Y-548D01*
X15614Y-445D01*
X15600Y-342D01*
X15561Y-246D01*
X15497Y-163D01*
X15415Y-100D01*
X15319Y-60D01*
X15215Y-46D01*
D02*
G37*
G36*
X16215Y2954D02*
X16112Y2940D01*
X16016Y2900D01*
X15933Y2837D01*
X15870Y2754D01*
X15830Y2658D01*
X15817Y2555D01*
X15830Y2452D01*
X15870Y2356D01*
X15933Y2273D01*
X16016Y2210D01*
X16112Y2170D01*
X16215Y2156D01*
X16319Y2170D01*
X16415Y2210D01*
X16497Y2273D01*
X16561Y2356D01*
X16600Y2452D01*
X16614Y2555D01*
X16600Y2658D01*
X16561Y2754D01*
X16497Y2837D01*
X16415Y2900D01*
X16319Y2940D01*
X16215Y2954D01*
D02*
G37*
G36*
X15215D02*
X15112Y2940D01*
X15016Y2900D01*
X14933Y2837D01*
X14870Y2754D01*
X14830Y2658D01*
X14817Y2555D01*
X14830Y2452D01*
X14870Y2356D01*
X14933Y2273D01*
X15016Y2210D01*
X15112Y2170D01*
X15215Y2156D01*
X15319Y2170D01*
X15415Y2210D01*
X15497Y2273D01*
X15561Y2356D01*
X15600Y2452D01*
X15614Y2555D01*
X15600Y2658D01*
X15561Y2754D01*
X15497Y2837D01*
X15415Y2900D01*
X15319Y2940D01*
X15215Y2954D01*
D02*
G37*
G36*
X14215D02*
X14112Y2940D01*
X14016Y2900D01*
X13933Y2837D01*
X13870Y2754D01*
X13830Y2658D01*
X13817Y2555D01*
X13830Y2458D01*
X13131Y1759D01*
X10773D01*
X10754Y1805D01*
X11118Y2169D01*
X11215Y2156D01*
X11319Y2170D01*
X11415Y2210D01*
X11497Y2273D01*
X11561Y2356D01*
X11600Y2452D01*
X11614Y2555D01*
X11600Y2658D01*
X11561Y2754D01*
X11497Y2837D01*
X11415Y2900D01*
X11319Y2940D01*
X11215Y2954D01*
X11112Y2940D01*
X11016Y2900D01*
X10933Y2837D01*
X10870Y2754D01*
X10830Y2658D01*
X10817Y2555D01*
X10830Y2458D01*
X10476Y2104D01*
X7597D01*
X7244Y2458D01*
X7256Y2555D01*
X7243Y2658D01*
X7203Y2754D01*
X7140Y2837D01*
X7057Y2900D01*
X6961Y2940D01*
X6858Y2954D01*
X6754Y2940D01*
X6658Y2900D01*
X6576Y2837D01*
X6512Y2754D01*
X6473Y2658D01*
X6459Y2555D01*
X6473Y2452D01*
X6512Y2356D01*
X6576Y2273D01*
X6658Y2210D01*
X6754Y2170D01*
X6858Y2156D01*
X6955Y2169D01*
X7319Y1805D01*
X7300Y1759D01*
X7199D01*
X7140Y1837D01*
X7057Y1900D01*
X6961Y1940D01*
X6858Y1954D01*
X6754Y1940D01*
X6658Y1900D01*
X6576Y1837D01*
X6512Y1754D01*
X6473Y1658D01*
X6459Y1555D01*
X6473Y1452D01*
X6512Y1356D01*
X6576Y1273D01*
X6658Y1210D01*
X6754Y1170D01*
X6858Y1156D01*
X6961Y1170D01*
X7057Y1210D01*
X7140Y1273D01*
X7199Y1351D01*
X13215D01*
X13293Y1367D01*
X13360Y1411D01*
X14118Y2169D01*
X14215Y2156D01*
X14319Y2170D01*
X14415Y2210D01*
X14497Y2273D01*
X14561Y2356D01*
X14600Y2452D01*
X14614Y2555D01*
X14600Y2658D01*
X14561Y2754D01*
X14497Y2837D01*
X14415Y2900D01*
X14319Y2940D01*
X14215Y2954D01*
D02*
G37*
G36*
X9611Y2950D02*
X8820D01*
Y2160D01*
X9611D01*
Y2950D01*
D02*
G37*
G36*
X12607Y2505D02*
X12265D01*
Y2163D01*
X12319Y2170D01*
X12415Y2210D01*
X12497Y2273D01*
X12561Y2356D01*
X12600Y2452D01*
X12607Y2505D01*
D02*
G37*
G36*
X12165D02*
X11823D01*
X11830Y2452D01*
X11870Y2356D01*
X11933Y2273D01*
X12016Y2210D01*
X12112Y2170D01*
X12165Y2163D01*
Y2505D01*
D02*
G37*
G36*
X20525Y2950D02*
X19735D01*
Y2160D01*
X20525D01*
Y2950D01*
D02*
G37*
G36*
X12165Y-53D02*
X12112Y-60D01*
X12016Y-100D01*
X11933Y-163D01*
X11870Y-246D01*
X11830Y-342D01*
X11823Y-395D01*
X12165D01*
Y-53D01*
D02*
G37*
G36*
X4550D02*
Y-395D01*
X4892D01*
X4885Y-342D01*
X4845Y-246D01*
X4782Y-163D01*
X4699Y-100D01*
X4603Y-60D01*
X4550Y-53D01*
D02*
G37*
G36*
X4450D02*
X4397Y-60D01*
X4301Y-100D01*
X4218Y-163D01*
X4155Y-246D01*
X4115Y-342D01*
X4108Y-395D01*
X4450D01*
Y-53D01*
D02*
G37*
G36*
X12265D02*
Y-395D01*
X12607D01*
X12600Y-342D01*
X12561Y-246D01*
X12497Y-163D01*
X12415Y-100D01*
X12319Y-60D01*
X12265Y-53D01*
D02*
G37*
G36*
X10215Y2954D02*
X10112Y2940D01*
X10016Y2900D01*
X9933Y2837D01*
X9870Y2754D01*
X9830Y2658D01*
X9817Y2555D01*
X9830Y2452D01*
X9870Y2356D01*
X9933Y2273D01*
X10016Y2210D01*
X10112Y2170D01*
X10215Y2156D01*
X10319Y2170D01*
X10415Y2210D01*
X10497Y2273D01*
X10561Y2356D01*
X10600Y2452D01*
X10614Y2555D01*
X10600Y2658D01*
X10561Y2754D01*
X10497Y2837D01*
X10415Y2900D01*
X10319Y2940D01*
X10215Y2954D01*
D02*
G37*
G36*
X13265Y-53D02*
Y-395D01*
X13607D01*
X13600Y-342D01*
X13561Y-246D01*
X13497Y-163D01*
X13415Y-100D01*
X13319Y-60D01*
X13265Y-53D01*
D02*
G37*
G36*
X13165D02*
X13112Y-60D01*
X13016Y-100D01*
X12933Y-163D01*
X12870Y-246D01*
X12830Y-342D01*
X12823Y-395D01*
X13165D01*
Y-53D01*
D02*
G37*
G36*
X2850Y8722D02*
X2746Y8708D01*
X2648Y8668D01*
X2565Y8604D01*
X2501Y8520D01*
X2460Y8423D01*
X2447Y8318D01*
X2460Y8214D01*
X2481Y8165D01*
X2286Y7970D01*
X2233Y7988D01*
X2199Y8070D01*
X2135Y8154D01*
X2052Y8218D01*
X1954Y8258D01*
X1900Y8265D01*
Y7868D01*
Y7471D01*
X1954Y7479D01*
X2052Y7519D01*
X2135Y7583D01*
X2150Y7602D01*
X2197Y7586D01*
Y7251D01*
X2150Y7235D01*
X2135Y7254D01*
X2052Y7318D01*
X1954Y7358D01*
X1900Y7365D01*
Y6968D01*
Y6571D01*
X1954Y6579D01*
X2052Y6619D01*
X2135Y6683D01*
X2150Y6702D01*
X2197Y6686D01*
Y6313D01*
X1642Y5758D01*
X1609Y5709D01*
X1597Y5650D01*
Y2950D01*
X1609Y2891D01*
X1642Y2842D01*
X3000Y1484D01*
Y-98D01*
X3012Y-156D01*
X3045Y-206D01*
X3134Y-295D01*
X3115Y-342D01*
X3101Y-445D01*
X3115Y-548D01*
X3155Y-644D01*
X3218Y-727D01*
X3301Y-790D01*
X3397Y-830D01*
X3500Y-844D01*
X3603Y-830D01*
X3699Y-790D01*
X3782Y-727D01*
X3845Y-644D01*
X3885Y-548D01*
X3899Y-445D01*
X3885Y-342D01*
X3845Y-246D01*
X3782Y-163D01*
X3699Y-100D01*
X3603Y-60D01*
X3500Y-46D01*
X3397Y-60D01*
X3350Y-79D01*
X3306Y-34D01*
Y1547D01*
X3294Y1606D01*
X3261Y1655D01*
X1903Y3013D01*
Y5587D01*
X2458Y6142D01*
X2491Y6191D01*
X2503Y6250D01*
Y7136D01*
X2550Y7152D01*
X2565Y7133D01*
X2648Y7069D01*
X2746Y7029D01*
X2800Y7021D01*
Y7418D01*
Y7815D01*
X2746Y7808D01*
X2648Y7768D01*
X2565Y7704D01*
X2550Y7685D01*
X2503Y7701D01*
Y7755D01*
X2697Y7949D01*
X2746Y7929D01*
X2850Y7915D01*
X2954Y7929D01*
X3052Y7969D01*
X3135Y8033D01*
X3199Y8117D01*
X3240Y8214D01*
X3253Y8318D01*
X3240Y8423D01*
X3199Y8520D01*
X3135Y8604D01*
X3052Y8668D01*
X2954Y8708D01*
X2850Y8722D01*
D02*
G37*
G36*
X9195Y16395D02*
X8405D01*
Y15605D01*
X9195D01*
Y16395D01*
D02*
G37*
G36*
X9800Y16399D02*
X9697Y16385D01*
X9601Y16345D01*
X9518Y16282D01*
X9455Y16199D01*
X9415Y16103D01*
X9401Y16000D01*
X9415Y15897D01*
X9455Y15801D01*
X9518Y15718D01*
X9601Y15655D01*
X9697Y15615D01*
X9800Y15601D01*
X9903Y15615D01*
X9999Y15655D01*
X10082Y15718D01*
X10145Y15801D01*
X10185Y15897D01*
X10199Y16000D01*
X10185Y16103D01*
X10145Y16199D01*
X10082Y16282D01*
X9999Y16345D01*
X9903Y16385D01*
X9800Y16399D01*
D02*
G37*
G36*
X16965Y15600D02*
X16623D01*
Y15258D01*
X16676Y15265D01*
X16772Y15305D01*
X16855Y15368D01*
X16918Y15451D01*
X16958Y15547D01*
X16965Y15600D01*
D02*
G37*
G36*
X18523Y16042D02*
X18470Y16035D01*
X18374Y15995D01*
X18291Y15932D01*
X18228Y15849D01*
X18188Y15753D01*
X18181Y15700D01*
X18523D01*
Y16042D01*
D02*
G37*
G36*
X16623D02*
Y15700D01*
X16965D01*
X16958Y15753D01*
X16918Y15849D01*
X16855Y15932D01*
X16772Y15995D01*
X16676Y16035D01*
X16623Y16042D01*
D02*
G37*
G36*
X18623D02*
Y15700D01*
X18965D01*
X18958Y15753D01*
X18918Y15849D01*
X18855Y15932D01*
X18772Y15995D01*
X18676Y16035D01*
X18623Y16042D01*
D02*
G37*
G36*
X16523D02*
X16470Y16035D01*
X16374Y15995D01*
X16291Y15932D01*
X16228Y15849D01*
X16188Y15753D01*
X16181Y15700D01*
X16523D01*
Y16042D01*
D02*
G37*
G36*
X8800Y15399D02*
X8697Y15385D01*
X8601Y15345D01*
X8518Y15282D01*
X8455Y15199D01*
X8415Y15103D01*
X8401Y15000D01*
X8415Y14897D01*
X8455Y14801D01*
X8518Y14718D01*
X8601Y14655D01*
X8697Y14615D01*
X8800Y14601D01*
X8903Y14615D01*
X8999Y14655D01*
X9082Y14718D01*
X9145Y14801D01*
X9185Y14897D01*
X9199Y15000D01*
X9185Y15103D01*
X9145Y15199D01*
X9082Y15282D01*
X8999Y15345D01*
X8903Y15385D01*
X8800Y15399D01*
D02*
G37*
G36*
X9850Y14392D02*
Y14050D01*
X10192D01*
X10185Y14103D01*
X10145Y14199D01*
X10082Y14282D01*
X9999Y14345D01*
X9903Y14385D01*
X9850Y14392D01*
D02*
G37*
G36*
X9750D02*
X9697Y14385D01*
X9601Y14345D01*
X9518Y14282D01*
X9455Y14199D01*
X9415Y14103D01*
X9408Y14050D01*
X9750D01*
Y14392D01*
D02*
G37*
G36*
X9800Y15399D02*
X9697Y15385D01*
X9601Y15345D01*
X9518Y15282D01*
X9455Y15199D01*
X9415Y15103D01*
X9401Y15000D01*
X9415Y14897D01*
X9455Y14801D01*
X9518Y14718D01*
X9601Y14655D01*
X9697Y14615D01*
X9800Y14601D01*
X9903Y14615D01*
X9999Y14655D01*
X10082Y14718D01*
X10145Y14801D01*
X10185Y14897D01*
X10199Y15000D01*
X10185Y15103D01*
X10145Y15199D01*
X10082Y15282D01*
X9999Y15345D01*
X9903Y15385D01*
X9800Y15399D01*
D02*
G37*
G36*
X18523Y15600D02*
X18181D01*
X18188Y15547D01*
X18228Y15451D01*
X18291Y15368D01*
X18374Y15305D01*
X18470Y15265D01*
X18523Y15258D01*
Y15600D01*
D02*
G37*
G36*
X16523D02*
X16181D01*
X16188Y15547D01*
X16228Y15451D01*
X16291Y15368D01*
X16374Y15305D01*
X16470Y15265D01*
X16523Y15258D01*
Y15600D01*
D02*
G37*
G36*
X17573Y16049D02*
X17470Y16035D01*
X17374Y15995D01*
X17291Y15932D01*
X17228Y15849D01*
X17188Y15753D01*
X17174Y15650D01*
X17188Y15547D01*
X17228Y15451D01*
X17291Y15368D01*
X17374Y15305D01*
X17470Y15265D01*
X17573Y15251D01*
X17676Y15265D01*
X17772Y15305D01*
X17855Y15368D01*
X17918Y15451D01*
X17958Y15547D01*
X17972Y15650D01*
X17958Y15753D01*
X17918Y15849D01*
X17855Y15932D01*
X17772Y15995D01*
X17676Y16035D01*
X17573Y16049D01*
D02*
G37*
G36*
X17968Y18557D02*
X17178D01*
Y17766D01*
X17968D01*
Y18557D01*
D02*
G37*
G36*
X14611D02*
X13820D01*
Y17766D01*
X14611D01*
Y18557D01*
D02*
G37*
G36*
X10253D02*
X9462D01*
Y17766D01*
X10253D01*
Y18557D01*
D02*
G37*
G36*
X16523Y18111D02*
X16181D01*
X16188Y18058D01*
X16228Y17962D01*
X16291Y17880D01*
X16374Y17816D01*
X16470Y17776D01*
X16523Y17769D01*
Y18111D01*
D02*
G37*
G36*
X16623Y18554D02*
Y18211D01*
X16965D01*
X16958Y18265D01*
X16918Y18361D01*
X16855Y18443D01*
X16772Y18507D01*
X16676Y18547D01*
X16623Y18554D01*
D02*
G37*
G36*
X16523D02*
X16470Y18547D01*
X16374Y18507D01*
X16291Y18443D01*
X16228Y18361D01*
X16188Y18265D01*
X16181Y18211D01*
X16523D01*
Y18554D01*
D02*
G37*
G36*
X16965Y18111D02*
X16623D01*
Y17769D01*
X16676Y17776D01*
X16772Y17816D01*
X16855Y17880D01*
X16918Y17962D01*
X16958Y18058D01*
X16965Y18111D01*
D02*
G37*
G36*
X7858Y18560D02*
X7754Y18547D01*
X7658Y18507D01*
X7576Y18443D01*
X7512Y18361D01*
X7473Y18265D01*
X7459Y18161D01*
X7473Y18058D01*
X7512Y17962D01*
X7576Y17880D01*
X7658Y17816D01*
X7754Y17776D01*
X7858Y17763D01*
X7961Y17776D01*
X8057Y17816D01*
X8140Y17880D01*
X8203Y17962D01*
X8243Y18058D01*
X8256Y18161D01*
X8243Y18265D01*
X8203Y18361D01*
X8140Y18443D01*
X8057Y18507D01*
X7961Y18547D01*
X7858Y18560D01*
D02*
G37*
G36*
X19685Y18804D02*
X19515Y18791D01*
X19349Y18751D01*
X19191Y18686D01*
X19046Y18596D01*
X18916Y18486D01*
X18805Y18356D01*
X18716Y18210D01*
X18651Y18053D01*
X18611Y17887D01*
X18597Y17717D01*
X18611Y17546D01*
X18651Y17380D01*
X18716Y17223D01*
X18805Y17077D01*
X18916Y16947D01*
X19046Y16837D01*
X19191Y16747D01*
X19349Y16682D01*
X19515Y16642D01*
X19685Y16629D01*
X19855Y16642D01*
X20021Y16682D01*
X20179Y16747D01*
X20324Y16837D01*
X20454Y16947D01*
X20565Y17077D01*
X20654Y17223D01*
X20719Y17380D01*
X20759Y17546D01*
X20773Y17717D01*
X20759Y17887D01*
X20719Y18053D01*
X20654Y18210D01*
X20565Y18356D01*
X20454Y18486D01*
X20324Y18596D01*
X20179Y18686D01*
X20021Y18751D01*
X19855Y18791D01*
X19685Y18804D01*
D02*
G37*
G36*
X0D02*
X-170Y18791D01*
X-336Y18751D01*
X-494Y18686D01*
X-639Y18596D01*
X-769Y18486D01*
X-880Y18356D01*
X-969Y18210D01*
X-1034Y18053D01*
X-1074Y17887D01*
X-1088Y17717D01*
X-1074Y17546D01*
X-1034Y17380D01*
X-969Y17223D01*
X-880Y17077D01*
X-769Y16947D01*
X-639Y16837D01*
X-494Y16747D01*
X-336Y16682D01*
X-170Y16642D01*
X0Y16629D01*
X170Y16642D01*
X336Y16682D01*
X494Y16747D01*
X639Y16837D01*
X769Y16947D01*
X880Y17077D01*
X969Y17223D01*
X1034Y17380D01*
X1074Y17546D01*
X1088Y17717D01*
X1074Y17887D01*
X1034Y18053D01*
X969Y18210D01*
X880Y18356D01*
X769Y18486D01*
X639Y18596D01*
X494Y18686D01*
X336Y18751D01*
X170Y18791D01*
X0Y18804D01*
D02*
G37*
G36*
X8858Y18560D02*
X8754Y18547D01*
X8658Y18507D01*
X8576Y18443D01*
X8512Y18361D01*
X8473Y18265D01*
X8459Y18161D01*
X8473Y18058D01*
X8512Y17962D01*
X8576Y17880D01*
X8658Y17816D01*
X8754Y17776D01*
X8858Y17763D01*
X8961Y17776D01*
X9057Y17816D01*
X9140Y17880D01*
X9203Y17962D01*
X9243Y18058D01*
X9256Y18161D01*
X9243Y18265D01*
X9203Y18361D01*
X9140Y18443D01*
X9057Y18507D01*
X8961Y18547D01*
X8858Y18560D01*
D02*
G37*
G36*
X4761Y19104D02*
X4350D01*
X4272Y19088D01*
X4206Y19044D01*
X3856Y18694D01*
X3812Y18628D01*
X3796Y18550D01*
Y18495D01*
X3746Y18471D01*
X3699Y18507D01*
X3603Y18547D01*
X3500Y18560D01*
X3397Y18547D01*
X3301Y18507D01*
X3218Y18443D01*
X3155Y18361D01*
X3115Y18265D01*
X3101Y18161D01*
X3114Y18064D01*
X1556Y16506D01*
X1512Y16439D01*
X1504Y16401D01*
X1454Y16406D01*
Y16827D01*
X2403Y17776D01*
X2500Y17763D01*
X2603Y17776D01*
X2699Y17816D01*
X2782Y17880D01*
X2845Y17962D01*
X2885Y18058D01*
X2899Y18161D01*
X2885Y18265D01*
X2845Y18361D01*
X2782Y18443D01*
X2699Y18507D01*
X2603Y18547D01*
X2500Y18560D01*
X2397Y18547D01*
X2301Y18507D01*
X2218Y18443D01*
X2155Y18361D01*
X2115Y18265D01*
X2101Y18161D01*
X2114Y18064D01*
X1106Y17056D01*
X1062Y16989D01*
X1046Y16911D01*
Y11168D01*
X1062Y11090D01*
X1106Y11024D01*
X1460Y10670D01*
X1447Y10568D01*
X1460Y10464D01*
X1501Y10367D01*
X1565Y10283D01*
X1648Y10219D01*
X1746Y10179D01*
X1850Y10165D01*
X1954Y10179D01*
X2034Y10212D01*
X2063Y10169D01*
X1952Y10058D01*
X1850Y10072D01*
X1746Y10058D01*
X1648Y10018D01*
X1565Y9954D01*
X1501Y9870D01*
X1460Y9773D01*
X1447Y9668D01*
X1460Y9564D01*
X1501Y9467D01*
X1565Y9383D01*
X1648Y9319D01*
X1746Y9279D01*
X1850Y9265D01*
X1954Y9279D01*
X2052Y9319D01*
X2135Y9383D01*
X2199Y9467D01*
X2240Y9564D01*
X2253Y9668D01*
X2240Y9770D01*
X2435Y9965D01*
X2484Y9956D01*
X2501Y9917D01*
X2565Y9833D01*
X2648Y9769D01*
X2746Y9729D01*
X2850Y9715D01*
X2954Y9729D01*
X3052Y9769D01*
X3135Y9833D01*
X3199Y9917D01*
X3240Y10014D01*
X3253Y10118D01*
X3240Y10220D01*
X3435Y10415D01*
X3484Y10406D01*
X3501Y10367D01*
X3547Y10306D01*
Y9931D01*
X3501Y9870D01*
X3460Y9773D01*
X3447Y9668D01*
X3460Y9564D01*
X3501Y9467D01*
X3547Y9406D01*
Y9031D01*
X3501Y8970D01*
X3460Y8873D01*
X3447Y8768D01*
X3460Y8664D01*
X3501Y8567D01*
X3565Y8483D01*
X3648Y8419D01*
X3746Y8379D01*
X3850Y8365D01*
X3954Y8379D01*
X4052Y8419D01*
X4135Y8483D01*
X4199Y8567D01*
X4240Y8664D01*
X4253Y8768D01*
X4240Y8873D01*
X4199Y8970D01*
X4153Y9031D01*
Y9406D01*
X4199Y9467D01*
X4240Y9564D01*
X4253Y9668D01*
X4240Y9773D01*
X4199Y9870D01*
X4153Y9931D01*
Y10306D01*
X4199Y10367D01*
X4240Y10464D01*
X4250Y10540D01*
X6557Y12847D01*
X11300D01*
X11378Y12858D01*
X11451Y12888D01*
X11514Y12936D01*
X13125Y14547D01*
X18773D01*
X18851Y14558D01*
X18924Y14588D01*
X18987Y14636D01*
X19606Y15255D01*
X19968D01*
Y16045D01*
X19178D01*
Y15683D01*
X18991Y15496D01*
X18949Y15524D01*
X18958Y15547D01*
X18965Y15600D01*
X18623D01*
Y15258D01*
X18676Y15265D01*
X18699Y15274D01*
X18727Y15232D01*
X18648Y15153D01*
X13000D01*
X12922Y15142D01*
X12849Y15112D01*
X12786Y15064D01*
X11175Y13453D01*
X6432D01*
X6353Y13442D01*
X6280Y13412D01*
X6218Y13364D01*
X6218Y13364D01*
X4694Y11840D01*
X4655Y11872D01*
X4688Y11922D01*
X4704Y12000D01*
X4704Y12000D01*
Y17820D01*
X4782Y17880D01*
X4845Y17962D01*
X4885Y18058D01*
X4899Y18161D01*
X4885Y18265D01*
X4845Y18361D01*
X4782Y18443D01*
X4699Y18507D01*
X4603Y18547D01*
X4500Y18560D01*
X4397Y18547D01*
X4326Y18517D01*
X4298Y18560D01*
X4434Y18696D01*
X4677D01*
X5105Y18268D01*
Y17766D01*
X5895D01*
Y18557D01*
X5393D01*
X4906Y19044D01*
X4839Y19088D01*
X4761Y19104D01*
D02*
G37*
G36*
X13215Y18560D02*
X13112Y18547D01*
X13016Y18507D01*
X12933Y18443D01*
X12870Y18361D01*
X12830Y18265D01*
X12817Y18161D01*
X12830Y18058D01*
X12870Y17962D01*
X12933Y17880D01*
X13016Y17816D01*
X13112Y17776D01*
X13215Y17763D01*
X13319Y17776D01*
X13415Y17816D01*
X13497Y17880D01*
X13561Y17962D01*
X13600Y18058D01*
X13614Y18161D01*
X13600Y18265D01*
X13561Y18361D01*
X13497Y18443D01*
X13415Y18507D01*
X13319Y18547D01*
X13215Y18560D01*
D02*
G37*
G36*
X12215D02*
X12112Y18547D01*
X12016Y18507D01*
X11933Y18443D01*
X11870Y18361D01*
X11830Y18265D01*
X11817Y18161D01*
X11830Y18058D01*
X11870Y17962D01*
X11933Y17880D01*
X12016Y17816D01*
X12112Y17776D01*
X12215Y17763D01*
X12319Y17776D01*
X12415Y17816D01*
X12497Y17880D01*
X12561Y17962D01*
X12600Y18058D01*
X12614Y18161D01*
X12600Y18265D01*
X12561Y18361D01*
X12497Y18443D01*
X12415Y18507D01*
X12319Y18547D01*
X12215Y18560D01*
D02*
G37*
G36*
X15346Y11450D02*
X15050D01*
Y11154D01*
X15091Y11159D01*
X15177Y11194D01*
X15250Y11250D01*
X15306Y11323D01*
X15341Y11409D01*
X15346Y11450D01*
D02*
G37*
G36*
X14950D02*
X14654D01*
X14659Y11409D01*
X14694Y11323D01*
X14750Y11250D01*
X14823Y11194D01*
X14909Y11159D01*
X14950Y11154D01*
Y11450D01*
D02*
G37*
G36*
X10450Y10696D02*
Y10400D01*
X10746D01*
X10741Y10441D01*
X10706Y10527D01*
X10650Y10600D01*
X10577Y10656D01*
X10491Y10691D01*
X10450Y10696D01*
D02*
G37*
G36*
X20775Y11945D02*
X19985D01*
Y11155D01*
X20775D01*
Y11945D01*
D02*
G37*
G36*
X20772Y12500D02*
X20430D01*
Y12158D01*
X20483Y12165D01*
X20579Y12205D01*
X20662Y12268D01*
X20725Y12351D01*
X20765Y12447D01*
X20772Y12500D01*
D02*
G37*
G36*
X15050Y11846D02*
Y11550D01*
X15346D01*
X15341Y11591D01*
X15306Y11677D01*
X15250Y11750D01*
X15177Y11806D01*
X15091Y11841D01*
X15050Y11846D01*
D02*
G37*
G36*
X14950D02*
X14909Y11841D01*
X14823Y11806D01*
X14750Y11750D01*
X14694Y11677D01*
X14659Y11591D01*
X14654Y11550D01*
X14950D01*
Y11846D01*
D02*
G37*
G36*
X1850Y9172D02*
X1746Y9158D01*
X1648Y9118D01*
X1565Y9054D01*
X1501Y8970D01*
X1460Y8873D01*
X1447Y8768D01*
X1460Y8664D01*
X1501Y8567D01*
X1565Y8483D01*
X1648Y8419D01*
X1746Y8379D01*
X1850Y8365D01*
X1954Y8379D01*
X2052Y8419D01*
X2135Y8483D01*
X2199Y8567D01*
X2240Y8664D01*
X2253Y8768D01*
X2240Y8873D01*
X2199Y8970D01*
X2135Y9054D01*
X2052Y9118D01*
X1954Y9158D01*
X1850Y9172D01*
D02*
G37*
G36*
X6550Y8346D02*
Y8050D01*
X6846D01*
X6841Y8091D01*
X6806Y8177D01*
X6750Y8250D01*
X6677Y8306D01*
X6591Y8341D01*
X6550Y8346D01*
D02*
G37*
G36*
X6450D02*
X6409Y8341D01*
X6323Y8306D01*
X6250Y8250D01*
X6194Y8177D01*
X6159Y8091D01*
X6154Y8050D01*
X6450D01*
Y8346D01*
D02*
G37*
G36*
X2850Y9622D02*
X2746Y9608D01*
X2648Y9568D01*
X2565Y9504D01*
X2501Y9420D01*
X2460Y9323D01*
X2447Y9218D01*
X2460Y9114D01*
X2501Y9017D01*
X2565Y8933D01*
X2648Y8869D01*
X2746Y8829D01*
X2850Y8815D01*
X2954Y8829D01*
X3052Y8869D01*
X3135Y8933D01*
X3199Y9017D01*
X3240Y9114D01*
X3253Y9218D01*
X3240Y9323D01*
X3199Y9420D01*
X3135Y9504D01*
X3052Y9568D01*
X2954Y9608D01*
X2850Y9622D01*
D02*
G37*
G36*
X10350Y10696D02*
X10309Y10691D01*
X10223Y10656D01*
X10150Y10600D01*
X10094Y10527D01*
X10059Y10441D01*
X10054Y10400D01*
X10350D01*
Y10696D01*
D02*
G37*
G36*
X10746Y10300D02*
X10450D01*
Y10004D01*
X10491Y10009D01*
X10577Y10044D01*
X10650Y10100D01*
X10706Y10173D01*
X10741Y10259D01*
X10746Y10300D01*
D02*
G37*
G36*
X10350D02*
X10054D01*
X10059Y10259D01*
X10094Y10173D01*
X10150Y10100D01*
X10223Y10044D01*
X10309Y10009D01*
X10350Y10004D01*
Y10300D01*
D02*
G37*
G36*
X8800Y14399D02*
X8697Y14385D01*
X8601Y14345D01*
X8518Y14282D01*
X8455Y14199D01*
X8415Y14103D01*
X8401Y14000D01*
X8415Y13897D01*
X8455Y13801D01*
X8518Y13718D01*
X8601Y13655D01*
X8697Y13615D01*
X8800Y13601D01*
X8903Y13615D01*
X8999Y13655D01*
X9082Y13718D01*
X9145Y13801D01*
X9185Y13897D01*
X9199Y14000D01*
X9185Y14103D01*
X9145Y14199D01*
X9082Y14282D01*
X8999Y14345D01*
X8903Y14385D01*
X8800Y14399D01*
D02*
G37*
G36*
X15346Y13600D02*
X15050D01*
Y13304D01*
X15091Y13309D01*
X15177Y13344D01*
X15250Y13400D01*
X15306Y13473D01*
X15341Y13559D01*
X15346Y13600D01*
D02*
G37*
G36*
X14950D02*
X14654D01*
X14659Y13559D01*
X14694Y13473D01*
X14750Y13400D01*
X14823Y13344D01*
X14909Y13309D01*
X14950Y13304D01*
Y13600D01*
D02*
G37*
G36*
X9750Y13950D02*
X9408D01*
X9415Y13897D01*
X9455Y13801D01*
X9518Y13718D01*
X9601Y13655D01*
X9697Y13615D01*
X9750Y13608D01*
Y13950D01*
D02*
G37*
G36*
X15050Y13996D02*
Y13700D01*
X15346D01*
X15341Y13741D01*
X15306Y13827D01*
X15250Y13900D01*
X15177Y13956D01*
X15091Y13991D01*
X15050Y13996D01*
D02*
G37*
G36*
X14950D02*
X14909Y13991D01*
X14823Y13956D01*
X14750Y13900D01*
X14694Y13827D01*
X14659Y13741D01*
X14654Y13700D01*
X14950D01*
Y13996D01*
D02*
G37*
G36*
X10192Y13950D02*
X9850D01*
Y13608D01*
X9903Y13615D01*
X9999Y13655D01*
X10082Y13718D01*
X10145Y13801D01*
X10185Y13897D01*
X10192Y13950D01*
D02*
G37*
G36*
X15346Y12525D02*
X15050D01*
Y12229D01*
X15091Y12234D01*
X15177Y12269D01*
X15250Y12325D01*
X15306Y12398D01*
X15341Y12484D01*
X15346Y12525D01*
D02*
G37*
G36*
X14950D02*
X14654D01*
X14659Y12484D01*
X14694Y12398D01*
X14750Y12325D01*
X14823Y12269D01*
X14909Y12234D01*
X14950Y12229D01*
Y12525D01*
D02*
G37*
G36*
X20330Y12500D02*
X19988D01*
X19995Y12447D01*
X20035Y12351D01*
X20098Y12268D01*
X20181Y12205D01*
X20277Y12165D01*
X20330Y12158D01*
Y12500D01*
D02*
G37*
G36*
Y12942D02*
X20277Y12935D01*
X20181Y12895D01*
X20098Y12832D01*
X20035Y12749D01*
X19995Y12653D01*
X19988Y12600D01*
X20330D01*
Y12942D01*
D02*
G37*
G36*
X15050Y12921D02*
Y12625D01*
X15346D01*
X15341Y12666D01*
X15306Y12752D01*
X15250Y12825D01*
X15177Y12881D01*
X15091Y12916D01*
X15050Y12921D01*
D02*
G37*
G36*
X14950D02*
X14909Y12916D01*
X14823Y12881D01*
X14750Y12825D01*
X14694Y12752D01*
X14659Y12666D01*
X14654Y12625D01*
X14950D01*
Y12921D01*
D02*
G37*
G36*
X20430Y12942D02*
Y12600D01*
X20772D01*
X20765Y12653D01*
X20725Y12749D01*
X20662Y12832D01*
X20579Y12895D01*
X20483Y12935D01*
X20430Y12942D01*
D02*
G37*
%LPD*%
D21*
X13265Y555D02*
X14265Y-445D01*
X10570Y250D02*
X11265Y-445D01*
X4000Y12168D02*
Y18550D01*
X2850Y11018D02*
X4000Y12168D01*
X4500Y12000D02*
Y18161D01*
X3350Y10850D02*
X4500Y12000D01*
X3350Y10618D02*
Y10850D01*
X4000Y18550D02*
X4350Y18900D01*
X4761D01*
X5500Y18161D01*
X2850Y10118D02*
X3350Y10618D01*
X1850Y9668D02*
X2350Y10168D01*
Y11050D01*
X1700Y11700D02*
X2350Y11050D01*
X1700Y11700D02*
Y16361D01*
X3500Y18161D01*
X1250Y16911D02*
X2500Y18161D01*
X1250Y11168D02*
Y16911D01*
Y11168D02*
X1850Y10568D01*
X6858Y2555D02*
X7513Y1900D01*
X10560D01*
X11215Y2555D01*
X6858Y1555D02*
X13215D01*
X14215Y2555D01*
X6858Y-445D02*
X7553Y250D01*
X6858Y555D02*
X13265D01*
X7553Y250D02*
X10570D01*
D22*
X2350Y7818D02*
X2850Y8318D01*
X2350Y6250D02*
Y7818D01*
X1750Y5650D02*
X2350Y6250D01*
X1750Y2950D02*
Y5650D01*
Y2950D02*
X3153Y1547D01*
Y-98D02*
Y1547D01*
X10402Y9050D02*
X15552Y3900D01*
X9500Y9050D02*
X10402D01*
X3153Y-98D02*
X3500Y-445D01*
D23*
X3850Y9668D02*
Y10568D01*
Y8768D02*
Y9668D01*
Y10568D02*
X6432Y13150D01*
X11300D01*
X13000Y14850D01*
X18773D01*
X19573Y15650D01*
D24*
X2850Y13790D02*
D03*
Y3747D02*
D03*
D25*
X3850Y10568D02*
D03*
Y8768D02*
D03*
Y9668D02*
D03*
Y7868D02*
D03*
Y6968D02*
D03*
X2850Y7418D02*
D03*
Y8318D02*
D03*
Y10118D02*
D03*
Y9218D02*
D03*
Y11018D02*
D03*
X1850Y6968D02*
D03*
Y7868D02*
D03*
Y9668D02*
D03*
Y8768D02*
D03*
Y10568D02*
D03*
D26*
X16573Y15650D02*
D03*
X17573D02*
D03*
X18573D02*
D03*
X20380Y12550D02*
D03*
X20130Y3555D02*
D03*
Y4555D02*
D03*
Y5555D02*
D03*
X4500Y-445D02*
D03*
X3500D02*
D03*
X16215D02*
D03*
X15215D02*
D03*
X14215D02*
D03*
X13215D02*
D03*
X12215D02*
D03*
X11215D02*
D03*
X10215D02*
D03*
X16215Y2555D02*
D03*
X15215D02*
D03*
X14215D02*
D03*
X13215D02*
D03*
X12215D02*
D03*
X11215D02*
D03*
X10215D02*
D03*
X16573Y18161D02*
D03*
X6858Y555D02*
D03*
Y1555D02*
D03*
Y2555D02*
D03*
X7858Y18161D02*
D03*
X8858D02*
D03*
X12215D02*
D03*
X13215D02*
D03*
X4500D02*
D03*
X3500D02*
D03*
X2500D02*
D03*
X9800Y14000D02*
D03*
X8800D02*
D03*
X9800Y15000D02*
D03*
X8800D02*
D03*
X9800Y16000D02*
D03*
D27*
X19573Y15650D02*
D03*
X2500Y-445D02*
D03*
X9215D02*
D03*
Y2555D02*
D03*
X17573Y18161D02*
D03*
X9858D02*
D03*
X14215D02*
D03*
X5500D02*
D03*
D28*
X20380Y11550D02*
D03*
X20130Y2555D02*
D03*
X6858Y-445D02*
D03*
X8800Y16000D02*
D03*
D29*
X15000Y11500D02*
D03*
Y13650D02*
D03*
Y12575D02*
D03*
X6500Y8000D02*
D03*
X9500Y9050D02*
D03*
X15552Y3900D02*
D03*
X10850Y4900D02*
D03*
X10400Y10350D02*
D03*
D30*
X0Y0D02*
D03*
Y17717D02*
D03*
X19685Y0D02*
D03*
Y17717D02*
D03*
M02*
