G04 Layer_Color=128*
%FSLAX24Y24*%
%MOIN*%
G70*
G01*
G75*
%ADD45C,0.0020*%
D45*
X3383Y13071D02*
X3683D01*
X3533Y12921D02*
Y13221D01*
X2212Y13071D02*
X2512D01*
X2362Y12921D02*
Y13221D01*
X8315Y13189D02*
X8615D01*
X8465Y13039D02*
Y13339D01*
X7330Y12205D02*
X7630D01*
X7480Y12055D02*
Y12355D01*
X7330Y13189D02*
X7630D01*
X7480Y13039D02*
Y13339D01*
X4209Y14205D02*
X4563D01*
X4386Y14028D02*
Y14382D01*
X3209Y14205D02*
X3563D01*
X3386Y14028D02*
Y14382D01*
X2209Y14205D02*
X2563D01*
X2386Y14028D02*
Y14382D01*
X1209Y14205D02*
X1563D01*
X1386Y14028D02*
Y14382D01*
X5709Y2205D02*
X6063D01*
X5886Y2028D02*
Y2382D01*
X5709Y1205D02*
X6063D01*
X5886Y1028D02*
Y1382D01*
X4709Y2205D02*
X5063D01*
X4886Y2028D02*
Y2382D01*
X4709Y1205D02*
X5063D01*
X4886Y1028D02*
Y1382D01*
X3709Y2205D02*
X4063D01*
X3886Y2028D02*
Y2382D01*
X3709Y1205D02*
X4063D01*
X3886Y1028D02*
Y1382D01*
X1209Y12205D02*
X1563D01*
X1386Y12028D02*
Y12382D01*
X1209Y11205D02*
X1563D01*
X1386Y11028D02*
Y11382D01*
X1209Y10205D02*
X1563D01*
X1386Y10028D02*
Y10382D01*
X1209Y9205D02*
X1563D01*
X1386Y9028D02*
Y9382D01*
X1209Y8205D02*
X1563D01*
X1386Y8028D02*
Y8382D01*
X1209Y7205D02*
X1563D01*
X1386Y7028D02*
Y7382D01*
X1209Y6205D02*
X1563D01*
X1386Y6028D02*
Y6382D01*
X1209Y5205D02*
X1563D01*
X1386Y5028D02*
Y5382D01*
X1209Y4205D02*
X1563D01*
X1386Y4028D02*
Y4382D01*
X1209Y3205D02*
X1563D01*
X1386Y3028D02*
Y3382D01*
X1209Y2205D02*
X1563D01*
X1386Y2028D02*
Y2382D01*
X1209Y1205D02*
X1563D01*
X1386Y1028D02*
Y1382D01*
X8209Y1205D02*
X8563D01*
X8386Y1028D02*
Y1382D01*
X8209Y2205D02*
X8563D01*
X8386Y2028D02*
Y2382D01*
X8209Y3205D02*
X8563D01*
X8386Y3028D02*
Y3382D01*
X8209Y4205D02*
X8563D01*
X8386Y4028D02*
Y4382D01*
X8209Y5205D02*
X8563D01*
X8386Y5028D02*
Y5382D01*
X8209Y6205D02*
X8563D01*
X8386Y6028D02*
Y6382D01*
X8209Y7205D02*
X8563D01*
X8386Y7028D02*
Y7382D01*
X8209Y8205D02*
X8563D01*
X8386Y8028D02*
Y8382D01*
X8209Y9205D02*
X8563D01*
X8386Y9028D02*
Y9382D01*
X8209Y10205D02*
X8563D01*
X8386Y10028D02*
Y10382D01*
X8209Y11205D02*
X8563D01*
X8386Y11028D02*
Y11382D01*
X8209Y12205D02*
X8563D01*
X8386Y12028D02*
Y12382D01*
X7209Y14205D02*
X7563D01*
X7386Y14028D02*
Y14382D01*
X8209Y14205D02*
X8563D01*
X8386Y14028D02*
Y14382D01*
X2212Y11998D02*
X2492D01*
X2352Y11858D02*
Y12138D01*
X3393Y11998D02*
X3673D01*
X3533Y11858D02*
Y12138D01*
X4466Y9724D02*
X4746D01*
X4606Y9584D02*
Y9864D01*
X4466Y9094D02*
X4746D01*
X4606Y8954D02*
Y9234D01*
X4466Y8465D02*
X4746D01*
X4606Y8325D02*
Y8605D01*
X5411Y9685D02*
X5691D01*
X5551Y9545D02*
Y9825D01*
X3988Y22913D02*
X4988D01*
X4488Y22413D02*
Y23413D01*
X1532Y20039D02*
X1812D01*
X1672Y19899D02*
Y20179D01*
M02*
