G04 Layer_Physical_Order=2*
G04 Layer_Color=16711680*
%FSLAX24Y24*%
%MOIN*%
G70*
G01*
G75*
%ADD21C,0.0100*%
%ADD22R,0.0591X0.0591*%
%ADD23C,0.0591*%
%ADD24R,0.0591X0.0591*%
%ADD25C,0.1969*%
%ADD26C,0.0500*%
G36*
X21241Y17334D02*
X21479Y17287D01*
X21708Y17209D01*
X21925Y17102D01*
X22126Y16967D01*
X22308Y16808D01*
X22467Y16626D01*
X22602Y16425D01*
X22709Y16208D01*
X22787Y15979D01*
X22834Y15741D01*
X22849Y15510D01*
X22847Y15500D01*
Y0D01*
X22849Y-10D01*
X22834Y-241D01*
X22787Y-479D01*
X22709Y-708D01*
X22602Y-925D01*
X22467Y-1126D01*
X22308Y-1308D01*
X22126Y-1467D01*
X21925Y-1602D01*
X21708Y-1709D01*
X21479Y-1787D01*
X21241Y-1834D01*
X21010Y-1849D01*
X21000Y-1847D01*
X0D01*
X-10Y-1849D01*
X-241Y-1834D01*
X-479Y-1787D01*
X-708Y-1709D01*
X-925Y-1602D01*
X-1126Y-1467D01*
X-1308Y-1308D01*
X-1467Y-1126D01*
X-1602Y-925D01*
X-1709Y-708D01*
X-1787Y-479D01*
X-1834Y-241D01*
X-1849Y-10D01*
X-1847Y0D01*
Y15500D01*
X-1849Y15510D01*
X-1834Y15741D01*
X-1787Y15979D01*
X-1709Y16208D01*
X-1602Y16425D01*
X-1467Y16626D01*
X-1308Y16808D01*
X-1126Y16967D01*
X-925Y17102D01*
X-708Y17209D01*
X-479Y17287D01*
X-241Y17334D01*
X-10Y17349D01*
X0Y17347D01*
X21000D01*
X21010Y17349D01*
X21241Y17334D01*
D02*
G37*
%LPC*%
G36*
X19344Y2792D02*
Y2450D01*
X19686D01*
X19679Y2503D01*
X19639Y2599D01*
X19576Y2682D01*
X19494Y2745D01*
X19397Y2785D01*
X19344Y2792D01*
D02*
G37*
G36*
X19244Y2792D02*
X19191Y2785D01*
X19095Y2745D01*
X19012Y2682D01*
X18949Y2599D01*
X18909Y2503D01*
X18902Y2450D01*
X19244D01*
Y2792D01*
D02*
G37*
G36*
Y2350D02*
X18902D01*
X18909Y2297D01*
X18949Y2201D01*
X19012Y2118D01*
X19095Y2055D01*
X19191Y2015D01*
X19244Y2008D01*
Y2350D01*
D02*
G37*
G36*
X20294Y3799D02*
X20191Y3785D01*
X20095Y3745D01*
X20012Y3682D01*
X19949Y3599D01*
X19909Y3503D01*
X19896Y3400D01*
X19909Y3297D01*
X19949Y3201D01*
X20012Y3118D01*
X20095Y3055D01*
X20191Y3015D01*
X20294Y3001D01*
X20397Y3015D01*
X20494Y3055D01*
X20576Y3118D01*
X20639Y3201D01*
X20679Y3297D01*
X20693Y3400D01*
X20679Y3503D01*
X20639Y3599D01*
X20576Y3682D01*
X20494Y3745D01*
X20397Y3785D01*
X20294Y3799D01*
D02*
G37*
G36*
X19244Y3792D02*
X19191Y3785D01*
X19095Y3745D01*
X19012Y3682D01*
X18949Y3599D01*
X18909Y3503D01*
X18902Y3450D01*
X19244D01*
Y3792D01*
D02*
G37*
G36*
Y3350D02*
X18902D01*
X18909Y3297D01*
X18949Y3201D01*
X19012Y3118D01*
X19095Y3055D01*
X19191Y3015D01*
X19244Y3008D01*
Y3350D01*
D02*
G37*
G36*
X19686D02*
X19344D01*
Y3008D01*
X19397Y3015D01*
X19494Y3055D01*
X19576Y3118D01*
X19639Y3201D01*
X19679Y3297D01*
X19686Y3350D01*
D02*
G37*
G36*
Y2350D02*
X19344D01*
Y2008D01*
X19397Y2015D01*
X19494Y2055D01*
X19576Y2118D01*
X19639Y2201D01*
X19679Y2297D01*
X19686Y2350D01*
D02*
G37*
G36*
X-461Y1900D02*
X-803D01*
X-796Y1847D01*
X-756Y1751D01*
X-693Y1668D01*
X-610Y1605D01*
X-514Y1565D01*
X-461Y1558D01*
Y1900D01*
D02*
G37*
G36*
X17950Y1096D02*
Y800D01*
X18246D01*
X18241Y841D01*
X18206Y927D01*
X18150Y1000D01*
X18077Y1056D01*
X17991Y1091D01*
X17950Y1096D01*
D02*
G37*
G36*
X17850D02*
X17809Y1091D01*
X17723Y1056D01*
X17650Y1000D01*
X17594Y927D01*
X17559Y841D01*
X17554Y800D01*
X17850D01*
Y1096D01*
D02*
G37*
G36*
X-19Y1900D02*
X-361D01*
Y1558D01*
X-308Y1565D01*
X-212Y1605D01*
X-129Y1668D01*
X-66Y1751D01*
X-26Y1847D01*
X-19Y1900D01*
D02*
G37*
G36*
X20689Y2795D02*
X19899D01*
Y2005D01*
X20689D01*
Y2795D01*
D02*
G37*
G36*
X-361Y2342D02*
Y2000D01*
X-19D01*
X-26Y2053D01*
X-66Y2149D01*
X-129Y2232D01*
X-212Y2295D01*
X-308Y2335D01*
X-361Y2342D01*
D02*
G37*
G36*
X-461D02*
X-514Y2335D01*
X-610Y2295D01*
X-693Y2232D01*
X-756Y2149D01*
X-796Y2053D01*
X-803Y2000D01*
X-461D01*
Y2342D01*
D02*
G37*
G36*
X19344Y3792D02*
Y3450D01*
X19686D01*
X19679Y3503D01*
X19639Y3599D01*
X19576Y3682D01*
X19494Y3745D01*
X19397Y3785D01*
X19344Y3792D01*
D02*
G37*
G36*
Y5792D02*
Y5450D01*
X19686D01*
X19679Y5503D01*
X19639Y5599D01*
X19576Y5682D01*
X19494Y5745D01*
X19397Y5785D01*
X19344Y5792D01*
D02*
G37*
G36*
X19244Y5792D02*
X19191Y5785D01*
X19095Y5745D01*
X19012Y5682D01*
X18949Y5599D01*
X18909Y5503D01*
X18902Y5450D01*
X19244D01*
Y5792D01*
D02*
G37*
G36*
Y5350D02*
X18902D01*
X18909Y5297D01*
X18949Y5201D01*
X19012Y5118D01*
X19095Y5055D01*
X19191Y5015D01*
X19244Y5008D01*
Y5350D01*
D02*
G37*
G36*
X-411Y6618D02*
X-514Y6605D01*
X-610Y6565D01*
X-693Y6501D01*
X-756Y6419D01*
X-796Y6323D01*
X-810Y6219D01*
X-796Y6116D01*
X-756Y6020D01*
X-693Y5938D01*
X-610Y5874D01*
X-514Y5834D01*
X-411Y5821D01*
X-308Y5834D01*
X-212Y5874D01*
X-129Y5938D01*
X-66Y6020D01*
X-26Y6116D01*
X-12Y6219D01*
X-26Y6323D01*
X-66Y6419D01*
X-129Y6501D01*
X-212Y6565D01*
X-308Y6605D01*
X-411Y6618D01*
D02*
G37*
G36*
X19686Y6350D02*
X19344D01*
Y6008D01*
X19397Y6015D01*
X19494Y6055D01*
X19576Y6118D01*
X19639Y6201D01*
X19679Y6297D01*
X19686Y6350D01*
D02*
G37*
G36*
X20294Y6799D02*
X20191Y6785D01*
X20095Y6745D01*
X20012Y6682D01*
X19949Y6599D01*
X19909Y6503D01*
X19896Y6400D01*
X19909Y6297D01*
X19949Y6201D01*
X20012Y6118D01*
X20095Y6055D01*
X20191Y6015D01*
X20294Y6001D01*
X20397Y6015D01*
X20494Y6055D01*
X20576Y6118D01*
X20639Y6201D01*
X20679Y6297D01*
X20693Y6400D01*
X20679Y6503D01*
X20639Y6599D01*
X20576Y6682D01*
X20494Y6745D01*
X20397Y6785D01*
X20294Y6799D01*
D02*
G37*
G36*
X2589Y6618D02*
X2486Y6605D01*
X2390Y6565D01*
X2307Y6501D01*
X2244Y6419D01*
X2204Y6323D01*
X2190Y6219D01*
X2204Y6116D01*
X2244Y6020D01*
X2307Y5938D01*
X2390Y5874D01*
X2486Y5834D01*
X2589Y5821D01*
X2692Y5834D01*
X2788Y5874D01*
X2871Y5938D01*
X2934Y6020D01*
X2974Y6116D01*
X2988Y6219D01*
X2974Y6323D01*
X2934Y6419D01*
X2871Y6501D01*
X2788Y6565D01*
X2692Y6605D01*
X2589Y6618D01*
D02*
G37*
G36*
X19686Y5350D02*
X19344D01*
Y5008D01*
X19397Y5015D01*
X19494Y5055D01*
X19576Y5118D01*
X19639Y5201D01*
X19679Y5297D01*
X19686Y5350D01*
D02*
G37*
G36*
X19244Y4350D02*
X18902D01*
X18909Y4297D01*
X18949Y4201D01*
X19012Y4118D01*
X19095Y4055D01*
X19191Y4015D01*
X19244Y4008D01*
Y4350D01*
D02*
G37*
G36*
X19686D02*
X19344D01*
Y4008D01*
X19397Y4015D01*
X19494Y4055D01*
X19576Y4118D01*
X19639Y4201D01*
X19679Y4297D01*
X19686Y4350D01*
D02*
G37*
G36*
X20294Y4799D02*
X20191Y4785D01*
X20095Y4745D01*
X20012Y4682D01*
X19949Y4599D01*
X19909Y4503D01*
X19896Y4400D01*
X19909Y4297D01*
X19949Y4201D01*
X20012Y4118D01*
X20095Y4055D01*
X20191Y4015D01*
X20294Y4001D01*
X20397Y4015D01*
X20494Y4055D01*
X20576Y4118D01*
X20639Y4201D01*
X20679Y4297D01*
X20693Y4400D01*
X20679Y4503D01*
X20639Y4599D01*
X20576Y4682D01*
X20494Y4745D01*
X20397Y4785D01*
X20294Y4799D01*
D02*
G37*
G36*
X19244Y4792D02*
X19191Y4785D01*
X19095Y4745D01*
X19012Y4682D01*
X18949Y4599D01*
X18909Y4503D01*
X18902Y4450D01*
X19244D01*
Y4792D01*
D02*
G37*
G36*
X20294Y5799D02*
X20191Y5785D01*
X20095Y5745D01*
X20012Y5682D01*
X19949Y5599D01*
X19909Y5503D01*
X19896Y5400D01*
X19909Y5297D01*
X19949Y5201D01*
X20012Y5118D01*
X20095Y5055D01*
X20191Y5015D01*
X20294Y5001D01*
X20397Y5015D01*
X20494Y5055D01*
X20576Y5118D01*
X20639Y5201D01*
X20679Y5297D01*
X20693Y5400D01*
X20679Y5503D01*
X20639Y5599D01*
X20576Y5682D01*
X20494Y5745D01*
X20397Y5785D01*
X20294Y5799D01*
D02*
G37*
G36*
X2589Y5618D02*
X2486Y5605D01*
X2390Y5565D01*
X2307Y5501D01*
X2244Y5419D01*
X2204Y5323D01*
X2190Y5219D01*
X2204Y5116D01*
X2244Y5020D01*
X2307Y4938D01*
X2390Y4874D01*
X2486Y4834D01*
X2589Y4821D01*
X2692Y4834D01*
X2788Y4874D01*
X2871Y4938D01*
X2934Y5020D01*
X2974Y5116D01*
X2988Y5219D01*
X2974Y5323D01*
X2934Y5419D01*
X2871Y5501D01*
X2788Y5565D01*
X2692Y5605D01*
X2589Y5618D01*
D02*
G37*
G36*
X19344Y4792D02*
Y4450D01*
X19686D01*
X19679Y4503D01*
X19639Y4599D01*
X19576Y4682D01*
X19494Y4745D01*
X19397Y4785D01*
X19344Y4792D01*
D02*
G37*
G36*
X16440Y1096D02*
Y800D01*
X16736D01*
X16731Y841D01*
X16696Y927D01*
X16640Y1000D01*
X16567Y1056D01*
X16481Y1091D01*
X16440Y1096D01*
D02*
G37*
G36*
X10300Y700D02*
X10004D01*
X10009Y659D01*
X10044Y573D01*
X10100Y500D01*
X10173Y444D01*
X10259Y409D01*
X10300Y404D01*
Y700D01*
D02*
G37*
G36*
X7609Y665D02*
Y368D01*
X7905D01*
X7900Y410D01*
X7865Y495D01*
X7808Y568D01*
X7735Y624D01*
X7650Y659D01*
X7609Y665D01*
D02*
G37*
G36*
X7509D02*
X7467Y659D01*
X7382Y624D01*
X7309Y568D01*
X7253Y495D01*
X7218Y410D01*
X7212Y368D01*
X7509D01*
Y665D01*
D02*
G37*
G36*
X10696Y700D02*
X10400D01*
Y404D01*
X10441Y409D01*
X10527Y444D01*
X10600Y500D01*
X10656Y573D01*
X10691Y659D01*
X10696Y700D01*
D02*
G37*
G36*
X13320D02*
X13024D01*
X13029Y659D01*
X13064Y573D01*
X13120Y500D01*
X13193Y444D01*
X13279Y409D01*
X13320Y404D01*
Y700D01*
D02*
G37*
G36*
X12206D02*
X11910D01*
Y404D01*
X11951Y409D01*
X12037Y444D01*
X12110Y500D01*
X12166Y573D01*
X12201Y659D01*
X12206Y700D01*
D02*
G37*
G36*
X11810D02*
X11514D01*
X11519Y659D01*
X11554Y573D01*
X11610Y500D01*
X11683Y444D01*
X11769Y409D01*
X11810Y404D01*
Y700D01*
D02*
G37*
G36*
X3355Y665D02*
Y368D01*
X3652D01*
X3646Y410D01*
X3611Y495D01*
X3555Y568D01*
X3482Y624D01*
X3397Y659D01*
X3355Y665D01*
D02*
G37*
G36*
X3255Y268D02*
X2959D01*
X2964Y227D01*
X2999Y142D01*
X3056Y69D01*
X3129Y12D01*
X3214Y-23D01*
X3255Y-28D01*
Y268D01*
D02*
G37*
G36*
X21000Y1088D02*
X20830Y1074D01*
X20664Y1034D01*
X20506Y969D01*
X20361Y880D01*
X20231Y769D01*
X20120Y639D01*
X20031Y494D01*
X19966Y336D01*
X19926Y170D01*
X19912Y0D01*
X19926Y-170D01*
X19966Y-336D01*
X20031Y-494D01*
X20120Y-639D01*
X20231Y-769D01*
X20361Y-880D01*
X20506Y-969D01*
X20664Y-1034D01*
X20830Y-1074D01*
X21000Y-1088D01*
X21170Y-1074D01*
X21336Y-1034D01*
X21494Y-969D01*
X21639Y-880D01*
X21769Y-769D01*
X21880Y-639D01*
X21969Y-494D01*
X22034Y-336D01*
X22074Y-170D01*
X22088Y0D01*
X22074Y170D01*
X22034Y336D01*
X21969Y494D01*
X21880Y639D01*
X21769Y769D01*
X21639Y880D01*
X21494Y969D01*
X21336Y1034D01*
X21170Y1074D01*
X21000Y1088D01*
D02*
G37*
G36*
X0D02*
X-170Y1074D01*
X-336Y1034D01*
X-494Y969D01*
X-639Y880D01*
X-769Y769D01*
X-880Y639D01*
X-969Y494D01*
X-1034Y336D01*
X-1074Y170D01*
X-1088Y0D01*
X-1074Y-170D01*
X-1034Y-336D01*
X-969Y-494D01*
X-880Y-639D01*
X-769Y-769D01*
X-639Y-880D01*
X-494Y-969D01*
X-336Y-1034D01*
X-170Y-1074D01*
X0Y-1088D01*
X170Y-1074D01*
X336Y-1034D01*
X494Y-969D01*
X639Y-880D01*
X769Y-769D01*
X880Y-639D01*
X969Y-494D01*
X1034Y-336D01*
X1074Y-170D01*
X1088Y0D01*
X1074Y170D01*
X1034Y336D01*
X969Y494D01*
X880Y639D01*
X769Y769D01*
X639Y880D01*
X494Y969D01*
X336Y1034D01*
X170Y1074D01*
X0Y1088D01*
D02*
G37*
G36*
X3652Y268D02*
X3355D01*
Y-28D01*
X3397Y-23D01*
X3482Y12D01*
X3555Y69D01*
X3611Y142D01*
X3646Y227D01*
X3652Y268D01*
D02*
G37*
G36*
X3255Y665D02*
X3214Y659D01*
X3129Y624D01*
X3056Y568D01*
X2999Y495D01*
X2964Y410D01*
X2959Y368D01*
X3255D01*
Y665D01*
D02*
G37*
G36*
X7905Y268D02*
X7609D01*
Y-28D01*
X7650Y-23D01*
X7735Y12D01*
X7808Y69D01*
X7865Y142D01*
X7900Y227D01*
X7905Y268D01*
D02*
G37*
G36*
X7509D02*
X7212D01*
X7218Y227D01*
X7253Y142D01*
X7309Y69D01*
X7382Y12D01*
X7467Y-23D01*
X7509Y-28D01*
Y268D01*
D02*
G37*
G36*
X13716Y700D02*
X13420D01*
Y404D01*
X13461Y409D01*
X13547Y444D01*
X13620Y500D01*
X13676Y573D01*
X13711Y659D01*
X13716Y700D01*
D02*
G37*
G36*
X13320Y1096D02*
X13279Y1091D01*
X13193Y1056D01*
X13120Y1000D01*
X13064Y927D01*
X13029Y841D01*
X13024Y800D01*
X13320D01*
Y1096D01*
D02*
G37*
G36*
X11910D02*
Y800D01*
X12206D01*
X12201Y841D01*
X12166Y927D01*
X12110Y1000D01*
X12037Y1056D01*
X11951Y1091D01*
X11910Y1096D01*
D02*
G37*
G36*
X11810D02*
X11769Y1091D01*
X11683Y1056D01*
X11610Y1000D01*
X11554Y927D01*
X11519Y841D01*
X11514Y800D01*
X11810D01*
Y1096D01*
D02*
G37*
G36*
X13420D02*
Y800D01*
X13716D01*
X13711Y841D01*
X13676Y927D01*
X13620Y1000D01*
X13547Y1056D01*
X13461Y1091D01*
X13420Y1096D01*
D02*
G37*
G36*
X16340D02*
X16299Y1091D01*
X16213Y1056D01*
X16140Y1000D01*
X16084Y927D01*
X16049Y841D01*
X16044Y800D01*
X16340D01*
Y1096D01*
D02*
G37*
G36*
X14930D02*
Y800D01*
X15226D01*
X15221Y841D01*
X15186Y927D01*
X15130Y1000D01*
X15057Y1056D01*
X14971Y1091D01*
X14930Y1096D01*
D02*
G37*
G36*
X14830D02*
X14789Y1091D01*
X14703Y1056D01*
X14630Y1000D01*
X14574Y927D01*
X14539Y841D01*
X14534Y800D01*
X14830D01*
Y1096D01*
D02*
G37*
G36*
X10400D02*
Y800D01*
X10696D01*
X10691Y841D01*
X10656Y927D01*
X10600Y1000D01*
X10527Y1056D01*
X10441Y1091D01*
X10400Y1096D01*
D02*
G37*
G36*
X16340Y700D02*
X16044D01*
X16049Y659D01*
X16084Y573D01*
X16140Y500D01*
X16213Y444D01*
X16299Y409D01*
X16340Y404D01*
Y700D01*
D02*
G37*
G36*
X15226D02*
X14930D01*
Y404D01*
X14971Y409D01*
X15057Y444D01*
X15130Y500D01*
X15186Y573D01*
X15221Y659D01*
X15226Y700D01*
D02*
G37*
G36*
X14830D02*
X14534D01*
X14539Y659D01*
X14574Y573D01*
X14630Y500D01*
X14703Y444D01*
X14789Y409D01*
X14830Y404D01*
Y700D01*
D02*
G37*
G36*
X16736D02*
X16440D01*
Y404D01*
X16481Y409D01*
X16567Y444D01*
X16640Y500D01*
X16696Y573D01*
X16731Y659D01*
X16736Y700D01*
D02*
G37*
G36*
X10300Y1096D02*
X10259Y1091D01*
X10173Y1056D01*
X10100Y1000D01*
X10044Y927D01*
X10009Y841D01*
X10004Y800D01*
X10300D01*
Y1096D01*
D02*
G37*
G36*
X18246Y700D02*
X17950D01*
Y404D01*
X17991Y409D01*
X18077Y444D01*
X18150Y500D01*
X18206Y573D01*
X18241Y659D01*
X18246Y700D01*
D02*
G37*
G36*
X17850D02*
X17554D01*
X17559Y659D01*
X17594Y573D01*
X17650Y500D01*
X17723Y444D01*
X17809Y409D01*
X17850Y404D01*
Y700D01*
D02*
G37*
G36*
X19244Y6350D02*
X18902D01*
X18909Y6297D01*
X18949Y6201D01*
X19012Y6118D01*
X19095Y6055D01*
X19191Y6015D01*
X19244Y6008D01*
Y6350D01*
D02*
G37*
G36*
X5150Y15344D02*
X5047Y15330D01*
X4951Y15290D01*
X4868Y15227D01*
X4805Y15144D01*
X4765Y15048D01*
X4751Y14945D01*
X4765Y14842D01*
X4805Y14746D01*
X4868Y14663D01*
X4951Y14600D01*
X5047Y14560D01*
X5150Y14546D01*
X5253Y14560D01*
X5349Y14600D01*
X5432Y14663D01*
X5495Y14746D01*
X5535Y14842D01*
X5549Y14945D01*
X5535Y15048D01*
X5495Y15144D01*
X5432Y15227D01*
X5349Y15290D01*
X5253Y15330D01*
X5150Y15344D01*
D02*
G37*
G36*
X4150D02*
X4047Y15330D01*
X3951Y15290D01*
X3868Y15227D01*
X3805Y15144D01*
X3765Y15048D01*
X3751Y14945D01*
X3765Y14842D01*
X3805Y14746D01*
X3868Y14663D01*
X3951Y14600D01*
X4047Y14560D01*
X4150Y14546D01*
X4253Y14560D01*
X4349Y14600D01*
X4432Y14663D01*
X4495Y14746D01*
X4535Y14842D01*
X4549Y14945D01*
X4535Y15048D01*
X4495Y15144D01*
X4432Y15227D01*
X4349Y15290D01*
X4253Y15330D01*
X4150Y15344D01*
D02*
G37*
G36*
X21000Y16588D02*
X20830Y16574D01*
X20664Y16534D01*
X20506Y16469D01*
X20361Y16380D01*
X20231Y16269D01*
X20120Y16139D01*
X20031Y15994D01*
X19966Y15836D01*
X19926Y15670D01*
X19912Y15500D01*
X19926Y15330D01*
X19966Y15164D01*
X20031Y15006D01*
X20120Y14861D01*
X20231Y14731D01*
X20361Y14620D01*
X20506Y14531D01*
X20664Y14466D01*
X20830Y14426D01*
X21000Y14412D01*
X21170Y14426D01*
X21336Y14466D01*
X21494Y14531D01*
X21639Y14620D01*
X21769Y14731D01*
X21880Y14861D01*
X21969Y15006D01*
X22034Y15164D01*
X22074Y15330D01*
X22088Y15500D01*
X22074Y15670D01*
X22034Y15836D01*
X21969Y15994D01*
X21880Y16139D01*
X21769Y16269D01*
X21639Y16380D01*
X21494Y16469D01*
X21336Y16534D01*
X21170Y16574D01*
X21000Y16588D01*
D02*
G37*
G36*
X8410Y15344D02*
X8307Y15330D01*
X8211Y15290D01*
X8128Y15227D01*
X8065Y15144D01*
X8025Y15048D01*
X8011Y14945D01*
X8025Y14842D01*
X8065Y14746D01*
X8128Y14663D01*
X8211Y14600D01*
X8307Y14560D01*
X8410Y14546D01*
X8513Y14560D01*
X8609Y14600D01*
X8692Y14663D01*
X8755Y14746D01*
X8795Y14842D01*
X8809Y14945D01*
X8795Y15048D01*
X8755Y15144D01*
X8692Y15227D01*
X8609Y15290D01*
X8513Y15330D01*
X8410Y15344D01*
D02*
G37*
G36*
X3100Y14895D02*
X2758D01*
X2765Y14842D01*
X2805Y14746D01*
X2868Y14663D01*
X2951Y14600D01*
X3047Y14560D01*
X3100Y14553D01*
Y14895D01*
D02*
G37*
G36*
X10410Y15344D02*
X10307Y15330D01*
X10211Y15290D01*
X10128Y15227D01*
X10065Y15144D01*
X10025Y15048D01*
X10011Y14945D01*
X10025Y14842D01*
X10065Y14746D01*
X10128Y14663D01*
X10211Y14600D01*
X10307Y14560D01*
X10410Y14546D01*
X10513Y14560D01*
X10609Y14600D01*
X10692Y14663D01*
X10755Y14746D01*
X10795Y14842D01*
X10809Y14945D01*
X10795Y15048D01*
X10755Y15144D01*
X10692Y15227D01*
X10609Y15290D01*
X10513Y15330D01*
X10410Y15344D01*
D02*
G37*
G36*
X9410D02*
X9307Y15330D01*
X9211Y15290D01*
X9128Y15227D01*
X9065Y15144D01*
X9025Y15048D01*
X9011Y14945D01*
X9025Y14842D01*
X9065Y14746D01*
X9128Y14663D01*
X9211Y14600D01*
X9307Y14560D01*
X9410Y14546D01*
X9513Y14560D01*
X9609Y14600D01*
X9692Y14663D01*
X9755Y14746D01*
X9795Y14842D01*
X9809Y14945D01*
X9795Y15048D01*
X9755Y15144D01*
X9692Y15227D01*
X9609Y15290D01*
X9513Y15330D01*
X9410Y15344D01*
D02*
G37*
G36*
X0Y16588D02*
X-170Y16574D01*
X-336Y16534D01*
X-494Y16469D01*
X-639Y16380D01*
X-769Y16269D01*
X-880Y16139D01*
X-969Y15994D01*
X-1034Y15836D01*
X-1074Y15670D01*
X-1088Y15500D01*
X-1074Y15330D01*
X-1034Y15164D01*
X-969Y15006D01*
X-880Y14861D01*
X-769Y14731D01*
X-639Y14620D01*
X-494Y14531D01*
X-336Y14466D01*
X-170Y14426D01*
X0Y14412D01*
X170Y14426D01*
X336Y14466D01*
X494Y14531D01*
X639Y14620D01*
X769Y14731D01*
X880Y14861D01*
X969Y15006D01*
X1034Y15164D01*
X1074Y15330D01*
X1088Y15500D01*
X1074Y15670D01*
X1034Y15836D01*
X969Y15994D01*
X880Y16139D01*
X769Y16269D01*
X639Y16380D01*
X494Y16469D01*
X336Y16534D01*
X170Y16574D01*
X0Y16588D01*
D02*
G37*
G36*
X7805Y15340D02*
X7015D01*
Y14881D01*
X6437Y14303D01*
X1750D01*
X1691Y14291D01*
X1642Y14258D01*
X1374Y13991D01*
X1346Y13985D01*
X1296Y13952D01*
X1036Y13691D01*
X1002Y13641D01*
X1001Y13633D01*
X944Y13596D01*
X934Y13598D01*
X871Y13680D01*
X788Y13744D01*
X692Y13783D01*
X589Y13797D01*
X486Y13783D01*
X390Y13744D01*
X307Y13680D01*
X244Y13598D01*
X204Y13502D01*
X190Y13398D01*
X204Y13295D01*
X244Y13199D01*
X307Y13116D01*
X390Y13053D01*
X436Y13034D01*
Y8283D01*
X-261Y7585D01*
X-308Y7605D01*
X-411Y7618D01*
X-514Y7605D01*
X-610Y7565D01*
X-693Y7501D01*
X-756Y7419D01*
X-796Y7323D01*
X-810Y7219D01*
X-796Y7116D01*
X-756Y7020D01*
X-693Y6938D01*
X-610Y6874D01*
X-514Y6834D01*
X-411Y6821D01*
X-308Y6834D01*
X-212Y6874D01*
X-129Y6938D01*
X-66Y7020D01*
X-26Y7116D01*
X-12Y7219D01*
X-26Y7323D01*
X-45Y7369D01*
X697Y8111D01*
X730Y8161D01*
X742Y8219D01*
Y13034D01*
X788Y13053D01*
X871Y13116D01*
X934Y13199D01*
X941Y13215D01*
X991Y13205D01*
Y6728D01*
X-190Y5548D01*
X-212Y5565D01*
X-308Y5605D01*
X-411Y5618D01*
X-514Y5605D01*
X-610Y5565D01*
X-693Y5501D01*
X-756Y5419D01*
X-796Y5323D01*
X-810Y5219D01*
X-796Y5116D01*
X-756Y5020D01*
X-693Y4938D01*
X-610Y4874D01*
X-564Y4855D01*
Y2950D01*
X-552Y2891D01*
X-519Y2842D01*
X194Y2129D01*
Y1555D01*
X984D01*
Y2345D01*
X410D01*
X-258Y3013D01*
Y4855D01*
X-212Y4874D01*
X-129Y4938D01*
X-66Y5020D01*
X-26Y5116D01*
X-12Y5219D01*
X-21Y5284D01*
X1252Y6557D01*
X1285Y6606D01*
X1297Y6665D01*
Y13061D01*
X1347Y13086D01*
X1390Y13053D01*
X1436Y13034D01*
Y11219D01*
X1448Y11161D01*
X1481Y11111D01*
X2223Y10369D01*
X2204Y10323D01*
X2190Y10219D01*
X2204Y10116D01*
X2244Y10020D01*
X2307Y9938D01*
X2390Y9874D01*
X2486Y9834D01*
X2589Y9821D01*
X2692Y9834D01*
X2788Y9874D01*
X2871Y9938D01*
X2886Y9957D01*
X2936Y9940D01*
Y9499D01*
X2886Y9482D01*
X2871Y9501D01*
X2788Y9565D01*
X2692Y9605D01*
X2639Y9612D01*
Y9219D01*
Y8827D01*
X2692Y8834D01*
X2788Y8874D01*
X2871Y8938D01*
X2886Y8957D01*
X2936Y8940D01*
Y8499D01*
X2886Y8482D01*
X2871Y8501D01*
X2788Y8565D01*
X2692Y8605D01*
X2639Y8612D01*
Y8219D01*
Y7827D01*
X2692Y7834D01*
X2788Y7874D01*
X2871Y7938D01*
X2886Y7957D01*
X2936Y7940D01*
Y7783D01*
X2739Y7585D01*
X2692Y7605D01*
X2589Y7618D01*
X2486Y7605D01*
X2390Y7565D01*
X2307Y7501D01*
X2244Y7419D01*
X2204Y7323D01*
X2190Y7219D01*
X2204Y7116D01*
X2244Y7020D01*
X2307Y6938D01*
X2390Y6874D01*
X2486Y6834D01*
X2589Y6821D01*
X2692Y6834D01*
X2788Y6874D01*
X2871Y6938D01*
X2934Y7020D01*
X2974Y7116D01*
X2988Y7219D01*
X2974Y7323D01*
X2955Y7369D01*
X3197Y7611D01*
X3230Y7661D01*
X3242Y7719D01*
Y12898D01*
X3230Y12957D01*
X3197Y13006D01*
X2955Y13249D01*
X2974Y13295D01*
X2988Y13398D01*
X2974Y13502D01*
X2934Y13598D01*
X2871Y13680D01*
X2788Y13744D01*
X2692Y13783D01*
X2589Y13797D01*
X2486Y13783D01*
X2390Y13744D01*
X2307Y13680D01*
X2244Y13598D01*
X2204Y13502D01*
X2190Y13398D01*
X2204Y13295D01*
X2244Y13199D01*
X2307Y13116D01*
X2390Y13053D01*
X2486Y13013D01*
X2589Y13000D01*
X2692Y13013D01*
X2739Y13032D01*
X2936Y12835D01*
Y12615D01*
X2194D01*
Y11824D01*
X2936D01*
Y11499D01*
X2886Y11482D01*
X2871Y11501D01*
X2788Y11565D01*
X2692Y11605D01*
X2589Y11618D01*
X2486Y11605D01*
X2390Y11565D01*
X2307Y11501D01*
X2244Y11419D01*
X2204Y11323D01*
X2190Y11219D01*
X2204Y11116D01*
X2244Y11020D01*
X2307Y10938D01*
X2390Y10874D01*
X2486Y10834D01*
X2589Y10821D01*
X2692Y10834D01*
X2788Y10874D01*
X2871Y10938D01*
X2886Y10957D01*
X2936Y10940D01*
Y10499D01*
X2886Y10482D01*
X2871Y10501D01*
X2788Y10565D01*
X2692Y10605D01*
X2589Y10618D01*
X2486Y10605D01*
X2439Y10585D01*
X1742Y11283D01*
Y13034D01*
X1788Y13053D01*
X1871Y13116D01*
X1934Y13199D01*
X1974Y13295D01*
X1988Y13398D01*
X1974Y13502D01*
X1934Y13598D01*
X1871Y13680D01*
X1788Y13744D01*
X1692Y13783D01*
X1667Y13787D01*
X1650Y13834D01*
X1813Y13997D01*
X6500D01*
X6559Y14009D01*
X6608Y14042D01*
X7116Y14550D01*
X7805D01*
Y15340D01*
D02*
G37*
G36*
X16792Y13600D02*
X16450D01*
Y13258D01*
X16503Y13265D01*
X16599Y13305D01*
X16682Y13368D01*
X16745Y13451D01*
X16785Y13547D01*
X16792Y13600D01*
D02*
G37*
G36*
X16350D02*
X16008D01*
X16015Y13547D01*
X16055Y13451D01*
X16118Y13368D01*
X16201Y13305D01*
X16297Y13265D01*
X16350Y13258D01*
Y13600D01*
D02*
G37*
G36*
Y14042D02*
X16297Y14035D01*
X16201Y13995D01*
X16118Y13932D01*
X16055Y13849D01*
X16015Y13753D01*
X16008Y13700D01*
X16350D01*
Y14042D01*
D02*
G37*
G36*
X17400Y15049D02*
X17297Y15035D01*
X17201Y14995D01*
X17118Y14932D01*
X17055Y14849D01*
X17015Y14753D01*
X17001Y14650D01*
X17015Y14547D01*
X17055Y14451D01*
X17118Y14368D01*
X17201Y14305D01*
X17297Y14265D01*
X17400Y14251D01*
X17503Y14265D01*
X17599Y14305D01*
X17682Y14368D01*
X17745Y14451D01*
X17785Y14547D01*
X17799Y14650D01*
X17785Y14753D01*
X17745Y14849D01*
X17682Y14932D01*
X17599Y14995D01*
X17503Y15035D01*
X17400Y15049D01*
D02*
G37*
G36*
X16400D02*
X16297Y15035D01*
X16201Y14995D01*
X16118Y14932D01*
X16055Y14849D01*
X16015Y14753D01*
X16001Y14650D01*
X16015Y14547D01*
X16055Y14451D01*
X16118Y14368D01*
X16201Y14305D01*
X16297Y14265D01*
X16400Y14251D01*
X16503Y14265D01*
X16599Y14305D01*
X16682Y14368D01*
X16745Y14451D01*
X16785Y14547D01*
X16799Y14650D01*
X16785Y14753D01*
X16745Y14849D01*
X16682Y14932D01*
X16599Y14995D01*
X16503Y15035D01*
X16400Y15049D01*
D02*
G37*
G36*
X16450Y14042D02*
Y13700D01*
X16792D01*
X16785Y13753D01*
X16745Y13849D01*
X16682Y13932D01*
X16599Y13995D01*
X16503Y14035D01*
X16450Y14042D01*
D02*
G37*
G36*
X3542Y14895D02*
X3200D01*
Y14553D01*
X3253Y14560D01*
X3349Y14600D01*
X3432Y14663D01*
X3495Y14746D01*
X3535Y14842D01*
X3542Y14895D01*
D02*
G37*
G36*
Y15895D02*
X3200D01*
Y15553D01*
X3253Y15560D01*
X3349Y15600D01*
X3432Y15663D01*
X3495Y15746D01*
X3535Y15842D01*
X3542Y15895D01*
D02*
G37*
G36*
X10802Y15895D02*
X10460D01*
Y15553D01*
X10513Y15560D01*
X10609Y15600D01*
X10692Y15663D01*
X10755Y15746D01*
X10795Y15842D01*
X10802Y15895D01*
D02*
G37*
G36*
X10360D02*
X10018D01*
X10025Y15842D01*
X10065Y15746D01*
X10128Y15663D01*
X10211Y15600D01*
X10307Y15560D01*
X10360Y15553D01*
Y15895D01*
D02*
G37*
G36*
X3100Y16337D02*
X3047Y16330D01*
X2951Y16290D01*
X2868Y16227D01*
X2805Y16144D01*
X2765Y16048D01*
X2758Y15995D01*
X3100D01*
Y16337D01*
D02*
G37*
G36*
X10460D02*
Y15995D01*
X10802D01*
X10795Y16048D01*
X10755Y16144D01*
X10692Y16227D01*
X10609Y16290D01*
X10513Y16330D01*
X10460Y16337D01*
D02*
G37*
G36*
X10360D02*
X10307Y16330D01*
X10211Y16290D01*
X10128Y16227D01*
X10065Y16144D01*
X10025Y16048D01*
X10018Y15995D01*
X10360D01*
Y16337D01*
D02*
G37*
G36*
X3200D02*
Y15995D01*
X3542D01*
X3535Y16048D01*
X3495Y16144D01*
X3432Y16227D01*
X3349Y16290D01*
X3253Y16330D01*
X3200Y16337D01*
D02*
G37*
G36*
X3100Y15895D02*
X2758D01*
X2765Y15842D01*
X2805Y15746D01*
X2868Y15663D01*
X2951Y15600D01*
X3047Y15560D01*
X3100Y15553D01*
Y15895D01*
D02*
G37*
G36*
X4150Y16344D02*
X4047Y16330D01*
X3951Y16290D01*
X3868Y16227D01*
X3805Y16144D01*
X3765Y16048D01*
X3751Y15945D01*
X3765Y15842D01*
X3805Y15746D01*
X3868Y15663D01*
X3951Y15600D01*
X4047Y15560D01*
X4150Y15546D01*
X4253Y15560D01*
X4349Y15600D01*
X4432Y15663D01*
X4495Y15746D01*
X4535Y15842D01*
X4549Y15945D01*
X4535Y16048D01*
X4495Y16144D01*
X4432Y16227D01*
X4349Y16290D01*
X4253Y16330D01*
X4150Y16344D01*
D02*
G37*
G36*
X3200Y15337D02*
Y14995D01*
X3542D01*
X3535Y15048D01*
X3495Y15144D01*
X3432Y15227D01*
X3349Y15290D01*
X3253Y15330D01*
X3200Y15337D01*
D02*
G37*
G36*
X3100D02*
X3047Y15330D01*
X2951Y15290D01*
X2868Y15227D01*
X2805Y15144D01*
X2765Y15048D01*
X2758Y14995D01*
X3100D01*
Y15337D01*
D02*
G37*
G36*
X7410Y16344D02*
X7307Y16330D01*
X7211Y16290D01*
X7128Y16227D01*
X7065Y16144D01*
X7025Y16048D01*
X7011Y15945D01*
X7025Y15842D01*
X7065Y15746D01*
X7128Y15663D01*
X7211Y15600D01*
X7307Y15560D01*
X7410Y15546D01*
X7513Y15560D01*
X7609Y15600D01*
X7692Y15663D01*
X7755Y15746D01*
X7795Y15842D01*
X7809Y15945D01*
X7795Y16048D01*
X7755Y16144D01*
X7692Y16227D01*
X7609Y16290D01*
X7513Y16330D01*
X7410Y16344D01*
D02*
G37*
G36*
X5545Y16340D02*
X4755D01*
Y15550D01*
X5545D01*
Y16340D01*
D02*
G37*
G36*
X9410Y16344D02*
X9307Y16330D01*
X9211Y16290D01*
X9128Y16227D01*
X9065Y16144D01*
X9025Y16048D01*
X9011Y15945D01*
X9025Y15842D01*
X9065Y15746D01*
X9128Y15663D01*
X9211Y15600D01*
X9307Y15560D01*
X9410Y15546D01*
X9513Y15560D01*
X9609Y15600D01*
X9692Y15663D01*
X9755Y15746D01*
X9795Y15842D01*
X9809Y15945D01*
X9795Y16048D01*
X9755Y16144D01*
X9692Y16227D01*
X9609Y16290D01*
X9513Y16330D01*
X9410Y16344D01*
D02*
G37*
G36*
X8410D02*
X8307Y16330D01*
X8211Y16290D01*
X8128Y16227D01*
X8065Y16144D01*
X8025Y16048D01*
X8011Y15945D01*
X8025Y15842D01*
X8065Y15746D01*
X8128Y15663D01*
X8211Y15600D01*
X8307Y15560D01*
X8410Y15546D01*
X8513Y15560D01*
X8609Y15600D01*
X8692Y15663D01*
X8755Y15746D01*
X8795Y15842D01*
X8809Y15945D01*
X8795Y16048D01*
X8755Y16144D01*
X8692Y16227D01*
X8609Y16290D01*
X8513Y16330D01*
X8410Y16344D01*
D02*
G37*
G36*
X17400Y14049D02*
X17297Y14035D01*
X17201Y13995D01*
X17118Y13932D01*
X17055Y13849D01*
X17015Y13753D01*
X17001Y13650D01*
X17015Y13547D01*
X17055Y13451D01*
X17118Y13368D01*
X17201Y13305D01*
X17297Y13265D01*
X17400Y13251D01*
X17503Y13265D01*
X17599Y13305D01*
X17682Y13368D01*
X17745Y13451D01*
X17785Y13547D01*
X17799Y13650D01*
X17785Y13753D01*
X17745Y13849D01*
X17682Y13932D01*
X17599Y13995D01*
X17503Y14035D01*
X17400Y14049D01*
D02*
G37*
G36*
X-461Y8612D02*
X-514Y8605D01*
X-610Y8565D01*
X-693Y8501D01*
X-756Y8419D01*
X-796Y8323D01*
X-803Y8269D01*
X-461D01*
Y8612D01*
D02*
G37*
G36*
X2539Y8169D02*
X2197D01*
X2204Y8116D01*
X2244Y8020D01*
X2307Y7938D01*
X2390Y7874D01*
X2486Y7834D01*
X2539Y7827D01*
Y8169D01*
D02*
G37*
G36*
X-461D02*
X-803D01*
X-796Y8116D01*
X-756Y8020D01*
X-693Y7938D01*
X-610Y7874D01*
X-514Y7834D01*
X-461Y7827D01*
Y8169D01*
D02*
G37*
G36*
X2539Y8612D02*
X2486Y8605D01*
X2390Y8565D01*
X2307Y8501D01*
X2244Y8419D01*
X2204Y8323D01*
X2197Y8269D01*
X2539D01*
Y8612D01*
D02*
G37*
G36*
X-461Y9169D02*
X-803D01*
X-796Y9116D01*
X-756Y9020D01*
X-693Y8938D01*
X-610Y8874D01*
X-514Y8834D01*
X-461Y8827D01*
Y9169D01*
D02*
G37*
G36*
X-19D02*
X-361D01*
Y8827D01*
X-308Y8834D01*
X-212Y8874D01*
X-129Y8938D01*
X-66Y9020D01*
X-26Y9116D01*
X-19Y9169D01*
D02*
G37*
G36*
X-361Y8612D02*
Y8269D01*
X-19D01*
X-26Y8323D01*
X-66Y8419D01*
X-129Y8501D01*
X-212Y8565D01*
X-308Y8605D01*
X-361Y8612D01*
D02*
G37*
G36*
X-19Y8169D02*
X-361D01*
Y7827D01*
X-308Y7834D01*
X-212Y7874D01*
X-129Y7938D01*
X-66Y8020D01*
X-26Y8116D01*
X-19Y8169D01*
D02*
G37*
G36*
X20294Y7799D02*
X20191Y7785D01*
X20095Y7745D01*
X20012Y7682D01*
X19949Y7599D01*
X19909Y7503D01*
X19896Y7400D01*
X19909Y7297D01*
X19949Y7201D01*
X20012Y7118D01*
X20095Y7055D01*
X20191Y7015D01*
X20294Y7001D01*
X20397Y7015D01*
X20494Y7055D01*
X20576Y7118D01*
X20639Y7201D01*
X20679Y7297D01*
X20693Y7400D01*
X20679Y7503D01*
X20639Y7599D01*
X20576Y7682D01*
X20494Y7745D01*
X20397Y7785D01*
X20294Y7799D01*
D02*
G37*
G36*
X19344Y6792D02*
Y6450D01*
X19686D01*
X19679Y6503D01*
X19639Y6599D01*
X19576Y6682D01*
X19494Y6745D01*
X19397Y6785D01*
X19344Y6792D01*
D02*
G37*
G36*
X19244Y6792D02*
X19191Y6785D01*
X19095Y6745D01*
X19012Y6682D01*
X18949Y6599D01*
X18909Y6503D01*
X18902Y6450D01*
X19244D01*
Y6792D01*
D02*
G37*
G36*
X19686Y7350D02*
X19344D01*
Y7008D01*
X19397Y7015D01*
X19494Y7055D01*
X19576Y7118D01*
X19639Y7201D01*
X19679Y7297D01*
X19686Y7350D01*
D02*
G37*
G36*
X19344Y7792D02*
Y7450D01*
X19686D01*
X19679Y7503D01*
X19639Y7599D01*
X19576Y7682D01*
X19494Y7745D01*
X19397Y7785D01*
X19344Y7792D01*
D02*
G37*
G36*
X19244Y7792D02*
X19191Y7785D01*
X19095Y7745D01*
X19012Y7682D01*
X18949Y7599D01*
X18909Y7503D01*
X18902Y7450D01*
X19244D01*
Y7792D01*
D02*
G37*
G36*
Y7350D02*
X18902D01*
X18909Y7297D01*
X18949Y7201D01*
X19012Y7118D01*
X19095Y7055D01*
X19191Y7015D01*
X19244Y7008D01*
Y7350D01*
D02*
G37*
G36*
X2539Y9169D02*
X2197D01*
X2204Y9116D01*
X2244Y9020D01*
X2307Y8938D01*
X2390Y8874D01*
X2486Y8834D01*
X2539Y8827D01*
Y9169D01*
D02*
G37*
G36*
X16400Y13049D02*
X16297Y13035D01*
X16201Y12995D01*
X16118Y12932D01*
X16055Y12849D01*
X16015Y12753D01*
X16001Y12650D01*
X16015Y12547D01*
X16055Y12451D01*
X16118Y12368D01*
X16201Y12305D01*
X16297Y12265D01*
X16400Y12251D01*
X16503Y12265D01*
X16550Y12284D01*
X16802Y12032D01*
Y11844D01*
X16752Y11834D01*
X16745Y11849D01*
X16682Y11932D01*
X16599Y11995D01*
X16503Y12035D01*
X16400Y12049D01*
X16297Y12035D01*
X16201Y11995D01*
X16118Y11932D01*
X16055Y11849D01*
X16015Y11753D01*
X16001Y11650D01*
X16015Y11547D01*
X16055Y11451D01*
X16118Y11368D01*
X16201Y11305D01*
X16297Y11265D01*
X16400Y11251D01*
X16503Y11265D01*
X16599Y11305D01*
X16682Y11368D01*
X16745Y11451D01*
X16752Y11466D01*
X16802Y11456D01*
Y9594D01*
X16752Y9584D01*
X16745Y9599D01*
X16682Y9682D01*
X16599Y9745D01*
X16503Y9785D01*
X16450Y9792D01*
Y9400D01*
Y9008D01*
X16503Y9015D01*
X16599Y9055D01*
X16682Y9118D01*
X16745Y9201D01*
X16752Y9216D01*
X16802Y9206D01*
Y8594D01*
X16752Y8584D01*
X16745Y8599D01*
X16682Y8682D01*
X16599Y8745D01*
X16503Y8785D01*
X16400Y8799D01*
X16297Y8785D01*
X16201Y8745D01*
X16118Y8682D01*
X16055Y8599D01*
X16015Y8503D01*
X16001Y8400D01*
X16015Y8297D01*
X16055Y8201D01*
X16118Y8118D01*
X16201Y8055D01*
X16297Y8015D01*
X16400Y8001D01*
X16503Y8015D01*
X16599Y8055D01*
X16682Y8118D01*
X16745Y8201D01*
X16752Y8216D01*
X16802Y8206D01*
Y7594D01*
X16752Y7584D01*
X16745Y7599D01*
X16682Y7682D01*
X16599Y7745D01*
X16503Y7785D01*
X16400Y7799D01*
X16297Y7785D01*
X16201Y7745D01*
X16118Y7682D01*
X16055Y7599D01*
X16015Y7503D01*
X16001Y7400D01*
X16015Y7297D01*
X16055Y7201D01*
X16118Y7118D01*
X16201Y7055D01*
X16297Y7015D01*
X16400Y7001D01*
X16503Y7015D01*
X16599Y7055D01*
X16682Y7118D01*
X16745Y7201D01*
X16752Y7216D01*
X16802Y7206D01*
Y5449D01*
X16813Y5391D01*
X16847Y5341D01*
X17119Y5069D01*
X17109Y5045D01*
X17097Y4954D01*
X17109Y4863D01*
X17144Y4778D01*
X17200Y4704D01*
X17273Y4648D01*
X17359Y4613D01*
X17450Y4601D01*
X17541Y4613D01*
X17627Y4648D01*
X17700Y4704D01*
X17756Y4778D01*
X17791Y4863D01*
X17803Y4954D01*
X17791Y5045D01*
X17756Y5131D01*
X17700Y5204D01*
X17627Y5260D01*
X17541Y5295D01*
X17450Y5307D01*
X17359Y5295D01*
X17335Y5285D01*
X17108Y5513D01*
Y7005D01*
X17795D01*
Y7795D01*
X17108D01*
Y8063D01*
X17158Y8088D01*
X17201Y8055D01*
X17297Y8015D01*
X17400Y8001D01*
X17503Y8015D01*
X17599Y8055D01*
X17682Y8118D01*
X17745Y8201D01*
X17785Y8297D01*
X17799Y8400D01*
X17785Y8503D01*
X17745Y8599D01*
X17682Y8682D01*
X17599Y8745D01*
X17503Y8785D01*
X17400Y8799D01*
X17297Y8785D01*
X17201Y8745D01*
X17158Y8712D01*
X17108Y8737D01*
Y9063D01*
X17158Y9088D01*
X17201Y9055D01*
X17297Y9015D01*
X17400Y9001D01*
X17503Y9015D01*
X17599Y9055D01*
X17682Y9118D01*
X17745Y9201D01*
X17785Y9297D01*
X17799Y9400D01*
X17785Y9503D01*
X17745Y9599D01*
X17682Y9682D01*
X17599Y9745D01*
X17503Y9785D01*
X17400Y9799D01*
X17297Y9785D01*
X17201Y9745D01*
X17158Y9712D01*
X17108Y9737D01*
Y11255D01*
X17795D01*
Y12045D01*
X17108D01*
Y12095D01*
X17096Y12154D01*
X17063Y12203D01*
X16766Y12500D01*
X16785Y12547D01*
X16799Y12650D01*
X16785Y12753D01*
X16745Y12849D01*
X16682Y12932D01*
X16599Y12995D01*
X16503Y13035D01*
X16400Y13049D01*
D02*
G37*
G36*
X-16Y13794D02*
X-806D01*
Y13219D01*
X-969Y13056D01*
X-1002Y13007D01*
X-1014Y12948D01*
Y10669D01*
X-1002Y10611D01*
X-969Y10561D01*
X-777Y10369D01*
X-796Y10323D01*
X-810Y10219D01*
X-796Y10116D01*
X-756Y10020D01*
X-693Y9938D01*
X-610Y9874D01*
X-514Y9834D01*
X-411Y9821D01*
X-308Y9834D01*
X-212Y9874D01*
X-129Y9938D01*
X-66Y10020D01*
X-26Y10116D01*
X-12Y10219D01*
X-26Y10323D01*
X-66Y10419D01*
X-129Y10501D01*
X-212Y10565D01*
X-308Y10605D01*
X-411Y10618D01*
X-514Y10605D01*
X-561Y10585D01*
X-708Y10733D01*
Y10886D01*
X-658Y10911D01*
X-610Y10874D01*
X-514Y10834D01*
X-411Y10821D01*
X-308Y10834D01*
X-212Y10874D01*
X-129Y10938D01*
X-66Y11020D01*
X-26Y11116D01*
X-12Y11219D01*
X-26Y11323D01*
X-66Y11419D01*
X-129Y11501D01*
X-212Y11565D01*
X-308Y11605D01*
X-411Y11618D01*
X-514Y11605D01*
X-610Y11565D01*
X-658Y11528D01*
X-708Y11553D01*
Y11824D01*
X-16D01*
Y12615D01*
X-708D01*
Y12885D01*
X-590Y13003D01*
X-16D01*
Y13794D01*
D02*
G37*
G36*
X10200Y10296D02*
Y10000D01*
X10496D01*
X10491Y10041D01*
X10456Y10127D01*
X10400Y10200D01*
X10327Y10256D01*
X10241Y10291D01*
X10200Y10296D01*
D02*
G37*
G36*
X17350Y12600D02*
X17008D01*
X17015Y12547D01*
X17055Y12451D01*
X17118Y12368D01*
X17201Y12305D01*
X17297Y12265D01*
X17350Y12258D01*
Y12600D01*
D02*
G37*
G36*
X17450Y13042D02*
Y12700D01*
X17792D01*
X17785Y12753D01*
X17745Y12849D01*
X17682Y12932D01*
X17599Y12995D01*
X17503Y13035D01*
X17450Y13042D01*
D02*
G37*
G36*
X17350D02*
X17297Y13035D01*
X17201Y12995D01*
X17118Y12932D01*
X17055Y12849D01*
X17015Y12753D01*
X17008Y12700D01*
X17350D01*
Y13042D01*
D02*
G37*
G36*
X17792Y12600D02*
X17450D01*
Y12258D01*
X17503Y12265D01*
X17599Y12305D01*
X17682Y12368D01*
X17745Y12451D01*
X17785Y12547D01*
X17792Y12600D01*
D02*
G37*
G36*
X10100Y10296D02*
X10059Y10291D01*
X9973Y10256D01*
X9900Y10200D01*
X9844Y10127D01*
X9809Y10041D01*
X9804Y10000D01*
X10100D01*
Y10296D01*
D02*
G37*
G36*
X2539Y9612D02*
X2486Y9605D01*
X2390Y9565D01*
X2307Y9501D01*
X2244Y9419D01*
X2204Y9323D01*
X2197Y9269D01*
X2539D01*
Y9612D01*
D02*
G37*
G36*
X-461D02*
X-514Y9605D01*
X-610Y9565D01*
X-693Y9501D01*
X-756Y9419D01*
X-796Y9323D01*
X-803Y9269D01*
X-461D01*
Y9612D01*
D02*
G37*
G36*
X16350Y9350D02*
X16008D01*
X16015Y9297D01*
X16055Y9201D01*
X16118Y9118D01*
X16201Y9055D01*
X16297Y9015D01*
X16350Y9008D01*
Y9350D01*
D02*
G37*
G36*
X-361Y9612D02*
Y9269D01*
X-19D01*
X-26Y9323D01*
X-66Y9419D01*
X-129Y9501D01*
X-212Y9565D01*
X-308Y9605D01*
X-361Y9612D01*
D02*
G37*
G36*
X10496Y9900D02*
X10200D01*
Y9604D01*
X10241Y9609D01*
X10327Y9644D01*
X10400Y9700D01*
X10456Y9773D01*
X10491Y9859D01*
X10496Y9900D01*
D02*
G37*
G36*
X10100D02*
X9804D01*
X9809Y9859D01*
X9844Y9773D01*
X9900Y9700D01*
X9973Y9644D01*
X10059Y9609D01*
X10100Y9604D01*
Y9900D01*
D02*
G37*
G36*
X16350Y9792D02*
X16297Y9785D01*
X16201Y9745D01*
X16118Y9682D01*
X16055Y9599D01*
X16015Y9503D01*
X16008Y9450D01*
X16350D01*
Y9792D01*
D02*
G37*
%LPD*%
D21*
X1444Y13844D02*
X1750Y14150D01*
X6500D01*
X7295Y14945D01*
X7410D01*
X1144Y6665D02*
Y13583D01*
X1405Y13844D01*
X1444D01*
X16400Y12650D02*
X16955Y12095D01*
Y5449D02*
X17450Y4954D01*
X16955Y5449D02*
Y12095D01*
X-411Y2950D02*
Y5219D01*
Y2950D02*
X589Y1950D01*
X-411Y5219D02*
X-302D01*
X1144Y6665D01*
X589Y8219D02*
Y13398D01*
X-411Y7219D02*
X589Y8219D01*
X1589Y11219D02*
Y13398D01*
Y11219D02*
X2589Y10219D01*
Y13398D02*
X3089Y12898D01*
Y7719D02*
Y12898D01*
X2589Y7219D02*
X3089Y7719D01*
X-861Y10669D02*
X-411Y10219D01*
X-861Y10669D02*
Y12948D01*
X-411Y13398D01*
D22*
X20294Y2400D02*
D03*
X-411Y12219D02*
D03*
X2589D02*
D03*
X17400Y7400D02*
D03*
Y11650D02*
D03*
D23*
X19294Y2400D02*
D03*
X20294Y3400D02*
D03*
X19294D02*
D03*
X20294Y4400D02*
D03*
X19294D02*
D03*
X20294Y5400D02*
D03*
X19294D02*
D03*
X20294Y6400D02*
D03*
X19294D02*
D03*
X20294Y7400D02*
D03*
X19294D02*
D03*
X-411Y5219D02*
D03*
Y6219D02*
D03*
Y7219D02*
D03*
Y8219D02*
D03*
Y9219D02*
D03*
Y10219D02*
D03*
Y11219D02*
D03*
X2589Y5219D02*
D03*
Y6219D02*
D03*
Y7219D02*
D03*
Y8219D02*
D03*
Y9219D02*
D03*
Y10219D02*
D03*
Y11219D02*
D03*
X16400Y9400D02*
D03*
X17400D02*
D03*
X16400Y8400D02*
D03*
X17400D02*
D03*
X16400Y7400D02*
D03*
X3150Y14945D02*
D03*
Y15945D02*
D03*
X4150Y14945D02*
D03*
Y15945D02*
D03*
X5150Y14945D02*
D03*
X16400Y11650D02*
D03*
X17400Y12650D02*
D03*
X16400D02*
D03*
X17400Y13650D02*
D03*
X16400D02*
D03*
X17400Y14650D02*
D03*
X16400D02*
D03*
X-411Y1950D02*
D03*
X7410Y15945D02*
D03*
X8410Y14945D02*
D03*
Y15945D02*
D03*
X9410Y14945D02*
D03*
Y15945D02*
D03*
X10410Y14945D02*
D03*
Y15945D02*
D03*
X589Y13398D02*
D03*
X1589D02*
D03*
X2589D02*
D03*
D24*
X5150Y15945D02*
D03*
X589Y1950D02*
D03*
X7410Y14945D02*
D03*
X-411Y13398D02*
D03*
D25*
X0Y0D02*
D03*
X21000D02*
D03*
Y15500D02*
D03*
X0D02*
D03*
D26*
X3305Y318D02*
D03*
X7559D02*
D03*
X13370Y750D02*
D03*
X11860D02*
D03*
X16390D02*
D03*
X14880D02*
D03*
X10350D02*
D03*
X17900D02*
D03*
X10150Y9950D02*
D03*
X17450Y4954D02*
D03*
M02*
