G04 Layer_Color=65535*
%FSLAX24Y24*%
%MOIN*%
G70*
G01*
G75*
%ADD21C,0.0100*%
%ADD27C,0.0098*%
%ADD28C,0.0236*%
%ADD29C,0.0079*%
%ADD30C,0.0080*%
%ADD31C,0.0050*%
D21*
X6512Y9600D02*
G03*
X6512Y9600I-1012J0D01*
G01*
X4900Y9950D02*
X5300D01*
X5750D02*
X6150D01*
X4900Y9350D02*
X6150D01*
X3489Y13279D02*
Y13879D01*
X3689Y13679D01*
X3889Y13879D01*
Y13279D01*
X4489Y13879D02*
X4089D01*
Y13279D01*
X4489D01*
X4089Y13579D02*
X4289D01*
X4689Y13879D02*
X5088D01*
X4889D01*
Y13279D01*
X5288D02*
Y13879D01*
X5588D01*
X5688Y13779D01*
Y13579D01*
X5588Y13479D01*
X5288D01*
X5488D02*
X5688Y13279D01*
X6188D02*
Y13879D01*
X5888Y13579D01*
X6288D01*
X6488Y13779D02*
X6588Y13879D01*
X6788D01*
X6888Y13779D01*
Y13679D01*
X6788Y13579D01*
X6888Y13479D01*
Y13379D01*
X6788Y13279D01*
X6588D01*
X6488Y13379D01*
Y13479D01*
X6588Y13579D01*
X6488Y13679D01*
Y13779D01*
X6588Y13579D02*
X6788D01*
X7088Y13279D02*
X7288D01*
X7188D01*
Y13879D01*
X7088Y13779D01*
X7588D02*
X7688Y13879D01*
X7888D01*
X7988Y13779D01*
Y13379D01*
X7888Y13279D01*
X7688D01*
X7588Y13379D01*
Y13779D01*
X3489Y12919D02*
X3889D01*
X3689D01*
Y12319D01*
X4489Y12919D02*
X4089D01*
Y12319D01*
X4489D01*
X4089Y12619D02*
X4289D01*
X4689Y12319D02*
Y12719D01*
X4889Y12919D01*
X5088Y12719D01*
Y12319D01*
Y12619D01*
X4689D01*
X5288Y12319D02*
Y12919D01*
X5488Y12719D01*
X5688Y12919D01*
Y12319D01*
X6488D02*
X6688D01*
X6588D01*
Y12919D01*
X6488Y12819D01*
X6988D02*
X7088Y12919D01*
X7288D01*
X7388Y12819D01*
Y12419D01*
X7288Y12319D01*
X7088D01*
X6988Y12419D01*
Y12819D01*
D27*
X19150Y9337D02*
G03*
X19150Y9337I-49J0D01*
G01*
X20756D02*
G03*
X20756Y9337I-49J0D01*
G01*
X17922Y4954D02*
G03*
X17922Y4954I-49J0D01*
G01*
X13413D02*
G03*
X13413Y4954I-49J0D01*
G01*
X12099Y12174D02*
G03*
X12099Y12174I-49J0D01*
G01*
D28*
X11587Y11269D02*
G03*
X11587Y11269I-118J0D01*
G01*
D29*
X21347Y2212D02*
X21505D01*
X21347Y2488D02*
X21505D01*
X21347Y3262D02*
X21505D01*
X21347Y3538D02*
X21505D01*
X21347Y4262D02*
X21505D01*
X21347Y4538D02*
X21505D01*
X21347Y5112D02*
X21505D01*
X21347Y5388D02*
X21505D01*
X21347Y6212D02*
X21505D01*
X21347Y6488D02*
X21505D01*
X21347Y7312D02*
X21505D01*
X21347Y7588D02*
X21505D01*
X164Y3278D02*
X479D01*
X164Y2688D02*
X479D01*
X14517Y6058D02*
Y6216D01*
X14241Y6058D02*
Y6216D01*
X1632Y121D02*
Y2858D01*
Y121D02*
X2734D01*
X3876D02*
X4978D01*
Y2858D01*
X2242Y3468D02*
X2734D01*
X1632Y2858D02*
X2242Y3468D01*
X4368D02*
X4978Y2858D01*
X3876Y3468D02*
X4368D01*
X5886Y121D02*
Y2858D01*
Y121D02*
X6988D01*
X8130D02*
X9232D01*
Y2858D01*
X6496Y3468D02*
X6988D01*
X5886Y2858D02*
X6496Y3468D01*
X8622D02*
X9232Y2858D01*
X8130Y3468D02*
X8622D01*
X15090Y6058D02*
Y6216D01*
X14814Y6058D02*
Y6216D01*
X20360Y9760D02*
Y10016D01*
X19218D02*
X20360D01*
X19218Y9760D02*
Y10016D01*
Y9760D02*
X20360D01*
X21966D02*
Y10016D01*
X20825D02*
X21966D01*
X20825Y9760D02*
Y10016D01*
Y9760D02*
X21966D01*
X15662Y6058D02*
Y6216D01*
X15387Y6058D02*
Y6216D01*
X18517Y2789D02*
Y3340D01*
X14383D02*
X18517D01*
X14383Y2789D02*
Y3340D01*
X18794Y1900D02*
X20794D01*
X18794D02*
Y7900D01*
X20794D01*
Y1900D02*
Y7900D01*
X11660Y6058D02*
Y6216D01*
X11385Y6058D02*
Y6216D01*
X12233Y6058D02*
Y6216D01*
X11957Y6058D02*
Y6216D01*
X11088Y6058D02*
Y6216D01*
X10812Y6058D02*
Y6216D01*
X14007Y2789D02*
Y3340D01*
X9874D02*
X14007D01*
X9874Y2789D02*
Y3340D01*
X89Y4719D02*
Y12719D01*
X-911D02*
X89D01*
X-911Y4719D02*
Y12719D01*
Y4719D02*
X89D01*
X3089D02*
Y12719D01*
X2089D02*
X3089D01*
X2089Y4719D02*
Y12719D01*
Y4719D02*
X3089D01*
X6313Y5221D02*
Y5379D01*
X6038Y5221D02*
Y5379D01*
X17900Y7983D02*
Y9900D01*
Y6900D02*
Y9900D01*
X15900Y6900D02*
Y9900D01*
Y6900D02*
X17900D01*
X15900Y9900D02*
X17900D01*
X5465Y5221D02*
Y5379D01*
X5741Y5221D02*
Y5379D01*
X4458Y5221D02*
Y5379D01*
X4182Y5221D02*
Y5379D01*
X164Y4166D02*
X479D01*
X164Y3575D02*
X479D01*
X2650Y16445D02*
X4567D01*
X2650D02*
X5650D01*
X2650Y14445D02*
X5650D01*
Y16445D01*
X2650Y14445D02*
Y16445D01*
X15900Y15150D02*
X17900D01*
X15900Y11150D02*
X17900D01*
X15900D02*
Y15150D01*
X17900Y11150D02*
Y15150D01*
X18138Y9026D02*
Y9183D01*
X18413Y9026D02*
Y9183D01*
X-911Y1450D02*
X1089D01*
Y2450D01*
X-911D02*
X1089D01*
X-911Y1450D02*
Y2450D01*
X10910Y14445D02*
Y16445D01*
X6910Y14445D02*
Y16445D01*
X10910D01*
X6910Y14445D02*
X10910D01*
X18853Y14462D02*
X19010D01*
X18853Y14738D02*
X19010D01*
X13498Y14980D02*
X13655D01*
X13498Y15255D02*
X13655D01*
X14838Y14980D02*
X14996D01*
X14838Y15255D02*
X14996D01*
X7321Y5221D02*
Y5379D01*
X7596Y5221D02*
Y5379D01*
X18853Y14165D02*
X19010D01*
X18853Y13890D02*
X19010D01*
X18853Y13317D02*
X19010D01*
X18853Y13593D02*
X19010D01*
X8437Y11663D02*
X11863D01*
X8437Y8237D02*
X11863D01*
Y11663D01*
X8437Y8237D02*
Y11663D01*
X3089Y12898D02*
Y13898D01*
X-911Y12898D02*
X3089D01*
X-911Y13898D02*
X3089D01*
X-911Y12898D02*
Y13898D01*
D30*
X19494Y1733D02*
Y1400D01*
X19161Y1733D01*
X19078D01*
X18994Y1650D01*
Y1483D01*
X19078Y1400D01*
X20494D02*
Y1567D01*
Y1483D01*
X19994D01*
X20078Y1400D01*
X20494Y8200D02*
Y8367D01*
Y8283D01*
X19994D01*
X20078Y8200D01*
X20494Y8600D02*
Y8767D01*
Y8683D01*
X19994D01*
X20078Y8600D01*
X19494Y8200D02*
Y8367D01*
Y8283D01*
X18994D01*
X19078Y8200D01*
X19494Y8950D02*
Y8617D01*
X19161Y8950D01*
X19078D01*
X18994Y8866D01*
Y8700D01*
X19078Y8617D01*
X17600Y6600D02*
Y6767D01*
Y6683D01*
X17100D01*
X17183Y6600D01*
X16600Y6733D02*
Y6400D01*
X16267Y6733D01*
X16183D01*
X16100Y6650D01*
Y6483D01*
X16183Y6400D01*
X17100Y10333D02*
Y10000D01*
X17350D01*
X17267Y10167D01*
Y10250D01*
X17350Y10333D01*
X17517D01*
X17600Y10250D01*
Y10083D01*
X17517Y10000D01*
X16100Y10333D02*
X16183Y10167D01*
X16350Y10000D01*
X16517D01*
X16600Y10083D01*
Y10250D01*
X16517Y10333D01*
X16433D01*
X16350Y10250D01*
Y10000D01*
X5950Y16145D02*
X5783D01*
X5867D01*
Y15645D01*
X5950Y15728D01*
X5817Y15145D02*
X6150D01*
X5817Y14812D01*
Y14728D01*
X5900Y14645D01*
X6067D01*
X6150Y14728D01*
X2217Y15645D02*
X2550D01*
Y15895D01*
X2383Y15812D01*
X2300D01*
X2217Y15895D01*
Y16062D01*
X2300Y16145D01*
X2467D01*
X2550Y16062D01*
X2217Y14645D02*
X2383Y14728D01*
X2550Y14895D01*
Y15062D01*
X2467Y15145D01*
X2300D01*
X2217Y15062D01*
Y14978D01*
X2300Y14895D01*
X2550D01*
X16183Y15250D02*
X16100Y15333D01*
Y15500D01*
X16183Y15583D01*
X16267D01*
X16350Y15500D01*
X16433Y15583D01*
X16517D01*
X16600Y15500D01*
Y15333D01*
X16517Y15250D01*
X16433D01*
X16350Y15333D01*
X16267Y15250D01*
X16183D01*
X16350Y15333D02*
Y15500D01*
X17100Y15250D02*
Y15583D01*
X17183D01*
X17517Y15250D01*
X17600D01*
Y10850D02*
Y11017D01*
Y10933D01*
X17100D01*
X17183Y10850D01*
X16600Y10983D02*
Y10650D01*
X16267Y10983D01*
X16183D01*
X16100Y10900D01*
Y10733D01*
X16183Y10650D01*
X11010Y16161D02*
X11093Y16245D01*
X11260D01*
X11343Y16161D01*
Y16078D01*
X11260Y15995D01*
X11343Y15911D01*
Y15828D01*
X11260Y15745D01*
X11093D01*
X11010Y15828D01*
Y15911D01*
X11093Y15995D01*
X11010Y16078D01*
Y16161D01*
X11093Y15995D02*
X11260D01*
X11010Y15245D02*
X11343D01*
Y15161D01*
X11010Y14828D01*
Y14745D01*
X6610D02*
X6777D01*
X6693D01*
Y15245D01*
X6610Y15161D01*
X6743Y15745D02*
X6410D01*
X6743Y16078D01*
Y16161D01*
X6660Y16245D01*
X6493D01*
X6410Y16161D01*
D31*
X15070Y9510D02*
X15020Y9560D01*
X14920D01*
X14870Y9510D01*
Y9310D01*
X14920Y9260D01*
X15020D01*
X15070Y9310D01*
Y9410D01*
X14970D01*
X15170Y9260D02*
Y9560D01*
X15370Y9260D01*
Y9560D01*
X15470D02*
Y9260D01*
X15620D01*
X15670Y9310D01*
Y9510D01*
X15620Y9560D01*
X15470D01*
X14670Y8260D02*
Y8560D01*
X14770Y8460D01*
X14870Y8560D01*
Y8260D01*
X15120Y8560D02*
X15020D01*
X14970Y8510D01*
Y8310D01*
X15020Y8260D01*
X15120D01*
X15170Y8310D01*
Y8510D01*
X15120Y8560D01*
X15470Y8510D02*
X15420Y8560D01*
X15320D01*
X15270Y8510D01*
Y8460D01*
X15320Y8410D01*
X15420D01*
X15470Y8360D01*
Y8310D01*
X15420Y8260D01*
X15320D01*
X15270Y8310D01*
X15570Y8560D02*
X15670D01*
X15620D01*
Y8260D01*
X15570D01*
X15670D01*
X14870Y7560D02*
Y7360D01*
X14970Y7260D01*
X15070Y7360D01*
Y7560D01*
X15370Y7510D02*
X15320Y7560D01*
X15220D01*
X15170Y7510D01*
Y7310D01*
X15220Y7260D01*
X15320D01*
X15370Y7310D01*
X15670Y7510D02*
X15620Y7560D01*
X15520D01*
X15470Y7510D01*
Y7310D01*
X15520Y7260D01*
X15620D01*
X15670Y7310D01*
X13039Y5969D02*
X13139D01*
X13089D01*
Y6269D01*
X13039Y6219D01*
X13289Y5969D02*
Y6269D01*
X13439D01*
X13489Y6219D01*
Y6119D01*
X13439Y6069D01*
X13289D01*
X13389D02*
X13489Y5969D01*
X4355Y5960D02*
Y6260D01*
X4455Y6160D01*
X4555Y6260D01*
Y5960D01*
X4655Y6260D02*
X4755D01*
X4705D01*
Y5960D01*
X4655D01*
X4755D01*
X5105Y6210D02*
X5055Y6260D01*
X4955D01*
X4905Y6210D01*
Y6160D01*
X4955Y6110D01*
X5055D01*
X5105Y6060D01*
Y6010D01*
X5055Y5960D01*
X4955D01*
X4905Y6010D01*
X5355Y6260D02*
X5255D01*
X5205Y6210D01*
Y6010D01*
X5255Y5960D01*
X5355D01*
X5405Y6010D01*
Y6210D01*
X5355Y6260D01*
X6255Y5910D02*
Y6210D01*
X6355Y6110D01*
X6455Y6210D01*
Y5910D01*
X6555Y6210D02*
X6655D01*
X6605D01*
Y5910D01*
X6555D01*
X6655D01*
X7005Y6160D02*
X6955Y6210D01*
X6855D01*
X6805Y6160D01*
Y6110D01*
X6855Y6060D01*
X6955D01*
X7005Y6010D01*
Y5960D01*
X6955Y5910D01*
X6855D01*
X6805Y5960D01*
X7255Y6210D02*
X7155D01*
X7105Y6160D01*
Y5960D01*
X7155Y5910D01*
X7255D01*
X7305Y5960D01*
Y6160D01*
X7255Y6210D01*
X-1250Y2950D02*
X-1300Y3000D01*
X-1400D01*
X-1450Y2950D01*
Y2750D01*
X-1400Y2700D01*
X-1300D01*
X-1250Y2750D01*
Y2850D01*
X-1350D01*
X-1150Y2700D02*
Y3000D01*
X-950Y2700D01*
Y3000D01*
X-850D02*
Y2700D01*
X-700D01*
X-650Y2750D01*
Y2950D01*
X-700Y3000D01*
X-850D01*
X-1461Y12070D02*
X-1361D01*
X-1411D01*
Y12369D01*
X-1461Y12319D01*
Y5319D02*
X-1411Y5369D01*
X-1311D01*
X-1261Y5319D01*
Y5269D01*
X-1311Y5219D01*
X-1261Y5170D01*
Y5120D01*
X-1311Y5070D01*
X-1411D01*
X-1461Y5120D01*
Y5170D01*
X-1411Y5219D01*
X-1461Y5269D01*
Y5319D01*
X-1411Y5219D02*
X-1311D01*
Y9070D02*
Y9369D01*
X-1461Y9219D01*
X-1261D01*
X-661Y14319D02*
X-711Y14369D01*
X-811D01*
X-861Y14319D01*
Y14269D01*
X-811Y14219D01*
X-711D01*
X-661Y14169D01*
Y14119D01*
X-711Y14069D01*
X-811D01*
X-861Y14119D01*
X-561Y14069D02*
X-461D01*
X-511D01*
Y14369D01*
X-561Y14319D01*
X2950Y16910D02*
X2900Y16960D01*
X2800D01*
X2750Y16910D01*
Y16710D01*
X2800Y16660D01*
X2900D01*
X2950Y16710D01*
Y16810D01*
X2850D01*
X3050Y16660D02*
Y16960D01*
X3250Y16660D01*
Y16960D01*
X3350D02*
Y16660D01*
X3500D01*
X3550Y16710D01*
Y16910D01*
X3500Y16960D01*
X3350D01*
X3750D02*
Y16760D01*
X3850Y16660D01*
X3950Y16760D01*
Y16960D01*
X4250Y16910D02*
X4200Y16960D01*
X4100D01*
X4050Y16910D01*
Y16710D01*
X4100Y16660D01*
X4200D01*
X4250Y16710D01*
X4550Y16910D02*
X4500Y16960D01*
X4400D01*
X4350Y16910D01*
Y16710D01*
X4400Y16660D01*
X4500D01*
X4550Y16710D01*
X4750Y16660D02*
Y16960D01*
X4900D01*
X4950Y16910D01*
Y16810D01*
X4900Y16760D01*
X4750D01*
X5050Y16960D02*
Y16660D01*
X5150Y16760D01*
X5250Y16660D01*
Y16960D01*
X5350Y16660D02*
Y16960D01*
X5450Y16860D01*
X5550Y16960D01*
Y16660D01*
X7010Y16960D02*
Y16760D01*
X7110Y16660D01*
X7210Y16760D01*
Y16960D01*
X7510Y16910D02*
X7460Y16960D01*
X7360D01*
X7310Y16910D01*
Y16710D01*
X7360Y16660D01*
X7460D01*
X7510Y16710D01*
X7810Y16910D02*
X7760Y16960D01*
X7660D01*
X7610Y16910D01*
Y16710D01*
X7660Y16660D01*
X7760D01*
X7810Y16710D01*
X8010Y16660D02*
Y16960D01*
X8160D01*
X8210Y16910D01*
Y16810D01*
X8160Y16760D01*
X8010D01*
X8310Y16960D02*
Y16660D01*
X8410Y16760D01*
X8510Y16660D01*
Y16960D01*
X8610Y16660D02*
Y16960D01*
X8710Y16860D01*
X8810Y16960D01*
Y16660D01*
X9160Y16960D02*
Y16660D01*
X9310D01*
X9360Y16710D01*
Y16910D01*
X9310Y16960D01*
X9160D01*
X9660Y16910D02*
X9610Y16960D01*
X9510D01*
X9460Y16910D01*
Y16710D01*
X9510Y16660D01*
X9610D01*
X9660Y16710D01*
X10210Y16910D02*
X10160Y16960D01*
X10060D01*
X10010Y16910D01*
Y16710D01*
X10060Y16660D01*
X10160D01*
X10210Y16710D01*
Y16810D01*
X10110D01*
X10310Y16660D02*
Y16960D01*
X10510Y16660D01*
Y16960D01*
X10610D02*
Y16660D01*
X10760D01*
X10810Y16710D01*
Y16910D01*
X10760Y16960D01*
X10610D01*
X13339Y16419D02*
X13539D01*
X13439D01*
Y16119D01*
X13639Y16419D02*
X13839Y16119D01*
Y16419D02*
X13639Y16119D01*
X14639D02*
Y16419D01*
X14789D01*
X14839Y16369D01*
Y16269D01*
X14789Y16219D01*
X14639D01*
X14739D02*
X14839Y16119D01*
X14939Y16419D02*
X15139Y16119D01*
Y16419D02*
X14939Y16119D01*
X18139Y15010D02*
Y15310D01*
X18289D01*
X18339Y15260D01*
Y15160D01*
X18289Y15110D01*
X18139D01*
X18239D02*
X18339Y15010D01*
X18439Y15310D02*
X18639Y15010D01*
Y15310D02*
X18439Y15010D01*
X18339Y12750D02*
X18289Y12800D01*
X18189D01*
X18139Y12750D01*
Y12550D01*
X18189Y12500D01*
X18289D01*
X18339Y12550D01*
Y12650D01*
X18239D01*
X18439Y12500D02*
Y12800D01*
X18639Y12500D01*
Y12800D01*
X18739D02*
Y12500D01*
X18889D01*
X18939Y12550D01*
Y12750D01*
X18889Y12800D01*
X18739D01*
X18139Y11800D02*
Y11600D01*
X18239Y11500D01*
X18339Y11600D01*
Y11800D01*
X18639Y11750D02*
X18589Y11800D01*
X18489D01*
X18439Y11750D01*
Y11550D01*
X18489Y11500D01*
X18589D01*
X18639Y11550D01*
X18939Y11750D02*
X18889Y11800D01*
X18789D01*
X18739Y11750D01*
Y11550D01*
X18789Y11500D01*
X18889D01*
X18939Y11550D01*
X-1261Y8369D02*
X-1461D01*
Y8219D01*
X-1361Y8269D01*
X-1311D01*
X-1261Y8219D01*
Y8120D01*
X-1311Y8070D01*
X-1411D01*
X-1461Y8120D01*
X18239Y6069D02*
X18289Y6119D01*
X18389D01*
X18439Y6069D01*
Y5869D01*
X18389Y5819D01*
X18289D01*
X18239Y5869D01*
Y6069D01*
M02*
