G04 Layer_Color=8421504*
%FSLAX24Y24*%
%MOIN*%
G70*
G01*
G75*
%ADD10R,0.0276X0.0354*%
%ADD11R,0.0433X0.0669*%
%ADD12R,0.0354X0.0276*%
%ADD13R,0.0906X0.1791*%
%ADD14R,0.0236X0.0394*%
%ADD15R,0.0413X0.0945*%
%ADD16R,0.4193X0.3504*%
%ADD17R,0.0394X0.0374*%
%ADD18R,0.0374X0.0394*%
%ADD19O,0.0217X0.0689*%
%ADD20O,0.0689X0.0217*%
D10*
X21721Y2350D02*
D03*
X21131D02*
D03*
X21721Y3400D02*
D03*
X21131D02*
D03*
X21721Y4400D02*
D03*
X21131D02*
D03*
X21721Y5250D02*
D03*
X21131D02*
D03*
X21721Y6350D02*
D03*
X21131D02*
D03*
X21721Y7450D02*
D03*
X21131D02*
D03*
X19227Y14600D02*
D03*
X18636D02*
D03*
X13872Y15118D02*
D03*
X13281D02*
D03*
X15212D02*
D03*
X14622D02*
D03*
X18636Y14027D02*
D03*
X19227D02*
D03*
X19227Y13455D02*
D03*
X18636D02*
D03*
D11*
X-210Y2983D02*
D03*
X853D02*
D03*
X-210Y3871D02*
D03*
X853D02*
D03*
D12*
X14379Y6432D02*
D03*
Y5842D02*
D03*
X14952Y6432D02*
D03*
Y5842D02*
D03*
X15524Y6432D02*
D03*
Y5842D02*
D03*
X11523Y6432D02*
D03*
Y5842D02*
D03*
X12095Y6432D02*
D03*
Y5842D02*
D03*
X10950Y6432D02*
D03*
Y5842D02*
D03*
X6176Y5595D02*
D03*
Y5005D02*
D03*
X5603Y5005D02*
D03*
Y5595D02*
D03*
X4320Y5595D02*
D03*
Y5005D02*
D03*
X18276Y8809D02*
D03*
Y9400D02*
D03*
X7458Y5005D02*
D03*
Y5595D02*
D03*
D13*
X3305Y318D02*
D03*
Y3271D02*
D03*
X7559Y318D02*
D03*
Y3271D02*
D03*
D14*
X19415Y9435D02*
D03*
X20163D02*
D03*
X19789Y10340D02*
D03*
X21021Y9435D02*
D03*
X21769D02*
D03*
X21395Y10340D02*
D03*
D15*
X17450Y4954D02*
D03*
X15450D02*
D03*
X12940D02*
D03*
X10940D02*
D03*
D16*
X16450Y879D02*
D03*
X11940D02*
D03*
D17*
X4962Y4985D02*
D03*
Y5615D02*
D03*
X6817Y4985D02*
D03*
Y5615D02*
D03*
D18*
X13892Y15759D02*
D03*
X13262D02*
D03*
X15232D02*
D03*
X14602D02*
D03*
D19*
X11725Y12174D02*
D03*
X11410D02*
D03*
X11095D02*
D03*
X10780D02*
D03*
X10465D02*
D03*
X10150D02*
D03*
X9835D02*
D03*
X9520D02*
D03*
X9205D02*
D03*
X8890D02*
D03*
X8575D02*
D03*
Y7726D02*
D03*
X8890D02*
D03*
X9205D02*
D03*
X9520D02*
D03*
X9835D02*
D03*
X10150D02*
D03*
X10465D02*
D03*
X10780D02*
D03*
X11095D02*
D03*
X11410D02*
D03*
X11725D02*
D03*
D20*
X7926Y11525D02*
D03*
Y11210D02*
D03*
Y10895D02*
D03*
Y10580D02*
D03*
Y10265D02*
D03*
Y9950D02*
D03*
Y9635D02*
D03*
Y9320D02*
D03*
Y9005D02*
D03*
Y8690D02*
D03*
Y8375D02*
D03*
X12374D02*
D03*
Y8690D02*
D03*
Y9005D02*
D03*
Y9320D02*
D03*
Y9635D02*
D03*
Y9950D02*
D03*
Y10265D02*
D03*
Y10580D02*
D03*
Y10895D02*
D03*
Y11210D02*
D03*
Y11525D02*
D03*
M02*
