G04 Layer_Color=16711935*
%FSLAX24Y24*%
%MOIN*%
G70*
G01*
G75*
%ADD43R,0.0671X0.0671*%
%ADD44C,0.0671*%
%ADD45R,0.0671X0.0671*%
%ADD46C,0.2049*%
%ADD47C,0.0580*%
D43*
X20294Y2400D02*
D03*
X-411Y12219D02*
D03*
X2589D02*
D03*
X17400Y7400D02*
D03*
Y11650D02*
D03*
D44*
X19294Y2400D02*
D03*
X20294Y3400D02*
D03*
X19294D02*
D03*
X20294Y4400D02*
D03*
X19294D02*
D03*
X20294Y5400D02*
D03*
X19294D02*
D03*
X20294Y6400D02*
D03*
X19294D02*
D03*
X20294Y7400D02*
D03*
X19294D02*
D03*
X-411Y5219D02*
D03*
Y6219D02*
D03*
Y7219D02*
D03*
Y8219D02*
D03*
Y9219D02*
D03*
Y10219D02*
D03*
Y11219D02*
D03*
X2589Y5219D02*
D03*
Y6219D02*
D03*
Y7219D02*
D03*
Y8219D02*
D03*
Y9219D02*
D03*
Y10219D02*
D03*
Y11219D02*
D03*
X16400Y9400D02*
D03*
X17400D02*
D03*
X16400Y8400D02*
D03*
X17400D02*
D03*
X16400Y7400D02*
D03*
X3150Y14945D02*
D03*
Y15945D02*
D03*
X4150Y14945D02*
D03*
Y15945D02*
D03*
X5150Y14945D02*
D03*
X16400Y11650D02*
D03*
X17400Y12650D02*
D03*
X16400D02*
D03*
X17400Y13650D02*
D03*
X16400D02*
D03*
X17400Y14650D02*
D03*
X16400D02*
D03*
X-411Y1950D02*
D03*
X7410Y15945D02*
D03*
X8410Y14945D02*
D03*
Y15945D02*
D03*
X9410Y14945D02*
D03*
Y15945D02*
D03*
X10410Y14945D02*
D03*
Y15945D02*
D03*
X589Y13398D02*
D03*
X1589D02*
D03*
X2589D02*
D03*
D45*
X5150Y15945D02*
D03*
X589Y1950D02*
D03*
X7410Y14945D02*
D03*
X-411Y13398D02*
D03*
D46*
X0Y0D02*
D03*
X21000D02*
D03*
Y15500D02*
D03*
X0D02*
D03*
D47*
X3305Y318D02*
D03*
X7559D02*
D03*
X13370Y750D02*
D03*
X11860D02*
D03*
X16390D02*
D03*
X14880D02*
D03*
X10350D02*
D03*
X17900D02*
D03*
X10150Y9950D02*
D03*
X17450Y4954D02*
D03*
M02*
