G04 Layer_Physical_Order=1*
G04 Layer_Color=255*
%FSLAX24Y24*%
%MOIN*%
G70*
G01*
G75*
%ADD10R,0.0276X0.0354*%
%ADD11R,0.0433X0.0669*%
%ADD12R,0.0354X0.0276*%
%ADD13R,0.0906X0.1791*%
%ADD14R,0.0236X0.0394*%
%ADD15R,0.0413X0.0945*%
%ADD16R,0.4193X0.3504*%
%ADD17R,0.0394X0.0374*%
%ADD18R,0.0374X0.0394*%
%ADD19O,0.0217X0.0689*%
%ADD20O,0.0689X0.0217*%
%ADD21C,0.0100*%
%ADD22R,0.0591X0.0591*%
%ADD23C,0.0591*%
%ADD24R,0.0591X0.0591*%
%ADD25C,0.1969*%
%ADD26C,0.0500*%
G36*
X21241Y17334D02*
X21479Y17287D01*
X21708Y17209D01*
X21925Y17102D01*
X22126Y16967D01*
X22308Y16808D01*
X22467Y16626D01*
X22602Y16425D01*
X22709Y16208D01*
X22787Y15979D01*
X22834Y15741D01*
X22849Y15510D01*
X22847Y15500D01*
Y0D01*
X22849Y-10D01*
X22834Y-241D01*
X22787Y-479D01*
X22709Y-708D01*
X22602Y-925D01*
X22467Y-1126D01*
X22308Y-1308D01*
X22126Y-1467D01*
X21925Y-1602D01*
X21708Y-1709D01*
X21479Y-1787D01*
X21241Y-1834D01*
X21010Y-1849D01*
X21000Y-1847D01*
X0D01*
X-10Y-1849D01*
X-241Y-1834D01*
X-479Y-1787D01*
X-708Y-1709D01*
X-925Y-1602D01*
X-1126Y-1467D01*
X-1308Y-1308D01*
X-1467Y-1126D01*
X-1602Y-925D01*
X-1709Y-708D01*
X-1787Y-479D01*
X-1834Y-241D01*
X-1849Y-10D01*
X-1847Y0D01*
Y15500D01*
X-1849Y15510D01*
X-1834Y15741D01*
X-1787Y15979D01*
X-1709Y16208D01*
X-1602Y16425D01*
X-1467Y16626D01*
X-1308Y16808D01*
X-1126Y16967D01*
X-925Y17102D01*
X-708Y17209D01*
X-479Y17287D01*
X-241Y17334D01*
X-10Y17349D01*
X0Y17347D01*
X21000D01*
X21010Y17349D01*
X21241Y17334D01*
D02*
G37*
%LPC*%
G36*
X14329Y6670D02*
X14102D01*
Y6482D01*
X14329D01*
Y6670D01*
D02*
G37*
G36*
X15801Y6382D02*
X15574D01*
Y6194D01*
X15801D01*
Y6382D01*
D02*
G37*
G36*
X12145Y6670D02*
Y6482D01*
X12372D01*
Y6670D01*
X12145D01*
D02*
G37*
G36*
X-411Y7618D02*
X-514Y7605D01*
X-610Y7565D01*
X-693Y7501D01*
X-756Y7419D01*
X-796Y7323D01*
X-810Y7219D01*
X-796Y7116D01*
X-756Y7020D01*
X-693Y6938D01*
X-610Y6874D01*
X-514Y6834D01*
X-411Y6821D01*
X-308Y6834D01*
X-212Y6874D01*
X-129Y6938D01*
X-66Y7020D01*
X-26Y7116D01*
X-12Y7219D01*
X-26Y7323D01*
X-66Y7419D01*
X-129Y7501D01*
X-212Y7565D01*
X-308Y7605D01*
X-411Y7618D01*
D02*
G37*
G36*
X11818Y6670D02*
X11768Y6670D01*
X11573D01*
Y6432D01*
Y6194D01*
X11768D01*
X11800Y6194D01*
X11850Y6194D01*
X12045D01*
Y6432D01*
Y6670D01*
X11850D01*
X11818Y6670D01*
D02*
G37*
G36*
X12372Y6382D02*
X12145D01*
Y6194D01*
X12372D01*
Y6382D01*
D02*
G37*
G36*
X20294Y6799D02*
X20191Y6785D01*
X20095Y6745D01*
X20012Y6682D01*
X19949Y6599D01*
X19909Y6503D01*
X19896Y6400D01*
X19909Y6297D01*
X19949Y6201D01*
X20012Y6118D01*
X20095Y6055D01*
X20191Y6015D01*
X20294Y6001D01*
X20397Y6015D01*
X20494Y6055D01*
X20576Y6118D01*
X20637Y6197D01*
X20893D01*
Y6073D01*
X21368D01*
Y6627D01*
X20893D01*
Y6503D01*
X20679D01*
X20679Y6503D01*
X20639Y6599D01*
X20576Y6682D01*
X20494Y6745D01*
X20397Y6785D01*
X20294Y6799D01*
D02*
G37*
G36*
X19294D02*
X19191Y6785D01*
X19095Y6745D01*
X19012Y6682D01*
X18949Y6599D01*
X18909Y6503D01*
X18896Y6400D01*
X18909Y6297D01*
X18949Y6201D01*
X19012Y6118D01*
X19095Y6055D01*
X19191Y6015D01*
X19294Y6001D01*
X19397Y6015D01*
X19494Y6055D01*
X19576Y6118D01*
X19639Y6201D01*
X19679Y6297D01*
X19693Y6400D01*
X19679Y6503D01*
X19639Y6599D01*
X19576Y6682D01*
X19494Y6745D01*
X19397Y6785D01*
X19294Y6799D01*
D02*
G37*
G36*
X14329Y6382D02*
X14102D01*
Y6194D01*
X14329D01*
Y6382D01*
D02*
G37*
G36*
X14675Y6670D02*
X14625Y6670D01*
X14429D01*
Y6432D01*
Y6194D01*
X14625D01*
X14656Y6194D01*
X14706Y6194D01*
X14902D01*
Y6432D01*
Y6670D01*
X14706D01*
X14675Y6670D01*
D02*
G37*
G36*
X10900Y6382D02*
X10673D01*
Y6194D01*
X10900D01*
Y6382D01*
D02*
G37*
G36*
X11725Y8174D02*
X11644Y8158D01*
X11575Y8112D01*
X11560D01*
X11491Y8158D01*
X11410Y8174D01*
X11329Y8158D01*
X11260Y8112D01*
X11245D01*
X11176Y8158D01*
X11095Y8174D01*
X11014Y8158D01*
X10945Y8112D01*
X10930D01*
X10861Y8158D01*
X10780Y8174D01*
X10699Y8158D01*
X10630Y8112D01*
X10615D01*
X10546Y8158D01*
X10515Y8164D01*
Y7726D01*
Y7287D01*
X10546Y7293D01*
X10615Y7339D01*
X10630D01*
X10699Y7293D01*
X10780Y7277D01*
X10861Y7293D01*
X10930Y7339D01*
X10945D01*
X11014Y7293D01*
X11095Y7277D01*
X11176Y7293D01*
X11245Y7339D01*
X11260D01*
X11307Y7308D01*
X11318Y7248D01*
X11022Y6953D01*
X9254D01*
X9195Y6941D01*
X9145Y6908D01*
X7782Y5545D01*
X7736Y5564D01*
Y5833D01*
X7181D01*
Y5768D01*
X7114D01*
Y5902D01*
X6520D01*
Y5601D01*
X6470Y5576D01*
X6453Y5589D01*
Y5833D01*
X5930D01*
X5880Y5833D01*
X5848Y5833D01*
X5326D01*
Y5748D01*
X5258D01*
Y5902D01*
X4665D01*
Y5748D01*
X4597D01*
Y5833D01*
X4043D01*
Y5358D01*
X4597D01*
Y5443D01*
X4665D01*
Y5328D01*
X5258D01*
Y5443D01*
X5326D01*
Y5358D01*
X5848D01*
X5898Y5358D01*
X5930Y5358D01*
X6228D01*
X6297Y5289D01*
X6278Y5243D01*
X5898D01*
Y5243D01*
X5880Y5243D01*
Y5243D01*
X5326D01*
Y4939D01*
X5276Y4914D01*
X5258Y4928D01*
Y5272D01*
X4665D01*
Y4928D01*
X4647Y4914D01*
X4597Y4939D01*
Y4955D01*
X4370D01*
Y4767D01*
X4462D01*
X4481Y4721D01*
X4413Y4653D01*
X419D01*
X361Y4641D01*
X311Y4608D01*
X8Y4305D01*
X-527D01*
Y3436D01*
X-527D01*
Y3418D01*
X-527D01*
Y2549D01*
X-363D01*
Y2380D01*
X-401Y2347D01*
X-411Y2349D01*
X-514Y2335D01*
X-610Y2295D01*
X-693Y2232D01*
X-756Y2149D01*
X-796Y2053D01*
X-810Y1950D01*
X-796Y1847D01*
X-756Y1751D01*
X-693Y1668D01*
X-610Y1605D01*
X-514Y1565D01*
X-411Y1551D01*
X-308Y1565D01*
X-212Y1605D01*
X-129Y1668D01*
X-66Y1751D01*
X-26Y1847D01*
X-12Y1950D01*
X-26Y2053D01*
X-60Y2136D01*
X-57Y2151D01*
Y2549D01*
X106D01*
Y3418D01*
X106D01*
Y3436D01*
X106D01*
Y3971D01*
X471Y4335D01*
X525Y4329D01*
X536Y4305D01*
X536Y4297D01*
Y3921D01*
X853D01*
X1169D01*
Y4297D01*
X1169Y4305D01*
X1189Y4347D01*
X4476D01*
X4535Y4359D01*
X4584Y4392D01*
X4891Y4698D01*
X5032D01*
X5339Y4392D01*
X5388Y4359D01*
X5447Y4347D01*
X6332D01*
X6390Y4359D01*
X6440Y4392D01*
X6746Y4698D01*
X7114D01*
Y5272D01*
X6787D01*
X6783Y5278D01*
X6809Y5328D01*
X7114D01*
Y5462D01*
X7181D01*
Y5358D01*
X7530D01*
X7549Y5311D01*
X7480Y5243D01*
X7181D01*
Y4767D01*
X7736D01*
Y5066D01*
X9317Y6647D01*
X10673D01*
Y6482D01*
X10950D01*
Y6432D01*
X11000D01*
Y6194D01*
X11195D01*
X11227Y6194D01*
X11277Y6194D01*
X11473D01*
Y6432D01*
Y6670D01*
X11277D01*
X11227Y6670D01*
X11222Y6720D01*
X11776Y7274D01*
X11786Y7289D01*
X11806Y7293D01*
X11875Y7339D01*
X11921Y7408D01*
X11937Y7489D01*
Y7962D01*
X11921Y8043D01*
X11875Y8112D01*
X11806Y8158D01*
X11725Y8174D01*
D02*
G37*
G36*
X9520D02*
X9439Y8158D01*
X9370Y8112D01*
X9355D01*
X9286Y8158D01*
X9205Y8174D01*
X9124Y8158D01*
X9055Y8112D01*
X9040D01*
X8971Y8158D01*
X8890Y8174D01*
X8809Y8158D01*
X8740Y8112D01*
X8725D01*
X8656Y8158D01*
X8575Y8174D01*
X8494Y8158D01*
X8425Y8112D01*
X8379Y8043D01*
X8363Y7962D01*
Y7730D01*
X7240Y6607D01*
X2823D01*
X2765Y6595D01*
X2746Y6582D01*
X2692Y6605D01*
X2589Y6618D01*
X2486Y6605D01*
X2390Y6565D01*
X2307Y6501D01*
X2244Y6419D01*
X2204Y6323D01*
X2197Y6269D01*
X2144Y6251D01*
X2067Y6328D01*
X2018Y6361D01*
X1959Y6372D01*
X-47D01*
X-66Y6419D01*
X-129Y6501D01*
X-212Y6565D01*
X-308Y6605D01*
X-411Y6618D01*
X-514Y6605D01*
X-610Y6565D01*
X-693Y6501D01*
X-756Y6419D01*
X-796Y6323D01*
X-810Y6219D01*
X-796Y6116D01*
X-756Y6020D01*
X-693Y5938D01*
X-610Y5874D01*
X-514Y5834D01*
X-411Y5821D01*
X-308Y5834D01*
X-212Y5874D01*
X-129Y5938D01*
X-66Y6020D01*
X-47Y6067D01*
X1896D01*
X2296Y5666D01*
X2346Y5633D01*
X2354Y5631D01*
X2392Y5574D01*
X2390Y5565D01*
X2307Y5501D01*
X2244Y5419D01*
X2204Y5323D01*
X2197Y5269D01*
X2589D01*
X2981D01*
X2974Y5323D01*
X2934Y5419D01*
X2871Y5501D01*
X2788Y5565D01*
X2786Y5574D01*
X2824Y5631D01*
X2832Y5633D01*
X2882Y5666D01*
X3316Y6101D01*
X7705D01*
X7763Y6112D01*
X7813Y6146D01*
X8942Y7274D01*
X8952Y7289D01*
X8971Y7293D01*
X9040Y7339D01*
X9055D01*
X9124Y7293D01*
X9205Y7277D01*
X9286Y7293D01*
X9355Y7339D01*
X9370D01*
X9439Y7293D01*
X9520Y7277D01*
X9601Y7293D01*
X9670Y7339D01*
X9685D01*
X9754Y7293D01*
X9785Y7287D01*
Y7726D01*
Y8164D01*
X9754Y8158D01*
X9685Y8112D01*
X9670D01*
X9601Y8158D01*
X9520Y8174D01*
D02*
G37*
G36*
X18226Y8759D02*
X17999D01*
Y8572D01*
X18226D01*
Y8759D01*
D02*
G37*
G36*
X-411Y9618D02*
X-514Y9605D01*
X-610Y9565D01*
X-693Y9501D01*
X-756Y9419D01*
X-796Y9323D01*
X-810Y9219D01*
X-796Y9116D01*
X-756Y9020D01*
X-693Y8938D01*
X-610Y8874D01*
X-514Y8834D01*
X-411Y8821D01*
X-308Y8834D01*
X-212Y8874D01*
X-129Y8938D01*
X-66Y9020D01*
X-26Y9116D01*
X-12Y9219D01*
X-26Y9323D01*
X-66Y9419D01*
X-129Y9501D01*
X-212Y9565D01*
X-308Y9605D01*
X-411Y9618D01*
D02*
G37*
G36*
X18553Y8759D02*
X18326D01*
Y8572D01*
X18553D01*
Y8759D01*
D02*
G37*
G36*
X2589Y8618D02*
X2486Y8605D01*
X2390Y8565D01*
X2307Y8501D01*
X2244Y8419D01*
X2204Y8323D01*
X2190Y8219D01*
X2204Y8116D01*
X2244Y8020D01*
X2307Y7938D01*
X2390Y7874D01*
X2486Y7834D01*
X2589Y7821D01*
X2692Y7834D01*
X2788Y7874D01*
X2871Y7938D01*
X2934Y8020D01*
X2974Y8116D01*
X2988Y8219D01*
X2974Y8323D01*
X2934Y8419D01*
X2871Y8501D01*
X2788Y8565D01*
X2692Y8605D01*
X2589Y8618D01*
D02*
G37*
G36*
X20294Y7799D02*
X20191Y7785D01*
X20095Y7745D01*
X20012Y7682D01*
X19949Y7599D01*
X19909Y7503D01*
X19896Y7400D01*
X19909Y7297D01*
X19949Y7201D01*
X20012Y7118D01*
X20095Y7055D01*
X20191Y7015D01*
X20294Y7001D01*
X20397Y7015D01*
X20494Y7055D01*
X20576Y7118D01*
X20639Y7201D01*
X20679Y7297D01*
X20679Y7297D01*
X20893D01*
Y7173D01*
X21368D01*
Y7727D01*
X20893D01*
Y7603D01*
X20637D01*
X20576Y7682D01*
X20494Y7745D01*
X20397Y7785D01*
X20294Y7799D01*
D02*
G37*
G36*
X2589Y7618D02*
X2486Y7605D01*
X2390Y7565D01*
X2307Y7501D01*
X2244Y7419D01*
X2204Y7323D01*
X2190Y7219D01*
X2204Y7116D01*
X2244Y7020D01*
X2307Y6938D01*
X2390Y6874D01*
X2486Y6834D01*
X2589Y6821D01*
X2692Y6834D01*
X2788Y6874D01*
X2871Y6938D01*
X2934Y7020D01*
X2974Y7116D01*
X2988Y7219D01*
X2974Y7323D01*
X2934Y7419D01*
X2871Y7501D01*
X2788Y7565D01*
X2692Y7605D01*
X2589Y7618D01*
D02*
G37*
G36*
X16350Y7792D02*
X16297Y7785D01*
X16201Y7745D01*
X16118Y7682D01*
X16055Y7599D01*
X16015Y7503D01*
X16008Y7450D01*
X16350D01*
Y7792D01*
D02*
G37*
G36*
X-411Y8618D02*
X-514Y8605D01*
X-610Y8565D01*
X-693Y8501D01*
X-756Y8419D01*
X-796Y8323D01*
X-810Y8219D01*
X-796Y8116D01*
X-756Y8020D01*
X-693Y7938D01*
X-610Y7874D01*
X-514Y7834D01*
X-411Y7821D01*
X-308Y7834D01*
X-212Y7874D01*
X-129Y7938D01*
X-66Y8020D01*
X-26Y8116D01*
X-12Y8219D01*
X-26Y8323D01*
X-66Y8419D01*
X-129Y8501D01*
X-212Y8565D01*
X-308Y8605D01*
X-411Y8618D01*
D02*
G37*
G36*
X16450Y7792D02*
Y7450D01*
X16792D01*
X16785Y7503D01*
X16745Y7599D01*
X16682Y7682D01*
X16599Y7745D01*
X16503Y7785D01*
X16450Y7792D01*
D02*
G37*
G36*
X11227Y6079D02*
Y6079D01*
X10673D01*
Y5604D01*
X10797D01*
Y5526D01*
X10634D01*
Y4382D01*
X11247D01*
Y5526D01*
X11103D01*
Y5604D01*
X11227D01*
Y5604D01*
X11245D01*
Y5604D01*
X11800D01*
Y5604D01*
X11818D01*
Y5604D01*
X12372D01*
Y6079D01*
X11848D01*
X11818Y6079D01*
Y6079D01*
X11800D01*
X11800Y6079D01*
X11769Y6079D01*
X11245D01*
Y6079D01*
X11227D01*
D02*
G37*
G36*
X19294Y3799D02*
X19191Y3785D01*
X19095Y3745D01*
X19012Y3682D01*
X18949Y3599D01*
X18909Y3503D01*
X18896Y3400D01*
X18909Y3297D01*
X18949Y3201D01*
X19012Y3118D01*
X19095Y3055D01*
X19191Y3015D01*
X19294Y3001D01*
X19397Y3015D01*
X19494Y3055D01*
X19576Y3118D01*
X19639Y3201D01*
X19679Y3297D01*
X19693Y3400D01*
X19679Y3503D01*
X19639Y3599D01*
X19576Y3682D01*
X19494Y3745D01*
X19397Y3785D01*
X19294Y3799D01*
D02*
G37*
G36*
X803Y2933D02*
X536D01*
Y2549D01*
X803D01*
Y2933D01*
D02*
G37*
G36*
X1169Y3821D02*
X853D01*
X536D01*
Y3468D01*
X536Y3436D01*
X536Y3386D01*
Y3033D01*
X853D01*
X1169D01*
Y3386D01*
X1169Y3418D01*
X1169Y3468D01*
Y3821D01*
D02*
G37*
G36*
X19294Y4799D02*
X19191Y4785D01*
X19095Y4745D01*
X19012Y4682D01*
X18949Y4599D01*
X18909Y4503D01*
X18896Y4400D01*
X18909Y4297D01*
X18949Y4201D01*
X19012Y4118D01*
X19095Y4055D01*
X19191Y4015D01*
X19294Y4001D01*
X19397Y4015D01*
X19494Y4055D01*
X19576Y4118D01*
X19639Y4201D01*
X19679Y4297D01*
X19693Y4400D01*
X19679Y4503D01*
X19639Y4599D01*
X19576Y4682D01*
X19494Y4745D01*
X19397Y4785D01*
X19294Y4799D01*
D02*
G37*
G36*
X20294Y3799D02*
X20191Y3785D01*
X20095Y3745D01*
X20012Y3682D01*
X19949Y3599D01*
X19909Y3503D01*
X19896Y3400D01*
X19909Y3297D01*
X19949Y3201D01*
X20012Y3118D01*
X20095Y3055D01*
X20191Y3015D01*
X20294Y3001D01*
X20397Y3015D01*
X20494Y3055D01*
X20576Y3118D01*
X20639Y3201D01*
X20659Y3247D01*
X20893D01*
Y3123D01*
X21368D01*
Y3677D01*
X20893D01*
Y3553D01*
X20659D01*
X20639Y3599D01*
X20576Y3682D01*
X20494Y3745D01*
X20397Y3785D01*
X20294Y3799D01*
D02*
G37*
G36*
X20689Y2795D02*
X19899D01*
Y2005D01*
X20689D01*
Y2197D01*
X20893D01*
Y2073D01*
X21368D01*
Y2627D01*
X20893D01*
Y2503D01*
X20689D01*
Y2795D01*
D02*
G37*
G36*
X21000Y1088D02*
X20830Y1074D01*
X20664Y1034D01*
X20506Y969D01*
X20361Y880D01*
X20231Y769D01*
X20120Y639D01*
X20031Y494D01*
X19966Y336D01*
X19926Y170D01*
X19912Y0D01*
X19926Y-170D01*
X19966Y-336D01*
X20031Y-494D01*
X20120Y-639D01*
X20231Y-769D01*
X20361Y-880D01*
X20506Y-969D01*
X20664Y-1034D01*
X20830Y-1074D01*
X21000Y-1088D01*
X21170Y-1074D01*
X21336Y-1034D01*
X21494Y-969D01*
X21639Y-880D01*
X21769Y-769D01*
X21880Y-639D01*
X21969Y-494D01*
X22034Y-336D01*
X22074Y-170D01*
X22088Y0D01*
X22074Y170D01*
X22034Y336D01*
X21969Y494D01*
X21880Y639D01*
X21769Y769D01*
X21639Y880D01*
X21494Y969D01*
X21336Y1034D01*
X21170Y1074D01*
X21000Y1088D01*
D02*
G37*
G36*
X0D02*
X-170Y1074D01*
X-336Y1034D01*
X-494Y969D01*
X-639Y880D01*
X-769Y769D01*
X-880Y639D01*
X-969Y494D01*
X-1034Y336D01*
X-1074Y170D01*
X-1088Y0D01*
X-1074Y-170D01*
X-1034Y-336D01*
X-969Y-494D01*
X-880Y-639D01*
X-769Y-769D01*
X-639Y-880D01*
X-494Y-969D01*
X-336Y-1034D01*
X-170Y-1074D01*
X0Y-1088D01*
X170Y-1074D01*
X336Y-1034D01*
X494Y-969D01*
X639Y-880D01*
X769Y-769D01*
X880Y-639D01*
X969Y-494D01*
X1034Y-336D01*
X1074Y-170D01*
X1088Y0D01*
X1074Y170D01*
X1034Y336D01*
X969Y494D01*
X880Y639D01*
X769Y769D01*
X639Y880D01*
X494Y969D01*
X336Y1034D01*
X170Y1074D01*
X0Y1088D01*
D02*
G37*
G36*
X3858Y1314D02*
X2752D01*
Y-677D01*
X3858D01*
Y1314D01*
D02*
G37*
G36*
X19294Y2799D02*
X19191Y2785D01*
X19095Y2745D01*
X19012Y2682D01*
X18949Y2599D01*
X18909Y2503D01*
X18896Y2400D01*
X18909Y2297D01*
X18949Y2201D01*
X19012Y2118D01*
X19095Y2055D01*
X19191Y2015D01*
X19294Y2001D01*
X19397Y2015D01*
X19494Y2055D01*
X19576Y2118D01*
X19639Y2201D01*
X19679Y2297D01*
X19693Y2400D01*
X19679Y2503D01*
X19639Y2599D01*
X19576Y2682D01*
X19494Y2745D01*
X19397Y2785D01*
X19294Y2799D01*
D02*
G37*
G36*
X8112Y1314D02*
X7006D01*
Y-677D01*
X8112D01*
Y1314D01*
D02*
G37*
G36*
X20294Y5799D02*
X20191Y5785D01*
X20095Y5745D01*
X20012Y5682D01*
X19949Y5599D01*
X19909Y5503D01*
X19896Y5400D01*
X19909Y5297D01*
X19949Y5201D01*
X20012Y5118D01*
X20095Y5055D01*
X20191Y5015D01*
X20294Y5001D01*
X20397Y5015D01*
X20494Y5055D01*
X20549Y5097D01*
X20893D01*
Y4973D01*
X21368D01*
Y5527D01*
X20893D01*
Y5403D01*
X20692D01*
X20679Y5503D01*
X20639Y5599D01*
X20576Y5682D01*
X20494Y5745D01*
X20397Y5785D01*
X20294Y5799D01*
D02*
G37*
G36*
X2539Y5169D02*
X2197D01*
X2204Y5116D01*
X2244Y5020D01*
X2307Y4938D01*
X2390Y4874D01*
X2486Y4834D01*
X2539Y4827D01*
Y5169D01*
D02*
G37*
G36*
X19294Y5799D02*
X19191Y5785D01*
X19095Y5745D01*
X19012Y5682D01*
X18949Y5599D01*
X18909Y5503D01*
X18896Y5400D01*
X18909Y5297D01*
X18949Y5201D01*
X19012Y5118D01*
X19095Y5055D01*
X19191Y5015D01*
X19294Y5001D01*
X19397Y5015D01*
X19494Y5055D01*
X19576Y5118D01*
X19639Y5201D01*
X19679Y5297D01*
X19693Y5400D01*
X19679Y5503D01*
X19639Y5599D01*
X19576Y5682D01*
X19494Y5745D01*
X19397Y5785D01*
X19294Y5799D01*
D02*
G37*
G36*
X4597Y5243D02*
X4370D01*
Y5055D01*
X4597D01*
Y5243D01*
D02*
G37*
G36*
X4270D02*
X4043D01*
Y5055D01*
X4270D01*
Y5243D01*
D02*
G37*
G36*
X2981Y5169D02*
X2639D01*
Y4827D01*
X2692Y4834D01*
X2788Y4874D01*
X2871Y4938D01*
X2934Y5020D01*
X2974Y5116D01*
X2981Y5169D01*
D02*
G37*
G36*
X17757Y5526D02*
X17143D01*
Y5128D01*
X17109Y5045D01*
X17097Y4954D01*
X17109Y4863D01*
X17119Y4839D01*
X15283Y3003D01*
X8112D01*
Y3118D01*
X11257D01*
X11316Y3130D01*
X11366Y3163D01*
X12599Y4396D01*
X12634Y4382D01*
Y4382D01*
X13247D01*
Y5526D01*
X12634D01*
Y4864D01*
X11194Y3424D01*
X8112D01*
Y4267D01*
X7006D01*
Y3424D01*
X3858D01*
Y4267D01*
X2752D01*
Y3424D01*
X1910D01*
X1851Y3412D01*
X1802Y3379D01*
X1215Y2793D01*
X1169Y2812D01*
Y2933D01*
X903D01*
Y2549D01*
X906D01*
X925Y2502D01*
X768Y2345D01*
X194D01*
Y1555D01*
X984D01*
Y2129D01*
X1973Y3118D01*
X2752D01*
Y2275D01*
X3858D01*
Y3118D01*
X7006D01*
Y2275D01*
X8112D01*
Y2697D01*
X9744D01*
Y-973D01*
X14137D01*
Y2697D01*
X14254D01*
Y-973D01*
X18646D01*
Y2731D01*
X15514D01*
X15493Y2781D01*
X17108Y4396D01*
X17143Y4382D01*
Y4382D01*
X17757D01*
Y4780D01*
X17791Y4863D01*
X17803Y4954D01*
X17791Y5045D01*
X17757Y5128D01*
Y5526D01*
D02*
G37*
G36*
X20294Y4799D02*
X20191Y4785D01*
X20095Y4745D01*
X20012Y4682D01*
X19949Y4599D01*
X19909Y4503D01*
X19896Y4400D01*
X19909Y4297D01*
X19949Y4201D01*
X20012Y4118D01*
X20095Y4055D01*
X20191Y4015D01*
X20294Y4001D01*
X20397Y4015D01*
X20494Y4055D01*
X20576Y4118D01*
X20639Y4201D01*
X20659Y4247D01*
X20893D01*
Y4123D01*
X21368D01*
Y4677D01*
X20893D01*
Y4553D01*
X20659D01*
X20639Y4599D01*
X20576Y4682D01*
X20494Y4745D01*
X20397Y4785D01*
X20294Y4799D01*
D02*
G37*
G36*
X14656Y6079D02*
Y6079D01*
X14102D01*
Y5604D01*
X14656D01*
Y5604D01*
X14675D01*
Y5604D01*
X15229D01*
Y5604D01*
X15247D01*
Y5604D01*
X15371D01*
Y5526D01*
X15143D01*
Y4382D01*
X15757D01*
Y5526D01*
X15677D01*
Y5604D01*
X15801D01*
Y6079D01*
X15277D01*
X15247Y6079D01*
Y6079D01*
X15229D01*
X15229Y6079D01*
X15199Y6079D01*
X14675D01*
Y6079D01*
X14656D01*
D02*
G37*
G36*
X-411Y5618D02*
X-514Y5605D01*
X-610Y5565D01*
X-693Y5501D01*
X-756Y5419D01*
X-796Y5323D01*
X-810Y5219D01*
X-796Y5116D01*
X-756Y5020D01*
X-693Y4938D01*
X-610Y4874D01*
X-514Y4834D01*
X-411Y4821D01*
X-308Y4834D01*
X-212Y4874D01*
X-129Y4938D01*
X-66Y5020D01*
X-26Y5116D01*
X-12Y5219D01*
X-26Y5323D01*
X-66Y5419D01*
X-129Y5501D01*
X-212Y5565D01*
X-308Y5605D01*
X-411Y5618D01*
D02*
G37*
G36*
X4270Y4955D02*
X4043D01*
Y4767D01*
X4270D01*
Y4955D01*
D02*
G37*
G36*
X21000Y16588D02*
X20830Y16574D01*
X20664Y16534D01*
X20506Y16469D01*
X20361Y16380D01*
X20231Y16269D01*
X20120Y16139D01*
X20031Y15994D01*
X19966Y15836D01*
X19926Y15670D01*
X19912Y15500D01*
X19926Y15330D01*
X19966Y15164D01*
X20031Y15006D01*
X20120Y14861D01*
X20231Y14731D01*
X20361Y14620D01*
X20506Y14531D01*
X20664Y14466D01*
X20830Y14426D01*
X21000Y14412D01*
X21170Y14426D01*
X21336Y14466D01*
X21494Y14531D01*
X21639Y14620D01*
X21769Y14731D01*
X21880Y14861D01*
X21969Y15006D01*
X22034Y15164D01*
X22074Y15330D01*
X22088Y15500D01*
X22074Y15670D01*
X22034Y15836D01*
X21969Y15994D01*
X21880Y16139D01*
X21769Y16269D01*
X21639Y16380D01*
X21494Y16469D01*
X21336Y16534D01*
X21170Y16574D01*
X21000Y16588D01*
D02*
G37*
G36*
X0D02*
X-170Y16574D01*
X-336Y16534D01*
X-494Y16469D01*
X-639Y16380D01*
X-769Y16269D01*
X-880Y16139D01*
X-969Y15994D01*
X-1034Y15836D01*
X-1074Y15670D01*
X-1088Y15500D01*
X-1074Y15330D01*
X-1034Y15164D01*
X-969Y15006D01*
X-880Y14861D01*
X-769Y14731D01*
X-639Y14620D01*
X-494Y14531D01*
X-336Y14466D01*
X-170Y14426D01*
X0Y14412D01*
X170Y14426D01*
X336Y14466D01*
X494Y14531D01*
X639Y14620D01*
X769Y14731D01*
X880Y14861D01*
X969Y15006D01*
X1034Y15164D01*
X1074Y15330D01*
X1088Y15500D01*
X1074Y15670D01*
X1034Y15836D01*
X969Y15994D01*
X880Y16139D01*
X769Y16269D01*
X639Y16380D01*
X494Y16469D01*
X336Y16534D01*
X170Y16574D01*
X0Y16588D01*
D02*
G37*
G36*
X3150Y15344D02*
X3047Y15330D01*
X2951Y15290D01*
X2868Y15227D01*
X2805Y15144D01*
X2765Y15048D01*
X2751Y14945D01*
X2765Y14842D01*
X2805Y14746D01*
X2868Y14663D01*
X2951Y14600D01*
X3047Y14560D01*
X3150Y14546D01*
X3253Y14560D01*
X3349Y14600D01*
X3432Y14663D01*
X3495Y14746D01*
X3535Y14842D01*
X3549Y14945D01*
X3535Y15048D01*
X3495Y15144D01*
X3432Y15227D01*
X3349Y15290D01*
X3253Y15330D01*
X3150Y15344D01*
D02*
G37*
G36*
X4100Y14895D02*
X3758D01*
X3765Y14842D01*
X3805Y14746D01*
X3868Y14663D01*
X3951Y14600D01*
X4047Y14560D01*
X4100Y14553D01*
Y14895D01*
D02*
G37*
G36*
X17500Y16503D02*
X13257D01*
X13198Y16491D01*
X13149Y16458D01*
X12817Y16126D01*
X12783Y16077D01*
X12772Y16018D01*
Y14575D01*
X12783Y14517D01*
X12817Y14467D01*
X12881Y14403D01*
X12860Y14353D01*
X9840D01*
X9819Y14403D01*
X9964Y14547D01*
X9997Y14597D01*
X10008Y14655D01*
Y14751D01*
X10058Y14761D01*
X10065Y14746D01*
X10128Y14663D01*
X10211Y14600D01*
X10307Y14560D01*
X10410Y14546D01*
X10513Y14560D01*
X10609Y14600D01*
X10692Y14663D01*
X10755Y14746D01*
X10795Y14842D01*
X10809Y14945D01*
X10795Y15048D01*
X10755Y15144D01*
X10692Y15227D01*
X10609Y15290D01*
X10513Y15330D01*
X10410Y15344D01*
X10307Y15330D01*
X10211Y15290D01*
X10128Y15227D01*
X10065Y15144D01*
X10056Y15142D01*
X9998Y15180D01*
X9997Y15188D01*
X9964Y15237D01*
X9641Y15560D01*
X9645Y15627D01*
X9692Y15663D01*
X9755Y15746D01*
X9795Y15842D01*
X9809Y15945D01*
X9795Y16048D01*
X9755Y16144D01*
X9692Y16227D01*
X9609Y16290D01*
X9513Y16330D01*
X9410Y16344D01*
X9307Y16330D01*
X9211Y16290D01*
X9128Y16227D01*
X9065Y16144D01*
X9025Y16048D01*
X9011Y15945D01*
X9025Y15842D01*
X9065Y15746D01*
X9128Y15663D01*
X9211Y15600D01*
X9257Y15580D01*
Y15575D01*
X9269Y15516D01*
X9302Y15466D01*
X9379Y15390D01*
X9361Y15337D01*
X9307Y15330D01*
X9211Y15290D01*
X9128Y15227D01*
X9065Y15144D01*
X9025Y15048D01*
X9011Y14945D01*
X9025Y14842D01*
X9044Y14795D01*
X7817Y13569D01*
X7784Y13519D01*
X7773Y13460D01*
Y11737D01*
X7689D01*
X7608Y11721D01*
X7539Y11675D01*
X7493Y11606D01*
X7483Y11556D01*
X7429Y11540D01*
X7203Y11766D01*
Y13404D01*
X8353Y14554D01*
X8410Y14546D01*
X8513Y14560D01*
X8609Y14600D01*
X8692Y14663D01*
X8755Y14746D01*
X8795Y14842D01*
X8809Y14945D01*
X8795Y15048D01*
X8755Y15144D01*
X8692Y15227D01*
X8609Y15290D01*
X8513Y15330D01*
X8410Y15344D01*
X8307Y15330D01*
X8211Y15290D01*
X8168Y15257D01*
X8118Y15282D01*
Y15436D01*
X8261Y15579D01*
X8307Y15560D01*
X8410Y15546D01*
X8513Y15560D01*
X8609Y15600D01*
X8692Y15663D01*
X8755Y15746D01*
X8795Y15842D01*
X8809Y15945D01*
X8795Y16048D01*
X8755Y16144D01*
X8692Y16227D01*
X8609Y16290D01*
X8513Y16330D01*
X8410Y16344D01*
X8307Y16330D01*
X8211Y16290D01*
X8128Y16227D01*
X8065Y16144D01*
X8025Y16048D01*
X8011Y15945D01*
X8025Y15842D01*
X8044Y15795D01*
X7857Y15608D01*
X7824Y15558D01*
X7812Y15500D01*
Y15387D01*
X7805Y15340D01*
X7015D01*
Y14550D01*
X7568D01*
X7587Y14503D01*
X6742Y13658D01*
X6709Y13609D01*
X6697Y13550D01*
Y11771D01*
X6651Y11752D01*
X5303Y13100D01*
Y14580D01*
X5349Y14600D01*
X5432Y14663D01*
X5495Y14746D01*
X5535Y14842D01*
X5549Y14945D01*
X5535Y15048D01*
X5495Y15144D01*
X5432Y15227D01*
X5349Y15290D01*
X5253Y15330D01*
X5150Y15344D01*
X5047Y15330D01*
X4951Y15290D01*
X4908Y15257D01*
X4858Y15282D01*
Y15436D01*
X4971Y15550D01*
X5545D01*
Y16340D01*
X4755D01*
Y15766D01*
X4597Y15608D01*
X4563Y15558D01*
X4552Y15500D01*
Y15138D01*
X4502Y15129D01*
X4495Y15144D01*
X4432Y15227D01*
X4349Y15290D01*
X4253Y15330D01*
X4200Y15337D01*
Y14945D01*
Y14553D01*
X4253Y14560D01*
X4349Y14600D01*
X4432Y14663D01*
X4495Y14746D01*
X4502Y14761D01*
X4552Y14751D01*
Y13199D01*
X4563Y13141D01*
X4597Y13091D01*
X7474Y10214D01*
X7489Y10203D01*
X7493Y10184D01*
X7518Y10146D01*
X7536Y10107D01*
X7518Y10069D01*
X7493Y10031D01*
X7487Y10000D01*
X7926D01*
Y9900D01*
X7487D01*
X7493Y9869D01*
X7539Y9800D01*
Y9785D01*
X7493Y9716D01*
X7477Y9635D01*
X7493Y9554D01*
X7539Y9485D01*
Y9470D01*
X7493Y9401D01*
X7477Y9320D01*
X7493Y9239D01*
X7518Y9201D01*
X7536Y9163D01*
X7518Y9124D01*
X7493Y9086D01*
X7477Y9005D01*
X7488Y8950D01*
X7454Y8900D01*
X5755D01*
X2882Y11773D01*
X2880Y11774D01*
X2895Y11824D01*
X2984D01*
Y12169D01*
X2589D01*
X2194D01*
X2194Y11824D01*
X2146Y11818D01*
X34D01*
X31Y11817D01*
X-16Y11859D01*
Y12169D01*
X-361D01*
Y11824D01*
X-87D01*
X-72Y11774D01*
X-74Y11773D01*
X-261Y11585D01*
X-308Y11605D01*
X-411Y11618D01*
X-514Y11605D01*
X-610Y11565D01*
X-693Y11501D01*
X-756Y11419D01*
X-796Y11323D01*
X-810Y11219D01*
X-796Y11116D01*
X-756Y11020D01*
X-693Y10938D01*
X-610Y10874D01*
X-514Y10834D01*
X-411Y10821D01*
X-308Y10834D01*
X-212Y10874D01*
X-129Y10938D01*
X-66Y11020D01*
X-26Y11116D01*
X-12Y11219D01*
X-26Y11323D01*
X-45Y11369D01*
X98Y11512D01*
X2252D01*
X2277Y11462D01*
X2244Y11419D01*
X2204Y11323D01*
X2190Y11219D01*
X2204Y11116D01*
X2244Y11020D01*
X2307Y10938D01*
X2390Y10874D01*
X2486Y10834D01*
X2589Y10821D01*
X2692Y10834D01*
X2739Y10854D01*
X5325Y8267D01*
X5375Y8234D01*
X5433Y8222D01*
X7543D01*
X7608Y8179D01*
X7689Y8163D01*
X8162D01*
X8243Y8179D01*
X8312Y8225D01*
X8358Y8294D01*
X8374Y8375D01*
X8358Y8456D01*
X8312Y8525D01*
Y8540D01*
X8358Y8609D01*
X8374Y8690D01*
X8358Y8771D01*
X8312Y8840D01*
Y8855D01*
X8358Y8924D01*
X8374Y9005D01*
X8358Y9086D01*
X8333Y9124D01*
X8315Y9163D01*
X8333Y9201D01*
X8358Y9239D01*
X8374Y9320D01*
X8358Y9401D01*
X8312Y9470D01*
Y9485D01*
X8348Y9539D01*
X8420D01*
X8479Y9550D01*
X8528Y9584D01*
X8742Y9797D01*
X9835D01*
X9844Y9773D01*
X9900Y9700D01*
X9973Y9644D01*
X9997Y9635D01*
Y8164D01*
X9947Y8137D01*
X9916Y8158D01*
X9885Y8164D01*
Y7726D01*
Y7287D01*
X9916Y7293D01*
X9985Y7339D01*
X10000D01*
X10069Y7293D01*
X10150Y7277D01*
X10231Y7293D01*
X10300Y7339D01*
X10315D01*
X10384Y7293D01*
X10415Y7287D01*
Y7726D01*
Y8164D01*
X10384Y8158D01*
X10353Y8137D01*
X10303Y8164D01*
Y9635D01*
X10327Y9644D01*
X10400Y9700D01*
X10456Y9773D01*
X10465Y9797D01*
X11936D01*
X11963Y9747D01*
X11942Y9716D01*
X11936Y9685D01*
X12374D01*
X12813D01*
X12807Y9716D01*
X12761Y9785D01*
Y9800D01*
X12807Y9869D01*
X12823Y9950D01*
X12807Y10031D01*
X12782Y10069D01*
X12764Y10107D01*
X12782Y10146D01*
X12807Y10184D01*
X12823Y10265D01*
X12807Y10346D01*
X12761Y10415D01*
Y10430D01*
X12807Y10499D01*
X12823Y10580D01*
X12807Y10661D01*
X12782Y10699D01*
X12764Y10737D01*
X12782Y10776D01*
X12807Y10814D01*
X12823Y10895D01*
X12807Y10976D01*
X12761Y11045D01*
Y11060D01*
X12807Y11129D01*
X12823Y11210D01*
X12807Y11291D01*
X12761Y11360D01*
Y11375D01*
X12792Y11422D01*
X12852Y11433D01*
X15993Y8292D01*
X16026Y8269D01*
X16055Y8201D01*
X16118Y8118D01*
X16201Y8055D01*
X16297Y8015D01*
X16400Y8001D01*
X16503Y8015D01*
X16599Y8055D01*
X16682Y8118D01*
X16693Y8132D01*
X16754Y8130D01*
X17042Y7841D01*
X17023Y7795D01*
X17005D01*
Y7005D01*
X16955Y7003D01*
X16605D01*
X16595Y7053D01*
X16599Y7055D01*
X16682Y7118D01*
X16745Y7201D01*
X16785Y7297D01*
X16792Y7350D01*
X16400D01*
X16008D01*
X16015Y7297D01*
X16055Y7201D01*
X16118Y7118D01*
X16201Y7055D01*
X16205Y7053D01*
X16195Y7003D01*
X15980D01*
X14184Y8798D01*
X14135Y8831D01*
X14076Y8843D01*
X12813D01*
X12786Y8893D01*
X12807Y8924D01*
X12823Y9005D01*
X12807Y9086D01*
X12782Y9124D01*
X12764Y9163D01*
X12782Y9201D01*
X12807Y9239D01*
X12823Y9320D01*
X12807Y9401D01*
X12761Y9470D01*
Y9485D01*
X12807Y9554D01*
X12813Y9585D01*
X12374D01*
X11936D01*
X11942Y9554D01*
X11988Y9485D01*
Y9470D01*
X11942Y9401D01*
X11926Y9320D01*
X11942Y9239D01*
X11967Y9201D01*
X11985Y9163D01*
X11967Y9124D01*
X11942Y9086D01*
X11926Y9005D01*
X11942Y8924D01*
X11988Y8855D01*
Y8840D01*
X11942Y8771D01*
X11926Y8690D01*
X11942Y8609D01*
X11988Y8540D01*
Y8525D01*
X11942Y8456D01*
X11926Y8375D01*
X11942Y8294D01*
X11988Y8225D01*
X12057Y8179D01*
X12138Y8163D01*
X12611D01*
X12692Y8179D01*
X12757Y8222D01*
X14045D01*
X15551Y6716D01*
X15532Y6670D01*
X15279D01*
X15247Y6670D01*
X15197Y6670D01*
X15002D01*
Y6432D01*
Y6194D01*
X15197D01*
X15229Y6194D01*
X15279Y6194D01*
X15474D01*
Y6432D01*
X15524D01*
Y6482D01*
X15815D01*
X15833Y6497D01*
X17736D01*
X17794Y6509D01*
X17844Y6542D01*
X18890Y7588D01*
X18933Y7560D01*
X18909Y7503D01*
X18896Y7400D01*
X18909Y7297D01*
X18949Y7201D01*
X19012Y7118D01*
X19095Y7055D01*
X19191Y7015D01*
X19294Y7001D01*
X19397Y7015D01*
X19494Y7055D01*
X19576Y7118D01*
X19639Y7201D01*
X19679Y7297D01*
X19693Y7400D01*
X19679Y7503D01*
X19639Y7599D01*
X19576Y7682D01*
X19494Y7745D01*
X19397Y7785D01*
X19294Y7799D01*
X19191Y7785D01*
X19134Y7761D01*
X19106Y7804D01*
X20099Y8797D01*
X21284D01*
X21343Y8809D01*
X21393Y8842D01*
X21689Y9138D01*
X21988Y9138D01*
X21997Y9092D01*
Y7942D01*
X21782Y7727D01*
X21483D01*
Y7173D01*
X21568D01*
Y6627D01*
X21483D01*
Y6073D01*
X21568D01*
Y5527D01*
X21483D01*
Y4973D01*
X21959D01*
Y5527D01*
X21874D01*
Y6073D01*
X21959D01*
Y6627D01*
X21874D01*
Y7173D01*
X21959D01*
Y7472D01*
X22151Y7664D01*
X22197Y7644D01*
Y5092D01*
X21782Y4677D01*
X21483D01*
Y4123D01*
X21568D01*
Y3677D01*
X21483D01*
Y3123D01*
X21568D01*
Y2627D01*
X21483D01*
Y2073D01*
X21959D01*
Y2627D01*
X21874D01*
Y3123D01*
X21959D01*
Y3677D01*
X21874D01*
Y4123D01*
X21959D01*
Y4422D01*
X22458Y4921D01*
X22491Y4970D01*
X22503Y5029D01*
Y10233D01*
X22491Y10291D01*
X22458Y10341D01*
X22004Y10795D01*
X21954Y10829D01*
X21895Y10840D01*
X21215D01*
X21157Y10829D01*
X21107Y10795D01*
X20805Y10493D01*
X20007D01*
Y10637D01*
X19571D01*
Y10044D01*
X20007D01*
Y10188D01*
X20868D01*
X20927Y10199D01*
X20976Y10232D01*
X21131Y10387D01*
X21177Y10368D01*
Y10044D01*
X21613D01*
Y10188D01*
X21896D01*
X21997Y10087D01*
Y9778D01*
X21988Y9732D01*
X21947Y9732D01*
X21551D01*
Y9433D01*
X21289Y9171D01*
X21239Y9192D01*
Y9385D01*
X21021D01*
X20803D01*
Y9153D01*
X20803Y9138D01*
X20768Y9103D01*
X20417D01*
X20381Y9138D01*
Y9732D01*
X19945D01*
Y9359D01*
X17841Y7255D01*
X17795Y7274D01*
Y7795D01*
X17517D01*
X17508Y7808D01*
X17357Y7959D01*
X17379Y8004D01*
X17400Y8001D01*
X17503Y8015D01*
X17599Y8055D01*
X17682Y8118D01*
X17745Y8201D01*
X17785Y8297D01*
X17799Y8400D01*
X17785Y8503D01*
X17745Y8599D01*
X17682Y8682D01*
X17599Y8745D01*
X17553Y8764D01*
Y8770D01*
X17541Y8829D01*
X17508Y8878D01*
X17432Y8955D01*
X17449Y9008D01*
X17503Y9015D01*
X17599Y9055D01*
X17682Y9118D01*
X17745Y9201D01*
X17764Y9247D01*
X17999D01*
Y9162D01*
X18553D01*
Y9638D01*
X17999D01*
Y9553D01*
X17764D01*
X17745Y9599D01*
X17682Y9682D01*
X17599Y9745D01*
X17503Y9785D01*
X17400Y9799D01*
X17297Y9785D01*
X17250Y9766D01*
X13358Y13658D01*
X13309Y13691D01*
X13250Y13703D01*
X11550D01*
X11491Y13691D01*
X11442Y13658D01*
X10728Y12945D01*
X10695Y12895D01*
X10684Y12837D01*
Y12597D01*
X10630Y12561D01*
X10615D01*
X10546Y12607D01*
X10515Y12613D01*
Y12174D01*
Y11736D01*
X10546Y11742D01*
X10615Y11788D01*
X10630D01*
X10699Y11742D01*
X10780Y11726D01*
X10861Y11742D01*
X10930Y11788D01*
X10945D01*
X11014Y11742D01*
X11095Y11726D01*
X11176Y11742D01*
X11245Y11788D01*
X11260D01*
X11329Y11742D01*
X11410Y11726D01*
X11491Y11742D01*
X11560Y11788D01*
X11575D01*
X11644Y11742D01*
X11725Y11726D01*
X11806Y11742D01*
X11875Y11788D01*
X11921Y11857D01*
X11937Y11938D01*
Y12021D01*
X12263D01*
X12501Y11783D01*
X12482Y11737D01*
X12138D01*
X12057Y11721D01*
X11988Y11675D01*
X11942Y11606D01*
X11926Y11525D01*
X11942Y11444D01*
X11988Y11375D01*
Y11360D01*
X11942Y11291D01*
X11926Y11210D01*
X11942Y11129D01*
X11988Y11060D01*
Y11045D01*
X11942Y10976D01*
X11926Y10895D01*
X11942Y10814D01*
X11967Y10776D01*
X11985Y10737D01*
X11967Y10699D01*
X11942Y10661D01*
X11926Y10580D01*
X11942Y10499D01*
X11988Y10430D01*
Y10415D01*
X11942Y10346D01*
X11926Y10265D01*
X11942Y10184D01*
X11963Y10153D01*
X11936Y10103D01*
X10465D01*
X10456Y10127D01*
X10400Y10200D01*
X10327Y10256D01*
X10303Y10265D01*
Y11736D01*
X10353Y11763D01*
X10384Y11742D01*
X10415Y11736D01*
Y12174D01*
Y12613D01*
X10384Y12607D01*
X10315Y12561D01*
X10300D01*
X10231Y12607D01*
X10150Y12623D01*
X10069Y12607D01*
X10000Y12561D01*
X9985D01*
X9916Y12607D01*
X9835Y12623D01*
X9754Y12607D01*
X9685Y12561D01*
X9670D01*
X9601Y12607D01*
X9520Y12623D01*
X9439Y12607D01*
X9408Y12586D01*
X9358Y12613D01*
Y12742D01*
X10463Y13847D01*
X13037D01*
X13096Y13859D01*
X13145Y13892D01*
X13701Y14447D01*
X14695D01*
X14753Y14459D01*
X14803Y14492D01*
X15151Y14840D01*
X15450D01*
Y14965D01*
X16082D01*
X16105Y14915D01*
X16055Y14849D01*
X16015Y14753D01*
X16001Y14650D01*
X16015Y14547D01*
X16055Y14451D01*
X16118Y14368D01*
X16201Y14305D01*
X16297Y14265D01*
X16400Y14251D01*
X16503Y14265D01*
X16599Y14305D01*
X16682Y14368D01*
X16745Y14451D01*
X16785Y14547D01*
X16799Y14650D01*
X16785Y14753D01*
X16745Y14849D01*
X16695Y14915D01*
X16718Y14965D01*
X16869D01*
X17034Y14800D01*
X17015Y14753D01*
X17001Y14650D01*
X17015Y14547D01*
X17055Y14451D01*
X17118Y14368D01*
X17201Y14305D01*
X17205Y14303D01*
X17195Y14253D01*
X16850D01*
X16791Y14241D01*
X16742Y14208D01*
X16550Y14016D01*
X16503Y14035D01*
X16400Y14049D01*
X16297Y14035D01*
X16201Y13995D01*
X16118Y13932D01*
X16055Y13849D01*
X16015Y13753D01*
X16001Y13650D01*
X16015Y13547D01*
X16055Y13451D01*
X16118Y13368D01*
X16201Y13305D01*
X16297Y13265D01*
X16400Y13251D01*
X16503Y13265D01*
X16599Y13305D01*
X16682Y13368D01*
X16745Y13451D01*
X16785Y13547D01*
X16799Y13650D01*
X16785Y13753D01*
X16766Y13800D01*
X16913Y13947D01*
X17067D01*
X17091Y13897D01*
X17055Y13849D01*
X17015Y13753D01*
X17001Y13650D01*
X17015Y13547D01*
X17055Y13451D01*
X17118Y13368D01*
X17201Y13305D01*
X17297Y13265D01*
X17400Y13251D01*
X17503Y13265D01*
X17550Y13284D01*
X17981Y12853D01*
X17960Y12803D01*
X17764D01*
X17745Y12849D01*
X17682Y12932D01*
X17599Y12995D01*
X17503Y13035D01*
X17400Y13049D01*
X17297Y13035D01*
X17201Y12995D01*
X17118Y12932D01*
X17055Y12849D01*
X17015Y12753D01*
X17001Y12650D01*
X17015Y12547D01*
X17055Y12451D01*
X17118Y12368D01*
X17201Y12305D01*
X17297Y12265D01*
X17400Y12251D01*
X17503Y12265D01*
X17599Y12305D01*
X17682Y12368D01*
X17745Y12451D01*
X17764Y12497D01*
X18949D01*
X19008Y12509D01*
X19057Y12542D01*
X19705Y13190D01*
X19708Y13192D01*
X19741Y13241D01*
X19753Y13300D01*
Y14227D01*
X19741Y14285D01*
X19708Y14335D01*
X19465Y14578D01*
Y14877D01*
X18989D01*
Y14355D01*
X18989Y14305D01*
X18989D01*
Y13750D01*
X18989D01*
X18989Y13732D01*
X18989D01*
Y13433D01*
X18920Y13365D01*
X18874Y13384D01*
Y13700D01*
X18874Y13732D01*
X18874D01*
X18874Y13750D01*
X18874D01*
Y14305D01*
X18874D01*
X18874Y14323D01*
X18874D01*
Y14877D01*
X18403D01*
Y15600D01*
X18391Y15659D01*
X18358Y15708D01*
X17608Y16458D01*
X17559Y16491D01*
X17500Y16503D01*
D02*
G37*
G36*
X-16Y13794D02*
X-806D01*
Y13003D01*
X-16D01*
Y13794D01*
D02*
G37*
G36*
X2984Y12615D02*
X2639D01*
Y12269D01*
X2984D01*
Y12615D01*
D02*
G37*
G36*
X-16D02*
X-361D01*
Y12269D01*
X-16D01*
Y12615D01*
D02*
G37*
G36*
X589Y13797D02*
X486Y13783D01*
X390Y13744D01*
X307Y13680D01*
X244Y13598D01*
X204Y13502D01*
X190Y13398D01*
X204Y13295D01*
X244Y13199D01*
X307Y13116D01*
X390Y13053D01*
X486Y13013D01*
X589Y13000D01*
X692Y13013D01*
X788Y13053D01*
X871Y13116D01*
X934Y13199D01*
X974Y13295D01*
X988Y13398D01*
X974Y13502D01*
X934Y13598D01*
X871Y13680D01*
X788Y13744D01*
X692Y13783D01*
X589Y13797D01*
D02*
G37*
G36*
X2589D02*
X2486Y13783D01*
X2390Y13744D01*
X2307Y13680D01*
X2244Y13598D01*
X2204Y13502D01*
X2190Y13398D01*
X2204Y13295D01*
X2244Y13199D01*
X2307Y13116D01*
X2390Y13053D01*
X2486Y13013D01*
X2589Y13000D01*
X2692Y13013D01*
X2788Y13053D01*
X2871Y13116D01*
X2934Y13199D01*
X2974Y13295D01*
X2988Y13398D01*
X2974Y13502D01*
X2934Y13598D01*
X2871Y13680D01*
X2788Y13744D01*
X2692Y13783D01*
X2589Y13797D01*
D02*
G37*
G36*
X1589D02*
X1486Y13783D01*
X1390Y13744D01*
X1307Y13680D01*
X1244Y13598D01*
X1204Y13502D01*
X1190Y13398D01*
X1204Y13295D01*
X1244Y13199D01*
X1307Y13116D01*
X1390Y13053D01*
X1486Y13013D01*
X1589Y13000D01*
X1692Y13013D01*
X1788Y13053D01*
X1871Y13116D01*
X1934Y13199D01*
X1974Y13295D01*
X1988Y13398D01*
X1974Y13502D01*
X1934Y13598D01*
X1871Y13680D01*
X1788Y13744D01*
X1692Y13783D01*
X1589Y13797D01*
D02*
G37*
G36*
X4100Y16337D02*
X4047Y16330D01*
X3951Y16290D01*
X3868Y16227D01*
X3805Y16144D01*
X3765Y16048D01*
X3758Y15995D01*
X4100D01*
Y16337D01*
D02*
G37*
G36*
X4542Y15895D02*
X4200D01*
Y15553D01*
X4253Y15560D01*
X4349Y15600D01*
X4432Y15663D01*
X4495Y15746D01*
X4535Y15842D01*
X4542Y15895D01*
D02*
G37*
G36*
X4200Y16337D02*
Y15995D01*
X4542D01*
X4535Y16048D01*
X4495Y16144D01*
X4432Y16227D01*
X4349Y16290D01*
X4253Y16330D01*
X4200Y16337D01*
D02*
G37*
G36*
X7460D02*
Y15995D01*
X7802D01*
X7795Y16048D01*
X7755Y16144D01*
X7692Y16227D01*
X7609Y16290D01*
X7513Y16330D01*
X7460Y16337D01*
D02*
G37*
G36*
X7360D02*
X7307Y16330D01*
X7211Y16290D01*
X7128Y16227D01*
X7065Y16144D01*
X7025Y16048D01*
X7018Y15995D01*
X7360D01*
Y16337D01*
D02*
G37*
G36*
X7802Y15895D02*
X7460D01*
Y15553D01*
X7513Y15560D01*
X7609Y15600D01*
X7692Y15663D01*
X7755Y15746D01*
X7795Y15842D01*
X7802Y15895D01*
D02*
G37*
G36*
X3150Y16344D02*
X3047Y16330D01*
X2951Y16290D01*
X2868Y16227D01*
X2805Y16144D01*
X2765Y16048D01*
X2751Y15945D01*
X2765Y15842D01*
X2805Y15746D01*
X2868Y15663D01*
X2951Y15600D01*
X3047Y15560D01*
X3150Y15546D01*
X3253Y15560D01*
X3349Y15600D01*
X3432Y15663D01*
X3495Y15746D01*
X3535Y15842D01*
X3549Y15945D01*
X3535Y16048D01*
X3495Y16144D01*
X3432Y16227D01*
X3349Y16290D01*
X3253Y16330D01*
X3150Y16344D01*
D02*
G37*
G36*
X4100Y15337D02*
X4047Y15330D01*
X3951Y15290D01*
X3868Y15227D01*
X3805Y15144D01*
X3765Y15048D01*
X3758Y14995D01*
X4100D01*
Y15337D01*
D02*
G37*
G36*
X10410Y16344D02*
X10307Y16330D01*
X10211Y16290D01*
X10128Y16227D01*
X10065Y16144D01*
X10025Y16048D01*
X10011Y15945D01*
X10025Y15842D01*
X10065Y15746D01*
X10128Y15663D01*
X10211Y15600D01*
X10307Y15560D01*
X10410Y15546D01*
X10513Y15560D01*
X10609Y15600D01*
X10692Y15663D01*
X10755Y15746D01*
X10795Y15842D01*
X10809Y15945D01*
X10795Y16048D01*
X10755Y16144D01*
X10692Y16227D01*
X10609Y16290D01*
X10513Y16330D01*
X10410Y16344D01*
D02*
G37*
G36*
X7360Y15895D02*
X7018D01*
X7025Y15842D01*
X7065Y15746D01*
X7128Y15663D01*
X7211Y15600D01*
X7307Y15560D01*
X7360Y15553D01*
Y15895D01*
D02*
G37*
G36*
X4100Y15895D02*
X3758D01*
X3765Y15842D01*
X3805Y15746D01*
X3868Y15663D01*
X3951Y15600D01*
X4047Y15560D01*
X4100Y15553D01*
Y15895D01*
D02*
G37*
G36*
X2539Y12615D02*
X2194D01*
Y12269D01*
X2539D01*
Y12615D01*
D02*
G37*
G36*
X19365Y9732D02*
X19197D01*
Y9485D01*
X19365D01*
Y9732D01*
D02*
G37*
G36*
X21239D02*
X21071D01*
Y9485D01*
X21239D01*
Y9732D01*
D02*
G37*
G36*
X19633D02*
X19465D01*
Y9485D01*
X19633D01*
Y9732D01*
D02*
G37*
G36*
X2589Y10618D02*
X2486Y10605D01*
X2390Y10565D01*
X2307Y10501D01*
X2244Y10419D01*
X2204Y10323D01*
X2190Y10219D01*
X2204Y10116D01*
X2244Y10020D01*
X2307Y9938D01*
X2390Y9874D01*
X2486Y9834D01*
X2589Y9821D01*
X2692Y9834D01*
X2788Y9874D01*
X2871Y9938D01*
X2934Y10020D01*
X2974Y10116D01*
X2988Y10219D01*
X2974Y10323D01*
X2934Y10419D01*
X2871Y10501D01*
X2788Y10565D01*
X2692Y10605D01*
X2589Y10618D01*
D02*
G37*
G36*
X-411D02*
X-514Y10605D01*
X-610Y10565D01*
X-693Y10501D01*
X-756Y10419D01*
X-796Y10323D01*
X-810Y10219D01*
X-796Y10116D01*
X-756Y10020D01*
X-693Y9938D01*
X-610Y9874D01*
X-514Y9834D01*
X-411Y9821D01*
X-308Y9834D01*
X-212Y9874D01*
X-129Y9938D01*
X-66Y10020D01*
X-26Y10116D01*
X-12Y10219D01*
X-26Y10323D01*
X-66Y10419D01*
X-129Y10501D01*
X-212Y10565D01*
X-308Y10605D01*
X-411Y10618D01*
D02*
G37*
G36*
X20971Y9732D02*
X20803D01*
Y9485D01*
X20971D01*
Y9732D01*
D02*
G37*
G36*
X18226Y9047D02*
X17999D01*
Y8859D01*
X18226D01*
Y9047D01*
D02*
G37*
G36*
X2589Y9618D02*
X2486Y9605D01*
X2390Y9565D01*
X2307Y9501D01*
X2244Y9419D01*
X2204Y9323D01*
X2190Y9219D01*
X2204Y9116D01*
X2244Y9020D01*
X2307Y8938D01*
X2390Y8874D01*
X2486Y8834D01*
X2589Y8821D01*
X2692Y8834D01*
X2788Y8874D01*
X2871Y8938D01*
X2934Y9020D01*
X2974Y9116D01*
X2988Y9219D01*
X2974Y9323D01*
X2934Y9419D01*
X2871Y9501D01*
X2788Y9565D01*
X2692Y9605D01*
X2589Y9618D01*
D02*
G37*
G36*
X18553Y9047D02*
X18326D01*
Y8859D01*
X18553D01*
Y9047D01*
D02*
G37*
G36*
X19633Y9385D02*
X19465D01*
Y9138D01*
X19633D01*
Y9385D01*
D02*
G37*
G36*
X19365D02*
X19197D01*
Y9138D01*
X19365D01*
Y9385D01*
D02*
G37*
G36*
X17795Y12045D02*
X17450D01*
Y11700D01*
X17795D01*
Y12045D01*
D02*
G37*
G36*
X16450Y12042D02*
Y11700D01*
X16792D01*
X16785Y11753D01*
X16745Y11849D01*
X16682Y11932D01*
X16599Y11995D01*
X16503Y12035D01*
X16450Y12042D01*
D02*
G37*
G36*
X-461Y12169D02*
X-806D01*
Y11824D01*
X-461D01*
Y12169D01*
D02*
G37*
G36*
Y12615D02*
X-806D01*
Y12269D01*
X-461D01*
Y12615D01*
D02*
G37*
G36*
X16400Y13049D02*
X16297Y13035D01*
X16201Y12995D01*
X16118Y12932D01*
X16055Y12849D01*
X16015Y12753D01*
X16001Y12650D01*
X16015Y12547D01*
X16055Y12451D01*
X16118Y12368D01*
X16201Y12305D01*
X16297Y12265D01*
X16400Y12251D01*
X16503Y12265D01*
X16599Y12305D01*
X16682Y12368D01*
X16745Y12451D01*
X16785Y12547D01*
X16799Y12650D01*
X16785Y12753D01*
X16745Y12849D01*
X16682Y12932D01*
X16599Y12995D01*
X16503Y13035D01*
X16400Y13049D01*
D02*
G37*
G36*
X16350Y12042D02*
X16297Y12035D01*
X16201Y11995D01*
X16118Y11932D01*
X16055Y11849D01*
X16015Y11753D01*
X16008Y11700D01*
X16350D01*
Y12042D01*
D02*
G37*
G36*
X17795Y11600D02*
X17450D01*
Y11255D01*
X17795D01*
Y11600D01*
D02*
G37*
G36*
X17350D02*
X17005D01*
Y11255D01*
X17350D01*
Y11600D01*
D02*
G37*
G36*
X16350D02*
X16008D01*
X16015Y11547D01*
X16055Y11451D01*
X16118Y11368D01*
X16201Y11305D01*
X16297Y11265D01*
X16350Y11258D01*
Y11600D01*
D02*
G37*
G36*
X17350Y12045D02*
X17005D01*
Y11700D01*
X17350D01*
Y12045D01*
D02*
G37*
G36*
X16792Y11600D02*
X16450D01*
Y11258D01*
X16503Y11265D01*
X16599Y11305D01*
X16682Y11368D01*
X16745Y11451D01*
X16785Y11547D01*
X16792Y11600D01*
D02*
G37*
%LPD*%
D10*
X21721Y2350D02*
D03*
X21131D02*
D03*
X21721Y3400D02*
D03*
X21131D02*
D03*
X21721Y4400D02*
D03*
X21131D02*
D03*
X21721Y5250D02*
D03*
X21131D02*
D03*
X21721Y6350D02*
D03*
X21131D02*
D03*
X21721Y7450D02*
D03*
X21131D02*
D03*
X19227Y14600D02*
D03*
X18636D02*
D03*
X13872Y15118D02*
D03*
X13281D02*
D03*
X15212D02*
D03*
X14622D02*
D03*
X18636Y14027D02*
D03*
X19227D02*
D03*
X19227Y13455D02*
D03*
X18636D02*
D03*
D11*
X-210Y2983D02*
D03*
X853D02*
D03*
X-210Y3871D02*
D03*
X853D02*
D03*
D12*
X14379Y6432D02*
D03*
Y5842D02*
D03*
X14952Y6432D02*
D03*
Y5842D02*
D03*
X15524Y6432D02*
D03*
Y5842D02*
D03*
X11523Y6432D02*
D03*
Y5842D02*
D03*
X12095Y6432D02*
D03*
Y5842D02*
D03*
X10950Y6432D02*
D03*
Y5842D02*
D03*
X6176Y5595D02*
D03*
Y5005D02*
D03*
X5603Y5005D02*
D03*
Y5595D02*
D03*
X4320Y5595D02*
D03*
Y5005D02*
D03*
X18276Y8809D02*
D03*
Y9400D02*
D03*
X7458Y5005D02*
D03*
Y5595D02*
D03*
D13*
X3305Y318D02*
D03*
Y3271D02*
D03*
X7559Y318D02*
D03*
Y3271D02*
D03*
D14*
X19415Y9435D02*
D03*
X20163D02*
D03*
X19789Y10340D02*
D03*
X21021Y9435D02*
D03*
X21769D02*
D03*
X21395Y10340D02*
D03*
D15*
X17450Y4954D02*
D03*
X15450D02*
D03*
X12940D02*
D03*
X10940D02*
D03*
D16*
X16450Y879D02*
D03*
X11940D02*
D03*
D17*
X4962Y4985D02*
D03*
Y5615D02*
D03*
X6817Y4985D02*
D03*
Y5615D02*
D03*
D18*
X13892Y15759D02*
D03*
X13262D02*
D03*
X15232D02*
D03*
X14602D02*
D03*
D19*
X11725Y12174D02*
D03*
X11410D02*
D03*
X11095D02*
D03*
X10780D02*
D03*
X10465D02*
D03*
X10150D02*
D03*
X9835D02*
D03*
X9520D02*
D03*
X9205D02*
D03*
X8890D02*
D03*
X8575D02*
D03*
Y7726D02*
D03*
X8890D02*
D03*
X9205D02*
D03*
X9520D02*
D03*
X9835D02*
D03*
X10150D02*
D03*
X10465D02*
D03*
X10780D02*
D03*
X11095D02*
D03*
X11410D02*
D03*
X11725D02*
D03*
D20*
X7926Y11525D02*
D03*
Y11210D02*
D03*
Y10895D02*
D03*
Y10580D02*
D03*
Y10265D02*
D03*
Y9950D02*
D03*
Y9635D02*
D03*
Y9320D02*
D03*
Y9005D02*
D03*
Y8690D02*
D03*
Y8375D02*
D03*
X12374D02*
D03*
Y8690D02*
D03*
Y9005D02*
D03*
Y9320D02*
D03*
Y9635D02*
D03*
Y9950D02*
D03*
Y10265D02*
D03*
Y10580D02*
D03*
Y10895D02*
D03*
Y11210D02*
D03*
Y11525D02*
D03*
D21*
X10950Y5842D02*
X11523D01*
X12095D01*
X10950Y4964D02*
Y5842D01*
X10940Y4954D02*
X10950Y4964D01*
X14379Y5842D02*
X14952D01*
X15524D01*
Y5028D02*
Y5842D01*
X15450Y4954D02*
X15524Y5028D01*
X11257Y3271D02*
X12940Y4954D01*
X15346Y2850D02*
X17450Y4954D01*
X7559Y3271D02*
X11257D01*
X7980Y2850D02*
X15346D01*
X7559Y3271D02*
X7980Y2850D01*
X3305Y3271D02*
X7559D01*
X-210Y2983D02*
Y3871D01*
Y2151D02*
Y2983D01*
X-411Y1950D02*
X-210Y2151D01*
X17400Y9400D02*
X18276D01*
X21395Y10340D02*
X21960D01*
X22150Y10150D01*
Y7879D02*
Y10150D01*
X21721Y7450D02*
X22150Y7879D01*
X19789Y10340D02*
X20868D01*
X21215Y10687D01*
X21895D01*
X22350Y10233D01*
Y5029D02*
Y10233D01*
X21721Y4400D02*
X22350Y5029D01*
X21721Y6350D02*
Y7450D01*
Y5250D02*
Y6350D01*
Y3400D02*
Y4400D01*
Y3400D02*
X21721Y3400D01*
Y2350D02*
Y3400D01*
X21721Y2350D02*
X21721Y2350D01*
X20344Y2350D02*
X21131D01*
X20294Y2400D02*
X20344Y2350D01*
X20294Y3400D02*
X21131D01*
X20294Y3400D02*
X20294Y3400D01*
Y4400D02*
X21131D01*
X20294Y4400D02*
X20294Y4400D01*
X20444Y5250D02*
X21131D01*
X20294Y5400D02*
X20444Y5250D01*
X20344Y6350D02*
X21131D01*
X20294Y6400D02*
X20344Y6350D01*
X20344Y7450D02*
X21131D01*
X20294Y7400D02*
X20344Y7450D01*
X8833Y7382D02*
Y7669D01*
X8890Y7726D01*
X7303Y6454D02*
X8575Y7726D01*
X7869Y8747D02*
X7926Y8690D01*
X5433Y8375D02*
X7926D01*
X4320Y5595D02*
X4942D01*
X4962Y4985D02*
X5447Y4500D01*
X6332D01*
X6817Y4985D01*
X6176Y5595D02*
X6207D01*
X6817Y4985D01*
X4942Y5595D02*
X4942Y5595D01*
X5603Y5005D02*
X6176D01*
X6176Y5005D01*
X6817Y5615D02*
X7439D01*
X7458Y5595D01*
X11668Y7726D02*
X11725D01*
X7458Y5005D02*
X9254Y6800D01*
X11086D01*
X11668Y7382D01*
X-210Y3871D02*
X419Y4500D01*
X4476D01*
X4962Y4985D01*
X13281Y15118D02*
Y15739D01*
X13262Y15759D02*
X13281Y15739D01*
X14622Y15118D02*
Y15739D01*
X14602Y15759D02*
X14622Y15739D01*
X13892Y15759D02*
X14283Y16150D01*
X14841D01*
X15232Y15759D01*
X1910Y3271D02*
X3305D01*
X589Y1950D02*
X1910Y3271D01*
X7869Y10322D02*
X7926Y10265D01*
X4705Y15500D02*
X5150Y15945D01*
X7869Y10637D02*
X7926Y10580D01*
X7869Y10952D02*
X7926Y10895D01*
X6850Y13550D02*
X7965Y14665D01*
X8410Y14827D02*
Y14945D01*
X7050Y13467D02*
X8410Y14827D01*
X7965Y15500D02*
X8410Y15945D01*
X7965Y14665D02*
Y15500D01*
X7582Y10322D02*
X7869D01*
X4705Y13199D02*
Y15500D01*
X7550Y10637D02*
X7869D01*
X5150Y13037D02*
Y14945D01*
X7518Y10952D02*
X7869D01*
X6850Y11620D02*
Y13550D01*
X7050Y11703D02*
Y13467D01*
X7543Y11210D02*
X7926D01*
X4705Y13199D02*
X7582Y10322D01*
X5150Y13037D02*
X7550Y10637D01*
X6850Y11620D02*
X7518Y10952D01*
X7050Y11703D02*
X7543Y11210D01*
X9410Y15575D02*
Y15945D01*
Y15575D02*
X9855Y15129D01*
Y14655D02*
Y15129D01*
X8575Y12174D02*
Y13375D01*
X9855Y14655D01*
X7926Y11525D02*
Y13460D01*
X9410Y14945D01*
X8890Y12174D02*
Y13290D01*
X9205Y12174D02*
Y12805D01*
X13637Y14600D02*
X14695D01*
X15212Y15118D01*
X12925Y16018D02*
X13257Y16350D01*
X13127Y14373D02*
X13872Y15118D01*
X12925Y14575D02*
X13127Y14373D01*
X12925Y14575D02*
Y16018D01*
X19227Y13455D02*
Y14027D01*
X19227Y14027D02*
X19227Y14027D01*
X18636Y14027D02*
Y14600D01*
X18636Y14600D01*
X18715Y12943D02*
X19227Y13455D01*
Y14600D02*
X19600Y14227D01*
Y13300D02*
Y14227D01*
X10780Y12174D02*
X10837Y12231D01*
X11095Y12174D02*
X11152Y12231D01*
X8890Y13290D02*
X9800Y14200D01*
X12954D01*
X13127Y14373D01*
X9205Y12805D02*
X10400Y14000D01*
X13037D01*
X13637Y14600D01*
X10837Y12231D02*
Y12837D01*
X11550Y13550D01*
X11152Y12231D02*
Y12869D01*
X11633Y13350D01*
X11725Y12174D02*
X12326D01*
X11410D02*
X11467Y12231D01*
Y12717D01*
X11750Y13000D01*
X12100D01*
X11550Y13550D02*
X13250D01*
X17400Y9400D01*
Y8400D02*
Y8770D01*
X16955Y9216D02*
X17400Y8770D01*
X16955Y9216D02*
Y9562D01*
X13167Y13350D02*
X16955Y9562D01*
X11633Y13350D02*
X13167D01*
X12100Y13000D02*
X16255Y8845D01*
X16584D01*
X16845Y8584D01*
Y8255D02*
Y8584D01*
Y8255D02*
X17400Y7700D01*
Y7400D02*
Y7700D01*
X16101Y8400D02*
X16400D01*
X12326Y12174D02*
X16101Y8400D01*
X20163Y9361D02*
Y9435D01*
X17653Y6850D02*
X20163Y9361D01*
X15916Y6850D02*
X17653D01*
X14076Y8690D02*
X15916Y6850D01*
X12374Y8690D02*
X14076D01*
X12374Y8375D02*
X14108D01*
X15833Y6650D01*
X17736D01*
X20036Y8950D01*
X21284D01*
X21769Y9435D01*
X18107Y12943D02*
X18715D01*
X17400Y13650D02*
X18107Y12943D01*
X19599Y13300D02*
X19600D01*
X17400Y12650D02*
X18949D01*
X19599Y13300D01*
X13257Y16350D02*
X17500D01*
X18250Y15600D01*
Y13841D02*
Y15600D01*
Y13841D02*
X18636Y13455D01*
X16932Y15118D02*
X17400Y14650D01*
X15212Y15118D02*
X16932D01*
X10150Y7726D02*
Y9950D01*
Y12174D01*
X8678Y9950D02*
X10150D01*
X8420Y9692D02*
X8678Y9950D01*
X7982Y9692D02*
X8420D01*
X7926Y9635D02*
X7982Y9692D01*
X10150Y9950D02*
X12374D01*
X15232Y15759D02*
X16921D01*
X17845Y14834D01*
Y14466D02*
Y14834D01*
X16400Y13650D02*
X16850Y14100D01*
X17480D01*
X17845Y14466D01*
X3253Y6254D02*
X7705D01*
X2773Y5774D02*
X3253Y6254D01*
X2405Y5774D02*
X2773D01*
X7705Y6254D02*
X8833Y7382D01*
X-411Y6219D02*
X1959D01*
X2405Y5774D01*
X2589Y6219D02*
X2823Y6454D01*
X7303D01*
X2589Y11219D02*
X5433Y8375D01*
X5691Y8747D02*
X7869D01*
X2773Y11665D02*
X5691Y8747D01*
X34Y11665D02*
X2773D01*
X-411Y11219D02*
X34Y11665D01*
X11668Y7382D02*
Y7726D01*
X4942Y5595D02*
X5603D01*
D22*
X20294Y2400D02*
D03*
X-411Y12219D02*
D03*
X2589D02*
D03*
X17400Y7400D02*
D03*
Y11650D02*
D03*
D23*
X19294Y2400D02*
D03*
X20294Y3400D02*
D03*
X19294D02*
D03*
X20294Y4400D02*
D03*
X19294D02*
D03*
X20294Y5400D02*
D03*
X19294D02*
D03*
X20294Y6400D02*
D03*
X19294D02*
D03*
X20294Y7400D02*
D03*
X19294D02*
D03*
X-411Y5219D02*
D03*
Y6219D02*
D03*
Y7219D02*
D03*
Y8219D02*
D03*
Y9219D02*
D03*
Y10219D02*
D03*
Y11219D02*
D03*
X2589Y5219D02*
D03*
Y6219D02*
D03*
Y7219D02*
D03*
Y8219D02*
D03*
Y9219D02*
D03*
Y10219D02*
D03*
Y11219D02*
D03*
X16400Y9400D02*
D03*
X17400D02*
D03*
X16400Y8400D02*
D03*
X17400D02*
D03*
X16400Y7400D02*
D03*
X3150Y14945D02*
D03*
Y15945D02*
D03*
X4150Y14945D02*
D03*
Y15945D02*
D03*
X5150Y14945D02*
D03*
X16400Y11650D02*
D03*
X17400Y12650D02*
D03*
X16400D02*
D03*
X17400Y13650D02*
D03*
X16400D02*
D03*
X17400Y14650D02*
D03*
X16400D02*
D03*
X-411Y1950D02*
D03*
X7410Y15945D02*
D03*
X8410Y14945D02*
D03*
Y15945D02*
D03*
X9410Y14945D02*
D03*
Y15945D02*
D03*
X10410Y14945D02*
D03*
Y15945D02*
D03*
X589Y13398D02*
D03*
X1589D02*
D03*
X2589D02*
D03*
D24*
X5150Y15945D02*
D03*
X589Y1950D02*
D03*
X7410Y14945D02*
D03*
X-411Y13398D02*
D03*
D25*
X0Y0D02*
D03*
X21000D02*
D03*
Y15500D02*
D03*
X0D02*
D03*
D26*
X3305Y318D02*
D03*
X7559D02*
D03*
X13370Y750D02*
D03*
X11860D02*
D03*
X16390D02*
D03*
X14880D02*
D03*
X10350D02*
D03*
X17900D02*
D03*
X10150Y9950D02*
D03*
X17450Y4954D02*
D03*
M02*
