G04 Layer_Physical_Order=1*
G04 Layer_Color=255*
%FSLAX24Y24*%
%MOIN*%
G70*
G01*
G75*
%ADD10R,0.0433X0.0551*%
%ADD11R,0.0354X0.0276*%
%ADD12R,0.0394X0.0374*%
%ADD13R,0.0433X0.0669*%
%ADD14R,0.0669X0.0433*%
%ADD15R,0.3504X0.4193*%
%ADD16R,0.0945X0.0413*%
%ADD17R,0.0374X0.0394*%
%ADD18R,0.0276X0.0354*%
%ADD19O,0.0217X0.0689*%
%ADD20O,0.0689X0.0217*%
%ADD21C,0.0200*%
%ADD22C,0.0100*%
%ADD23C,0.0400*%
%ADD24C,0.1575*%
%ADD25C,0.0600*%
%ADD26C,0.0591*%
%ADD27R,0.0591X0.0591*%
%ADD28R,0.0591X0.0591*%
%ADD29C,0.0500*%
%ADD30C,0.1969*%
G36*
X19922Y19518D02*
X20155Y19472D01*
X20381Y19396D01*
X20594Y19290D01*
X20791Y19158D01*
X20970Y19002D01*
X21127Y18823D01*
X21259Y18625D01*
X21364Y18412D01*
X21441Y18187D01*
X21487Y17954D01*
X21502Y17723D01*
X21501Y17717D01*
Y0D01*
X21502Y-7D01*
X21487Y-237D01*
X21441Y-470D01*
X21364Y-695D01*
X21259Y-909D01*
X21127Y-1106D01*
X20970Y-1285D01*
X20791Y-1442D01*
X20594Y-1574D01*
X20381Y-1679D01*
X20155Y-1755D01*
X19922Y-1802D01*
X19692Y-1817D01*
X19685Y-1816D01*
X0D01*
X-7Y-1817D01*
X-237Y-1802D01*
X-470Y-1755D01*
X-695Y-1679D01*
X-909Y-1574D01*
X-1106Y-1442D01*
X-1285Y-1285D01*
X-1442Y-1106D01*
X-1574Y-909D01*
X-1679Y-695D01*
X-1755Y-470D01*
X-1802Y-237D01*
X-1817Y-7D01*
X-1816Y0D01*
Y17717D01*
X-1817Y17723D01*
X-1802Y17954D01*
X-1755Y18187D01*
X-1679Y18412D01*
X-1574Y18625D01*
X-1442Y18823D01*
X-1285Y19002D01*
X-1106Y19158D01*
X-909Y19290D01*
X-695Y19396D01*
X-470Y19472D01*
X-237Y19518D01*
X-7Y19533D01*
X0Y19532D01*
X19685D01*
X19692Y19533D01*
X19922Y19518D01*
D02*
G37*
%LPC*%
G36*
X20525Y2950D02*
X20180D01*
Y2605D01*
X20525D01*
Y2950D01*
D02*
G37*
G36*
X16265Y2947D02*
Y2605D01*
X16607D01*
X16600Y2658D01*
X16561Y2754D01*
X16497Y2837D01*
X16415Y2900D01*
X16319Y2940D01*
X16265Y2947D01*
D02*
G37*
G36*
X12028Y5380D02*
X11435D01*
Y4806D01*
X12028D01*
Y4980D01*
X12096D01*
Y4895D01*
X12650D01*
Y5370D01*
X12096D01*
Y5286D01*
X12028D01*
Y5380D01*
D02*
G37*
G36*
X2850Y4638D02*
X2676Y4621D01*
X2509Y4570D01*
X2355Y4488D01*
X2219Y4377D01*
X2109Y4242D01*
X2026Y4088D01*
X1975Y3921D01*
X1958Y3747D01*
X1975Y3573D01*
X2026Y3405D01*
X2109Y3251D01*
X2219Y3116D01*
X2355Y3005D01*
X2509Y2923D01*
X2676Y2872D01*
X2850Y2855D01*
X3024Y2872D01*
X3191Y2923D01*
X3345Y3005D01*
X3481Y3116D01*
X3591Y3251D01*
X3674Y3405D01*
X3725Y3573D01*
X3742Y3747D01*
X3725Y3921D01*
X3674Y4088D01*
X3591Y4242D01*
X3481Y4377D01*
X3345Y4488D01*
X3191Y4570D01*
X3024Y4621D01*
X2850Y4638D01*
D02*
G37*
G36*
X16165Y2947D02*
X16112Y2940D01*
X16016Y2900D01*
X15933Y2837D01*
X15870Y2754D01*
X15830Y2658D01*
X15823Y2605D01*
X16165D01*
Y2947D01*
D02*
G37*
G36*
Y2505D02*
X15823D01*
X15830Y2452D01*
X15870Y2356D01*
X15933Y2273D01*
X16016Y2210D01*
X16112Y2170D01*
X16165Y2163D01*
Y2505D01*
D02*
G37*
G36*
X20080Y2505D02*
X19735D01*
Y2160D01*
X20080D01*
Y2505D01*
D02*
G37*
G36*
X9165Y2950D02*
X8820D01*
Y2605D01*
X9165D01*
Y2950D01*
D02*
G37*
G36*
X16607Y2505D02*
X16265D01*
Y2163D01*
X16319Y2170D01*
X16415Y2210D01*
X16497Y2273D01*
X16561Y2356D01*
X16600Y2452D01*
X16607Y2505D01*
D02*
G37*
G36*
X1850Y8272D02*
X1746Y8258D01*
X1648Y8218D01*
X1565Y8154D01*
X1501Y8070D01*
X1460Y7973D01*
X1447Y7868D01*
X1460Y7764D01*
X1501Y7667D01*
X1565Y7583D01*
X1648Y7519D01*
X1746Y7479D01*
X1850Y7465D01*
X1954Y7479D01*
X2052Y7519D01*
X2135Y7583D01*
X2199Y7667D01*
X2240Y7764D01*
X2253Y7868D01*
X2240Y7973D01*
X2199Y8070D01*
X2135Y8154D01*
X2052Y8218D01*
X1954Y8258D01*
X1850Y8272D01*
D02*
G37*
G36*
X18319Y7643D02*
X18091D01*
Y7455D01*
X18319D01*
Y7643D01*
D02*
G37*
G36*
X15031Y9050D02*
X14765D01*
Y8665D01*
X15031D01*
Y9050D01*
D02*
G37*
G36*
X2850Y8722D02*
X2746Y8708D01*
X2648Y8668D01*
X2565Y8604D01*
X2501Y8520D01*
X2460Y8423D01*
X2447Y8318D01*
X2460Y8214D01*
X2501Y8117D01*
X2565Y8033D01*
X2648Y7969D01*
X2746Y7929D01*
X2850Y7915D01*
X2954Y7929D01*
X3052Y7969D01*
X3135Y8033D01*
X3199Y8117D01*
X3240Y8214D01*
X3253Y8318D01*
X3240Y8423D01*
X3199Y8520D01*
X3135Y8604D01*
X3052Y8668D01*
X2954Y8708D01*
X2850Y8722D01*
D02*
G37*
G36*
X17991Y7643D02*
X17764D01*
Y7455D01*
X17991D01*
Y7643D01*
D02*
G37*
G36*
X1850Y7372D02*
X1746Y7358D01*
X1648Y7318D01*
X1565Y7254D01*
X1501Y7170D01*
X1460Y7073D01*
X1447Y6968D01*
X1460Y6864D01*
X1501Y6767D01*
X1565Y6683D01*
X1648Y6619D01*
X1746Y6579D01*
X1850Y6565D01*
X1954Y6579D01*
X2052Y6619D01*
X2135Y6683D01*
X2199Y6767D01*
X2240Y6864D01*
X2253Y6968D01*
X2240Y7073D01*
X2199Y7170D01*
X2135Y7254D01*
X2052Y7318D01*
X1954Y7358D01*
X1850Y7372D01*
D02*
G37*
G36*
X11312Y5650D02*
X11045D01*
Y5324D01*
X11312D01*
Y5650D01*
D02*
G37*
G36*
X9770Y7324D02*
X9689Y7308D01*
X9620Y7262D01*
X9605D01*
X9536Y7308D01*
X9455Y7324D01*
X9374Y7308D01*
X9305Y7262D01*
X9290D01*
X9221Y7308D01*
X9140Y7324D01*
X9059Y7308D01*
X8990Y7262D01*
X8975D01*
X8906Y7308D01*
X8825Y7324D01*
X8744Y7308D01*
X8675Y7262D01*
X8629Y7193D01*
X8613Y7112D01*
Y6639D01*
X8621Y6597D01*
Y3945D01*
X8637Y3867D01*
X8681Y3801D01*
X9486Y2997D01*
X9466Y2950D01*
X9265D01*
Y2605D01*
X9611D01*
Y2806D01*
X9657Y2825D01*
X9830Y2653D01*
X9817Y2555D01*
X9830Y2452D01*
X9870Y2356D01*
X9933Y2273D01*
X10016Y2210D01*
X10112Y2170D01*
X10215Y2156D01*
X10319Y2170D01*
X10415Y2210D01*
X10497Y2273D01*
X10561Y2356D01*
X10600Y2452D01*
X10614Y2555D01*
X10600Y2658D01*
X10561Y2754D01*
X10497Y2837D01*
X10415Y2900D01*
X10319Y2940D01*
X10215Y2954D01*
X10118Y2941D01*
X9029Y4030D01*
Y5167D01*
X9075Y5186D01*
X10256Y4006D01*
X10322Y3962D01*
X10400Y3946D01*
X10400Y3946D01*
X13536D01*
X14830Y2653D01*
X14817Y2555D01*
X14830Y2452D01*
X14870Y2356D01*
X14933Y2273D01*
X15016Y2210D01*
X15112Y2170D01*
X15215Y2156D01*
X15319Y2170D01*
X15415Y2210D01*
X15497Y2273D01*
X15561Y2356D01*
X15600Y2452D01*
X15614Y2555D01*
X15600Y2658D01*
X15561Y2754D01*
X15497Y2837D01*
X15415Y2900D01*
X15319Y2940D01*
X15215Y2954D01*
X15118Y2941D01*
X13765Y4294D01*
X13699Y4338D01*
X13620Y4354D01*
X10484D01*
X9344Y5494D01*
Y6408D01*
X9394Y6439D01*
X9455Y6427D01*
X9536Y6443D01*
X9605Y6489D01*
X9620D01*
X9689Y6443D01*
X9770Y6427D01*
X9851Y6443D01*
X9920Y6489D01*
X9935D01*
X10004Y6443D01*
X10035Y6437D01*
Y6876D01*
Y7314D01*
X10004Y7308D01*
X9935Y7262D01*
X9920D01*
X9851Y7308D01*
X9770Y7324D01*
D02*
G37*
G36*
X2850Y7822D02*
X2746Y7808D01*
X2648Y7768D01*
X2565Y7704D01*
X2501Y7620D01*
X2460Y7523D01*
X2447Y7418D01*
X2460Y7314D01*
X2501Y7217D01*
X2565Y7133D01*
X2648Y7069D01*
X2746Y7029D01*
X2850Y7015D01*
X2954Y7029D01*
X3052Y7069D01*
X3135Y7133D01*
X3199Y7217D01*
X3240Y7314D01*
X3253Y7418D01*
X3240Y7523D01*
X3199Y7620D01*
X3135Y7704D01*
X3052Y7768D01*
X2954Y7808D01*
X2850Y7822D01*
D02*
G37*
G36*
X9611Y2505D02*
X9265D01*
Y2160D01*
X9611D01*
Y2505D01*
D02*
G37*
G36*
X7253Y-50D02*
X6462D01*
Y-840D01*
X7253D01*
Y-50D01*
D02*
G37*
G36*
X14215Y-46D02*
X14112Y-60D01*
X14016Y-100D01*
X13933Y-163D01*
X13870Y-246D01*
X13830Y-342D01*
X13817Y-445D01*
X13830Y-548D01*
X13870Y-644D01*
X13933Y-727D01*
X14016Y-790D01*
X14112Y-830D01*
X14215Y-844D01*
X14319Y-830D01*
X14415Y-790D01*
X14497Y-727D01*
X14561Y-644D01*
X14600Y-548D01*
X14614Y-445D01*
X14600Y-342D01*
X14561Y-246D01*
X14497Y-163D01*
X14415Y-100D01*
X14319Y-60D01*
X14215Y-46D01*
D02*
G37*
G36*
X9611Y-495D02*
X9265D01*
Y-840D01*
X9611D01*
Y-495D01*
D02*
G37*
G36*
X9165D02*
X8820D01*
Y-840D01*
X9165D01*
Y-495D01*
D02*
G37*
G36*
X13215Y-46D02*
X13112Y-60D01*
X13016Y-100D01*
X12933Y-163D01*
X12870Y-246D01*
X12830Y-342D01*
X12817Y-445D01*
X12830Y-548D01*
X12870Y-644D01*
X12933Y-727D01*
X13016Y-790D01*
X13112Y-830D01*
X13215Y-844D01*
X13319Y-830D01*
X13415Y-790D01*
X13497Y-727D01*
X13561Y-644D01*
X13600Y-548D01*
X13614Y-445D01*
X13600Y-342D01*
X13561Y-246D01*
X13497Y-163D01*
X13415Y-100D01*
X13319Y-60D01*
X13215Y-46D01*
D02*
G37*
G36*
X4500D02*
X4397Y-60D01*
X4301Y-100D01*
X4218Y-163D01*
X4155Y-246D01*
X4115Y-342D01*
X4101Y-445D01*
X4115Y-548D01*
X4155Y-644D01*
X4218Y-727D01*
X4301Y-790D01*
X4397Y-830D01*
X4500Y-844D01*
X4603Y-830D01*
X4699Y-790D01*
X4782Y-727D01*
X4845Y-644D01*
X4885Y-548D01*
X4899Y-445D01*
X4885Y-342D01*
X4845Y-246D01*
X4782Y-163D01*
X4699Y-100D01*
X4603Y-60D01*
X4500Y-46D01*
D02*
G37*
G36*
X0Y1088D02*
X-170Y1074D01*
X-336Y1034D01*
X-494Y969D01*
X-639Y880D01*
X-769Y769D01*
X-880Y639D01*
X-969Y494D01*
X-1034Y336D01*
X-1074Y170D01*
X-1088Y0D01*
X-1074Y-170D01*
X-1034Y-336D01*
X-969Y-494D01*
X-880Y-639D01*
X-769Y-769D01*
X-639Y-880D01*
X-494Y-969D01*
X-336Y-1034D01*
X-170Y-1074D01*
X0Y-1088D01*
X170Y-1074D01*
X336Y-1034D01*
X494Y-969D01*
X639Y-880D01*
X769Y-769D01*
X880Y-639D01*
X969Y-494D01*
X1034Y-336D01*
X1074Y-170D01*
X1088Y0D01*
X1074Y170D01*
X1034Y336D01*
X969Y494D01*
X880Y639D01*
X769Y769D01*
X639Y880D01*
X494Y969D01*
X336Y1034D01*
X170Y1074D01*
X0Y1088D01*
D02*
G37*
G36*
X12215Y-46D02*
X12112Y-60D01*
X12016Y-100D01*
X11933Y-163D01*
X11870Y-246D01*
X11830Y-342D01*
X11817Y-445D01*
X11830Y-548D01*
X11870Y-644D01*
X11933Y-727D01*
X12016Y-790D01*
X12112Y-830D01*
X12215Y-844D01*
X12319Y-830D01*
X12415Y-790D01*
X12497Y-727D01*
X12561Y-644D01*
X12600Y-548D01*
X12614Y-445D01*
X12600Y-342D01*
X12561Y-246D01*
X12497Y-163D01*
X12415Y-100D01*
X12319Y-60D01*
X12215Y-46D01*
D02*
G37*
G36*
X11215D02*
X11112Y-60D01*
X11016Y-100D01*
X10933Y-163D01*
X10870Y-246D01*
X10830Y-342D01*
X10817Y-445D01*
X10830Y-548D01*
X10870Y-644D01*
X10933Y-727D01*
X11016Y-790D01*
X11112Y-830D01*
X11215Y-844D01*
X11319Y-830D01*
X11415Y-790D01*
X11497Y-727D01*
X11561Y-644D01*
X11600Y-548D01*
X11614Y-445D01*
X11600Y-342D01*
X11561Y-246D01*
X11497Y-163D01*
X11415Y-100D01*
X11319Y-60D01*
X11215Y-46D01*
D02*
G37*
G36*
X13215Y2954D02*
X13112Y2940D01*
X13016Y2900D01*
X12933Y2837D01*
X12870Y2754D01*
X12830Y2658D01*
X12817Y2555D01*
X12830Y2452D01*
X12870Y2356D01*
X12933Y2273D01*
X13016Y2210D01*
X13112Y2170D01*
X13215Y2156D01*
X13319Y2170D01*
X13415Y2210D01*
X13497Y2273D01*
X13561Y2356D01*
X13600Y2452D01*
X13614Y2555D01*
X13600Y2658D01*
X13561Y2754D01*
X13497Y2837D01*
X13415Y2900D01*
X13319Y2940D01*
X13215Y2954D01*
D02*
G37*
G36*
X12215D02*
X12112Y2940D01*
X12016Y2900D01*
X11933Y2837D01*
X11870Y2754D01*
X11830Y2658D01*
X11817Y2555D01*
X11830Y2452D01*
X11870Y2356D01*
X11933Y2273D01*
X12016Y2210D01*
X12112Y2170D01*
X12215Y2156D01*
X12319Y2170D01*
X12415Y2210D01*
X12497Y2273D01*
X12561Y2356D01*
X12600Y2452D01*
X12614Y2555D01*
X12600Y2658D01*
X12561Y2754D01*
X12497Y2837D01*
X12415Y2900D01*
X12319Y2940D01*
X12215Y2954D01*
D02*
G37*
G36*
X9165Y2505D02*
X8820D01*
Y2160D01*
X9165D01*
Y2505D01*
D02*
G37*
G36*
X14215Y2954D02*
X14112Y2940D01*
X14016Y2900D01*
X13933Y2837D01*
X13870Y2754D01*
X13830Y2658D01*
X13817Y2555D01*
X13830Y2452D01*
X13870Y2356D01*
X13933Y2273D01*
X14016Y2210D01*
X14112Y2170D01*
X14215Y2156D01*
X14319Y2170D01*
X14415Y2210D01*
X14497Y2273D01*
X14561Y2356D01*
X14600Y2452D01*
X14614Y2555D01*
X14600Y2658D01*
X14561Y2754D01*
X14497Y2837D01*
X14415Y2900D01*
X14319Y2940D01*
X14215Y2954D01*
D02*
G37*
G36*
X11215D02*
X11112Y2940D01*
X11016Y2900D01*
X10933Y2837D01*
X10870Y2754D01*
X10830Y2658D01*
X10817Y2555D01*
X10830Y2452D01*
X10870Y2356D01*
X10933Y2273D01*
X11016Y2210D01*
X11112Y2170D01*
X11215Y2156D01*
X11319Y2170D01*
X11415Y2210D01*
X11497Y2273D01*
X11561Y2356D01*
X11600Y2452D01*
X11614Y2555D01*
X11600Y2658D01*
X11561Y2754D01*
X11497Y2837D01*
X11415Y2900D01*
X11319Y2940D01*
X11215Y2954D01*
D02*
G37*
G36*
X9611Y-50D02*
X9265D01*
Y-395D01*
X9611D01*
Y-50D01*
D02*
G37*
G36*
X9165D02*
X8820D01*
Y-395D01*
X9165D01*
Y-50D01*
D02*
G37*
G36*
X6858Y1954D02*
X6754Y1940D01*
X6658Y1900D01*
X6576Y1837D01*
X6512Y1754D01*
X6473Y1658D01*
X6459Y1555D01*
X6473Y1452D01*
X6512Y1356D01*
X6576Y1273D01*
X6658Y1210D01*
X6754Y1170D01*
X6858Y1156D01*
X6961Y1170D01*
X7057Y1210D01*
X7140Y1273D01*
X7203Y1356D01*
X7243Y1452D01*
X7256Y1555D01*
X7243Y1658D01*
X7203Y1754D01*
X7140Y1837D01*
X7057Y1900D01*
X6961Y1940D01*
X6858Y1954D01*
D02*
G37*
G36*
Y954D02*
X6754Y940D01*
X6658Y900D01*
X6576Y837D01*
X6512Y754D01*
X6473Y658D01*
X6459Y555D01*
X6473Y452D01*
X6512Y356D01*
X6576Y273D01*
X6658Y210D01*
X6754Y170D01*
X6858Y156D01*
X6961Y170D01*
X7057Y210D01*
X7140Y273D01*
X7203Y356D01*
X7243Y452D01*
X7256Y555D01*
X7243Y658D01*
X7203Y754D01*
X7140Y837D01*
X7057Y900D01*
X6961Y940D01*
X6858Y954D01*
D02*
G37*
G36*
X15398Y9050D02*
X15131D01*
Y8665D01*
X15398D01*
Y9050D01*
D02*
G37*
G36*
X3500Y18560D02*
X3397Y18547D01*
X3301Y18507D01*
X3218Y18443D01*
X3155Y18361D01*
X3115Y18265D01*
X3101Y18161D01*
X3115Y18058D01*
X3155Y17962D01*
X3218Y17880D01*
X3301Y17816D01*
X3397Y17776D01*
X3500Y17763D01*
X3603Y17776D01*
X3699Y17816D01*
X3782Y17880D01*
X3845Y17962D01*
X3885Y18058D01*
X3899Y18161D01*
X3885Y18265D01*
X3845Y18361D01*
X3782Y18443D01*
X3699Y18507D01*
X3603Y18547D01*
X3500Y18560D01*
D02*
G37*
G36*
X2500D02*
X2397Y18547D01*
X2301Y18507D01*
X2218Y18443D01*
X2155Y18361D01*
X2115Y18265D01*
X2101Y18161D01*
X2115Y18058D01*
X2155Y17962D01*
X2218Y17880D01*
X2301Y17816D01*
X2397Y17776D01*
X2500Y17763D01*
X2603Y17776D01*
X2699Y17816D01*
X2782Y17880D01*
X2845Y17962D01*
X2885Y18058D01*
X2899Y18161D01*
X2885Y18265D01*
X2845Y18361D01*
X2782Y18443D01*
X2699Y18507D01*
X2603Y18547D01*
X2500Y18560D01*
D02*
G37*
G36*
X11577Y18953D02*
X7650D01*
X7591Y18941D01*
X7542Y18908D01*
X6692Y18058D01*
X6659Y18009D01*
X6647Y17950D01*
Y12050D01*
X6659Y11992D01*
X6692Y11942D01*
X7791Y10843D01*
X7789Y10825D01*
X7743Y10756D01*
X7727Y10675D01*
X7743Y10594D01*
X7764Y10563D01*
X7737Y10513D01*
X4297D01*
X4251Y10552D01*
X4253Y10568D01*
X4240Y10673D01*
X4199Y10770D01*
X4135Y10854D01*
X4052Y10918D01*
X3954Y10958D01*
X3850Y10972D01*
X3746Y10958D01*
X3648Y10918D01*
X3565Y10854D01*
X3501Y10770D01*
X3460Y10673D01*
X3447Y10568D01*
X3460Y10464D01*
X3501Y10367D01*
X3537Y10320D01*
X3516Y10264D01*
X3492Y10260D01*
X3442Y10226D01*
X3296Y10081D01*
X3251Y10103D01*
X3253Y10118D01*
X3240Y10223D01*
X3199Y10320D01*
X3135Y10404D01*
X3052Y10468D01*
X2954Y10508D01*
X2850Y10522D01*
X2746Y10508D01*
X2648Y10468D01*
X2565Y10404D01*
X2501Y10320D01*
X2460Y10223D01*
X2447Y10118D01*
X2460Y10014D01*
X2501Y9917D01*
X2560Y9839D01*
X2565Y9814D01*
X2564Y9782D01*
X2555Y9776D01*
X2292Y9513D01*
X2259Y9463D01*
X2247Y9405D01*
Y9043D01*
X2217Y9014D01*
X2163Y9018D01*
X2135Y9054D01*
X2052Y9118D01*
X1954Y9158D01*
X1850Y9172D01*
X1746Y9158D01*
X1648Y9118D01*
X1565Y9054D01*
X1501Y8970D01*
X1460Y8873D01*
X1447Y8768D01*
X1460Y8664D01*
X1501Y8567D01*
X1565Y8483D01*
X1648Y8419D01*
X1746Y8379D01*
X1850Y8365D01*
X1954Y8379D01*
X2052Y8419D01*
X2135Y8483D01*
X2199Y8567D01*
X2221Y8620D01*
X2259Y8627D01*
X2308Y8660D01*
X2508Y8860D01*
X2532Y8896D01*
X2579Y8911D01*
X2593Y8912D01*
X2648Y8869D01*
X2746Y8829D01*
X2850Y8815D01*
X2954Y8829D01*
X3052Y8869D01*
X3135Y8933D01*
X3199Y9017D01*
X3220Y9065D01*
X3511D01*
X3535Y9015D01*
X3501Y8970D01*
X3460Y8873D01*
X3447Y8768D01*
X3460Y8664D01*
X3501Y8567D01*
X3565Y8483D01*
X3648Y8419D01*
X3746Y8379D01*
X3850Y8365D01*
X3954Y8379D01*
X4052Y8419D01*
X4135Y8483D01*
X4199Y8567D01*
X4240Y8664D01*
X4253Y8768D01*
X4240Y8873D01*
X4199Y8970D01*
X4165Y9015D01*
X4189Y9065D01*
X4284D01*
X4343Y9077D01*
X4392Y9110D01*
X5174Y9892D01*
X6315D01*
Y9632D01*
X6750D01*
X7185D01*
Y9892D01*
X7737D01*
X7764Y9842D01*
X7743Y9811D01*
X7727Y9730D01*
X7743Y9649D01*
X7789Y9580D01*
Y9565D01*
X7743Y9496D01*
X7727Y9415D01*
X7743Y9334D01*
X7768Y9296D01*
X7786Y9257D01*
X7768Y9219D01*
X7743Y9181D01*
X7737Y9150D01*
X8176D01*
X8614D01*
X8608Y9181D01*
X8583Y9219D01*
X8565Y9257D01*
X8583Y9296D01*
X8608Y9334D01*
X8624Y9415D01*
X8608Y9496D01*
X8562Y9565D01*
Y9580D01*
X8608Y9649D01*
X8624Y9730D01*
X8608Y9811D01*
X8583Y9849D01*
X8565Y9887D01*
X8583Y9926D01*
X8608Y9964D01*
X8624Y10045D01*
X8608Y10126D01*
X8562Y10195D01*
Y10210D01*
X8608Y10279D01*
X8624Y10360D01*
X8608Y10441D01*
X8562Y10510D01*
Y10525D01*
X8608Y10594D01*
X8624Y10675D01*
X8608Y10756D01*
X8562Y10825D01*
X8493Y10871D01*
X8412Y10887D01*
X8180D01*
X6953Y12114D01*
Y17887D01*
X7523Y18457D01*
X7559Y18425D01*
D01*
X7560Y18424D01*
X7532Y18386D01*
X7512Y18361D01*
X7473Y18265D01*
X7459Y18161D01*
X7473Y18058D01*
X7512Y17962D01*
X7576Y17880D01*
X7658Y17816D01*
X7705Y17797D01*
Y12292D01*
X7716Y12233D01*
X7750Y12184D01*
X8613Y11320D01*
Y11088D01*
X8629Y11007D01*
X8675Y10938D01*
X8744Y10892D01*
X8825Y10876D01*
X8906Y10892D01*
X8937Y10913D01*
X8987Y10886D01*
Y9410D01*
X8999Y9351D01*
X9032Y9302D01*
X9169Y9165D01*
X9159Y9141D01*
X9147Y9050D01*
X9159Y8959D01*
X9194Y8873D01*
X9250Y8800D01*
X9323Y8744D01*
X9409Y8709D01*
X9500Y8697D01*
X9591Y8709D01*
X9677Y8744D01*
X9750Y8800D01*
X9806Y8873D01*
X9841Y8959D01*
X9853Y9050D01*
X9841Y9141D01*
X9806Y9227D01*
X9750Y9300D01*
X9677Y9356D01*
X9591Y9391D01*
X9500Y9403D01*
X9409Y9391D01*
X9385Y9381D01*
X9293Y9473D01*
Y10845D01*
X9343Y10874D01*
X9359Y10864D01*
Y10036D01*
X9371Y9978D01*
X9404Y9928D01*
X11960Y7372D01*
X11943Y7318D01*
X11894Y7308D01*
X11825Y7262D01*
X11810D01*
X11741Y7308D01*
X11660Y7324D01*
X11579Y7308D01*
X11510Y7262D01*
X11495D01*
X11426Y7308D01*
X11345Y7324D01*
X11264Y7308D01*
X11226Y7283D01*
X11187Y7265D01*
X11149Y7283D01*
X11111Y7308D01*
X11030Y7324D01*
X10949Y7308D01*
X10911Y7283D01*
X10872Y7265D01*
X10834Y7283D01*
X10796Y7308D01*
X10765Y7314D01*
Y6876D01*
X10665D01*
Y7314D01*
X10634Y7308D01*
X10565Y7262D01*
X10550D01*
X10481Y7308D01*
X10400Y7324D01*
X10319Y7308D01*
X10250Y7262D01*
X10235D01*
X10166Y7308D01*
X10135Y7314D01*
Y6876D01*
Y6437D01*
X10166Y6443D01*
X10197Y6464D01*
X10247Y6437D01*
Y6076D01*
X10088D01*
Y5324D01*
X10256D01*
X10263Y5287D01*
X10297Y5237D01*
X10519Y5015D01*
X10509Y4991D01*
X10497Y4900D01*
X10509Y4809D01*
X10544Y4723D01*
X10600Y4650D01*
X10673Y4594D01*
X10759Y4559D01*
X10850Y4547D01*
X10941Y4559D01*
X11027Y4594D01*
X11100Y4650D01*
X11156Y4723D01*
X11191Y4809D01*
X11203Y4900D01*
X11191Y4991D01*
X11156Y5077D01*
X11100Y5150D01*
X11027Y5206D01*
X10941Y5241D01*
X10850Y5253D01*
X10759Y5241D01*
X10735Y5231D01*
X10688Y5278D01*
X10707Y5324D01*
X10945D01*
Y5700D01*
X10995D01*
Y5750D01*
X11312D01*
Y5806D01*
X11358Y5825D01*
X11435Y5749D01*
Y5436D01*
X12028D01*
Y6010D01*
X11606D01*
X11258Y6358D01*
X11208Y6391D01*
X11150Y6403D01*
X11141D01*
X11125Y6453D01*
X11180Y6489D01*
X11195D01*
X11264Y6443D01*
X11345Y6427D01*
X11426Y6443D01*
X11495Y6489D01*
X11510D01*
X11579Y6443D01*
X11660Y6427D01*
X11741Y6443D01*
X11810Y6489D01*
X11825D01*
X11894Y6443D01*
X11952Y6432D01*
X12220Y6164D01*
Y5961D01*
X12096D01*
Y5485D01*
X12650D01*
Y5961D01*
X12526D01*
Y6227D01*
X12514Y6286D01*
X12481Y6335D01*
X12185Y6631D01*
X12187Y6639D01*
Y7074D01*
X12237Y7095D01*
X13885Y5447D01*
X13935Y5414D01*
X13993Y5402D01*
X19765D01*
X19785Y5356D01*
X19848Y5273D01*
X19931Y5210D01*
X19946Y5203D01*
X19936Y5153D01*
X19163D01*
Y5304D01*
X18688D01*
Y4749D01*
X18688D01*
X18688Y4731D01*
X18688D01*
Y4177D01*
X18688D01*
X18688Y4159D01*
X18688D01*
Y3604D01*
X18688D01*
X18688Y3586D01*
X18688D01*
Y3287D01*
X18619Y3219D01*
X18573Y3238D01*
Y3586D01*
X18573D01*
X18573Y3604D01*
X18573D01*
Y4127D01*
X18573Y4177D01*
X18573Y4209D01*
Y4731D01*
X18573D01*
X18573Y4749D01*
X18573D01*
Y5304D01*
X18097D01*
Y4749D01*
X18097D01*
X18097Y4731D01*
X18097D01*
Y4209D01*
X18097Y4159D01*
X18097Y4127D01*
Y4053D01*
X15867D01*
X15858Y4077D01*
X15801Y4150D01*
X15728Y4206D01*
X15643Y4241D01*
X15552Y4253D01*
X15460Y4241D01*
X15375Y4206D01*
X15302Y4150D01*
X15246Y4077D01*
X15211Y3991D01*
X15199Y3900D01*
X15211Y3809D01*
X15246Y3723D01*
X15302Y3650D01*
X15375Y3594D01*
X15460Y3559D01*
X15552Y3547D01*
X15643Y3559D01*
X15728Y3594D01*
X15801Y3650D01*
X15858Y3723D01*
X15867Y3747D01*
X18097D01*
Y3604D01*
X18097D01*
X18097Y3586D01*
X18097D01*
Y3032D01*
X18330D01*
X18355Y2982D01*
X18342Y2964D01*
X18028D01*
Y2371D01*
X18602D01*
Y2729D01*
X18608Y2733D01*
X18658Y2706D01*
Y2371D01*
X19232D01*
Y2515D01*
X19242D01*
X19301Y2526D01*
X19350Y2559D01*
X19688Y2897D01*
X19735Y2878D01*
Y2605D01*
X20080D01*
Y2950D01*
X19807D01*
X19788Y2997D01*
X19980Y3189D01*
X20027Y3170D01*
X20130Y3156D01*
X20233Y3170D01*
X20329Y3210D01*
X20412Y3273D01*
X20475Y3356D01*
X20515Y3452D01*
X20529Y3555D01*
X20515Y3658D01*
X20496Y3705D01*
X20601Y3810D01*
X20647Y3791D01*
Y2375D01*
X20571Y2299D01*
X20525Y2318D01*
Y2505D01*
X20180D01*
Y2160D01*
X20367D01*
X20386Y2114D01*
X19975Y1703D01*
X18110D01*
X18032Y1692D01*
X17959Y1662D01*
X17896Y1614D01*
X16234Y-49D01*
X16215Y-46D01*
X16112Y-60D01*
X16016Y-100D01*
X15933Y-163D01*
X15870Y-246D01*
X15830Y-342D01*
X15817Y-445D01*
X15819Y-463D01*
X15576Y-706D01*
X15538Y-673D01*
X15561Y-644D01*
X15600Y-548D01*
X15614Y-445D01*
X15600Y-342D01*
X15561Y-246D01*
X15497Y-163D01*
X15415Y-100D01*
X15319Y-60D01*
X15215Y-46D01*
X15162Y-53D01*
X14115Y994D01*
X14049Y1038D01*
X13970Y1054D01*
X9809D01*
X7104Y3759D01*
Y7041D01*
X7384Y7321D01*
X7897D01*
X7939Y7313D01*
X8412D01*
X8493Y7329D01*
X8562Y7375D01*
X8608Y7444D01*
X8624Y7525D01*
X8608Y7606D01*
X8562Y7675D01*
Y7690D01*
X8608Y7759D01*
X8624Y7840D01*
X8608Y7921D01*
X8562Y7990D01*
Y8005D01*
X8608Y8074D01*
X8624Y8155D01*
X8608Y8236D01*
X8583Y8274D01*
X8565Y8313D01*
X8583Y8351D01*
X8608Y8389D01*
X8624Y8470D01*
X8608Y8551D01*
X8562Y8620D01*
Y8635D01*
X8608Y8704D01*
X8624Y8785D01*
X8608Y8866D01*
X8562Y8935D01*
Y8950D01*
X8608Y9019D01*
X8614Y9050D01*
X8176D01*
X7737D01*
X7739Y9039D01*
X7708Y8989D01*
X7267D01*
X7189Y8973D01*
X7122Y8929D01*
X7028Y8835D01*
X6315D01*
Y8299D01*
X6250Y8250D01*
X6194Y8177D01*
X6159Y8091D01*
X6147Y8000D01*
X6159Y7909D01*
X6194Y7823D01*
X6250Y7750D01*
X6323Y7694D01*
X6409Y7659D01*
X6500Y7647D01*
X6591Y7659D01*
X6677Y7694D01*
X6714Y7723D01*
X6747Y7685D01*
X6456Y7394D01*
X6412Y7328D01*
X6396Y7250D01*
Y3550D01*
X6412Y3472D01*
X6456Y3406D01*
X6861Y3001D01*
X6839Y2951D01*
X6754Y2940D01*
X6658Y2900D01*
X6576Y2837D01*
X6512Y2754D01*
X6473Y2658D01*
X6459Y2555D01*
X6473Y2452D01*
X6512Y2356D01*
X6576Y2273D01*
X6658Y2210D01*
X6754Y2170D01*
X6858Y2156D01*
X6961Y2170D01*
X7057Y2210D01*
X7140Y2273D01*
X7203Y2356D01*
X7243Y2452D01*
X7254Y2537D01*
X7303Y2558D01*
X9958Y-97D01*
X9955Y-146D01*
X9933Y-163D01*
X9870Y-246D01*
X9830Y-342D01*
X9817Y-445D01*
X9830Y-548D01*
X9870Y-644D01*
X9933Y-727D01*
X10016Y-790D01*
X10112Y-830D01*
X10215Y-844D01*
X10319Y-830D01*
X10415Y-790D01*
X10497Y-727D01*
X10561Y-644D01*
X10600Y-548D01*
X10614Y-445D01*
X10600Y-342D01*
X10561Y-246D01*
X10497Y-163D01*
X10415Y-100D01*
X10404Y-95D01*
Y-50D01*
X10388Y28D01*
X10344Y94D01*
X9839Y600D01*
X9858Y646D01*
X13886D01*
X14843Y-311D01*
X14830Y-342D01*
X14817Y-445D01*
X14830Y-548D01*
X14870Y-644D01*
X14933Y-727D01*
X15016Y-790D01*
X15112Y-830D01*
X15215Y-844D01*
X15319Y-830D01*
X15415Y-790D01*
X15444Y-768D01*
X15477Y-806D01*
X15335Y-947D01*
X3430D01*
X3346Y-863D01*
X3374Y-821D01*
X3397Y-830D01*
X3500Y-844D01*
X3603Y-830D01*
X3699Y-790D01*
X3782Y-727D01*
X3845Y-644D01*
X3885Y-548D01*
X3899Y-445D01*
X3885Y-342D01*
X3845Y-246D01*
X3782Y-163D01*
X3699Y-100D01*
X3603Y-60D01*
X3500Y-46D01*
X3397Y-60D01*
X3301Y-100D01*
X3218Y-163D01*
X3155Y-246D01*
X3115Y-342D01*
X3101Y-445D01*
X3115Y-548D01*
X3124Y-570D01*
X3082Y-599D01*
X2895Y-412D01*
Y-50D01*
X2533D01*
X1803Y680D01*
Y4493D01*
X3878Y6569D01*
X3954Y6579D01*
X4052Y6619D01*
X4135Y6683D01*
X4199Y6767D01*
X4240Y6864D01*
X4253Y6968D01*
X4240Y7073D01*
X4199Y7170D01*
X4153Y7231D01*
Y7606D01*
X4199Y7667D01*
X4240Y7764D01*
X4253Y7868D01*
X4240Y7973D01*
X4199Y8070D01*
X4135Y8154D01*
X4052Y8218D01*
X3954Y8258D01*
X3850Y8272D01*
X3746Y8258D01*
X3648Y8218D01*
X3565Y8154D01*
X3501Y8070D01*
X3460Y7973D01*
X3447Y7868D01*
X3460Y7764D01*
X3501Y7667D01*
X3547Y7606D01*
Y7231D01*
X3501Y7170D01*
X3460Y7073D01*
X3450Y6996D01*
X1286Y4832D01*
X1238Y4770D01*
X1208Y4697D01*
X1197Y4618D01*
Y555D01*
X1208Y477D01*
X1238Y404D01*
X1286Y341D01*
X2105Y-478D01*
Y-840D01*
X2467D01*
X3091Y-1464D01*
X3154Y-1512D01*
X3227Y-1542D01*
X3305Y-1553D01*
X3305Y-1553D01*
X15460D01*
X15539Y-1542D01*
X15612Y-1512D01*
X15674Y-1464D01*
X16307Y-832D01*
X16319Y-830D01*
X16415Y-790D01*
X16497Y-727D01*
X16561Y-644D01*
X16600Y-548D01*
X16602Y-536D01*
X18236Y1097D01*
X19397D01*
X19403Y1047D01*
X19349Y1034D01*
X19191Y969D01*
X19046Y880D01*
X18916Y769D01*
X18805Y639D01*
X18716Y494D01*
X18651Y336D01*
X18611Y170D01*
X18597Y0D01*
X18611Y-170D01*
X18651Y-336D01*
X18716Y-494D01*
X18805Y-639D01*
X18916Y-769D01*
X19046Y-880D01*
X19191Y-969D01*
X19349Y-1034D01*
X19515Y-1074D01*
X19685Y-1088D01*
X19855Y-1074D01*
X20021Y-1034D01*
X20179Y-969D01*
X20324Y-880D01*
X20454Y-769D01*
X20565Y-639D01*
X20654Y-494D01*
X20719Y-336D01*
X20759Y-170D01*
X20773Y0D01*
X20759Y170D01*
X20719Y336D01*
X20654Y494D01*
X20565Y639D01*
X20454Y769D01*
X20324Y880D01*
X20179Y969D01*
X20021Y1034D01*
X19967Y1047D01*
X19973Y1097D01*
X20100D01*
X20178Y1108D01*
X20251Y1138D01*
X20314Y1186D01*
X21164Y2036D01*
X21164Y2036D01*
X21212Y2099D01*
X21242Y2172D01*
X21253Y2250D01*
X21253Y2250D01*
Y5973D01*
X21242Y6051D01*
X21212Y6124D01*
X21164Y6187D01*
X20710Y6641D01*
Y6905D01*
X20710D01*
Y6923D01*
X20710D01*
Y7674D01*
X20710D01*
Y7692D01*
X20710D01*
Y8444D01*
X20710D01*
Y8462D01*
X20710D01*
Y9331D01*
X20710D01*
Y9365D01*
X20710D01*
Y10235D01*
X20683D01*
Y11155D01*
X20775D01*
Y11945D01*
X19985D01*
Y11853D01*
X19672D01*
Y11857D01*
X19221D01*
X17876Y13202D01*
Y15395D01*
X17918Y15451D01*
X17958Y15547D01*
X17972Y15650D01*
X17958Y15753D01*
X17918Y15849D01*
X17876Y15905D01*
Y17766D01*
X17968D01*
Y18557D01*
X17178D01*
Y17766D01*
X17270D01*
Y15905D01*
X17228Y15849D01*
X17188Y15753D01*
X17174Y15650D01*
X17188Y15547D01*
X17228Y15451D01*
X17270Y15395D01*
Y13077D01*
X17281Y12999D01*
X17311Y12926D01*
X17359Y12863D01*
X18528Y11695D01*
Y11243D01*
X19672D01*
Y11247D01*
X19985D01*
Y11155D01*
X20077D01*
Y10235D01*
X20077D01*
Y9365D01*
X20077D01*
Y9331D01*
X20077D01*
Y8462D01*
X20035Y8444D01*
X19716D01*
X19647Y8512D01*
Y9331D01*
X19647D01*
Y9365D01*
X19647D01*
Y10235D01*
X19014D01*
Y9365D01*
X19014D01*
Y9331D01*
X19014D01*
Y8462D01*
X19143D01*
X19187Y8396D01*
X19487Y8096D01*
Y7692D01*
X19487D01*
Y7674D01*
X19487D01*
Y6923D01*
X19487D01*
Y6905D01*
X19487D01*
Y6795D01*
X19252D01*
Y6888D01*
X18884D01*
X18665Y7108D01*
X18615Y7141D01*
X18556Y7153D01*
X18363D01*
X18319Y7167D01*
X18319Y7203D01*
Y7355D01*
X18041D01*
X17764D01*
X17764Y7210D01*
X17714Y7182D01*
X17697Y7194D01*
Y7672D01*
X17103D01*
Y7194D01*
X17086Y7181D01*
X17036Y7207D01*
Y7643D01*
X16481D01*
Y7643D01*
X16463Y7643D01*
Y7643D01*
X15909D01*
Y7436D01*
X15863Y7417D01*
X15484Y7796D01*
X15503Y7842D01*
X15909D01*
Y7757D01*
X16431D01*
X16463Y7757D01*
X16513Y7757D01*
X17036D01*
Y7842D01*
X17103D01*
Y7728D01*
X17697D01*
Y7842D01*
X17764D01*
Y7757D01*
X18319D01*
Y8233D01*
X17764D01*
Y8148D01*
X17697D01*
Y8302D01*
X17103D01*
Y8148D01*
X17036D01*
Y8233D01*
X16513D01*
X16481Y8233D01*
X16431Y8233D01*
X15909D01*
Y8148D01*
X15132D01*
X14335Y8945D01*
Y9535D01*
X14222D01*
Y10354D01*
X16877D01*
Y14746D01*
X13173D01*
Y10354D01*
X13815D01*
Y9535D01*
X13702D01*
Y9304D01*
X13092D01*
X13061Y9354D01*
X13073Y9415D01*
X13057Y9496D01*
X13011Y9565D01*
Y9580D01*
X13057Y9649D01*
X13073Y9730D01*
X13057Y9811D01*
X13032Y9849D01*
X13014Y9887D01*
X13032Y9926D01*
X13057Y9964D01*
X13073Y10045D01*
X13057Y10126D01*
X13011Y10195D01*
Y10210D01*
X13057Y10279D01*
X13073Y10360D01*
X13057Y10441D01*
X13011Y10510D01*
Y10525D01*
X13057Y10594D01*
X13073Y10675D01*
X13057Y10756D01*
X13011Y10825D01*
X12942Y10871D01*
X12861Y10887D01*
X12777D01*
Y17507D01*
X13066Y17796D01*
X13112Y17776D01*
X13215Y17763D01*
X13319Y17776D01*
X13415Y17816D01*
X13497Y17880D01*
X13561Y17962D01*
X13600Y18058D01*
X13614Y18161D01*
X13600Y18265D01*
X13561Y18361D01*
X13497Y18443D01*
X13415Y18507D01*
X13319Y18547D01*
X13215Y18560D01*
X13112Y18547D01*
X13016Y18507D01*
X12933Y18443D01*
X12870Y18361D01*
X12830Y18265D01*
X12817Y18161D01*
X12830Y18058D01*
X12849Y18012D01*
X12516Y17679D01*
X12483Y17629D01*
X12471Y17570D01*
Y10887D01*
X12411D01*
X12398Y10900D01*
X12376Y10932D01*
X12376Y10932D01*
X12386Y10981D01*
Y14767D01*
X12374Y14825D01*
X12341Y14875D01*
X9500Y17716D01*
X9521Y17766D01*
X9808D01*
Y18111D01*
X9462D01*
Y17825D01*
X9412Y17804D01*
X9218Y17998D01*
X9243Y18058D01*
X9256Y18161D01*
X9243Y18265D01*
X9203Y18361D01*
X9140Y18443D01*
X9057Y18507D01*
X8961Y18547D01*
X8858Y18560D01*
X8754Y18547D01*
X8658Y18507D01*
X8576Y18443D01*
X8512Y18361D01*
X8473Y18265D01*
X8459Y18161D01*
X8473Y18058D01*
X8512Y17962D01*
X8576Y17880D01*
X8658Y17816D01*
X8754Y17776D01*
X8858Y17763D01*
X8961Y17776D01*
X8994Y17790D01*
X12080Y14704D01*
Y13084D01*
X12034Y13065D01*
X10187Y14912D01*
X10199Y15000D01*
X10185Y15103D01*
X10145Y15199D01*
X10082Y15282D01*
X9999Y15345D01*
X9903Y15385D01*
X9800Y15399D01*
X9697Y15385D01*
X9601Y15345D01*
X9547Y15304D01*
X9535Y15304D01*
X9486Y15319D01*
X9463Y15353D01*
X9195Y15621D01*
Y16395D01*
X8405D01*
Y15605D01*
X8779D01*
X8974Y15410D01*
X8945Y15368D01*
X8903Y15385D01*
X8800Y15399D01*
X8697Y15385D01*
X8601Y15345D01*
X8518Y15282D01*
X8455Y15199D01*
X8415Y15103D01*
X8401Y15000D01*
X8415Y14897D01*
X8455Y14801D01*
X8518Y14718D01*
X8601Y14655D01*
X8697Y14615D01*
X8800Y14601D01*
X8903Y14615D01*
X8950Y14634D01*
X9202Y14382D01*
Y14194D01*
X9152Y14184D01*
X9145Y14199D01*
X9082Y14282D01*
X8999Y14345D01*
X8903Y14385D01*
X8800Y14399D01*
X8697Y14385D01*
X8601Y14345D01*
X8518Y14282D01*
X8455Y14199D01*
X8415Y14103D01*
X8401Y14000D01*
X8415Y13897D01*
X8455Y13801D01*
X8518Y13718D01*
X8601Y13655D01*
X8647Y13636D01*
Y12933D01*
X8659Y12874D01*
X8692Y12824D01*
X8766Y12751D01*
Y12452D01*
X9320D01*
X9338Y12410D01*
Y12380D01*
X9320Y12337D01*
X9288Y12337D01*
X9093D01*
Y12099D01*
Y11861D01*
X9320D01*
Y11932D01*
X9338Y11974D01*
X9370Y11974D01*
X9605D01*
Y12350D01*
Y12726D01*
X9338D01*
X9320Y12768D01*
Y12928D01*
X9021D01*
X8953Y12996D01*
Y13565D01*
X8999Y13585D01*
X9392Y13192D01*
X9441Y13159D01*
X9500Y13147D01*
X10237D01*
X10873Y12511D01*
Y11766D01*
X10823Y11739D01*
X10796Y11757D01*
X10765Y11763D01*
Y11324D01*
Y10886D01*
X10796Y10892D01*
X10865Y10938D01*
X10880D01*
X10949Y10892D01*
X11030Y10876D01*
X11111Y10892D01*
X11180Y10938D01*
X11195D01*
X11264Y10892D01*
X11345Y10876D01*
X11426Y10892D01*
X11495Y10938D01*
X11510D01*
X11579Y10892D01*
X11660Y10876D01*
X11741Y10892D01*
X11810Y10938D01*
X11825D01*
X11894Y10892D01*
X11905Y10839D01*
X11897Y10798D01*
Y10450D01*
X11909Y10391D01*
X11942Y10342D01*
X12032Y10252D01*
X12082Y10219D01*
X12140Y10207D01*
X12186D01*
X12213Y10157D01*
X12192Y10126D01*
X12176Y10045D01*
X12192Y9964D01*
X12217Y9926D01*
X12235Y9887D01*
X12217Y9849D01*
X12192Y9811D01*
X12176Y9730D01*
X12192Y9649D01*
X12238Y9580D01*
Y9565D01*
X12192Y9496D01*
X12176Y9415D01*
X12192Y9334D01*
X12217Y9296D01*
X12235Y9257D01*
X12217Y9219D01*
X12192Y9181D01*
X12176Y9100D01*
X12192Y9019D01*
X12238Y8950D01*
Y8935D01*
X12192Y8866D01*
X12186Y8835D01*
X12624D01*
X13063D01*
X13061Y8846D01*
X13092Y8896D01*
X13702D01*
Y8665D01*
X14182D01*
X14960Y7887D01*
X15956Y6892D01*
X16005Y6859D01*
X16064Y6847D01*
X18048D01*
Y6295D01*
X18182D01*
Y6227D01*
X18097D01*
Y5708D01*
X14056D01*
X12498Y7267D01*
X12517Y7313D01*
X12861D01*
X12942Y7329D01*
X13011Y7375D01*
X13057Y7444D01*
X13073Y7525D01*
X13057Y7606D01*
X13011Y7675D01*
Y7690D01*
X13057Y7759D01*
X13073Y7840D01*
X13057Y7921D01*
X13011Y7990D01*
Y8005D01*
X13057Y8074D01*
X13073Y8155D01*
X13057Y8236D01*
X13032Y8274D01*
X13014Y8313D01*
X13032Y8351D01*
X13057Y8389D01*
X13073Y8470D01*
X13057Y8551D01*
X13011Y8620D01*
Y8635D01*
X13057Y8704D01*
X13063Y8735D01*
X12624D01*
X12186D01*
X12192Y8704D01*
X12238Y8635D01*
Y8620D01*
X12192Y8551D01*
X12176Y8470D01*
X12192Y8389D01*
X12217Y8351D01*
X12235Y8313D01*
X12217Y8274D01*
X12192Y8236D01*
X12176Y8155D01*
X12192Y8074D01*
X12238Y8005D01*
Y7990D01*
X12192Y7921D01*
X12176Y7840D01*
X12192Y7759D01*
X12238Y7690D01*
Y7675D01*
X12207Y7628D01*
X12147Y7617D01*
X9665Y10100D01*
Y10853D01*
X9715Y10887D01*
X9770Y10876D01*
X9851Y10892D01*
X9920Y10938D01*
X9935D01*
X10004Y10892D01*
X10085Y10876D01*
X10166Y10892D01*
X10197Y10913D01*
X10247Y10886D01*
Y10665D01*
X10223Y10656D01*
X10150Y10600D01*
X10094Y10527D01*
X10059Y10441D01*
X10047Y10350D01*
X10059Y10259D01*
X10094Y10173D01*
X10150Y10100D01*
X10223Y10044D01*
X10309Y10009D01*
X10400Y9997D01*
X10491Y10009D01*
X10577Y10044D01*
X10650Y10100D01*
X10706Y10173D01*
X10741Y10259D01*
X10753Y10350D01*
X10741Y10441D01*
X10706Y10527D01*
X10650Y10600D01*
X10577Y10656D01*
X10553Y10665D01*
Y10886D01*
X10603Y10913D01*
X10634Y10892D01*
X10665Y10886D01*
Y11324D01*
Y11763D01*
X10634Y11757D01*
X10603Y11736D01*
X10553Y11763D01*
Y11974D01*
X10562D01*
Y12726D01*
X9705D01*
Y12350D01*
Y11974D01*
X10247D01*
Y11763D01*
X10197Y11736D01*
X10166Y11757D01*
X10085Y11773D01*
X10004Y11757D01*
X9935Y11711D01*
X9920D01*
X9851Y11757D01*
X9770Y11773D01*
X9689Y11757D01*
X9620Y11711D01*
X9605D01*
X9536Y11757D01*
X9455Y11773D01*
X9374Y11757D01*
X9305Y11711D01*
X9290D01*
X9221Y11757D01*
X9140Y11773D01*
X9059Y11757D01*
X8990Y11711D01*
X8975D01*
X8906Y11757D01*
X8825Y11773D01*
X8744Y11757D01*
X8675Y11711D01*
X8657Y11709D01*
X8011Y12355D01*
Y17797D01*
X8057Y17816D01*
X8140Y17880D01*
X8203Y17962D01*
X8243Y18058D01*
X8256Y18161D01*
X8243Y18265D01*
X8203Y18361D01*
X8140Y18443D01*
X8057Y18507D01*
X7961Y18547D01*
X7858Y18560D01*
X7754Y18547D01*
X7658Y18507D01*
X7633Y18487D01*
X7595Y18459D01*
X7594Y18460D01*
D01*
X7590Y18465D01*
X7562Y18496D01*
X7713Y18647D01*
X11513D01*
X11849Y18311D01*
X11830Y18265D01*
X11817Y18161D01*
X11830Y18058D01*
X11870Y17962D01*
X11933Y17880D01*
X12016Y17816D01*
X12112Y17776D01*
X12215Y17763D01*
X12319Y17776D01*
X12415Y17816D01*
X12497Y17880D01*
X12561Y17962D01*
X12600Y18058D01*
X12614Y18161D01*
X12600Y18265D01*
X12561Y18361D01*
X12497Y18443D01*
X12415Y18507D01*
X12319Y18547D01*
X12215Y18560D01*
X12112Y18547D01*
X12066Y18527D01*
X11685Y18908D01*
X11635Y18941D01*
X11577Y18953D01*
D02*
G37*
G36*
X4500Y18560D02*
X4397Y18547D01*
X4301Y18507D01*
X4218Y18443D01*
X4155Y18361D01*
X4115Y18265D01*
X4101Y18161D01*
X4115Y18058D01*
X4155Y17962D01*
X4218Y17880D01*
X4301Y17816D01*
X4397Y17776D01*
X4500Y17763D01*
X4603Y17776D01*
X4699Y17816D01*
X4782Y17880D01*
X4845Y17962D01*
X4885Y18058D01*
X4899Y18161D01*
X4885Y18265D01*
X4845Y18361D01*
X4782Y18443D01*
X4699Y18507D01*
X4603Y18547D01*
X4500Y18560D01*
D02*
G37*
G36*
X19685Y18804D02*
X19515Y18791D01*
X19349Y18751D01*
X19191Y18686D01*
X19046Y18596D01*
X18916Y18486D01*
X18805Y18356D01*
X18716Y18210D01*
X18651Y18053D01*
X18611Y17887D01*
X18597Y17717D01*
X18611Y17546D01*
X18651Y17380D01*
X18716Y17223D01*
X18805Y17077D01*
X18916Y16947D01*
X19046Y16837D01*
X19191Y16747D01*
X19349Y16682D01*
X19515Y16642D01*
X19685Y16629D01*
X19855Y16642D01*
X20021Y16682D01*
X20179Y16747D01*
X20324Y16837D01*
X20454Y16947D01*
X20565Y17077D01*
X20654Y17223D01*
X20719Y17380D01*
X20759Y17546D01*
X20773Y17717D01*
X20759Y17887D01*
X20719Y18053D01*
X20654Y18210D01*
X20565Y18356D01*
X20454Y18486D01*
X20324Y18596D01*
X20179Y18686D01*
X20021Y18751D01*
X19855Y18791D01*
X19685Y18804D01*
D02*
G37*
G36*
X9750Y16392D02*
X9697Y16385D01*
X9601Y16345D01*
X9518Y16282D01*
X9455Y16199D01*
X9415Y16103D01*
X9408Y16050D01*
X9750D01*
Y16392D01*
D02*
G37*
G36*
X10192Y15950D02*
X9850D01*
Y15608D01*
X9903Y15615D01*
X9999Y15655D01*
X10082Y15718D01*
X10145Y15801D01*
X10185Y15897D01*
X10192Y15950D01*
D02*
G37*
G36*
X0Y18804D02*
X-170Y18791D01*
X-336Y18751D01*
X-494Y18686D01*
X-639Y18596D01*
X-769Y18486D01*
X-880Y18356D01*
X-969Y18210D01*
X-1034Y18053D01*
X-1074Y17887D01*
X-1088Y17717D01*
X-1074Y17546D01*
X-1034Y17380D01*
X-969Y17223D01*
X-880Y17077D01*
X-769Y16947D01*
X-639Y16837D01*
X-494Y16747D01*
X-336Y16682D01*
X-170Y16642D01*
X0Y16629D01*
X170Y16642D01*
X336Y16682D01*
X494Y16747D01*
X639Y16837D01*
X769Y16947D01*
X880Y17077D01*
X969Y17223D01*
X1034Y17380D01*
X1074Y17546D01*
X1088Y17717D01*
X1074Y17887D01*
X1034Y18053D01*
X969Y18210D01*
X880Y18356D01*
X769Y18486D01*
X639Y18596D01*
X494Y18686D01*
X336Y18751D01*
X170Y18791D01*
X0Y18804D01*
D02*
G37*
G36*
X9850Y16392D02*
Y16050D01*
X10192D01*
X10185Y16103D01*
X10145Y16199D01*
X10082Y16282D01*
X9999Y16345D01*
X9903Y16385D01*
X9850Y16392D01*
D02*
G37*
G36*
X9808Y18557D02*
X9462D01*
Y18211D01*
X9808D01*
Y18557D01*
D02*
G37*
G36*
X14165D02*
X13820D01*
Y18211D01*
X14165D01*
Y18557D01*
D02*
G37*
G36*
X10253D02*
X9908D01*
Y18211D01*
X10253D01*
Y18557D01*
D02*
G37*
G36*
X14611D02*
X14265D01*
Y18211D01*
X14611D01*
Y18557D01*
D02*
G37*
G36*
Y18111D02*
X14265D01*
Y17766D01*
X14611D01*
Y18111D01*
D02*
G37*
G36*
X5895Y18557D02*
X5105D01*
Y17766D01*
X5895D01*
Y18557D01*
D02*
G37*
G36*
X16573Y18560D02*
X16470Y18547D01*
X16374Y18507D01*
X16291Y18443D01*
X16228Y18361D01*
X16188Y18265D01*
X16174Y18161D01*
X16188Y18058D01*
X16228Y17962D01*
X16291Y17880D01*
X16374Y17816D01*
X16470Y17776D01*
X16573Y17763D01*
X16676Y17776D01*
X16772Y17816D01*
X16855Y17880D01*
X16918Y17962D01*
X16958Y18058D01*
X16972Y18161D01*
X16958Y18265D01*
X16918Y18361D01*
X16855Y18443D01*
X16772Y18507D01*
X16676Y18547D01*
X16573Y18560D01*
D02*
G37*
G36*
X14165Y18111D02*
X13820D01*
Y17766D01*
X14165D01*
Y18111D01*
D02*
G37*
G36*
X10253D02*
X9908D01*
Y17766D01*
X10253D01*
Y18111D01*
D02*
G37*
G36*
X9750Y15950D02*
X9408D01*
X9415Y15897D01*
X9455Y15801D01*
X9518Y15718D01*
X9601Y15655D01*
X9697Y15615D01*
X9750Y15608D01*
Y15950D01*
D02*
G37*
G36*
X2850Y11422D02*
X2746Y11408D01*
X2648Y11368D01*
X2565Y11304D01*
X2501Y11220D01*
X2460Y11123D01*
X2447Y11018D01*
X2460Y10914D01*
X2501Y10817D01*
X2565Y10733D01*
X2648Y10669D01*
X2746Y10629D01*
X2850Y10615D01*
X2954Y10629D01*
X3052Y10669D01*
X3135Y10733D01*
X3199Y10817D01*
X3240Y10914D01*
X3253Y11018D01*
X3240Y11123D01*
X3199Y11220D01*
X3135Y11304D01*
X3052Y11368D01*
X2954Y11408D01*
X2850Y11422D01*
D02*
G37*
G36*
X1850Y10972D02*
X1746Y10958D01*
X1648Y10918D01*
X1565Y10854D01*
X1501Y10770D01*
X1460Y10673D01*
X1447Y10568D01*
X1460Y10464D01*
X1501Y10367D01*
X1565Y10283D01*
X1648Y10219D01*
X1746Y10179D01*
X1850Y10165D01*
X1954Y10179D01*
X2052Y10219D01*
X2135Y10283D01*
X2199Y10367D01*
X2240Y10464D01*
X2253Y10568D01*
X2240Y10673D01*
X2199Y10770D01*
X2135Y10854D01*
X2052Y10918D01*
X1954Y10958D01*
X1850Y10972D01*
D02*
G37*
G36*
X8993Y12337D02*
X8766D01*
Y12149D01*
X8993D01*
Y12337D01*
D02*
G37*
G36*
Y12049D02*
X8766D01*
Y11861D01*
X8993D01*
Y12049D01*
D02*
G37*
G36*
X7185Y9531D02*
X6800D01*
Y9265D01*
X7185D01*
Y9531D01*
D02*
G37*
G36*
X15398Y9535D02*
X15131D01*
Y9150D01*
X15398D01*
Y9535D01*
D02*
G37*
G36*
X15031D02*
X14765D01*
Y9150D01*
X15031D01*
Y9535D01*
D02*
G37*
G36*
X6700Y9531D02*
X6315D01*
Y9265D01*
X6700D01*
Y9531D01*
D02*
G37*
G36*
X1850Y10072D02*
X1746Y10058D01*
X1648Y10018D01*
X1565Y9954D01*
X1501Y9870D01*
X1460Y9773D01*
X1447Y9668D01*
X1460Y9564D01*
X1501Y9467D01*
X1565Y9383D01*
X1648Y9319D01*
X1746Y9279D01*
X1850Y9265D01*
X1954Y9279D01*
X2052Y9319D01*
X2135Y9383D01*
X2199Y9467D01*
X2240Y9564D01*
X2253Y9668D01*
X2240Y9773D01*
X2199Y9870D01*
X2135Y9954D01*
X2052Y10018D01*
X1954Y10058D01*
X1850Y10072D01*
D02*
G37*
G36*
X16573Y16049D02*
X16470Y16035D01*
X16374Y15995D01*
X16291Y15932D01*
X16228Y15849D01*
X16188Y15753D01*
X16174Y15650D01*
X16188Y15547D01*
X16228Y15451D01*
X16291Y15368D01*
X16374Y15305D01*
X16470Y15265D01*
X16573Y15251D01*
X16676Y15265D01*
X16772Y15305D01*
X16855Y15368D01*
X16918Y15451D01*
X16958Y15547D01*
X16972Y15650D01*
X16958Y15753D01*
X16918Y15849D01*
X16855Y15932D01*
X16772Y15995D01*
X16676Y16035D01*
X16573Y16049D01*
D02*
G37*
G36*
X19672Y13857D02*
X19150D01*
Y13600D01*
X19672D01*
Y13857D01*
D02*
G37*
G36*
X19968Y16045D02*
X19178D01*
Y15255D01*
X19968D01*
Y16045D01*
D02*
G37*
G36*
X18573Y16049D02*
X18470Y16035D01*
X18374Y15995D01*
X18291Y15932D01*
X18228Y15849D01*
X18188Y15753D01*
X18174Y15650D01*
X18188Y15547D01*
X18228Y15451D01*
X18291Y15368D01*
X18374Y15305D01*
X18470Y15265D01*
X18573Y15251D01*
X18676Y15265D01*
X18772Y15305D01*
X18855Y15368D01*
X18918Y15451D01*
X18958Y15547D01*
X18972Y15650D01*
X18958Y15753D01*
X18918Y15849D01*
X18855Y15932D01*
X18772Y15995D01*
X18676Y16035D01*
X18573Y16049D01*
D02*
G37*
G36*
X19050Y13857D02*
X18528D01*
Y13600D01*
X19050D01*
Y13857D01*
D02*
G37*
G36*
X2850Y14682D02*
X2676Y14664D01*
X2509Y14614D01*
X2355Y14531D01*
X2219Y14420D01*
X2109Y14285D01*
X2026Y14131D01*
X1975Y13964D01*
X1958Y13790D01*
X1975Y13616D01*
X2026Y13449D01*
X2109Y13295D01*
X2219Y13159D01*
X2355Y13049D01*
X2509Y12966D01*
X2676Y12915D01*
X2850Y12898D01*
X3024Y12915D01*
X3191Y12966D01*
X3345Y13049D01*
X3481Y13159D01*
X3591Y13295D01*
X3674Y13449D01*
X3725Y13616D01*
X3742Y13790D01*
X3725Y13964D01*
X3674Y14131D01*
X3591Y14285D01*
X3481Y14420D01*
X3345Y14531D01*
X3191Y14614D01*
X3024Y14664D01*
X2850Y14682D01*
D02*
G37*
G36*
X20380Y12949D02*
X20277Y12935D01*
X20181Y12895D01*
X20098Y12832D01*
X20035Y12749D01*
X19995Y12653D01*
X19981Y12550D01*
X19995Y12447D01*
X20035Y12351D01*
X20098Y12268D01*
X20181Y12205D01*
X20277Y12165D01*
X20380Y12151D01*
X20483Y12165D01*
X20579Y12205D01*
X20662Y12268D01*
X20725Y12351D01*
X20765Y12447D01*
X20779Y12550D01*
X20765Y12653D01*
X20725Y12749D01*
X20662Y12832D01*
X20579Y12895D01*
X20483Y12935D01*
X20380Y12949D01*
D02*
G37*
G36*
X19672Y13500D02*
X19150D01*
Y13243D01*
X19672D01*
Y13500D01*
D02*
G37*
G36*
X19050D02*
X18528D01*
Y13243D01*
X19050D01*
Y13500D01*
D02*
G37*
%LPD*%
D10*
X19803Y6529D02*
D03*
X20394D02*
D03*
X19803Y8068D02*
D03*
X20394D02*
D03*
X19803Y7299D02*
D03*
X20394D02*
D03*
X9655Y12350D02*
D03*
X10245D02*
D03*
X10995Y5700D02*
D03*
X10405D02*
D03*
D11*
X16759Y7995D02*
D03*
Y7405D02*
D03*
X18041Y7405D02*
D03*
Y7995D02*
D03*
X16186Y7405D02*
D03*
Y7995D02*
D03*
X9043Y12099D02*
D03*
Y12690D02*
D03*
X12373Y5723D02*
D03*
Y5133D02*
D03*
D12*
X17400Y8015D02*
D03*
Y7385D02*
D03*
X11731Y5723D02*
D03*
Y5093D02*
D03*
D13*
X20394Y9800D02*
D03*
X19331D02*
D03*
X20394Y8896D02*
D03*
X19331D02*
D03*
X15081Y9100D02*
D03*
X14018D02*
D03*
D14*
X6750Y9582D02*
D03*
Y8518D02*
D03*
D15*
X15025Y12550D02*
D03*
D16*
X19100Y13550D02*
D03*
Y11550D02*
D03*
D17*
X18945Y2668D02*
D03*
X18315D02*
D03*
X18965Y6591D02*
D03*
X18335D02*
D03*
D18*
X18926Y5027D02*
D03*
X18335D02*
D03*
X18335Y3309D02*
D03*
X18926D02*
D03*
X18926Y5950D02*
D03*
X18335D02*
D03*
X18335Y4454D02*
D03*
X18926D02*
D03*
X18926Y3882D02*
D03*
X18335D02*
D03*
D19*
X11975Y11324D02*
D03*
X11660D02*
D03*
X11345D02*
D03*
X11030D02*
D03*
X10715D02*
D03*
X10400D02*
D03*
X10085D02*
D03*
X9770D02*
D03*
X9455D02*
D03*
X9140D02*
D03*
X8825D02*
D03*
Y6876D02*
D03*
X9140D02*
D03*
X9455D02*
D03*
X9770D02*
D03*
X10085D02*
D03*
X10400D02*
D03*
X10715D02*
D03*
X11030D02*
D03*
X11345D02*
D03*
X11660D02*
D03*
X11975D02*
D03*
D20*
X8176Y10675D02*
D03*
Y10360D02*
D03*
Y10045D02*
D03*
Y9730D02*
D03*
Y9415D02*
D03*
Y9100D02*
D03*
Y8785D02*
D03*
Y8470D02*
D03*
Y8155D02*
D03*
Y7840D02*
D03*
Y7525D02*
D03*
X12624D02*
D03*
Y7840D02*
D03*
Y8155D02*
D03*
Y8470D02*
D03*
Y8785D02*
D03*
Y9100D02*
D03*
Y9415D02*
D03*
Y9730D02*
D03*
Y10045D02*
D03*
Y10360D02*
D03*
Y10675D02*
D03*
D21*
X14018Y11543D02*
X15025Y12550D01*
X7000Y8518D02*
X7267Y8785D01*
X6750Y8518D02*
X7000D01*
X7267Y8785D02*
X8176D01*
X10200Y-380D02*
X10265Y-445D01*
X13970Y850D02*
X15265Y-445D01*
X14018Y9100D02*
Y11543D01*
X19741Y6591D02*
X19803Y6529D01*
X18965Y6591D02*
X19741D01*
X19803Y7299D02*
Y8068D01*
Y6529D02*
Y7299D01*
X19331Y8540D02*
X19803Y8068D01*
X19331Y8540D02*
Y8896D01*
X12624Y9100D02*
X14018D01*
X8169Y7833D02*
X8176Y7840D01*
X8825Y3945D02*
Y6876D01*
X6600Y7250D02*
X7183Y7833D01*
X8169D01*
X7299Y7525D02*
X8176D01*
X6900Y7126D02*
X7299Y7525D01*
X8825Y3945D02*
X10215Y2555D01*
X6900Y3674D02*
Y7126D01*
Y3674D02*
X9724Y850D01*
X13970D01*
X9140Y5410D02*
Y6876D01*
Y5410D02*
X10400Y4150D01*
X13620D01*
X15215Y2555D01*
X6600Y3550D02*
Y7250D01*
X10200Y-380D02*
Y-50D01*
X6600Y3550D02*
X10200Y-50D01*
D22*
X11650Y5750D02*
X11750D01*
X4036Y10118D02*
X4278Y10360D01*
X2850Y9218D02*
X4284D01*
X5111Y10045D02*
X8176D01*
X4284Y9218D02*
X5111Y10045D01*
X11026Y11324D02*
Y12574D01*
X16759Y7995D02*
X18041D01*
X6750Y8250D02*
Y8518D01*
X1850Y8768D02*
X2200D01*
X2400Y8968D01*
Y9405D01*
X2664Y9668D01*
X3100D01*
X3550Y10118D01*
X4036D01*
X6500Y8000D02*
X6750Y8250D01*
X4278Y10360D02*
X8176D01*
X9140Y9410D02*
Y11324D01*
Y9410D02*
X9500Y9050D01*
X18556Y7000D02*
X18965Y6591D01*
X17150Y7000D02*
X18556D01*
X18041Y7995D02*
X18041Y7995D01*
X15068D02*
X16064Y7000D01*
X14018Y9045D02*
X15068Y7995D01*
X16186D01*
X16759Y7405D02*
X16759Y7405D01*
X16186Y7405D02*
X16759D01*
X14018Y9045D02*
Y9100D01*
X16064Y7000D02*
X17150D01*
X17400Y7250D01*
Y7385D01*
X12624Y17570D02*
X13215Y18161D01*
X12624Y10675D02*
Y17570D01*
X7858Y12292D02*
Y18161D01*
Y12292D02*
X8825Y11324D01*
X12140Y10360D02*
X12624D01*
X12050Y10450D02*
X12140Y10360D01*
X12050Y10450D02*
Y10798D01*
X11577Y18800D02*
X12215Y18161D01*
X7650Y18800D02*
X11577D01*
X12050Y10798D02*
X12233Y10981D01*
X11026Y11324D02*
X11030D01*
X8800Y14000D02*
X9500Y13300D01*
X10300D01*
X11026Y12574D01*
X9355Y13728D02*
X9583Y13500D01*
X10383D01*
X11345Y12538D01*
Y11324D02*
Y12538D01*
X9355Y13728D02*
Y14445D01*
X8800Y15000D02*
X9355Y14445D01*
X8800Y15800D02*
Y16000D01*
Y15800D02*
X9355Y15245D01*
Y14816D02*
Y15245D01*
Y14816D02*
X9616Y14555D01*
X10045D01*
X11660Y12940D01*
Y11324D02*
Y12940D01*
X9800Y15000D02*
X9883D01*
X11975Y12908D01*
Y11324D02*
Y12908D01*
X10400Y11324D02*
Y12195D01*
X10245Y12350D02*
X10400Y12195D01*
X6800Y12050D02*
X8176Y10675D01*
X6800Y12050D02*
Y17950D01*
X7650Y18800D01*
X10343Y6932D02*
X10400Y6876D01*
X12568Y9157D02*
X12624Y9100D01*
X9455Y11324D02*
X9512Y11268D01*
Y10036D02*
Y11268D01*
X13993Y5555D02*
X20130D01*
X9512Y10036D02*
X13993Y5555D01*
X11975Y6625D02*
Y6876D01*
Y6625D02*
X12373Y6227D01*
Y5723D02*
Y6227D01*
X11150Y6250D02*
X11650Y5750D01*
X10400Y5850D02*
Y6876D01*
Y5850D02*
X10800Y6250D01*
X11150D01*
X11783Y5133D02*
X12373D01*
X11750Y5100D02*
X11783Y5133D01*
X18335Y5950D02*
Y6591D01*
X18926Y5950D02*
X19735D01*
X20130Y5555D01*
X8800Y12933D02*
Y14000D01*
Y12933D02*
X9043Y12690D01*
X18335Y4454D02*
Y5027D01*
Y4454D02*
X18335Y4454D01*
X18926Y3882D02*
Y4454D01*
X18926Y3882D02*
X18926Y3882D01*
X19027Y4555D02*
X20130D01*
X18926Y4454D02*
X19027Y4555D01*
X18315Y2699D02*
X18926Y3309D01*
X18315Y2668D02*
Y2699D01*
X18335Y3309D02*
Y3882D01*
X18335Y3882D02*
X18335Y3882D01*
X18926Y5027D02*
X18952Y5000D01*
X20314D01*
X20575Y4740D01*
X20130Y3555D02*
X20575Y4000D01*
Y4740D01*
X18945Y2668D02*
X19242D01*
X20130Y3555D01*
X15552Y3900D02*
X18317D01*
X18335Y3882D01*
X10405Y5345D02*
Y5700D01*
Y5345D02*
X10850Y4900D01*
X10400Y10350D02*
Y11324D01*
X10400Y10350D02*
X10400Y10350D01*
X12233Y10981D02*
Y14767D01*
X8858Y18142D02*
Y18161D01*
Y18142D02*
X12233Y14767D01*
D23*
X15460Y-1250D02*
X18110Y1400D01*
X3850Y6968D02*
Y7868D01*
X1500Y4618D02*
X3850Y6968D01*
X1500Y555D02*
Y4618D01*
X20380Y9814D02*
X20394Y9800D01*
X20380Y9814D02*
Y11550D01*
X19100D02*
X20380D01*
X17573Y13077D02*
X19100Y11550D01*
X17573Y13077D02*
Y15650D01*
Y18161D01*
X19331Y8896D02*
Y9800D01*
X20394Y8896D02*
Y9800D01*
Y8068D02*
Y8896D01*
Y7299D02*
Y8068D01*
Y6529D02*
Y7299D01*
X20950Y2250D02*
Y5973D01*
X20394Y6529D02*
X20950Y5973D01*
X1500Y555D02*
X2500Y-445D01*
X3305Y-1250D01*
X15460D01*
X18110Y1400D02*
X20100D01*
X20950Y2250D01*
D24*
X2850Y13790D02*
D03*
Y3747D02*
D03*
D25*
X3850Y10568D02*
D03*
Y8768D02*
D03*
Y9668D02*
D03*
Y7868D02*
D03*
Y6968D02*
D03*
X2850Y7418D02*
D03*
Y8318D02*
D03*
Y10118D02*
D03*
Y9218D02*
D03*
Y11018D02*
D03*
X1850Y6968D02*
D03*
Y7868D02*
D03*
Y9668D02*
D03*
Y8768D02*
D03*
Y10568D02*
D03*
D26*
X16573Y15650D02*
D03*
X17573D02*
D03*
X18573D02*
D03*
X20380Y12550D02*
D03*
X20130Y3555D02*
D03*
Y4555D02*
D03*
Y5555D02*
D03*
X4500Y-445D02*
D03*
X3500D02*
D03*
X16215D02*
D03*
X15215D02*
D03*
X14215D02*
D03*
X13215D02*
D03*
X12215D02*
D03*
X11215D02*
D03*
X10215D02*
D03*
X16215Y2555D02*
D03*
X15215D02*
D03*
X14215D02*
D03*
X13215D02*
D03*
X12215D02*
D03*
X11215D02*
D03*
X10215D02*
D03*
X16573Y18161D02*
D03*
X6858Y555D02*
D03*
Y1555D02*
D03*
Y2555D02*
D03*
X7858Y18161D02*
D03*
X8858D02*
D03*
X12215D02*
D03*
X13215D02*
D03*
X4500D02*
D03*
X3500D02*
D03*
X2500D02*
D03*
X9800Y14000D02*
D03*
X8800D02*
D03*
X9800Y15000D02*
D03*
X8800D02*
D03*
X9800Y16000D02*
D03*
D27*
X19573Y15650D02*
D03*
X2500Y-445D02*
D03*
X9215D02*
D03*
Y2555D02*
D03*
X17573Y18161D02*
D03*
X9858D02*
D03*
X14215D02*
D03*
X5500D02*
D03*
D28*
X20380Y11550D02*
D03*
X20130Y2555D02*
D03*
X6858Y-445D02*
D03*
X8800Y16000D02*
D03*
D29*
X15000Y11500D02*
D03*
Y13650D02*
D03*
Y12575D02*
D03*
X6500Y8000D02*
D03*
X9500Y9050D02*
D03*
X15552Y3900D02*
D03*
X10850Y4900D02*
D03*
X10400Y10350D02*
D03*
D30*
X0Y0D02*
D03*
Y17717D02*
D03*
X19685Y0D02*
D03*
Y17717D02*
D03*
M02*
