G04 Layer_Physical_Order=1*
G04 Layer_Color=255*
%FSLAX24Y24*%
%MOIN*%
G70*
G01*
G75*
%ADD10R,0.0276X0.0354*%
%ADD11R,0.0354X0.0276*%
%ADD12R,0.0669X0.0433*%
%ADD13R,0.0906X0.1791*%
%ADD14R,0.0413X0.0945*%
%ADD15R,0.4193X0.3504*%
%ADD16R,0.0394X0.0374*%
%ADD17O,0.0689X0.0217*%
%ADD18O,0.0217X0.0689*%
%ADD19C,0.0200*%
%ADD20C,0.0100*%
%ADD21C,0.0400*%
%ADD22C,0.0591*%
%ADD23R,0.0591X0.0591*%
%ADD24R,0.0591X0.0591*%
%ADD25C,0.1890*%
%ADD26C,0.0665*%
%ADD27R,0.0665X0.0665*%
%ADD28C,0.0500*%
%ADD29C,0.1969*%
G36*
X241Y23983D02*
X479Y23936D01*
X708Y23858D01*
X924Y23751D01*
X1126Y23617D01*
X1307Y23457D01*
X1467Y23276D01*
X1601Y23074D01*
X1708Y22858D01*
X1786Y22629D01*
X1833Y22391D01*
X1848Y22157D01*
X1847Y22150D01*
Y0D01*
X1848Y-7D01*
X1833Y-241D01*
X1786Y-479D01*
X1708Y-708D01*
X1601Y-924D01*
X1467Y-1126D01*
X1307Y-1307D01*
X1126Y-1467D01*
X924Y-1601D01*
X708Y-1708D01*
X479Y-1786D01*
X241Y-1833D01*
X7Y-1848D01*
X0Y-1847D01*
X-20000D01*
X-20007Y-1848D01*
X-20241Y-1833D01*
X-20479Y-1786D01*
X-20708Y-1708D01*
X-20924Y-1601D01*
X-21126Y-1467D01*
X-21307Y-1307D01*
X-21467Y-1126D01*
X-21601Y-924D01*
X-21708Y-708D01*
X-21786Y-479D01*
X-21833Y-241D01*
X-21848Y-7D01*
X-21847Y0D01*
Y22150D01*
X-21848Y22157D01*
X-21833Y22391D01*
X-21786Y22629D01*
X-21708Y22858D01*
X-21601Y23074D01*
X-21467Y23276D01*
X-21307Y23457D01*
X-21126Y23617D01*
X-20924Y23751D01*
X-20708Y23858D01*
X-20479Y23936D01*
X-20241Y23983D01*
X-20007Y23998D01*
X-20000Y23997D01*
X0D01*
X7Y23998D01*
X241Y23983D01*
D02*
G37*
%LPC*%
G36*
X-19536Y6389D02*
X-19763D01*
Y6201D01*
X-19536D01*
Y6389D01*
D02*
G37*
G36*
X-19863D02*
X-20090D01*
Y6201D01*
X-19863D01*
Y6389D01*
D02*
G37*
G36*
X-20323D02*
X-20550D01*
Y6201D01*
X-20323D01*
Y6389D01*
D02*
G37*
G36*
X-19863Y6676D02*
X-20090D01*
Y6489D01*
X-19863D01*
Y6676D01*
D02*
G37*
G36*
X-18748Y6389D02*
X-18975D01*
Y6201D01*
X-18748D01*
Y6389D01*
D02*
G37*
G36*
X-19075D02*
X-19302D01*
Y6201D01*
X-19075D01*
Y6389D01*
D02*
G37*
G36*
X-16713Y6086D02*
X-16940D01*
Y5898D01*
X-16713D01*
Y6086D01*
D02*
G37*
G36*
X-17173D02*
X-17400D01*
Y5898D01*
X-17173D01*
Y6086D01*
D02*
G37*
G36*
X-17500D02*
X-17728D01*
Y5898D01*
X-17500D01*
Y6086D01*
D02*
G37*
G36*
X-20650Y6389D02*
X-20877D01*
Y6201D01*
X-20650D01*
Y6389D01*
D02*
G37*
G36*
X-568Y6766D02*
X-1433D01*
Y5900D01*
X-568D01*
Y6766D01*
D02*
G37*
G36*
X-16386Y6086D02*
X-16613D01*
Y5898D01*
X-16386D01*
Y6086D01*
D02*
G37*
G36*
X-19075Y6676D02*
X-19302D01*
Y6489D01*
X-19075D01*
Y6676D01*
D02*
G37*
G36*
X-1001Y8951D02*
X-1114Y8936D01*
X-1219Y8892D01*
X-1309Y8823D01*
X-1379Y8732D01*
X-1422Y8627D01*
X-1437Y8514D01*
X-1422Y8401D01*
X-1379Y8296D01*
X-1320Y8219D01*
X-1642Y7897D01*
X-1689Y7920D01*
X-1682Y7969D01*
X-1697Y8082D01*
X-1741Y8187D01*
X-1810Y8277D01*
X-1901Y8347D01*
X-2006Y8390D01*
X-2119Y8405D01*
X-2232Y8390D01*
X-2337Y8347D01*
X-2427Y8277D01*
X-2446Y8254D01*
X-4050D01*
X-4050Y8254D01*
X-4128Y8238D01*
X-4194Y8194D01*
X-5766Y6623D01*
X-5810Y6556D01*
X-5825Y6478D01*
Y897D01*
X-5903Y837D01*
X-5967Y754D01*
X-6007Y658D01*
X-6020Y555D01*
X-6007Y452D01*
X-5967Y356D01*
X-5903Y273D01*
X-5821Y210D01*
X-5725Y170D01*
X-5622Y156D01*
X-5518Y170D01*
X-5422Y210D01*
X-5340Y273D01*
X-5276Y356D01*
X-5236Y452D01*
X-5223Y555D01*
X-5236Y658D01*
X-5276Y754D01*
X-5340Y837D01*
X-5418Y897D01*
Y6394D01*
X-3966Y7846D01*
X-2536D01*
X-2497Y7751D01*
X-2431Y7665D01*
X-2439Y7627D01*
X-2443Y7615D01*
X-3239D01*
X-3239Y7615D01*
X-3317Y7599D01*
X-3383Y7555D01*
X-4766Y6173D01*
X-4810Y6106D01*
X-4825Y6028D01*
Y897D01*
X-4903Y837D01*
X-4967Y754D01*
X-5007Y658D01*
X-5020Y555D01*
X-5007Y452D01*
X-4967Y356D01*
X-4903Y273D01*
X-4821Y210D01*
X-4725Y170D01*
X-4622Y156D01*
X-4518Y170D01*
X-4422Y210D01*
X-4340Y273D01*
X-4276Y356D01*
X-4236Y452D01*
X-4223Y555D01*
X-4236Y658D01*
X-4276Y754D01*
X-4340Y837D01*
X-4418Y897D01*
Y5944D01*
X-3155Y7207D01*
X-2475D01*
X-2450Y7157D01*
X-2497Y7097D01*
X-2540Y6991D01*
X-2555Y6878D01*
X-2540Y6765D01*
X-2497Y6660D01*
X-2427Y6570D01*
X-2337Y6500D01*
X-2232Y6457D01*
X-2119Y6442D01*
X-2006Y6457D01*
X-1901Y6500D01*
X-1810Y6570D01*
X-1741Y6660D01*
X-1697Y6765D01*
X-1682Y6878D01*
X-1697Y6991D01*
X-1741Y7097D01*
X-1794Y7165D01*
X-1775Y7220D01*
X-1761Y7223D01*
X-1695Y7267D01*
X-1480Y7482D01*
X-1464Y7474D01*
X-1051D01*
Y7887D01*
X-1059Y7903D01*
X-857Y8105D01*
X-856Y8106D01*
X-783Y8136D01*
X-692Y8206D01*
X-623Y8296D01*
X-579Y8401D01*
X-564Y8514D01*
X-579Y8627D01*
X-623Y8732D01*
X-692Y8823D01*
X-783Y8892D01*
X-888Y8936D01*
X-1001Y8951D01*
D02*
G37*
G36*
X-951Y7853D02*
Y7474D01*
X-571D01*
X-579Y7537D01*
X-623Y7642D01*
X-692Y7732D01*
X-783Y7802D01*
X-888Y7845D01*
X-951Y7853D01*
D02*
G37*
G36*
X-571Y7374D02*
X-951D01*
Y6994D01*
X-888Y7002D01*
X-783Y7046D01*
X-692Y7115D01*
X-623Y7205D01*
X-579Y7311D01*
X-571Y7374D01*
D02*
G37*
G36*
X-2119Y10586D02*
X-2232Y10572D01*
X-2337Y10528D01*
X-2427Y10459D01*
X-2497Y10368D01*
X-2540Y10263D01*
X-2555Y10150D01*
X-2540Y10037D01*
X-2497Y9932D01*
X-2427Y9841D01*
X-2337Y9772D01*
X-2232Y9728D01*
X-2119Y9714D01*
X-2006Y9728D01*
X-1901Y9772D01*
X-1810Y9841D01*
X-1741Y9932D01*
X-1697Y10037D01*
X-1682Y10150D01*
X-1697Y10263D01*
X-1741Y10368D01*
X-1810Y10459D01*
X-1901Y10528D01*
X-2006Y10572D01*
X-2119Y10586D01*
D02*
G37*
G36*
X-1001Y10041D02*
X-1114Y10026D01*
X-1219Y9983D01*
X-1309Y9913D01*
X-1379Y9823D01*
X-1422Y9718D01*
X-1437Y9605D01*
X-1422Y9492D01*
X-1379Y9387D01*
X-1309Y9296D01*
X-1219Y9227D01*
X-1114Y9183D01*
X-1001Y9168D01*
X-888Y9183D01*
X-783Y9227D01*
X-692Y9296D01*
X-623Y9387D01*
X-579Y9492D01*
X-564Y9605D01*
X-579Y9718D01*
X-623Y9823D01*
X-692Y9913D01*
X-783Y9983D01*
X-888Y10026D01*
X-1001Y10041D01*
D02*
G37*
G36*
X-2119Y9496D02*
X-2232Y9481D01*
X-2337Y9437D01*
X-2427Y9368D01*
X-2497Y9278D01*
X-2540Y9172D01*
X-2555Y9059D01*
X-2540Y8946D01*
X-2497Y8841D01*
X-2427Y8751D01*
X-2337Y8682D01*
X-2232Y8638D01*
X-2119Y8623D01*
X-2006Y8638D01*
X-1901Y8682D01*
X-1810Y8751D01*
X-1741Y8841D01*
X-1697Y8946D01*
X-1682Y9059D01*
X-1697Y9172D01*
X-1741Y9278D01*
X-1810Y9368D01*
X-1901Y9437D01*
X-2006Y9481D01*
X-2119Y9496D01*
D02*
G37*
G36*
X-18748Y6676D02*
X-18975D01*
Y6489D01*
X-18748D01*
Y6676D01*
D02*
G37*
G36*
X-20323D02*
X-20550D01*
Y6489D01*
X-20323D01*
Y6676D01*
D02*
G37*
G36*
X-20650D02*
X-20877D01*
Y6489D01*
X-20650D01*
Y6676D01*
D02*
G37*
G36*
X-1051Y7374D02*
X-1431D01*
X-1422Y7311D01*
X-1379Y7205D01*
X-1309Y7115D01*
X-1219Y7046D01*
X-1114Y7002D01*
X-1051Y6994D01*
Y7374D01*
D02*
G37*
G36*
X-9014Y7167D02*
X-9106Y7155D01*
X-9191Y7120D01*
X-9264Y7064D01*
X-9320Y6991D01*
X-9355Y6906D01*
X-9367Y6814D01*
X-9355Y6723D01*
X-9320Y6638D01*
X-9264Y6565D01*
X-9191Y6509D01*
X-9106Y6473D01*
X-9014Y6461D01*
X-8923Y6473D01*
X-8838Y6509D01*
X-8765Y6565D01*
X-8709Y6638D01*
X-8699Y6661D01*
X-8377D01*
Y6577D01*
X-7823D01*
Y7052D01*
X-8377D01*
Y6967D01*
X-8699D01*
X-8709Y6991D01*
X-8765Y7064D01*
X-8838Y7120D01*
X-8923Y7155D01*
X-9014Y7167D01*
D02*
G37*
G36*
X-19536Y6676D02*
X-19763D01*
Y6489D01*
X-19536D01*
Y6676D01*
D02*
G37*
G36*
X-16808Y8460D02*
X-18800D01*
X-18878Y8450D01*
X-18951Y8420D01*
X-19014Y8372D01*
X-19487Y7899D01*
X-19938D01*
Y6754D01*
X-19325D01*
Y7205D01*
X-18675Y7855D01*
X-17938D01*
Y7027D01*
X-18288Y6676D01*
X-18515D01*
Y6201D01*
X-17961D01*
Y6427D01*
X-17774Y6614D01*
X-17728Y6595D01*
Y6201D01*
X-17173D01*
Y6595D01*
X-17127Y6614D01*
X-16940Y6427D01*
Y6201D01*
X-16386D01*
Y6676D01*
X-16612D01*
X-17325Y7389D01*
Y7855D01*
X-16933D01*
X-16253Y7175D01*
Y3346D01*
X-16299Y3327D01*
X-17315Y4342D01*
X-17325Y4388D01*
X-17325Y4388D01*
X-17325Y4388D01*
Y5533D01*
X-17938D01*
Y4388D01*
X-17934D01*
Y4232D01*
X-17924Y4153D01*
X-17894Y4080D01*
X-17846Y4018D01*
X-16612Y2784D01*
X-16631Y2738D01*
X-20828D01*
Y-966D01*
X-16435D01*
Y2542D01*
X-16389Y2561D01*
X-16164Y2336D01*
X-16164Y2336D01*
X-14803Y975D01*
Y-671D01*
X-13697D01*
Y22D01*
X-10431D01*
Y-671D01*
X-9326D01*
Y253D01*
X-6877D01*
X-6821Y210D01*
X-6725Y170D01*
X-6622Y156D01*
X-6518Y170D01*
X-6422Y210D01*
X-6340Y273D01*
X-6276Y356D01*
X-6236Y452D01*
X-6223Y555D01*
X-6236Y658D01*
X-6276Y754D01*
X-6340Y837D01*
X-6422Y900D01*
X-6518Y940D01*
X-6622Y954D01*
X-6725Y940D01*
X-6821Y900D01*
X-6877Y858D01*
X-9326D01*
Y1320D01*
X-10431D01*
Y627D01*
X-13697D01*
Y1320D01*
X-14293D01*
X-15647Y2675D01*
Y7300D01*
X-15647Y7300D01*
X-15658Y7378D01*
X-15688Y7451D01*
X-15736Y7514D01*
X-16594Y8372D01*
X-16656Y8420D01*
X-16729Y8450D01*
X-16808Y8460D01*
D02*
G37*
G36*
X-1560Y4639D02*
X-1724Y4626D01*
X-1884Y4588D01*
X-2036Y4525D01*
X-2176Y4439D01*
X-2301Y4332D01*
X-2408Y4207D01*
X-2494Y4067D01*
X-2557Y3915D01*
X-2595Y3755D01*
X-2608Y3591D01*
X-2595Y3427D01*
X-2557Y3267D01*
X-2494Y3115D01*
X-2408Y2975D01*
X-2301Y2850D01*
X-2176Y2743D01*
X-2036Y2657D01*
X-1884Y2594D01*
X-1724Y2556D01*
X-1560Y2543D01*
X-1396Y2556D01*
X-1236Y2594D01*
X-1084Y2657D01*
X-944Y2743D01*
X-819Y2850D01*
X-712Y2975D01*
X-626Y3115D01*
X-563Y3267D01*
X-525Y3427D01*
X-512Y3591D01*
X-525Y3755D01*
X-563Y3915D01*
X-626Y4067D01*
X-712Y4207D01*
X-819Y4332D01*
X-944Y4439D01*
X-1084Y4525D01*
X-1236Y4588D01*
X-1396Y4626D01*
X-1560Y4639D01*
D02*
G37*
G36*
X-2622Y954D02*
X-2725Y940D01*
X-2821Y900D01*
X-2903Y837D01*
X-2967Y754D01*
X-3007Y658D01*
X-3020Y555D01*
X-3007Y458D01*
X-3211Y254D01*
X-3291D01*
X-3316Y304D01*
X-3276Y356D01*
X-3236Y452D01*
X-3223Y555D01*
X-3236Y658D01*
X-3276Y754D01*
X-3340Y837D01*
X-3422Y900D01*
X-3518Y940D01*
X-3622Y954D01*
X-3725Y940D01*
X-3821Y900D01*
X-3903Y837D01*
X-3967Y754D01*
X-4007Y658D01*
X-4020Y555D01*
X-4007Y452D01*
X-3967Y356D01*
X-3927Y304D01*
X-3952Y254D01*
X-4126D01*
X-4204Y239D01*
X-4270Y195D01*
X-4524Y-59D01*
X-4622Y-46D01*
X-4725Y-60D01*
X-4821Y-100D01*
X-4903Y-163D01*
X-4967Y-246D01*
X-5007Y-342D01*
X-5020Y-445D01*
X-5007Y-542D01*
X-5361Y-896D01*
X-5882D01*
X-6226Y-552D01*
Y-50D01*
X-7017D01*
Y-142D01*
X-8219D01*
X-8223Y-139D01*
X-8309Y-104D01*
X-8400Y-92D01*
X-8491Y-104D01*
X-8577Y-139D01*
X-8650Y-195D01*
X-8706Y-268D01*
X-8741Y-354D01*
X-8753Y-445D01*
X-8741Y-536D01*
X-8706Y-621D01*
X-8650Y-695D01*
X-8577Y-751D01*
X-8491Y-786D01*
X-8400Y-798D01*
X-8309Y-786D01*
X-8223Y-751D01*
X-8219Y-747D01*
X-7017D01*
Y-840D01*
X-6515D01*
X-6111Y-1244D01*
X-6044Y-1288D01*
X-5966Y-1304D01*
X-5277D01*
X-5199Y-1288D01*
X-5132Y-1244D01*
X-4719Y-831D01*
X-4622Y-844D01*
X-4518Y-830D01*
X-4422Y-790D01*
X-4340Y-727D01*
X-4276Y-644D01*
X-4236Y-548D01*
X-4223Y-445D01*
X-4236Y-347D01*
X-4042Y-154D01*
X-3959D01*
X-3935Y-204D01*
X-3967Y-246D01*
X-4007Y-342D01*
X-4020Y-445D01*
X-4007Y-548D01*
X-3967Y-644D01*
X-3903Y-727D01*
X-3821Y-790D01*
X-3725Y-830D01*
X-3622Y-844D01*
X-3518Y-830D01*
X-3422Y-790D01*
X-3340Y-727D01*
X-3276Y-644D01*
X-3236Y-548D01*
X-3223Y-445D01*
X-3236Y-342D01*
X-3276Y-246D01*
X-3309Y-204D01*
X-3284Y-154D01*
X-3126D01*
X-3048Y-138D01*
X-2982Y-94D01*
X-2719Y169D01*
X-2622Y156D01*
X-2518Y170D01*
X-2422Y210D01*
X-2340Y273D01*
X-2276Y356D01*
X-2236Y452D01*
X-2223Y555D01*
X-2236Y658D01*
X-2276Y754D01*
X-2340Y837D01*
X-2422Y900D01*
X-2518Y940D01*
X-2622Y954D01*
D02*
G37*
G36*
X-13925Y5680D02*
X-14152D01*
Y5492D01*
X-13925D01*
Y5680D01*
D02*
G37*
G36*
X-15023Y5968D02*
X-15577D01*
Y5492D01*
X-15023D01*
Y5577D01*
X-14865D01*
Y5492D01*
X-14310D01*
Y5968D01*
X-14865D01*
Y5883D01*
X-15023D01*
Y5968D01*
D02*
G37*
G36*
X-7823Y6462D02*
X-8377D01*
Y5986D01*
X-8260D01*
Y5909D01*
X-8404D01*
Y5335D01*
X-7810D01*
Y5909D01*
X-7954D01*
Y5986D01*
X-7823D01*
Y6462D01*
D02*
G37*
G36*
X-5672Y-495D02*
X-6014D01*
X-6007Y-548D01*
X-5967Y-644D01*
X-5903Y-727D01*
X-5821Y-790D01*
X-5725Y-830D01*
X-5672Y-837D01*
Y-495D01*
D02*
G37*
G36*
X-2622Y-46D02*
X-2725Y-60D01*
X-2821Y-100D01*
X-2903Y-163D01*
X-2967Y-246D01*
X-3007Y-342D01*
X-3020Y-445D01*
X-3007Y-548D01*
X-2967Y-644D01*
X-2903Y-727D01*
X-2821Y-790D01*
X-2725Y-830D01*
X-2622Y-844D01*
X-2518Y-830D01*
X-2422Y-790D01*
X-2340Y-727D01*
X-2276Y-644D01*
X-2236Y-548D01*
X-2223Y-445D01*
X-2236Y-342D01*
X-2276Y-246D01*
X-2340Y-163D01*
X-2422Y-100D01*
X-2518Y-60D01*
X-2622Y-46D01*
D02*
G37*
G36*
X0Y1088D02*
X-170Y1074D01*
X-336Y1034D01*
X-494Y969D01*
X-639Y880D01*
X-769Y769D01*
X-880Y639D01*
X-969Y494D01*
X-1034Y336D01*
X-1074Y170D01*
X-1088Y0D01*
X-1074Y-170D01*
X-1034Y-336D01*
X-969Y-494D01*
X-880Y-639D01*
X-769Y-769D01*
X-639Y-880D01*
X-494Y-969D01*
X-336Y-1034D01*
X-170Y-1074D01*
X0Y-1088D01*
X170Y-1074D01*
X336Y-1034D01*
X494Y-969D01*
X639Y-880D01*
X769Y-769D01*
X880Y-639D01*
X969Y-494D01*
X1034Y-336D01*
X1074Y-170D01*
X1088Y0D01*
X1074Y170D01*
X1034Y336D01*
X969Y494D01*
X880Y639D01*
X769Y769D01*
X639Y880D01*
X494Y969D01*
X336Y1034D01*
X170Y1074D01*
X0Y1088D01*
D02*
G37*
G36*
X-5572Y-53D02*
Y-395D01*
X-5229D01*
X-5236Y-342D01*
X-5276Y-246D01*
X-5340Y-163D01*
X-5422Y-100D01*
X-5518Y-60D01*
X-5572Y-53D01*
D02*
G37*
G36*
X-5672D02*
X-5725Y-60D01*
X-5821Y-100D01*
X-5903Y-163D01*
X-5967Y-246D01*
X-6007Y-342D01*
X-6014Y-395D01*
X-5672D01*
Y-53D01*
D02*
G37*
G36*
X-5229Y-495D02*
X-5572D01*
Y-837D01*
X-5518Y-830D01*
X-5422Y-790D01*
X-5340Y-727D01*
X-5276Y-644D01*
X-5236Y-548D01*
X-5229Y-495D01*
D02*
G37*
G36*
X-18288Y5798D02*
X-18515D01*
Y5610D01*
X-18288D01*
Y5798D01*
D02*
G37*
G36*
X-13598Y5968D02*
X-13825D01*
Y5780D01*
X-13598D01*
Y5968D01*
D02*
G37*
G36*
X-13925D02*
X-14152D01*
Y5780D01*
X-13925D01*
Y5968D01*
D02*
G37*
G36*
X-18748Y6086D02*
X-19302D01*
Y5859D01*
X-19400Y5762D01*
X-19461Y5772D01*
X-19487Y5811D01*
X-19536Y5859D01*
Y6086D01*
X-20090D01*
Y5692D01*
X-20136Y5672D01*
X-20323Y5859D01*
Y6086D01*
X-20877D01*
Y5610D01*
X-20651D01*
X-19938Y4898D01*
Y4388D01*
X-19325D01*
Y5260D01*
X-18975Y5610D01*
X-18748D01*
Y6086D01*
D02*
G37*
G36*
X-17961Y6086D02*
X-18188D01*
Y5898D01*
X-17961D01*
Y6086D01*
D02*
G37*
G36*
X-18288D02*
X-18515D01*
Y5898D01*
X-18288D01*
Y6086D01*
D02*
G37*
G36*
X-9950Y6753D02*
X-10041Y6741D01*
X-10127Y6706D01*
X-10200Y6650D01*
X-10256Y6577D01*
X-10291Y6491D01*
X-10303Y6400D01*
X-10291Y6309D01*
X-10256Y6223D01*
X-10200Y6150D01*
X-10127Y6094D01*
X-10103Y6085D01*
Y5968D01*
X-10590D01*
Y5883D01*
X-10748D01*
Y5968D01*
X-10947D01*
Y6085D01*
X-10923Y6094D01*
X-10850Y6150D01*
X-10794Y6223D01*
X-10759Y6309D01*
X-10747Y6400D01*
X-10759Y6491D01*
X-10794Y6577D01*
X-10850Y6650D01*
X-10923Y6706D01*
X-11009Y6741D01*
X-11100Y6753D01*
X-11191Y6741D01*
X-11277Y6706D01*
X-11350Y6650D01*
X-11406Y6577D01*
X-11441Y6491D01*
X-11453Y6400D01*
X-11441Y6309D01*
X-11406Y6223D01*
X-11350Y6150D01*
X-11277Y6094D01*
X-11253Y6085D01*
Y5968D01*
X-11303D01*
Y5731D01*
X-11353Y5706D01*
X-11372Y5721D01*
Y5909D01*
X-11966D01*
Y5335D01*
X-11477D01*
X-11473Y5329D01*
X-11500Y5279D01*
X-11966D01*
Y4705D01*
X-11522D01*
X-10431Y3614D01*
Y2282D01*
X-9326D01*
Y3557D01*
X-8780Y4102D01*
X-8780Y4102D01*
X-8178Y4705D01*
X-7810D01*
Y5279D01*
X-8404D01*
Y4911D01*
X-8689Y4626D01*
X-8735Y4645D01*
Y4902D01*
X-8611D01*
Y5377D01*
X-9165D01*
Y4902D01*
X-9041D01*
Y4274D01*
X-9280Y4035D01*
X-9326Y4055D01*
Y4273D01*
X-10431D01*
Y4112D01*
X-10477Y4093D01*
X-11240Y4855D01*
X-11221Y4902D01*
X-10748D01*
Y5377D01*
X-11047D01*
X-11116Y5446D01*
X-11097Y5492D01*
X-10748D01*
Y5577D01*
X-10590D01*
Y5492D01*
X-10103D01*
Y5377D01*
X-10590D01*
Y4902D01*
X-10036D01*
Y4987D01*
X-9878D01*
Y4902D01*
X-9323D01*
Y5377D01*
X-9797D01*
Y5492D01*
X-9323D01*
Y5577D01*
X-9165D01*
Y5492D01*
X-8611D01*
Y5968D01*
X-9165D01*
Y5883D01*
X-9323D01*
Y5968D01*
X-9797D01*
Y6085D01*
X-9773Y6094D01*
X-9700Y6150D01*
X-9644Y6223D01*
X-9609Y6309D01*
X-9597Y6400D01*
X-9609Y6491D01*
X-9644Y6577D01*
X-9700Y6650D01*
X-9773Y6706D01*
X-9859Y6741D01*
X-9950Y6753D01*
D02*
G37*
G36*
X-17173Y5798D02*
X-17400D01*
Y5610D01*
X-17173D01*
Y5798D01*
D02*
G37*
G36*
X-17500D02*
X-17728D01*
Y5610D01*
X-17500D01*
Y5798D01*
D02*
G37*
G36*
X-17961D02*
X-18188D01*
Y5610D01*
X-17961D01*
Y5798D01*
D02*
G37*
G36*
X-12803Y5909D02*
X-13397D01*
Y5774D01*
X-13451Y5763D01*
X-13501Y5730D01*
X-13552Y5679D01*
X-13554Y5680D01*
X-13825D01*
Y5492D01*
X-13804D01*
X-13785Y5446D01*
X-13854Y5377D01*
X-14152D01*
Y5292D01*
X-14310D01*
Y5377D01*
X-14865D01*
Y4986D01*
X-14911Y4967D01*
X-15023Y5079D01*
Y5377D01*
X-15577D01*
Y4902D01*
X-15278D01*
X-14696Y4319D01*
X-14715Y4273D01*
X-14803D01*
Y2282D01*
X-13697D01*
Y4178D01*
X-13171Y4705D01*
X-12803D01*
Y5279D01*
X-13397D01*
Y4911D01*
X-14035Y4273D01*
X-14217D01*
X-14800Y4855D01*
X-14781Y4902D01*
X-14310D01*
Y4987D01*
X-14152D01*
Y4902D01*
X-13598D01*
Y5200D01*
X-13443Y5355D01*
X-13397Y5336D01*
Y5335D01*
X-12803D01*
Y5909D01*
D02*
G37*
G36*
X-16386Y5798D02*
X-16613D01*
Y5610D01*
X-16386D01*
Y5798D01*
D02*
G37*
G36*
X-16713D02*
X-16940D01*
Y5610D01*
X-16713D01*
Y5798D01*
D02*
G37*
G36*
X-1001Y11132D02*
X-1114Y11117D01*
X-1219Y11073D01*
X-1309Y11004D01*
X-1379Y10913D01*
X-1422Y10808D01*
X-1437Y10695D01*
X-1422Y10582D01*
X-1379Y10477D01*
X-1309Y10387D01*
X-1219Y10317D01*
X-1114Y10274D01*
X-1001Y10259D01*
X-888Y10274D01*
X-783Y10317D01*
X-692Y10387D01*
X-623Y10477D01*
X-579Y10582D01*
X-564Y10695D01*
X-579Y10808D01*
X-623Y10913D01*
X-692Y11004D01*
X-783Y11073D01*
X-888Y11117D01*
X-1001Y11132D01*
D02*
G37*
G36*
X-16118Y22649D02*
X-16221Y22635D01*
X-16317Y22595D01*
X-16400Y22532D01*
X-16463Y22449D01*
X-16503Y22353D01*
X-16517Y22250D01*
X-16503Y22147D01*
X-16463Y22051D01*
X-16400Y21968D01*
X-16317Y21905D01*
X-16221Y21865D01*
X-16118Y21851D01*
X-16015Y21865D01*
X-15919Y21905D01*
X-15836Y21968D01*
X-15773Y22051D01*
X-15733Y22147D01*
X-15719Y22250D01*
X-15733Y22353D01*
X-15773Y22449D01*
X-15836Y22532D01*
X-15919Y22595D01*
X-16015Y22635D01*
X-16118Y22649D01*
D02*
G37*
G36*
X-17118D02*
X-17221Y22635D01*
X-17317Y22595D01*
X-17400Y22532D01*
X-17463Y22449D01*
X-17503Y22353D01*
X-17517Y22250D01*
X-17503Y22147D01*
X-17463Y22051D01*
X-17400Y21968D01*
X-17317Y21905D01*
X-17221Y21865D01*
X-17118Y21851D01*
X-17015Y21865D01*
X-16919Y21905D01*
X-16836Y21968D01*
X-16773Y22051D01*
X-16733Y22147D01*
X-16719Y22250D01*
X-16733Y22353D01*
X-16773Y22449D01*
X-16836Y22532D01*
X-16919Y22595D01*
X-17015Y22635D01*
X-17118Y22649D01*
D02*
G37*
G36*
X-4350Y21642D02*
Y21300D01*
X-4008D01*
X-4015Y21353D01*
X-4055Y21449D01*
X-4118Y21532D01*
X-4201Y21595D01*
X-4297Y21635D01*
X-4350Y21642D01*
D02*
G37*
G36*
X-12118Y22649D02*
X-12221Y22635D01*
X-12317Y22595D01*
X-12400Y22532D01*
X-12463Y22449D01*
X-12503Y22353D01*
X-12517Y22250D01*
X-12503Y22147D01*
X-12463Y22051D01*
X-12400Y21968D01*
X-12317Y21905D01*
X-12221Y21865D01*
X-12118Y21851D01*
X-12015Y21865D01*
X-11919Y21905D01*
X-11836Y21968D01*
X-11773Y22051D01*
X-11733Y22147D01*
X-11719Y22250D01*
X-11733Y22353D01*
X-11773Y22449D01*
X-11836Y22532D01*
X-11919Y22595D01*
X-12015Y22635D01*
X-12118Y22649D01*
D02*
G37*
G36*
X-14118D02*
X-14221Y22635D01*
X-14317Y22595D01*
X-14400Y22532D01*
X-14463Y22449D01*
X-14503Y22353D01*
X-14517Y22250D01*
X-14503Y22147D01*
X-14463Y22051D01*
X-14400Y21968D01*
X-14317Y21905D01*
X-14221Y21865D01*
X-14118Y21851D01*
X-14015Y21865D01*
X-13919Y21905D01*
X-13836Y21968D01*
X-13773Y22051D01*
X-13733Y22147D01*
X-13719Y22250D01*
X-13733Y22353D01*
X-13773Y22449D01*
X-13836Y22532D01*
X-13919Y22595D01*
X-14015Y22635D01*
X-14118Y22649D01*
D02*
G37*
G36*
X-15118D02*
X-15221Y22635D01*
X-15317Y22595D01*
X-15400Y22532D01*
X-15463Y22449D01*
X-15503Y22353D01*
X-15517Y22250D01*
X-15503Y22147D01*
X-15463Y22051D01*
X-15400Y21968D01*
X-15317Y21905D01*
X-15221Y21865D01*
X-15118Y21851D01*
X-15015Y21865D01*
X-14919Y21905D01*
X-14836Y21968D01*
X-14773Y22051D01*
X-14733Y22147D01*
X-14719Y22250D01*
X-14733Y22353D01*
X-14773Y22449D01*
X-14836Y22532D01*
X-14919Y22595D01*
X-15015Y22635D01*
X-15118Y22649D01*
D02*
G37*
G36*
X-4450Y21200D02*
X-4792D01*
X-4785Y21147D01*
X-4745Y21051D01*
X-4682Y20968D01*
X-4599Y20905D01*
X-4503Y20865D01*
X-4450Y20858D01*
Y21200D01*
D02*
G37*
G36*
X-20297Y21649D02*
X-20400Y21635D01*
X-20496Y21595D01*
X-20579Y21532D01*
X-20642Y21449D01*
X-20682Y21353D01*
X-20696Y21250D01*
X-20682Y21147D01*
X-20642Y21051D01*
X-20579Y20968D01*
X-20496Y20905D01*
X-20400Y20865D01*
X-20297Y20851D01*
X-20194Y20865D01*
X-20098Y20905D01*
X-20015Y20968D01*
X-19952Y21051D01*
X-19912Y21147D01*
X-19898Y21250D01*
X-19912Y21353D01*
X-19952Y21449D01*
X-20015Y21532D01*
X-20098Y21595D01*
X-20194Y21635D01*
X-20297Y21649D01*
D02*
G37*
G36*
X-6157Y23403D02*
X-6633D01*
Y22849D01*
X-6548D01*
Y22616D01*
X-6599Y22595D01*
X-6682Y22532D01*
X-6745Y22449D01*
X-6785Y22353D01*
X-6799Y22250D01*
X-6785Y22147D01*
X-6766Y22100D01*
X-7208Y21658D01*
X-7241Y21609D01*
X-7253Y21550D01*
Y16073D01*
X-8615Y14710D01*
X-8624Y14714D01*
X-8657Y14740D01*
X-8647Y14788D01*
Y20487D01*
X-8637Y20497D01*
X-8553D01*
Y20351D01*
X-7683D01*
Y20984D01*
X-7683D01*
X-7683Y21002D01*
X-7683D01*
Y21635D01*
X-8147D01*
X-8404Y21892D01*
X-8470Y21937D01*
X-8548Y21952D01*
X-9330D01*
X-9355Y22002D01*
X-9323Y22044D01*
X-9283Y22140D01*
X-9269Y22243D01*
X-9283Y22347D01*
X-9323Y22443D01*
X-9386Y22525D01*
X-9469Y22589D01*
X-9565Y22629D01*
X-9668Y22642D01*
X-9771Y22629D01*
X-9867Y22589D01*
X-9950Y22525D01*
X-10013Y22443D01*
X-10053Y22347D01*
X-10067Y22243D01*
X-10053Y22140D01*
X-10013Y22044D01*
X-9981Y22002D01*
X-10006Y21952D01*
X-10088D01*
X-10282Y22146D01*
X-10269Y22243D01*
X-10283Y22347D01*
X-10323Y22443D01*
X-10386Y22525D01*
X-10469Y22589D01*
X-10565Y22629D01*
X-10668Y22642D01*
X-10771Y22629D01*
X-10867Y22589D01*
X-10950Y22525D01*
X-11013Y22443D01*
X-11053Y22347D01*
X-11067Y22243D01*
X-11053Y22140D01*
X-11013Y22044D01*
X-10950Y21962D01*
X-10867Y21898D01*
X-10771Y21858D01*
X-10668Y21845D01*
X-10571Y21858D01*
X-10317Y21604D01*
X-10251Y21560D01*
X-10173Y21544D01*
X-9999D01*
X-9974Y21494D01*
X-10013Y21443D01*
X-10053Y21347D01*
X-10067Y21243D01*
X-10053Y21140D01*
X-10013Y21044D01*
X-9950Y20962D01*
X-9867Y20898D01*
X-9771Y20858D01*
X-9668Y20845D01*
X-9565Y20858D01*
X-9519Y20878D01*
X-9376Y20735D01*
Y20580D01*
X-9426Y20556D01*
X-9469Y20589D01*
X-9565Y20629D01*
X-9668Y20642D01*
X-9771Y20629D01*
X-9867Y20589D01*
X-9922Y20547D01*
X-9972Y20571D01*
Y20675D01*
X-9984Y20734D01*
X-10017Y20783D01*
X-10310Y21076D01*
X-10283Y21140D01*
X-10269Y21243D01*
X-10283Y21347D01*
X-10323Y21443D01*
X-10386Y21525D01*
X-10469Y21589D01*
X-10565Y21629D01*
X-10668Y21642D01*
X-10771Y21629D01*
X-10867Y21589D01*
X-10950Y21525D01*
X-11013Y21443D01*
X-11053Y21347D01*
X-11067Y21243D01*
X-11053Y21140D01*
X-11013Y21044D01*
X-10950Y20962D01*
X-10867Y20898D01*
X-10771Y20858D01*
X-10668Y20845D01*
X-10565Y20858D01*
X-10536Y20870D01*
X-10278Y20612D01*
Y20463D01*
X-10303Y20452D01*
X-10328Y20450D01*
X-10386Y20525D01*
X-10469Y20589D01*
X-10565Y20629D01*
X-10668Y20642D01*
X-10771Y20629D01*
X-10867Y20589D01*
X-10950Y20525D01*
X-11013Y20443D01*
X-11053Y20347D01*
X-11067Y20243D01*
X-11053Y20140D01*
X-11013Y20044D01*
X-10950Y19962D01*
X-10867Y19898D01*
X-10771Y19858D01*
X-10668Y19845D01*
X-10565Y19858D01*
X-10469Y19898D01*
X-10386Y19962D01*
X-10328Y20037D01*
X-10303Y20035D01*
X-10278Y20024D01*
Y19463D01*
X-10303Y19452D01*
X-10328Y19450D01*
X-10386Y19525D01*
X-10469Y19589D01*
X-10565Y19629D01*
X-10618Y19636D01*
Y19243D01*
Y18851D01*
X-10565Y18858D01*
X-10469Y18898D01*
X-10386Y18962D01*
X-10328Y19037D01*
X-10303Y19035D01*
X-10278Y19024D01*
Y17213D01*
X-10328Y17186D01*
X-10359Y17207D01*
X-10440Y17223D01*
X-10521Y17207D01*
X-10590Y17161D01*
X-10605D01*
X-10674Y17207D01*
X-10755Y17223D01*
X-10836Y17207D01*
X-10874Y17182D01*
X-10913Y17164D01*
X-10951Y17182D01*
X-10989Y17207D01*
X-11070Y17223D01*
X-11151Y17207D01*
X-11220Y17161D01*
X-11235D01*
X-11304Y17207D01*
X-11385Y17223D01*
X-11466Y17207D01*
X-11504Y17182D01*
X-11543Y17164D01*
X-11581Y17182D01*
X-11619Y17207D01*
X-11650Y17213D01*
Y16774D01*
Y16336D01*
X-11619Y16342D01*
X-11550Y16388D01*
X-11535D01*
X-11466Y16342D01*
X-11385Y16326D01*
X-11304Y16342D01*
X-11235Y16388D01*
X-11220D01*
X-11151Y16342D01*
X-11070Y16326D01*
X-10989Y16342D01*
X-10958Y16363D01*
X-10908Y16336D01*
Y16058D01*
X-11418Y15549D01*
X-11450Y15553D01*
X-11541Y15541D01*
X-11627Y15506D01*
X-11700Y15450D01*
X-11756Y15377D01*
X-11791Y15291D01*
X-11803Y15200D01*
X-11791Y15109D01*
X-11756Y15023D01*
X-11700Y14951D01*
Y14951D01*
X-11700Y14948D01*
X-11717Y14901D01*
X-11791Y14891D01*
X-11815Y14881D01*
X-11862Y14928D01*
Y16336D01*
X-11812Y16363D01*
X-11781Y16342D01*
X-11750Y16336D01*
Y16774D01*
Y17213D01*
X-11781Y17207D01*
X-11850Y17161D01*
X-11865D01*
X-11934Y17207D01*
X-12015Y17223D01*
X-12096Y17207D01*
X-12165Y17161D01*
X-12180D01*
X-12249Y17207D01*
X-12330Y17223D01*
X-12411Y17207D01*
X-12449Y17182D01*
X-12487Y17164D01*
X-12526Y17182D01*
X-12564Y17207D01*
X-12645Y17223D01*
X-12726Y17207D01*
X-12757Y17186D01*
X-12807Y17213D01*
Y19006D01*
X-12773Y19051D01*
X-12733Y19147D01*
X-12719Y19250D01*
X-12733Y19353D01*
X-12773Y19449D01*
X-12836Y19532D01*
X-12919Y19595D01*
X-13015Y19635D01*
X-13118Y19649D01*
X-13221Y19635D01*
X-13317Y19595D01*
X-13360Y19562D01*
X-13410Y19587D01*
Y21741D01*
X-13268Y21884D01*
X-13221Y21865D01*
X-13118Y21851D01*
X-13015Y21865D01*
X-12919Y21905D01*
X-12836Y21968D01*
X-12773Y22051D01*
X-12733Y22147D01*
X-12719Y22250D01*
X-12733Y22353D01*
X-12773Y22449D01*
X-12836Y22532D01*
X-12919Y22595D01*
X-13015Y22635D01*
X-13118Y22649D01*
X-13221Y22635D01*
X-13317Y22595D01*
X-13400Y22532D01*
X-13463Y22449D01*
X-13503Y22353D01*
X-13517Y22250D01*
X-13503Y22147D01*
X-13484Y22100D01*
X-13672Y21913D01*
X-13705Y21863D01*
X-13716Y21805D01*
Y19444D01*
X-13766Y19434D01*
X-13773Y19449D01*
X-13836Y19532D01*
X-13919Y19595D01*
X-14015Y19635D01*
X-14118Y19649D01*
X-14221Y19635D01*
X-14317Y19595D01*
X-14400Y19532D01*
X-14463Y19449D01*
X-14503Y19353D01*
X-14517Y19250D01*
X-14503Y19147D01*
X-14463Y19051D01*
X-14400Y18968D01*
X-14317Y18905D01*
X-14221Y18865D01*
X-14118Y18851D01*
X-14015Y18865D01*
X-13919Y18905D01*
X-13836Y18968D01*
X-13773Y19051D01*
X-13766Y19066D01*
X-13716Y19056D01*
Y17063D01*
X-13705Y17004D01*
X-13672Y16955D01*
X-13487Y16770D01*
Y16538D01*
X-13471Y16457D01*
X-13425Y16388D01*
X-13356Y16342D01*
X-13275Y16326D01*
X-13194Y16342D01*
X-13125Y16388D01*
X-13110D01*
X-13041Y16342D01*
X-12960Y16326D01*
X-12879Y16342D01*
X-12810Y16388D01*
X-12795D01*
X-12726Y16342D01*
X-12645Y16326D01*
X-12564Y16342D01*
X-12495Y16388D01*
X-12480D01*
X-12411Y16342D01*
X-12330Y16326D01*
X-12249Y16342D01*
X-12218Y16363D01*
X-12168Y16336D01*
Y14865D01*
X-12156Y14806D01*
X-12123Y14757D01*
X-12115Y14749D01*
X-12135Y14703D01*
X-13486D01*
X-13513Y14753D01*
X-13492Y14784D01*
X-13486Y14815D01*
X-13924D01*
X-14363D01*
X-14357Y14784D01*
X-14311Y14715D01*
Y14700D01*
X-14357Y14631D01*
X-14373Y14550D01*
X-14357Y14469D01*
X-14332Y14431D01*
X-14314Y14393D01*
X-14332Y14354D01*
X-14357Y14316D01*
X-14363Y14285D01*
X-13924D01*
X-13486D01*
X-13492Y14316D01*
X-13513Y14347D01*
X-13486Y14397D01*
X-12015D01*
X-12006Y14373D01*
X-11950Y14300D01*
X-11877Y14244D01*
X-11853Y14235D01*
Y12764D01*
X-11903Y12737D01*
X-11934Y12758D01*
X-11965Y12764D01*
Y12326D01*
Y11887D01*
X-11934Y11893D01*
X-11865Y11939D01*
X-11850D01*
X-11781Y11893D01*
X-11700Y11877D01*
X-11619Y11893D01*
X-11550Y11939D01*
X-11535D01*
X-11466Y11893D01*
X-11385Y11877D01*
X-11304Y11893D01*
X-11235Y11939D01*
X-11220D01*
X-11151Y11893D01*
X-11070Y11877D01*
X-10989Y11893D01*
X-10920Y11939D01*
X-10905D01*
X-10858Y11908D01*
X-10847Y11848D01*
X-11393Y11303D01*
X-11885D01*
X-11894Y11327D01*
X-11950Y11400D01*
X-12023Y11456D01*
X-12109Y11491D01*
X-12200Y11503D01*
X-12291Y11491D01*
X-12377Y11456D01*
X-12450Y11400D01*
X-12506Y11327D01*
X-12541Y11241D01*
X-12553Y11150D01*
X-12541Y11059D01*
X-12506Y10973D01*
X-12450Y10900D01*
X-12377Y10844D01*
X-12291Y10809D01*
X-12200Y10797D01*
X-12109Y10809D01*
X-12023Y10844D01*
X-11950Y10900D01*
X-11894Y10973D01*
X-11885Y10997D01*
X-11449D01*
X-11430Y10951D01*
X-11678Y10703D01*
X-12435D01*
X-12444Y10727D01*
X-12500Y10800D01*
X-12573Y10856D01*
X-12659Y10891D01*
X-12750Y10903D01*
X-12841Y10891D01*
X-12927Y10856D01*
X-13000Y10800D01*
X-13056Y10727D01*
X-13091Y10641D01*
X-13103Y10550D01*
X-13091Y10459D01*
X-13056Y10373D01*
X-13000Y10300D01*
X-12927Y10244D01*
X-12841Y10209D01*
X-12750Y10197D01*
X-12659Y10209D01*
X-12573Y10244D01*
X-12500Y10300D01*
X-12444Y10373D01*
X-12435Y10397D01*
X-11614D01*
X-11556Y10409D01*
X-11506Y10442D01*
X-10074Y11874D01*
X-10064Y11889D01*
X-10044Y11893D01*
X-9975Y11939D01*
X-9929Y12008D01*
X-9913Y12089D01*
Y12562D01*
X-9929Y12643D01*
X-9975Y12712D01*
X-10044Y12758D01*
X-10125Y12774D01*
X-10206Y12758D01*
X-10275Y12712D01*
X-10290D01*
X-10359Y12758D01*
X-10440Y12774D01*
X-10521Y12758D01*
X-10590Y12712D01*
X-10605D01*
X-10674Y12758D01*
X-10755Y12774D01*
X-10836Y12758D01*
X-10905Y12712D01*
X-10920D01*
X-10989Y12758D01*
X-11070Y12774D01*
X-11151Y12758D01*
X-11220Y12712D01*
X-11235D01*
X-11304Y12758D01*
X-11385Y12774D01*
X-11466Y12758D01*
X-11497Y12737D01*
X-11547Y12764D01*
Y14151D01*
X-11497Y14155D01*
X-11491Y14109D01*
X-11456Y14023D01*
X-11400Y13950D01*
X-11327Y13894D01*
X-11241Y13859D01*
X-11150Y13847D01*
X-11059Y13859D01*
X-10973Y13894D01*
X-10957Y13907D01*
X-10921Y13871D01*
X-10956Y13827D01*
X-10991Y13741D01*
X-11003Y13650D01*
X-10991Y13559D01*
X-10956Y13473D01*
X-10900Y13400D01*
X-10827Y13344D01*
X-10741Y13309D01*
X-10650Y13297D01*
X-10559Y13309D01*
X-10473Y13344D01*
X-10400Y13400D01*
X-10344Y13473D01*
X-10309Y13559D01*
X-10297Y13650D01*
X-10309Y13741D01*
X-10322Y13772D01*
X-10309Y13791D01*
X-10297Y13850D01*
Y14554D01*
X-9992Y14859D01*
X-9970Y14892D01*
X-9923Y14873D01*
X-9924Y14865D01*
X-9908Y14784D01*
X-9862Y14715D01*
Y14700D01*
X-9908Y14631D01*
X-9924Y14550D01*
X-9908Y14469D01*
X-9883Y14431D01*
X-9865Y14393D01*
X-9883Y14354D01*
X-9908Y14316D01*
X-9914Y14285D01*
X-9476D01*
Y14185D01*
X-9914D01*
X-9908Y14154D01*
X-9862Y14085D01*
Y14070D01*
X-9908Y14001D01*
X-9924Y13920D01*
X-9908Y13839D01*
X-9883Y13801D01*
X-9865Y13763D01*
X-9883Y13724D01*
X-9908Y13686D01*
X-9924Y13605D01*
X-9908Y13524D01*
X-9862Y13455D01*
Y13440D01*
X-9908Y13371D01*
X-9924Y13290D01*
X-9908Y13209D01*
X-9862Y13140D01*
Y13125D01*
X-9908Y13056D01*
X-9924Y12975D01*
X-9908Y12894D01*
X-9862Y12825D01*
X-9793Y12779D01*
X-9712Y12763D01*
X-9239D01*
X-9158Y12779D01*
X-9089Y12825D01*
X-9053Y12879D01*
X-8902D01*
X-8844Y12891D01*
X-8794Y12924D01*
X-5292Y16426D01*
X-5259Y16476D01*
X-5247Y16534D01*
Y20886D01*
X-5201Y20905D01*
X-5118Y20968D01*
X-5055Y21051D01*
X-5015Y21147D01*
X-5001Y21250D01*
X-5015Y21353D01*
X-5055Y21449D01*
X-5108Y21519D01*
X-5108Y21565D01*
X-5103Y21583D01*
X-5097Y21587D01*
X-4842Y21842D01*
X-4795Y21855D01*
Y21855D01*
X-4795Y21855D01*
X-4005D01*
Y22645D01*
X-4795D01*
Y22321D01*
X-4964Y22153D01*
X-5011Y22176D01*
X-5001Y22250D01*
X-5015Y22353D01*
X-5055Y22449D01*
X-5118Y22532D01*
X-5201Y22595D01*
X-5297Y22635D01*
X-5400Y22649D01*
X-5503Y22635D01*
X-5599Y22595D01*
X-5682Y22532D01*
X-5745Y22449D01*
X-5785Y22353D01*
X-5799Y22250D01*
X-5785Y22147D01*
X-5766Y22100D01*
X-5963Y21903D01*
X-6121D01*
X-6138Y21953D01*
X-6118Y21968D01*
X-6055Y22051D01*
X-6015Y22147D01*
X-6001Y22250D01*
X-6015Y22353D01*
X-6055Y22449D01*
X-6118Y22532D01*
X-6201Y22595D01*
X-6242Y22613D01*
Y22849D01*
X-6157D01*
Y23403D01*
D02*
G37*
G36*
X-4450Y21642D02*
X-4503Y21635D01*
X-4599Y21595D01*
X-4682Y21532D01*
X-4745Y21449D01*
X-4785Y21353D01*
X-4792Y21300D01*
X-4450D01*
Y21642D01*
D02*
G37*
G36*
X0Y23238D02*
X-170Y23224D01*
X-336Y23184D01*
X-494Y23119D01*
X-639Y23030D01*
X-769Y22919D01*
X-880Y22789D01*
X-969Y22644D01*
X-1034Y22486D01*
X-1074Y22320D01*
X-1088Y22150D01*
X-1074Y21980D01*
X-1034Y21814D01*
X-969Y21656D01*
X-880Y21511D01*
X-769Y21381D01*
X-639Y21270D01*
X-494Y21181D01*
X-336Y21116D01*
X-170Y21076D01*
X0Y21062D01*
X170Y21076D01*
X336Y21116D01*
X494Y21181D01*
X639Y21270D01*
X769Y21381D01*
X880Y21511D01*
X969Y21656D01*
X1034Y21814D01*
X1074Y21980D01*
X1088Y22150D01*
X1074Y22320D01*
X1034Y22486D01*
X969Y22644D01*
X880Y22789D01*
X769Y22919D01*
X639Y23030D01*
X494Y23119D01*
X336Y23184D01*
X170Y23224D01*
X0Y23238D01*
D02*
G37*
G36*
X-4008Y21200D02*
X-4350D01*
Y20858D01*
X-4297Y20865D01*
X-4201Y20905D01*
X-4118Y20968D01*
X-4055Y21051D01*
X-4015Y21147D01*
X-4008Y21200D01*
D02*
G37*
G36*
X-19902Y22645D02*
X-20692D01*
Y21855D01*
X-19902D01*
Y22645D01*
D02*
G37*
G36*
X-5855Y23076D02*
X-6043D01*
Y22849D01*
X-5855D01*
Y23076D01*
D02*
G37*
G36*
X-7683Y22698D02*
X-8068D01*
Y22431D01*
X-7683D01*
Y22698D01*
D02*
G37*
G36*
X-8168D02*
X-8553D01*
Y22431D01*
X-8168D01*
Y22698D01*
D02*
G37*
G36*
X-5567Y23403D02*
X-5755D01*
Y23176D01*
X-5567D01*
Y23403D01*
D02*
G37*
G36*
X-5855D02*
X-6043D01*
Y23176D01*
X-5855D01*
Y23403D01*
D02*
G37*
G36*
X-5567Y23076D02*
X-5755D01*
Y22849D01*
X-5567D01*
Y23076D01*
D02*
G37*
G36*
X-8168Y22332D02*
X-8553D01*
Y22065D01*
X-8168D01*
Y22332D01*
D02*
G37*
G36*
X-18118Y22649D02*
X-18221Y22635D01*
X-18317Y22595D01*
X-18400Y22532D01*
X-18463Y22449D01*
X-18503Y22353D01*
X-18517Y22250D01*
X-18503Y22147D01*
X-18484Y22100D01*
X-18673Y21912D01*
X-18723Y21932D01*
Y22200D01*
X-19068D01*
Y21855D01*
X-18783D01*
X-18774Y21849D01*
X-18746Y21805D01*
X-18753Y21768D01*
Y19645D01*
X-19068D01*
Y19250D01*
Y18855D01*
X-18753D01*
Y18050D01*
X-18741Y17991D01*
X-18708Y17942D01*
X-16468Y15702D01*
X-16418Y15669D01*
X-16360Y15657D01*
X-14363D01*
X-14336Y15607D01*
X-14357Y15576D01*
X-14373Y15495D01*
X-14357Y15414D01*
X-14332Y15376D01*
X-14314Y15337D01*
X-14332Y15299D01*
X-14357Y15261D01*
X-14373Y15180D01*
X-14357Y15099D01*
X-14311Y15030D01*
Y15015D01*
X-14357Y14946D01*
X-14363Y14915D01*
X-13924D01*
X-13486D01*
X-13492Y14946D01*
X-13538Y15015D01*
Y15030D01*
X-13492Y15099D01*
X-13476Y15180D01*
X-13492Y15261D01*
X-13517Y15299D01*
X-13535Y15337D01*
X-13517Y15376D01*
X-13492Y15414D01*
X-13476Y15495D01*
X-13492Y15576D01*
X-13538Y15645D01*
Y15660D01*
X-13492Y15729D01*
X-13476Y15810D01*
X-13492Y15891D01*
X-13538Y15960D01*
Y15975D01*
X-13492Y16044D01*
X-13476Y16125D01*
X-13492Y16206D01*
X-13538Y16275D01*
X-13607Y16321D01*
X-13688Y16337D01*
X-14161D01*
X-14242Y16321D01*
X-14307Y16278D01*
X-16329D01*
X-17965Y17914D01*
Y18886D01*
X-17919Y18905D01*
X-17836Y18968D01*
X-17773Y19051D01*
X-17733Y19147D01*
X-17719Y19250D01*
X-17733Y19353D01*
X-17773Y19449D01*
X-17836Y19532D01*
X-17919Y19595D01*
X-18015Y19635D01*
X-18118Y19649D01*
X-18221Y19635D01*
X-18317Y19595D01*
X-18397Y19534D01*
X-18417Y19538D01*
X-18447Y19548D01*
Y21705D01*
X-18268Y21884D01*
X-18221Y21865D01*
X-18118Y21851D01*
X-18015Y21865D01*
X-17919Y21905D01*
X-17836Y21968D01*
X-17773Y22051D01*
X-17733Y22147D01*
X-17719Y22250D01*
X-17733Y22353D01*
X-17773Y22449D01*
X-17836Y22532D01*
X-17919Y22595D01*
X-18015Y22635D01*
X-18118Y22649D01*
D02*
G37*
G36*
X-19168Y22200D02*
X-19513D01*
Y21855D01*
X-19168D01*
Y22200D01*
D02*
G37*
G36*
X-18723Y22645D02*
X-19068D01*
Y22300D01*
X-18723D01*
Y22645D01*
D02*
G37*
G36*
X-19168D02*
X-19513D01*
Y22300D01*
X-19168D01*
Y22645D01*
D02*
G37*
G36*
X-7683Y22332D02*
X-8068D01*
Y22065D01*
X-7683D01*
Y22332D01*
D02*
G37*
G36*
X-17118Y19649D02*
X-17221Y19635D01*
X-17317Y19595D01*
X-17400Y19532D01*
X-17463Y19449D01*
X-17503Y19353D01*
X-17517Y19250D01*
X-17503Y19147D01*
X-17463Y19051D01*
X-17400Y18968D01*
X-17317Y18905D01*
X-17221Y18865D01*
X-17118Y18851D01*
X-17015Y18865D01*
X-16919Y18905D01*
X-16836Y18968D01*
X-16773Y19051D01*
X-16733Y19147D01*
X-16719Y19250D01*
X-16733Y19353D01*
X-16773Y19449D01*
X-16836Y19532D01*
X-16919Y19595D01*
X-17015Y19635D01*
X-17118Y19649D01*
D02*
G37*
G36*
X-20297D02*
X-20400Y19635D01*
X-20496Y19595D01*
X-20579Y19532D01*
X-20642Y19449D01*
X-20682Y19353D01*
X-20696Y19250D01*
X-20682Y19147D01*
X-20642Y19051D01*
X-20579Y18968D01*
X-20496Y18905D01*
X-20400Y18865D01*
X-20297Y18851D01*
X-20194Y18865D01*
X-20098Y18905D01*
X-20015Y18968D01*
X-19952Y19051D01*
X-19912Y19147D01*
X-19898Y19250D01*
X-19912Y19353D01*
X-19952Y19449D01*
X-20015Y19532D01*
X-20098Y19595D01*
X-20194Y19635D01*
X-20297Y19649D01*
D02*
G37*
G36*
X-1050Y20575D02*
X-1153Y20562D01*
X-1249Y20522D01*
X-1332Y20459D01*
X-1395Y20376D01*
X-1435Y20280D01*
X-1449Y20177D01*
X-1435Y20074D01*
X-1395Y19977D01*
X-1332Y19895D01*
X-1249Y19831D01*
X-1153Y19792D01*
X-1050Y19778D01*
X-953Y19791D01*
X-204Y19042D01*
Y18684D01*
X-250Y18665D01*
X-664Y19079D01*
X-651Y19177D01*
X-665Y19280D01*
X-705Y19376D01*
X-768Y19459D01*
X-851Y19522D01*
X-947Y19562D01*
X-1050Y19575D01*
X-1153Y19562D01*
X-1249Y19522D01*
X-1332Y19459D01*
X-1395Y19376D01*
X-1435Y19280D01*
X-1449Y19177D01*
X-1435Y19074D01*
X-1395Y18977D01*
X-1332Y18895D01*
X-1249Y18831D01*
X-1153Y18792D01*
X-1050Y18778D01*
X-953Y18791D01*
X-504Y18342D01*
Y17001D01*
X-554Y16995D01*
X-563Y17033D01*
X-626Y17185D01*
X-712Y17325D01*
X-819Y17450D01*
X-944Y17557D01*
X-1084Y17643D01*
X-1236Y17706D01*
X-1396Y17744D01*
X-1560Y17757D01*
X-1724Y17744D01*
X-1884Y17706D01*
X-2036Y17643D01*
X-2176Y17557D01*
X-2301Y17450D01*
X-2408Y17325D01*
X-2451Y17255D01*
X-2501Y17269D01*
Y18438D01*
X-2147Y18791D01*
X-2050Y18778D01*
X-1947Y18792D01*
X-1851Y18831D01*
X-1768Y18895D01*
X-1705Y18977D01*
X-1665Y19074D01*
X-1651Y19177D01*
X-1665Y19280D01*
X-1705Y19376D01*
X-1768Y19459D01*
X-1851Y19522D01*
X-1947Y19562D01*
X-2050Y19575D01*
X-2153Y19562D01*
X-2249Y19522D01*
X-2332Y19459D01*
X-2395Y19376D01*
X-2435Y19280D01*
X-2449Y19177D01*
X-2436Y19079D01*
X-2755Y18760D01*
X-2801Y18780D01*
Y19138D01*
X-2157Y19781D01*
X-1655D01*
Y20572D01*
X-2445D01*
Y20070D01*
X-3149Y19366D01*
X-3193Y19300D01*
X-3209Y19222D01*
Y13217D01*
X-3193Y13139D01*
X-3149Y13073D01*
X-2535Y12458D01*
X-2540Y12444D01*
X-2555Y12331D01*
X-2540Y12218D01*
X-2497Y12113D01*
X-2427Y12023D01*
X-2337Y11953D01*
X-2232Y11910D01*
X-2119Y11895D01*
X-2006Y11910D01*
X-1901Y11953D01*
X-1810Y12023D01*
X-1741Y12113D01*
X-1697Y12218D01*
X-1682Y12331D01*
X-1697Y12444D01*
X-1741Y12549D01*
X-1810Y12640D01*
X-1901Y12709D01*
X-2006Y12753D01*
X-2119Y12768D01*
X-2232Y12753D01*
X-2246Y12747D01*
X-2801Y13301D01*
Y13750D01*
X-2755Y13769D01*
X-2535Y13549D01*
X-2540Y13535D01*
X-2555Y13422D01*
X-2540Y13309D01*
X-2497Y13203D01*
X-2427Y13113D01*
X-2337Y13044D01*
X-2232Y13000D01*
X-2119Y12985D01*
X-2006Y13000D01*
X-1901Y13044D01*
X-1810Y13113D01*
X-1741Y13203D01*
X-1697Y13309D01*
X-1682Y13422D01*
X-1697Y13535D01*
X-1741Y13640D01*
X-1810Y13730D01*
X-1901Y13800D01*
X-2006Y13843D01*
X-2119Y13858D01*
X-2232Y13843D01*
X-2246Y13837D01*
X-2501Y14092D01*
Y16149D01*
X-2451Y16163D01*
X-2408Y16093D01*
X-2301Y15968D01*
X-2176Y15861D01*
X-2036Y15775D01*
X-1884Y15712D01*
X-1724Y15674D01*
X-1560Y15661D01*
X-1396Y15674D01*
X-1236Y15712D01*
X-1084Y15775D01*
X-944Y15861D01*
X-819Y15968D01*
X-712Y16093D01*
X-626Y16233D01*
X-563Y16385D01*
X-554Y16423D01*
X-504Y16417D01*
Y14584D01*
X-760Y14328D01*
X-783Y14345D01*
X-888Y14388D01*
X-1001Y14403D01*
X-1114Y14388D01*
X-1219Y14345D01*
X-1309Y14276D01*
X-1379Y14185D01*
X-1422Y14080D01*
X-1437Y13967D01*
X-1422Y13854D01*
X-1379Y13749D01*
X-1309Y13658D01*
X-1219Y13589D01*
X-1114Y13545D01*
X-1001Y13531D01*
X-888Y13545D01*
X-783Y13589D01*
X-692Y13658D01*
X-623Y13749D01*
X-579Y13854D01*
X-567Y13944D01*
X-250Y14261D01*
X-204Y14242D01*
Y13962D01*
X-874Y13292D01*
X-888Y13298D01*
X-1001Y13313D01*
X-1114Y13298D01*
X-1219Y13254D01*
X-1309Y13185D01*
X-1379Y13095D01*
X-1422Y12989D01*
X-1437Y12876D01*
X-1422Y12763D01*
X-1379Y12658D01*
X-1309Y12568D01*
X-1219Y12498D01*
X-1114Y12455D01*
X-1001Y12440D01*
X-888Y12455D01*
X-783Y12498D01*
X-692Y12568D01*
X-623Y12658D01*
X-579Y12763D01*
X-564Y12876D01*
X-579Y12989D01*
X-585Y13004D01*
X144Y13733D01*
X188Y13799D01*
X204Y13877D01*
Y19127D01*
X188Y19205D01*
X144Y19271D01*
X-664Y20079D01*
X-651Y20177D01*
X-665Y20280D01*
X-705Y20376D01*
X-768Y20459D01*
X-851Y20522D01*
X-947Y20562D01*
X-1050Y20575D01*
D02*
G37*
G36*
X-10718Y19193D02*
X-11060D01*
X-11053Y19140D01*
X-11013Y19044D01*
X-10950Y18962D01*
X-10867Y18898D01*
X-10771Y18858D01*
X-10718Y18851D01*
Y19193D01*
D02*
G37*
G36*
X-15118Y19649D02*
X-15221Y19635D01*
X-15317Y19595D01*
X-15400Y19532D01*
X-15463Y19449D01*
X-15503Y19353D01*
X-15517Y19250D01*
X-15503Y19147D01*
X-15463Y19051D01*
X-15400Y18968D01*
X-15317Y18905D01*
X-15221Y18865D01*
X-15118Y18851D01*
X-15015Y18865D01*
X-14919Y18905D01*
X-14836Y18968D01*
X-14773Y19051D01*
X-14733Y19147D01*
X-14719Y19250D01*
X-14733Y19353D01*
X-14773Y19449D01*
X-14836Y19532D01*
X-14919Y19595D01*
X-15015Y19635D01*
X-15118Y19649D01*
D02*
G37*
G36*
X-16118D02*
X-16221Y19635D01*
X-16317Y19595D01*
X-16400Y19532D01*
X-16463Y19449D01*
X-16503Y19353D01*
X-16517Y19250D01*
X-16503Y19147D01*
X-16463Y19051D01*
X-16400Y18968D01*
X-16317Y18905D01*
X-16221Y18865D01*
X-16118Y18851D01*
X-16015Y18865D01*
X-15919Y18905D01*
X-15836Y18968D01*
X-15773Y19051D01*
X-15733Y19147D01*
X-15719Y19250D01*
X-15733Y19353D01*
X-15773Y19449D01*
X-15836Y19532D01*
X-15919Y19595D01*
X-16015Y19635D01*
X-16118Y19649D01*
D02*
G37*
G36*
X-15725Y11922D02*
X-16319D01*
Y11348D01*
X-15725D01*
Y11502D01*
X-15657D01*
Y11417D01*
X-15103D01*
Y11893D01*
X-15657D01*
Y11808D01*
X-15725D01*
Y11922D01*
D02*
G37*
G36*
X-1001Y12222D02*
X-1114Y12207D01*
X-1219Y12164D01*
X-1309Y12094D01*
X-1379Y12004D01*
X-1422Y11899D01*
X-1437Y11786D01*
X-1422Y11673D01*
X-1379Y11568D01*
X-1309Y11477D01*
X-1219Y11408D01*
X-1114Y11364D01*
X-1001Y11349D01*
X-888Y11364D01*
X-783Y11408D01*
X-692Y11477D01*
X-623Y11568D01*
X-579Y11673D01*
X-564Y11786D01*
X-579Y11899D01*
X-623Y12004D01*
X-692Y12094D01*
X-783Y12164D01*
X-888Y12207D01*
X-1001Y12222D01*
D02*
G37*
G36*
X-2119Y11677D02*
X-2232Y11662D01*
X-2337Y11618D01*
X-2427Y11549D01*
X-2497Y11459D01*
X-2540Y11353D01*
X-2555Y11241D01*
X-2540Y11128D01*
X-2497Y11022D01*
X-2427Y10932D01*
X-2337Y10863D01*
X-2232Y10819D01*
X-2119Y10804D01*
X-2006Y10819D01*
X-1901Y10863D01*
X-1810Y10932D01*
X-1741Y11022D01*
X-1697Y11128D01*
X-1682Y11241D01*
X-1697Y11353D01*
X-1741Y11459D01*
X-1810Y11549D01*
X-1901Y11618D01*
X-2006Y11662D01*
X-2119Y11677D01*
D02*
G37*
G36*
X-13486Y14185D02*
X-13924D01*
X-14363D01*
X-14357Y14154D01*
X-14311Y14085D01*
Y14070D01*
X-14357Y14001D01*
X-14373Y13920D01*
X-14357Y13839D01*
X-14332Y13801D01*
X-14314Y13763D01*
X-14332Y13724D01*
X-14357Y13686D01*
X-14373Y13605D01*
X-14357Y13524D01*
X-14311Y13455D01*
Y13440D01*
X-14357Y13371D01*
X-14373Y13290D01*
X-14357Y13209D01*
X-14336Y13178D01*
X-14363Y13128D01*
X-14650D01*
X-14709Y13116D01*
X-14758Y13083D01*
X-15359Y12483D01*
X-15657D01*
Y12007D01*
X-15103D01*
Y12306D01*
X-14587Y12822D01*
X-14307D01*
X-14242Y12779D01*
X-14161Y12763D01*
X-13688D01*
X-13607Y12779D01*
X-13538Y12825D01*
X-13492Y12894D01*
X-13476Y12975D01*
X-13492Y13056D01*
X-13538Y13125D01*
Y13140D01*
X-13492Y13209D01*
X-13476Y13290D01*
X-13492Y13371D01*
X-13538Y13440D01*
Y13455D01*
X-13492Y13524D01*
X-13476Y13605D01*
X-13492Y13686D01*
X-13517Y13724D01*
X-13535Y13763D01*
X-13517Y13801D01*
X-13492Y13839D01*
X-13476Y13920D01*
X-13492Y14001D01*
X-13538Y14070D01*
Y14085D01*
X-13492Y14154D01*
X-13486Y14185D01*
D02*
G37*
G36*
X-12330Y12774D02*
X-12411Y12758D01*
X-12480Y12712D01*
X-12495D01*
X-12564Y12758D01*
X-12645Y12774D01*
X-12726Y12758D01*
X-12795Y12712D01*
X-12810D01*
X-12879Y12758D01*
X-12960Y12774D01*
X-13041Y12758D01*
X-13110Y12712D01*
X-13125D01*
X-13194Y12758D01*
X-13275Y12774D01*
X-13356Y12758D01*
X-13425Y12712D01*
X-13471Y12643D01*
X-13487Y12562D01*
Y12089D01*
X-13471Y12008D01*
X-13425Y11939D01*
X-13356Y11893D01*
X-13275Y11877D01*
X-13194Y11893D01*
X-13125Y11939D01*
X-13110D01*
X-13041Y11893D01*
X-12960Y11877D01*
X-12879Y11893D01*
X-12810Y11939D01*
X-12795D01*
X-12726Y11893D01*
X-12645Y11877D01*
X-12564Y11893D01*
X-12495Y11939D01*
X-12480D01*
X-12411Y11893D01*
X-12330Y11877D01*
X-12249Y11893D01*
X-12180Y11939D01*
X-12165D01*
X-12096Y11893D01*
X-12065Y11887D01*
Y12326D01*
Y12764D01*
X-12096Y12758D01*
X-12165Y12712D01*
X-12180D01*
X-12249Y12758D01*
X-12330Y12774D01*
D02*
G37*
G36*
X-16435Y13253D02*
X-20828D01*
Y9549D01*
X-16435D01*
Y12112D01*
X-16319D01*
Y11978D01*
X-15725D01*
Y12552D01*
X-16319D01*
Y12418D01*
X-16435D01*
Y13253D01*
D02*
G37*
G36*
X-12168Y19642D02*
X-12221Y19635D01*
X-12317Y19595D01*
X-12400Y19532D01*
X-12463Y19449D01*
X-12503Y19353D01*
X-12510Y19300D01*
X-12168D01*
Y19642D01*
D02*
G37*
G36*
X-19168Y19645D02*
X-19513D01*
Y19300D01*
X-19168D01*
Y19645D01*
D02*
G37*
G36*
X-20297Y20649D02*
X-20400Y20635D01*
X-20496Y20595D01*
X-20579Y20532D01*
X-20642Y20449D01*
X-20682Y20353D01*
X-20696Y20250D01*
X-20682Y20147D01*
X-20642Y20051D01*
X-20579Y19968D01*
X-20496Y19905D01*
X-20400Y19865D01*
X-20297Y19851D01*
X-20194Y19865D01*
X-20098Y19905D01*
X-20015Y19968D01*
X-19952Y20051D01*
X-19912Y20147D01*
X-19898Y20250D01*
X-19912Y20353D01*
X-19952Y20449D01*
X-20015Y20532D01*
X-20098Y20595D01*
X-20194Y20635D01*
X-20297Y20649D01*
D02*
G37*
G36*
X-7683Y19921D02*
X-8068D01*
Y19654D01*
X-7683D01*
Y19921D01*
D02*
G37*
G36*
X-8168D02*
X-8553D01*
Y19654D01*
X-8168D01*
Y19921D01*
D02*
G37*
G36*
X-12068Y19642D02*
Y19300D01*
X-11726D01*
X-11733Y19353D01*
X-11773Y19449D01*
X-11836Y19532D01*
X-11919Y19595D01*
X-12015Y19635D01*
X-12068Y19642D01*
D02*
G37*
G36*
X-11726Y19200D02*
X-12068D01*
Y18858D01*
X-12015Y18865D01*
X-11919Y18905D01*
X-11836Y18968D01*
X-11773Y19051D01*
X-11733Y19147D01*
X-11726Y19200D01*
D02*
G37*
G36*
X-12168D02*
X-12510D01*
X-12503Y19147D01*
X-12463Y19051D01*
X-12400Y18968D01*
X-12317Y18905D01*
X-12221Y18865D01*
X-12168Y18858D01*
Y19200D01*
D02*
G37*
G36*
X-19168D02*
X-19513D01*
Y18855D01*
X-19168D01*
Y19200D01*
D02*
G37*
G36*
X-10718Y19636D02*
X-10771Y19629D01*
X-10867Y19589D01*
X-10950Y19525D01*
X-11013Y19443D01*
X-11053Y19347D01*
X-11060Y19293D01*
X-10718D01*
Y19636D01*
D02*
G37*
G36*
X-7683Y19554D02*
X-8068D01*
Y19288D01*
X-7683D01*
Y19554D01*
D02*
G37*
G36*
X-8168D02*
X-8553D01*
Y19288D01*
X-8168D01*
Y19554D01*
D02*
G37*
%LPD*%
G36*
X-9618Y18848D02*
X-9376D01*
Y16441D01*
X-9480Y16337D01*
X-9712D01*
X-9793Y16321D01*
X-9862Y16275D01*
X-9908Y16206D01*
X-9924Y16125D01*
X-9908Y16044D01*
X-9862Y15975D01*
Y15960D01*
X-9898Y15906D01*
X-9980D01*
X-10038Y15894D01*
X-10088Y15861D01*
X-10245Y15704D01*
X-10292Y15728D01*
X-10287Y15750D01*
Y16336D01*
X-10237Y16363D01*
X-10206Y16342D01*
X-10125Y16326D01*
X-10044Y16342D01*
X-9975Y16388D01*
X-9929Y16457D01*
X-9913Y16538D01*
Y17011D01*
X-9929Y17092D01*
X-9972Y17157D01*
Y18848D01*
X-9718D01*
Y19243D01*
X-9618D01*
Y18848D01*
D02*
G37*
D10*
X-5805Y23126D02*
D03*
X-6395D02*
D03*
D11*
X-10313Y5730D02*
D03*
Y5139D02*
D03*
X-9601Y5139D02*
D03*
Y5730D02*
D03*
X-8888Y5730D02*
D03*
Y5139D02*
D03*
X-20600Y6439D02*
D03*
Y5848D02*
D03*
X-19813Y6439D02*
D03*
Y5848D02*
D03*
X-19025Y6439D02*
D03*
Y5848D02*
D03*
X-16663Y5848D02*
D03*
Y6439D02*
D03*
X-17450Y5848D02*
D03*
Y6439D02*
D03*
X-18238Y5848D02*
D03*
Y6439D02*
D03*
X-15300Y5139D02*
D03*
Y5730D02*
D03*
X-14588Y5730D02*
D03*
Y5139D02*
D03*
X-13875Y5139D02*
D03*
Y5730D02*
D03*
X-11025Y5730D02*
D03*
Y5139D02*
D03*
X-8100Y6814D02*
D03*
Y6224D02*
D03*
X-15380Y12245D02*
D03*
Y11655D02*
D03*
D12*
X-8118Y20667D02*
D03*
Y19604D02*
D03*
X-8118Y21319D02*
D03*
Y22381D02*
D03*
D13*
X-9878Y3278D02*
D03*
Y325D02*
D03*
X-14250Y3278D02*
D03*
Y325D02*
D03*
D14*
X-17632Y4961D02*
D03*
X-19632D02*
D03*
Y7326D02*
D03*
X-17632D02*
D03*
D15*
X-18632Y886D02*
D03*
Y11401D02*
D03*
D16*
X-13100Y4992D02*
D03*
Y5622D02*
D03*
X-11669Y4992D02*
D03*
Y5622D02*
D03*
X-8107Y4992D02*
D03*
Y5622D02*
D03*
X-16022Y12265D02*
D03*
Y11635D02*
D03*
D17*
X-9476Y12975D02*
D03*
Y13290D02*
D03*
Y13605D02*
D03*
Y13920D02*
D03*
Y14235D02*
D03*
Y14550D02*
D03*
Y14865D02*
D03*
Y15180D02*
D03*
Y15495D02*
D03*
Y15810D02*
D03*
Y16125D02*
D03*
X-13924D02*
D03*
Y15810D02*
D03*
Y15495D02*
D03*
Y15180D02*
D03*
Y14865D02*
D03*
Y14550D02*
D03*
Y14235D02*
D03*
Y13920D02*
D03*
Y13605D02*
D03*
Y13290D02*
D03*
Y12975D02*
D03*
D18*
X-10125Y16774D02*
D03*
X-10440D02*
D03*
X-10755D02*
D03*
X-11070D02*
D03*
X-11385D02*
D03*
X-11700D02*
D03*
X-12015D02*
D03*
X-12330D02*
D03*
X-12645D02*
D03*
X-12960D02*
D03*
X-13275D02*
D03*
Y12326D02*
D03*
X-12960D02*
D03*
X-12645D02*
D03*
X-12330D02*
D03*
X-12015D02*
D03*
X-11700D02*
D03*
X-11385D02*
D03*
X-11070D02*
D03*
X-10755D02*
D03*
X-10440D02*
D03*
X-10125D02*
D03*
D19*
X-17450Y6439D02*
Y6864D01*
X-17632Y7045D02*
X-17450Y6864D01*
X-1839Y7411D02*
X-1001Y8249D01*
X-3239Y7411D02*
X-1839D01*
X-4622Y6028D02*
X-3239Y7411D01*
X-4622Y555D02*
Y6028D01*
X-5622Y6478D02*
X-4050Y8050D01*
X-5622Y555D02*
Y6478D01*
X-2295Y8050D02*
X-2214Y7969D01*
X-4050Y8050D02*
X-2295D01*
X-8100Y20835D02*
Y21300D01*
X-10173Y21748D02*
X-8548D01*
X-6622Y-445D02*
X-5966Y-1100D01*
X-4622Y-445D02*
X-4126Y50D01*
X-5277Y-1100D02*
X-4622Y-445D01*
X-3126Y50D02*
X-2622Y555D01*
X-4126Y50D02*
X-3126D01*
X-5966Y-1100D02*
X-5277D01*
X-17551Y7326D02*
X-16663Y6439D01*
X-17632Y7326D02*
X-17551D01*
X-17632Y7045D02*
Y7326D01*
X-18238Y6439D02*
X-17632Y7045D01*
X-19632Y5242D02*
Y5667D01*
Y5242D02*
X-19025Y5848D01*
X-19632Y4961D02*
Y5242D01*
X-19813Y5848D02*
X-19632Y5667D01*
X-20600Y5848D02*
X-19713Y4961D01*
X-19632D01*
X-9878Y325D02*
X-9648Y555D01*
X-10668Y22243D02*
X-10173Y21748D01*
X-3005Y13217D02*
X-2119Y12331D01*
X-3005Y19222D02*
X-2050Y20177D01*
X-3005Y13217D02*
Y19222D01*
X-2705Y18522D02*
X-2050Y19177D01*
X-2705Y14007D02*
X-2119Y13422D01*
X-2705Y14007D02*
Y18522D01*
X-14250Y325D02*
Y850D01*
X-1050Y20177D02*
X0Y19127D01*
Y13877D02*
Y19127D01*
X-1001Y12876D02*
X0Y13877D01*
X-833Y13967D02*
X-300Y14500D01*
Y18427D01*
X-1050Y19177D02*
X-300Y18427D01*
X-1001Y13967D02*
X-833D01*
X-8285Y20650D02*
X-8100Y20835D01*
X-8548Y21748D02*
X-8100Y21300D01*
D20*
X-1001Y8249D02*
Y8514D01*
X-8700Y20650D02*
X-8285D01*
X-8800Y20550D02*
X-8700Y20650D01*
X-12960Y16774D02*
Y19250D01*
X-9819Y15438D02*
X-9476D01*
X-11100Y5855D02*
X-11000Y5755D01*
X-10668Y21218D02*
Y21243D01*
Y21218D02*
X-10125Y20675D01*
X-18118Y17851D02*
Y19250D01*
X-9668Y21243D02*
X-9223Y20798D01*
X-10100Y15157D02*
X-9819Y15438D01*
X-10100Y14967D02*
Y15157D01*
X-10450Y14617D02*
X-10100Y14967D01*
X-10450Y13850D02*
Y14617D01*
X-10650Y13650D02*
X-10450Y13850D01*
X-9014Y6814D02*
X-8100D01*
X-9476Y15438D02*
Y15495D01*
X-10300Y15050D02*
Y15433D01*
X-11150Y14200D02*
X-10300Y15050D01*
X-9532Y15753D02*
X-9476Y15810D01*
X-10300Y15433D02*
X-9980Y15753D01*
X-11100Y5855D02*
Y6400D01*
X-11700Y12326D02*
Y14550D01*
X-6400Y22250D02*
X-6395Y22255D01*
Y23126D01*
X-10182Y12269D02*
X-10125Y12326D01*
X-10182Y11982D02*
Y12269D01*
X-11614Y10550D02*
X-10182Y11982D01*
X-12750Y10550D02*
X-11614D01*
X-10497Y12269D02*
X-10440Y12326D01*
X-10497Y11982D02*
Y12269D01*
X-11329Y11150D02*
X-10497Y11982D01*
X-12200Y11150D02*
X-11329D01*
X-12015Y14865D02*
X-11700Y14550D01*
X-11700Y14550D02*
X-11700Y14550D01*
X-9980Y15753D02*
X-9532D01*
X-10313Y5730D02*
X-10313Y5730D01*
X-11025Y5730D02*
X-10313D01*
X-11025D02*
X-11000Y5755D01*
X-9601Y5139D02*
X-9601Y5139D01*
X-9957Y5139D02*
X-9601D01*
X-9950Y5146D02*
Y6400D01*
X-9957Y5139D02*
X-9950Y5146D01*
X-10313Y5139D02*
X-9957D01*
X-8981Y14607D02*
X-8800Y14788D01*
Y20550D01*
X-9276Y14607D02*
X-8981D01*
X-9332Y14550D02*
X-9276Y14607D01*
X-11700Y14550D02*
X-11700Y14550D01*
X-13924Y14550D02*
X-11700D01*
X-12015Y14865D02*
Y16774D01*
X-13118Y19250D02*
X-12960D01*
X-13563Y17063D02*
Y21805D01*
Y17063D02*
X-13275Y16774D01*
X-13563Y21805D02*
X-13118Y22250D01*
X-16392Y16125D02*
X-13924D01*
X-18118Y17851D02*
X-16392Y16125D01*
X-18600Y21768D02*
X-18118Y22250D01*
X-18600Y18050D02*
Y21768D01*
Y18050D02*
X-16360Y15810D01*
X-13924D01*
X-5900Y21750D02*
X-5400Y22250D01*
X-5205Y21695D02*
X-4650Y22250D01*
X-5584Y21695D02*
X-5205D01*
X-5845Y21434D02*
X-5584Y21695D01*
X-5400Y16534D02*
Y21250D01*
X-8902Y13032D02*
X-5400Y16534D01*
X-9419Y13032D02*
X-8902D01*
X-9476Y12975D02*
X-9419Y13032D01*
X-4650Y22250D02*
X-4400D01*
X-5845Y16372D02*
Y21434D01*
X-8870Y13347D02*
X-5845Y16372D01*
X-9419Y13347D02*
X-8870D01*
X-9476Y13290D02*
X-9419Y13347D01*
X-9476Y13605D02*
X-8895D01*
X-6617Y21750D02*
X-5900D01*
X-9476Y13920D02*
X-9189D01*
X-2214Y7969D02*
X-2119D01*
X-8888Y4211D02*
Y5139D01*
X-9821Y3278D02*
X-8888Y4211D01*
X-9878Y3278D02*
X-9821D01*
X-8107Y6217D02*
X-8100Y6224D01*
X-8107Y5622D02*
Y6217D01*
X-8888Y4211D02*
X-8107Y4992D01*
X-8888Y5730D02*
X-8888Y5730D01*
X-9601Y5730D02*
X-8888D01*
X-13875Y5139D02*
X-13393Y5622D01*
X-13100D01*
X-13875Y5139D02*
X-13875Y5139D01*
X-14588Y5139D02*
X-13875D01*
X-14588Y5730D02*
X-14588Y5730D01*
X-15300Y5730D02*
X-14588D01*
X-11508Y5622D02*
X-11025Y5139D01*
X-11669Y5622D02*
X-11508D01*
X-11593Y4992D02*
X-9878Y3278D01*
X-11669Y4992D02*
X-11593D01*
X-14250Y3842D02*
Y4089D01*
Y3842D02*
X-13100Y4992D01*
X-14250Y3278D02*
Y3842D01*
X-15300Y5139D02*
X-14250Y4089D01*
X-18632Y11401D02*
X-17768Y12265D01*
X-16022D01*
Y11635D02*
X-16002Y11655D01*
X-15380D01*
Y12245D02*
X-14650Y12975D01*
X-13924D01*
X-9476Y16125D02*
X-9223Y16378D01*
Y20798D01*
X-10125Y16774D02*
Y20675D01*
X-10755Y15995D02*
Y16774D01*
X-11450Y15200D02*
Y15300D01*
X-10755Y15995D01*
X-10850Y15200D02*
Y15340D01*
X-10440Y15750D01*
Y16774D01*
X-8895Y13605D02*
X-6900Y15600D01*
Y21467D01*
X-6617Y21750D01*
X-9189Y13920D02*
X-7100Y16009D01*
Y21550D01*
X-6400Y22250D01*
D21*
X-8355Y-445D02*
X-6622D01*
X-9648Y555D02*
X-6622D01*
X-15950Y2550D02*
X-14250Y850D01*
X-17632Y4232D02*
X-15950Y2550D01*
X-16808Y8158D02*
X-15950Y7300D01*
Y2550D02*
Y7300D01*
X-18800Y8158D02*
X-16808D01*
X-19632Y7326D02*
X-18800Y8158D01*
X-17632Y4232D02*
Y4961D01*
X-14250Y325D02*
X-9878D01*
X-8400Y-400D02*
X-8355Y-445D01*
D22*
X-1050Y19177D02*
D03*
X-2050D02*
D03*
X-1050Y20177D02*
D03*
X-2622Y555D02*
D03*
Y-445D02*
D03*
X-3622Y555D02*
D03*
Y-445D02*
D03*
X-4622Y555D02*
D03*
Y-445D02*
D03*
X-5622Y555D02*
D03*
Y-445D02*
D03*
X-6622Y555D02*
D03*
X-12118Y22250D02*
D03*
X-13118D02*
D03*
X-14118D02*
D03*
X-15118D02*
D03*
X-16118D02*
D03*
X-17118D02*
D03*
X-18118D02*
D03*
X-12118Y19250D02*
D03*
X-13118D02*
D03*
X-14118D02*
D03*
X-15118D02*
D03*
X-16118D02*
D03*
X-17118D02*
D03*
X-18118D02*
D03*
X-6400Y21250D02*
D03*
Y22250D02*
D03*
X-5400Y21250D02*
D03*
Y22250D02*
D03*
X-4400Y21250D02*
D03*
X-10668Y19243D02*
D03*
X-9668Y20243D02*
D03*
X-10668D02*
D03*
X-9668Y21243D02*
D03*
X-10668D02*
D03*
X-9668Y22243D02*
D03*
X-10668D02*
D03*
X-20297Y21250D02*
D03*
Y20250D02*
D03*
Y19250D02*
D03*
D23*
X-2050Y20177D02*
D03*
X-9668Y19243D02*
D03*
X-20297Y22250D02*
D03*
D24*
X-6622Y-445D02*
D03*
X-19118Y22250D02*
D03*
Y19250D02*
D03*
X-4400Y22250D02*
D03*
D25*
X-1560Y16709D02*
D03*
Y3591D02*
D03*
D26*
X-1001Y13967D02*
D03*
X-2119Y13422D02*
D03*
X-1001Y12876D02*
D03*
X-2119Y12331D02*
D03*
X-1001Y11786D02*
D03*
X-2119Y11241D02*
D03*
X-1001Y10695D02*
D03*
X-2119Y10150D02*
D03*
X-1001Y9605D02*
D03*
X-2119Y9059D02*
D03*
X-1001Y8514D02*
D03*
X-2119Y7969D02*
D03*
X-1001Y7424D02*
D03*
X-2119Y6878D02*
D03*
D27*
X-1001Y6333D02*
D03*
D28*
X-10650Y13650D02*
D03*
X-11150Y14200D02*
D03*
X-11100Y6400D02*
D03*
X-12200Y11150D02*
D03*
X-12750Y10550D02*
D03*
X-11700Y14550D02*
D03*
X-18532Y11236D02*
D03*
X-19800Y11200D02*
D03*
X-17300D02*
D03*
X-17400Y850D02*
D03*
X-19900D02*
D03*
X-18632Y886D02*
D03*
X-9878Y3278D02*
D03*
X-14250D02*
D03*
X-8400Y-445D02*
D03*
X-9014Y6814D02*
D03*
X-9950Y6400D02*
D03*
X-11450Y15200D02*
D03*
X-10850D02*
D03*
D29*
X0Y22150D02*
D03*
Y0D02*
D03*
M02*
