M48
;Layer_Color=9474304
;FILE_FORMAT=2:4
INCH,LZ
;TYPE=PLATED
T1F00S00C0.0280
T2F00S00C0.0354
T3F00S00C0.0394
T4F00S00C0.1260
%
T01
X015552Y0039
X01085Y0049
X0095Y00905
X0104Y01035
X0065Y008
X015Y0115
Y012575
Y01365
T02
X012215Y-000445
X013215
X014215
X015215
X016215
Y002555
X015215
X014215
X013215
X012215
X02013
Y003555
X011215Y002555
X010215
X009215
X006858
Y001555
Y000555
Y-000445
X0045
X0035
X0025
X009215
X010215
X011215
X0098Y014
X0088
Y015
X0098
Y016
X0088
X008858Y018161
X007858
X009858
X0055
X0045
X0035
X0025
X012215
X013215
X014215
X016573
X017573
Y01565
X016573
X018573
X019573
X02038Y01255
Y01155
X02013Y005555
Y004555
T03
X00185Y006968
Y007868
Y008768
Y009668
Y010568
X00285Y010118
Y009218
Y008318
Y007418
X00385Y007868
Y008768
Y009668
Y010568
X00285Y011018
X00385Y006968
T04
X019685Y0
X0
X00285Y003747
Y01379
X0Y017717
X019685
M30
