G04 Layer_Physical_Order=2*
G04 Layer_Color=16711680*
%FSLAX24Y24*%
%MOIN*%
G70*
G01*
G75*
%ADD20C,0.0100*%
%ADD21C,0.0591*%
%ADD22R,0.0591X0.0591*%
%ADD23R,0.0591X0.0591*%
%ADD24C,0.1969*%
%ADD25C,0.0500*%
G36*
X22847Y-1847D02*
X-1847D01*
Y22847D01*
X22847D01*
Y-1847D01*
D02*
G37*
%LPC*%
G36*
X18989Y7542D02*
X18935Y7535D01*
X18839Y7495D01*
X18757Y7432D01*
X18693Y7349D01*
X18654Y7253D01*
X18647Y7200D01*
X18989D01*
Y7542D01*
D02*
G37*
G36*
Y7100D02*
X18647D01*
X18654Y7047D01*
X18693Y6951D01*
X18757Y6868D01*
X18839Y6805D01*
X18935Y6765D01*
X18989Y6758D01*
Y7100D01*
D02*
G37*
G36*
X19431D02*
X19089D01*
Y6758D01*
X19142Y6765D01*
X19238Y6805D01*
X19321Y6868D01*
X19384Y6951D01*
X19424Y7047D01*
X19431Y7100D01*
D02*
G37*
G36*
X11796Y7800D02*
X11500D01*
Y7504D01*
X11541Y7509D01*
X11627Y7544D01*
X11700Y7600D01*
X11756Y7673D01*
X11791Y7759D01*
X11796Y7800D01*
D02*
G37*
G36*
X11400D02*
X11104D01*
X11109Y7759D01*
X11144Y7673D01*
X11200Y7600D01*
X11273Y7544D01*
X11359Y7509D01*
X11400Y7504D01*
Y7800D01*
D02*
G37*
G36*
X19089Y7542D02*
Y7200D01*
X19431D01*
X19424Y7253D01*
X19384Y7349D01*
X19321Y7432D01*
X19238Y7495D01*
X19142Y7535D01*
X19089Y7542D01*
D02*
G37*
G36*
X18039Y7549D02*
X17935Y7535D01*
X17839Y7495D01*
X17757Y7432D01*
X17693Y7349D01*
X17654Y7253D01*
X17640Y7150D01*
X17654Y7047D01*
X17693Y6951D01*
X17757Y6868D01*
X17839Y6805D01*
X17935Y6765D01*
X18039Y6751D01*
X18142Y6765D01*
X18238Y6805D01*
X18321Y6868D01*
X18384Y6951D01*
X18424Y7047D01*
X18437Y7150D01*
X18424Y7253D01*
X18384Y7349D01*
X18321Y7432D01*
X18238Y7495D01*
X18142Y7535D01*
X18039Y7549D01*
D02*
G37*
G36*
X18989Y6542D02*
X18935Y6535D01*
X18839Y6495D01*
X18757Y6432D01*
X18693Y6349D01*
X18654Y6253D01*
X18647Y6200D01*
X18989D01*
Y6542D01*
D02*
G37*
G36*
X3509Y6353D02*
Y6011D01*
X3851D01*
X3844Y6064D01*
X3804Y6161D01*
X3741Y6243D01*
X3658Y6306D01*
X3562Y6346D01*
X3509Y6353D01*
D02*
G37*
G36*
X18989Y6100D02*
X18647D01*
X18654Y6047D01*
X18693Y5951D01*
X18757Y5868D01*
X18839Y5805D01*
X18935Y5765D01*
X18989Y5758D01*
Y6100D01*
D02*
G37*
G36*
X3459Y7360D02*
X3355Y7346D01*
X3259Y7306D01*
X3177Y7243D01*
X3113Y7161D01*
X3074Y7064D01*
X3060Y6961D01*
X3074Y6858D01*
X3113Y6762D01*
X3177Y6679D01*
X3259Y6616D01*
X3355Y6576D01*
X3459Y6562D01*
X3562Y6576D01*
X3658Y6616D01*
X3741Y6679D01*
X3804Y6762D01*
X3844Y6858D01*
X3857Y6961D01*
X3844Y7064D01*
X3804Y7161D01*
X3741Y7243D01*
X3658Y7306D01*
X3562Y7346D01*
X3459Y7360D01*
D02*
G37*
G36*
X2459D02*
X2355Y7346D01*
X2259Y7306D01*
X2177Y7243D01*
X2113Y7161D01*
X2074Y7064D01*
X2060Y6961D01*
X2074Y6858D01*
X2113Y6762D01*
X2177Y6679D01*
X2259Y6616D01*
X2355Y6576D01*
X2459Y6562D01*
X2562Y6576D01*
X2658Y6616D01*
X2741Y6679D01*
X2804Y6762D01*
X2844Y6858D01*
X2857Y6961D01*
X2844Y7064D01*
X2804Y7161D01*
X2741Y7243D01*
X2658Y7306D01*
X2562Y7346D01*
X2459Y7360D01*
D02*
G37*
G36*
X19089Y6542D02*
Y6200D01*
X19431D01*
X19424Y6253D01*
X19384Y6349D01*
X19321Y6432D01*
X19238Y6495D01*
X19142Y6535D01*
X19089Y6542D01*
D02*
G37*
G36*
X18989Y8542D02*
X18935Y8535D01*
X18839Y8495D01*
X18757Y8432D01*
X18693Y8349D01*
X18654Y8253D01*
X18647Y8200D01*
X18989D01*
Y8542D01*
D02*
G37*
G36*
X2509Y8353D02*
Y8011D01*
X2851D01*
X2844Y8064D01*
X2804Y8160D01*
X2741Y8243D01*
X2658Y8306D01*
X2562Y8346D01*
X2509Y8353D01*
D02*
G37*
G36*
X2409D02*
X2355Y8346D01*
X2259Y8306D01*
X2177Y8243D01*
X2113Y8160D01*
X2074Y8064D01*
X2067Y8011D01*
X2409D01*
Y8353D01*
D02*
G37*
G36*
X10646Y9000D02*
X10350D01*
Y8704D01*
X10391Y8709D01*
X10477Y8744D01*
X10550Y8800D01*
X10606Y8873D01*
X10641Y8959D01*
X10646Y9000D01*
D02*
G37*
G36*
X10250D02*
X9954D01*
X9959Y8959D01*
X9994Y8873D01*
X10050Y8800D01*
X10123Y8744D01*
X10209Y8709D01*
X10250Y8704D01*
Y9000D01*
D02*
G37*
G36*
X19089Y8542D02*
Y8200D01*
X19431D01*
X19424Y8253D01*
X19384Y8349D01*
X19321Y8432D01*
X19238Y8495D01*
X19142Y8535D01*
X19089Y8542D01*
D02*
G37*
G36*
X11500Y8196D02*
Y7900D01*
X11796D01*
X11791Y7941D01*
X11756Y8027D01*
X11700Y8100D01*
X11627Y8156D01*
X11541Y8191D01*
X11500Y8196D01*
D02*
G37*
G36*
X18039Y8549D02*
X17935Y8535D01*
X17839Y8495D01*
X17757Y8432D01*
X17693Y8349D01*
X17654Y8253D01*
X17640Y8150D01*
X17654Y8047D01*
X17693Y7951D01*
X17757Y7868D01*
X17839Y7805D01*
X17935Y7765D01*
X18039Y7751D01*
X18142Y7765D01*
X18238Y7805D01*
X18321Y7868D01*
X18384Y7951D01*
X18424Y8047D01*
X18437Y8150D01*
X18424Y8253D01*
X18384Y8349D01*
X18321Y8432D01*
X18238Y8495D01*
X18142Y8535D01*
X18039Y8549D01*
D02*
G37*
G36*
X2409Y7911D02*
X2067D01*
X2074Y7858D01*
X2113Y7762D01*
X2177Y7679D01*
X2259Y7616D01*
X2355Y7576D01*
X2409Y7569D01*
Y7911D01*
D02*
G37*
G36*
X2851D02*
X2509D01*
Y7569D01*
X2562Y7576D01*
X2658Y7616D01*
X2741Y7679D01*
X2804Y7762D01*
X2844Y7858D01*
X2851Y7911D01*
D02*
G37*
G36*
X11400Y8196D02*
X11359Y8191D01*
X11273Y8156D01*
X11200Y8100D01*
X11144Y8027D01*
X11109Y7941D01*
X11104Y7900D01*
X11400D01*
Y8196D01*
D02*
G37*
G36*
X18989Y8100D02*
X18647D01*
X18654Y8047D01*
X18693Y7951D01*
X18757Y7868D01*
X18839Y7805D01*
X18935Y7765D01*
X18989Y7758D01*
Y8100D01*
D02*
G37*
G36*
X19431D02*
X19089D01*
Y7758D01*
X19142Y7765D01*
X19238Y7805D01*
X19321Y7868D01*
X19384Y7951D01*
X19424Y8047D01*
X19431Y8100D01*
D02*
G37*
G36*
Y6100D02*
X19089D01*
Y5758D01*
X19142Y5765D01*
X19238Y5805D01*
X19321Y5868D01*
X19384Y5951D01*
X19424Y6047D01*
X19431Y6100D01*
D02*
G37*
G36*
X5061Y2179D02*
X4719D01*
X4726Y2126D01*
X4766Y2030D01*
X4829Y1947D01*
X4912Y1884D01*
X5008Y1844D01*
X5061Y1837D01*
Y2179D01*
D02*
G37*
G36*
X15890D02*
X15548D01*
Y1837D01*
X15601Y1844D01*
X15697Y1884D01*
X15780Y1947D01*
X15843Y2030D01*
X15883Y2126D01*
X15890Y2179D01*
D02*
G37*
G36*
X5503D02*
X5161D01*
Y1837D01*
X5215Y1844D01*
X5311Y1884D01*
X5393Y1947D01*
X5457Y2030D01*
X5496Y2126D01*
X5503Y2179D01*
D02*
G37*
G36*
X15448Y2621D02*
X15395Y2614D01*
X15299Y2574D01*
X15216Y2511D01*
X15153Y2428D01*
X15113Y2332D01*
X15106Y2279D01*
X15448D01*
Y2621D01*
D02*
G37*
G36*
X5061D02*
X5008Y2614D01*
X4912Y2574D01*
X4829Y2511D01*
X4766Y2428D01*
X4726Y2332D01*
X4719Y2279D01*
X5061D01*
Y2621D01*
D02*
G37*
G36*
X15448Y2179D02*
X15106D01*
X15113Y2126D01*
X15153Y2030D01*
X15216Y1947D01*
X15299Y1884D01*
X15395Y1844D01*
X15448Y1837D01*
Y2179D01*
D02*
G37*
G36*
X10767Y2624D02*
X9976D01*
Y1834D01*
X10767D01*
Y2624D01*
D02*
G37*
G36*
X12371Y3628D02*
X12268Y3614D01*
X12172Y3574D01*
X12090Y3511D01*
X12026Y3428D01*
X11986Y3332D01*
X11973Y3229D01*
X11986Y3126D01*
X12026Y3029D01*
X12090Y2947D01*
X12172Y2884D01*
X12219Y2864D01*
Y2859D01*
X12230Y2800D01*
X12263Y2750D01*
X12340Y2674D01*
X12322Y2621D01*
X12268Y2614D01*
X12172Y2574D01*
X12090Y2511D01*
X12026Y2428D01*
X11986Y2332D01*
X11973Y2229D01*
X11986Y2126D01*
X12026Y2030D01*
X12090Y1947D01*
X12172Y1884D01*
X12268Y1844D01*
X12371Y1830D01*
X12475Y1844D01*
X12571Y1884D01*
X12653Y1947D01*
X12664Y1961D01*
X12725Y1958D01*
X13035Y1649D01*
X13015Y1603D01*
X6954D01*
X6477Y2079D01*
X6496Y2126D01*
X6510Y2229D01*
X6496Y2332D01*
X6457Y2428D01*
X6393Y2511D01*
X6311Y2574D01*
X6215Y2614D01*
X6111Y2628D01*
X6008Y2614D01*
X5912Y2574D01*
X5829Y2511D01*
X5766Y2428D01*
X5726Y2332D01*
X5713Y2229D01*
X5726Y2126D01*
X5766Y2030D01*
X5829Y1947D01*
X5912Y1884D01*
X6008Y1844D01*
X6111Y1830D01*
X6215Y1844D01*
X6261Y1863D01*
X6782Y1342D01*
X6832Y1309D01*
X6890Y1297D01*
X15719D01*
X15778Y1309D01*
X15827Y1342D01*
X16348Y1863D01*
X16395Y1844D01*
X16498Y1830D01*
X16601Y1844D01*
X16697Y1884D01*
X16780Y1947D01*
X16843Y2030D01*
X16883Y2126D01*
X16897Y2229D01*
X16883Y2332D01*
X16843Y2428D01*
X16780Y2511D01*
X16697Y2574D01*
X16601Y2614D01*
X16498Y2628D01*
X16395Y2614D01*
X16299Y2574D01*
X16216Y2511D01*
X16153Y2428D01*
X16113Y2332D01*
X16099Y2229D01*
X16113Y2126D01*
X16132Y2079D01*
X15656Y1603D01*
X13513D01*
X13328Y1788D01*
X13350Y1833D01*
X13371Y1830D01*
X13475Y1844D01*
X13571Y1884D01*
X13653Y1947D01*
X13717Y2030D01*
X13757Y2126D01*
X13770Y2229D01*
X13757Y2332D01*
X13717Y2428D01*
X13653Y2511D01*
X13571Y2574D01*
X13475Y2614D01*
X13371Y2628D01*
X13268Y2614D01*
X13172Y2574D01*
X13090Y2511D01*
X13026Y2428D01*
X13017Y2426D01*
X12960Y2464D01*
X12958Y2472D01*
X12925Y2521D01*
X12602Y2844D01*
X12606Y2911D01*
X12653Y2947D01*
X12717Y3029D01*
X12757Y3126D01*
X12770Y3229D01*
X12757Y3332D01*
X12717Y3428D01*
X12653Y3511D01*
X12571Y3574D01*
X12475Y3614D01*
X12371Y3628D01*
D02*
G37*
G36*
X21000Y1088D02*
X20830Y1074D01*
X20664Y1034D01*
X20506Y969D01*
X20361Y880D01*
X20231Y769D01*
X20120Y639D01*
X20031Y494D01*
X19966Y336D01*
X19926Y170D01*
X19912Y0D01*
X19926Y-170D01*
X19966Y-336D01*
X20031Y-494D01*
X20120Y-639D01*
X20231Y-769D01*
X20361Y-880D01*
X20506Y-969D01*
X20664Y-1034D01*
X20830Y-1074D01*
X21000Y-1088D01*
X21170Y-1074D01*
X21336Y-1034D01*
X21494Y-969D01*
X21639Y-880D01*
X21769Y-769D01*
X21880Y-639D01*
X21969Y-494D01*
X22034Y-336D01*
X22074Y-170D01*
X22088Y0D01*
X22074Y170D01*
X22034Y336D01*
X21969Y494D01*
X21880Y639D01*
X21769Y769D01*
X21639Y880D01*
X21494Y969D01*
X21336Y1034D01*
X21170Y1074D01*
X21000Y1088D01*
D02*
G37*
G36*
X0D02*
X-170Y1074D01*
X-336Y1034D01*
X-494Y969D01*
X-639Y880D01*
X-769Y769D01*
X-880Y639D01*
X-969Y494D01*
X-1034Y336D01*
X-1074Y170D01*
X-1088Y0D01*
X-1074Y-170D01*
X-1034Y-336D01*
X-969Y-494D01*
X-880Y-639D01*
X-769Y-769D01*
X-639Y-880D01*
X-494Y-969D01*
X-336Y-1034D01*
X-170Y-1074D01*
X0Y-1088D01*
X170Y-1074D01*
X336Y-1034D01*
X494Y-969D01*
X639Y-880D01*
X769Y-769D01*
X880Y-639D01*
X969Y-494D01*
X1034Y-336D01*
X1074Y-170D01*
X1088Y0D01*
X1074Y170D01*
X1034Y336D01*
X969Y494D01*
X880Y639D01*
X769Y769D01*
X639Y880D01*
X494Y969D01*
X336Y1034D01*
X170Y1074D01*
X0Y1088D01*
D02*
G37*
G36*
X18498Y2628D02*
X18395Y2614D01*
X18299Y2574D01*
X18216Y2511D01*
X18153Y2428D01*
X18113Y2332D01*
X18099Y2229D01*
X18113Y2126D01*
X18153Y2030D01*
X18216Y1947D01*
X18299Y1884D01*
X18395Y1844D01*
X18498Y1830D01*
X18601Y1844D01*
X18697Y1884D01*
X18780Y1947D01*
X18843Y2030D01*
X18883Y2126D01*
X18897Y2229D01*
X18883Y2332D01*
X18843Y2428D01*
X18780Y2511D01*
X18697Y2574D01*
X18601Y2614D01*
X18498Y2628D01*
D02*
G37*
G36*
X11371D02*
X11268Y2614D01*
X11172Y2574D01*
X11090Y2511D01*
X11026Y2428D01*
X10986Y2332D01*
X10973Y2229D01*
X10986Y2126D01*
X11026Y2030D01*
X11090Y1947D01*
X11172Y1884D01*
X11268Y1844D01*
X11371Y1830D01*
X11475Y1844D01*
X11571Y1884D01*
X11653Y1947D01*
X11717Y2030D01*
X11757Y2126D01*
X11770Y2229D01*
X11757Y2332D01*
X11717Y2428D01*
X11653Y2511D01*
X11571Y2574D01*
X11475Y2614D01*
X11371Y2628D01*
D02*
G37*
G36*
X8111D02*
X8008Y2614D01*
X7912Y2574D01*
X7829Y2511D01*
X7766Y2428D01*
X7726Y2332D01*
X7713Y2229D01*
X7726Y2126D01*
X7766Y2030D01*
X7829Y1947D01*
X7912Y1884D01*
X8008Y1844D01*
X8111Y1830D01*
X8215Y1844D01*
X8311Y1884D01*
X8393Y1947D01*
X8457Y2030D01*
X8496Y2126D01*
X8510Y2229D01*
X8496Y2332D01*
X8457Y2428D01*
X8393Y2511D01*
X8311Y2574D01*
X8215Y2614D01*
X8111Y2628D01*
D02*
G37*
G36*
X13421Y3621D02*
Y3279D01*
X13764D01*
X13757Y3332D01*
X13717Y3428D01*
X13653Y3511D01*
X13571Y3574D01*
X13475Y3614D01*
X13421Y3621D01*
D02*
G37*
G36*
X13321D02*
X13268Y3614D01*
X13172Y3574D01*
X13090Y3511D01*
X13026Y3428D01*
X12986Y3332D01*
X12979Y3279D01*
X13321D01*
Y3621D01*
D02*
G37*
G36*
X13764Y3179D02*
X13421D01*
Y2837D01*
X13475Y2844D01*
X13571Y2884D01*
X13653Y2947D01*
X13717Y3029D01*
X13757Y3126D01*
X13764Y3179D01*
D02*
G37*
G36*
X18039Y6549D02*
X17935Y6535D01*
X17839Y6495D01*
X17757Y6432D01*
X17693Y6349D01*
X17654Y6253D01*
X17640Y6150D01*
X17654Y6047D01*
X17693Y5951D01*
X17757Y5868D01*
X17839Y5805D01*
X17935Y5765D01*
X18039Y5751D01*
X18142Y5765D01*
X18238Y5805D01*
X18321Y5868D01*
X18384Y5951D01*
X18424Y6047D01*
X18437Y6150D01*
X18424Y6253D01*
X18384Y6349D01*
X18321Y6432D01*
X18238Y6495D01*
X18142Y6535D01*
X18039Y6549D01*
D02*
G37*
G36*
X2459Y5360D02*
X2355Y5346D01*
X2259Y5306D01*
X2177Y5243D01*
X2113Y5160D01*
X2074Y5064D01*
X2060Y4961D01*
X2074Y4858D01*
X2113Y4762D01*
X2177Y4679D01*
X2259Y4616D01*
X2355Y4576D01*
X2459Y4562D01*
X2562Y4576D01*
X2658Y4616D01*
X2741Y4679D01*
X2804Y4762D01*
X2844Y4858D01*
X2857Y4961D01*
X2844Y5064D01*
X2804Y5160D01*
X2741Y5243D01*
X2658Y5306D01*
X2562Y5346D01*
X2459Y5360D01*
D02*
G37*
G36*
X19434Y14759D02*
X18643D01*
Y13968D01*
X19218D01*
X19497Y13689D01*
Y5247D01*
X17945Y3694D01*
X17911Y3645D01*
X17900Y3586D01*
Y3422D01*
X17850Y3412D01*
X17843Y3428D01*
X17780Y3511D01*
X17697Y3574D01*
X17601Y3614D01*
X17498Y3628D01*
X17395Y3614D01*
X17299Y3574D01*
X17216Y3511D01*
X17153Y3428D01*
X17143Y3426D01*
X17086Y3464D01*
X17085Y3472D01*
X17051Y3521D01*
X16565Y4008D01*
X16515Y4041D01*
X16457Y4053D01*
X6133D01*
X4562Y5624D01*
X4513Y5657D01*
X4454Y5669D01*
X3796D01*
X3771Y5719D01*
X3804Y5762D01*
X3844Y5858D01*
X3851Y5911D01*
X3459D01*
Y5961D01*
X3409D01*
Y6353D01*
X3355Y6346D01*
X3259Y6306D01*
X3177Y6243D01*
X3113Y6161D01*
X3074Y6064D01*
X3066Y6011D01*
X3014Y5993D01*
X2937Y6069D01*
X2887Y6102D01*
X2829Y6114D01*
X2823D01*
X2804Y6161D01*
X2741Y6243D01*
X2658Y6306D01*
X2562Y6346D01*
X2459Y6360D01*
X2355Y6346D01*
X2259Y6306D01*
X2177Y6243D01*
X2113Y6161D01*
X2074Y6064D01*
X2060Y5961D01*
X2074Y5858D01*
X2113Y5762D01*
X2177Y5679D01*
X2259Y5616D01*
X2355Y5576D01*
X2459Y5562D01*
X2562Y5576D01*
X2658Y5616D01*
X2741Y5679D01*
X2777Y5726D01*
X2843Y5731D01*
X3166Y5408D01*
X3168Y5406D01*
X3153Y5356D01*
X3063D01*
Y4566D01*
X3854D01*
X3854Y5356D01*
X3901Y5363D01*
X4391D01*
X5962Y3792D01*
X6080Y3674D01*
X6062Y3621D01*
X6008Y3614D01*
X5912Y3574D01*
X5829Y3511D01*
X5766Y3428D01*
X5726Y3332D01*
X5713Y3229D01*
X5726Y3126D01*
X5766Y3029D01*
X5829Y2947D01*
X5912Y2884D01*
X6008Y2844D01*
X6111Y2830D01*
X6215Y2844D01*
X6311Y2884D01*
X6354Y2917D01*
X6404Y2892D01*
Y2784D01*
X6415Y2725D01*
X6448Y2675D01*
X6745Y2378D01*
X6726Y2332D01*
X6713Y2229D01*
X6726Y2126D01*
X6766Y2030D01*
X6829Y1947D01*
X6912Y1884D01*
X7008Y1844D01*
X7111Y1830D01*
X7215Y1844D01*
X7311Y1884D01*
X7393Y1947D01*
X7457Y2030D01*
X7496Y2126D01*
X7510Y2229D01*
X7496Y2332D01*
X7457Y2428D01*
X7393Y2511D01*
X7311Y2574D01*
X7215Y2614D01*
X7111Y2628D01*
X7008Y2614D01*
X6962Y2595D01*
X6710Y2847D01*
Y3035D01*
X6760Y3045D01*
X6766Y3029D01*
X6829Y2947D01*
X6912Y2884D01*
X7008Y2844D01*
X7111Y2830D01*
X7215Y2844D01*
X7311Y2884D01*
X7393Y2947D01*
X7457Y3029D01*
X7496Y3126D01*
X7510Y3229D01*
X7496Y3332D01*
X7457Y3428D01*
X7393Y3511D01*
X7311Y3574D01*
X7215Y3614D01*
X7111Y3628D01*
X7008Y3614D01*
X6912Y3574D01*
X6829Y3511D01*
X6766Y3428D01*
X6757Y3426D01*
X6700Y3464D01*
X6698Y3472D01*
X6665Y3521D01*
X6485Y3701D01*
X6504Y3747D01*
X10637D01*
X11006Y3378D01*
X10986Y3332D01*
X10973Y3229D01*
X10986Y3126D01*
X11026Y3029D01*
X11090Y2947D01*
X11172Y2884D01*
X11268Y2844D01*
X11371Y2830D01*
X11475Y2844D01*
X11571Y2884D01*
X11653Y2947D01*
X11717Y3029D01*
X11757Y3126D01*
X11770Y3229D01*
X11757Y3332D01*
X11717Y3428D01*
X11653Y3511D01*
X11571Y3574D01*
X11475Y3614D01*
X11371Y3628D01*
X11268Y3614D01*
X11222Y3595D01*
X11116Y3701D01*
X11135Y3747D01*
X16393D01*
X16466Y3674D01*
X16449Y3621D01*
X16395Y3614D01*
X16299Y3574D01*
X16216Y3511D01*
X16153Y3428D01*
X16113Y3332D01*
X16099Y3229D01*
X16113Y3126D01*
X16153Y3029D01*
X16216Y2947D01*
X16299Y2884D01*
X16395Y2844D01*
X16498Y2830D01*
X16601Y2844D01*
X16697Y2884D01*
X16740Y2917D01*
X16790Y2892D01*
Y2784D01*
X16802Y2725D01*
X16835Y2675D01*
X17132Y2378D01*
X17113Y2332D01*
X17099Y2229D01*
X17113Y2126D01*
X17153Y2030D01*
X17216Y1947D01*
X17299Y1884D01*
X17395Y1844D01*
X17498Y1830D01*
X17601Y1844D01*
X17697Y1884D01*
X17780Y1947D01*
X17843Y2030D01*
X17883Y2126D01*
X17897Y2229D01*
X17883Y2332D01*
X17864Y2378D01*
X18161Y2675D01*
X18194Y2725D01*
X18206Y2784D01*
Y2834D01*
X18893D01*
Y3624D01*
X18372D01*
X18353Y3670D01*
X19758Y5075D01*
X19791Y5125D01*
X19803Y5184D01*
Y13752D01*
X19791Y13811D01*
X19758Y13860D01*
X19434Y14184D01*
Y14759D01*
D02*
G37*
G36*
X13321Y3179D02*
X12979D01*
X12986Y3126D01*
X13026Y3029D01*
X13090Y2947D01*
X13172Y2884D01*
X13268Y2844D01*
X13321Y2837D01*
Y3179D01*
D02*
G37*
G36*
X5111Y3628D02*
X5008Y3614D01*
X4912Y3574D01*
X4829Y3511D01*
X4766Y3428D01*
X4726Y3332D01*
X4713Y3229D01*
X4726Y3126D01*
X4766Y3029D01*
X4829Y2947D01*
X4912Y2884D01*
X5008Y2844D01*
X5111Y2830D01*
X5215Y2844D01*
X5311Y2884D01*
X5393Y2947D01*
X5457Y3029D01*
X5496Y3126D01*
X5510Y3229D01*
X5496Y3332D01*
X5457Y3428D01*
X5393Y3511D01*
X5311Y3574D01*
X5215Y3614D01*
X5111Y3628D01*
D02*
G37*
G36*
X15548Y2621D02*
Y2279D01*
X15890D01*
X15883Y2332D01*
X15843Y2428D01*
X15780Y2511D01*
X15697Y2574D01*
X15601Y2614D01*
X15548Y2621D01*
D02*
G37*
G36*
X5161D02*
Y2279D01*
X5503D01*
X5496Y2332D01*
X5457Y2428D01*
X5393Y2511D01*
X5311Y2574D01*
X5215Y2614D01*
X5161Y2621D01*
D02*
G37*
G36*
X8507Y3624D02*
X7716D01*
Y2834D01*
X8507D01*
Y3624D01*
D02*
G37*
G36*
X15498Y3628D02*
X15395Y3614D01*
X15299Y3574D01*
X15216Y3511D01*
X15153Y3428D01*
X15113Y3332D01*
X15099Y3229D01*
X15113Y3126D01*
X15153Y3029D01*
X15216Y2947D01*
X15299Y2884D01*
X15395Y2844D01*
X15498Y2830D01*
X15601Y2844D01*
X15697Y2884D01*
X15780Y2947D01*
X15843Y3029D01*
X15883Y3126D01*
X15897Y3229D01*
X15883Y3332D01*
X15843Y3428D01*
X15780Y3511D01*
X15697Y3574D01*
X15601Y3614D01*
X15498Y3628D01*
D02*
G37*
G36*
X10371D02*
X10268Y3614D01*
X10172Y3574D01*
X10090Y3511D01*
X10026Y3428D01*
X9986Y3332D01*
X9973Y3229D01*
X9986Y3126D01*
X10026Y3029D01*
X10090Y2947D01*
X10172Y2884D01*
X10268Y2844D01*
X10371Y2830D01*
X10475Y2844D01*
X10571Y2884D01*
X10653Y2947D01*
X10717Y3029D01*
X10757Y3126D01*
X10770Y3229D01*
X10757Y3332D01*
X10717Y3428D01*
X10653Y3511D01*
X10571Y3574D01*
X10475Y3614D01*
X10371Y3628D01*
D02*
G37*
G36*
X10582Y18036D02*
X10285D01*
X10291Y17994D01*
X10326Y17909D01*
X10382Y17836D01*
X10455Y17780D01*
X10540Y17745D01*
X10582Y17739D01*
Y18036D01*
D02*
G37*
G36*
X19434Y18251D02*
X18643D01*
Y17460D01*
X19434D01*
Y18251D01*
D02*
G37*
G36*
X3850Y16446D02*
Y16150D01*
X4146D01*
X4141Y16191D01*
X4106Y16277D01*
X4050Y16350D01*
X3977Y16406D01*
X3891Y16441D01*
X3850Y16446D01*
D02*
G37*
G36*
X15628Y18036D02*
X15332D01*
Y17739D01*
X15373Y17745D01*
X15458Y17780D01*
X15531Y17836D01*
X15587Y17909D01*
X15623Y17994D01*
X15628Y18036D01*
D02*
G37*
G36*
X15232D02*
X14935D01*
X14941Y17994D01*
X14976Y17909D01*
X15032Y17836D01*
X15105Y17780D01*
X15190Y17745D01*
X15232Y17739D01*
Y18036D01*
D02*
G37*
G36*
X10978D02*
X10682D01*
Y17739D01*
X10723Y17745D01*
X10808Y17780D01*
X10881Y17836D01*
X10937Y17909D01*
X10973Y17994D01*
X10978Y18036D01*
D02*
G37*
G36*
X3750Y16446D02*
X3709Y16441D01*
X3623Y16406D01*
X3550Y16350D01*
X3494Y16277D01*
X3459Y16191D01*
X3454Y16150D01*
X3750D01*
Y16446D01*
D02*
G37*
G36*
X18989Y15755D02*
X18935Y15748D01*
X18839Y15709D01*
X18757Y15645D01*
X18693Y15563D01*
X18654Y15467D01*
X18647Y15413D01*
X18989D01*
Y15755D01*
D02*
G37*
G36*
Y15313D02*
X18647D01*
X18654Y15260D01*
X18693Y15164D01*
X18757Y15081D01*
X18839Y15018D01*
X18935Y14978D01*
X18989Y14971D01*
Y15313D01*
D02*
G37*
G36*
X19431D02*
X19089D01*
Y14971D01*
X19142Y14978D01*
X19238Y15018D01*
X19321Y15081D01*
X19384Y15164D01*
X19424Y15260D01*
X19431Y15313D01*
D02*
G37*
G36*
X4146Y16050D02*
X3850D01*
Y15754D01*
X3891Y15759D01*
X3977Y15794D01*
X4050Y15850D01*
X4106Y15923D01*
X4141Y16009D01*
X4146Y16050D01*
D02*
G37*
G36*
X3750D02*
X3454D01*
X3459Y16009D01*
X3494Y15923D01*
X3550Y15850D01*
X3623Y15794D01*
X3709Y15759D01*
X3750Y15754D01*
Y16050D01*
D02*
G37*
G36*
X19089Y15755D02*
Y15413D01*
X19431D01*
X19424Y15467D01*
X19384Y15563D01*
X19321Y15645D01*
X19238Y15709D01*
X19142Y15748D01*
X19089Y15755D01*
D02*
G37*
G36*
X3750Y18150D02*
X3454D01*
X3459Y18109D01*
X3494Y18023D01*
X3550Y17950D01*
X3623Y17894D01*
X3709Y17859D01*
X3750Y17854D01*
Y18150D01*
D02*
G37*
G36*
X18989Y19248D02*
X18935Y19241D01*
X18839Y19201D01*
X18757Y19137D01*
X18693Y19055D01*
X18654Y18959D01*
X18647Y18906D01*
X18989D01*
Y19248D01*
D02*
G37*
G36*
Y18806D02*
X18647D01*
X18654Y18752D01*
X18693Y18656D01*
X18757Y18574D01*
X18839Y18510D01*
X18935Y18470D01*
X18989Y18463D01*
Y18806D01*
D02*
G37*
G36*
X19431D02*
X19089D01*
Y18463D01*
X19142Y18470D01*
X19238Y18510D01*
X19321Y18574D01*
X19384Y18656D01*
X19424Y18752D01*
X19431Y18806D01*
D02*
G37*
G36*
X21000Y22088D02*
X20830Y22074D01*
X20664Y22034D01*
X20506Y21969D01*
X20361Y21880D01*
X20231Y21769D01*
X20120Y21639D01*
X20031Y21494D01*
X19966Y21336D01*
X19926Y21170D01*
X19912Y21000D01*
X19926Y20830D01*
X19966Y20664D01*
X20031Y20506D01*
X20120Y20361D01*
X20231Y20231D01*
X20361Y20120D01*
X20506Y20031D01*
X20664Y19966D01*
X20830Y19926D01*
X21000Y19912D01*
X21170Y19926D01*
X21336Y19966D01*
X21494Y20031D01*
X21639Y20120D01*
X21769Y20231D01*
X21880Y20361D01*
X21969Y20506D01*
X22034Y20664D01*
X22074Y20830D01*
X22088Y21000D01*
X22074Y21170D01*
X22034Y21336D01*
X21969Y21494D01*
X21880Y21639D01*
X21769Y21769D01*
X21639Y21880D01*
X21494Y21969D01*
X21336Y22034D01*
X21170Y22074D01*
X21000Y22088D01*
D02*
G37*
G36*
X0D02*
X-170Y22074D01*
X-336Y22034D01*
X-494Y21969D01*
X-639Y21880D01*
X-769Y21769D01*
X-880Y21639D01*
X-969Y21494D01*
X-1034Y21336D01*
X-1074Y21170D01*
X-1088Y21000D01*
X-1074Y20830D01*
X-1034Y20664D01*
X-969Y20506D01*
X-880Y20361D01*
X-769Y20231D01*
X-639Y20120D01*
X-494Y20031D01*
X-336Y19966D01*
X-170Y19926D01*
X0Y19912D01*
X170Y19926D01*
X336Y19966D01*
X494Y20031D01*
X639Y20120D01*
X769Y20231D01*
X880Y20361D01*
X969Y20506D01*
X1034Y20664D01*
X1074Y20830D01*
X1088Y21000D01*
X1074Y21170D01*
X1034Y21336D01*
X969Y21494D01*
X880Y21639D01*
X769Y21769D01*
X639Y21880D01*
X494Y21969D01*
X336Y22034D01*
X170Y22074D01*
X0Y22088D01*
D02*
G37*
G36*
X19089Y19248D02*
Y18906D01*
X19431D01*
X19424Y18959D01*
X19384Y19055D01*
X19321Y19137D01*
X19238Y19201D01*
X19142Y19241D01*
X19089Y19248D01*
D02*
G37*
G36*
X3850Y18546D02*
Y18250D01*
X4146D01*
X4141Y18291D01*
X4106Y18377D01*
X4050Y18450D01*
X3977Y18506D01*
X3891Y18541D01*
X3850Y18546D01*
D02*
G37*
G36*
X10682Y18432D02*
Y18136D01*
X10978D01*
X10973Y18177D01*
X10937Y18262D01*
X10881Y18335D01*
X10808Y18392D01*
X10723Y18427D01*
X10682Y18432D01*
D02*
G37*
G36*
X10582D02*
X10540Y18427D01*
X10455Y18392D01*
X10382Y18335D01*
X10326Y18262D01*
X10291Y18177D01*
X10285Y18136D01*
X10582D01*
Y18432D01*
D02*
G37*
G36*
X4146Y18150D02*
X3850D01*
Y17854D01*
X3891Y17859D01*
X3977Y17894D01*
X4050Y17950D01*
X4106Y18023D01*
X4141Y18109D01*
X4146Y18150D01*
D02*
G37*
G36*
X3750Y18546D02*
X3709Y18541D01*
X3623Y18506D01*
X3550Y18450D01*
X3494Y18377D01*
X3459Y18291D01*
X3454Y18250D01*
X3750D01*
Y18546D01*
D02*
G37*
G36*
X15332Y18432D02*
Y18136D01*
X15628D01*
X15623Y18177D01*
X15587Y18262D01*
X15531Y18335D01*
X15458Y18392D01*
X15373Y18427D01*
X15332Y18432D01*
D02*
G37*
G36*
X15232D02*
X15190Y18427D01*
X15105Y18392D01*
X15032Y18335D01*
X14976Y18262D01*
X14941Y18177D01*
X14935Y18136D01*
X15232D01*
Y18432D01*
D02*
G37*
G36*
X18989Y10100D02*
X18647D01*
X18654Y10047D01*
X18693Y9951D01*
X18757Y9868D01*
X18839Y9805D01*
X18935Y9765D01*
X18989Y9758D01*
Y10100D01*
D02*
G37*
G36*
X19431D02*
X19089D01*
Y9758D01*
X19142Y9765D01*
X19238Y9805D01*
X19321Y9868D01*
X19384Y9951D01*
X19424Y10047D01*
X19431Y10100D01*
D02*
G37*
G36*
X18039Y10549D02*
X17935Y10535D01*
X17839Y10495D01*
X17757Y10432D01*
X17693Y10349D01*
X17654Y10253D01*
X17640Y10150D01*
X17654Y10047D01*
X17693Y9951D01*
X17757Y9868D01*
X17839Y9805D01*
X17935Y9765D01*
X18039Y9751D01*
X18142Y9765D01*
X18238Y9805D01*
X18321Y9868D01*
X18384Y9951D01*
X18424Y10047D01*
X18437Y10150D01*
X18424Y10253D01*
X18384Y10349D01*
X18321Y10432D01*
X18238Y10495D01*
X18142Y10535D01*
X18039Y10549D01*
D02*
G37*
G36*
X18434Y11545D02*
X17643D01*
Y10755D01*
X18434D01*
Y11545D01*
D02*
G37*
G36*
X19089Y10542D02*
Y10200D01*
X19431D01*
X19424Y10253D01*
X19384Y10349D01*
X19321Y10432D01*
X19238Y10495D01*
X19142Y10535D01*
X19089Y10542D01*
D02*
G37*
G36*
X18989D02*
X18935Y10535D01*
X18839Y10495D01*
X18757Y10432D01*
X18693Y10349D01*
X18654Y10253D01*
X18647Y10200D01*
X18989D01*
Y10542D01*
D02*
G37*
G36*
X19089Y9542D02*
Y9200D01*
X19431D01*
X19424Y9253D01*
X19384Y9349D01*
X19321Y9432D01*
X19238Y9495D01*
X19142Y9535D01*
X19089Y9542D01*
D02*
G37*
G36*
X18989Y9100D02*
X18647D01*
X18654Y9047D01*
X18693Y8951D01*
X18757Y8868D01*
X18839Y8805D01*
X18935Y8765D01*
X18989Y8758D01*
Y9100D01*
D02*
G37*
G36*
X19431D02*
X19089D01*
Y8758D01*
X19142Y8765D01*
X19238Y8805D01*
X19321Y8868D01*
X19384Y8951D01*
X19424Y9047D01*
X19431Y9100D01*
D02*
G37*
G36*
X18039Y9549D02*
X17935Y9535D01*
X17839Y9495D01*
X17757Y9432D01*
X17693Y9349D01*
X17654Y9253D01*
X17640Y9150D01*
X17654Y9047D01*
X17693Y8951D01*
X17757Y8868D01*
X17839Y8805D01*
X17935Y8765D01*
X18039Y8751D01*
X18142Y8765D01*
X18238Y8805D01*
X18321Y8868D01*
X18384Y8951D01*
X18424Y9047D01*
X18437Y9150D01*
X18424Y9253D01*
X18384Y9349D01*
X18321Y9432D01*
X18238Y9495D01*
X18142Y9535D01*
X18039Y9549D01*
D02*
G37*
G36*
X18989Y9542D02*
X18935Y9535D01*
X18839Y9495D01*
X18757Y9432D01*
X18693Y9349D01*
X18654Y9253D01*
X18647Y9200D01*
X18989D01*
Y9542D01*
D02*
G37*
G36*
X10350Y9396D02*
Y9100D01*
X10646D01*
X10641Y9141D01*
X10606Y9227D01*
X10550Y9300D01*
X10477Y9356D01*
X10391Y9391D01*
X10350Y9396D01*
D02*
G37*
G36*
X10250D02*
X10209Y9391D01*
X10123Y9356D01*
X10050Y9300D01*
X9994Y9227D01*
X9959Y9141D01*
X9954Y9100D01*
X10250D01*
Y9396D01*
D02*
G37*
G36*
X19431Y11100D02*
X19089D01*
Y10758D01*
X19142Y10765D01*
X19238Y10805D01*
X19321Y10868D01*
X19384Y10951D01*
X19424Y11047D01*
X19431Y11100D01*
D02*
G37*
G36*
X2459Y13204D02*
X2355Y13190D01*
X2259Y13151D01*
X2177Y13087D01*
X2113Y13005D01*
X2074Y12909D01*
X2060Y12805D01*
X2074Y12702D01*
X2113Y12606D01*
X2177Y12523D01*
X2259Y12460D01*
X2355Y12420D01*
X2459Y12407D01*
X2562Y12420D01*
X2658Y12460D01*
X2741Y12523D01*
X2804Y12606D01*
X2844Y12702D01*
X2857Y12805D01*
X2844Y12909D01*
X2804Y13005D01*
X2741Y13087D01*
X2658Y13151D01*
X2562Y13190D01*
X2459Y13204D01*
D02*
G37*
G36*
X3509Y12197D02*
Y11855D01*
X3851D01*
X3844Y11909D01*
X3804Y12005D01*
X3741Y12087D01*
X3658Y12151D01*
X3562Y12190D01*
X3509Y12197D01*
D02*
G37*
G36*
X3409D02*
X3355Y12190D01*
X3259Y12151D01*
X3177Y12087D01*
X3113Y12005D01*
X3074Y11909D01*
X3067Y11855D01*
X3409D01*
Y12197D01*
D02*
G37*
G36*
X2854Y14201D02*
X2063D01*
Y13410D01*
X2854D01*
Y14201D01*
D02*
G37*
G36*
X3459Y14204D02*
X3355Y14190D01*
X3259Y14151D01*
X3177Y14087D01*
X3113Y14005D01*
X3074Y13909D01*
X3060Y13805D01*
X3074Y13702D01*
X3113Y13606D01*
X3177Y13523D01*
X3259Y13460D01*
X3355Y13420D01*
X3459Y13407D01*
X3562Y13420D01*
X3658Y13460D01*
X3741Y13523D01*
X3804Y13606D01*
X3844Y13702D01*
X3857Y13805D01*
X3844Y13909D01*
X3804Y14005D01*
X3741Y14087D01*
X3658Y14151D01*
X3562Y14190D01*
X3459Y14204D01*
D02*
G37*
G36*
Y13204D02*
X3355Y13190D01*
X3259Y13151D01*
X3177Y13087D01*
X3113Y13005D01*
X3074Y12909D01*
X3060Y12805D01*
X3074Y12702D01*
X3113Y12606D01*
X3177Y12523D01*
X3259Y12460D01*
X3355Y12420D01*
X3459Y12407D01*
X3562Y12420D01*
X3658Y12460D01*
X3741Y12523D01*
X3804Y12606D01*
X3844Y12702D01*
X3857Y12805D01*
X3844Y12909D01*
X3804Y13005D01*
X3741Y13087D01*
X3658Y13151D01*
X3562Y13190D01*
X3459Y13204D01*
D02*
G37*
G36*
X3851Y11755D02*
X3509D01*
Y11413D01*
X3562Y11420D01*
X3658Y11460D01*
X3741Y11523D01*
X3804Y11606D01*
X3844Y11702D01*
X3851Y11755D01*
D02*
G37*
G36*
X19089Y11542D02*
Y11200D01*
X19431D01*
X19424Y11253D01*
X19384Y11349D01*
X19321Y11432D01*
X19238Y11495D01*
X19142Y11535D01*
X19089Y11542D01*
D02*
G37*
G36*
X18989D02*
X18935Y11535D01*
X18839Y11495D01*
X18757Y11432D01*
X18693Y11349D01*
X18654Y11253D01*
X18647Y11200D01*
X18989D01*
Y11542D01*
D02*
G37*
G36*
Y11100D02*
X18647D01*
X18654Y11047D01*
X18693Y10951D01*
X18757Y10868D01*
X18839Y10805D01*
X18935Y10765D01*
X18989Y10758D01*
Y11100D01*
D02*
G37*
G36*
X3409Y11755D02*
X3067D01*
X3074Y11702D01*
X3113Y11606D01*
X3177Y11523D01*
X3259Y11460D01*
X3355Y11420D01*
X3409Y11413D01*
Y11755D01*
D02*
G37*
G36*
X2459Y12204D02*
X2355Y12190D01*
X2259Y12151D01*
X2177Y12087D01*
X2113Y12005D01*
X2074Y11909D01*
X2060Y11805D01*
X2074Y11702D01*
X2113Y11606D01*
X2177Y11523D01*
X2259Y11460D01*
X2355Y11420D01*
X2459Y11407D01*
X2562Y11420D01*
X2658Y11460D01*
X2741Y11523D01*
X2804Y11606D01*
X2844Y11702D01*
X2857Y11805D01*
X2844Y11909D01*
X2804Y12005D01*
X2741Y12087D01*
X2658Y12151D01*
X2562Y12190D01*
X2459Y12204D01*
D02*
G37*
G36*
X14650Y12103D02*
X14559Y12091D01*
X14473Y12056D01*
X14400Y12000D01*
X14344Y11927D01*
X14335Y11903D01*
X7247D01*
X7189Y11891D01*
X7139Y11858D01*
X3608Y8327D01*
X3562Y8346D01*
X3459Y8360D01*
X3355Y8346D01*
X3259Y8306D01*
X3177Y8243D01*
X3113Y8160D01*
X3074Y8064D01*
X3060Y7961D01*
X3074Y7858D01*
X3113Y7762D01*
X3177Y7679D01*
X3259Y7616D01*
X3355Y7576D01*
X3459Y7562D01*
X3562Y7576D01*
X3658Y7616D01*
X3741Y7679D01*
X3804Y7762D01*
X3844Y7858D01*
X3857Y7961D01*
X3844Y8064D01*
X3825Y8111D01*
X7311Y11597D01*
X14335D01*
X14344Y11573D01*
X14400Y11500D01*
X14473Y11444D01*
X14559Y11409D01*
X14650Y11397D01*
X14741Y11409D01*
X14827Y11444D01*
X14900Y11500D01*
X14956Y11573D01*
X14991Y11659D01*
X15003Y11750D01*
X14991Y11841D01*
X14956Y11927D01*
X14900Y12000D01*
X14827Y12056D01*
X14741Y12091D01*
X14650Y12103D01*
D02*
G37*
%LPD*%
D20*
X3459Y7961D02*
X7247Y11750D01*
X14650D01*
X17498Y2229D02*
X18053Y2784D01*
Y3586D01*
X19650Y5184D01*
Y13752D01*
X19039Y14363D02*
X19650Y13752D01*
X16943Y2784D02*
X17498Y2229D01*
X16943Y2784D02*
Y3413D01*
X16457Y3900D02*
X16943Y3413D01*
X10700Y3900D02*
X16457D01*
X6070D02*
X6557Y3413D01*
X4454Y5516D02*
X6070Y3900D01*
X10700D01*
X11371Y3229D01*
X6557Y2784D02*
X7111Y2229D01*
X6557Y2784D02*
Y3413D01*
X3274Y5516D02*
X4454D01*
X2829Y5961D02*
X3274Y5516D01*
X2459Y5961D02*
X2829D01*
X13450Y1450D02*
X15719D01*
X6890D02*
X13450D01*
X12817Y2083D02*
X13450Y1450D01*
X12817Y2083D02*
Y2413D01*
X12371Y2859D02*
X12817Y2413D01*
X12371Y2859D02*
Y3229D01*
X15719Y1450D02*
X16498Y2229D01*
X6111D02*
X6890Y1450D01*
D21*
X15498Y2229D02*
D03*
Y3229D02*
D03*
X16498Y2229D02*
D03*
Y3229D02*
D03*
X17498Y2229D02*
D03*
Y3229D02*
D03*
X18498Y2229D02*
D03*
X5111D02*
D03*
Y3229D02*
D03*
X6111Y2229D02*
D03*
Y3229D02*
D03*
X7111Y2229D02*
D03*
Y3229D02*
D03*
X8111Y2229D02*
D03*
X13371Y3229D02*
D03*
Y2229D02*
D03*
X12371Y3229D02*
D03*
Y2229D02*
D03*
X11371Y3229D02*
D03*
Y2229D02*
D03*
X10371Y3229D02*
D03*
X19039Y18856D02*
D03*
Y15363D02*
D03*
X3459Y13805D02*
D03*
X2459Y12805D02*
D03*
X3459D02*
D03*
X2459Y11805D02*
D03*
X3459D02*
D03*
X19039Y6150D02*
D03*
X18039D02*
D03*
X19039Y7150D02*
D03*
X18039D02*
D03*
X19039Y8150D02*
D03*
X18039D02*
D03*
X19039Y9150D02*
D03*
X18039D02*
D03*
X19039Y10150D02*
D03*
X18039D02*
D03*
X19039Y11150D02*
D03*
X2459Y7961D02*
D03*
X3459D02*
D03*
X2459Y6961D02*
D03*
X3459D02*
D03*
X2459Y5961D02*
D03*
X3459D02*
D03*
X2459Y4961D02*
D03*
D22*
X18498Y3229D02*
D03*
X8111D02*
D03*
X10371Y2229D02*
D03*
D23*
X19039Y17856D02*
D03*
Y14363D02*
D03*
X2459Y13805D02*
D03*
X18039Y11150D02*
D03*
X3459Y4961D02*
D03*
D24*
X0Y0D02*
D03*
Y21000D02*
D03*
X21000Y0D02*
D03*
Y21000D02*
D03*
D25*
X11450Y7850D02*
D03*
X10300Y9050D02*
D03*
X14650Y11750D02*
D03*
X15282Y18086D02*
D03*
X10632D02*
D03*
X3800Y18200D02*
D03*
Y16100D02*
D03*
M02*
