M48
;Layer_Color=9474304
;FILE_FORMAT=2:4
INCH,LZ
;TYPE=PLATED
T1F00S00C0.0280
T2F00S00C0.0354
T3F00S00C0.1260
%
T01
X01145Y00785
X0103Y00905
X010632Y018086
X0038Y0182
Y0161
X015282Y018086
X01465Y01175
T02
X012371Y002229
X013371
Y003229
X012371
X015498
Y002229
X016498
Y003229
X017498
Y002229
X018498
Y003229
X018039Y00615
X019039
X011371Y003229
Y002229
X010371
Y003229
X008111
X007111
X006111
X005111
Y002229
X006111
X007111
X008111
X003459Y004961
Y005961
X002459
Y004961
Y006961
Y007961
X003459
Y006961
Y011805
Y012805
Y013805
X002459
Y012805
Y011805
X018039Y01115
Y01015
Y00915
Y00815
Y00715
X019039
Y00815
Y00915
Y01015
Y01115
Y014363
Y015363
Y017856
Y018856
T03
X021Y0
X0
Y021
X021
M30
