G04 Layer_Color=8421504*
%FSLAX24Y24*%
%MOIN*%
G70*
G01*
G75*
%ADD10R,0.0276X0.0354*%
%ADD11R,0.0354X0.0276*%
%ADD12R,0.0669X0.0433*%
%ADD13R,0.0906X0.1791*%
%ADD14R,0.0413X0.0945*%
%ADD15R,0.4193X0.3504*%
%ADD16R,0.0394X0.0374*%
%ADD17O,0.0689X0.0217*%
%ADD18O,0.0217X0.0689*%
D10*
X-5805Y23126D02*
D03*
X-6395D02*
D03*
D11*
X-10313Y5730D02*
D03*
Y5139D02*
D03*
X-9601Y5139D02*
D03*
Y5730D02*
D03*
X-8888Y5730D02*
D03*
Y5139D02*
D03*
X-20600Y6439D02*
D03*
Y5848D02*
D03*
X-19813Y6439D02*
D03*
Y5848D02*
D03*
X-19025Y6439D02*
D03*
Y5848D02*
D03*
X-16663Y5848D02*
D03*
Y6439D02*
D03*
X-17450Y5848D02*
D03*
Y6439D02*
D03*
X-18238Y5848D02*
D03*
Y6439D02*
D03*
X-15300Y5139D02*
D03*
Y5730D02*
D03*
X-14588Y5730D02*
D03*
Y5139D02*
D03*
X-13875Y5139D02*
D03*
Y5730D02*
D03*
X-11025Y5730D02*
D03*
Y5139D02*
D03*
X-8100Y6814D02*
D03*
Y6224D02*
D03*
X-15380Y12245D02*
D03*
Y11655D02*
D03*
D12*
X-8118Y20667D02*
D03*
Y19604D02*
D03*
X-8118Y21319D02*
D03*
Y22381D02*
D03*
D13*
X-9878Y3278D02*
D03*
Y325D02*
D03*
X-14250Y3278D02*
D03*
Y325D02*
D03*
D14*
X-17632Y4961D02*
D03*
X-19632D02*
D03*
Y7326D02*
D03*
X-17632D02*
D03*
D15*
X-18632Y886D02*
D03*
Y11401D02*
D03*
D16*
X-13100Y4992D02*
D03*
Y5622D02*
D03*
X-11669Y4992D02*
D03*
Y5622D02*
D03*
X-8107Y4992D02*
D03*
Y5622D02*
D03*
X-16022Y12265D02*
D03*
Y11635D02*
D03*
D17*
X-9476Y12975D02*
D03*
Y13290D02*
D03*
Y13605D02*
D03*
Y13920D02*
D03*
Y14235D02*
D03*
Y14550D02*
D03*
Y14865D02*
D03*
Y15180D02*
D03*
Y15495D02*
D03*
Y15810D02*
D03*
Y16125D02*
D03*
X-13924D02*
D03*
Y15810D02*
D03*
Y15495D02*
D03*
Y15180D02*
D03*
Y14865D02*
D03*
Y14550D02*
D03*
Y14235D02*
D03*
Y13920D02*
D03*
Y13605D02*
D03*
Y13290D02*
D03*
Y12975D02*
D03*
D18*
X-10125Y16774D02*
D03*
X-10440D02*
D03*
X-10755D02*
D03*
X-11070D02*
D03*
X-11385D02*
D03*
X-11700D02*
D03*
X-12015D02*
D03*
X-12330D02*
D03*
X-12645D02*
D03*
X-12960D02*
D03*
X-13275D02*
D03*
Y12326D02*
D03*
X-12960D02*
D03*
X-12645D02*
D03*
X-12330D02*
D03*
X-12015D02*
D03*
X-11700D02*
D03*
X-11385D02*
D03*
X-11070D02*
D03*
X-10755D02*
D03*
X-10440D02*
D03*
X-10125D02*
D03*
M02*
