G04 Layer_Color=8421504*
%FSLAX24Y24*%
%MOIN*%
G70*
G01*
G75*
%ADD10R,0.0669X0.0433*%
%ADD11R,0.0354X0.0276*%
%ADD12R,0.0394X0.0374*%
%ADD13O,0.0217X0.0689*%
%ADD14O,0.0689X0.0217*%
%ADD15R,0.0276X0.0354*%
%ADD16R,0.3504X0.4193*%
%ADD17R,0.0945X0.0413*%
%ADD18R,0.0906X0.1791*%
%ADD19R,0.0394X0.0236*%
D10*
X7675Y13547D02*
D03*
Y14610D02*
D03*
X6788Y13547D02*
D03*
Y14610D02*
D03*
D11*
X6150Y6505D02*
D03*
Y7095D02*
D03*
X5577Y7095D02*
D03*
Y6505D02*
D03*
X17122Y13399D02*
D03*
Y12809D02*
D03*
X15271Y13399D02*
D03*
Y12809D02*
D03*
X13419Y13399D02*
D03*
Y12809D02*
D03*
X5005Y6445D02*
D03*
Y5855D02*
D03*
X9717Y12809D02*
D03*
Y13399D02*
D03*
X10642Y13399D02*
D03*
Y12809D02*
D03*
X11568Y12809D02*
D03*
Y13399D02*
D03*
D12*
X16265Y13419D02*
D03*
Y12789D02*
D03*
X14414Y13419D02*
D03*
Y12789D02*
D03*
X12563Y13419D02*
D03*
Y12789D02*
D03*
X8860Y13419D02*
D03*
Y12789D02*
D03*
D13*
X9325Y10624D02*
D03*
X9640D02*
D03*
X9955D02*
D03*
X10270D02*
D03*
X10585D02*
D03*
X10900D02*
D03*
X11215D02*
D03*
X11530D02*
D03*
X11845D02*
D03*
X12160D02*
D03*
X12475D02*
D03*
Y6176D02*
D03*
X12160D02*
D03*
X11845D02*
D03*
X11530D02*
D03*
X11215D02*
D03*
X10900D02*
D03*
X10585D02*
D03*
X10270D02*
D03*
X9955D02*
D03*
X9640D02*
D03*
X9325D02*
D03*
D14*
X13124Y9975D02*
D03*
Y9660D02*
D03*
Y9345D02*
D03*
Y9030D02*
D03*
Y8715D02*
D03*
Y8400D02*
D03*
Y8085D02*
D03*
Y7770D02*
D03*
Y7455D02*
D03*
Y7140D02*
D03*
Y6825D02*
D03*
X8676D02*
D03*
Y7140D02*
D03*
Y7455D02*
D03*
Y7770D02*
D03*
Y8085D02*
D03*
Y8400D02*
D03*
Y8715D02*
D03*
Y9030D02*
D03*
Y9345D02*
D03*
Y9660D02*
D03*
Y9975D02*
D03*
D15*
X2845Y9311D02*
D03*
X2255D02*
D03*
X17202Y5900D02*
D03*
X16612D02*
D03*
X17202Y6950D02*
D03*
X16612D02*
D03*
X17202Y8050D02*
D03*
X16612D02*
D03*
X17202Y9100D02*
D03*
X16612D02*
D03*
X17202Y10100D02*
D03*
X16612D02*
D03*
X17202Y11150D02*
D03*
X16612D02*
D03*
D16*
X3789Y17190D02*
D03*
D17*
X7864Y18190D02*
D03*
Y16190D02*
D03*
D18*
X15282Y15133D02*
D03*
Y18086D02*
D03*
X10632Y15133D02*
D03*
Y18086D02*
D03*
D19*
X16010Y6955D02*
D03*
X15104Y6581D02*
D03*
Y7329D02*
D03*
M02*
