M48
;Layer_Color=9474304
;FILE_FORMAT=2:4
INCH,LZ
;TYPE=PLATED
T1F00S00C0.0280
T2F00S00C0.0354
T3F00S00C0.0429
T4F00S00C0.1252
T5F00S00C0.1260
%
T01
X-0084Y-000445
X-009014Y006814
X-00995Y0064
X-0111
X-009878Y003278
X-01425
X-0174Y00085
X-018632Y000886
X-0199Y00085
X-0198Y0112
X-018532Y011236
X-0173Y0112
X-0122Y01115
X-01275Y01055
X-0117Y01455
X-01115Y0142
X-01065Y01365
X-01085Y0152
X-01145
T02
X-006622Y-000445
X-005622
X-004622
X-003622
X-002622
Y000555
X-003622
X-004622
X-005622
X-006622
X-010668Y019243
Y020243
Y021243
Y022243
X-012118Y02225
X-013118
X-014118
X-015118
X-016118
X-017118
X-018118
X-019118
X-020297
Y02125
Y02025
Y01925
X-019118
X-018118
X-017118
X-016118
X-015118
X-014118
X-013118
X-012118
X-009668Y019243
Y020243
Y021243
Y022243
X-0064Y02225
Y02125
X-0054
Y02225
X-0044
Y02125
X-00205Y020177
Y019177
X-00105
Y020177
T03
X-002119Y006878
Y007969
Y009059
Y01015
X-001001Y009605
Y008514
Y007424
X-001001Y006333
X-001001Y010695
Y011786
Y012876
X-001001Y013967
X-002119Y013422
Y012331
Y011241
T04
X-00156Y003591
Y016709
T05
X0Y0
Y02215
M30
