G04 Layer_Physical_Order=1*
G04 Layer_Color=255*
%FSLAX24Y24*%
%MOIN*%
G70*
G01*
G75*
%ADD10R,0.0669X0.0433*%
%ADD11R,0.0354X0.0276*%
%ADD12R,0.0394X0.0374*%
%ADD13O,0.0217X0.0689*%
%ADD14O,0.0689X0.0217*%
%ADD15R,0.0276X0.0354*%
%ADD16R,0.3504X0.4193*%
%ADD17R,0.0945X0.0413*%
%ADD18R,0.0906X0.1791*%
%ADD19R,0.0394X0.0236*%
%ADD20C,0.0100*%
%ADD21C,0.0591*%
%ADD22R,0.0591X0.0591*%
%ADD23R,0.0591X0.0591*%
%ADD24C,0.1969*%
%ADD25C,0.0500*%
G36*
X22847Y-1847D02*
X-1847D01*
Y22847D01*
X22847D01*
Y-1847D01*
D02*
G37*
%LPC*%
G36*
X19039Y7549D02*
X18935Y7535D01*
X18839Y7495D01*
X18757Y7432D01*
X18693Y7349D01*
X18654Y7253D01*
X18640Y7150D01*
X18654Y7047D01*
X18693Y6951D01*
X18757Y6868D01*
X18839Y6805D01*
X18935Y6765D01*
X19039Y6751D01*
X19142Y6765D01*
X19238Y6805D01*
X19321Y6868D01*
X19384Y6951D01*
X19424Y7047D01*
X19437Y7150D01*
X19424Y7253D01*
X19384Y7349D01*
X19321Y7432D01*
X19238Y7495D01*
X19142Y7535D01*
X19039Y7549D01*
D02*
G37*
G36*
X2459Y7360D02*
X2355Y7346D01*
X2259Y7306D01*
X2177Y7243D01*
X2113Y7161D01*
X2074Y7064D01*
X2060Y6961D01*
X2074Y6858D01*
X2093Y6812D01*
X1692Y6411D01*
X1659Y6361D01*
X1647Y6302D01*
Y3800D01*
X1659Y3741D01*
X1692Y3692D01*
X3892Y1492D01*
X3941Y1459D01*
X4000Y1447D01*
X5483D01*
X5541Y1459D01*
X5591Y1492D01*
X5962Y1863D01*
X6008Y1844D01*
X6111Y1830D01*
X6215Y1844D01*
X6311Y1884D01*
X6393Y1947D01*
X6457Y2030D01*
X6496Y2126D01*
X6510Y2229D01*
X6496Y2332D01*
X6457Y2428D01*
X6393Y2511D01*
X6311Y2574D01*
X6215Y2614D01*
X6111Y2628D01*
X6008Y2614D01*
X5912Y2574D01*
X5829Y2511D01*
X5766Y2428D01*
X5726Y2332D01*
X5713Y2229D01*
X5726Y2126D01*
X5745Y2079D01*
X5419Y1753D01*
X4063D01*
X1953Y3863D01*
Y6239D01*
X2309Y6595D01*
X2355Y6576D01*
X2459Y6562D01*
X2562Y6576D01*
X2658Y6616D01*
X2741Y6679D01*
X2804Y6762D01*
X2844Y6858D01*
X2857Y6961D01*
X2844Y7064D01*
X2804Y7161D01*
X2741Y7243D01*
X2658Y7306D01*
X2562Y7346D01*
X2459Y7360D01*
D02*
G37*
G36*
X18039Y7549D02*
X17935Y7535D01*
X17839Y7495D01*
X17757Y7432D01*
X17693Y7349D01*
X17654Y7253D01*
X17640Y7150D01*
X17641Y7141D01*
X17608Y7103D01*
X17440D01*
Y7227D01*
X16965D01*
Y6673D01*
X17440D01*
Y6797D01*
X17839D01*
X17852Y6800D01*
X17935Y6765D01*
X18039Y6751D01*
X18142Y6765D01*
X18238Y6805D01*
X18321Y6868D01*
X18384Y6951D01*
X18424Y7047D01*
X18437Y7150D01*
X18424Y7253D01*
X18384Y7349D01*
X18321Y7432D01*
X18238Y7495D01*
X18142Y7535D01*
X18039Y7549D01*
D02*
G37*
G36*
X15054Y7279D02*
X14807D01*
Y7111D01*
X15054D01*
Y7279D01*
D02*
G37*
G36*
X16850Y8327D02*
X16374D01*
Y7773D01*
X16459D01*
Y7227D01*
X16374D01*
Y7108D01*
X16307D01*
Y7173D01*
X15713D01*
Y6737D01*
X16307D01*
Y6802D01*
X16374D01*
Y6673D01*
X16459D01*
Y6177D01*
X16374D01*
Y5623D01*
X16850D01*
Y6177D01*
X16765D01*
Y6673D01*
X16850D01*
Y7227D01*
X16765D01*
Y7773D01*
X16850D01*
Y8327D01*
D02*
G37*
G36*
X13563Y8035D02*
X13124D01*
X12686D01*
X12692Y8004D01*
X12738Y7935D01*
Y7920D01*
X12692Y7851D01*
X12676Y7770D01*
X12692Y7689D01*
X12717Y7651D01*
X12735Y7613D01*
X12717Y7574D01*
X12692Y7536D01*
X12676Y7455D01*
X12692Y7374D01*
X12738Y7305D01*
Y7290D01*
X12692Y7221D01*
X12676Y7140D01*
X12692Y7059D01*
X12738Y6990D01*
Y6975D01*
X12692Y6906D01*
X12676Y6825D01*
X12692Y6744D01*
X12738Y6675D01*
X12807Y6629D01*
X12888Y6613D01*
X12971D01*
Y6602D01*
X12983Y6544D01*
X13016Y6494D01*
X16132Y3378D01*
X16113Y3332D01*
X16099Y3229D01*
X16113Y3126D01*
X16153Y3029D01*
X16216Y2947D01*
X16299Y2884D01*
X16395Y2844D01*
X16498Y2830D01*
X16601Y2844D01*
X16697Y2884D01*
X16780Y2947D01*
X16843Y3029D01*
X16883Y3126D01*
X16890Y3179D01*
X16943Y3197D01*
X17020Y3121D01*
X17069Y3088D01*
X17128Y3076D01*
X17134D01*
X17153Y3029D01*
X17216Y2947D01*
X17299Y2884D01*
X17395Y2844D01*
X17498Y2830D01*
X17601Y2844D01*
X17697Y2884D01*
X17780Y2947D01*
X17843Y3029D01*
X17883Y3126D01*
X17890Y3179D01*
X17943Y3197D01*
X18020Y3121D01*
X18069Y3088D01*
X18103Y3081D01*
Y2834D01*
X18893D01*
Y3624D01*
X18103D01*
Y3535D01*
X18057Y3516D01*
X17791Y3782D01*
X17741Y3815D01*
X17682Y3827D01*
X17255D01*
X14694Y6388D01*
X14719Y6434D01*
X14751Y6428D01*
X14807D01*
Y6363D01*
X15401D01*
Y6799D01*
X14807D01*
Y6799D01*
X14767Y6782D01*
X13670Y7878D01*
X13621Y7911D01*
X13562Y7923D01*
X13536Y7973D01*
X13557Y8004D01*
X13563Y8035D01*
D02*
G37*
G36*
X2459Y6360D02*
X2355Y6346D01*
X2259Y6306D01*
X2177Y6243D01*
X2113Y6161D01*
X2074Y6064D01*
X2060Y5961D01*
X2074Y5858D01*
X2113Y5762D01*
X2177Y5679D01*
X2259Y5616D01*
X2355Y5576D01*
X2459Y5562D01*
X2562Y5576D01*
X2658Y5616D01*
X2741Y5679D01*
X2804Y5762D01*
X2844Y5858D01*
X2857Y5961D01*
X2844Y6064D01*
X2804Y6161D01*
X2741Y6243D01*
X2658Y6306D01*
X2562Y6346D01*
X2459Y6360D01*
D02*
G37*
G36*
X3854Y5356D02*
X3509D01*
Y5011D01*
X3854D01*
Y5356D01*
D02*
G37*
G36*
X3459Y6360D02*
X3355Y6346D01*
X3259Y6306D01*
X3177Y6243D01*
X3113Y6161D01*
X3074Y6064D01*
X3060Y5961D01*
X3074Y5858D01*
X3113Y5762D01*
X3177Y5679D01*
X3259Y5616D01*
X3355Y5576D01*
X3459Y5562D01*
X3562Y5576D01*
X3658Y5616D01*
X3741Y5679D01*
X3758Y5702D01*
X4728D01*
Y5617D01*
X5282D01*
Y6093D01*
X4728D01*
Y6008D01*
X3851D01*
X3844Y6064D01*
X3804Y6161D01*
X3741Y6243D01*
X3658Y6306D01*
X3562Y6346D01*
X3459Y6360D01*
D02*
G37*
G36*
X19039Y6549D02*
X18935Y6535D01*
X18839Y6495D01*
X18757Y6432D01*
X18693Y6349D01*
X18654Y6253D01*
X18640Y6150D01*
X18654Y6047D01*
X18693Y5951D01*
X18757Y5868D01*
X18839Y5805D01*
X18935Y5765D01*
X19039Y5751D01*
X19142Y5765D01*
X19238Y5805D01*
X19321Y5868D01*
X19384Y5951D01*
X19424Y6047D01*
X19437Y6150D01*
X19424Y6253D01*
X19384Y6349D01*
X19321Y6432D01*
X19238Y6495D01*
X19142Y6535D01*
X19039Y6549D01*
D02*
G37*
G36*
X18039D02*
X17935Y6535D01*
X17839Y6495D01*
X17757Y6432D01*
X17693Y6349D01*
X17674Y6303D01*
X17452D01*
X17394Y6291D01*
X17344Y6258D01*
X17263Y6177D01*
X16965D01*
Y5623D01*
X17440D01*
Y5922D01*
X17516Y5997D01*
X17674D01*
X17693Y5951D01*
X17757Y5868D01*
X17839Y5805D01*
X17935Y5765D01*
X18039Y5751D01*
X18142Y5765D01*
X18238Y5805D01*
X18321Y5868D01*
X18384Y5951D01*
X18424Y6047D01*
X18437Y6150D01*
X18424Y6253D01*
X18384Y6349D01*
X18321Y6432D01*
X18238Y6495D01*
X18142Y6535D01*
X18039Y6549D01*
D02*
G37*
G36*
X19039Y9549D02*
X18935Y9535D01*
X18839Y9495D01*
X18757Y9432D01*
X18693Y9349D01*
X18654Y9253D01*
X18640Y9150D01*
X18654Y9047D01*
X18693Y8951D01*
X18757Y8868D01*
X18839Y8805D01*
X18935Y8765D01*
X19039Y8751D01*
X19142Y8765D01*
X19238Y8805D01*
X19321Y8868D01*
X19384Y8951D01*
X19424Y9047D01*
X19437Y9150D01*
X19424Y9253D01*
X19384Y9349D01*
X19321Y9432D01*
X19238Y9495D01*
X19142Y9535D01*
X19039Y9549D01*
D02*
G37*
G36*
X18039Y8549D02*
X17935Y8535D01*
X17839Y8495D01*
X17757Y8432D01*
X17693Y8349D01*
X17654Y8253D01*
X17647Y8203D01*
X17440D01*
Y8327D01*
X16965D01*
Y7773D01*
X17440D01*
Y7897D01*
X17735D01*
X17757Y7868D01*
X17839Y7805D01*
X17935Y7765D01*
X18039Y7751D01*
X18142Y7765D01*
X18238Y7805D01*
X18321Y7868D01*
X18384Y7951D01*
X18424Y8047D01*
X18437Y8150D01*
X18424Y8253D01*
X18384Y8349D01*
X18321Y8432D01*
X18238Y8495D01*
X18142Y8535D01*
X18039Y8549D01*
D02*
G37*
G36*
X16562Y9050D02*
X16374D01*
Y8823D01*
X16562D01*
Y9050D01*
D02*
G37*
G36*
X2205Y9261D02*
X2017D01*
Y9034D01*
X2205D01*
Y9261D01*
D02*
G37*
G36*
X16850Y9050D02*
X16662D01*
Y8823D01*
X16850D01*
Y9050D01*
D02*
G37*
G36*
X13563Y8665D02*
X13124D01*
X12686D01*
X12692Y8634D01*
X12713Y8603D01*
X12686Y8553D01*
X12000D01*
X11941Y8541D01*
X11892Y8508D01*
X11565Y8181D01*
X11541Y8191D01*
X11450Y8203D01*
X11359Y8191D01*
X11273Y8156D01*
X11200Y8100D01*
X11144Y8027D01*
X11109Y7941D01*
X11097Y7850D01*
X11109Y7759D01*
X11119Y7735D01*
X11107Y7723D01*
X11074Y7673D01*
X11062Y7615D01*
Y6614D01*
X11012Y6587D01*
X10981Y6608D01*
X10950Y6614D01*
Y6176D01*
X10850D01*
Y6614D01*
X10819Y6608D01*
X10750Y6562D01*
X10735D01*
X10666Y6608D01*
X10585Y6624D01*
X10504Y6608D01*
X10435Y6562D01*
X10420D01*
X10351Y6608D01*
X10270Y6624D01*
X10189Y6608D01*
X10120Y6562D01*
X10105D01*
X10036Y6608D01*
X9955Y6624D01*
X9874Y6608D01*
X9805Y6562D01*
X9790D01*
X9721Y6608D01*
X9640Y6624D01*
X9559Y6608D01*
X9490Y6562D01*
X9475D01*
X9406Y6608D01*
X9325Y6624D01*
X9244Y6608D01*
X9175Y6562D01*
X9129Y6493D01*
X9113Y6412D01*
Y6329D01*
X9058D01*
X9000Y6317D01*
X8950Y6284D01*
X6261Y3595D01*
X6215Y3614D01*
X6111Y3628D01*
X6008Y3614D01*
X5912Y3574D01*
X5829Y3511D01*
X5766Y3428D01*
X5726Y3332D01*
X5713Y3229D01*
X5726Y3126D01*
X5766Y3029D01*
X5829Y2947D01*
X5912Y2884D01*
X6008Y2844D01*
X6111Y2830D01*
X6215Y2844D01*
X6311Y2884D01*
X6393Y2947D01*
X6457Y3029D01*
X6496Y3126D01*
X6510Y3229D01*
X6496Y3332D01*
X6477Y3378D01*
X9067Y5968D01*
X9113Y5949D01*
Y5939D01*
X9129Y5858D01*
X9175Y5789D01*
X9244Y5743D01*
X9323Y5727D01*
X9329Y5718D01*
X9347Y5680D01*
X7261Y3595D01*
X7215Y3614D01*
X7111Y3628D01*
X7008Y3614D01*
X6912Y3574D01*
X6829Y3511D01*
X6766Y3428D01*
X6726Y3332D01*
X6713Y3229D01*
X6726Y3126D01*
X6766Y3029D01*
X6829Y2947D01*
X6912Y2884D01*
X7008Y2844D01*
X7111Y2830D01*
X7215Y2844D01*
X7311Y2884D01*
X7393Y2947D01*
X7457Y3029D01*
X7496Y3126D01*
X7510Y3229D01*
X7496Y3332D01*
X7477Y3378D01*
X7670Y3571D01*
X7716Y3552D01*
Y2834D01*
X8507D01*
Y3624D01*
X8356D01*
X8337Y3670D01*
X10063Y5397D01*
X10096Y5447D01*
X10108Y5505D01*
Y5697D01*
X10158Y5725D01*
X10174Y5715D01*
Y3980D01*
X10185Y3921D01*
X10219Y3872D01*
X10419Y3672D01*
X10395Y3624D01*
X10371Y3628D01*
X10268Y3614D01*
X10172Y3574D01*
X10090Y3511D01*
X10026Y3428D01*
X9986Y3332D01*
X9979Y3279D01*
X10371D01*
Y3179D01*
X9979D01*
X9986Y3126D01*
X10026Y3029D01*
X10090Y2947D01*
X10172Y2884D01*
X10268Y2844D01*
X10322Y2837D01*
X10340Y2784D01*
X10263Y2707D01*
X10230Y2658D01*
X10223Y2624D01*
X9976D01*
Y1834D01*
X10767D01*
Y2624D01*
X10678D01*
X10659Y2670D01*
X10925Y2936D01*
X10958Y2986D01*
X10960Y2994D01*
X11017Y3031D01*
X11026Y3029D01*
X11090Y2947D01*
X11172Y2884D01*
X11268Y2844D01*
X11322Y2837D01*
X11340Y2784D01*
X11263Y2707D01*
X11230Y2658D01*
X11219Y2599D01*
Y2593D01*
X11172Y2574D01*
X11090Y2511D01*
X11026Y2428D01*
X10986Y2332D01*
X10973Y2229D01*
X10986Y2126D01*
X11026Y2030D01*
X11090Y1947D01*
X11172Y1884D01*
X11268Y1844D01*
X11371Y1830D01*
X11475Y1844D01*
X11571Y1884D01*
X11653Y1947D01*
X11717Y2030D01*
X11757Y2126D01*
X11770Y2229D01*
X11757Y2332D01*
X11717Y2428D01*
X11653Y2511D01*
X11606Y2547D01*
X11602Y2613D01*
X11925Y2936D01*
X11958Y2986D01*
X11960Y2994D01*
X12017Y3031D01*
X12026Y3029D01*
X12090Y2947D01*
X12172Y2884D01*
X12268Y2844D01*
X12371Y2830D01*
X12475Y2844D01*
X12571Y2884D01*
X12614Y2917D01*
X12664Y2892D01*
Y2737D01*
X12521Y2595D01*
X12475Y2614D01*
X12371Y2628D01*
X12268Y2614D01*
X12172Y2574D01*
X12090Y2511D01*
X12026Y2428D01*
X11986Y2332D01*
X11973Y2229D01*
X11986Y2126D01*
X12026Y2030D01*
X12090Y1947D01*
X12172Y1884D01*
X12268Y1844D01*
X12371Y1830D01*
X12475Y1844D01*
X12571Y1884D01*
X12653Y1947D01*
X12717Y2030D01*
X12757Y2126D01*
X12770Y2229D01*
X12757Y2332D01*
X12737Y2378D01*
X12925Y2566D01*
X12958Y2616D01*
X12970Y2674D01*
Y3035D01*
X13020Y3045D01*
X13026Y3029D01*
X13090Y2947D01*
X13172Y2884D01*
X13268Y2844D01*
X13371Y2830D01*
X13475Y2844D01*
X13571Y2884D01*
X13653Y2947D01*
X13717Y3029D01*
X13747Y3103D01*
X13797Y3093D01*
Y2871D01*
X13521Y2595D01*
X13475Y2614D01*
X13371Y2628D01*
X13268Y2614D01*
X13172Y2574D01*
X13090Y2511D01*
X13026Y2428D01*
X12986Y2332D01*
X12973Y2229D01*
X12986Y2126D01*
X13026Y2030D01*
X13090Y1947D01*
X13172Y1884D01*
X13268Y1844D01*
X13371Y1830D01*
X13475Y1844D01*
X13571Y1884D01*
X13653Y1947D01*
X13717Y2030D01*
X13757Y2126D01*
X13770Y2229D01*
X13757Y2332D01*
X13737Y2378D01*
X14058Y2699D01*
X14091Y2749D01*
X14103Y2807D01*
Y3784D01*
X14091Y3842D01*
X14058Y3892D01*
X12252Y5698D01*
X12263Y5758D01*
X12310Y5789D01*
X12325D01*
X12394Y5743D01*
X12475Y5727D01*
X12556Y5743D01*
X12625Y5789D01*
X12642Y5814D01*
X12691Y5819D01*
X15132Y3378D01*
X15113Y3332D01*
X15099Y3229D01*
X15113Y3126D01*
X15153Y3029D01*
X15216Y2947D01*
X15299Y2884D01*
X15395Y2844D01*
X15498Y2830D01*
X15601Y2844D01*
X15697Y2884D01*
X15780Y2947D01*
X15843Y3029D01*
X15883Y3126D01*
X15897Y3229D01*
X15883Y3332D01*
X15843Y3428D01*
X15780Y3511D01*
X15697Y3574D01*
X15601Y3614D01*
X15498Y3628D01*
X15395Y3614D01*
X15348Y3595D01*
X12687Y6256D01*
Y6412D01*
X12671Y6493D01*
X12625Y6562D01*
X12556Y6608D01*
X12475Y6624D01*
X12394Y6608D01*
X12325Y6562D01*
X12310D01*
X12241Y6608D01*
X12160Y6624D01*
X12079Y6608D01*
X12010Y6562D01*
X11995D01*
X11926Y6608D01*
X11845Y6624D01*
X11764Y6608D01*
X11695Y6562D01*
X11680D01*
X11611Y6608D01*
X11530Y6624D01*
X11449Y6608D01*
X11418Y6587D01*
X11368Y6614D01*
Y7470D01*
X11405Y7503D01*
X11450Y7497D01*
X11541Y7509D01*
X11627Y7544D01*
X11700Y7600D01*
X11756Y7673D01*
X11791Y7759D01*
X11803Y7850D01*
X11791Y7941D01*
X11781Y7965D01*
X12063Y8247D01*
X12686D01*
X12713Y8197D01*
X12692Y8166D01*
X12686Y8135D01*
X13124D01*
X13563D01*
X13557Y8166D01*
X13511Y8235D01*
Y8250D01*
X13557Y8319D01*
X13573Y8400D01*
X13557Y8481D01*
X13532Y8519D01*
X13514Y8557D01*
X13532Y8596D01*
X13557Y8634D01*
X13563Y8665D01*
D02*
G37*
G36*
X15054Y7547D02*
X14807D01*
Y7379D01*
X15054D01*
Y7547D01*
D02*
G37*
G36*
X15401Y7279D02*
X15154D01*
Y7111D01*
X15401D01*
Y7279D01*
D02*
G37*
G36*
Y7547D02*
X15154D01*
Y7379D01*
X15401D01*
Y7547D01*
D02*
G37*
G36*
X19039Y8549D02*
X18935Y8535D01*
X18839Y8495D01*
X18757Y8432D01*
X18693Y8349D01*
X18654Y8253D01*
X18640Y8150D01*
X18654Y8047D01*
X18693Y7951D01*
X18757Y7868D01*
X18839Y7805D01*
X18935Y7765D01*
X19039Y7751D01*
X19142Y7765D01*
X19238Y7805D01*
X19321Y7868D01*
X19384Y7951D01*
X19424Y8047D01*
X19437Y8150D01*
X19424Y8253D01*
X19384Y8349D01*
X19321Y8432D01*
X19238Y8495D01*
X19142Y8535D01*
X19039Y8549D01*
D02*
G37*
G36*
X2459Y8360D02*
X2355Y8346D01*
X2259Y8306D01*
X2177Y8243D01*
X2113Y8160D01*
X2074Y8064D01*
X2060Y7961D01*
X2074Y7858D01*
X2113Y7762D01*
X2177Y7679D01*
X2259Y7616D01*
X2355Y7576D01*
X2459Y7562D01*
X2562Y7576D01*
X2658Y7616D01*
X2741Y7679D01*
X2804Y7762D01*
X2844Y7858D01*
X2857Y7961D01*
X2844Y8064D01*
X2804Y8160D01*
X2741Y8243D01*
X2658Y8306D01*
X2562Y8346D01*
X2459Y8360D01*
D02*
G37*
G36*
X8503Y2179D02*
X8161D01*
Y1837D01*
X8215Y1844D01*
X8311Y1884D01*
X8393Y1947D01*
X8457Y2030D01*
X8496Y2126D01*
X8503Y2179D01*
D02*
G37*
G36*
X17498Y2628D02*
X17395Y2614D01*
X17299Y2574D01*
X17216Y2511D01*
X17153Y2428D01*
X17113Y2332D01*
X17099Y2229D01*
X17113Y2126D01*
X17153Y2030D01*
X17216Y1947D01*
X17299Y1884D01*
X17395Y1844D01*
X17498Y1830D01*
X17601Y1844D01*
X17697Y1884D01*
X17780Y1947D01*
X17843Y2030D01*
X17883Y2126D01*
X17897Y2229D01*
X17883Y2332D01*
X17843Y2428D01*
X17780Y2511D01*
X17697Y2574D01*
X17601Y2614D01*
X17498Y2628D01*
D02*
G37*
G36*
X18890Y2179D02*
X18548D01*
Y1837D01*
X18601Y1844D01*
X18697Y1884D01*
X18780Y1947D01*
X18843Y2030D01*
X18883Y2126D01*
X18890Y2179D01*
D02*
G37*
G36*
X18448D02*
X18106D01*
X18113Y2126D01*
X18153Y2030D01*
X18216Y1947D01*
X18299Y1884D01*
X18395Y1844D01*
X18448Y1837D01*
Y2179D01*
D02*
G37*
G36*
X8061D02*
X7719D01*
X7726Y2126D01*
X7766Y2030D01*
X7829Y1947D01*
X7912Y1884D01*
X8008Y1844D01*
X8061Y1837D01*
Y2179D01*
D02*
G37*
G36*
X15498Y2628D02*
X15395Y2614D01*
X15299Y2574D01*
X15216Y2511D01*
X15153Y2428D01*
X15113Y2332D01*
X15099Y2229D01*
X15113Y2126D01*
X15153Y2030D01*
X15216Y1947D01*
X15299Y1884D01*
X15395Y1844D01*
X15498Y1830D01*
X15601Y1844D01*
X15697Y1884D01*
X15780Y1947D01*
X15843Y2030D01*
X15883Y2126D01*
X15897Y2229D01*
X15883Y2332D01*
X15843Y2428D01*
X15780Y2511D01*
X15697Y2574D01*
X15601Y2614D01*
X15498Y2628D01*
D02*
G37*
G36*
X21000Y1088D02*
X20830Y1074D01*
X20664Y1034D01*
X20506Y969D01*
X20361Y880D01*
X20231Y769D01*
X20120Y639D01*
X20031Y494D01*
X19966Y336D01*
X19926Y170D01*
X19912Y0D01*
X19926Y-170D01*
X19966Y-336D01*
X20031Y-494D01*
X20120Y-639D01*
X20231Y-769D01*
X20361Y-880D01*
X20506Y-969D01*
X20664Y-1034D01*
X20830Y-1074D01*
X21000Y-1088D01*
X21170Y-1074D01*
X21336Y-1034D01*
X21494Y-969D01*
X21639Y-880D01*
X21769Y-769D01*
X21880Y-639D01*
X21969Y-494D01*
X22034Y-336D01*
X22074Y-170D01*
X22088Y0D01*
X22074Y170D01*
X22034Y336D01*
X21969Y494D01*
X21880Y639D01*
X21769Y769D01*
X21639Y880D01*
X21494Y969D01*
X21336Y1034D01*
X21170Y1074D01*
X21000Y1088D01*
D02*
G37*
G36*
X0D02*
X-170Y1074D01*
X-336Y1034D01*
X-494Y969D01*
X-639Y880D01*
X-769Y769D01*
X-880Y639D01*
X-969Y494D01*
X-1034Y336D01*
X-1074Y170D01*
X-1088Y0D01*
X-1074Y-170D01*
X-1034Y-336D01*
X-969Y-494D01*
X-880Y-639D01*
X-769Y-769D01*
X-639Y-880D01*
X-494Y-969D01*
X-336Y-1034D01*
X-170Y-1074D01*
X0Y-1088D01*
X170Y-1074D01*
X336Y-1034D01*
X494Y-969D01*
X639Y-880D01*
X769Y-769D01*
X880Y-639D01*
X969Y-494D01*
X1034Y-336D01*
X1074Y-170D01*
X1088Y0D01*
X1074Y170D01*
X1034Y336D01*
X969Y494D01*
X880Y639D01*
X769Y769D01*
X639Y880D01*
X494Y969D01*
X336Y1034D01*
X170Y1074D01*
X0Y1088D01*
D02*
G37*
G36*
X19434Y18251D02*
X18643D01*
Y17460D01*
X19218D01*
X19497Y17181D01*
Y2063D01*
X18987Y1553D01*
X17390D01*
X16864Y2079D01*
X16883Y2126D01*
X16897Y2229D01*
X16883Y2332D01*
X16843Y2428D01*
X16780Y2511D01*
X16697Y2574D01*
X16601Y2614D01*
X16498Y2628D01*
X16395Y2614D01*
X16299Y2574D01*
X16216Y2511D01*
X16153Y2428D01*
X16113Y2332D01*
X16099Y2229D01*
X16113Y2126D01*
X16153Y2030D01*
X16216Y1947D01*
X16299Y1884D01*
X16395Y1844D01*
X16498Y1830D01*
X16601Y1844D01*
X16648Y1863D01*
X17219Y1292D01*
X17268Y1259D01*
X17327Y1247D01*
X19050D01*
X19109Y1259D01*
X19158Y1292D01*
X19758Y1892D01*
X19791Y1941D01*
X19803Y2000D01*
Y17244D01*
X19791Y17303D01*
X19758Y17352D01*
X19434Y17677D01*
Y18251D01*
D02*
G37*
G36*
X7111Y2628D02*
X7008Y2614D01*
X6912Y2574D01*
X6829Y2511D01*
X6766Y2428D01*
X6726Y2332D01*
X6713Y2229D01*
X6726Y2126D01*
X6766Y2030D01*
X6829Y1947D01*
X6912Y1884D01*
X7008Y1844D01*
X7111Y1830D01*
X7215Y1844D01*
X7311Y1884D01*
X7393Y1947D01*
X7457Y2030D01*
X7496Y2126D01*
X7510Y2229D01*
X7496Y2332D01*
X7457Y2428D01*
X7393Y2511D01*
X7311Y2574D01*
X7215Y2614D01*
X7111Y2628D01*
D02*
G37*
G36*
X5111D02*
X5008Y2614D01*
X4912Y2574D01*
X4829Y2511D01*
X4766Y2428D01*
X4726Y2332D01*
X4713Y2229D01*
X4726Y2126D01*
X4766Y2030D01*
X4829Y1947D01*
X4912Y1884D01*
X5008Y1844D01*
X5111Y1830D01*
X5215Y1844D01*
X5311Y1884D01*
X5393Y1947D01*
X5457Y2030D01*
X5496Y2126D01*
X5510Y2229D01*
X5496Y2332D01*
X5457Y2428D01*
X5393Y2511D01*
X5311Y2574D01*
X5215Y2614D01*
X5111Y2628D01*
D02*
G37*
G36*
X2409Y4911D02*
X2067D01*
X2074Y4858D01*
X2113Y4762D01*
X2177Y4679D01*
X2259Y4616D01*
X2355Y4576D01*
X2409Y4569D01*
Y4911D01*
D02*
G37*
G36*
X2851D02*
X2509D01*
Y4569D01*
X2562Y4576D01*
X2658Y4616D01*
X2741Y4679D01*
X2804Y4762D01*
X2844Y4858D01*
X2851Y4911D01*
D02*
G37*
G36*
X3409Y5356D02*
X3063D01*
Y5011D01*
X3409D01*
Y5356D01*
D02*
G37*
G36*
X2509Y5353D02*
Y5011D01*
X2851D01*
X2844Y5064D01*
X2804Y5160D01*
X2741Y5243D01*
X2658Y5306D01*
X2562Y5346D01*
X2509Y5353D01*
D02*
G37*
G36*
X2409D02*
X2355Y5346D01*
X2259Y5306D01*
X2177Y5243D01*
X2113Y5160D01*
X2074Y5064D01*
X2067Y5011D01*
X2409D01*
Y5353D01*
D02*
G37*
G36*
X3854Y4911D02*
X3509D01*
Y4566D01*
X3854D01*
Y4911D01*
D02*
G37*
G36*
X8061Y2621D02*
X8008Y2614D01*
X7912Y2574D01*
X7829Y2511D01*
X7766Y2428D01*
X7726Y2332D01*
X7719Y2279D01*
X8061D01*
Y2621D01*
D02*
G37*
G36*
X18448D02*
X18395Y2614D01*
X18299Y2574D01*
X18216Y2511D01*
X18153Y2428D01*
X18113Y2332D01*
X18106Y2279D01*
X18448D01*
Y2621D01*
D02*
G37*
G36*
X18548Y2621D02*
Y2279D01*
X18890D01*
X18883Y2332D01*
X18843Y2428D01*
X18780Y2511D01*
X18697Y2574D01*
X18601Y2614D01*
X18548Y2621D01*
D02*
G37*
G36*
X3409Y4911D02*
X3063D01*
Y4566D01*
X3409D01*
Y4911D01*
D02*
G37*
G36*
X8161Y2621D02*
Y2279D01*
X8503D01*
X8496Y2332D01*
X8457Y2428D01*
X8393Y2511D01*
X8311Y2574D01*
X8215Y2614D01*
X8161Y2621D01*
D02*
G37*
G36*
X6738Y13863D02*
X6353D01*
Y13597D01*
X6738D01*
Y13863D01*
D02*
G37*
G36*
X3851Y13755D02*
X3509D01*
Y13413D01*
X3562Y13420D01*
X3658Y13460D01*
X3741Y13523D01*
X3804Y13606D01*
X3844Y13702D01*
X3851Y13755D01*
D02*
G37*
G36*
X7725Y13863D02*
Y13597D01*
X8110D01*
Y13863D01*
X7725D01*
D02*
G37*
G36*
X3509Y14197D02*
Y13855D01*
X3851D01*
X3844Y13909D01*
X3804Y14005D01*
X3741Y14087D01*
X3658Y14151D01*
X3562Y14190D01*
X3509Y14197D01*
D02*
G37*
G36*
X3409D02*
X3355Y14190D01*
X3259Y14151D01*
X3177Y14087D01*
X3113Y14005D01*
X3074Y13909D01*
X3067Y13855D01*
X3409D01*
Y14197D01*
D02*
G37*
G36*
Y13755D02*
X3067D01*
X3074Y13702D01*
X3113Y13606D01*
X3177Y13523D01*
X3259Y13460D01*
X3355Y13420D01*
X3409Y13413D01*
Y13755D01*
D02*
G37*
G36*
X2854Y14201D02*
X2063D01*
Y13410D01*
X2333D01*
X2351Y13383D01*
X2485Y13248D01*
X2463Y13203D01*
X2459Y13204D01*
X2355Y13190D01*
X2259Y13151D01*
X2177Y13087D01*
X2113Y13005D01*
X2074Y12909D01*
X2060Y12805D01*
X2074Y12702D01*
X2113Y12606D01*
X2177Y12523D01*
X2259Y12460D01*
X2355Y12420D01*
X2459Y12407D01*
X2562Y12420D01*
X2608Y12439D01*
X2860Y12187D01*
Y11999D01*
X2810Y11989D01*
X2804Y12005D01*
X2741Y12087D01*
X2658Y12151D01*
X2562Y12190D01*
X2459Y12204D01*
X2355Y12190D01*
X2259Y12151D01*
X2177Y12087D01*
X2113Y12005D01*
X2074Y11909D01*
X2060Y11805D01*
X2074Y11702D01*
X2113Y11606D01*
X2177Y11523D01*
X2259Y11460D01*
X2306Y11441D01*
Y9697D01*
X2317Y9639D01*
X2318Y9638D01*
X2305Y9613D01*
Y9361D01*
X2493D01*
Y9382D01*
X2539Y9401D01*
X2607Y9332D01*
Y9034D01*
X2906D01*
X3018Y8922D01*
X3068Y8889D01*
X3126Y8877D01*
X8237D01*
X8264Y8827D01*
X8243Y8796D01*
X8237Y8765D01*
X8676D01*
X9114D01*
X9108Y8796D01*
X9062Y8865D01*
Y8880D01*
X9108Y8949D01*
X9124Y9030D01*
X9108Y9111D01*
X9083Y9149D01*
X9065Y9187D01*
X9083Y9226D01*
X9108Y9264D01*
X9124Y9345D01*
X9108Y9426D01*
X9062Y9495D01*
Y9510D01*
X9108Y9579D01*
X9124Y9660D01*
X9108Y9741D01*
X9062Y9810D01*
Y9825D01*
X9108Y9894D01*
X9124Y9975D01*
X9108Y10056D01*
X9062Y10125D01*
X8993Y10171D01*
X8912Y10187D01*
X8439D01*
X8358Y10171D01*
X8293Y10128D01*
X6353D01*
X3825Y12656D01*
X3844Y12702D01*
X3857Y12805D01*
X3844Y12909D01*
X3804Y13005D01*
X3741Y13087D01*
X3658Y13151D01*
X3562Y13190D01*
X3459Y13204D01*
X3355Y13190D01*
X3259Y13151D01*
X3177Y13087D01*
X3162Y13068D01*
X3099Y13068D01*
X2802Y13364D01*
X2822Y13410D01*
X2854D01*
Y14201D01*
D02*
G37*
G36*
X5641Y19387D02*
X1937D01*
Y14994D01*
X5641D01*
Y15057D01*
X5688Y15076D01*
X6262Y14502D01*
X6311Y14468D01*
X6353Y14460D01*
Y14293D01*
X7223D01*
Y14293D01*
X7241D01*
Y14293D01*
X7776D01*
X8296Y13773D01*
Y13200D01*
X8308Y13141D01*
X8341Y13092D01*
X8563Y12869D01*
Y12502D01*
X9157D01*
Y13076D01*
X8830D01*
X8826Y13082D01*
X8852Y13132D01*
X9157D01*
Y13266D01*
X9440D01*
Y13161D01*
X9994D01*
Y13246D01*
X10365D01*
Y13161D01*
X10920D01*
Y13637D01*
X10965Y13647D01*
X11104D01*
X11291Y13460D01*
Y13161D01*
X11845D01*
Y13231D01*
X11895Y13240D01*
X12266Y12869D01*
Y12502D01*
X12859D01*
Y13076D01*
X12532D01*
X12528Y13082D01*
X12555Y13132D01*
X12859D01*
Y13266D01*
X13142D01*
Y13161D01*
X13697D01*
Y13367D01*
X13743Y13387D01*
X13797Y13332D01*
Y13253D01*
X13809Y13194D01*
X13842Y13145D01*
X14117Y12869D01*
Y12502D01*
X14711D01*
Y13076D01*
X14384D01*
X14380Y13082D01*
X14406Y13132D01*
X14711D01*
Y13266D01*
X14994D01*
Y13161D01*
X15548D01*
Y13367D01*
X15594Y13387D01*
X15647Y13334D01*
Y13254D01*
X15659Y13196D01*
X15692Y13146D01*
X15969Y12869D01*
Y12502D01*
X16528D01*
X16549Y12452D01*
X14225Y10128D01*
X13507D01*
X13442Y10171D01*
X13361Y10187D01*
X12926D01*
X12905Y10237D01*
X13528Y10859D01*
X13561Y10909D01*
X13572Y10968D01*
Y12571D01*
X13697D01*
Y13046D01*
X13142D01*
Y12571D01*
X13266D01*
Y11031D01*
X12733Y10498D01*
X12687Y10517D01*
Y10861D01*
X12671Y10942D01*
X12625Y11011D01*
X12556Y11057D01*
X12475Y11073D01*
X12394Y11057D01*
X12356Y11032D01*
X12317Y11014D01*
X12279Y11032D01*
X12241Y11057D01*
X12160Y11073D01*
X12079Y11057D01*
X12041Y11032D01*
X12002Y11014D01*
X11964Y11032D01*
X11926Y11057D01*
X11845Y11073D01*
X11764Y11057D01*
X11726Y11032D01*
X11687Y11014D01*
X11649Y11032D01*
X11611Y11057D01*
X11530Y11073D01*
X11449Y11057D01*
X11380Y11011D01*
X11365D01*
X11296Y11057D01*
X11265Y11063D01*
Y10624D01*
Y10186D01*
X11296Y10192D01*
X11365Y10238D01*
X11380D01*
X11449Y10192D01*
X11530Y10176D01*
X11611Y10192D01*
X11649Y10217D01*
X11687Y10235D01*
X11726Y10217D01*
X11764Y10192D01*
X11845Y10176D01*
X11926Y10192D01*
X11964Y10217D01*
X12002Y10235D01*
X12041Y10217D01*
X12079Y10192D01*
X12160Y10176D01*
X12241Y10192D01*
X12279Y10217D01*
X12317Y10235D01*
X12356Y10217D01*
X12372Y10207D01*
X12383Y10147D01*
X9585Y7350D01*
X9147D01*
X9113Y7400D01*
X9124Y7455D01*
X9108Y7536D01*
X9083Y7574D01*
X9065Y7613D01*
X9083Y7651D01*
X9108Y7689D01*
X9124Y7770D01*
X9108Y7851D01*
X9062Y7920D01*
Y7935D01*
X9108Y8004D01*
X9124Y8085D01*
X9108Y8166D01*
X9087Y8197D01*
X9114Y8247D01*
X9650D01*
X9709Y8259D01*
X9758Y8292D01*
X10185Y8719D01*
X10209Y8709D01*
X10300Y8697D01*
X10391Y8709D01*
X10477Y8744D01*
X10550Y8800D01*
X10606Y8873D01*
X10641Y8959D01*
X10653Y9050D01*
X10641Y9141D01*
X10631Y9165D01*
X11008Y9542D01*
X11041Y9591D01*
X11053Y9650D01*
Y10186D01*
X11103Y10213D01*
X11134Y10192D01*
X11165Y10186D01*
Y10624D01*
Y11063D01*
X11134Y11057D01*
X11065Y11011D01*
X11050D01*
X10981Y11057D01*
X10900Y11073D01*
X10819Y11057D01*
X10750Y11011D01*
X10735D01*
X10666Y11057D01*
X10585Y11073D01*
X10504Y11057D01*
X10435Y11011D01*
X10420D01*
X10351Y11057D01*
X10270Y11073D01*
X10189Y11057D01*
X10120Y11011D01*
X10105D01*
X10036Y11057D01*
X9955Y11073D01*
X9874Y11057D01*
X9805Y11011D01*
X9790D01*
X9721Y11057D01*
X9640Y11073D01*
X9559Y11057D01*
X9490Y11011D01*
X9475D01*
X9406Y11057D01*
X9325Y11073D01*
X9244Y11057D01*
X9175Y11011D01*
X9129Y10942D01*
X9113Y10861D01*
Y10388D01*
X9129Y10307D01*
X9175Y10238D01*
X9244Y10192D01*
X9325Y10176D01*
X9406Y10192D01*
X9475Y10238D01*
X9490D01*
X9559Y10192D01*
X9640Y10176D01*
X9721Y10192D01*
X9790Y10238D01*
X9805D01*
X9874Y10192D01*
X9955Y10176D01*
X10036Y10192D01*
X10105Y10238D01*
X10120D01*
X10189Y10192D01*
X10270Y10176D01*
X10351Y10192D01*
X10420Y10238D01*
X10435D01*
X10504Y10192D01*
X10585Y10176D01*
X10666Y10192D01*
X10697Y10213D01*
X10747Y10186D01*
Y9713D01*
X10415Y9381D01*
X10391Y9391D01*
X10300Y9403D01*
X10209Y9391D01*
X10123Y9356D01*
X10050Y9300D01*
X9994Y9227D01*
X9959Y9141D01*
X9947Y9050D01*
X9959Y8959D01*
X9969Y8935D01*
X9587Y8553D01*
X9114D01*
X9087Y8603D01*
X9108Y8634D01*
X9114Y8665D01*
X8676D01*
X8237D01*
X8243Y8634D01*
X8268Y8596D01*
X8286Y8557D01*
X8268Y8519D01*
X8243Y8481D01*
X8227Y8400D01*
X8243Y8319D01*
X8289Y8250D01*
Y8235D01*
X8243Y8166D01*
X8227Y8085D01*
X8243Y8004D01*
X8289Y7935D01*
Y7920D01*
X8243Y7851D01*
X8227Y7770D01*
X8243Y7689D01*
X8264Y7658D01*
X8237Y7608D01*
X6458D01*
X5997Y8069D01*
X5947Y8102D01*
X5889Y8114D01*
X3823D01*
X3804Y8160D01*
X3741Y8243D01*
X3658Y8306D01*
X3562Y8346D01*
X3459Y8360D01*
X3355Y8346D01*
X3259Y8306D01*
X3177Y8243D01*
X3113Y8160D01*
X3074Y8064D01*
X3060Y7961D01*
X3074Y7858D01*
X3113Y7762D01*
X3177Y7679D01*
X3259Y7616D01*
X3355Y7576D01*
X3459Y7562D01*
X3562Y7576D01*
X3658Y7616D01*
X3741Y7679D01*
X3804Y7762D01*
X3823Y7808D01*
X5825D01*
X6251Y7383D01*
X6230Y7333D01*
X5873D01*
Y7333D01*
X5855Y7333D01*
Y7333D01*
X5300D01*
Y7248D01*
X3734D01*
X3658Y7306D01*
X3562Y7346D01*
X3459Y7360D01*
X3355Y7346D01*
X3259Y7306D01*
X3177Y7243D01*
X3113Y7161D01*
X3074Y7064D01*
X3060Y6961D01*
X3074Y6858D01*
X3113Y6762D01*
X3177Y6679D01*
X3259Y6616D01*
X3355Y6576D01*
X3459Y6562D01*
X3562Y6576D01*
X3658Y6616D01*
X3741Y6679D01*
X3804Y6762D01*
X3844Y6858D01*
X3855Y6942D01*
X5300D01*
Y6857D01*
X5855D01*
Y6857D01*
X5873Y6857D01*
Y6857D01*
X6221D01*
X6240Y6811D01*
X6172Y6743D01*
X5905D01*
X5873Y6743D01*
X5823Y6743D01*
X5300D01*
Y6726D01*
X5282Y6683D01*
X4728D01*
Y6207D01*
X5282D01*
Y6224D01*
X5300Y6267D01*
X5823D01*
X5855Y6267D01*
X5905Y6267D01*
X6427D01*
Y6566D01*
X6849Y6987D01*
X8237D01*
X8264Y6937D01*
X8243Y6906D01*
X8227Y6825D01*
X8243Y6744D01*
X8289Y6675D01*
X8291Y6657D01*
X5238Y3604D01*
X5215Y3614D01*
X5111Y3628D01*
X5008Y3614D01*
X4912Y3574D01*
X4829Y3511D01*
X4766Y3428D01*
X4726Y3332D01*
X4713Y3229D01*
X4726Y3126D01*
X4766Y3029D01*
X4829Y2947D01*
X4912Y2884D01*
X5008Y2844D01*
X5111Y2830D01*
X5215Y2844D01*
X5311Y2884D01*
X5393Y2947D01*
X5457Y3029D01*
X5496Y3126D01*
X5510Y3229D01*
X5496Y3332D01*
X5468Y3401D01*
X8680Y6613D01*
X8912D01*
X8993Y6629D01*
X9062Y6675D01*
X9108Y6744D01*
X9124Y6825D01*
X9108Y6906D01*
X9062Y6975D01*
Y6990D01*
X9098Y7044D01*
X9649D01*
X9707Y7056D01*
X9757Y7089D01*
X12628Y9960D01*
X12682Y9943D01*
X12692Y9894D01*
X12738Y9825D01*
Y9810D01*
X12692Y9741D01*
X12676Y9660D01*
X12692Y9579D01*
X12738Y9510D01*
Y9495D01*
X12692Y9426D01*
X12676Y9345D01*
X12692Y9264D01*
X12717Y9226D01*
X12735Y9187D01*
X12717Y9149D01*
X12692Y9111D01*
X12676Y9030D01*
X12692Y8949D01*
X12738Y8880D01*
Y8865D01*
X12692Y8796D01*
X12686Y8765D01*
X13124D01*
X13563D01*
X13557Y8796D01*
X13511Y8865D01*
Y8880D01*
X13557Y8949D01*
X13573Y9030D01*
X13557Y9111D01*
X13532Y9149D01*
X13514Y9187D01*
X13532Y9226D01*
X13557Y9264D01*
X13573Y9345D01*
X13557Y9426D01*
X13511Y9495D01*
Y9510D01*
X13557Y9579D01*
X13573Y9660D01*
X13557Y9741D01*
X13536Y9772D01*
X13563Y9822D01*
X14288D01*
X14347Y9834D01*
X14397Y9867D01*
X17101Y12571D01*
X17399D01*
Y13046D01*
X16845D01*
Y12748D01*
X16612Y12515D01*
X16562Y12536D01*
Y13076D01*
X16235D01*
X16231Y13082D01*
X16258Y13132D01*
X16562D01*
Y13266D01*
X16845D01*
Y13161D01*
X17399D01*
Y13637D01*
X16845D01*
Y13572D01*
X16562D01*
Y13706D01*
X15969D01*
Y13505D01*
X15919Y13490D01*
X15908Y13505D01*
X15505Y13908D01*
X15456Y13941D01*
X15397Y13953D01*
X8549D01*
X8110Y14391D01*
Y14926D01*
X7241D01*
Y14926D01*
X7223D01*
Y14926D01*
X6353D01*
Y14908D01*
X6307Y14889D01*
X5641Y15554D01*
Y19387D01*
D02*
G37*
G36*
X7241Y13863D02*
X7191Y13863D01*
X6838D01*
Y13547D01*
Y13230D01*
X7191D01*
X7223Y13230D01*
X7273Y13230D01*
X7625D01*
Y13547D01*
Y13863D01*
X7273D01*
X7241Y13863D01*
D02*
G37*
G36*
X8110Y13497D02*
X7725D01*
Y13230D01*
X8110D01*
Y13497D01*
D02*
G37*
G36*
X6738D02*
X6353D01*
Y13230D01*
X6738D01*
Y13497D01*
D02*
G37*
G36*
X8437Y18497D02*
X7914D01*
Y18240D01*
X8437D01*
Y18497D01*
D02*
G37*
G36*
X7814D02*
X7292D01*
Y18240D01*
X7814D01*
Y18497D01*
D02*
G37*
G36*
X19039Y19254D02*
X18935Y19241D01*
X18839Y19201D01*
X18757Y19137D01*
X18693Y19055D01*
X18654Y18959D01*
X18640Y18856D01*
X18654Y18752D01*
X18693Y18656D01*
X18757Y18574D01*
X18839Y18510D01*
X18935Y18470D01*
X19039Y18457D01*
X19142Y18470D01*
X19238Y18510D01*
X19321Y18574D01*
X19384Y18656D01*
X19424Y18752D01*
X19437Y18856D01*
X19424Y18959D01*
X19384Y19055D01*
X19321Y19137D01*
X19238Y19201D01*
X19142Y19241D01*
X19039Y19254D01*
D02*
G37*
G36*
X21000Y22088D02*
X20830Y22074D01*
X20664Y22034D01*
X20506Y21969D01*
X20361Y21880D01*
X20231Y21769D01*
X20120Y21639D01*
X20031Y21494D01*
X19966Y21336D01*
X19926Y21170D01*
X19912Y21000D01*
X19926Y20830D01*
X19966Y20664D01*
X20031Y20506D01*
X20120Y20361D01*
X20231Y20231D01*
X20361Y20120D01*
X20506Y20031D01*
X20664Y19966D01*
X20830Y19926D01*
X21000Y19912D01*
X21170Y19926D01*
X21336Y19966D01*
X21494Y20031D01*
X21639Y20120D01*
X21769Y20231D01*
X21880Y20361D01*
X21969Y20506D01*
X22034Y20664D01*
X22074Y20830D01*
X22088Y21000D01*
X22074Y21170D01*
X22034Y21336D01*
X21969Y21494D01*
X21880Y21639D01*
X21769Y21769D01*
X21639Y21880D01*
X21494Y21969D01*
X21336Y22034D01*
X21170Y22074D01*
X21000Y22088D01*
D02*
G37*
G36*
X0D02*
X-170Y22074D01*
X-336Y22034D01*
X-494Y21969D01*
X-639Y21880D01*
X-769Y21769D01*
X-880Y21639D01*
X-969Y21494D01*
X-1034Y21336D01*
X-1074Y21170D01*
X-1088Y21000D01*
X-1074Y20830D01*
X-1034Y20664D01*
X-969Y20506D01*
X-880Y20361D01*
X-769Y20231D01*
X-639Y20120D01*
X-494Y20031D01*
X-336Y19966D01*
X-170Y19926D01*
X0Y19912D01*
X170Y19926D01*
X336Y19966D01*
X494Y20031D01*
X639Y20120D01*
X769Y20231D01*
X880Y20361D01*
X969Y20506D01*
X1034Y20664D01*
X1074Y20830D01*
X1088Y21000D01*
X1074Y21170D01*
X1034Y21336D01*
X969Y21494D01*
X880Y21639D01*
X769Y21769D01*
X639Y21880D01*
X494Y21969D01*
X336Y22034D01*
X170Y22074D01*
X0Y22088D01*
D02*
G37*
G36*
X8437Y18140D02*
X7914D01*
Y17883D01*
X8437D01*
Y18140D01*
D02*
G37*
G36*
X19039Y15762D02*
X18935Y15748D01*
X18839Y15709D01*
X18757Y15645D01*
X18693Y15563D01*
X18654Y15467D01*
X18640Y15363D01*
X18654Y15260D01*
X18693Y15164D01*
X18757Y15081D01*
X18839Y15018D01*
X18935Y14978D01*
X19039Y14965D01*
X19142Y14978D01*
X19238Y15018D01*
X19321Y15081D01*
X19384Y15164D01*
X19424Y15260D01*
X19437Y15363D01*
X19424Y15467D01*
X19384Y15563D01*
X19321Y15645D01*
X19238Y15709D01*
X19142Y15748D01*
X19039Y15762D01*
D02*
G37*
G36*
X8437Y16497D02*
X7292D01*
Y15883D01*
X7955D01*
X8813Y15025D01*
X8863Y14992D01*
X8921Y14980D01*
X10079D01*
Y14137D01*
X11184D01*
Y14980D01*
X14729D01*
Y14137D01*
X15834D01*
Y14299D01*
X15881Y14318D01*
X15943Y14255D01*
X15993Y14222D01*
X16051Y14210D01*
X18643D01*
Y13968D01*
X19434D01*
Y14759D01*
X18643D01*
Y14516D01*
X16115D01*
X15834Y14797D01*
Y16129D01*
X14729D01*
Y15286D01*
X11184D01*
Y16129D01*
X10079D01*
Y15286D01*
X8985D01*
X8422Y15848D01*
X8437Y15883D01*
X8437D01*
Y16497D01*
D02*
G37*
G36*
X11184Y19081D02*
X10079D01*
Y17090D01*
X11184D01*
Y19081D01*
D02*
G37*
G36*
X7814Y18140D02*
X7292D01*
Y17883D01*
X7814D01*
Y18140D01*
D02*
G37*
G36*
X15834Y19081D02*
X14729D01*
Y17090D01*
X15834D01*
Y19081D01*
D02*
G37*
G36*
X9994Y13046D02*
X9767D01*
Y12859D01*
X9994D01*
Y13046D01*
D02*
G37*
G36*
X16850Y10050D02*
X16662D01*
Y9823D01*
X16850D01*
Y10050D01*
D02*
G37*
G36*
X16562D02*
X16374D01*
Y9823D01*
X16562D01*
Y10050D01*
D02*
G37*
G36*
Y10377D02*
X16374D01*
Y10150D01*
X16562D01*
Y10377D01*
D02*
G37*
G36*
X18039Y10549D02*
X17935Y10535D01*
X17839Y10495D01*
X17757Y10432D01*
X17693Y10349D01*
X17654Y10253D01*
X17654Y10253D01*
X17440D01*
Y10377D01*
X16965D01*
Y9823D01*
X17440D01*
Y9947D01*
X17696D01*
X17757Y9868D01*
X17839Y9805D01*
X17935Y9765D01*
X18039Y9751D01*
X18142Y9765D01*
X18238Y9805D01*
X18321Y9868D01*
X18384Y9951D01*
X18424Y10047D01*
X18437Y10150D01*
X18424Y10253D01*
X18384Y10349D01*
X18321Y10432D01*
X18238Y10495D01*
X18142Y10535D01*
X18039Y10549D01*
D02*
G37*
G36*
X16850Y10377D02*
X16662D01*
Y10150D01*
X16850D01*
Y10377D01*
D02*
G37*
G36*
X19039Y10549D02*
X18935Y10535D01*
X18839Y10495D01*
X18757Y10432D01*
X18693Y10349D01*
X18654Y10253D01*
X18640Y10150D01*
X18654Y10047D01*
X18693Y9951D01*
X18757Y9868D01*
X18839Y9805D01*
X18935Y9765D01*
X19039Y9751D01*
X19142Y9765D01*
X19238Y9805D01*
X19321Y9868D01*
X19384Y9951D01*
X19424Y10047D01*
X19437Y10150D01*
X19424Y10253D01*
X19384Y10349D01*
X19321Y10432D01*
X19238Y10495D01*
X19142Y10535D01*
X19039Y10549D01*
D02*
G37*
G36*
X16562Y9377D02*
X16374D01*
Y9150D01*
X16562D01*
Y9377D01*
D02*
G37*
G36*
X2493Y9261D02*
X2305D01*
Y9034D01*
X2493D01*
Y9261D01*
D02*
G37*
G36*
X16850Y9377D02*
X16662D01*
Y9150D01*
X16850D01*
Y9377D01*
D02*
G37*
G36*
X2205Y9588D02*
X2017D01*
Y9361D01*
X2205D01*
Y9588D01*
D02*
G37*
G36*
X18039Y9549D02*
X17935Y9535D01*
X17839Y9495D01*
X17757Y9432D01*
X17693Y9349D01*
X17654Y9253D01*
X17654Y9253D01*
X17440D01*
Y9377D01*
X16965D01*
Y8823D01*
X17440D01*
Y8947D01*
X17696D01*
X17757Y8868D01*
X17839Y8805D01*
X17935Y8765D01*
X18039Y8751D01*
X18142Y8765D01*
X18238Y8805D01*
X18321Y8868D01*
X18384Y8951D01*
X18424Y9047D01*
X18437Y9150D01*
X18424Y9253D01*
X18384Y9349D01*
X18321Y9432D01*
X18238Y9495D01*
X18142Y9535D01*
X18039Y9549D01*
D02*
G37*
G36*
X9667Y12759D02*
X9440D01*
Y12571D01*
X9667D01*
Y12759D01*
D02*
G37*
G36*
X15548Y13046D02*
X14994D01*
Y12571D01*
X15118D01*
Y12434D01*
X14765Y12081D01*
X14741Y12091D01*
X14650Y12103D01*
X14559Y12091D01*
X14473Y12056D01*
X14400Y12000D01*
X14344Y11927D01*
X14309Y11841D01*
X14297Y11750D01*
X14309Y11659D01*
X14344Y11573D01*
X14400Y11500D01*
X14473Y11444D01*
X14559Y11409D01*
X14650Y11397D01*
X14741Y11409D01*
X14827Y11444D01*
X14900Y11500D01*
X14956Y11573D01*
X14991Y11659D01*
X15003Y11750D01*
X14991Y11841D01*
X14981Y11865D01*
X15379Y12263D01*
X15412Y12312D01*
X15424Y12371D01*
Y12571D01*
X15548D01*
Y13046D01*
D02*
G37*
G36*
X9994Y12759D02*
X9767D01*
Y12571D01*
X9994D01*
Y12759D01*
D02*
G37*
G36*
X9667Y13046D02*
X9440D01*
Y12859D01*
X9667D01*
Y13046D01*
D02*
G37*
G36*
X10920Y13046D02*
X10365D01*
Y12571D01*
X10920D01*
Y12656D01*
X11291D01*
Y12571D01*
X11845D01*
Y13046D01*
X11291D01*
Y12961D01*
X10920D01*
Y13046D01*
D02*
G37*
G36*
X18434Y11545D02*
X17643D01*
Y11303D01*
X17440D01*
Y11427D01*
X16965D01*
Y10873D01*
X17440D01*
Y10997D01*
X17643D01*
Y10755D01*
X18434D01*
Y11545D01*
D02*
G37*
G36*
X16562Y11100D02*
X16374D01*
Y10873D01*
X16562D01*
Y11100D01*
D02*
G37*
G36*
X19039Y11549D02*
X18935Y11535D01*
X18839Y11495D01*
X18757Y11432D01*
X18693Y11349D01*
X18654Y11253D01*
X18640Y11150D01*
X18654Y11047D01*
X18693Y10951D01*
X18757Y10868D01*
X18839Y10805D01*
X18935Y10765D01*
X19039Y10751D01*
X19142Y10765D01*
X19238Y10805D01*
X19321Y10868D01*
X19384Y10951D01*
X19424Y11047D01*
X19437Y11150D01*
X19424Y11253D01*
X19384Y11349D01*
X19321Y11432D01*
X19238Y11495D01*
X19142Y11535D01*
X19039Y11549D01*
D02*
G37*
G36*
X16850Y11100D02*
X16662D01*
Y10873D01*
X16850D01*
Y11100D01*
D02*
G37*
G36*
Y11427D02*
X16662D01*
Y11200D01*
X16850D01*
Y11427D01*
D02*
G37*
G36*
X16562D02*
X16374D01*
Y11200D01*
X16562D01*
Y11427D01*
D02*
G37*
%LPD*%
D10*
X7675Y13547D02*
D03*
Y14610D02*
D03*
X6788Y13547D02*
D03*
Y14610D02*
D03*
D11*
X6150Y6505D02*
D03*
Y7095D02*
D03*
X5577Y7095D02*
D03*
Y6505D02*
D03*
X17122Y13399D02*
D03*
Y12809D02*
D03*
X15271Y13399D02*
D03*
Y12809D02*
D03*
X13419Y13399D02*
D03*
Y12809D02*
D03*
X5005Y6445D02*
D03*
Y5855D02*
D03*
X9717Y12809D02*
D03*
Y13399D02*
D03*
X10642Y13399D02*
D03*
Y12809D02*
D03*
X11568Y12809D02*
D03*
Y13399D02*
D03*
D12*
X16265Y13419D02*
D03*
Y12789D02*
D03*
X14414Y13419D02*
D03*
Y12789D02*
D03*
X12563Y13419D02*
D03*
Y12789D02*
D03*
X8860Y13419D02*
D03*
Y12789D02*
D03*
D13*
X9325Y10624D02*
D03*
X9640D02*
D03*
X9955D02*
D03*
X10270D02*
D03*
X10585D02*
D03*
X10900D02*
D03*
X11215D02*
D03*
X11530D02*
D03*
X11845D02*
D03*
X12160D02*
D03*
X12475D02*
D03*
Y6176D02*
D03*
X12160D02*
D03*
X11845D02*
D03*
X11530D02*
D03*
X11215D02*
D03*
X10900D02*
D03*
X10585D02*
D03*
X10270D02*
D03*
X9955D02*
D03*
X9640D02*
D03*
X9325D02*
D03*
D14*
X13124Y9975D02*
D03*
Y9660D02*
D03*
Y9345D02*
D03*
Y9030D02*
D03*
Y8715D02*
D03*
Y8400D02*
D03*
Y8085D02*
D03*
Y7770D02*
D03*
Y7455D02*
D03*
Y7140D02*
D03*
Y6825D02*
D03*
X8676D02*
D03*
Y7140D02*
D03*
Y7455D02*
D03*
Y7770D02*
D03*
Y8085D02*
D03*
Y8400D02*
D03*
Y8715D02*
D03*
Y9030D02*
D03*
Y9345D02*
D03*
Y9660D02*
D03*
Y9975D02*
D03*
D15*
X2845Y9311D02*
D03*
X2255D02*
D03*
X17202Y5900D02*
D03*
X16612D02*
D03*
X17202Y6950D02*
D03*
X16612D02*
D03*
X17202Y8050D02*
D03*
X16612D02*
D03*
X17202Y9100D02*
D03*
X16612D02*
D03*
X17202Y10100D02*
D03*
X16612D02*
D03*
X17202Y11150D02*
D03*
X16612D02*
D03*
D16*
X3789Y17190D02*
D03*
D17*
X7864Y18190D02*
D03*
Y16190D02*
D03*
D18*
X15282Y15133D02*
D03*
Y18086D02*
D03*
X10632Y15133D02*
D03*
Y18086D02*
D03*
D19*
X16010Y6955D02*
D03*
X15104Y6581D02*
D03*
Y7329D02*
D03*
D20*
X11550Y14350D02*
X11900Y14000D01*
X8449Y13836D02*
X8485Y13800D01*
X7675Y14610D02*
X8449Y13836D01*
Y13200D02*
Y13836D01*
Y13200D02*
X8860Y12789D01*
X3789Y17190D02*
X6370Y14610D01*
X6788D01*
X7675D01*
X8485Y13800D02*
X11167D01*
X3789Y17016D02*
Y17190D01*
X4987Y6505D02*
X5500D01*
X4927Y6445D02*
X4987Y6505D01*
X5500Y7095D02*
X6150D01*
X7895Y3445D02*
X9955Y5505D01*
X5483Y1600D02*
X6111Y2229D01*
X4000Y1600D02*
X5483D01*
X1800Y3800D02*
X4000Y1600D01*
X1800Y3800D02*
Y6302D01*
X6150Y6505D02*
X6785Y7140D01*
X8676D01*
X10632Y15133D02*
X15282D01*
X11215Y7615D02*
X11450Y7850D01*
X11215Y6176D02*
Y7615D01*
X11450Y7850D02*
X12000Y8400D01*
X13124D01*
X8676D02*
X9650D01*
X10300Y9050D01*
X10900Y9650D01*
Y10624D01*
X14650Y11750D02*
X15271Y12371D01*
Y12809D01*
X8676Y7140D02*
X8732Y7197D01*
X9649D01*
X13419Y10968D01*
Y12809D01*
X14288Y9975D02*
X17122Y12809D01*
X13124Y9975D02*
X14288D01*
X10270Y6176D02*
X10327Y6119D01*
Y3980D02*
Y6119D01*
Y3980D02*
X10817Y3490D01*
Y3044D02*
Y3490D01*
X10371Y2599D02*
X10817Y3044D01*
X10371Y2229D02*
Y2599D01*
X10585Y6176D02*
X10642Y6119D01*
Y5832D02*
Y6119D01*
Y5832D02*
X11817Y4657D01*
Y3044D02*
Y4657D01*
X11371Y2599D02*
X11817Y3044D01*
X11371Y2229D02*
Y2599D01*
X11530Y5889D02*
X12817Y4602D01*
X11530Y5889D02*
Y6176D01*
X12817Y2674D02*
Y4602D01*
X12371Y2229D02*
X12817Y2674D01*
X11845Y6176D02*
X11902Y6119D01*
Y5832D02*
Y6119D01*
Y5832D02*
X13950Y3784D01*
Y2807D02*
Y3784D01*
X13371Y2229D02*
X13950Y2807D01*
X16429Y2229D02*
X16498D01*
X6111Y2061D02*
Y2229D01*
X18128Y3229D02*
X18498D01*
X17682Y3674D02*
X18128Y3229D01*
X17192Y3674D02*
X17682D01*
X13468Y7398D02*
X17192Y3674D01*
X13181Y7398D02*
X13468D01*
X13124Y7455D02*
X13181Y7398D01*
X17128Y3229D02*
X17498D01*
X13619Y6738D02*
X17128Y3229D01*
X13619Y6738D02*
Y6932D01*
X13468Y7083D02*
X13619Y6932D01*
X13181Y7083D02*
X13468D01*
X13124Y7140D02*
X13181Y7083D01*
X13562Y7770D02*
X14751Y6581D01*
X13124Y7770D02*
X13562D01*
X14751Y6581D02*
X15104D01*
X16607Y6955D02*
X16612Y6950D01*
X16010Y6955D02*
X16607D01*
X13124Y6602D02*
Y6825D01*
Y6602D02*
X16498Y3229D01*
X12475Y6176D02*
X12551D01*
X15498Y3229D01*
X13546Y13800D02*
X13950Y13396D01*
Y13253D02*
Y13396D01*
Y13253D02*
X14414Y12789D01*
X15397Y13800D02*
X15800Y13397D01*
Y13254D02*
Y13397D01*
Y13254D02*
X16265Y12789D01*
X13546Y13800D02*
X15397D01*
X11167D02*
X13546D01*
X11952Y13399D02*
X12563Y12789D01*
X11568Y13399D02*
X11952D01*
X11167Y13800D02*
X11568Y13399D01*
X1800Y6302D02*
X2459Y6961D01*
X16498Y2229D02*
X17327Y1400D01*
X19050D01*
X19650Y2000D01*
Y17244D01*
X19039Y17856D02*
X19650Y17244D01*
X16612Y6950D02*
Y8050D01*
Y5900D02*
Y6950D01*
X17202Y5900D02*
X17452Y6150D01*
X18039D01*
X17839Y6950D02*
X18039Y7150D01*
X17202Y6950D02*
X17839D01*
X17939Y8050D02*
X18039Y8150D01*
X17202Y8050D02*
X17939D01*
X17989Y9100D02*
X18039Y9150D01*
X17202Y9100D02*
X17989D01*
Y10100D02*
X18039Y10150D01*
X17202Y10100D02*
X17989D01*
X18039Y11150D02*
X18039Y11150D01*
X17202Y11150D02*
X18039D01*
X17102Y13419D02*
X17122Y13399D01*
X16265Y13419D02*
X17102D01*
X15251D02*
X15271Y13399D01*
X14414Y13419D02*
X15251D01*
X13400D02*
X13419Y13399D01*
X12563Y13419D02*
X13400D01*
X11568Y12809D02*
X11568Y12809D01*
X10642Y12809D02*
X11568D01*
X9697Y13419D02*
X9717Y13399D01*
X10642D01*
X8860Y13419D02*
X9697D01*
X7864Y16190D02*
X8921Y15133D01*
X10632D01*
X15282D02*
X16051Y14363D01*
X19039D01*
X3459Y12805D02*
X6289Y9975D01*
X8676D01*
X6290Y9660D02*
X8676D01*
X3590Y12360D02*
X6290Y9660D01*
X3274Y12360D02*
X3590D01*
X3013Y12621D02*
X3274Y12360D01*
X3013Y12621D02*
Y12937D01*
X2459Y13491D02*
X3013Y12937D01*
X2459Y13491D02*
Y13805D01*
X3013Y11621D02*
Y12251D01*
X2459Y12805D02*
X3013Y12251D01*
Y11621D02*
X5289Y9345D01*
X8676D01*
X3126Y9030D02*
X8676D01*
X2845Y9311D02*
X3126Y9030D01*
X2459Y9697D02*
X2845Y9311D01*
X2459Y9697D02*
Y11805D01*
X3459Y5961D02*
X3565Y5855D01*
X4927D01*
X3459Y6961D02*
X3593Y7095D01*
X5500D01*
X5500Y7095D01*
X6395Y7455D02*
X8676D01*
X5889Y7961D02*
X6395Y7455D01*
X3459Y7961D02*
X5889D01*
X5111Y3229D02*
Y3261D01*
X8676Y6825D01*
X6111Y3229D02*
X9058Y6176D01*
X9325D01*
X7895Y3445D02*
X8111Y3229D01*
X9955Y5505D02*
Y6176D01*
X7111Y3229D02*
X9640Y5758D01*
Y6176D01*
D21*
X15498Y2229D02*
D03*
Y3229D02*
D03*
X16498Y2229D02*
D03*
Y3229D02*
D03*
X17498Y2229D02*
D03*
Y3229D02*
D03*
X18498Y2229D02*
D03*
X5111D02*
D03*
Y3229D02*
D03*
X6111Y2229D02*
D03*
Y3229D02*
D03*
X7111Y2229D02*
D03*
Y3229D02*
D03*
X8111Y2229D02*
D03*
X13371Y3229D02*
D03*
Y2229D02*
D03*
X12371Y3229D02*
D03*
Y2229D02*
D03*
X11371Y3229D02*
D03*
Y2229D02*
D03*
X10371Y3229D02*
D03*
X19039Y18856D02*
D03*
Y15363D02*
D03*
X3459Y13805D02*
D03*
X2459Y12805D02*
D03*
X3459D02*
D03*
X2459Y11805D02*
D03*
X3459D02*
D03*
X19039Y6150D02*
D03*
X18039D02*
D03*
X19039Y7150D02*
D03*
X18039D02*
D03*
X19039Y8150D02*
D03*
X18039D02*
D03*
X19039Y9150D02*
D03*
X18039D02*
D03*
X19039Y10150D02*
D03*
X18039D02*
D03*
X19039Y11150D02*
D03*
X2459Y7961D02*
D03*
X3459D02*
D03*
X2459Y6961D02*
D03*
X3459D02*
D03*
X2459Y5961D02*
D03*
X3459D02*
D03*
X2459Y4961D02*
D03*
D22*
X18498Y3229D02*
D03*
X8111D02*
D03*
X10371Y2229D02*
D03*
D23*
X19039Y17856D02*
D03*
Y14363D02*
D03*
X2459Y13805D02*
D03*
X18039Y11150D02*
D03*
X3459Y4961D02*
D03*
D24*
X0Y0D02*
D03*
Y21000D02*
D03*
X21000Y0D02*
D03*
Y21000D02*
D03*
D25*
X11450Y7850D02*
D03*
X10300Y9050D02*
D03*
X14650Y11750D02*
D03*
X15282Y18086D02*
D03*
X10632D02*
D03*
X3800Y18200D02*
D03*
Y16100D02*
D03*
M02*
