G04 Layer_Color=16711935*
%FSLAX24Y24*%
%MOIN*%
G70*
G01*
G75*
%ADD41C,0.0671*%
%ADD42R,0.0671X0.0671*%
%ADD43R,0.0671X0.0671*%
%ADD44C,0.2049*%
%ADD45C,0.0580*%
D41*
X15498Y2229D02*
D03*
Y3229D02*
D03*
X16498Y2229D02*
D03*
Y3229D02*
D03*
X17498Y2229D02*
D03*
Y3229D02*
D03*
X18498Y2229D02*
D03*
X5111D02*
D03*
Y3229D02*
D03*
X6111Y2229D02*
D03*
Y3229D02*
D03*
X7111Y2229D02*
D03*
Y3229D02*
D03*
X8111Y2229D02*
D03*
X13371Y3229D02*
D03*
Y2229D02*
D03*
X12371Y3229D02*
D03*
Y2229D02*
D03*
X11371Y3229D02*
D03*
Y2229D02*
D03*
X10371Y3229D02*
D03*
X19039Y18856D02*
D03*
Y15363D02*
D03*
X3459Y13805D02*
D03*
X2459Y12805D02*
D03*
X3459D02*
D03*
X2459Y11805D02*
D03*
X3459D02*
D03*
X19039Y6150D02*
D03*
X18039D02*
D03*
X19039Y7150D02*
D03*
X18039D02*
D03*
X19039Y8150D02*
D03*
X18039D02*
D03*
X19039Y9150D02*
D03*
X18039D02*
D03*
X19039Y10150D02*
D03*
X18039D02*
D03*
X19039Y11150D02*
D03*
X2459Y7961D02*
D03*
X3459D02*
D03*
X2459Y6961D02*
D03*
X3459D02*
D03*
X2459Y5961D02*
D03*
X3459D02*
D03*
X2459Y4961D02*
D03*
D42*
X18498Y3229D02*
D03*
X8111D02*
D03*
X10371Y2229D02*
D03*
D43*
X19039Y17856D02*
D03*
Y14363D02*
D03*
X2459Y13805D02*
D03*
X18039Y11150D02*
D03*
X3459Y4961D02*
D03*
D44*
X0Y0D02*
D03*
Y21000D02*
D03*
X21000Y0D02*
D03*
Y21000D02*
D03*
D45*
X11450Y7850D02*
D03*
X10300Y9050D02*
D03*
X14650Y11750D02*
D03*
X15282Y18086D02*
D03*
X10632D02*
D03*
X3800Y18200D02*
D03*
Y16100D02*
D03*
M02*
