G04 Layer_Physical_Order=2*
G04 Layer_Color=16711680*
%FSLAX24Y24*%
%MOIN*%
G70*
G01*
G75*
%ADD15R,0.0591X0.0591*%
%ADD16C,0.0591*%
G36*
X35047Y25003D02*
X31353D01*
Y35497D01*
X35047D01*
Y25003D01*
D02*
G37*
%LPC*%
G36*
X32979Y28700D02*
X32637D01*
X32644Y28647D01*
X32684Y28551D01*
X32747Y28468D01*
X32829Y28405D01*
X32926Y28365D01*
X32979Y28358D01*
Y28700D01*
D02*
G37*
G36*
X34029Y29149D02*
X33926Y29135D01*
X33830Y29095D01*
X33747Y29032D01*
X33684Y28949D01*
X33644Y28853D01*
X33630Y28750D01*
X33644Y28647D01*
X33684Y28551D01*
X33747Y28468D01*
X33830Y28405D01*
X33926Y28365D01*
X34029Y28351D01*
X34132Y28365D01*
X34228Y28405D01*
X34311Y28468D01*
X34374Y28551D01*
X34414Y28647D01*
X34428Y28750D01*
X34414Y28853D01*
X34374Y28949D01*
X34311Y29032D01*
X34228Y29095D01*
X34132Y29135D01*
X34029Y29149D01*
D02*
G37*
G36*
X31850D02*
X31747Y29135D01*
X31651Y29095D01*
X31568Y29032D01*
X31505Y28949D01*
X31465Y28853D01*
X31451Y28750D01*
X31465Y28647D01*
X31505Y28551D01*
X31568Y28468D01*
X31651Y28405D01*
X31747Y28365D01*
X31850Y28351D01*
X31953Y28365D01*
X32049Y28405D01*
X32132Y28468D01*
X32195Y28551D01*
X32235Y28647D01*
X32249Y28750D01*
X32235Y28853D01*
X32195Y28949D01*
X32132Y29032D01*
X32049Y29095D01*
X31953Y29135D01*
X31850Y29149D01*
D02*
G37*
G36*
X33421Y28700D02*
X33079D01*
Y28358D01*
X33132Y28365D01*
X33228Y28405D01*
X33311Y28468D01*
X33374Y28551D01*
X33414Y28647D01*
X33421Y28700D01*
D02*
G37*
G36*
X31850Y30149D02*
X31747Y30135D01*
X31651Y30095D01*
X31568Y30032D01*
X31505Y29949D01*
X31465Y29853D01*
X31451Y29750D01*
X31465Y29647D01*
X31505Y29551D01*
X31568Y29468D01*
X31651Y29405D01*
X31747Y29365D01*
X31850Y29351D01*
X31953Y29365D01*
X32049Y29405D01*
X32132Y29468D01*
X32195Y29551D01*
X32235Y29647D01*
X32249Y29750D01*
X32235Y29853D01*
X32195Y29949D01*
X32132Y30032D01*
X32049Y30095D01*
X31953Y30135D01*
X31850Y30149D01*
D02*
G37*
G36*
X33079Y29142D02*
Y28800D01*
X33421D01*
X33414Y28853D01*
X33374Y28949D01*
X33311Y29032D01*
X33228Y29095D01*
X33132Y29135D01*
X33079Y29142D01*
D02*
G37*
G36*
X32979D02*
X32926Y29135D01*
X32829Y29095D01*
X32747Y29032D01*
X32684Y28949D01*
X32644Y28853D01*
X32637Y28800D01*
X32979D01*
Y29142D01*
D02*
G37*
G36*
X33029Y27149D02*
X32926Y27135D01*
X32829Y27095D01*
X32747Y27032D01*
X32684Y26949D01*
X32644Y26853D01*
X32630Y26750D01*
X32644Y26647D01*
X32684Y26551D01*
X32747Y26468D01*
X32829Y26405D01*
X32926Y26365D01*
X33029Y26351D01*
X33132Y26365D01*
X33228Y26405D01*
X33311Y26468D01*
X33374Y26551D01*
X33414Y26647D01*
X33428Y26750D01*
X33414Y26853D01*
X33374Y26949D01*
X33311Y27032D01*
X33228Y27095D01*
X33132Y27135D01*
X33029Y27149D01*
D02*
G37*
G36*
X31850D02*
X31747Y27135D01*
X31651Y27095D01*
X31568Y27032D01*
X31505Y26949D01*
X31465Y26853D01*
X31451Y26750D01*
X31465Y26647D01*
X31505Y26551D01*
X31568Y26468D01*
X31651Y26405D01*
X31747Y26365D01*
X31850Y26351D01*
X31953Y26365D01*
X32049Y26405D01*
X32132Y26468D01*
X32195Y26551D01*
X32235Y26647D01*
X32249Y26750D01*
X32235Y26853D01*
X32195Y26949D01*
X32132Y27032D01*
X32049Y27095D01*
X31953Y27135D01*
X31850Y27149D01*
D02*
G37*
G36*
X32245Y26145D02*
X31455D01*
Y25355D01*
X32245D01*
Y26145D01*
D02*
G37*
G36*
X34424Y27145D02*
X33634D01*
Y26355D01*
X34424D01*
Y27145D01*
D02*
G37*
G36*
X34029Y28149D02*
X33926Y28135D01*
X33830Y28095D01*
X33747Y28032D01*
X33684Y27949D01*
X33644Y27853D01*
X33630Y27750D01*
X33644Y27647D01*
X33684Y27551D01*
X33747Y27468D01*
X33830Y27405D01*
X33926Y27365D01*
X34029Y27351D01*
X34132Y27365D01*
X34228Y27405D01*
X34311Y27468D01*
X34374Y27551D01*
X34414Y27647D01*
X34428Y27750D01*
X34414Y27853D01*
X34374Y27949D01*
X34311Y28032D01*
X34228Y28095D01*
X34132Y28135D01*
X34029Y28149D01*
D02*
G37*
G36*
X33029D02*
X32926Y28135D01*
X32829Y28095D01*
X32747Y28032D01*
X32684Y27949D01*
X32644Y27853D01*
X32630Y27750D01*
X32644Y27647D01*
X32684Y27551D01*
X32747Y27468D01*
X32829Y27405D01*
X32926Y27365D01*
X33029Y27351D01*
X33132Y27365D01*
X33228Y27405D01*
X33311Y27468D01*
X33374Y27551D01*
X33414Y27647D01*
X33428Y27750D01*
X33414Y27853D01*
X33374Y27949D01*
X33311Y28032D01*
X33228Y28095D01*
X33132Y28135D01*
X33029Y28149D01*
D02*
G37*
G36*
X31850D02*
X31747Y28135D01*
X31651Y28095D01*
X31568Y28032D01*
X31505Y27949D01*
X31465Y27853D01*
X31451Y27750D01*
X31465Y27647D01*
X31505Y27551D01*
X31568Y27468D01*
X31651Y27405D01*
X31747Y27365D01*
X31850Y27351D01*
X31953Y27365D01*
X32049Y27405D01*
X32132Y27468D01*
X32195Y27551D01*
X32235Y27647D01*
X32249Y27750D01*
X32235Y27853D01*
X32195Y27949D01*
X32132Y28032D01*
X32049Y28095D01*
X31953Y28135D01*
X31850Y28149D01*
D02*
G37*
G36*
X33079Y33142D02*
Y32800D01*
X33421D01*
X33414Y32853D01*
X33374Y32949D01*
X33311Y33032D01*
X33228Y33095D01*
X33132Y33135D01*
X33079Y33142D01*
D02*
G37*
G36*
X32979D02*
X32926Y33135D01*
X32829Y33095D01*
X32747Y33032D01*
X32684Y32949D01*
X32644Y32853D01*
X32637Y32800D01*
X32979D01*
Y33142D01*
D02*
G37*
G36*
X33421Y32700D02*
X33079D01*
Y32358D01*
X33132Y32365D01*
X33228Y32405D01*
X33311Y32468D01*
X33374Y32551D01*
X33414Y32647D01*
X33421Y32700D01*
D02*
G37*
G36*
X31850Y34149D02*
X31747Y34135D01*
X31651Y34095D01*
X31568Y34032D01*
X31505Y33949D01*
X31465Y33853D01*
X31451Y33750D01*
X31465Y33647D01*
X31505Y33551D01*
X31568Y33468D01*
X31651Y33405D01*
X31747Y33365D01*
X31850Y33351D01*
X31953Y33365D01*
X32049Y33405D01*
X32132Y33468D01*
X32195Y33551D01*
X32235Y33647D01*
X32249Y33750D01*
X32235Y33853D01*
X32195Y33949D01*
X32132Y34032D01*
X32049Y34095D01*
X31953Y34135D01*
X31850Y34149D01*
D02*
G37*
G36*
X33029Y35149D02*
X32926Y35135D01*
X32829Y35095D01*
X32747Y35032D01*
X32684Y34949D01*
X32644Y34853D01*
X32630Y34750D01*
X32644Y34647D01*
X32684Y34551D01*
X32747Y34468D01*
X32829Y34405D01*
X32926Y34365D01*
X33029Y34351D01*
X33132Y34365D01*
X33228Y34405D01*
X33311Y34468D01*
X33374Y34551D01*
X33414Y34647D01*
X33428Y34750D01*
X33414Y34853D01*
X33374Y34949D01*
X33311Y35032D01*
X33228Y35095D01*
X33132Y35135D01*
X33029Y35149D01*
D02*
G37*
G36*
X31850D02*
X31747Y35135D01*
X31651Y35095D01*
X31568Y35032D01*
X31505Y34949D01*
X31465Y34853D01*
X31451Y34750D01*
X31465Y34647D01*
X31505Y34551D01*
X31568Y34468D01*
X31651Y34405D01*
X31747Y34365D01*
X31850Y34351D01*
X31953Y34365D01*
X32049Y34405D01*
X32132Y34468D01*
X32195Y34551D01*
X32235Y34647D01*
X32249Y34750D01*
X32235Y34853D01*
X32195Y34949D01*
X32132Y35032D01*
X32049Y35095D01*
X31953Y35135D01*
X31850Y35149D01*
D02*
G37*
G36*
X33029Y34149D02*
X32926Y34135D01*
X32829Y34095D01*
X32747Y34032D01*
X32684Y33949D01*
X32644Y33853D01*
X32630Y33750D01*
X32644Y33647D01*
X32684Y33551D01*
X32747Y33468D01*
X32829Y33405D01*
X32926Y33365D01*
X33029Y33351D01*
X33132Y33365D01*
X33228Y33405D01*
X33311Y33468D01*
X33374Y33551D01*
X33414Y33647D01*
X33428Y33750D01*
X33414Y33853D01*
X33374Y33949D01*
X33311Y34032D01*
X33228Y34095D01*
X33132Y34135D01*
X33029Y34149D01*
D02*
G37*
G36*
X32979Y32700D02*
X32637D01*
X32644Y32647D01*
X32684Y32551D01*
X32747Y32468D01*
X32829Y32405D01*
X32926Y32365D01*
X32979Y32358D01*
Y32700D01*
D02*
G37*
G36*
X31800Y31142D02*
X31747Y31135D01*
X31651Y31095D01*
X31568Y31032D01*
X31505Y30949D01*
X31465Y30853D01*
X31458Y30800D01*
X31800D01*
Y31142D01*
D02*
G37*
G36*
X32242Y30700D02*
X31900D01*
Y30358D01*
X31953Y30365D01*
X32049Y30405D01*
X32132Y30468D01*
X32195Y30551D01*
X32235Y30647D01*
X32242Y30700D01*
D02*
G37*
G36*
X31800D02*
X31458D01*
X31465Y30647D01*
X31505Y30551D01*
X31568Y30468D01*
X31651Y30405D01*
X31747Y30365D01*
X31800Y30358D01*
Y30700D01*
D02*
G37*
G36*
X31900Y31142D02*
Y30800D01*
X32242D01*
X32235Y30853D01*
X32195Y30949D01*
X32132Y31032D01*
X32049Y31095D01*
X31953Y31135D01*
X31900Y31142D01*
D02*
G37*
G36*
X31850Y33149D02*
X31747Y33135D01*
X31651Y33095D01*
X31568Y33032D01*
X31505Y32949D01*
X31465Y32853D01*
X31451Y32750D01*
X31465Y32647D01*
X31505Y32551D01*
X31568Y32468D01*
X31651Y32405D01*
X31747Y32365D01*
X31850Y32351D01*
X31953Y32365D01*
X32049Y32405D01*
X32132Y32468D01*
X32195Y32551D01*
X32235Y32647D01*
X32249Y32750D01*
X32235Y32853D01*
X32195Y32949D01*
X32132Y33032D01*
X32049Y33095D01*
X31953Y33135D01*
X31850Y33149D01*
D02*
G37*
G36*
X33424Y32145D02*
X32634D01*
Y31355D01*
X33424D01*
Y32145D01*
D02*
G37*
G36*
X31850Y32149D02*
X31747Y32135D01*
X31651Y32095D01*
X31568Y32032D01*
X31505Y31949D01*
X31465Y31853D01*
X31451Y31750D01*
X31465Y31647D01*
X31505Y31551D01*
X31568Y31468D01*
X31651Y31405D01*
X31747Y31365D01*
X31850Y31351D01*
X31953Y31365D01*
X32049Y31405D01*
X32132Y31468D01*
X32195Y31551D01*
X32235Y31647D01*
X32249Y31750D01*
X32235Y31853D01*
X32195Y31949D01*
X32132Y32032D01*
X32049Y32095D01*
X31953Y32135D01*
X31850Y32149D01*
D02*
G37*
%LPD*%
D15*
X33029Y31750D02*
D03*
X31850Y25750D02*
D03*
X34029Y26750D02*
D03*
D16*
X33029Y32750D02*
D03*
Y33750D02*
D03*
Y34750D02*
D03*
X31850Y26750D02*
D03*
Y28750D02*
D03*
Y29750D02*
D03*
Y30750D02*
D03*
Y31750D02*
D03*
Y32750D02*
D03*
Y33750D02*
D03*
Y34750D02*
D03*
Y27750D02*
D03*
X33029Y28750D02*
D03*
X34029D02*
D03*
X33029Y27750D02*
D03*
X34029D02*
D03*
X33029Y26750D02*
D03*
M02*
