G04 Layer_Physical_Order=2*
G04 Layer_Color=16711680*
%FSLAX24Y24*%
%MOIN*%
G70*
G01*
G75*
%ADD15C,0.0200*%
%ADD16C,0.1874*%
%ADD17R,0.0665X0.0665*%
%ADD18C,0.0665*%
%ADD19C,0.0591*%
%ADD20R,0.0591X0.0591*%
%ADD21R,0.0591X0.0591*%
%ADD22C,0.1969*%
G36*
X0Y12674D02*
X15595D01*
Y-1847D01*
X0D01*
X-7Y-1848D01*
X-241Y-1833D01*
X-479Y-1786D01*
X-708Y-1708D01*
X-924Y-1601D01*
X-1126Y-1467D01*
X-1307Y-1307D01*
X-1467Y-1126D01*
X-1601Y-924D01*
X-1708Y-708D01*
X-1786Y-479D01*
X-1833Y-241D01*
X-1848Y-7D01*
X-1847Y0D01*
Y10827D01*
X-1848Y10834D01*
X-1833Y11068D01*
X-1786Y11305D01*
X-1708Y11534D01*
X-1601Y11751D01*
X-1467Y11952D01*
X-1307Y12134D01*
X-1126Y12294D01*
X-924Y12428D01*
X-708Y12535D01*
X-479Y12613D01*
X-241Y12660D01*
X-7Y12675D01*
X0Y12674D01*
D02*
G37*
%LPC*%
G36*
X8859Y3669D02*
X8746Y3654D01*
X8641Y3610D01*
X8550Y3541D01*
X8481Y3450D01*
X8437Y3345D01*
X8422Y3232D01*
X8437Y3119D01*
X8481Y3014D01*
X8550Y2924D01*
X8641Y2854D01*
X8746Y2811D01*
X8859Y2796D01*
X8972Y2811D01*
X9077Y2854D01*
X9167Y2924D01*
X9237Y3014D01*
X9280Y3119D01*
X9295Y3232D01*
X9280Y3345D01*
X9237Y3450D01*
X9167Y3541D01*
X9077Y3610D01*
X8972Y3654D01*
X8859Y3669D01*
D02*
G37*
G36*
X0Y3399D02*
X-103Y3385D01*
X-199Y3345D01*
X-282Y3282D01*
X-345Y3199D01*
X-385Y3103D01*
X-399Y3000D01*
X-385Y2897D01*
X-345Y2801D01*
X-282Y2718D01*
X-199Y2655D01*
X-103Y2615D01*
X0Y2601D01*
X103Y2615D01*
X199Y2655D01*
X282Y2718D01*
X345Y2801D01*
X385Y2897D01*
X399Y3000D01*
X385Y3103D01*
X345Y3199D01*
X282Y3282D01*
X199Y3345D01*
X103Y3385D01*
X0Y3399D01*
D02*
G37*
G36*
X-50Y3950D02*
X-392D01*
X-385Y3897D01*
X-345Y3801D01*
X-282Y3718D01*
X-199Y3655D01*
X-103Y3615D01*
X-50Y3608D01*
Y3950D01*
D02*
G37*
G36*
X9977Y4214D02*
X9864Y4199D01*
X9759Y4155D01*
X9668Y4086D01*
X9599Y3996D01*
X9555Y3891D01*
X9540Y3778D01*
X9555Y3665D01*
X9599Y3559D01*
X9668Y3469D01*
X9759Y3400D01*
X9864Y3356D01*
X9977Y3341D01*
X10090Y3356D01*
X10195Y3400D01*
X10285Y3469D01*
X10355Y3559D01*
X10398Y3665D01*
X10413Y3778D01*
X10398Y3891D01*
X10355Y3996D01*
X10285Y4086D01*
X10195Y4155D01*
X10090Y4199D01*
X9977Y4214D01*
D02*
G37*
G36*
X6850Y2392D02*
Y2050D01*
X7192D01*
X7185Y2103D01*
X7145Y2199D01*
X7082Y2282D01*
X6999Y2345D01*
X6903Y2385D01*
X6850Y2392D01*
D02*
G37*
G36*
X6750D02*
X6697Y2385D01*
X6601Y2345D01*
X6518Y2282D01*
X6455Y2199D01*
X6415Y2103D01*
X6408Y2050D01*
X6750D01*
Y2392D01*
D02*
G37*
G36*
X7192Y1950D02*
X6850D01*
Y1608D01*
X6903Y1615D01*
X6999Y1655D01*
X7082Y1718D01*
X7145Y1801D01*
X7185Y1897D01*
X7192Y1950D01*
D02*
G37*
G36*
X50Y2392D02*
Y2050D01*
X392D01*
X385Y2103D01*
X345Y2199D01*
X282Y2282D01*
X199Y2345D01*
X103Y2385D01*
X50Y2392D01*
D02*
G37*
G36*
X-50D02*
X-103Y2385D01*
X-199Y2345D01*
X-282Y2282D01*
X-345Y2199D01*
X-385Y2103D01*
X-392Y2050D01*
X-50D01*
Y2392D01*
D02*
G37*
G36*
X392Y3950D02*
X50D01*
Y3608D01*
X103Y3615D01*
X199Y3655D01*
X282Y3718D01*
X345Y3801D01*
X385Y3897D01*
X392Y3950D01*
D02*
G37*
G36*
X9977Y5305D02*
X9864Y5290D01*
X9759Y5246D01*
X9668Y5177D01*
X9599Y5086D01*
X9555Y4981D01*
X9540Y4868D01*
X9555Y4755D01*
X9599Y4650D01*
X9668Y4560D01*
X9759Y4490D01*
X9864Y4447D01*
X9977Y4432D01*
X10090Y4447D01*
X10195Y4490D01*
X10285Y4560D01*
X10355Y4650D01*
X10398Y4755D01*
X10413Y4868D01*
X10398Y4981D01*
X10355Y5086D01*
X10285Y5177D01*
X10195Y5246D01*
X10090Y5290D01*
X9977Y5305D01*
D02*
G37*
G36*
X2329Y4440D02*
X1987D01*
Y4098D01*
X2040Y4105D01*
X2136Y4145D01*
X2219Y4209D01*
X2282Y4291D01*
X2322Y4387D01*
X2329Y4440D01*
D02*
G37*
G36*
X1987Y4883D02*
Y4540D01*
X2329D01*
X2322Y4594D01*
X2282Y4690D01*
X2219Y4772D01*
X2136Y4836D01*
X2040Y4876D01*
X1987Y4883D01*
D02*
G37*
G36*
X1887D02*
X1834Y4876D01*
X1738Y4836D01*
X1655Y4772D01*
X1592Y4690D01*
X1552Y4594D01*
X1545Y4540D01*
X1887D01*
Y4883D01*
D02*
G37*
G36*
Y4440D02*
X1545D01*
X1552Y4387D01*
X1592Y4291D01*
X1655Y4209D01*
X1738Y4145D01*
X1834Y4105D01*
X1887Y4098D01*
Y4440D01*
D02*
G37*
G36*
X-50Y4392D02*
X-103Y4385D01*
X-199Y4345D01*
X-282Y4282D01*
X-345Y4199D01*
X-385Y4103D01*
X-392Y4050D01*
X-50D01*
Y4392D01*
D02*
G37*
G36*
X8859Y4759D02*
X8746Y4744D01*
X8641Y4701D01*
X8550Y4631D01*
X8481Y4541D01*
X8437Y4436D01*
X8422Y4323D01*
X8437Y4210D01*
X8481Y4105D01*
X8550Y4014D01*
X8641Y3945D01*
X8746Y3901D01*
X8859Y3886D01*
X8972Y3901D01*
X9077Y3945D01*
X9167Y4014D01*
X9237Y4105D01*
X9280Y4210D01*
X9295Y4323D01*
X9280Y4436D01*
X9237Y4541D01*
X9167Y4631D01*
X9077Y4701D01*
X8972Y4744D01*
X8859Y4759D01*
D02*
G37*
G36*
X2937Y4889D02*
X2834Y4876D01*
X2738Y4836D01*
X2655Y4772D01*
X2592Y4690D01*
X2552Y4594D01*
X2538Y4490D01*
X2552Y4387D01*
X2592Y4291D01*
X2655Y4209D01*
X2738Y4145D01*
X2834Y4105D01*
X2937Y4092D01*
X3040Y4105D01*
X3136Y4145D01*
X3219Y4209D01*
X3282Y4291D01*
X3322Y4387D01*
X3336Y4490D01*
X3322Y4594D01*
X3282Y4690D01*
X3219Y4772D01*
X3136Y4836D01*
X3040Y4876D01*
X2937Y4889D01*
D02*
G37*
G36*
X50Y4392D02*
Y4050D01*
X392D01*
X385Y4103D01*
X345Y4199D01*
X282Y4282D01*
X199Y4345D01*
X103Y4385D01*
X50Y4392D01*
D02*
G37*
G36*
X9418Y1534D02*
X9255Y1522D01*
X9096Y1483D01*
X8946Y1421D01*
X8806Y1336D01*
X8682Y1230D01*
X8576Y1106D01*
X8491Y966D01*
X8429Y816D01*
X8390Y657D01*
X8378Y494D01*
X8390Y331D01*
X8429Y173D01*
X8491Y22D01*
X8576Y-117D01*
X8682Y-241D01*
X8806Y-347D01*
X8946Y-433D01*
X9096Y-495D01*
X9255Y-533D01*
X9418Y-546D01*
X9581Y-533D01*
X9739Y-495D01*
X9890Y-433D01*
X10029Y-347D01*
X10153Y-241D01*
X10259Y-117D01*
X10345Y22D01*
X10407Y173D01*
X10445Y331D01*
X10458Y494D01*
X10445Y657D01*
X10407Y816D01*
X10345Y966D01*
X10259Y1106D01*
X10153Y1230D01*
X10029Y1336D01*
X9890Y1421D01*
X9739Y1483D01*
X9581Y1522D01*
X9418Y1534D01*
D02*
G37*
G36*
X0Y1088D02*
X-170Y1074D01*
X-336Y1034D01*
X-494Y969D01*
X-639Y880D01*
X-769Y769D01*
X-880Y639D01*
X-969Y494D01*
X-1034Y336D01*
X-1074Y170D01*
X-1088Y0D01*
X-1074Y-170D01*
X-1034Y-336D01*
X-969Y-494D01*
X-880Y-639D01*
X-769Y-769D01*
X-639Y-880D01*
X-494Y-969D01*
X-336Y-1034D01*
X-170Y-1074D01*
X0Y-1088D01*
X170Y-1074D01*
X336Y-1034D01*
X494Y-969D01*
X639Y-880D01*
X769Y-769D01*
X880Y-639D01*
X969Y-494D01*
X1034Y-336D01*
X1074Y-170D01*
X1088Y0D01*
X1074Y170D01*
X1034Y336D01*
X969Y494D01*
X880Y639D01*
X769Y769D01*
X639Y880D01*
X494Y969D01*
X336Y1034D01*
X170Y1074D01*
X0Y1088D01*
D02*
G37*
G36*
X2937Y1229D02*
X2834Y1215D01*
X2738Y1175D01*
X2655Y1112D01*
X2592Y1029D01*
X2552Y933D01*
X2538Y830D01*
X2552Y727D01*
X2592Y631D01*
X2655Y548D01*
X2738Y485D01*
X2834Y445D01*
X2937Y431D01*
X3040Y445D01*
X3136Y485D01*
X3219Y548D01*
X3282Y631D01*
X3322Y727D01*
X3336Y830D01*
X3322Y933D01*
X3282Y1029D01*
X3219Y1112D01*
X3136Y1175D01*
X3040Y1215D01*
X2937Y1229D01*
D02*
G37*
G36*
X6800Y399D02*
X6697Y385D01*
X6601Y345D01*
X6518Y282D01*
X6455Y199D01*
X6415Y103D01*
X6401Y0D01*
X6415Y-103D01*
X6455Y-199D01*
X6518Y-282D01*
X6601Y-345D01*
X6697Y-385D01*
X6800Y-399D01*
X6903Y-385D01*
X6999Y-345D01*
X7082Y-282D01*
X7145Y-199D01*
X7185Y-103D01*
X7199Y0D01*
X7185Y103D01*
X7145Y199D01*
X7082Y282D01*
X6999Y345D01*
X6903Y385D01*
X6800Y399D01*
D02*
G37*
G36*
X7195Y-605D02*
X6405D01*
Y-1395D01*
X7195D01*
Y-605D01*
D02*
G37*
G36*
X3937Y-601D02*
X3834Y-615D01*
X3738Y-655D01*
X3655Y-718D01*
X3592Y-801D01*
X3552Y-897D01*
X3538Y-1000D01*
X3552Y-1103D01*
X3592Y-1199D01*
X3655Y-1282D01*
X3738Y-1345D01*
X3834Y-1385D01*
X3937Y-1399D01*
X4040Y-1385D01*
X4136Y-1345D01*
X4219Y-1282D01*
X4282Y-1199D01*
X4322Y-1103D01*
X4336Y-1000D01*
X4322Y-897D01*
X4282Y-801D01*
X4219Y-718D01*
X4136Y-655D01*
X4040Y-615D01*
X3937Y-601D01*
D02*
G37*
G36*
X2937D02*
X2834Y-615D01*
X2738Y-655D01*
X2655Y-718D01*
X2592Y-801D01*
X2552Y-897D01*
X2538Y-1000D01*
X2552Y-1103D01*
X2592Y-1199D01*
X2655Y-1282D01*
X2738Y-1345D01*
X2834Y-1385D01*
X2937Y-1399D01*
X3040Y-1385D01*
X3136Y-1345D01*
X3219Y-1282D01*
X3282Y-1199D01*
X3322Y-1103D01*
X3336Y-1000D01*
X3322Y-897D01*
X3282Y-801D01*
X3219Y-718D01*
X3136Y-655D01*
X3040Y-615D01*
X2937Y-601D01*
D02*
G37*
G36*
X2332Y-605D02*
X1542D01*
Y-1395D01*
X2332D01*
Y-605D01*
D02*
G37*
G36*
X4937Y-601D02*
X4834Y-615D01*
X4738Y-655D01*
X4655Y-718D01*
X4592Y-801D01*
X4552Y-897D01*
X4538Y-1000D01*
X4552Y-1103D01*
X4592Y-1199D01*
X4655Y-1282D01*
X4738Y-1345D01*
X4834Y-1385D01*
X4937Y-1399D01*
X5040Y-1385D01*
X5136Y-1345D01*
X5219Y-1282D01*
X5282Y-1199D01*
X5322Y-1103D01*
X5336Y-1000D01*
X5322Y-897D01*
X5282Y-801D01*
X5219Y-718D01*
X5136Y-655D01*
X5040Y-615D01*
X4937Y-601D01*
D02*
G37*
G36*
X3937Y1229D02*
X3834Y1215D01*
X3738Y1175D01*
X3655Y1112D01*
X3592Y1029D01*
X3552Y933D01*
X3538Y830D01*
X3552Y727D01*
X3592Y631D01*
X3655Y548D01*
X3738Y485D01*
X3834Y445D01*
X3937Y431D01*
X4040Y445D01*
X4136Y485D01*
X4219Y548D01*
X4282Y631D01*
X4322Y727D01*
X4336Y830D01*
X4322Y933D01*
X4282Y1029D01*
X4219Y1112D01*
X4136Y1175D01*
X4040Y1215D01*
X3937Y1229D01*
D02*
G37*
G36*
X6750Y1950D02*
X6408D01*
X6415Y1897D01*
X6455Y1801D01*
X6518Y1718D01*
X6601Y1655D01*
X6697Y1615D01*
X6750Y1608D01*
Y1950D01*
D02*
G37*
G36*
X6850Y1392D02*
Y1050D01*
X7192D01*
X7185Y1103D01*
X7145Y1199D01*
X7082Y1282D01*
X6999Y1345D01*
X6903Y1385D01*
X6850Y1392D01*
D02*
G37*
G36*
X392Y1950D02*
X50D01*
Y1608D01*
X103Y1615D01*
X199Y1655D01*
X282Y1718D01*
X345Y1801D01*
X385Y1897D01*
X392Y1950D01*
D02*
G37*
G36*
X-50D02*
X-392D01*
X-385Y1897D01*
X-345Y1801D01*
X-282Y1718D01*
X-199Y1655D01*
X-103Y1615D01*
X-50Y1608D01*
Y1950D01*
D02*
G37*
G36*
X6750Y1392D02*
X6697Y1385D01*
X6601Y1345D01*
X6518Y1282D01*
X6455Y1199D01*
X6415Y1103D01*
X6408Y1050D01*
X6750D01*
Y1392D01*
D02*
G37*
G36*
X2332Y1225D02*
X1542D01*
Y435D01*
X2332D01*
Y1225D01*
D02*
G37*
G36*
X4937Y1229D02*
X4834Y1215D01*
X4738Y1175D01*
X4655Y1112D01*
X4592Y1029D01*
X4552Y933D01*
X4538Y830D01*
X4552Y727D01*
X4592Y631D01*
X4655Y548D01*
X4738Y485D01*
X4834Y445D01*
X4937Y431D01*
X5040Y445D01*
X5136Y485D01*
X5219Y548D01*
X5282Y631D01*
X5322Y727D01*
X5336Y830D01*
X5322Y933D01*
X5282Y1029D01*
X5219Y1112D01*
X5136Y1175D01*
X5040Y1215D01*
X4937Y1229D01*
D02*
G37*
G36*
X7192Y950D02*
X6850D01*
Y608D01*
X6903Y615D01*
X6999Y655D01*
X7082Y718D01*
X7145Y801D01*
X7185Y897D01*
X7192Y950D01*
D02*
G37*
G36*
X6750D02*
X6408D01*
X6415Y897D01*
X6455Y801D01*
X6518Y718D01*
X6601Y655D01*
X6697Y615D01*
X6750Y608D01*
Y950D01*
D02*
G37*
G36*
X395Y5395D02*
X-395D01*
Y4605D01*
X395D01*
Y5395D01*
D02*
G37*
G36*
X3329Y11761D02*
X2987D01*
Y11419D01*
X3040Y11426D01*
X3136Y11466D01*
X3219Y11529D01*
X3282Y11612D01*
X3322Y11708D01*
X3329Y11761D01*
D02*
G37*
G36*
X2887D02*
X2545D01*
X2552Y11708D01*
X2592Y11612D01*
X2655Y11529D01*
X2738Y11466D01*
X2834Y11426D01*
X2887Y11419D01*
Y11761D01*
D02*
G37*
G36*
X4329D02*
X3987D01*
Y11419D01*
X4040Y11426D01*
X4136Y11466D01*
X4219Y11529D01*
X4282Y11612D01*
X4322Y11708D01*
X4329Y11761D01*
D02*
G37*
G36*
X3887D02*
X3545D01*
X3552Y11708D01*
X3592Y11612D01*
X3655Y11529D01*
X3738Y11466D01*
X3834Y11426D01*
X3887Y11419D01*
Y11761D01*
D02*
G37*
G36*
X2332D02*
X1987D01*
Y11416D01*
X2332D01*
Y11761D01*
D02*
G37*
G36*
Y10376D02*
X1542D01*
Y9586D01*
X2332D01*
Y10376D01*
D02*
G37*
G36*
X4937Y10380D02*
X4834Y10366D01*
X4738Y10326D01*
X4655Y10263D01*
X4592Y10180D01*
X4552Y10084D01*
X4538Y9981D01*
X4552Y9878D01*
X4592Y9782D01*
X4655Y9699D01*
X4738Y9636D01*
X4834Y9596D01*
X4937Y9582D01*
X5040Y9596D01*
X5136Y9636D01*
X5219Y9699D01*
X5282Y9782D01*
X5322Y9878D01*
X5336Y9981D01*
X5322Y10084D01*
X5282Y10180D01*
X5219Y10263D01*
X5136Y10326D01*
X5040Y10366D01*
X4937Y10380D01*
D02*
G37*
G36*
X1887Y11761D02*
X1542D01*
Y11416D01*
X1887D01*
Y11761D01*
D02*
G37*
G36*
X0Y11914D02*
X-170Y11901D01*
X-336Y11861D01*
X-494Y11796D01*
X-639Y11707D01*
X-769Y11596D01*
X-880Y11466D01*
X-969Y11321D01*
X-1034Y11163D01*
X-1074Y10997D01*
X-1088Y10827D01*
X-1074Y10657D01*
X-1034Y10491D01*
X-969Y10333D01*
X-880Y10187D01*
X-769Y10058D01*
X-639Y9947D01*
X-494Y9858D01*
X-336Y9792D01*
X-170Y9753D01*
X0Y9739D01*
X170Y9753D01*
X336Y9792D01*
X494Y9858D01*
X639Y9947D01*
X769Y10058D01*
X880Y10187D01*
X969Y10333D01*
X1034Y10491D01*
X1074Y10657D01*
X1088Y10827D01*
X1074Y10997D01*
X1034Y11163D01*
X969Y11321D01*
X880Y11466D01*
X769Y11596D01*
X639Y11707D01*
X494Y11796D01*
X336Y11861D01*
X170Y11901D01*
X0Y11914D01*
D02*
G37*
G36*
X4887Y11761D02*
X4545D01*
X4552Y11708D01*
X4592Y11612D01*
X4655Y11529D01*
X4738Y11466D01*
X4834Y11426D01*
X4887Y11419D01*
Y11761D01*
D02*
G37*
G36*
X3987Y12203D02*
Y11861D01*
X4329D01*
X4322Y11914D01*
X4282Y12010D01*
X4219Y12093D01*
X4136Y12156D01*
X4040Y12196D01*
X3987Y12203D01*
D02*
G37*
G36*
X3887D02*
X3834Y12196D01*
X3738Y12156D01*
X3655Y12093D01*
X3592Y12010D01*
X3552Y11914D01*
X3545Y11861D01*
X3887D01*
Y12203D01*
D02*
G37*
G36*
X4987D02*
Y11861D01*
X5329D01*
X5322Y11914D01*
X5282Y12010D01*
X5219Y12093D01*
X5136Y12156D01*
X5040Y12196D01*
X4987Y12203D01*
D02*
G37*
G36*
X4887D02*
X4834Y12196D01*
X4738Y12156D01*
X4655Y12093D01*
X4592Y12010D01*
X4552Y11914D01*
X4545Y11861D01*
X4887D01*
Y12203D01*
D02*
G37*
G36*
X2987D02*
Y11861D01*
X3329D01*
X3322Y11914D01*
X3282Y12010D01*
X3219Y12093D01*
X3136Y12156D01*
X3040Y12196D01*
X2987Y12203D01*
D02*
G37*
G36*
X1887Y12206D02*
X1542D01*
Y11861D01*
X1887D01*
Y12206D01*
D02*
G37*
G36*
X5329Y11761D02*
X4987D01*
Y11419D01*
X5040Y11426D01*
X5136Y11466D01*
X5219Y11529D01*
X5282Y11612D01*
X5322Y11708D01*
X5329Y11761D01*
D02*
G37*
G36*
X2887Y12203D02*
X2834Y12196D01*
X2738Y12156D01*
X2655Y12093D01*
X2592Y12010D01*
X2552Y11914D01*
X2545Y11861D01*
X2887D01*
Y12203D01*
D02*
G37*
G36*
X2332Y12206D02*
X1987D01*
Y11861D01*
X2332D01*
Y12206D01*
D02*
G37*
G36*
X3937Y10380D02*
X3834Y10366D01*
X3738Y10326D01*
X3655Y10263D01*
X3592Y10180D01*
X3552Y10084D01*
X3538Y9981D01*
X3552Y9878D01*
X3592Y9782D01*
X3655Y9699D01*
X3738Y9636D01*
X3834Y9596D01*
X3937Y9582D01*
X4040Y9596D01*
X4136Y9636D01*
X4219Y9699D01*
X4282Y9782D01*
X4322Y9878D01*
X4336Y9981D01*
X4322Y10084D01*
X4282Y10180D01*
X4219Y10263D01*
X4136Y10326D01*
X4040Y10366D01*
X3937Y10380D01*
D02*
G37*
G36*
X8809Y7544D02*
X8426D01*
Y7162D01*
X8809D01*
Y7544D01*
D02*
G37*
G36*
X50Y7392D02*
Y7050D01*
X392D01*
X385Y7103D01*
X345Y7199D01*
X282Y7282D01*
X199Y7345D01*
X103Y7385D01*
X50Y7392D01*
D02*
G37*
G36*
X0Y8399D02*
X-103Y8385D01*
X-199Y8345D01*
X-282Y8282D01*
X-345Y8199D01*
X-385Y8103D01*
X-399Y8000D01*
X-385Y7897D01*
X-345Y7801D01*
X-282Y7718D01*
X-199Y7655D01*
X-103Y7615D01*
X0Y7601D01*
X103Y7615D01*
X199Y7655D01*
X282Y7718D01*
X345Y7801D01*
X385Y7897D01*
X399Y8000D01*
X385Y8103D01*
X345Y8199D01*
X282Y8282D01*
X199Y8345D01*
X103Y8385D01*
X0Y8399D01*
D02*
G37*
G36*
X9291Y7544D02*
X8909D01*
Y7162D01*
X9291D01*
Y7544D01*
D02*
G37*
G36*
X-50Y7392D02*
X-103Y7385D01*
X-199Y7345D01*
X-282Y7282D01*
X-345Y7199D01*
X-385Y7103D01*
X-392Y7050D01*
X-50D01*
Y7392D01*
D02*
G37*
G36*
Y6950D02*
X-392D01*
X-385Y6897D01*
X-345Y6801D01*
X-282Y6718D01*
X-199Y6655D01*
X-103Y6615D01*
X-50Y6608D01*
Y6950D01*
D02*
G37*
G36*
X4332Y8546D02*
X3542D01*
Y7755D01*
X4044D01*
X5985Y5814D01*
X6051Y5770D01*
X6129Y5755D01*
X8515D01*
X8537Y5705D01*
X8481Y5632D01*
X8475Y5617D01*
X4860D01*
X4860Y5617D01*
X4782Y5602D01*
X4716Y5558D01*
X4044Y4886D01*
X3542D01*
Y4095D01*
X4332D01*
Y4597D01*
X4944Y5209D01*
X8475D01*
X8481Y5195D01*
X8550Y5105D01*
X8641Y5035D01*
X8746Y4992D01*
X8859Y4977D01*
X8972Y4992D01*
X9077Y5035D01*
X9167Y5105D01*
X9237Y5195D01*
X9280Y5300D01*
X9295Y5413D01*
X9280Y5526D01*
X9237Y5632D01*
X9181Y5705D01*
X9203Y5755D01*
X9593D01*
X9599Y5740D01*
X9668Y5650D01*
X9759Y5581D01*
X9864Y5537D01*
X9977Y5522D01*
X10090Y5537D01*
X10195Y5581D01*
X10285Y5650D01*
X10355Y5740D01*
X10398Y5846D01*
X10413Y5959D01*
X10398Y6072D01*
X10355Y6177D01*
X10285Y6267D01*
X10195Y6337D01*
X10090Y6380D01*
X9977Y6395D01*
X9864Y6380D01*
X9759Y6337D01*
X9668Y6267D01*
X9599Y6177D01*
X9593Y6163D01*
X9203D01*
X9181Y6213D01*
X9237Y6286D01*
X9280Y6391D01*
X9295Y6504D01*
X9280Y6617D01*
X9237Y6722D01*
X9167Y6813D01*
X9077Y6882D01*
X8972Y6925D01*
X8859Y6940D01*
X8746Y6925D01*
X8641Y6882D01*
X8550Y6813D01*
X8481Y6722D01*
X8437Y6617D01*
X8422Y6504D01*
X8437Y6391D01*
X8481Y6286D01*
X8537Y6213D01*
X8515Y6163D01*
X6214D01*
X4332Y8044D01*
Y8546D01*
D02*
G37*
G36*
X9977Y7486D02*
X9864Y7471D01*
X9759Y7427D01*
X9668Y7358D01*
X9599Y7267D01*
X9555Y7162D01*
X9540Y7049D01*
X9555Y6936D01*
X9599Y6831D01*
X9668Y6741D01*
X9759Y6671D01*
X9864Y6628D01*
X9977Y6613D01*
X10090Y6628D01*
X10195Y6671D01*
X10285Y6741D01*
X10355Y6831D01*
X10398Y6936D01*
X10413Y7049D01*
X10398Y7162D01*
X10355Y7267D01*
X10285Y7358D01*
X10195Y7427D01*
X10090Y7471D01*
X9977Y7486D01*
D02*
G37*
G36*
X392Y6950D02*
X50D01*
Y6608D01*
X103Y6615D01*
X199Y6655D01*
X282Y6718D01*
X345Y6801D01*
X385Y6897D01*
X392Y6950D01*
D02*
G37*
G36*
X8809Y8027D02*
X8426D01*
Y7644D01*
X8809D01*
Y8027D01*
D02*
G37*
G36*
X395Y9395D02*
X-395D01*
Y8605D01*
X395D01*
Y9395D01*
D02*
G37*
G36*
X1987Y8543D02*
Y8201D01*
X2329D01*
X2322Y8254D01*
X2282Y8350D01*
X2219Y8433D01*
X2136Y8496D01*
X2040Y8536D01*
X1987Y8543D01*
D02*
G37*
G36*
X2937Y10380D02*
X2834Y10366D01*
X2738Y10326D01*
X2655Y10263D01*
X2592Y10180D01*
X2552Y10084D01*
X2538Y9981D01*
X2552Y9878D01*
X2592Y9782D01*
X2655Y9699D01*
X2738Y9636D01*
X2834Y9596D01*
X2937Y9582D01*
X3040Y9596D01*
X3136Y9636D01*
X3219Y9699D01*
X3282Y9782D01*
X3322Y9878D01*
X3336Y9981D01*
X3322Y10084D01*
X3282Y10180D01*
X3219Y10263D01*
X3136Y10326D01*
X3040Y10366D01*
X2937Y10380D01*
D02*
G37*
G36*
X9418Y11373D02*
X9255Y11360D01*
X9096Y11322D01*
X8946Y11260D01*
X8806Y11174D01*
X8682Y11068D01*
X8576Y10944D01*
X8491Y10805D01*
X8429Y10654D01*
X8390Y10495D01*
X8378Y10333D01*
X8390Y10170D01*
X8429Y10011D01*
X8491Y9860D01*
X8576Y9721D01*
X8682Y9597D01*
X8806Y9491D01*
X8946Y9406D01*
X9096Y9343D01*
X9255Y9305D01*
X9418Y9292D01*
X9581Y9305D01*
X9739Y9343D01*
X9890Y9406D01*
X10029Y9491D01*
X10153Y9597D01*
X10259Y9721D01*
X10345Y9860D01*
X10407Y10011D01*
X10445Y10170D01*
X10458Y10333D01*
X10445Y10495D01*
X10407Y10654D01*
X10345Y10805D01*
X10259Y10944D01*
X10153Y11068D01*
X10029Y11174D01*
X9890Y11260D01*
X9739Y11322D01*
X9581Y11360D01*
X9418Y11373D01*
D02*
G37*
G36*
X1887Y8543D02*
X1834Y8536D01*
X1738Y8496D01*
X1655Y8433D01*
X1592Y8350D01*
X1552Y8254D01*
X1545Y8201D01*
X1887D01*
Y8543D01*
D02*
G37*
G36*
X2937Y8549D02*
X2834Y8536D01*
X2738Y8496D01*
X2655Y8433D01*
X2592Y8350D01*
X2552Y8254D01*
X2538Y8151D01*
X2552Y8048D01*
X2592Y7951D01*
X2655Y7869D01*
X2738Y7805D01*
X2834Y7766D01*
X2937Y7752D01*
X3040Y7766D01*
X3136Y7805D01*
X3219Y7869D01*
X3282Y7951D01*
X3322Y8048D01*
X3336Y8151D01*
X3322Y8254D01*
X3282Y8350D01*
X3219Y8433D01*
X3136Y8496D01*
X3040Y8536D01*
X2937Y8549D01*
D02*
G37*
G36*
X9291Y8027D02*
X8909D01*
Y7644D01*
X9291D01*
Y8027D01*
D02*
G37*
G36*
X2329Y8101D02*
X1987D01*
Y7759D01*
X2040Y7766D01*
X2136Y7805D01*
X2219Y7869D01*
X2282Y7951D01*
X2322Y8048D01*
X2329Y8101D01*
D02*
G37*
G36*
X1887D02*
X1545D01*
X1552Y8048D01*
X1592Y7951D01*
X1655Y7869D01*
X1738Y7805D01*
X1834Y7766D01*
X1887Y7759D01*
Y8101D01*
D02*
G37*
%LPD*%
D15*
X4860Y5413D02*
X8859D01*
X3937Y4490D02*
X4860Y5413D01*
X6129Y5959D02*
X9977D01*
X3937Y8151D02*
X6129Y5959D01*
D16*
X9418Y494D02*
D03*
Y10333D02*
D03*
D17*
X8859Y7594D02*
D03*
D18*
X9977Y7049D02*
D03*
X8859Y6504D02*
D03*
X9977Y5959D02*
D03*
X8859Y5413D02*
D03*
X9977Y4868D02*
D03*
X8859Y4323D02*
D03*
X9977Y3778D02*
D03*
X8859Y3232D02*
D03*
D19*
X0Y2000D02*
D03*
Y3000D02*
D03*
Y4000D02*
D03*
X4937Y830D02*
D03*
X3937D02*
D03*
X2937D02*
D03*
X4937Y-1000D02*
D03*
X3937D02*
D03*
X2937D02*
D03*
Y8151D02*
D03*
X1937D02*
D03*
X2937Y4490D02*
D03*
X1937D02*
D03*
X0Y8000D02*
D03*
Y7000D02*
D03*
X4937Y9981D02*
D03*
X3937D02*
D03*
X2937D02*
D03*
X6800Y2000D02*
D03*
Y1000D02*
D03*
Y0D02*
D03*
X4937Y11811D02*
D03*
X3937D02*
D03*
X2937D02*
D03*
D20*
X0Y5000D02*
D03*
Y9000D02*
D03*
X6800Y-1000D02*
D03*
D21*
X1937Y830D02*
D03*
Y-1000D02*
D03*
X3937Y8151D02*
D03*
Y4490D02*
D03*
X1937Y9981D02*
D03*
Y11811D02*
D03*
D22*
X0Y0D02*
D03*
Y10827D02*
D03*
M02*
