G04 Layer_Color=16711935*
%FSLAX24Y24*%
%MOIN*%
G70*
G01*
G75*
%ADD32C,0.1954*%
%ADD33R,0.0745X0.0745*%
%ADD34C,0.0745*%
%ADD35C,0.0671*%
%ADD36R,0.0671X0.0671*%
%ADD37R,0.0671X0.0671*%
%ADD38C,0.2049*%
D32*
X9418Y494D02*
D03*
Y10333D02*
D03*
D33*
X8859Y7594D02*
D03*
D34*
X9977Y7049D02*
D03*
X8859Y6504D02*
D03*
X9977Y5959D02*
D03*
X8859Y5413D02*
D03*
X9977Y4868D02*
D03*
X8859Y4323D02*
D03*
X9977Y3778D02*
D03*
X8859Y3232D02*
D03*
D35*
X0Y2000D02*
D03*
Y3000D02*
D03*
Y4000D02*
D03*
X4937Y830D02*
D03*
X3937D02*
D03*
X2937D02*
D03*
X4937Y-1000D02*
D03*
X3937D02*
D03*
X2937D02*
D03*
Y8151D02*
D03*
X1937D02*
D03*
X2937Y4490D02*
D03*
X1937D02*
D03*
X0Y8000D02*
D03*
Y7000D02*
D03*
X4937Y9981D02*
D03*
X3937D02*
D03*
X2937D02*
D03*
X6800Y2000D02*
D03*
Y1000D02*
D03*
Y0D02*
D03*
X4937Y11811D02*
D03*
X3937D02*
D03*
X2937D02*
D03*
D36*
X0Y5000D02*
D03*
Y9000D02*
D03*
X6800Y-1000D02*
D03*
D37*
X1937Y830D02*
D03*
Y-1000D02*
D03*
X3937Y8151D02*
D03*
Y4490D02*
D03*
X1937Y9981D02*
D03*
Y11811D02*
D03*
D38*
X0Y0D02*
D03*
Y10827D02*
D03*
M02*
