M48
;Layer_Color=9474304
;FILE_FORMAT=2:4
INCH,LZ
;TYPE=PLATED
T1F00S00C0.0354
T2F00S00C0.0429
T3F00S00C0.1260
T4F00S00C0.1283
%
T01
X0Y002
Y003
Y004
Y005
Y007
Y008
Y009
X001937Y008151
X002937
X003937
Y009981
X004937
Y011811
X003937
X002937
X001937
Y009981
X002937
Y00449
X003937
X001937
Y00083
X002937
X003937
X004937
Y-001
X003937
X002937
X001937
X0068
Y0
Y001
Y002
T02
X008859Y003232
Y004323
Y005413
Y006504
Y007594
X009977Y007049
Y005959
Y004868
Y003778
T03
X0Y0
Y010827
T04
X009418Y000494
Y010333
M30
