%FSDAX24Y24*%
%MOIN*%
%SFA1B1*%

%IPPOS*%
%ADD10R,0.027600X0.035400*%
%ADD11R,0.035400X0.027600*%
%ADD12R,0.066900X0.043300*%
%ADD13R,0.090600X0.179100*%
%ADD14R,0.041300X0.094500*%
%ADD15R,0.419300X0.350400*%
%ADD16R,0.039400X0.037400*%
%ADD17O,0.068900X0.021700*%
%ADD18O,0.021700X0.068900*%
%LNmetr4810_pcb_b_layout-1*%
%LPD*%
G54D10*
X-005805Y023126D03*
X-006395D03*
G54D11*
X-010313Y005730D03*
Y005139D03*
X-009601D03*
Y005730D03*
X-008888D03*
Y005139D03*
X-020600Y006439D03*
Y005848D03*
X-019813Y006439D03*
Y005848D03*
X-019025Y006439D03*
Y005848D03*
X-016663D03*
Y006439D03*
X-017450Y005848D03*
Y006439D03*
X-018238Y005848D03*
Y006439D03*
X-015300Y005139D03*
Y005730D03*
X-014588D03*
Y005139D03*
X-013875D03*
Y005730D03*
X-011025D03*
Y005139D03*
X-008100Y006814D03*
Y006224D03*
X-015380Y012245D03*
Y011655D03*
G54D12*
X-008118Y020667D03*
Y019604D03*
Y021319D03*
Y022381D03*
G54D13*
X-009878Y003278D03*
Y000325D03*
X-014250Y003278D03*
Y000325D03*
G54D14*
X-017632Y004961D03*
X-019632D03*
Y007326D03*
X-017632D03*
G54D15*
X-018632Y000886D03*
Y011401D03*
G54D16*
X-013100Y004992D03*
Y005622D03*
X-011669Y004992D03*
Y005622D03*
X-008107Y004992D03*
Y005622D03*
X-016022Y012265D03*
Y011635D03*
G54D17*
X-009476Y012975D03*
Y013290D03*
Y013605D03*
Y013920D03*
Y014235D03*
Y014550D03*
Y014865D03*
Y015180D03*
Y015495D03*
Y015810D03*
Y016125D03*
X-013924D03*
Y015810D03*
Y015495D03*
Y015180D03*
Y014865D03*
Y014550D03*
Y014235D03*
Y013920D03*
Y013605D03*
Y013290D03*
Y012975D03*
G54D18*
X-010125Y016774D03*
X-010440D03*
X-010755D03*
X-011070D03*
X-011385D03*
X-011700D03*
X-012015D03*
X-012330D03*
X-012645D03*
X-012960D03*
X-013275D03*
Y012326D03*
X-012960D03*
X-012645D03*
X-012330D03*
X-012015D03*
X-011700D03*
X-011385D03*
X-011070D03*
X-010755D03*
X-010440D03*
X-010125D03*
M02*