%FSTAX24Y24*%
%MOIN*%
%SFA1B1*%

%IPPOS*%
%ADD46C,0.067100*%
%ADD47R,0.067100X0.067100*%
%ADD48R,0.067100X0.067100*%
%ADD49C,0.058000*%
%ADD50C,0.122000*%
%ADD51C,0.204900*%
%LNpcb1-1*%
%LPD*%
G54D46*
X006677Y001476D03*
X004118D03*
X001559D03*
X0Y003248D03*
Y005594D03*
Y008957D03*
X00877Y015344D03*
Y014344D03*
X00777Y015344D03*
Y014344D03*
X00677Y015344D03*
X012356Y012344D03*
X013356Y013344D03*
X012356D03*
X013356Y014344D03*
X012356D03*
X013356Y015344D03*
X012356D03*
X016358Y015354D03*
X015358Y014354D03*
X016358D03*
X015358Y013354D03*
X016358D03*
X015358Y012354D03*
X016358D03*
X019498Y015354D03*
X018498Y014354D03*
X019498D03*
X018498Y013354D03*
X019498D03*
X018498Y012354D03*
X019498D03*
X02285Y01535D03*
X02185Y01435D03*
X02285D03*
X02185Y01335D03*
X02285D03*
X02185Y01235D03*
X02285D03*
X004134Y015344D03*
Y014344D03*
X003134Y015344D03*
Y014344D03*
X002134Y015344D03*
X0Y013344D03*
Y014344D03*
Y015344D03*
X02185Y007382D03*
Y009744D03*
G54D47*
X007677Y001476D03*
X005118D03*
X002559D03*
X00677Y014344D03*
X002134D03*
X02285Y007382D03*
Y009744D03*
G54D48*
X0Y002248D03*
Y006594D03*
Y009957D03*
X013356Y012344D03*
X015358Y015354D03*
X018498D03*
X02185Y01535D03*
X0Y012344D03*
G54D49*
X021024Y010748D03*
X021152Y014291D03*
X02122Y016604D03*
X008415Y016467D03*
X020276Y010138D03*
X010728Y013878D03*
X009449Y013287D03*
X009252Y011713D03*
X007677Y0125D03*
X014365Y008957D03*
X003134Y008563D03*
X004851Y010728D03*
X006026Y008036D03*
X01752Y005315D03*
X02185D03*
X014862Y00689D03*
X012323Y009665D03*
X004852Y013259D03*
X02063Y015354D03*
X006806Y010925D03*
X007953Y011024D03*
X00936Y016467D03*
X010699Y008809D03*
X011516Y009183D03*
X0081Y009459D03*
X006841Y009262D03*
X008376Y010197D03*
X007205Y010276D03*
X001073Y013259D03*
X011992Y006909D03*
X011995Y005531D03*
G54D50*
X012992Y002953D03*
G54D51*
X0Y0D03*
X023622D03*
Y017717D03*
X0D03*
M02*