%FSTAX24Y24*%
%MOIN*%
%SFA1B1*%

%IPPOS*%
%ADD10R,0.035400X0.027600*%
%ADD11R,0.090600X0.179100*%
%ADD12R,0.039400X0.023600*%
%ADD13R,0.041300X0.094500*%
%ADD14R,0.419300X0.350400*%
%ADD15R,0.027600X0.035400*%
%ADD16R,0.039400X0.037400*%
%ADD17C,0.060000*%
%ADD18O,0.021700X0.053200*%
%ADD19O,0.053200X0.021700*%
%ADD20R,0.035400X0.031500*%
%ADD21R,0.043300X0.070900*%
%ADD22C,0.020000*%
%ADD23C,0.059100*%
%ADD24R,0.059100X0.059100*%
%ADD25R,0.059100X0.059100*%
%ADD26C,0.050000*%
%ADD27C,0.114000*%
%ADD28C,0.196900*%
%LNpcb1-1*%
%LPD*%
G36*
X023859Y019518D02*
X024092Y019472D01*
X024318Y019396*
X024531Y01929*
X024728Y019158*
X024907Y019002*
X025064Y018823*
X025196Y018625*
X025301Y018412*
X025378Y018187*
X025424Y017954*
X025439Y017723*
X025438Y017717*
Y0*
X025439Y-000007*
X025424Y-000237*
X025378Y-00047*
X025301Y-000695*
X025196Y-000909*
X025064Y-001106*
X024907Y-001285*
X024728Y-001442*
X024531Y-001574*
X024318Y-001679*
X024092Y-001755*
X023859Y-001802*
X023629Y-001817*
X023622Y-001816*
X0*
X-000007Y-001817*
X-000237Y-001802*
X-00047Y-001755*
X-000695Y-001679*
X-000909Y-001574*
X-001106Y-001442*
X-001285Y-001285*
X-001442Y-001106*
X-001574Y-000909*
X-001679Y-000695*
X-001755Y-00047*
X-001802Y-000237*
X-001817Y-000007*
X-001816Y0*
Y017717*
X-001817Y017723*
X-001802Y017954*
X-001755Y018187*
X-001679Y018412*
X-001574Y018625*
X-001442Y018823*
X-001285Y019002*
X-001106Y019158*
X-000909Y01929*
X-000695Y019396*
X-00047Y019472*
X-000237Y019518*
X-000007Y019533*
X0Y019532*
X023622*
X023629Y019533*
X023859Y019518*
G37*
%LNpcb1-2*%
%LPC*%
G36*
X011945Y005482D02*
X011649D01*
X011654Y00544*
X01169Y005355*
X011746Y005282*
X011819Y005226*
X011904Y005191*
X011945Y005185*
Y005482*
G37*
G36*
X006793Y005385D02*
X006199D01*
Y004811*
X006793*
Y004914*
X0074*
Y00488*
X007954*
Y005356*
X0074*
Y005322*
X006793*
Y005385*
G37*
G36*
X012342Y005482D02*
X012045D01*
Y005185*
X012087Y005191*
X012172Y005226*
X012245Y005282*
X012301Y005355*
X012336Y00544*
X012342Y005482*
G37*
G36*
X011945Y005878D02*
X011904Y005872D01*
X011819Y005837*
X011746Y005781*
X01169Y005708*
X011654Y005623*
X011649Y005581*
X011945*
Y005878*
G37*
G36*
X0Y005993D02*
X-000103Y00598D01*
X-000199Y00594*
X-000282Y005876*
X-000345Y005794*
X-000385Y005698*
X-000399Y005594*
X-000385Y005491*
X-000345Y005395*
X-000282Y005313*
X-000199Y005249*
X-000103Y005209*
X0Y005196*
X000103Y005209*
X000199Y005249*
X000282Y005313*
X000345Y005395*
X000385Y005491*
X000399Y005594*
X000385Y005698*
X000345Y005794*
X000282Y005876*
X000199Y00594*
X000103Y00598*
X0Y005993*
G37*
G36*
X003887Y005088D02*
X00366D01*
Y00488*
X003887*
Y005088*
G37*
G36*
X009785Y0051D02*
X009597D01*
Y004873*
X009785*
Y0051*
G37*
G36*
X004214Y005088D02*
X003987D01*
Y00488*
X004214*
Y005088*
G37*
G36*
X005198D02*
X004971D01*
Y00488*
X005198*
Y005088*
G37*
G36*
X004871D02*
X004644D01*
Y00488*
X004871*
Y005088*
G37*
G36*
X012045Y005878D02*
Y005581D01*
X012342*
X012336Y005623*
X012301Y005708*
X012245Y005781*
X012172Y005837*
X012087Y005872*
X012045Y005878*
G37*
G36*
X018652Y008566D02*
Y008219D01*
X018999*
X018992Y008274*
X018952Y008371*
X018888Y008455*
X018804Y008519*
X018707Y008559*
X018652Y008566*
G37*
G36*
X018552D02*
X018498Y008559D01*
X018401Y008519*
X018317Y008455*
X018253Y008371*
X018213Y008274*
X018205Y008219*
X018552*
Y008566*
G37*
G36*
X0Y009355D02*
X-000103Y009342D01*
X-000199Y009302*
X-000282Y009239*
X-000345Y009156*
X-000385Y00906*
X-000399Y008957*
X-000385Y008853*
X-000345Y008757*
X-000282Y008675*
X-000199Y008611*
X-000103Y008572*
X0Y008558*
X000103Y008572*
X000199Y008611*
X000282Y008675*
X000345Y008757*
X000385Y008853*
X000399Y008957*
X000385Y00906*
X000345Y009156*
X000282Y009239*
X000199Y009302*
X000103Y009342*
X0Y009355*
G37*
G36*
X000395Y010352D02*
X-000395D01*
Y009561*
X000395*
Y009835*
X001494*
Y009802*
X002049*
Y010277*
X001494*
Y010243*
X000395*
Y010352*
G37*
G36*
X02185Y010143D02*
X021747Y010129D01*
X021651Y010089*
X021568Y010026*
X021505Y009943*
X021465Y009847*
X021452Y009744*
X021465Y009641*
X021505Y009545*
X021568Y009462*
X021651Y009399*
X021747Y009359*
X02185Y009345*
X021954Y009359*
X02205Y009399*
X022132Y009462*
X022196Y009545*
X022236Y009641*
X022249Y009744*
X022236Y009847*
X022196Y009943*
X022132Y010026*
X02205Y010089*
X021954Y010129*
X02185Y010143*
G37*
G36*
X004537Y006761D02*
X00429D01*
Y006593*
X004537*
Y006761*
G37*
G36*
X000395Y00699D02*
X-000395D01*
Y006199*
X000395*
Y006391*
X001494*
Y006357*
X002049*
Y006832*
X001494*
Y006798*
X000395*
Y00699*
G37*
G36*
X004883Y006761D02*
X004637D01*
Y006593*
X004883*
Y006761*
G37*
G36*
X018999Y008119D02*
X018652D01*
Y007772*
X018707Y00778*
X018804Y00782*
X018888Y007884*
X018952Y007968*
X018992Y008065*
X018999Y008119*
G37*
G36*
X018552D02*
X018205D01*
X018213Y008065*
X018253Y007968*
X018317Y007884*
X018401Y00782*
X018498Y00778*
X018552Y007772*
Y008119*
G37*
G36*
X009497Y0051D02*
X009309D01*
Y004873*
X009497*
Y0051*
G37*
G36*
X003001Y003395D02*
X002813D01*
Y003168*
X003001*
Y003395*
G37*
G36*
X007915Y003722D02*
X007439D01*
Y003168*
X007473*
Y001872*
X007282*
Y001081*
X008072*
Y001872*
X007881*
Y003168*
X007915*
Y003722*
G37*
G36*
X003289Y003395D02*
X003101D01*
Y003168*
X003289*
Y003395*
G37*
G36*
X005946D02*
X005759D01*
Y003168*
X005946*
Y003395*
G37*
G36*
X005659D02*
X005471D01*
Y003168*
X005659*
Y003395*
G37*
G36*
X023622Y001088D02*
X023452Y001074D01*
X023286Y001034*
X023128Y000969*
X022983Y00088*
X022853Y000769*
X022742Y000639*
X022653Y000494*
X022588Y000336*
X022548Y00017*
X022534Y0*
X022548Y-00017*
X022588Y-000336*
X022653Y-000494*
X022742Y-000639*
X022853Y-000769*
X022983Y-00088*
X023128Y-000969*
X023286Y-001034*
X023452Y-001074*
X023622Y-001088*
X023792Y-001074*
X023958Y-001034*
X024116Y-000969*
X024261Y-00088*
X024391Y-000769*
X024502Y-000639*
X024591Y-000494*
X024656Y-000336*
X024696Y-00017*
X02471Y0*
X024696Y00017*
X024656Y000336*
X024591Y000494*
X024502Y000639*
X024391Y000769*
X024261Y00088*
X024116Y000969*
X023958Y001034*
X023792Y001074*
X023622Y001088*
G37*
G36*
X0D02*
X-00017Y001074D01*
X-000336Y001034*
X-000494Y000969*
X-000639Y00088*
X-000769Y000769*
X-00088Y000639*
X-000969Y000494*
X-001034Y000336*
X-001074Y00017*
X-001088Y0*
X-001074Y-00017*
X-001034Y-000336*
X-000969Y-000494*
X-00088Y-000639*
X-000769Y-000769*
X-000639Y-00088*
X-000494Y-000969*
X-000336Y-001034*
X-00017Y-001074*
X0Y-001088*
X00017Y-001074*
X000336Y-001034*
X000494Y-000969*
X000639Y-00088*
X000769Y-000769*
X00088Y-000639*
X000969Y-000494*
X001034Y-000336*
X001074Y-00017*
X001088Y0*
X001074Y00017*
X001034Y000336*
X000969Y000494*
X00088Y000639*
X000769Y000769*
X000639Y00088*
X000494Y000969*
X000336Y001034*
X00017Y001074*
X0Y001088*
G37*
G36*
X004118Y001875D02*
X004015Y001861D01*
X003919Y001822*
X003836Y001758*
X003773Y001676*
X003733Y00158*
X003719Y001476*
X003733Y001373*
X003773Y001277*
X003836Y001194*
X003919Y001131*
X004015Y001091*
X004118Y001078*
X004221Y001091*
X004317Y001131*
X0044Y001194*
X004463Y001277*
X004503Y001373*
X004517Y001476*
X004503Y00158*
X004463Y001676*
X0044Y001758*
X004317Y001822*
X004221Y001861*
X004118Y001875*
G37*
G36*
X005356Y003722D02*
X00488D01*
Y003168*
X004914*
Y001872*
X004723*
Y001081*
X005513*
Y001872*
X005322*
Y003168*
X005356*
Y003722*
G37*
G36*
X006677Y001875D02*
X006574Y001861D01*
X006478Y001822*
X006395Y001758*
X006332Y001676*
X006292Y00158*
X006278Y001476*
X006292Y001373*
X006332Y001277*
X006395Y001194*
X006478Y001131*
X006574Y001091*
X006677Y001078*
X00678Y001091*
X006877Y001131*
X006959Y001194*
X007022Y001277*
X007062Y001373*
X007076Y001476*
X007062Y00158*
X007022Y001676*
X006959Y001758*
X006877Y001822*
X00678Y001861*
X006677Y001875*
G37*
G36*
X007037Y003395D02*
X006849D01*
Y003168*
X007037*
Y003395*
G37*
G36*
X005946Y003722D02*
X005759D01*
Y003495*
X005946*
Y003722*
G37*
G36*
X003289D02*
X003101D01*
Y003495*
X003289*
Y003722*
G37*
G36*
X018072Y006311D02*
X016967D01*
Y004319*
X018072*
Y006311*
G37*
G36*
X009785Y004773D02*
X009597D01*
Y004546*
X009785*
Y004773*
G37*
G36*
X009497D02*
X009309D01*
Y004546*
X009497*
Y004773*
G37*
G36*
X003001Y003722D02*
X002813D01*
Y003495*
X003001*
Y003722*
G37*
G36*
X007324Y003395D02*
X007137D01*
Y003168*
X007324*
Y003395*
G37*
G36*
X005659Y003722D02*
X005471D01*
Y003495*
X005659*
Y003722*
G37*
G36*
X007324D02*
X007137D01*
Y003495*
X007324*
Y003722*
G37*
G36*
X007037D02*
X006849D01*
Y003495*
X007037*
Y003722*
G37*
G36*
X002529Y01474D02*
X001739D01*
Y013949*
X002529*
Y01474*
G37*
G36*
X00936Y01682D02*
X009269Y016808D01*
X009184Y016772*
X009111Y016716*
X009055Y016643*
X009019Y016558*
X009007Y016467*
X009019Y016375*
X009025Y016361*
X008625Y015961*
X008581Y015895*
X008566Y015817*
Y015686*
X00852Y015651*
X00847Y015676*
Y015686*
X008455Y015764*
X00841Y01583*
X007581Y01666*
X007514Y016704*
X007436Y01672*
X001998*
X00192Y016704*
X001854Y01666*
X000436Y015242*
X000388Y015265*
X000399Y015344*
X000385Y015448*
X000345Y015544*
X000282Y015626*
X000199Y01569*
X000103Y01573*
X0Y015743*
X-000103Y01573*
X-000199Y01569*
X-000282Y015626*
X-000345Y015544*
X-000385Y015448*
X-000399Y015344*
X-000385Y015241*
X-000345Y015145*
X-000282Y015063*
X-000199Y014999*
X-000103Y014959*
X0Y014946*
X000079Y014956*
X000103Y014909*
X-000072Y014734*
X-000103Y01473*
X-000199Y01469*
X-000282Y014626*
X-000345Y014544*
X-000385Y014448*
X-000399Y014344*
X-000385Y014241*
X-000345Y014145*
X-000282Y014063*
X-000199Y013999*
X-000103Y013959*
X0Y013946*
X000103Y013959*
X000199Y013999*
X000282Y014063*
X000345Y014145*
X000385Y014241*
X000399Y014344*
X000385Y014448*
X000345Y014544*
X000332Y014561*
X00083Y015059*
X000876Y015034*
X000869Y015*
Y013544*
X000823Y013509*
X000767Y013436*
X000732Y013351*
X00072Y013259*
X000732Y013168*
X000767Y013083*
X000823Y01301*
X000896Y012953*
X000981Y012918*
X001073Y012906*
X001164Y012918*
X001249Y012953*
X001322Y01301*
X001379Y013083*
X001414Y013168*
X001426Y013259*
X001414Y013351*
X001379Y013436*
X001322Y013509*
X001277Y013544*
Y014916*
X001687Y015326*
X00174Y015308*
X001749Y015241*
X001789Y015145*
X001852Y015063*
X001935Y014999*
X002031Y014959*
X002084Y014952*
Y015344*
X002134*
Y015394*
X002526*
X002519Y015448*
X002479Y015544*
X002447Y015586*
X002472Y015636*
X002796*
X002821Y015586*
X002789Y015544*
X002749Y015448*
X002735Y015344*
X002749Y015241*
X002789Y015145*
X002852Y015063*
X002935Y014999*
X003031Y014959*
X003134Y014946*
X003237Y014959*
X003333Y014999*
X003416Y015063*
X003479Y015145*
X003483Y015155*
X003531Y015169*
X003551Y015156*
X003629Y015141*
X003792*
X00384Y015078*
X003835Y015027*
X00383Y015016*
X003791Y01499*
X003494Y014694*
X003463Y014647*
X003449Y014641*
X00341Y014636*
X003401Y014638*
X003333Y01469*
X003237Y01473*
X003134Y014743*
X003031Y01473*
X002935Y01469*
X002852Y014626*
X002789Y014544*
X002749Y014448*
X002735Y014344*
X002749Y014241*
X002789Y014145*
X002852Y014063*
X00293Y014003*
Y008848*
X002884Y008813*
X002828Y00874*
X002793Y008654*
X002781Y008563*
X002793Y008472*
X002821Y008405*
X002778Y008376*
X001993Y009161*
X002014Y009211*
X002049*
Y009687*
X001494*
Y009211*
X001568*
Y009094*
X001583Y009016*
X001627Y00895*
X003143Y007435*
X003123Y007389*
X002049*
Y007423*
X001494*
Y006947*
X002049*
Y006981*
X003123*
X003143Y006935*
X001627Y00542*
X001583Y005354*
X001568Y005276*
Y004962*
X001494*
Y004487*
X002049*
Y004962*
X001976*
Y005191*
X003751Y006967*
X003978*
Y00718*
X004024Y0072*
X004132Y007092*
X004198Y007047*
X004244Y007038*
X004276Y007032*
X00429Y006985*
Y006861*
X004587*
X004883*
Y007029*
X004932Y007032*
X005665*
X006635Y006062*
X006616Y006015*
X006199*
Y005932*
X005198*
Y005946*
X004644*
Y005893*
X004214*
Y005946*
X00366*
Y005929*
X00363Y005893*
X003552Y005877*
X003486Y005833*
X002218Y004565*
X002174Y004499*
X002158Y004421*
Y004199*
X002095Y004135*
X002049Y004155*
Y004372*
X001494*
Y004145*
X0004Y003051*
X000358Y003079*
X000385Y003145*
X000399Y003248*
X000385Y003351*
X000345Y003447*
X000282Y00353*
X000199Y003593*
X000103Y003633*
X0Y003647*
X-000103Y003633*
X-000199Y003593*
X-000282Y00353*
X-000345Y003447*
X-000385Y003351*
X-000399Y003248*
X-000385Y003145*
X-000345Y003049*
X-000282Y002966*
X-000199Y002903*
X-000103Y002863*
X0Y002849*
X000103Y002863*
X000169Y00289*
X000197Y002848*
X-000007Y002643*
X-000395*
Y001853*
X000395*
Y002469*
X001321Y003395*
X001367Y00337*
X001355Y003311*
Y001818*
X001277Y001758*
X001214Y001676*
X001174Y00158*
X00116Y001476*
X001174Y001373*
X001214Y001277*
X001277Y001194*
X00136Y001131*
X001456Y001091*
X001559Y001078*
X001662Y001091*
X001758Y001131*
X001841Y001194*
X001904Y001277*
X001944Y001373*
X001958Y001476*
X001944Y00158*
X001904Y001676*
X001841Y001758*
X001763Y001818*
Y003227*
X002177Y00364*
X002223Y003621*
Y003168*
X002257*
Y001872*
X002164*
Y001081*
X002954*
Y001872*
X002665*
Y003168*
X002698*
Y003722*
X002324*
X002305Y003768*
X002506Y00397*
X002551Y004036*
X002566Y004114*
Y004337*
X00361Y00538*
X00366Y00536*
Y005188*
X004214*
Y005381*
Y005395*
Y005435*
X004239Y005485*
X004609*
X004644Y00545*
Y005395*
Y005381*
Y005188*
X005198*
Y005381*
Y005395*
Y005431*
Y005445*
Y005505*
X005227Y005524*
X006199*
Y005441*
X006793*
Y005838*
X006839Y005857*
X007132Y005564*
X007198Y00552*
X007276Y005505*
X0074*
Y005471*
X007954*
Y005946*
X0074*
Y005939*
X00735Y005923*
X005893Y00738*
X005827Y007424*
X005749Y00744*
X004883*
Y007777*
X004791*
Y008446*
X005491Y009146*
X005654*
X005686Y009096*
X005673Y009035*
X00569Y008954*
X005736Y008885*
X005805Y008839*
X005822Y008836*
Y008321*
X005777Y008285*
X005721Y008212*
X005685Y008127*
X005673Y008036*
X005685Y007944*
X005721Y007859*
X005777Y007786*
X00585Y00773*
X005935Y007695*
X006026Y007683*
X006118Y007695*
X006203Y00773*
X006276Y007786*
X006332Y007859*
X006339Y007875*
X006391Y00787*
X006393Y007858*
X006437Y007792*
X008133Y006096*
X008199Y006052*
X008277Y006036*
X011687*
X011703Y006033*
X015177*
X015197Y005987*
X014209Y005*
X010376*
Y0051*
X0099*
Y004546*
X009973*
Y004361*
X009965Y004356*
X009923Y004338*
X009892Y004344*
X009006*
X008967Y004336*
X008961Y004332*
X008404*
Y003424*
X008904*
Y003061*
X008912Y003022*
X008934Y002989*
X008967Y002967*
X009006Y002959*
X00904*
X009059Y002913*
X008576Y00243*
X008532Y002364*
X008517Y002286*
Y001891*
X008404*
Y000983*
X008995*
X009006Y000981*
X009892*
X009902Y000983*
X010494*
Y001891*
X009994*
Y002264*
X009986Y002303*
X009964Y002336*
X009931Y002358*
X009892Y002366*
X009154*
X009135Y002412*
X009354Y002631*
X010796*
Y000983*
X015189*
Y004687*
X014538*
X014519Y004733*
X019883Y010096*
X01993Y01008*
X019935Y010046*
X01997Y009961*
X020026Y009888*
X020099Y009832*
X020184Y009797*
X020276Y009785*
X020367Y009797*
X020452Y009832*
X020525Y009888*
X020581Y009961*
X020617Y010046*
X020629Y010138*
X020617Y010229*
X020581Y010314*
X020525Y010387*
X0205Y010407*
Y011712*
X021753Y012965*
X02185Y012952*
X021954Y012965*
X02205Y013005*
X022132Y013068*
X022196Y013151*
X022236Y013247*
X022249Y01335*
X022236Y013454*
X022196Y01355*
X022132Y013632*
X02205Y013696*
X021954Y013735*
X02185Y013749*
X021747Y013735*
X021651Y013696*
X021568Y013632*
X021505Y01355*
X021465Y013454*
X021452Y01335*
X021465Y013253*
X020246Y012035*
X0202Y012054*
Y015556*
X020185Y015635*
X02014Y015701*
X019247Y016594*
X019181Y016638*
X019103Y016654*
X010875*
X010797Y016638*
X010731Y016594*
X008867Y01473*
X00877Y014743*
X008666Y01473*
X00857Y01469*
X00852Y014651*
X00847Y014676*
Y015013*
X00852Y015038*
X00857Y014999*
X008666Y014959*
X00877Y014946*
X008873Y014959*
X008969Y014999*
X009052Y015063*
X009115Y015145*
X009155Y015241*
X009168Y015344*
X009155Y015448*
X009115Y015544*
X009052Y015626*
X008977Y015684*
X008975Y015734*
X009355Y016114*
X00936*
X009452Y016126*
X009537Y016161*
X00961Y016217*
X009666Y01629*
X009701Y016375*
X009713Y016467*
X009701Y016558*
X009666Y016643*
X00961Y016716*
X009537Y016772*
X009452Y016808*
X00936Y01682*
G37*
G36*
X02122Y016957D02*
X021129Y016945D01*
X021044Y01691*
X020971Y016854*
X020915Y016781*
X020879Y016696*
X020867Y016604*
X020879Y016513*
X020915Y016428*
X020971Y016355*
X021017Y01632*
Y015466*
X020967Y015456*
X020936Y015531*
X02088Y015604*
X020806Y01566*
X020721Y015695*
X02068Y015701*
Y015354*
Y015008*
X020721Y015013*
X020806Y015049*
X02088Y015105*
X020936Y015178*
X020967Y015252*
X021017Y015243*
Y014614*
X020975Y014597*
X020902Y014541*
X020846Y014468*
X020811Y014383*
X020799Y014291*
X020811Y0142*
X020846Y014115*
X020902Y014042*
X020975Y013986*
X02106Y01395*
X021152Y013938*
X021243Y01395*
X021328Y013986*
X021401Y014042*
X021457Y014115*
X021463Y014129*
X021519Y014133*
X021568Y014068*
X021651Y014005*
X021747Y013965*
X02185Y013952*
X021954Y013965*
X02205Y014005*
X022132Y014068*
X022196Y014151*
X022236Y014247*
X022249Y01435*
X022236Y014454*
X022196Y01455*
X022132Y014632*
X02205Y014696*
X021954Y014735*
X02185Y014749*
X021747Y014735*
X021651Y014696*
X021568Y014632*
X021505Y01455*
X021504Y014547*
X021444Y014533*
X021424Y014551*
Y014918*
X021455Y014955*
X021474*
X022246*
Y015746*
X021474*
X021455*
X021424Y015783*
Y01632*
X02147Y016355*
X021526Y016428*
X021561Y016513*
X021573Y016604*
X021561Y016696*
X021526Y016781*
X02147Y016854*
X021397Y01691*
X021312Y016945*
X02122Y016957*
G37*
G36*
X02285Y014749D02*
X022747Y014735D01*
X022651Y014696*
X022568Y014632*
X022505Y01455*
X022465Y014454*
X022452Y01435*
X022465Y014247*
X022505Y014151*
X022568Y014068*
X022651Y014005*
X022747Y013965*
X02285Y013952*
X022948Y013965*
X023142Y01377*
Y013688*
X023092Y013663*
X02305Y013696*
X022954Y013735*
X02285Y013749*
X022747Y013735*
X022651Y013696*
X022568Y013632*
X022505Y01355*
X022465Y013454*
X022452Y01335*
X022465Y013247*
X022505Y013151*
X022568Y013068*
X022651Y013005*
X022747Y012965*
X02285Y012952*
X022954Y012965*
X02305Y013005*
X023092Y013038*
X023142Y013013*
Y012688*
X023092Y012663*
X02305Y012696*
X022954Y012735*
X02285Y012749*
X022747Y012735*
X022651Y012696*
X022568Y012632*
X022505Y01255*
X022465Y012454*
X022452Y01235*
X022465Y012247*
X022505Y012151*
X022568Y012068*
X022651Y012005*
X022747Y011965*
X02285Y011952*
X022954Y011965*
X02305Y012005*
X023092Y012038*
X023142Y012013*
Y010324*
X022957Y010139*
X022455*
Y009349*
X022646*
Y007777*
X022455*
Y007275*
X022271Y007091*
X022188*
X022163Y007141*
X022196Y007183*
X022236Y007279*
X022249Y007382*
X022236Y007485*
X022196Y007581*
X022132Y007664*
X02205Y007727*
X021954Y007767*
X02185Y007781*
X021747Y007767*
X021651Y007727*
X021568Y007664*
X021505Y007581*
X021465Y007485*
X021452Y007382*
X021465Y007279*
X021492Y007213*
X02145Y007185*
X020567Y008068*
X020581Y008169*
X020567Y008274*
X020527Y008371*
X020462Y008455*
X020379Y008519*
X020282Y008559*
X020177Y008573*
X020073Y008559*
X019975Y008519*
X019892Y008455*
X019828Y008371*
X019787Y008274*
X019774Y008169*
X019787Y008065*
X019828Y007968*
X019892Y007884*
X019975Y00782*
X020073Y00778*
X020177Y007766*
X020279Y007779*
X021218Y006841*
X017735Y003358*
X016967*
Y001367*
X018072*
Y003119*
X021248Y006294*
X021298Y006273*
Y004319*
X022403*
Y006311*
X021335*
X021314Y006361*
X021636Y006683*
X022355*
X022433Y006698*
X022499Y006742*
X0226Y006843*
X022646Y006824*
Y003939*
X022066Y003358*
X021298*
Y001367*
X022403*
Y003119*
X022995Y00371*
X023039Y003776*
X023054Y003854*
Y006987*
X023246*
Y007777*
X023054*
Y009349*
X023246*
Y009851*
X02349Y010096*
X023535Y010162*
X02355Y01024*
Y013854*
X023535Y013933*
X02349Y013999*
X023236Y014253*
X023249Y01435*
X023235Y014454*
X023196Y01455*
X023132Y014632*
X02305Y014696*
X022954Y014735*
X02285Y014749*
G37*
G36*
X-00005Y01274D02*
X-000395D01*
Y012394*
X-00005*
Y01274*
G37*
G36*
X000395D02*
X00005D01*
Y012394*
X000395*
Y01274*
G37*
G36*
X0Y013743D02*
X-000103Y01373D01*
X-000199Y01369*
X-000282Y013626*
X-000345Y013544*
X-000385Y013448*
X-000399Y013344*
X-000385Y013241*
X-000345Y013145*
X-000282Y013063*
X-000199Y012999*
X-000103Y012959*
X0Y012946*
X000103Y012959*
X000199Y012999*
X000282Y013063*
X000345Y013145*
X000385Y013241*
X000399Y013344*
X000385Y013448*
X000345Y013544*
X000282Y013626*
X000199Y01369*
X000103Y01373*
X0Y013743*
G37*
G36*
X0229Y015742D02*
Y0154D01*
X023242*
X023235Y015454*
X023196Y01555*
X023132Y015632*
X02305Y015696*
X022954Y015735*
X0229Y015742*
G37*
G36*
X0228D02*
X022747Y015735D01*
X022651Y015696*
X022568Y015632*
X022505Y01555*
X022465Y015454*
X022458Y0154*
X0228*
Y015742*
G37*
G36*
X02058Y015304D02*
X020283D01*
X020289Y015263*
X020324Y015178*
X02038Y015105*
X020453Y015049*
X020539Y015013*
X02058Y015008*
Y015304*
G37*
G36*
Y015701D02*
X020539Y015695D01*
X020453Y01566*
X02038Y015604*
X020324Y015531*
X020289Y015446*
X020283Y015404*
X02058*
Y015701*
G37*
G36*
X002526Y015294D02*
X002184D01*
Y014952*
X002237Y014959*
X002333Y014999*
X002416Y015063*
X002479Y015145*
X002519Y015241*
X002526Y015294*
G37*
G36*
X0228Y0153D02*
X022458D01*
X022465Y015247*
X022505Y015151*
X022568Y015068*
X022651Y015005*
X022747Y014965*
X0228Y014958*
Y0153*
G37*
G36*
X023242D02*
X0229D01*
Y014958*
X022954Y014965*
X02305Y015005*
X023132Y015068*
X023196Y015151*
X023235Y015247*
X023242Y0153*
G37*
G36*
X008365Y016417D02*
X008069D01*
X008074Y016375*
X00811Y01629*
X008166Y016217*
X008239Y016161*
X008324Y016126*
X008365Y01612*
Y016417*
G37*
G36*
X008465Y016813D02*
Y016517D01*
X008762*
X008756Y016558*
X008721Y016643*
X008665Y016716*
X008592Y016772*
X008507Y016808*
X008465Y016813*
G37*
G36*
X020974Y011094D02*
X020932Y011089D01*
X020847Y011054*
X020774Y010998*
X020718Y010925*
X020683Y010839*
X020677Y010798*
X020974*
Y011094*
G37*
G36*
X008365Y016813D02*
X008324Y016808D01*
X008239Y016772*
X008166Y016716*
X00811Y016643*
X008074Y016558*
X008069Y016517*
X008365*
Y016813*
G37*
G36*
X02137Y010698D02*
X021074D01*
Y010402*
X021115Y010407*
X0212Y010442*
X021273Y010498*
X021329Y010572*
X021365Y010657*
X02137Y010698*
G37*
G36*
X023622Y018804D02*
X023452Y018791D01*
X023286Y018751*
X023128Y018686*
X022983Y018596*
X022853Y018486*
X022742Y018356*
X022653Y01821*
X022588Y018053*
X022548Y017887*
X022534Y017717*
X022548Y017546*
X022588Y01738*
X022653Y017223*
X022742Y017077*
X022853Y016947*
X022983Y016837*
X023128Y016747*
X023286Y016682*
X023452Y016642*
X023622Y016629*
X023792Y016642*
X023958Y016682*
X024116Y016747*
X024261Y016837*
X024391Y016947*
X024502Y017077*
X024591Y017223*
X024656Y01738*
X024696Y017546*
X02471Y017717*
X024696Y017887*
X024656Y018053*
X024591Y01821*
X024502Y018356*
X024391Y018486*
X024261Y018596*
X024116Y018686*
X023958Y018751*
X023792Y018791*
X023622Y018804*
G37*
G36*
X0D02*
X-00017Y018791D01*
X-000336Y018751*
X-000494Y018686*
X-000639Y018596*
X-000769Y018486*
X-00088Y018356*
X-000969Y01821*
X-001034Y018053*
X-001074Y017887*
X-001088Y017717*
X-001074Y017546*
X-001034Y01738*
X-000969Y017223*
X-00088Y017077*
X-000769Y016947*
X-000639Y016837*
X-000494Y016747*
X-000336Y016682*
X-00017Y016642*
X0Y016629*
X00017Y016642*
X000336Y016682*
X000494Y016747*
X000639Y016837*
X000769Y016947*
X00088Y017077*
X000969Y017223*
X001034Y01738*
X001074Y017546*
X001088Y017717*
X001074Y017887*
X001034Y018053*
X000969Y01821*
X00088Y018356*
X000769Y018486*
X000639Y018596*
X000494Y018686*
X000336Y018751*
X00017Y018791*
X0Y018804*
G37*
G36*
X020974Y010698D02*
X020677D01*
X020683Y010657*
X020718Y010572*
X020774Y010498*
X020847Y010442*
X020932Y010407*
X020974Y010402*
Y010698*
G37*
G36*
X02185Y012749D02*
X021747Y012735D01*
X021651Y012696*
X021568Y012632*
X021505Y01255*
X021465Y012454*
X021452Y01235*
X021465Y012247*
X021505Y012151*
X021568Y012068*
X021651Y012005*
X021747Y011965*
X02185Y011952*
X021954Y011965*
X02205Y012005*
X022132Y012068*
X022196Y012151*
X022236Y012247*
X022249Y01235*
X022236Y012454*
X022196Y01255*
X022132Y012632*
X02205Y012696*
X021954Y012735*
X02185Y012749*
G37*
G36*
X-00005Y012294D02*
X-000395D01*
Y011949*
X-00005*
Y012294*
G37*
G36*
X000395D02*
X00005D01*
Y011949*
X000395*
Y012294*
G37*
G36*
X008762Y016417D02*
X008465D01*
Y01612*
X008507Y016126*
X008592Y016161*
X008665Y016217*
X008721Y01629*
X008756Y016375*
X008762Y016417*
G37*
G36*
X021074Y011094D02*
Y010798D01*
X02137*
X021365Y010839*
X021329Y010925*
X021273Y010998*
X0212Y011054*
X021115Y011089*
X021074Y011094*
G37*
%LNpcb1-3*%
%LPD*%
G36*
X018789Y012017D02*
Y011161D01*
X018805Y011083*
X018849Y011017*
X019016Y01085*
Y010646*
X018849Y010479*
X018805Y010413*
X018789Y010335*
Y010004*
X015226Y006441*
X014299*
Y006706*
X014562*
X014613Y00664*
X014686Y006584*
X014771Y006549*
X014862Y006537*
X014954Y006549*
X015039Y006584*
X015112Y00664*
X015168Y006713*
X015203Y006798*
X015215Y00689*
X015203Y006981*
X015168Y007066*
X015112Y007139*
X015039Y007195*
X014954Y007231*
X014862Y007243*
X014771Y007231*
X014686Y007195*
X014613Y007139*
X014593Y007113*
X014299*
Y007482*
X013685*
Y006441*
X012299*
Y006735*
X012333Y006818*
X012339Y006859*
X011646*
X011651Y006818*
X011685Y006735*
Y006444*
X008362*
X007318Y007488*
X007337Y007534*
X013882*
X01396Y00755*
X014026Y007594*
X018401Y011968*
X018498Y011956*
X018601Y011969*
X018697Y012009*
X018739Y012041*
X018789Y012017*
G37*
G36*
X007888Y015776D02*
X007883Y01576D01*
X007862Y015731*
X00777Y015743*
X007666Y01573*
X00757Y01569*
X007488Y015626*
X007424Y015544*
X007423Y01554*
X007388Y015533*
X007322Y015489*
X007278Y015423*
X007274Y015402*
X007216Y015344*
X007166Y015364*
X007155Y015448*
X007115Y015544*
X007052Y015626*
X006969Y01569*
X006873Y01573*
X00682Y015737*
Y015344*
X00677*
Y015294*
X006378*
X006385Y015241*
X006424Y015145*
X006459Y0151*
X006435Y01505*
X006396*
X006318Y015034*
X006252Y01499*
X005892Y01463*
X005848Y014564*
X005832Y014486*
Y011442*
X005805Y011436*
X005766Y01141*
X005716Y011437*
Y014468*
X0057Y014547*
X005656Y014613*
X005279Y01499*
X005213Y015034*
X005134Y01505*
X004469*
X004444Y0151*
X004479Y015145*
X004519Y015241*
X004533Y015344*
X004519Y015448*
X004479Y015544*
X004416Y015626*
X004333Y01569*
X004237Y01573*
X004134Y015743*
X004031Y01573*
X003935Y01569*
X003866Y015638*
X003858Y015636*
X003819Y015641*
X003805Y015647*
X003773Y015694*
X003483Y015984*
X003417Y016028*
X003339Y016044*
X001913*
X001878Y016037*
X001854Y016083*
X002083Y016312*
X007352*
X007888Y015776*
G37*
G36*
X008346Y011443D02*
X008383Y011418D01*
X008465Y011402*
X008538Y011417*
X008555Y011414*
X0086Y011394*
X008635Y011342*
X008701Y011297*
X00878Y011282*
X008858Y011297*
X008909Y011331*
X008954Y011303*
X008941Y01124*
X008957Y011159*
X008982Y011121*
X009Y011083*
X008982Y011044*
X008957Y011006*
X008941Y010925*
X008957Y010844*
X008982Y010806*
X009Y010768*
X008982Y010729*
X008957Y010692*
X008941Y01061*
X008957Y010529*
X009003Y01046*
Y010445*
X008957Y010377*
X008941Y010295*
X008957Y010214*
X008982Y010177*
X009Y010138*
X008982Y010099*
X008957Y010062*
X008941Y00998*
X008957Y009899*
X008982Y009862*
X009Y009823*
X008982Y009784*
X008957Y009747*
X008941Y009665*
X008957Y009584*
X008982Y009547*
X009Y009508*
X008982Y009469*
X008957Y009432*
X008941Y00935*
X008957Y009269*
X008982Y009232*
X009Y009193*
X008982Y009154*
X008957Y009117*
X008941Y009035*
X008957Y008954*
X009003Y008885*
X009072Y008839*
X009154Y008823*
X009235*
X009393Y008665*
X009459Y008621*
X009537Y008605*
X010375*
X010383Y008592*
X010355Y008542*
X008992*
Y008661*
X008976Y008743*
X00893Y008812*
X008861Y008858*
X00878Y008874*
X008698Y008858*
X008629Y008812*
X008615*
X008546Y008858*
X008503Y008866*
X008487Y00892*
X008695Y009128*
X008739Y009194*
X008754Y009272*
Y009645*
X008739Y009723*
X008695Y009789*
X008602Y009882*
X008605Y009932*
X008626Y009947*
X008682Y01002*
X008717Y010105*
X008729Y010197*
X008717Y010288*
X008682Y010373*
X008626Y010446*
X008552Y010503*
X008467Y010538*
X008376Y01055*
X008285Y010538*
X008199Y010503*
X008126Y010446*
X008091Y010401*
X007999*
X007931Y010387*
X007881Y010414*
Y01063*
X007903Y010652*
Y011024*
X007953*
Y011074*
X0083*
X008294Y011116*
X008259Y011201*
X008203Y011274*
X008157Y011309*
Y011375*
X008152Y011402*
X008231Y011418*
X008268Y011443*
X008307Y011461*
X008346Y011443*
G37*
G36*
X019465Y015799D02*
X019447Y015746D01*
X019395Y015739*
X019299Y0157*
X019216Y015636*
X019153Y015554*
X019113Y015458*
X019106Y015404*
X019498*
Y015354*
X019548*
Y014962*
X019601Y014969*
X019697Y015009*
X019742Y015044*
X019792Y015019*
Y01469*
X019742Y014665*
X019697Y0147*
X019601Y014739*
X019498Y014753*
X019395Y014739*
X019299Y0147*
X019216Y014636*
X019153Y014554*
X019113Y014458*
X019099Y014354*
X019113Y014251*
X019153Y014155*
X019216Y014072*
X019299Y014009*
X019395Y013969*
X019498Y013956*
X019601Y013969*
X019697Y014009*
X019742Y014044*
X019792Y014019*
Y01369*
X019742Y013665*
X019697Y0137*
X019601Y013739*
X019498Y013753*
X019395Y013739*
X019299Y0137*
X019216Y013636*
X019153Y013554*
X019113Y013458*
X019099Y013354*
X019113Y013251*
X019153Y013155*
X019216Y013072*
X019299Y013009*
X019395Y012969*
X019498Y012956*
X019601Y012969*
X019697Y013009*
X019742Y013044*
X019792Y013019*
Y01269*
X019742Y012665*
X019697Y0127*
X019601Y012739*
X019498Y012753*
X019395Y012739*
X019299Y0127*
X01925Y012662*
X0192Y012686*
X019185Y012764*
X01914Y01283*
X01897Y013*
X018904Y013044*
X018832Y013059*
X018821Y013076*
X018809Y01311*
X018843Y013155*
X018883Y013251*
X018897Y013354*
X018883Y013458*
X018843Y013554*
X01878Y013636*
X018697Y0137*
X018601Y013739*
X018498Y013753*
X018395Y013739*
X018299Y0137*
X018216Y013636*
X018153Y013554*
X018113Y013458*
X018099Y013354*
X018113Y013251*
X018153Y013155*
X018187Y01311*
X018163Y01306*
X016693*
X016669Y01311*
X016704Y013155*
X016743Y013251*
X016757Y013354*
X016743Y013458*
X016704Y013554*
X01664Y013636*
X016558Y0137*
X016461Y013739*
X016358Y013753*
X016255Y013739*
X016159Y0137*
X016076Y013636*
X016013Y013554*
X015973Y013458*
X01596Y013354*
X015973Y013251*
X016013Y013155*
X016048Y01311*
X016023Y01306*
X015941*
X015744Y013257*
X015757Y013354*
X015743Y013458*
X015704Y013554*
X01564Y013636*
X015558Y0137*
X015461Y013739*
X015358Y013753*
X015255Y013739*
X015159Y0137*
X015076Y013636*
X015013Y013554*
X014973Y013458*
X01496Y013354*
X014973Y013251*
X015013Y013155*
X015076Y013072*
X015159Y013009*
X015255Y012969*
X015358Y012956*
X015456Y012968*
X015713Y012712*
X015779Y012667*
X015857Y012652*
X016025*
X01605Y012602*
X016013Y012554*
X015973Y012458*
X01596Y012354*
X015973Y012251*
X016013Y012155*
X016076Y012072*
X016159Y012009*
X016255Y011969*
X016358Y011956*
X016461Y011969*
X016558Y012009*
X01664Y012072*
X016704Y012155*
X016743Y012251*
X016757Y012354*
X016743Y012458*
X016704Y012554*
X016667Y012602*
X016691Y012652*
X018165*
X01819Y012602*
X018153Y012554*
X018113Y012458*
X018099Y012354*
X018112Y012257*
X01479Y008935*
X014738Y008953*
X014736Y008975*
X015502Y009742*
X015547Y009808*
X015562Y009886*
Y012013*
X01564Y012072*
X015704Y012155*
X015743Y012251*
X015757Y012354*
X015743Y012458*
X015704Y012554*
X01564Y012636*
X015558Y0127*
X015461Y012739*
X015358Y012753*
X015255Y012739*
X015159Y0127*
X015076Y012636*
X015013Y012554*
X014973Y012458*
X01496Y012354*
X014973Y012251*
X015013Y012155*
X015076Y012072*
X015154Y012013*
Y00997*
X014474Y00929*
X014457Y009298*
X014365Y00931*
X014274Y009298*
X014189Y009262*
X014116Y009206*
X014059Y009133*
X014024Y009048*
X014012Y008957*
X014024Y008865*
X014059Y00878*
X014116Y008707*
X014189Y008651*
X014274Y008616*
X014365Y008604*
X014392Y008607*
X014415Y00856*
X013797Y007942*
X012491*
X012471Y007988*
X014Y009517*
X014045Y009584*
X01406Y009662*
Y014844*
X014045Y014923*
X014Y014989*
X013742Y015247*
X013755Y015344*
X013741Y015448*
X013702Y015544*
X013662Y015596*
X013686Y015646*
X014963*
Y014959*
X015754*
Y015646*
X016021*
X016045Y015596*
X016013Y015554*
X015973Y015458*
X015966Y015404*
X016358*
X01675*
X016743Y015458*
X016704Y015554*
X016671Y015596*
X016696Y015646*
X016918*
X018112Y014452*
X018099Y014354*
X018113Y014251*
X018153Y014155*
X018216Y014072*
X018299Y014009*
X018395Y013969*
X018498Y013956*
X018601Y013969*
X018697Y014009*
X01878Y014072*
X018843Y014155*
X018883Y014251*
X018897Y014354*
X018883Y014458*
X018843Y014554*
X01878Y014636*
X018697Y0147*
X018601Y014739*
X018498Y014753*
X018401Y01474*
X018228Y014913*
X018247Y014959*
X018893*
Y01575*
X018391*
X017941Y016199*
X01796Y016246*
X019019*
X019465Y015799*
G37*
G36*
X013043Y015586D02*
X013011Y015544D01*
X012971Y015448*
X012958Y015344*
X012971Y015241*
X013011Y015145*
X013074Y015063*
X013157Y014999*
X013253Y014959*
X013356Y014946*
X013454Y014959*
X013652Y01476*
Y014679*
X013602Y014654*
X013556Y01469*
X013459Y01473*
X013356Y014743*
X013253Y01473*
X013157Y01469*
X013074Y014626*
X013015Y014548*
X013006*
X012928Y014533*
X012862Y014489*
X012791Y014417*
X012743Y014433*
X012741Y014448*
X012702Y014544*
X012638Y014626*
X012556Y01469*
X012459Y01473*
X012356Y014743*
X012253Y01473*
X012157Y01469*
X012074Y014626*
X012011Y014544*
X011971Y014448*
X011958Y014344*
X011971Y014241*
X012011Y014145*
X012074Y014063*
X012157Y013999*
X012253Y013959*
X012356Y013946*
X012459Y013959*
X012556Y013999*
X012602Y014035*
X012652Y01401*
Y013679*
X012602Y013654*
X012556Y01369*
X012459Y01373*
X012356Y013743*
X012253Y01373*
X012157Y01369*
X012074Y013626*
X012011Y013544*
X011971Y013448*
X011958Y013344*
X011971Y013241*
X012011Y013145*
X012074Y013063*
X012157Y012999*
X012253Y012959*
X012356Y012946*
X012459Y012959*
X012556Y012999*
X012602Y013035*
X012652Y01301*
Y012679*
X012602Y012654*
X012556Y01269*
X012459Y01273*
X012406Y012737*
Y012344*
Y011952*
X012459Y011959*
X012556Y011999*
X012602Y012035*
X012652Y01201*
Y009893*
X012602Y009876*
X012572Y009915*
X012499Y009971*
X012414Y010006*
X012323Y010018*
X012231Y010006*
X012146Y009971*
X012073Y009915*
X012038Y009869*
X011033*
X011014Y009915*
X01164Y010542*
X011685Y010608*
X0117Y010686*
Y015152*
X011914Y015366*
X011932Y015357*
X011958Y015339*
X011971Y015241*
X012011Y015145*
X012074Y015063*
X012157Y014999*
X012253Y014959*
X012356Y014946*
X012459Y014959*
X012556Y014999*
X012638Y015063*
X012702Y015145*
X012741Y015241*
X012755Y015344*
X012741Y015448*
X012702Y015544*
X012669Y015586*
X012694Y015636*
X013019*
X013043Y015586*
G37*
G36*
X006374Y01447D02*
Y014167D01*
X006371Y01415*
Y011971*
X006362Y011929*
Y011614*
X006379Y011533*
X006425Y011464*
X006494Y011418*
X006575Y011402*
X006656Y011418*
X006694Y011443*
X006732Y011461*
X006771Y011443*
X006809Y011418*
X00689Y011402*
X006971Y011418*
X00704Y011464*
X007055*
X007123Y011418*
X007205Y011402*
X007266Y011414*
X007316Y011382*
Y01129*
X007315Y011289*
X007299Y011211*
Y010838*
X007315Y01076*
X007359Y010694*
X00744Y010613*
X007438Y010601*
X007384Y010579*
X007381Y010581*
X007296Y010617*
X007255Y010622*
Y010276*
Y009929*
X007296Y009935*
X007381Y00997*
X007423Y010002*
X007473Y00998*
X007489Y009902*
X007533Y009836*
X007777Y009592*
X007759Y00955*
X007747Y009459*
X007757Y009384*
X007375Y009002*
X007331Y008936*
X007323Y008893*
X007315Y008885*
X007268Y008861*
X007267*
X007255Y008864*
Y008504*
X007155*
Y008864*
X007123Y008858*
X007055Y008812*
X00704*
X006971Y008858*
X006917Y008868*
X006918Y008919*
X006932Y008921*
X007017Y008956*
X00709Y009012*
X007146Y009085*
X007182Y00917*
X007194Y009262*
X007182Y009353*
X007146Y009438*
X00709Y009511*
X007044Y009547*
X007029Y009624*
X006985Y009691*
X006788Y009887*
X006722Y009932*
X006644Y009947*
X006566Y009932*
X0065Y009887*
X006481Y009869*
X006433*
X006401Y009919*
X006413Y00998*
X006397Y010062*
X006351Y01013*
Y010145*
X006397Y010214*
X006413Y010295*
X006397Y010377*
X006351Y010445*
Y01046*
X006397Y010529*
X006413Y01061*
X006401Y010671*
X006433Y010721*
X006522*
X006557Y010676*
X00663Y010619*
X006715Y010584*
X006806Y010572*
X006898Y010584*
X006983Y010619*
X007056Y010676*
X007112Y010749*
X007147Y010834*
X007159Y010925*
X007147Y011017*
X007112Y011102*
X007056Y011175*
X006983Y011231*
X006898Y011266*
X006806Y011278*
X006715Y011266*
X00663Y011231*
X006557Y011175*
X006522Y011129*
X006433*
X006401Y011179*
X006413Y01124*
X006397Y011321*
X006351Y01139*
X006282Y011436*
X00624Y011445*
Y014401*
X006328Y014489*
X006374Y01447*
G37*
%LNpcb1-4*%
%LPC*%
G36*
X012299Y007482D02*
X012042D01*
Y006959*
X012339*
X012333Y007001*
X012299Y007084*
Y007482*
G37*
G36*
X011942D02*
X011685D01*
Y007084*
X011651Y007001*
X011646Y006959*
X011942*
Y007482*
G37*
G36*
X00672Y015737D02*
X006666Y01573D01*
X00657Y01569*
X006488Y015626*
X006424Y015544*
X006385Y015448*
X006378Y015394*
X00672*
Y015737*
G37*
G36*
X0083Y010974D02*
X008003D01*
Y010678*
X008045Y010683*
X00813Y010718*
X008203Y010775*
X008259Y010848*
X008294Y010933*
X0083Y010974*
G37*
G36*
X016308Y015304D02*
X015966D01*
X015973Y015251*
X016013Y015155*
X016076Y015072*
X016159Y015009*
X016255Y014969*
X016308Y014962*
Y015304*
G37*
G36*
X019448D02*
X019106D01*
X019113Y015251*
X019153Y015155*
X019216Y015072*
X019299Y015009*
X019395Y014969*
X019448Y014962*
Y015304*
G37*
G36*
X01675D02*
X016408D01*
Y014962*
X016461Y014969*
X016558Y015009*
X01664Y015072*
X016704Y015155*
X016743Y015251*
X01675Y015304*
G37*
G36*
X015358Y014753D02*
X015255Y014739D01*
X015159Y0147*
X015076Y014636*
X015013Y014554*
X014973Y014458*
X01496Y014354*
X014973Y014251*
X015013Y014155*
X015076Y014072*
X015159Y014009*
X015255Y013969*
X015358Y013956*
X015461Y013969*
X015558Y014009*
X01564Y014072*
X015704Y014155*
X015743Y014251*
X015757Y014354*
X015743Y014458*
X015704Y014554*
X01564Y014636*
X015558Y0147*
X015461Y014739*
X015358Y014753*
G37*
G36*
X016358D02*
X016255Y014739D01*
X016159Y0147*
X016076Y014636*
X016013Y014554*
X015973Y014458*
X01596Y014354*
X015973Y014251*
X016013Y014155*
X016076Y014072*
X016159Y014009*
X016255Y013969*
X016358Y013956*
X016461Y013969*
X016558Y014009*
X01664Y014072*
X016704Y014155*
X016743Y014251*
X016757Y014354*
X016743Y014458*
X016704Y014554*
X01664Y014636*
X016558Y0147*
X016461Y014739*
X016358Y014753*
G37*
G36*
X012306Y012294D02*
X011964D01*
X011971Y012241*
X012011Y012145*
X012074Y012063*
X012157Y011999*
X012253Y011959*
X012306Y011952*
Y012294*
G37*
G36*
Y012737D02*
X012253Y01273D01*
X012157Y01269*
X012074Y012626*
X012011Y012544*
X011971Y012448*
X011964Y012394*
X012306*
Y012737*
G37*
G36*
X007155Y010226D02*
X006858D01*
X006864Y010184*
X006899Y010099*
X006955Y010026*
X007028Y00997*
X007113Y009935*
X007155Y009929*
Y010226*
G37*
G36*
Y010622D02*
X007113Y010617D01*
X007028Y010581*
X006955Y010525*
X006899Y010452*
X006864Y010367*
X006858Y010326*
X007155*
Y010622*
G37*
%LNpcb1-5*%
%LPD*%
G54D10*
X001772Y004724D03*
Y004134D03*
Y007185D03*
Y006594D03*
Y009449D03*
Y010039D03*
X007677Y005709D03*
Y005118D03*
G54D11*
X01752Y002362D03*
Y005315D03*
X02185Y002362D03*
Y005315D03*
G54D12*
X003681Y007185D03*
X004587Y007559D03*
Y006811D03*
G54D13*
X013992Y006909D03*
X011992D03*
G54D14*
X012992Y002835D03*
G54D15*
X007087Y003445D03*
X007677D03*
X005709D03*
X005118D03*
X003051D03*
X002461D03*
X009547Y004823D03*
X010138D03*
G54D16*
X006496Y005728D03*
Y005098D03*
G54D17*
X020177Y008169D03*
X018602D03*
G54D18*
X00878Y011772D03*
X008465D03*
X00815D03*
X007835D03*
X00752D03*
X007205D03*
X00689D03*
X006575D03*
Y008504D03*
X00689D03*
X007205D03*
X00752D03*
X007835D03*
X00815D03*
X008465D03*
X00878D03*
G54D19*
X006043Y01124D03*
Y010925D03*
Y01061D03*
Y010295D03*
Y00998D03*
Y009665D03*
Y00935D03*
Y009035D03*
X009311D03*
Y00935D03*
Y009665D03*
Y00998D03*
Y010295D03*
Y01061D03*
Y010925D03*
Y01124D03*
G54D20*
X003937Y005138D03*
Y005689D03*
X004921Y005138D03*
Y005689D03*
G54D21*
X010177Y003878D03*
X00872D03*
X010177Y001437D03*
X00872D03*
G54D22*
X00878Y008338D02*
X012109D01*
X012856Y009086*
X012233Y008038D02*
X013856Y009662D01*
X008606Y008038D02*
X012233D01*
X006896Y008045D02*
Y008504D01*
X013882Y007738D02*
X018498Y012354D01*
X007204Y007738D02*
X013882D01*
X006581Y007936D02*
Y008504D01*
X008277Y00624D02*
X011699D01*
X011703Y006237*
X015311*
X018993Y011161D02*
Y012487D01*
Y011161D02*
X01922Y010934D01*
Y010562D02*
Y010934D01*
X018993Y010335D02*
X01922Y010562D01*
X018993Y00992D02*
Y010335D01*
X015311Y006237D02*
X018993Y00992D01*
X006581Y007936D02*
X008277Y00624D01*
X010177Y003878D02*
Y004823D01*
X019996Y010498D02*
Y015556D01*
X014294Y004796D02*
X019996Y010498D01*
X010204Y004796D02*
X014294D01*
X02122Y014436D02*
Y016604D01*
X002362Y004421D02*
X00363Y005689D01*
X020276Y010138D02*
X020296Y010159D01*
X010875Y01645D02*
X019103D01*
X019996Y015556*
X017003Y01585D02*
X018498Y014354D01*
X013572Y01585D02*
X017003D01*
X013562Y01584D02*
X013572Y01585D01*
X00877Y014344D02*
X010875Y01645D01*
X017703Y01615D02*
X018498Y015354D01*
X010728D02*
X011524Y01615D01*
X017703*
X011496Y010686D02*
Y015236D01*
X0121Y01584*
X010728Y013878D02*
Y015354D01*
X006575Y01415D02*
X00677Y014344D01*
X005157Y010295D02*
X006043D01*
X004851Y010602D02*
X005157Y010295D01*
X004851Y010602D02*
Y010728D01*
X0Y009957D02*
X000083Y010039D01*
X005512Y0108D02*
Y014468D01*
Y0108D02*
X005702Y01061D01*
X005134Y014846D02*
X005512Y014468D01*
X004587Y008531D02*
X005406Y00935D01*
X004587Y007559D02*
Y008531D01*
X010236Y011536D02*
Y013136D01*
X00877Y014344D02*
X009028D01*
X010236Y013136*
X009055Y013287D02*
X009449D01*
X009626Y010925D02*
X010236Y011536D01*
X009252Y01124D02*
X009311D01*
X007677Y0125D02*
D01*
X007154D02*
X007677D01*
X00689Y012236D02*
X007154Y0125D01*
X00878Y013012D02*
X009055Y013287D01*
X008465Y011772D02*
Y013286D01*
X008266Y013484D02*
X008465Y013286D01*
X008266Y013484D02*
Y015686D01*
X00878Y011772D02*
Y013012D01*
X014365Y008957D02*
X014429D01*
X008465Y00818D02*
X008606Y008038D01*
X014429Y008957D02*
X015358Y009886D01*
X0Y003248D02*
Y003335D01*
X002362Y004114D02*
Y004421D01*
X001559Y003311D02*
X002362Y004114D01*
X001559Y001476D02*
Y003311D01*
X00363Y005689D02*
X003937D01*
X005074Y005728D02*
X005113Y005689D01*
X005074Y005728D02*
X006496D01*
Y005098D02*
X006516Y005118D01*
X007677*
X003636Y007876D02*
X004276Y007236D01*
X003134Y008563D02*
Y014344D01*
X001772Y009094D02*
X003681Y007185D01*
X001772Y009094D02*
Y009449D01*
X005702Y01061D02*
X006043D01*
X003935Y014846D02*
X005134D01*
X003639Y01455D02*
X003935Y014846D01*
X003639Y01417D02*
Y01455D01*
X003636Y014168D02*
X003639Y01417D01*
X003636Y007876D02*
Y014168D01*
X004134Y010335D02*
Y014344D01*
Y010335D02*
X004488Y00998D01*
X006043*
X010177Y004823D02*
X010204Y004796D01*
X007677Y001476D02*
Y003445D01*
X005118Y001476D02*
Y003445D01*
X002461Y001575D02*
Y003445D01*
Y001575D02*
X002559Y001476D01*
X0Y002362D02*
X001772Y004134D01*
X0Y002248D02*
Y002362D01*
Y006594D02*
X001772D01*
Y004724D02*
Y005276D01*
X003681Y007185*
X001772D02*
X003681D01*
X02285Y007382D02*
Y009744D01*
X003937Y005689D02*
X004921D01*
X006575Y011772D02*
Y01415D01*
X000083Y010039D02*
X001772D01*
X012856Y014194D02*
X013006Y014344D01*
X013356*
X009311Y010925D02*
X009626D01*
X006036Y01124D02*
X006043D01*
X006036Y014486D02*
X006396Y014846D01*
X007006*
X007466Y015306*
Y015344D02*
X00777D01*
X006043Y009665D02*
X006566D01*
X00878Y011486D02*
Y011772D01*
X005406Y00935D02*
X006043D01*
X007276Y005709D02*
X007677D01*
X005749Y007236D02*
X007276Y005709D01*
X004276Y007236D02*
X005749D01*
X015358Y013354D02*
X015857Y012856D01*
X018826*
X018996Y012686*
X009269Y002835D02*
X012992D01*
X00872Y002286D02*
X009269Y002835D01*
X00872Y001437D02*
Y002286D01*
X02285Y009744D02*
X023346Y01024D01*
Y013854*
X02285Y01435D02*
X023346Y013854D01*
X015358Y009886D02*
Y012354D01*
X006026Y009035D02*
X006043D01*
X008465Y00818D02*
Y008504D01*
X013356Y015344D02*
X013856Y014844D01*
X00689Y011772D02*
Y012236D01*
X010251Y01061D02*
X010726Y011086D01*
X009311Y01061D02*
X010251D01*
X009311Y00998D02*
X010791D01*
X011496Y010686*
X0121Y01584D02*
X013562D01*
X004921Y005689D02*
X005113D01*
X013992Y006909D02*
X014843D01*
X014862Y00689*
X022355Y006887D02*
X02285Y007382D01*
X01752Y002362D02*
Y002854D01*
X021552Y006887*
X02185Y002362D02*
Y002854D01*
X02285Y003854*
Y007382*
X020177Y008169D02*
X02146Y006887D01*
X021552*
X022355*
X020296Y010159D02*
Y011796D01*
X02185Y01335*
X006036Y01124D02*
Y014486D01*
X007466Y015306D02*
Y015344D01*
X009252Y01124D02*
Y011713D01*
X009304Y009042D02*
X009311Y009035D01*
X00878Y008338D02*
Y008504D01*
X012856Y009086D02*
Y014194D01*
X00877Y015344D02*
Y015817D01*
X006566Y009665D02*
X006644Y009743D01*
X00689Y008504D02*
X006896D01*
Y008045D02*
X007204Y007738D01*
X006575Y008504D02*
X006581D01*
X018993Y012487D02*
X018996Y01249D01*
Y012686*
X006043Y010925D02*
X006806D01*
X00877Y015817D02*
X009341Y016388D01*
X009311Y009035D02*
X009537Y008809D01*
X010699*
X009311Y009665D02*
X012323D01*
X011344Y009355D02*
X011516Y009183D01*
X013856Y009662D02*
Y014844D01*
X007953Y011024D02*
Y011375D01*
X007841Y011486D02*
X007953Y011375D01*
X007841Y011486D02*
Y011765D01*
X007835Y011772D02*
X007841Y011765D01*
X00752Y011227D02*
Y011772D01*
Y008504D02*
Y008858D01*
X00815Y008504D02*
Y008947D01*
X008225*
X00855Y009272*
Y009645*
X006841Y009262D02*
Y009546D01*
X006644Y009743D02*
X006841Y009546D01*
X007999Y010197D02*
X008376D01*
X007999D02*
X00855Y009645D01*
X007677Y00998D02*
Y010664D01*
X007503Y010838D02*
X007677Y010664D01*
X007503Y010838D02*
Y011211D01*
X00752Y011227*
X007436Y016516D02*
X008266Y015686D01*
X0Y014344D02*
Y014518D01*
X001998Y016516*
X007436*
X003629Y015344D02*
X004134D01*
X003629D02*
Y01555D01*
X003339Y01584D02*
X003629Y01555D01*
X001913Y01584D02*
X003339D01*
X001073Y015D02*
X001913Y01584D01*
X001073Y013484D02*
Y015D01*
X006026Y008036D02*
Y009035D01*
X010726Y011086D02*
Y013878D01*
X009311Y009355D02*
X011344D01*
X00752Y008858D02*
X00811Y009449D01*
X007677Y00998D02*
X008159Y009498D01*
X00811Y009449D02*
X008159Y009498D01*
X009341Y016388D02*
X00936D01*
X021076Y014291D02*
X02122Y014436D01*
G54D23*
X006677Y001476D03*
X004118D03*
X001559D03*
X0Y003248D03*
Y005594D03*
Y008957D03*
X00877Y015344D03*
Y014344D03*
X00777Y015344D03*
Y014344D03*
X00677Y015344D03*
X012356Y012344D03*
X013356Y013344D03*
X012356D03*
X013356Y014344D03*
X012356D03*
X013356Y015344D03*
X012356D03*
X016358Y015354D03*
X015358Y014354D03*
X016358D03*
X015358Y013354D03*
X016358D03*
X015358Y012354D03*
X016358D03*
X019498Y015354D03*
X018498Y014354D03*
X019498D03*
X018498Y013354D03*
X019498D03*
X018498Y012354D03*
X019498D03*
X02285Y01535D03*
X02185Y01435D03*
X02285D03*
X02185Y01335D03*
X02285D03*
X02185Y01235D03*
X02285D03*
X004134Y015344D03*
Y014344D03*
X003134Y015344D03*
Y014344D03*
X002134Y015344D03*
X0Y013344D03*
Y014344D03*
Y015344D03*
X02185Y007382D03*
Y009744D03*
G54D24*
X007677Y001476D03*
X005118D03*
X002559D03*
X00677Y014344D03*
X002134D03*
X02285Y007382D03*
Y009744D03*
G54D25*
X0Y002248D03*
Y006594D03*
Y009957D03*
X013356Y012344D03*
X015358Y015354D03*
X018498D03*
X02185Y01535D03*
X0Y012344D03*
G54D26*
X021024Y010748D03*
X021152Y014291D03*
X02122Y016604D03*
X008415Y016467D03*
X020276Y010138D03*
X010728Y013878D03*
X009449Y013287D03*
X009252Y011713D03*
X007677Y0125D03*
X014365Y008957D03*
X003134Y008563D03*
X004851Y010728D03*
X006026Y008036D03*
X01752Y005315D03*
X02185D03*
X014862Y00689D03*
X012323Y009665D03*
X004852Y013259D03*
X02063Y015354D03*
X006806Y010925D03*
X007953Y011024D03*
X00936Y016467D03*
X010699Y008809D03*
X011516Y009183D03*
X0081Y009459D03*
X006841Y009262D03*
X008376Y010197D03*
X007205Y010276D03*
X001073Y013259D03*
X011992Y006909D03*
X011995Y005531D03*
G54D27*
X012992Y002953D03*
G54D28*
X0Y0D03*
X023622D03*
Y017717D03*
X0D03*
M02*