%FSDAX24Y24*%
%MOIN*%
%SFA1B1*%

%IPPOS*%
%ADD10R,0.035400X0.027600*%
%ADD11R,0.039400X0.037400*%
%ADD12C,0.010000*%
%ADD13C,0.020000*%
%ADD14R,0.066500X0.066500*%
%ADD15C,0.066500*%
%ADD16C,0.189000*%
%ADD17C,0.059100*%
%ADD18R,0.059100X0.059100*%
%ADD19R,0.059100X0.059100*%
%ADD20C,0.196900*%
%ADD22C,0.005000*%
%ADD34C,0.040000*%
%ADD35C,0.080000*%
%LNdistro_layout-1*%
%LPD*%
G54D22*
X008737Y020808D02*
X008972Y020761D01*
X009198Y020684*
X009411Y020579*
X009610Y020447*
X009789Y020289*
X009947Y020110*
X010079Y019911*
X010184Y019698*
X010261Y019472*
X010308Y019237*
X010322Y019007*
X010322Y019001*
Y-000001*
X010322Y-000007*
X010308Y-000237*
X010261Y-000472*
X010184Y-000698*
X010079Y-000911*
X009947Y-001110*
X009789Y-001289*
X009610Y-001447*
X009411Y-001579*
X009198Y-001684*
X008972Y-001761*
X008737Y-001808*
X008507Y-001822*
X008501Y-001822*
X-000001*
X-000007Y-001822*
X-000237Y-001808*
X-000472Y-001761*
X-000698Y-001684*
X-000911Y-001579*
X-001110Y-001447*
X-001289Y-001289*
X-001447Y-001110*
X-001579Y-000911*
X-001684Y-000698*
X-001761Y-000472*
X-001808Y-000237*
X-001822Y-000007*
X-001822Y-000001*
Y019001*
X-001822Y019007*
X-001808Y019237*
X-001761Y019472*
X-001684Y019698*
X-001579Y019911*
X-001447Y020110*
X-001289Y020289*
X-001110Y020447*
X-000911Y020579*
X-000698Y020684*
X-000472Y020761*
X-000237Y020808*
X-000007Y020822*
X-000001Y020822*
X008501*
X008507Y020822*
X008737Y020808*
G54D12*
X008731Y020758D02*
X008959Y020713D01*
X009179Y020638*
X009386Y020535*
X009580Y020407*
X009753Y020253*
X009907Y020080*
X010035Y019886*
X010138Y019679*
X010213Y019459*
X010258Y019231*
X010272Y019009*
X010272Y019005*
Y-000005*
X010272Y-000009*
X010258Y-000231*
X010213Y-000459*
X010138Y-000679*
X010035Y-000886*
X009907Y-001080*
X009753Y-001253*
X009580Y-001407*
X009386Y-001535*
X009179Y-001638*
X008959Y-001713*
X008731Y-001758*
X008509Y-001772*
X008505Y-001772*
X-000005*
X-000009Y-001772*
X-000231Y-001758*
X-000459Y-001713*
X-000679Y-001638*
X-000886Y-001535*
X-001080Y-001407*
X-001253Y-001253*
X-001407Y-001080*
X-001535Y-000886*
X-001638Y-000679*
X-001713Y-000459*
X-001758Y-000231*
X-001772Y-000009*
X-001772Y-000005*
Y019005*
X-001772Y019009*
X-001758Y019231*
X-001713Y019459*
X-001638Y019679*
X-001535Y019886*
X-001407Y020080*
X-001253Y020253*
X-001080Y020407*
X-000886Y020535*
X-000679Y020638*
X-000459Y020713*
X-000231Y020758*
X-000009Y020772*
X-000005Y020772*
X008505*
X008509Y020772*
X008731Y020758*
G54D13*
X008718Y020659D02*
X008933Y020616D01*
X009140Y020546*
X009336Y020449*
X009519Y020327*
X009683Y020183*
X009827Y020019*
X009949Y019836*
X010046Y019640*
X010116Y019433*
X010159Y019218*
X010172Y019013*
X010172Y019012*
Y-000012*
X010172Y-000013*
X010159Y-000218*
X010116Y-000433*
X010046Y-000640*
X009949Y-000836*
X009827Y-001019*
X009683Y-001183*
X009519Y-001327*
X009336Y-001449*
X009140Y-001546*
X008933Y-001616*
X008718Y-001659*
X008513Y-001672*
X008512Y-001672*
X-000012*
X-000013Y-001672*
X-000218Y-001659*
X-000433Y-001616*
X-000640Y-001546*
X-000836Y-001449*
X-001019Y-001327*
X-001183Y-001183*
X-001327Y-001019*
X-001449Y-000836*
X-001546Y-000640*
X-001616Y-000433*
X-001659Y-000218*
X-001672Y-000013*
X-001672Y-000012*
Y019012*
X-001672Y019013*
X-001659Y019218*
X-001616Y019433*
X-001546Y019640*
X-001449Y019836*
X-001327Y020019*
X-001183Y020183*
X-001019Y020327*
X-000836Y020449*
X-000640Y020546*
X-000433Y020616*
X-000218Y020659*
X-000013Y020672*
X-000012Y020672*
X008512*
X008513Y020672*
X008718Y020659*
G54D34*
X008692Y020460D02*
X008881Y020422D01*
X009063Y020360*
X009236Y020275*
X009397Y020168*
X009541Y020041*
X009668Y019897*
X009775Y019736*
X009860Y019563*
X009922Y019381*
X009960Y019192*
X009971Y019020*
X009972Y019025*
Y-000025*
X009971Y-000020*
X009960Y-000192*
X009922Y-000381*
X009860Y-000563*
X009775Y-000736*
X009668Y-000897*
X009541Y-001041*
X009397Y-001168*
X009236Y-001275*
X009063Y-001360*
X008881Y-001422*
X008692Y-001460*
X008520Y-001471*
X008525Y-001472*
X-000025*
X-000020Y-001471*
X-000192Y-001460*
X-000381Y-001422*
X-000563Y-001360*
X-000736Y-001275*
X-000897Y-001168*
X-001041Y-001041*
X-001168Y-000897*
X-001275Y-000736*
X-001360Y-000563*
X-001422Y-000381*
X-001460Y-000192*
X-001471Y-000020*
X-001472Y-000025*
Y019025*
X-001471Y019020*
X-001460Y019192*
X-001422Y019381*
X-001360Y019563*
X-001275Y019736*
X-001168Y019897*
X-001041Y020041*
X-000897Y020168*
X-000736Y020275*
X-000563Y020360*
X-000381Y020422*
X-000192Y020460*
X-000020Y020471*
X-000025Y020472*
X008525*
X008520Y020471*
X008692Y020460*
G54D35*
X008640Y020062D02*
X008778Y020035D01*
X008909Y019990*
X009036Y019928*
X009152Y019850*
X009257Y019757*
X009350Y019652*
X009428Y019536*
X009490Y019409*
X009535Y019278*
X009562Y019140*
X009827Y015011*
X009572Y013139*
Y005860*
X009827Y003988*
X009562Y-000140*
X009535Y-000278*
X009490Y-000409*
X009428Y-000536*
X009350Y-000652*
X009257Y-000757*
X009152Y-000850*
X009036Y-000928*
X008909Y-000990*
X008778Y-001035*
X008640Y-001062*
X004511Y-001327*
X002639Y-001072*
X005860*
X003988Y-001327*
X-000140Y-001062*
X-000278Y-001035*
X-000409Y-000990*
X-000536Y-000928*
X-000652Y-000850*
X-000757Y-000757*
X-000850Y-000652*
X-000928Y-000536*
X-000990Y-000409*
X-001035Y-000278*
X-001062Y-000140*
X-001327Y003988*
X-001072Y005860*
Y013139*
X-001327Y015011*
X-001062Y019140*
X-001035Y019278*
X-000990Y019409*
X-000928Y019536*
X-000850Y019652*
X-000757Y019757*
X-000652Y019850*
X-000536Y019928*
X-000409Y019990*
X-000278Y020035*
X-000140Y020062*
X003988Y020327*
X005860Y020072*
X002639*
X004511Y020327*
X008640Y020062*
X-000930Y-000510D02*
Y019480D01*
X-000130Y-000910D02*
Y019880D01*
X000670Y-000910D02*
Y020080D01*
X001470Y-001110D02*
Y020080D01*
X002270Y-001110D02*
Y020080D01*
X003070Y-001110D02*
Y020080D01*
X003870Y-001310D02*
Y020330D01*
X004670Y-001110D02*
Y020330D01*
X005470Y-001110D02*
Y020080D01*
X006270Y-001110D02*
Y020080D01*
X007070Y-001110D02*
Y020080D01*
X007870Y-000910D02*
Y020080D01*
X008670Y-000910D02*
Y019880D01*
X009470Y-000310D02*
Y019280D01*
%LNdistro_layout-2*%
%LPC*%
G36*
X000559Y010758D02*
X000456Y010745D01*
X000360Y010705*
X000277Y010642*
X000214Y010559*
X000174Y010463*
X000160Y010360*
X000174Y010257*
X000214Y010160*
X000277Y010078*
X000360Y010014*
X000456Y009975*
X000559Y009961*
X000662Y009975*
X000758Y010014*
X000841Y010078*
X000904Y010160*
X000944Y010257*
X000958Y010360*
X000944Y010463*
X000904Y010559*
X000841Y010642*
X000758Y010705*
X000662Y010745*
X000559Y010758*
G37*
G36*
Y011758D02*
X000456Y011745D01*
X000360Y011705*
X000277Y011642*
X000214Y011559*
X000174Y011463*
X000160Y011360*
X000174Y011257*
X000214Y011160*
X000277Y011078*
X000360Y011014*
X000456Y010975*
X000559Y010961*
X000662Y010975*
X000758Y011014*
X000841Y011078*
X000904Y011160*
X000944Y011257*
X000958Y011360*
X000944Y011463*
X000904Y011559*
X000841Y011642*
X000758Y011705*
X000662Y011745*
X000559Y011758*
G37*
G36*
Y009758D02*
X000456Y009745D01*
X000360Y009705*
X000277Y009642*
X000214Y009559*
X000174Y009463*
X000160Y009360*
X000174Y009257*
X000214Y009160*
X000277Y009078*
X000360Y009014*
X000456Y008975*
X000559Y008961*
X000662Y008975*
X000758Y009014*
X000841Y009078*
X000904Y009160*
X000944Y009257*
X000958Y009360*
X000944Y009463*
X000904Y009559*
X000841Y009642*
X000758Y009705*
X000662Y009745*
X000559Y009758*
G37*
G36*
X006781Y009886D02*
X006668Y009872D01*
X006563Y009828*
X006473Y009759*
X006403Y009668*
X006360Y009563*
X006345Y009450*
X006360Y009337*
X006403Y009232*
X006473Y009141*
X006563Y009072*
X006668Y009028*
X006781Y009014*
X006894Y009028*
X006999Y009072*
X007090Y009141*
X007159Y009232*
X007203Y009337*
X007218Y009450*
X007203Y009563*
X007159Y009668*
X007090Y009759*
X006999Y009828*
X006894Y009872*
X006781Y009886*
G37*
G36*
X000559Y012758D02*
X000456Y012745D01*
X000360Y012705*
X000277Y012642*
X000214Y012559*
X000174Y012463*
X000160Y012360*
X000174Y012257*
X000214Y012160*
X000277Y012078*
X000360Y012014*
X000456Y011975*
X000559Y011961*
X000662Y011975*
X000758Y012014*
X000841Y012078*
X000904Y012160*
X000944Y012257*
X000958Y012360*
X000944Y012463*
X000904Y012559*
X000841Y012642*
X000758Y012705*
X000662Y012745*
X000559Y012758*
G37*
G36*
X007949Y012606D02*
Y012226D01*
X008329*
X008321Y012289*
X008277Y012395*
X008208Y012485*
X008117Y012554*
X008012Y012598*
X007949Y012606*
G37*
G36*
X003000Y018402D02*
X002897Y018388D01*
X002801Y018348*
X002718Y018285*
X002655Y018202*
X002615Y018106*
X002601Y018003*
X002615Y017900*
X002655Y017804*
X002718Y017721*
X002801Y017658*
X002847Y017638*
Y015412*
X002859Y015354*
X002892Y015304*
X006387Y011809*
X006360Y011744*
X006352Y011685*
X006299Y011667*
X002238Y015728*
X002189Y015761*
X002130Y015773*
X000954*
Y016015*
X000164*
Y015297*
X000117Y015278*
X-000075Y015470*
X-000056Y015517*
X-000042Y015620*
X-000056Y015723*
X-000096Y015819*
X-000159Y015902*
X-000242Y015965*
X-000338Y016005*
X-000441Y016018*
X-000544Y016005*
X-000640Y015965*
X-000723Y015902*
X-000786Y015819*
X-000826Y015723*
X-000840Y015620*
X-000826Y015517*
X-000786Y015420*
X-000723Y015338*
X-000640Y015275*
X-000544Y015235*
X-000441Y015221*
X-000338Y015235*
X-000291Y015254*
X000271Y014692*
X000320Y014659*
X000379Y014647*
X002458*
X006387Y010719*
X006360Y010654*
X006345Y010541*
X006360Y010428*
X006403Y010322*
X006473Y010232*
X006563Y010163*
X006668Y010119*
X006781Y010104*
X006894Y010119*
X006999Y010163*
X007090Y010232*
X007159Y010322*
X007203Y010428*
X007218Y010541*
X007209Y010604*
X007257Y010627*
X007586Y010298*
X007521Y010213*
X007478Y010108*
X007463Y009995*
X007478Y009882*
X007521Y009777*
X007591Y009687*
X007681Y009617*
X007786Y009574*
X007899Y009559*
X008012Y009574*
X008117Y009617*
X008208Y009687*
X008277Y009777*
X008321Y009882*
X008336Y009995*
X008321Y010108*
X008277Y010213*
X008208Y010304*
X008117Y010373*
X008012Y010417*
X007899Y010432*
X007886Y010430*
X007640Y010676*
X007673Y010714*
X007681Y010708*
X007786Y010664*
X007899Y010649*
X008012Y010664*
X008117Y010708*
X008208Y010777*
X008277Y010868*
X008321Y010973*
X008336Y011086*
X008321Y011199*
X008277Y011304*
X008208Y011394*
X008117Y011464*
X008012Y011507*
X007899Y011522*
X007786Y011507*
X007721Y011480*
X007503Y011698*
Y011900*
X007553Y011917*
X007591Y011868*
X007681Y011798*
X007786Y011755*
X007849Y011747*
Y012176*
Y012606*
X007786Y012598*
X007681Y012554*
X007591Y012485*
X007553Y012436*
X007503Y012453*
Y012900*
X007491Y012959*
X007458Y013008*
X004153Y016313*
Y017608*
X004395*
Y018398*
X003605*
Y017608*
X003847*
Y016250*
X003859Y016191*
X003892Y016142*
X006835Y013199*
X006813Y013154*
X006781Y013158*
X006668Y013143*
X006563Y013100*
X006473Y013030*
X006403Y012940*
X006360Y012835*
X006345Y012722*
X006360Y012609*
X006403Y012503*
X006473Y012413*
X006563Y012344*
X006668Y012300*
X006781Y012285*
X006894Y012300*
X006999Y012344*
X007090Y012413*
X007147Y012488*
X007197Y012471*
Y011882*
X007147Y011865*
X007090Y011940*
X006999Y012009*
X006894Y012053*
X006781Y012068*
X006668Y012053*
X006603Y012026*
X003153Y015476*
Y017638*
X003199Y017658*
X003282Y017721*
X003345Y017804*
X003385Y017900*
X003399Y018003*
X003385Y018106*
X003345Y018202*
X003282Y018285*
X003199Y018348*
X003103Y018388*
X003000Y018402*
G37*
G36*
X008329Y012126D02*
X007949D01*
Y011747*
X008012Y011755*
X008117Y011798*
X008208Y011868*
X008277Y011958*
X008321Y012063*
X008329Y012126*
G37*
G36*
X007899Y009341D02*
X007786Y009326D01*
X007681Y009283*
X007591Y009213*
X007521Y009123*
X007478Y009018*
X007463Y008905*
X007478Y008792*
X007521Y008687*
X007591Y008596*
X007681Y008527*
X007786Y008483*
X007899Y008468*
X008012Y008483*
X008117Y008527*
X008208Y008596*
X008277Y008687*
X008321Y008792*
X008336Y008905*
X008321Y009018*
X008277Y009123*
X008208Y009213*
X008117Y009283*
X008012Y009326*
X007899Y009341*
G37*
G36*
X007340Y003939D02*
X007176Y003926D01*
X007016Y003888*
X006864Y003825*
X006724Y003739*
X006599Y003632*
X006492Y003507*
X006406Y003367*
X006343Y003215*
X006305Y003055*
X006292Y002891*
X006305Y002727*
X006343Y002567*
X006406Y002415*
X006492Y002275*
X006599Y002150*
X006724Y002043*
X006864Y001957*
X007016Y001894*
X007176Y001856*
X007340Y001843*
X007504Y001856*
X007664Y001894*
X007816Y001957*
X007956Y002043*
X008081Y002150*
X008188Y002275*
X008274Y002415*
X008337Y002567*
X008375Y002727*
X008388Y002891*
X008375Y003055*
X008337Y003215*
X008274Y003367*
X008188Y003507*
X008081Y003632*
X007956Y003739*
X007816Y003825*
X007664Y003888*
X007504Y003926*
X007340Y003939*
G37*
G36*
X006781Y007705D02*
X006668Y007690D01*
X006563Y007647*
X006473Y007577*
X006403Y007487*
X006397Y007473*
X002211*
X002133Y007457*
X002067Y007413*
X000656Y006002*
X000559Y006015*
X000456Y006002*
X000360Y005962*
X000277Y005899*
X000217Y005821*
X-000099*
X-000159Y005899*
X-000242Y005962*
X-000338Y006002*
X-000441Y006015*
X-000544Y006002*
X-000640Y005962*
X-000723Y005899*
X-000786Y005816*
X-000826Y005720*
X-000840Y005617*
X-000826Y005513*
X-000786Y005417*
X-000723Y005335*
X-000640Y005271*
X-000544Y005232*
X-000441Y005218*
X-000338Y005232*
X-000242Y005271*
X-000159Y005335*
X-000099Y005413*
X000217*
X000277Y005335*
X000360Y005271*
X000456Y005232*
X000559Y005218*
X000662Y005232*
X000758Y005271*
X000841Y005335*
X000904Y005417*
X000944Y005513*
X000958Y005617*
X000945Y005714*
X002296Y007065*
X006397*
X006403Y007051*
X006459Y006978*
X006437Y006928*
X002666*
X002588Y006912*
X002522Y006868*
X000656Y005002*
X000559Y005015*
X000456Y005002*
X000360Y004962*
X000277Y004899*
X000217Y004821*
X-000099*
X-000159Y004899*
X-000242Y004962*
X-000338Y005002*
X-000441Y005015*
X-000544Y005002*
X-000640Y004962*
X-000723Y004899*
X-000786Y004816*
X-000826Y004720*
X-000840Y004617*
X-000826Y004513*
X-000786Y004417*
X-000723Y004335*
X-000640Y004271*
X-000544Y004232*
X-000441Y004218*
X-000338Y004232*
X-000242Y004271*
X-000159Y004335*
X-000099Y004413*
X000217*
X000277Y004335*
X000360Y004271*
X000456Y004232*
X000559Y004218*
X000662Y004232*
X000758Y004271*
X000841Y004335*
X000904Y004417*
X000944Y004513*
X000958Y004617*
X000945Y004714*
X002750Y006520*
X006437*
X006459Y006470*
X006403Y006397*
X006397Y006382*
X003121*
X003043Y006367*
X002977Y006323*
X000656Y004002*
X000559Y004015*
X000456Y004002*
X000360Y003962*
X000277Y003899*
X000217Y003821*
X-000099*
X-000159Y003899*
X-000242Y003962*
X-000338Y004002*
X-000441Y004015*
X-000544Y004002*
X-000640Y003962*
X-000723Y003899*
X-000786Y003816*
X-000826Y003720*
X-000840Y003617*
X-000826Y003513*
X-000786Y003417*
X-000723Y003335*
X-000640Y003271*
X-000544Y003232*
X-000441Y003218*
X-000338Y003232*
X-000242Y003271*
X-000159Y003335*
X-000099Y003413*
X000217*
X000277Y003335*
X000360Y003271*
X000456Y003232*
X000559Y003218*
X000662Y003232*
X000758Y003271*
X000841Y003335*
X000904Y003417*
X000944Y003513*
X000958Y003617*
X000945Y003714*
X003205Y005974*
X006397*
X006403Y005960*
X006459Y005887*
X006437Y005837*
X003575*
X003497Y005821*
X003431Y005777*
X000666Y003012*
X000164*
Y002821*
X-000099*
X-000159Y002899*
X-000242Y002962*
X-000338Y003002*
X-000441Y003015*
X-000544Y003002*
X-000640Y002962*
X-000723Y002899*
X-000786Y002816*
X-000826Y002720*
X-000840Y002617*
X-000826Y002513*
X-000786Y002417*
X-000723Y002335*
X-000640Y002271*
X-000544Y002232*
X-000441Y002218*
X-000338Y002232*
X-000242Y002271*
X-000159Y002335*
X-000099Y002413*
X000164*
Y002221*
X000954*
Y002724*
X003660Y005429*
X007467*
Y005200*
X008332*
Y006066*
X007467*
Y005837*
X007125*
X007103Y005887*
X007159Y005960*
X007203Y006065*
X007218Y006178*
X007203Y006291*
X007159Y006397*
X007103Y006470*
X007125Y006520*
X007515*
X007521Y006505*
X007591Y006415*
X007681Y006346*
X007786Y006302*
X007899Y006287*
X008012Y006302*
X008117Y006346*
X008208Y006415*
X008277Y006505*
X008321Y006611*
X008336Y006724*
X008321Y006837*
X008277Y006942*
X008208Y007032*
X008117Y007102*
X008012Y007145*
X007899Y007160*
X007786Y007145*
X007681Y007102*
X007591Y007032*
X007521Y006942*
X007515Y006928*
X007125*
X007103Y006978*
X007159Y007051*
X007203Y007156*
X007218Y007269*
X007203Y007382*
X007159Y007487*
X007090Y007577*
X006999Y007647*
X006894Y007690*
X006781Y007705*
G37*
G36*
X000000Y001088D02*
X-000170Y001074D01*
X-000336Y001034*
X-000494Y000969*
X-000639Y000880*
X-000769Y000769*
X-000880Y000639*
X-000969Y000494*
X-001034Y000336*
X-001074Y000170*
X-001088Y000000*
X-001074Y-000170*
X-001034Y-000336*
X-000969Y-000494*
X-000880Y-000639*
X-000769Y-000769*
X-000639Y-000880*
X-000494Y-000969*
X-000336Y-001034*
X-000170Y-001074*
X000000Y-001088*
X000170Y-001074*
X000336Y-001034*
X000494Y-000969*
X000639Y-000880*
X000769Y-000769*
X000880Y-000639*
X000969Y-000494*
X001034Y-000336*
X001074Y-000170*
X001088Y000000*
X001074Y000170*
X001034Y000336*
X000969Y000494*
X000880Y000639*
X000769Y000769*
X000639Y000880*
X000494Y000969*
X000336Y001034*
X000170Y001074*
X000000Y001088*
G37*
G36*
X008500D02*
X008330Y001074D01*
X008164Y001034*
X008006Y000969*
X007861Y000880*
X007731Y000769*
X007620Y000639*
X007531Y000494*
X007466Y000336*
X007426Y000170*
X007412Y000000*
X007426Y-000170*
X007466Y-000336*
X007531Y-000494*
X007620Y-000639*
X007731Y-000769*
X007861Y-000880*
X008006Y-000969*
X008164Y-001034*
X008330Y-001074*
X008500Y-001088*
X008670Y-001074*
X008836Y-001034*
X008994Y-000969*
X009139Y-000880*
X009269Y-000769*
X009380Y-000639*
X009469Y-000494*
X009534Y-000336*
X009574Y-000170*
X009588Y000000*
X009574Y000170*
X009534Y000336*
X009469Y000494*
X009380Y000639*
X009269Y000769*
X009139Y000880*
X008994Y000969*
X008836Y001034*
X008670Y001074*
X008500Y001088*
G37*
G36*
X-000046Y013755D02*
X-000836D01*
Y012964*
X-000645*
Y012701*
X-000723Y012642*
X-000786Y012559*
X-000826Y012463*
X-000840Y012360*
X-000826Y012257*
X-000786Y012160*
X-000723Y012078*
X-000645Y012018*
Y011701*
X-000723Y011642*
X-000786Y011559*
X-000826Y011463*
X-000840Y011360*
X-000826Y011257*
X-000786Y011160*
X-000723Y011078*
X-000645Y011018*
Y010701*
X-000723Y010642*
X-000786Y010559*
X-000826Y010463*
X-000840Y010360*
X-000826Y010257*
X-000786Y010160*
X-000723Y010078*
X-000645Y010018*
Y009701*
X-000723Y009642*
X-000786Y009559*
X-000826Y009463*
X-000840Y009360*
X-000826Y009257*
X-000786Y009160*
X-000723Y009078*
X-000645Y009018*
Y008701*
X-000723Y008642*
X-000786Y008559*
X-000826Y008463*
X-000840Y008360*
X-000826Y008257*
X-000786Y008160*
X-000723Y008078*
X-000640Y008014*
X-000544Y007975*
X-000441Y007961*
X-000338Y007975*
X-000242Y008014*
X-000159Y008078*
X-000096Y008160*
X-000056Y008257*
X-000042Y008360*
X-000056Y008463*
X-000096Y008559*
X-000159Y008642*
X-000237Y008701*
Y009018*
X-000159Y009078*
X-000096Y009160*
X-000056Y009257*
X-000042Y009360*
X-000056Y009463*
X-000096Y009559*
X-000159Y009642*
X-000237Y009701*
Y010018*
X-000159Y010078*
X-000096Y010160*
X-000056Y010257*
X-000042Y010360*
X-000056Y010463*
X-000096Y010559*
X-000159Y010642*
X-000237Y010701*
Y011018*
X-000159Y011078*
X-000096Y011160*
X-000056Y011257*
X-000042Y011360*
X-000056Y011463*
X-000096Y011559*
X-000159Y011642*
X-000237Y011701*
Y012018*
X-000159Y012078*
X-000096Y012160*
X-000056Y012257*
X-000042Y012360*
X-000056Y012463*
X-000096Y012559*
X-000159Y012642*
X-000237Y012701*
Y012964*
X-000046*
Y013755*
G37*
G36*
X000559Y008758D02*
X000456Y008745D01*
X000360Y008705*
X000277Y008642*
X000214Y008559*
X000174Y008463*
X000160Y008360*
X000174Y008257*
X000214Y008160*
X000277Y008078*
X000360Y008014*
X000456Y007975*
X000559Y007961*
X000662Y007975*
X000758Y008014*
X000841Y008078*
X000904Y008160*
X000944Y008257*
X000958Y008360*
X000944Y008463*
X000904Y008559*
X000841Y008642*
X000758Y008705*
X000662Y008745*
X000559Y008758*
G37*
G36*
X007899Y008251D02*
X007786Y008236D01*
X007681Y008192*
X007591Y008123*
X007521Y008032*
X007478Y007927*
X007463Y007814*
X007478Y007701*
X007521Y007596*
X007591Y007506*
X007681Y007436*
X007786Y007393*
X007899Y007378*
X008012Y007393*
X008117Y007436*
X008208Y007506*
X008277Y007596*
X008321Y007701*
X008336Y007814*
X008321Y007927*
X008277Y008032*
X008208Y008123*
X008117Y008192*
X008012Y008236*
X007899Y008251*
G37*
G36*
X006781Y008796D02*
X006668Y008781D01*
X006563Y008737*
X006473Y008668*
X006403Y008578*
X006360Y008472*
X006345Y008359*
X006360Y008246*
X006403Y008141*
X006473Y008051*
X006563Y007982*
X006668Y007938*
X006781Y007923*
X006894Y007938*
X006999Y007982*
X007090Y008051*
X007159Y008141*
X007203Y008246*
X007218Y008359*
X007203Y008472*
X007159Y008578*
X007090Y008668*
X006999Y008737*
X006894Y008781*
X006781Y008796*
G37*
G36*
X000559Y013758D02*
X000456Y013745D01*
X000360Y013705*
X000277Y013642*
X000214Y013559*
X000174Y013463*
X000160Y013360*
X000174Y013257*
X000214Y013160*
X000277Y013078*
X000360Y013014*
X000456Y012975*
X000559Y012961*
X000662Y012975*
X000758Y013014*
X000841Y013078*
X000904Y013160*
X000944Y013257*
X000958Y013360*
X000944Y013463*
X000904Y013559*
X000841Y013642*
X000758Y013705*
X000662Y013745*
X000559Y013758*
G37*
G36*
X008500Y020088D02*
X008330Y020074D01*
X008164Y020034*
X008006Y019969*
X007861Y019880*
X007731Y019769*
X007620Y019639*
X007531Y019494*
X007466Y019336*
X007426Y019170*
X007412Y019000*
X007426Y018830*
X007466Y018664*
X007531Y018506*
X007620Y018361*
X007731Y018231*
X007861Y018120*
X008006Y018031*
X008164Y017966*
X008330Y017926*
X008500Y017912*
X008670Y017926*
X008836Y017966*
X008994Y018031*
X009139Y018120*
X009269Y018231*
X009380Y018361*
X009469Y018506*
X009534Y018664*
X009574Y018830*
X009588Y019000*
X009574Y019170*
X009534Y019336*
X009469Y019494*
X009380Y019639*
X009269Y019769*
X009139Y019880*
X008994Y019969*
X008836Y020034*
X008670Y020074*
X008500Y020088*
G37*
G36*
X006950Y018903D02*
X005869D01*
X005810Y018891*
X005760Y018858*
X005588Y018686*
X005220*
Y018112*
X005814*
Y018456*
X005831Y018469*
X005881Y018444*
Y018141*
X006436*
X006454*
X007008*
Y018410*
X007054Y018429*
X007259Y018225*
Y017941*
X007008*
Y018026*
X006486*
X006454*
X006404*
X005881*
Y017922*
X005814*
Y018056*
X005220*
Y017941*
X005153*
Y018026*
X004599*
Y017550*
X005153*
Y017635*
X005220*
Y017482*
X005814*
Y017616*
X005881*
Y017550*
X006404*
X006436*
X006486*
X007008*
Y017635*
X007348*
X008347Y016637*
Y016439*
X008297Y016429*
X008274Y016485*
X008188Y016625*
X008081Y016750*
X007956Y016857*
X007816Y016943*
X007664Y017006*
X007504Y017044*
X007340Y017057*
X007176Y017044*
X007016Y017006*
X006864Y016943*
X006724Y016857*
X006599Y016750*
X006492Y016625*
X006406Y016485*
X006343Y016333*
X006305Y016173*
X006292Y016009*
X006305Y015845*
X006343Y015685*
X006406Y015533*
X006492Y015393*
X006599Y015268*
X006724Y015161*
X006864Y015075*
X007016Y015012*
X007176Y014974*
X007340Y014961*
X007504Y014974*
X007664Y015012*
X007816Y015075*
X007956Y015161*
X008081Y015268*
X008188Y015393*
X008274Y015533*
X008297Y015589*
X008347Y015579*
Y013931*
X008077Y013661*
X008012Y013688*
X007899Y013703*
X007786Y013688*
X007681Y013645*
X007591Y013576*
X007521Y013485*
X007478Y013380*
X007463Y013267*
X007478Y013154*
X007521Y013049*
X007591Y012958*
X007681Y012889*
X007786Y012845*
X007899Y012831*
X008012Y012845*
X008117Y012889*
X008208Y012958*
X008277Y013049*
X008321Y013154*
X008336Y013267*
X008321Y013380*
X008294Y013445*
X008608Y013760*
X008641Y013809*
X008653Y013868*
Y016700*
X008641Y016759*
X008608Y016808*
X007565Y017852*
Y018288*
X007553Y018347*
X007520Y018396*
X007058Y018858*
X007009Y018891*
X006950Y018903*
G37*
G36*
X000559Y018018D02*
X000456Y018005D01*
X000360Y017965*
X000277Y017902*
X000214Y017819*
X000174Y017723*
X000160Y017620*
X000174Y017517*
X000214Y017420*
X000277Y017338*
X000360Y017275*
X000456Y017235*
X000559Y017221*
X000662Y017235*
X000758Y017275*
X000841Y017338*
X000904Y017420*
X000944Y017517*
X000958Y017620*
X000944Y017723*
X000904Y017819*
X000841Y017902*
X000758Y017965*
X000662Y018005*
X000559Y018018*
G37*
G36*
X002000Y018402D02*
X001897Y018388D01*
X001801Y018348*
X001718Y018285*
X001655Y018202*
X001615Y018106*
X001601Y018003*
X001615Y017900*
X001655Y017804*
X001718Y017721*
X001801Y017658*
X001897Y017618*
X002000Y017604*
X002103Y017618*
X002199Y017658*
X002282Y017721*
X002345Y017804*
X002385Y017900*
X002399Y018003*
X002385Y018106*
X002345Y018202*
X002282Y018285*
X002199Y018348*
X002103Y018388*
X002000Y018402*
G37*
G36*
X004826Y018617D02*
X004599D01*
Y018429*
X004826*
Y018617*
G37*
G36*
X005153D02*
X004926D01*
Y018429*
X005153*
Y018617*
G37*
G36*
X004826Y018329D02*
X004599D01*
Y018141*
X004826*
Y018329*
G37*
G36*
X005153D02*
X004926D01*
Y018141*
X005153*
Y018329*
G37*
G36*
X-000441Y018018D02*
X-000544Y018005D01*
X-000640Y017965*
X-000723Y017902*
X-000786Y017819*
X-000826Y017723*
X-000840Y017620*
X-000826Y017517*
X-000786Y017420*
X-000723Y017338*
X-000640Y017275*
X-000544Y017235*
X-000441Y017221*
X-000338Y017235*
X-000242Y017275*
X-000159Y017338*
X-000096Y017420*
X-000056Y017517*
X-000042Y017620*
X-000056Y017723*
X-000096Y017819*
X-000159Y017902*
X-000242Y017965*
X-000338Y018005*
X-000441Y018018*
G37*
G36*
X-000049Y016570D02*
X-000391D01*
Y016228*
X-000338Y016235*
X-000242Y016275*
X-000159Y016338*
X-000096Y016420*
X-000056Y016517*
X-000049Y016570*
G37*
G36*
X000951D02*
X000609D01*
Y016228*
X000662Y016235*
X000758Y016275*
X000841Y016338*
X000904Y016420*
X000944Y016517*
X000951Y016570*
G37*
G36*
X-000491D02*
X-000833D01*
X-000826Y016517*
X-000786Y016420*
X-000723Y016338*
X-000640Y016275*
X-000544Y016235*
X-000491Y016228*
Y016570*
G37*
G36*
X000509D02*
X000167D01*
X000174Y016517*
X000214Y016420*
X000277Y016338*
X000360Y016275*
X000456Y016235*
X000509Y016228*
Y016570*
G37*
G36*
X-000391Y017012D02*
Y016670D01*
X-000049*
X-000056Y016723*
X-000096Y016819*
X-000159Y016902*
X-000242Y016965*
X-000338Y017005*
X-000391Y017012*
G37*
G36*
X000609D02*
Y016670D01*
X000951*
X000944Y016723*
X000904Y016819*
X000841Y016902*
X000758Y016965*
X000662Y017005*
X000609Y017012*
G37*
G36*
X-000491D02*
X-000544Y017005D01*
X-000640Y016965*
X-000723Y016902*
X-000786Y016819*
X-000826Y016723*
X-000833Y016670*
X-000491*
Y017012*
G37*
G36*
X000509D02*
X000456Y017005D01*
X000360Y016965*
X000277Y016902*
X000214Y016819*
X000174Y016723*
X000167Y016670*
X000509*
Y017012*
G37*
%LNdistro_layout-3*%
%LPD*%
G54D10*
X004876Y018379D03*
Y017788D03*
X006159D03*
Y018379D03*
X006731D03*
Y017788D03*
G54D11*
X005517Y017769D03*
Y018399D03*
G54D12*
X007412Y017788D02*
Y018288D01*
X006950Y018750D02*
X007412Y018288D01*
X005869Y018750D02*
X006950D01*
X005517Y018399D02*
X005869Y018750D01*
X007050Y011050D02*
X007899Y010201D01*
X006680Y011050D02*
X007050D01*
X006298Y011431D02*
X006680Y011050D01*
X000379Y014800D02*
X002522D01*
X006298Y011431D02*
Y011452D01*
X002130Y015620D02*
X006298Y011452D01*
X000559Y015620D02*
X002130D01*
X002522Y014800D02*
X006781Y010541D01*
X-000441Y015620D02*
X000379Y014800D01*
X007899Y009995D02*
Y010201D01*
X003000Y015412D02*
X006781Y011631D01*
X003000Y015412D02*
Y018003D01*
X004000Y016250D02*
X007350Y012900D01*
Y011635D02*
Y012900D01*
Y011635D02*
X007899Y011086D01*
X004000Y016250D02*
Y018003D01*
X007899Y013267D02*
X008500Y013868D01*
Y016700*
X007412Y017788D02*
X008500Y016700D01*
X006731Y017788D02*
X007412D01*
X006731Y018379D02*
D01*
X006159D02*
X006731D01*
X006139Y017769D02*
X006159Y017788D01*
X005517Y017769D02*
X006139D01*
X005497Y017788D02*
X005517Y017769D01*
X004876Y017788D02*
X005497D01*
G54D13*
X-000441Y012360D02*
Y013360D01*
Y011360D02*
Y012360D01*
Y010360D02*
Y011360D01*
Y009360D02*
Y010360D01*
Y008360D02*
Y009360D01*
Y005617D02*
X000559D01*
X-000441Y004617D02*
X000559D01*
X-000441Y003617D02*
X000559D01*
X-000441Y002617D02*
X000559D01*
X003575Y005633*
X007899*
X000559Y003617D02*
X003121Y006178D01*
X006781*
X000559Y004617D02*
X002666Y006724D01*
X007899*
X000559Y005617D02*
X002211Y007269D01*
X006781*
G54D14*
X007899Y005633D03*
G54D15*
X006781Y006178D03*
X007899Y006724D03*
X006781Y007269D03*
X007899Y007814D03*
X006781Y008359D03*
X007899Y008905D03*
X006781Y009450D03*
X007899Y009995D03*
X006781Y010541D03*
X007899Y011086D03*
X006781Y011631D03*
X007899Y012176D03*
X006781Y012722D03*
X007899Y013267D03*
G54D16*
X007340Y002891D03*
Y016009D03*
G54D17*
X-000441Y005617D03*
X000559D03*
X-000441Y004617D03*
X000559D03*
X-000441Y003617D03*
X000559D03*
X-000441Y002617D03*
Y015620D03*
X000559Y016620D03*
X-000441D03*
X000559Y017620D03*
X-000441D03*
X003000Y018003D03*
X002000D03*
X000559Y008360D03*
X-000441D03*
X000559Y009360D03*
X-000441D03*
X000559Y010360D03*
X-000441D03*
X000559Y011360D03*
X-000441D03*
X000559Y012360D03*
X-000441D03*
X000559Y013360D03*
G54D18*
X000559Y002617D03*
Y015620D03*
X-000441Y013360D03*
G54D19*
X004000Y018003D03*
G54D20*
X000000Y000000D03*
X008500D03*
Y019000D03*
M02*