G04 Layer_Color=65535*
%FSLAX24Y24*%
%MOIN*%
G70*
G01*
G75*
%ADD21C,0.0100*%
%ADD22C,0.0079*%
%ADD23C,0.0050*%
D21*
X7862Y-550D02*
G03*
X7862Y-550I-1012J0D01*
G01*
X6250Y-800D02*
X7500D01*
X7100Y-200D02*
X7500D01*
X6250D02*
X6650D01*
X10843Y10435D02*
X15343D01*
Y392D02*
Y10435D01*
X10843Y392D02*
X15343D01*
X6100Y11880D02*
Y12330D01*
X6250Y12180D01*
X6400Y12330D01*
Y11880D01*
X6850Y12330D02*
X6550D01*
Y11880D01*
X6850D01*
X6550Y12105D02*
X6700D01*
X7000Y12330D02*
X7300D01*
X7150D01*
Y11880D01*
X7450D02*
Y12330D01*
X7674D01*
X7749Y12255D01*
Y12105D01*
X7674Y12030D01*
X7450D01*
X7600D02*
X7749Y11880D01*
X8124D02*
Y12330D01*
X7899Y12105D01*
X8199D01*
X8349Y12255D02*
X8424Y12330D01*
X8574D01*
X8649Y12255D01*
Y12180D01*
X8574Y12105D01*
X8649Y12030D01*
Y11955D01*
X8574Y11880D01*
X8424D01*
X8349Y11955D01*
Y12030D01*
X8424Y12105D01*
X8349Y12180D01*
Y12255D01*
X8424Y12105D02*
X8574D01*
X8799Y11880D02*
X8949D01*
X8874D01*
Y12330D01*
X8799Y12255D01*
X9174D02*
X9249Y12330D01*
X9399D01*
X9474Y12255D01*
Y11955D01*
X9399Y11880D01*
X9249D01*
X9174Y11955D01*
Y12255D01*
X6100Y11550D02*
X6400D01*
X6250D01*
Y11100D01*
X6850Y11550D02*
X6550D01*
Y11100D01*
X6850D01*
X6550Y11325D02*
X6700D01*
X7000Y11100D02*
Y11400D01*
X7150Y11550D01*
X7300Y11400D01*
Y11100D01*
Y11325D01*
X7000D01*
X7450Y11100D02*
Y11550D01*
X7600Y11400D01*
X7749Y11550D01*
Y11100D01*
X8349D02*
X8499D01*
X8424D01*
Y11550D01*
X8349Y11475D01*
X8724D02*
X8799Y11550D01*
X8949D01*
X9024Y11475D01*
Y11175D01*
X8949Y11100D01*
X8799D01*
X8724Y11175D01*
Y11475D01*
D22*
X5437Y11311D02*
Y12311D01*
X1437Y11311D02*
X5437D01*
X1437Y12311D02*
X5437D01*
X1437Y11311D02*
Y12311D01*
X-500Y5500D02*
X500D01*
Y1500D02*
Y5500D01*
X-500Y1500D02*
Y5500D01*
Y1500D02*
X500D01*
X5437Y9481D02*
Y10481D01*
X1437Y9481D02*
X5437D01*
X1437Y10481D02*
X5437D01*
X1437Y9481D02*
Y10481D01*
X-500Y9500D02*
X500D01*
Y6500D02*
Y9500D01*
X-500Y6500D02*
X500D01*
X-500D02*
Y9500D01*
X4437Y3990D02*
Y4990D01*
X1437Y3990D02*
X4437D01*
X1437D02*
Y4990D01*
X4437D01*
Y7651D02*
Y8651D01*
X1437Y7651D02*
X4437D01*
X1437D02*
Y8651D01*
X4437D01*
X5437Y-1500D02*
Y-500D01*
X1437Y-1500D02*
X5437D01*
X1437Y-500D02*
X5437D01*
X1437Y-1500D02*
Y-500D01*
X5437Y330D02*
Y1330D01*
X1437Y330D02*
X5437D01*
X1437Y1330D02*
X5437D01*
X1437Y330D02*
Y1330D01*
X5921Y3307D02*
X6079D01*
X5921Y3582D02*
X6079D01*
X5921Y4155D02*
X6079D01*
X5921Y3879D02*
X6079D01*
X5921Y5162D02*
X6079D01*
X5921Y5438D02*
X6079D01*
X1496Y5780D02*
Y6094D01*
X2087Y5780D02*
Y6094D01*
X2384Y5780D02*
Y6094D01*
X2974Y5780D02*
Y6094D01*
D23*
X1937Y7400D02*
X1987Y7450D01*
X2087D01*
X2137Y7400D01*
Y7200D01*
X2087Y7150D01*
X1987D01*
X1937Y7200D01*
Y7400D01*
X2237Y7300D02*
X2437D01*
X2737Y7450D02*
X2537D01*
Y7300D01*
X2637Y7350D01*
X2687D01*
X2737Y7300D01*
Y7200D01*
X2687Y7150D01*
X2587D01*
X2537Y7200D01*
X2837Y7300D02*
X3037D01*
X3137Y7150D02*
Y7450D01*
X3287D01*
X3337Y7400D01*
Y7300D01*
X3287Y7250D01*
X3137D01*
X3437Y7450D02*
Y7150D01*
X3537Y7250D01*
X3637Y7150D01*
Y7450D01*
X3737Y7150D02*
Y7450D01*
X3837Y7350D01*
X3937Y7450D01*
Y7150D01*
X5050Y4450D02*
X5000Y4400D01*
Y4300D01*
X5050Y4250D01*
X5250D01*
X5300Y4300D01*
Y4400D01*
X5250Y4450D01*
X5150D01*
Y4350D01*
X5300Y4550D02*
X5000D01*
X5300Y4750D01*
X5000D01*
Y4850D02*
X5300D01*
Y5000D01*
X5250Y5050D01*
X5050D01*
X5000Y5000D01*
Y4850D01*
X1888Y-250D02*
X1987D01*
X1937D01*
Y50D01*
X1888Y-0D01*
X2137Y-250D02*
Y-50D01*
X2237Y50D01*
X2337Y-50D01*
Y-250D01*
Y-100D01*
X2137D01*
X2437D02*
X2637D01*
X2737Y-250D02*
X2837D01*
X2787D01*
Y50D01*
X2737Y-0D01*
X2987Y50D02*
Y-250D01*
X3137D01*
X3187Y-200D01*
Y-150D01*
X3137Y-100D01*
X2987D01*
X3137D01*
X3187Y-50D01*
Y-0D01*
X3137Y50D01*
X2987D01*
X3287Y-100D02*
X3487D01*
X3787Y-250D02*
X3587D01*
X3787Y-50D01*
Y-0D01*
X3737Y50D01*
X3637D01*
X3587Y-0D01*
X3887Y-250D02*
Y-50D01*
X3987Y50D01*
X4087Y-50D01*
Y-250D01*
Y-100D01*
X3887D01*
X4187D02*
X4387D01*
X4687Y-250D02*
X4487D01*
X4687Y-50D01*
Y-0D01*
X4637Y50D01*
X4537D01*
X4487Y-0D01*
X4787Y50D02*
Y-250D01*
X4937D01*
X4987Y-200D01*
Y-150D01*
X4937Y-100D01*
X4787D01*
X4937D01*
X4987Y-50D01*
Y-0D01*
X4937Y50D01*
X4787D01*
X1937Y3750D02*
X1987Y3800D01*
X2087D01*
X2137Y3750D01*
Y3550D01*
X2087Y3500D01*
X1987D01*
X1937Y3550D01*
Y3750D01*
X2237Y3650D02*
X2437D01*
X2737Y3800D02*
X2537D01*
Y3650D01*
X2637Y3700D01*
X2687D01*
X2737Y3650D01*
Y3550D01*
X2687Y3500D01*
X2587D01*
X2537Y3550D01*
X2837Y3650D02*
X3037D01*
X3137Y3500D02*
Y3800D01*
X3287D01*
X3337Y3750D01*
Y3650D01*
X3287Y3600D01*
X3137D01*
X3437Y3800D02*
Y3500D01*
X3537Y3600D01*
X3637Y3500D01*
Y3800D01*
X3737Y3500D02*
Y3800D01*
X3837Y3700D01*
X3937Y3800D01*
Y3500D01*
X2437Y9300D02*
Y9000D01*
X2587D01*
X2637Y9050D01*
Y9100D01*
X2587Y9150D01*
X2437D01*
X2587D01*
X2637Y9200D01*
Y9250D01*
X2587Y9300D01*
X2437D01*
X2737Y9150D02*
X2937D01*
X3037Y9300D02*
Y9000D01*
X3187D01*
X3237Y9050D01*
Y9100D01*
X3187Y9150D01*
X3037D01*
X3187D01*
X3237Y9200D01*
Y9250D01*
X3187Y9300D01*
X3037D01*
X3337Y9150D02*
X3537D01*
X3637Y9300D02*
Y9000D01*
X3787D01*
X3837Y9050D01*
Y9100D01*
X3787Y9150D01*
X3637D01*
X3787D01*
X3837Y9200D01*
Y9250D01*
X3787Y9300D01*
X3637D01*
X3937Y9150D02*
X4137D01*
X4237Y9300D02*
Y9000D01*
X4387D01*
X4437Y9050D01*
Y9100D01*
X4387Y9150D01*
X4237D01*
X4387D01*
X4437Y9200D01*
Y9250D01*
X4387Y9300D01*
X4237D01*
X2437Y11050D02*
X2487Y11100D01*
X2587D01*
X2637Y11050D01*
Y10850D01*
X2587Y10800D01*
X2487D01*
X2437Y10850D01*
Y11050D01*
X2737Y10950D02*
X2937D01*
X3037Y11050D02*
X3087Y11100D01*
X3187D01*
X3237Y11050D01*
Y10850D01*
X3187Y10800D01*
X3087D01*
X3037Y10850D01*
Y11050D01*
X3337Y10950D02*
X3537D01*
X3637Y11050D02*
X3687Y11100D01*
X3787D01*
X3837Y11050D01*
Y10850D01*
X3787Y10800D01*
X3687D01*
X3637Y10850D01*
Y11050D01*
X3937Y10950D02*
X4137D01*
X4237Y11050D02*
X4287Y11100D01*
X4387D01*
X4437Y11050D01*
Y10850D01*
X4387Y10800D01*
X4287D01*
X4237Y10850D01*
Y11050D01*
X-950Y7025D02*
X-1000Y7075D01*
Y7175D01*
X-950Y7225D01*
X-750D01*
X-700Y7175D01*
Y7075D01*
X-750Y7025D01*
X-950D01*
X-850Y7325D02*
Y7525D01*
X-1000Y7625D02*
X-700D01*
Y7775D01*
X-750Y7825D01*
X-800D01*
X-850Y7775D01*
Y7625D01*
Y7775D01*
X-900Y7825D01*
X-950D01*
X-1000Y7775D01*
Y7625D01*
X-850Y7925D02*
Y8125D01*
X-950Y8425D02*
X-1000Y8375D01*
Y8275D01*
X-950Y8225D01*
X-900D01*
X-850Y8275D01*
Y8375D01*
X-800Y8425D01*
X-750D01*
X-700Y8375D01*
Y8275D01*
X-750Y8225D01*
X-1000Y8525D02*
Y8625D01*
Y8575D01*
X-700D01*
Y8525D01*
Y8625D01*
X-950Y8975D02*
X-1000Y8925D01*
Y8825D01*
X-950Y8775D01*
X-750D01*
X-700Y8825D01*
Y8925D01*
X-750Y8975D01*
X-850D01*
Y8875D01*
X-1000Y2500D02*
X-700D01*
Y2650D01*
X-750Y2700D01*
X-800D01*
X-850Y2650D01*
Y2500D01*
Y2650D01*
X-900Y2700D01*
X-950D01*
X-1000Y2650D01*
Y2500D01*
X-850Y2800D02*
Y3000D01*
X-1000Y3100D02*
X-700D01*
Y3250D01*
X-750Y3300D01*
X-800D01*
X-850Y3250D01*
Y3100D01*
Y3250D01*
X-900Y3300D01*
X-950D01*
X-1000Y3250D01*
Y3100D01*
X-850Y3400D02*
Y3600D01*
X-950Y3700D02*
X-1000Y3750D01*
Y3850D01*
X-950Y3900D01*
X-750D01*
X-700Y3850D01*
Y3750D01*
X-750Y3700D01*
X-950D01*
X-850Y4000D02*
Y4200D01*
X-950Y4300D02*
X-1000Y4350D01*
Y4450D01*
X-950Y4500D01*
X-750D01*
X-700Y4450D01*
Y4350D01*
X-750Y4300D01*
X-950D01*
M02*
