G04 Layer_Color=8388736*
%FSLAX24Y24*%
%MOIN*%
G70*
G01*
G75*
%ADD25R,0.0434X0.0356*%
%ADD26R,0.0474X0.0454*%
%ADD27R,0.0745X0.0745*%
%ADD28C,0.0745*%
%ADD29C,0.1970*%
%ADD30C,0.0671*%
%ADD31R,0.0671X0.0671*%
%ADD32R,0.0671X0.0671*%
%ADD33C,0.2049*%
D25*
X4876Y18379D02*
D03*
Y17788D02*
D03*
X6159Y17788D02*
D03*
Y18379D02*
D03*
X6731Y18379D02*
D03*
Y17788D02*
D03*
D26*
X5517Y17769D02*
D03*
Y18399D02*
D03*
D27*
X7899Y5633D02*
D03*
D28*
X6781Y6178D02*
D03*
X7899Y6724D02*
D03*
X6781Y7269D02*
D03*
X7899Y7814D02*
D03*
X6781Y8359D02*
D03*
X7899Y8905D02*
D03*
X6781Y9450D02*
D03*
X7899Y9995D02*
D03*
X6781Y10541D02*
D03*
X7899Y11086D02*
D03*
X6781Y11631D02*
D03*
X7899Y12176D02*
D03*
X6781Y12722D02*
D03*
X7899Y13267D02*
D03*
D29*
X7340Y2891D02*
D03*
Y16009D02*
D03*
D30*
X-441Y5617D02*
D03*
X559D02*
D03*
X-441Y4617D02*
D03*
X559D02*
D03*
X-441Y3617D02*
D03*
X559D02*
D03*
X-441Y2617D02*
D03*
Y15620D02*
D03*
X559Y16620D02*
D03*
X-441D02*
D03*
X559Y17620D02*
D03*
X-441D02*
D03*
X3000Y18003D02*
D03*
X2000D02*
D03*
X559Y8360D02*
D03*
X-441D02*
D03*
X559Y9360D02*
D03*
X-441D02*
D03*
X559Y10360D02*
D03*
X-441D02*
D03*
X559Y11360D02*
D03*
X-441D02*
D03*
X559Y12360D02*
D03*
X-441D02*
D03*
X559Y13360D02*
D03*
D31*
Y2617D02*
D03*
Y15620D02*
D03*
X-441Y13360D02*
D03*
D32*
X4000Y18003D02*
D03*
D33*
X0Y0D02*
D03*
X8500D02*
D03*
Y19000D02*
D03*
M02*
