M48
;Layer_Color=9474304
;FILE_FORMAT=2:4
INCH,LZ
;TYPE=PLATED
T1F00S00C0.0354
T2F00S00C0.0429
T3F00S00C0.1252
T4F00S00C0.1260
%
T01
X-000441Y002617
Y003617
Y004617
Y005617
X000559
Y004617
Y003617
Y002617
Y00836
X-000441
Y00936
X000559
Y01036
X-000441
Y01136
X000559
Y01236
X-000441
Y01336
X000559
Y01562
X-000441
Y01662
X000559
Y01762
X-000441
X002Y018003
X003
X004
T02
X007899Y005633
X007899Y006724
X006781Y006178
Y007269
Y008359
Y00945
Y010541
Y011631
Y012722
X007899Y012176
Y011086
Y009995
Y008905
Y007814
X007899Y013267
T03
X00734Y002891
Y016009
T04
X0085Y0
X0
X0085Y019
M30
