M48
;Layer_Color=9474304
;FILE_FORMAT=2:4
INCH,LZ
;TYPE=PLATED
T1F00S00C0.0354
T2F00S00C0.0394
T3F00S00C0.1260
%
T01
X0Y002
Y003
Y004
Y005
Y007
Y008
Y009
X001937Y008151
X002937
X003937
Y009981
X002937
X001937
Y011811
X002937
X003937
X004937
Y009981
X003937Y00449
X002937
X001937
Y00083
X002937
X003937
X004937
Y-001
X003937
X002937
X001937
T02
X009843Y003613
Y004513
Y005413
Y006313
Y007213
X010843Y006763
Y005863
Y004963
Y004063
Y003163
X011843Y003613
Y004513
Y005413
Y006313
Y007213
T03
X0Y0
Y010827
X010843Y010435
Y000392
M30
