G04 Layer_Color=8388736*
%FSLAX24Y24*%
%MOIN*%
G70*
G01*
G75*
%ADD24R,0.0454X0.0474*%
%ADD25R,0.0356X0.0434*%
%ADD26R,0.0631X0.0513*%
%ADD27R,0.0749X0.0513*%
%ADD28C,0.1655*%
%ADD29C,0.0680*%
%ADD30R,0.0671X0.0671*%
%ADD31C,0.0671*%
%ADD32R,0.0671X0.0671*%
%ADD33C,0.2049*%
D24*
X5685Y4659D02*
D03*
X6315D02*
D03*
D25*
X6295Y3445D02*
D03*
X5705D02*
D03*
X5705Y4017D02*
D03*
X6295D02*
D03*
X6295Y5300D02*
D03*
X5705D02*
D03*
D26*
X6150Y7887D02*
D03*
Y8478D02*
D03*
X5381Y7887D02*
D03*
Y8478D02*
D03*
X6169Y9698D02*
D03*
Y10289D02*
D03*
X6938Y9698D02*
D03*
Y10289D02*
D03*
D27*
X1791Y5405D02*
D03*
Y6468D02*
D03*
X2679Y5405D02*
D03*
Y6468D02*
D03*
D28*
X10843Y392D02*
D03*
Y10435D02*
D03*
D29*
X9843Y3613D02*
D03*
Y5413D02*
D03*
Y4513D02*
D03*
Y6313D02*
D03*
Y7213D02*
D03*
X10843Y6763D02*
D03*
Y5863D02*
D03*
Y4063D02*
D03*
Y4963D02*
D03*
Y3163D02*
D03*
X11843Y7213D02*
D03*
Y6313D02*
D03*
Y4513D02*
D03*
Y5413D02*
D03*
Y3613D02*
D03*
D30*
X1937Y11811D02*
D03*
Y9981D02*
D03*
X3937Y4490D02*
D03*
Y8151D02*
D03*
X1937Y-1000D02*
D03*
Y830D02*
D03*
D31*
X2937Y11811D02*
D03*
X3937D02*
D03*
X4937D02*
D03*
X0Y3000D02*
D03*
Y4000D02*
D03*
Y5000D02*
D03*
X2937Y9981D02*
D03*
X3937D02*
D03*
X4937D02*
D03*
X0Y7000D02*
D03*
Y8000D02*
D03*
X1937Y4490D02*
D03*
X2937D02*
D03*
X1937Y8151D02*
D03*
X2937D02*
D03*
Y-1000D02*
D03*
X3937D02*
D03*
X4937D02*
D03*
X2937Y830D02*
D03*
X3937D02*
D03*
X4937D02*
D03*
D32*
X0Y2000D02*
D03*
Y9000D02*
D03*
D33*
Y10827D02*
D03*
Y0D02*
D03*
M02*
