G04 Layer_Color=8421504*
%FSLAX24Y24*%
%MOIN*%
G70*
G01*
G75*
%ADD10O,0.0689X0.0217*%
%ADD11O,0.0217X0.0689*%
%ADD12R,0.0276X0.0354*%
%ADD13R,0.0354X0.0276*%
%ADD14R,0.0394X0.0374*%
%ADD15R,0.0374X0.0394*%
%ADD16R,0.0433X0.0551*%
%ADD17R,0.0945X0.0413*%
%ADD18R,0.3504X0.4193*%
%ADD19R,0.0669X0.0433*%
%ADD20R,0.0433X0.0669*%
D10*
X12624Y10675D02*
D03*
Y10360D02*
D03*
Y10045D02*
D03*
Y9730D02*
D03*
Y9415D02*
D03*
Y9100D02*
D03*
Y8785D02*
D03*
Y8470D02*
D03*
Y8155D02*
D03*
Y7840D02*
D03*
Y7525D02*
D03*
X8176D02*
D03*
Y7840D02*
D03*
Y8155D02*
D03*
Y8470D02*
D03*
Y8785D02*
D03*
Y9100D02*
D03*
Y9415D02*
D03*
Y9730D02*
D03*
Y10045D02*
D03*
Y10360D02*
D03*
Y10675D02*
D03*
D11*
X11975Y6876D02*
D03*
X11660D02*
D03*
X11345D02*
D03*
X11030D02*
D03*
X10715D02*
D03*
X10400D02*
D03*
X10085D02*
D03*
X9770D02*
D03*
X9455D02*
D03*
X9140D02*
D03*
X8825D02*
D03*
Y11324D02*
D03*
X9140D02*
D03*
X9455D02*
D03*
X9770D02*
D03*
X10085D02*
D03*
X10400D02*
D03*
X10715D02*
D03*
X11030D02*
D03*
X11345D02*
D03*
X11660D02*
D03*
X11975D02*
D03*
D12*
X18335Y3882D02*
D03*
X18926D02*
D03*
X18926Y4454D02*
D03*
X18335D02*
D03*
X18335Y5950D02*
D03*
X18926D02*
D03*
X18926Y3309D02*
D03*
X18335D02*
D03*
X18335Y5027D02*
D03*
X18926D02*
D03*
D13*
X12373Y5133D02*
D03*
Y5723D02*
D03*
X9043Y12690D02*
D03*
Y12099D02*
D03*
X16186Y7995D02*
D03*
Y7405D02*
D03*
X18041Y7995D02*
D03*
Y7405D02*
D03*
X16759Y7405D02*
D03*
Y7995D02*
D03*
D14*
X11731Y5093D02*
D03*
Y5723D02*
D03*
X17400Y7385D02*
D03*
Y8015D02*
D03*
D15*
X18335Y6591D02*
D03*
X18965D02*
D03*
X18315Y2668D02*
D03*
X18945D02*
D03*
D16*
X10405Y5700D02*
D03*
X10995D02*
D03*
X10245Y12350D02*
D03*
X9655D02*
D03*
X20394Y7299D02*
D03*
X19803D02*
D03*
X20394Y8068D02*
D03*
X19803D02*
D03*
X20394Y6529D02*
D03*
X19803D02*
D03*
D17*
X18850Y13100D02*
D03*
Y15100D02*
D03*
D18*
X14775Y14100D02*
D03*
D19*
X6750Y8769D02*
D03*
Y9832D02*
D03*
D20*
X14018Y9100D02*
D03*
X15081D02*
D03*
X19331Y8896D02*
D03*
X20394D02*
D03*
X19331Y9800D02*
D03*
X20394D02*
D03*
M02*
