G04 Layer_Color=16711935*
%FSLAX24Y24*%
%MOIN*%
G70*
G01*
G75*
%ADD49R,0.0671X0.0671*%
%ADD50C,0.0671*%
%ADD51R,0.0671X0.0671*%
%ADD52C,0.0745*%
%ADD53R,0.0745X0.0745*%
%ADD54C,0.1954*%
%ADD55C,0.0580*%
%ADD56C,0.2049*%
D49*
X8800Y16000D02*
D03*
X6858Y-445D02*
D03*
X20130Y2555D02*
D03*
Y13100D02*
D03*
D50*
X9800Y16000D02*
D03*
X8800Y15000D02*
D03*
X9800D02*
D03*
X8800Y14000D02*
D03*
X9800D02*
D03*
X2500Y18161D02*
D03*
X3500D02*
D03*
X4500D02*
D03*
X13215D02*
D03*
X12215D02*
D03*
X8858D02*
D03*
X7858D02*
D03*
X6858Y2555D02*
D03*
Y1555D02*
D03*
Y555D02*
D03*
X16573Y18161D02*
D03*
X10215Y2555D02*
D03*
X11215D02*
D03*
X12215D02*
D03*
X13215D02*
D03*
X14215D02*
D03*
X15215D02*
D03*
X16215D02*
D03*
X10215Y-445D02*
D03*
X11215D02*
D03*
X12215D02*
D03*
X13215D02*
D03*
X14215D02*
D03*
X15215D02*
D03*
X16215D02*
D03*
X3500D02*
D03*
X4500D02*
D03*
X20130Y5555D02*
D03*
Y4555D02*
D03*
Y3555D02*
D03*
Y14100D02*
D03*
D51*
X5500Y18161D02*
D03*
X14215D02*
D03*
X9858D02*
D03*
X17573D02*
D03*
X9215Y2555D02*
D03*
Y-445D02*
D03*
X2500D02*
D03*
D52*
X4799Y11039D02*
D03*
X3681Y10494D02*
D03*
X4799Y9949D02*
D03*
X3681Y9404D02*
D03*
X4799Y8858D02*
D03*
X3681Y8313D02*
D03*
X4799Y7768D02*
D03*
X3681Y7222D02*
D03*
D53*
X4799Y6677D02*
D03*
D54*
X4240Y3939D02*
D03*
Y13778D02*
D03*
D55*
X10400Y10350D02*
D03*
X10850Y4900D02*
D03*
X15552Y3900D02*
D03*
X9500Y9050D02*
D03*
X6500Y8000D02*
D03*
X14750Y14125D02*
D03*
Y15200D02*
D03*
Y13050D02*
D03*
D56*
X19685Y17717D02*
D03*
Y0D02*
D03*
X0Y17717D02*
D03*
Y0D02*
D03*
M02*
