M48
;Layer_Color=9474304
;FILE_FORMAT=2:4
INCH,LZ
;TYPE=PLATED
T1F00S00C0.0280
T2F00S00C0.0354
T3F00S00C0.0429
T4F00S00C0.1260
T5F00S00C0.1283
%
T01
X015552Y0039
X01085Y0049
X0095Y00905
X0104Y01035
X0065Y008
X01475Y01305
Y014125
Y0152
T02
X012215Y-000445
X013215
X014215
X015215
X016215
Y002555
X015215
X014215
X013215
X012215
X02013
Y003555
X011215Y002555
X010215
X009215
X006858
Y001555
Y000555
Y-000445
X009215
X010215
X011215
X0045
X0035
X0025
Y018161
X0035
X0045
X0055
X007858
X008858
X009858
X0098Y016
X0088
Y015
X0098
Y014
X0088
X012215Y018161
X013215
X014215
X016573
X017573
X02013Y0141
Y0131
Y005555
Y004555
T03
X003681Y007222
Y008313
Y009404
Y010494
X004799Y011039
Y009949
Y008858
Y007768
Y006677
T04
X019685Y0
X0
Y017717
X019685
T05
X00424Y003939
Y013778
M30
