G04 Layer_Physical_Order=1*
G04 Layer_Color=255*
%FSLAX24Y24*%
%MOIN*%
G70*
G01*
G75*
%ADD10O,0.0689X0.0217*%
%ADD11O,0.0217X0.0689*%
%ADD12R,0.0276X0.0354*%
%ADD13R,0.0354X0.0276*%
%ADD14R,0.0394X0.0374*%
%ADD15R,0.0374X0.0394*%
%ADD16R,0.0433X0.0551*%
%ADD17R,0.0945X0.0413*%
%ADD18R,0.3504X0.4193*%
%ADD19R,0.0669X0.0433*%
%ADD20R,0.0433X0.0669*%
%ADD21C,0.0200*%
%ADD22C,0.0100*%
%ADD23C,0.0400*%
%ADD24R,0.0591X0.0591*%
%ADD25C,0.0591*%
%ADD26R,0.0591X0.0591*%
%ADD27C,0.0665*%
%ADD28R,0.0665X0.0665*%
%ADD29C,0.1874*%
%ADD30C,0.0500*%
%ADD31C,0.1969*%
G36*
X19922Y19518D02*
X20155Y19472D01*
X20381Y19396D01*
X20594Y19290D01*
X20791Y19158D01*
X20970Y19002D01*
X21127Y18823D01*
X21259Y18625D01*
X21364Y18412D01*
X21441Y18187D01*
X21487Y17954D01*
X21502Y17723D01*
X21501Y17717D01*
Y0D01*
X21502Y-7D01*
X21487Y-237D01*
X21441Y-470D01*
X21364Y-695D01*
X21259Y-909D01*
X21127Y-1106D01*
X20970Y-1285D01*
X20791Y-1442D01*
X20594Y-1574D01*
X20381Y-1679D01*
X20155Y-1755D01*
X19922Y-1802D01*
X19692Y-1817D01*
X19685Y-1816D01*
X0D01*
X-7Y-1817D01*
X-237Y-1802D01*
X-470Y-1755D01*
X-695Y-1679D01*
X-909Y-1574D01*
X-1106Y-1442D01*
X-1285Y-1285D01*
X-1442Y-1106D01*
X-1574Y-909D01*
X-1679Y-695D01*
X-1755Y-470D01*
X-1802Y-237D01*
X-1817Y-7D01*
X-1816Y0D01*
Y17717D01*
X-1817Y17723D01*
X-1802Y17954D01*
X-1755Y18187D01*
X-1679Y18412D01*
X-1574Y18625D01*
X-1442Y18823D01*
X-1285Y19002D01*
X-1106Y19158D01*
X-909Y19290D01*
X-695Y19396D01*
X-470Y19472D01*
X-237Y19518D01*
X-7Y19533D01*
X0Y19532D01*
X19685D01*
X19692Y19533D01*
X19922Y19518D01*
D02*
G37*
%LPC*%
G36*
X9165Y2950D02*
X8820D01*
Y2605D01*
X9165D01*
Y2950D01*
D02*
G37*
G36*
X16607Y2505D02*
X16265D01*
Y2163D01*
X16319Y2170D01*
X16415Y2210D01*
X16497Y2273D01*
X16561Y2356D01*
X16600Y2452D01*
X16607Y2505D01*
D02*
G37*
G36*
X16265Y2947D02*
Y2605D01*
X16607D01*
X16600Y2658D01*
X16561Y2754D01*
X16497Y2837D01*
X16415Y2900D01*
X16319Y2940D01*
X16265Y2947D01*
D02*
G37*
G36*
X16165D02*
X16112Y2940D01*
X16016Y2900D01*
X15933Y2837D01*
X15870Y2754D01*
X15830Y2658D01*
X15823Y2605D01*
X16165D01*
Y2947D01*
D02*
G37*
G36*
X9611Y2505D02*
X9265D01*
Y2160D01*
X9611D01*
Y2505D01*
D02*
G37*
G36*
X9165D02*
X8820D01*
Y2160D01*
X9165D01*
Y2505D01*
D02*
G37*
G36*
X16165D02*
X15823D01*
X15830Y2452D01*
X15870Y2356D01*
X15933Y2273D01*
X16016Y2210D01*
X16112Y2170D01*
X16165Y2163D01*
Y2505D01*
D02*
G37*
G36*
X20080Y2505D02*
X19735D01*
Y2160D01*
X20080D01*
Y2505D01*
D02*
G37*
G36*
X20525Y2950D02*
X20180D01*
Y2605D01*
X20525D01*
Y2950D01*
D02*
G37*
G36*
X9770Y7324D02*
X9689Y7308D01*
X9620Y7262D01*
X9605D01*
X9536Y7308D01*
X9455Y7324D01*
X9374Y7308D01*
X9305Y7262D01*
X9290D01*
X9221Y7308D01*
X9140Y7324D01*
X9059Y7308D01*
X8990Y7262D01*
X8975D01*
X8906Y7308D01*
X8825Y7324D01*
X8744Y7308D01*
X8675Y7262D01*
X8629Y7193D01*
X8613Y7112D01*
Y6639D01*
X8621Y6597D01*
Y3945D01*
X8637Y3867D01*
X8681Y3801D01*
X9486Y2997D01*
X9466Y2950D01*
X9265D01*
Y2605D01*
X9611D01*
Y2806D01*
X9657Y2825D01*
X9830Y2653D01*
X9817Y2555D01*
X9830Y2452D01*
X9870Y2356D01*
X9933Y2273D01*
X10016Y2210D01*
X10112Y2170D01*
X10215Y2156D01*
X10319Y2170D01*
X10415Y2210D01*
X10497Y2273D01*
X10561Y2356D01*
X10600Y2452D01*
X10614Y2555D01*
X10600Y2658D01*
X10561Y2754D01*
X10497Y2837D01*
X10415Y2900D01*
X10319Y2940D01*
X10215Y2954D01*
X10118Y2941D01*
X9029Y4030D01*
Y5167D01*
X9075Y5186D01*
X10256Y4006D01*
X10322Y3962D01*
X10400Y3946D01*
X10400Y3946D01*
X13536D01*
X14830Y2653D01*
X14817Y2555D01*
X14830Y2452D01*
X14870Y2356D01*
X14933Y2273D01*
X15016Y2210D01*
X15112Y2170D01*
X15215Y2156D01*
X15319Y2170D01*
X15415Y2210D01*
X15497Y2273D01*
X15561Y2356D01*
X15600Y2452D01*
X15614Y2555D01*
X15600Y2658D01*
X15561Y2754D01*
X15497Y2837D01*
X15415Y2900D01*
X15319Y2940D01*
X15215Y2954D01*
X15118Y2941D01*
X13765Y4294D01*
X13699Y4338D01*
X13620Y4354D01*
X10484D01*
X9344Y5494D01*
Y6408D01*
X9394Y6439D01*
X9455Y6427D01*
X9536Y6443D01*
X9605Y6489D01*
X9620D01*
X9689Y6443D01*
X9770Y6427D01*
X9851Y6443D01*
X9920Y6489D01*
X9935D01*
X10004Y6443D01*
X10035Y6437D01*
Y6876D01*
Y7314D01*
X10004Y7308D01*
X9935Y7262D01*
X9920D01*
X9851Y7308D01*
X9770Y7324D01*
D02*
G37*
G36*
X3681Y7659D02*
X3568Y7644D01*
X3463Y7600D01*
X3372Y7531D01*
X3303Y7441D01*
X3259Y7335D01*
X3244Y7222D01*
X3259Y7109D01*
X3303Y7004D01*
X3372Y6914D01*
X3463Y6844D01*
X3568Y6801D01*
X3681Y6786D01*
X3794Y6801D01*
X3899Y6844D01*
X3989Y6914D01*
X4059Y7004D01*
X4102Y7109D01*
X4117Y7222D01*
X4102Y7335D01*
X4059Y7441D01*
X3989Y7531D01*
X3899Y7600D01*
X3794Y7644D01*
X3681Y7659D01*
D02*
G37*
G36*
X17991Y7643D02*
X17764D01*
Y7455D01*
X17991D01*
Y7643D01*
D02*
G37*
G36*
X4799Y8204D02*
X4686Y8189D01*
X4581Y8146D01*
X4490Y8076D01*
X4421Y7986D01*
X4377Y7881D01*
X4363Y7768D01*
X4377Y7655D01*
X4421Y7550D01*
X4490Y7459D01*
X4581Y7390D01*
X4686Y7346D01*
X4799Y7331D01*
X4912Y7346D01*
X5017Y7390D01*
X5108Y7459D01*
X5177Y7550D01*
X5220Y7655D01*
X5235Y7768D01*
X5220Y7881D01*
X5177Y7986D01*
X5108Y8076D01*
X5017Y8146D01*
X4912Y8189D01*
X4799Y8204D01*
D02*
G37*
G36*
X12028Y5380D02*
X11435D01*
Y4806D01*
X12028D01*
Y4980D01*
X12096D01*
Y4895D01*
X12650D01*
Y5370D01*
X12096D01*
Y5286D01*
X12028D01*
Y5380D01*
D02*
G37*
G36*
X4240Y4979D02*
X4077Y4966D01*
X3918Y4928D01*
X3768Y4866D01*
X3628Y4781D01*
X3504Y4675D01*
X3398Y4550D01*
X3313Y4411D01*
X3251Y4260D01*
X3212Y4102D01*
X3200Y3939D01*
X3212Y3776D01*
X3251Y3618D01*
X3313Y3467D01*
X3398Y3328D01*
X3504Y3203D01*
X3628Y3097D01*
X3768Y3012D01*
X3918Y2950D01*
X4077Y2912D01*
X4240Y2899D01*
X4403Y2912D01*
X4561Y2950D01*
X4712Y3012D01*
X4851Y3097D01*
X4975Y3203D01*
X5081Y3328D01*
X5167Y3467D01*
X5229Y3618D01*
X5267Y3776D01*
X5280Y3939D01*
X5267Y4102D01*
X5229Y4260D01*
X5167Y4411D01*
X5081Y4550D01*
X4975Y4675D01*
X4851Y4781D01*
X4712Y4866D01*
X4561Y4928D01*
X4403Y4966D01*
X4240Y4979D01*
D02*
G37*
G36*
X5232Y7110D02*
X4366D01*
Y6244D01*
X5232D01*
Y7110D01*
D02*
G37*
G36*
X11312Y5650D02*
X11045D01*
Y5324D01*
X11312D01*
Y5650D01*
D02*
G37*
G36*
X14215Y-46D02*
X14112Y-60D01*
X14016Y-100D01*
X13933Y-163D01*
X13870Y-246D01*
X13830Y-342D01*
X13817Y-445D01*
X13830Y-548D01*
X13870Y-644D01*
X13933Y-727D01*
X14016Y-790D01*
X14112Y-830D01*
X14215Y-844D01*
X14319Y-830D01*
X14415Y-790D01*
X14497Y-727D01*
X14561Y-644D01*
X14600Y-548D01*
X14614Y-445D01*
X14600Y-342D01*
X14561Y-246D01*
X14497Y-163D01*
X14415Y-100D01*
X14319Y-60D01*
X14215Y-46D01*
D02*
G37*
G36*
X13215D02*
X13112Y-60D01*
X13016Y-100D01*
X12933Y-163D01*
X12870Y-246D01*
X12830Y-342D01*
X12817Y-445D01*
X12830Y-548D01*
X12870Y-644D01*
X12933Y-727D01*
X13016Y-790D01*
X13112Y-830D01*
X13215Y-844D01*
X13319Y-830D01*
X13415Y-790D01*
X13497Y-727D01*
X13561Y-644D01*
X13600Y-548D01*
X13614Y-445D01*
X13600Y-342D01*
X13561Y-246D01*
X13497Y-163D01*
X13415Y-100D01*
X13319Y-60D01*
X13215Y-46D01*
D02*
G37*
G36*
X9165Y-495D02*
X8820D01*
Y-840D01*
X9165D01*
Y-495D01*
D02*
G37*
G36*
X7253Y-50D02*
X6462D01*
Y-840D01*
X7253D01*
Y-50D01*
D02*
G37*
G36*
X4500Y-46D02*
X4397Y-60D01*
X4301Y-100D01*
X4218Y-163D01*
X4155Y-246D01*
X4115Y-342D01*
X4101Y-445D01*
X4115Y-548D01*
X4155Y-644D01*
X4218Y-727D01*
X4301Y-790D01*
X4397Y-830D01*
X4500Y-844D01*
X4603Y-830D01*
X4699Y-790D01*
X4782Y-727D01*
X4845Y-644D01*
X4885Y-548D01*
X4899Y-445D01*
X4885Y-342D01*
X4845Y-246D01*
X4782Y-163D01*
X4699Y-100D01*
X4603Y-60D01*
X4500Y-46D01*
D02*
G37*
G36*
X0Y1088D02*
X-170Y1074D01*
X-336Y1034D01*
X-494Y969D01*
X-639Y880D01*
X-769Y769D01*
X-880Y639D01*
X-969Y494D01*
X-1034Y336D01*
X-1074Y170D01*
X-1088Y0D01*
X-1074Y-170D01*
X-1034Y-336D01*
X-969Y-494D01*
X-880Y-639D01*
X-769Y-769D01*
X-639Y-880D01*
X-494Y-969D01*
X-336Y-1034D01*
X-170Y-1074D01*
X0Y-1088D01*
X170Y-1074D01*
X336Y-1034D01*
X494Y-969D01*
X639Y-880D01*
X769Y-769D01*
X880Y-639D01*
X969Y-494D01*
X1034Y-336D01*
X1074Y-170D01*
X1088Y0D01*
X1074Y170D01*
X1034Y336D01*
X969Y494D01*
X880Y639D01*
X769Y769D01*
X639Y880D01*
X494Y969D01*
X336Y1034D01*
X170Y1074D01*
X0Y1088D01*
D02*
G37*
G36*
X12215Y-46D02*
X12112Y-60D01*
X12016Y-100D01*
X11933Y-163D01*
X11870Y-246D01*
X11830Y-342D01*
X11817Y-445D01*
X11830Y-548D01*
X11870Y-644D01*
X11933Y-727D01*
X12016Y-790D01*
X12112Y-830D01*
X12215Y-844D01*
X12319Y-830D01*
X12415Y-790D01*
X12497Y-727D01*
X12561Y-644D01*
X12600Y-548D01*
X12614Y-445D01*
X12600Y-342D01*
X12561Y-246D01*
X12497Y-163D01*
X12415Y-100D01*
X12319Y-60D01*
X12215Y-46D01*
D02*
G37*
G36*
X11215D02*
X11112Y-60D01*
X11016Y-100D01*
X10933Y-163D01*
X10870Y-246D01*
X10830Y-342D01*
X10817Y-445D01*
X10830Y-548D01*
X10870Y-644D01*
X10933Y-727D01*
X11016Y-790D01*
X11112Y-830D01*
X11215Y-844D01*
X11319Y-830D01*
X11415Y-790D01*
X11497Y-727D01*
X11561Y-644D01*
X11600Y-548D01*
X11614Y-445D01*
X11600Y-342D01*
X11561Y-246D01*
X11497Y-163D01*
X11415Y-100D01*
X11319Y-60D01*
X11215Y-46D01*
D02*
G37*
G36*
X9611Y-495D02*
X9265D01*
Y-840D01*
X9611D01*
Y-495D01*
D02*
G37*
G36*
X12215Y2954D02*
X12112Y2940D01*
X12016Y2900D01*
X11933Y2837D01*
X11870Y2754D01*
X11830Y2658D01*
X11817Y2555D01*
X11830Y2452D01*
X11870Y2356D01*
X11933Y2273D01*
X12016Y2210D01*
X12112Y2170D01*
X12215Y2156D01*
X12319Y2170D01*
X12415Y2210D01*
X12497Y2273D01*
X12561Y2356D01*
X12600Y2452D01*
X12614Y2555D01*
X12600Y2658D01*
X12561Y2754D01*
X12497Y2837D01*
X12415Y2900D01*
X12319Y2940D01*
X12215Y2954D01*
D02*
G37*
G36*
X11215D02*
X11112Y2940D01*
X11016Y2900D01*
X10933Y2837D01*
X10870Y2754D01*
X10830Y2658D01*
X10817Y2555D01*
X10830Y2452D01*
X10870Y2356D01*
X10933Y2273D01*
X11016Y2210D01*
X11112Y2170D01*
X11215Y2156D01*
X11319Y2170D01*
X11415Y2210D01*
X11497Y2273D01*
X11561Y2356D01*
X11600Y2452D01*
X11614Y2555D01*
X11600Y2658D01*
X11561Y2754D01*
X11497Y2837D01*
X11415Y2900D01*
X11319Y2940D01*
X11215Y2954D01*
D02*
G37*
G36*
X14215D02*
X14112Y2940D01*
X14016Y2900D01*
X13933Y2837D01*
X13870Y2754D01*
X13830Y2658D01*
X13817Y2555D01*
X13830Y2452D01*
X13870Y2356D01*
X13933Y2273D01*
X14016Y2210D01*
X14112Y2170D01*
X14215Y2156D01*
X14319Y2170D01*
X14415Y2210D01*
X14497Y2273D01*
X14561Y2356D01*
X14600Y2452D01*
X14614Y2555D01*
X14600Y2658D01*
X14561Y2754D01*
X14497Y2837D01*
X14415Y2900D01*
X14319Y2940D01*
X14215Y2954D01*
D02*
G37*
G36*
X13215D02*
X13112Y2940D01*
X13016Y2900D01*
X12933Y2837D01*
X12870Y2754D01*
X12830Y2658D01*
X12817Y2555D01*
X12830Y2452D01*
X12870Y2356D01*
X12933Y2273D01*
X13016Y2210D01*
X13112Y2170D01*
X13215Y2156D01*
X13319Y2170D01*
X13415Y2210D01*
X13497Y2273D01*
X13561Y2356D01*
X13600Y2452D01*
X13614Y2555D01*
X13600Y2658D01*
X13561Y2754D01*
X13497Y2837D01*
X13415Y2900D01*
X13319Y2940D01*
X13215Y2954D01*
D02*
G37*
G36*
X9611Y-50D02*
X9265D01*
Y-395D01*
X9611D01*
Y-50D01*
D02*
G37*
G36*
X9165D02*
X8820D01*
Y-395D01*
X9165D01*
Y-50D01*
D02*
G37*
G36*
X6858Y1954D02*
X6754Y1940D01*
X6658Y1900D01*
X6576Y1837D01*
X6512Y1754D01*
X6473Y1658D01*
X6459Y1555D01*
X6473Y1452D01*
X6512Y1356D01*
X6576Y1273D01*
X6658Y1210D01*
X6754Y1170D01*
X6858Y1156D01*
X6961Y1170D01*
X7057Y1210D01*
X7140Y1273D01*
X7203Y1356D01*
X7243Y1452D01*
X7256Y1555D01*
X7243Y1658D01*
X7203Y1754D01*
X7140Y1837D01*
X7057Y1900D01*
X6961Y1940D01*
X6858Y1954D01*
D02*
G37*
G36*
Y954D02*
X6754Y940D01*
X6658Y900D01*
X6576Y837D01*
X6512Y754D01*
X6473Y658D01*
X6459Y555D01*
X6473Y452D01*
X6512Y356D01*
X6576Y273D01*
X6658Y210D01*
X6754Y170D01*
X6858Y156D01*
X6961Y170D01*
X7057Y210D01*
X7140Y273D01*
X7203Y356D01*
X7243Y452D01*
X7256Y555D01*
X7243Y658D01*
X7203Y754D01*
X7140Y837D01*
X7057Y900D01*
X6961Y940D01*
X6858Y954D01*
D02*
G37*
G36*
X18319Y7643D02*
X18091D01*
Y7455D01*
X18319D01*
Y7643D01*
D02*
G37*
G36*
X3500Y18560D02*
X3397Y18547D01*
X3301Y18507D01*
X3218Y18443D01*
X3155Y18361D01*
X3115Y18265D01*
X3101Y18161D01*
X3115Y18058D01*
X3155Y17962D01*
X3218Y17880D01*
X3301Y17816D01*
X3397Y17776D01*
X3500Y17763D01*
X3603Y17776D01*
X3699Y17816D01*
X3782Y17880D01*
X3845Y17962D01*
X3885Y18058D01*
X3899Y18161D01*
X3885Y18265D01*
X3845Y18361D01*
X3782Y18443D01*
X3699Y18507D01*
X3603Y18547D01*
X3500Y18560D01*
D02*
G37*
G36*
X2500D02*
X2397Y18547D01*
X2301Y18507D01*
X2218Y18443D01*
X2155Y18361D01*
X2115Y18265D01*
X2101Y18161D01*
X2115Y18058D01*
X2155Y17962D01*
X2218Y17880D01*
X2301Y17816D01*
X2397Y17776D01*
X2500Y17763D01*
X2603Y17776D01*
X2699Y17816D01*
X2782Y17880D01*
X2845Y17962D01*
X2885Y18058D01*
X2899Y18161D01*
X2885Y18265D01*
X2845Y18361D01*
X2782Y18443D01*
X2699Y18507D01*
X2603Y18547D01*
X2500Y18560D01*
D02*
G37*
G36*
X11577Y18953D02*
X7650D01*
X7591Y18941D01*
X7542Y18908D01*
X6692Y18058D01*
X6659Y18009D01*
X6647Y17950D01*
Y12050D01*
X6659Y11992D01*
X6692Y11942D01*
X7791Y10843D01*
X7789Y10825D01*
X7743Y10756D01*
X7727Y10675D01*
X7743Y10594D01*
X7764Y10563D01*
X7737Y10513D01*
X7454D01*
X7358Y10608D01*
X7309Y10641D01*
X7250Y10653D01*
X5088D01*
X5071Y10703D01*
X5108Y10731D01*
X5177Y10821D01*
X5220Y10926D01*
X5235Y11039D01*
X5220Y11152D01*
X5177Y11258D01*
X5108Y11348D01*
X5017Y11417D01*
X4912Y11461D01*
X4799Y11476D01*
X4686Y11461D01*
X4581Y11417D01*
X4490Y11348D01*
X4421Y11258D01*
X4377Y11152D01*
X4363Y11039D01*
X4377Y10926D01*
X4421Y10821D01*
X4490Y10731D01*
X4566Y10673D01*
X4570Y10626D01*
X4567Y10613D01*
X4559Y10608D01*
X3778Y9827D01*
X3681Y9840D01*
X3568Y9825D01*
X3463Y9781D01*
X3372Y9712D01*
X3303Y9622D01*
X3259Y9516D01*
X3244Y9404D01*
X3259Y9291D01*
X3303Y9185D01*
X3372Y9095D01*
X3463Y9026D01*
X3568Y8982D01*
X3681Y8967D01*
X3794Y8982D01*
X3899Y9026D01*
X3989Y9095D01*
X4059Y9185D01*
X4102Y9291D01*
X4117Y9404D01*
X4102Y9516D01*
X4059Y9622D01*
X4036Y9652D01*
X4314Y9931D01*
X4367Y9913D01*
X4377Y9836D01*
X4421Y9731D01*
X4490Y9640D01*
X4581Y9571D01*
X4686Y9527D01*
X4799Y9512D01*
X4912Y9527D01*
X5017Y9571D01*
X5108Y9640D01*
X5177Y9731D01*
X5220Y9836D01*
X5235Y9949D01*
X5220Y10062D01*
X5177Y10167D01*
X5108Y10257D01*
X5056Y10297D01*
X5073Y10347D01*
X7187D01*
X7282Y10252D01*
X7332Y10219D01*
X7390Y10207D01*
X7627D01*
X7643Y10157D01*
X7637Y10153D01*
X7231Y9747D01*
X7185Y9766D01*
Y9782D01*
X6750D01*
X6315D01*
Y9515D01*
X6270Y9503D01*
X5850D01*
X5791Y9491D01*
X5742Y9458D01*
X5295Y9011D01*
X5204D01*
X5177Y9076D01*
X5108Y9167D01*
X5017Y9236D01*
X4912Y9280D01*
X4799Y9295D01*
X4686Y9280D01*
X4581Y9236D01*
X4490Y9167D01*
X4421Y9076D01*
X4377Y8971D01*
X4363Y8858D01*
X4377Y8745D01*
X4421Y8640D01*
X4490Y8550D01*
X4581Y8480D01*
X4686Y8437D01*
X4799Y8422D01*
X4912Y8437D01*
X5017Y8480D01*
X5108Y8550D01*
X5177Y8640D01*
X5204Y8705D01*
X5358D01*
X5417Y8717D01*
X5466Y8750D01*
X5913Y9197D01*
X7050D01*
X7109Y9209D01*
X7158Y9242D01*
X7683Y9767D01*
X7730Y9743D01*
X7727Y9730D01*
X7743Y9649D01*
X7789Y9580D01*
Y9565D01*
X7743Y9496D01*
X7727Y9415D01*
X7743Y9334D01*
X7768Y9296D01*
X7786Y9257D01*
X7768Y9219D01*
X7743Y9181D01*
X7737Y9150D01*
X8176D01*
X8614D01*
X8608Y9181D01*
X8583Y9219D01*
X8565Y9257D01*
X8583Y9296D01*
X8608Y9334D01*
X8624Y9415D01*
X8608Y9496D01*
X8562Y9565D01*
Y9580D01*
X8608Y9649D01*
X8624Y9730D01*
X8608Y9811D01*
X8583Y9849D01*
X8565Y9887D01*
X8583Y9926D01*
X8608Y9964D01*
X8624Y10045D01*
X8608Y10126D01*
X8562Y10195D01*
Y10210D01*
X8608Y10279D01*
X8624Y10360D01*
X8608Y10441D01*
X8562Y10510D01*
Y10525D01*
X8608Y10594D01*
X8624Y10675D01*
X8608Y10756D01*
X8562Y10825D01*
X8493Y10871D01*
X8412Y10887D01*
X8180D01*
X6953Y12114D01*
Y17887D01*
X7523Y18457D01*
X7559Y18425D01*
D01*
X7560Y18424D01*
X7532Y18386D01*
X7512Y18361D01*
X7473Y18265D01*
X7459Y18161D01*
X7473Y18058D01*
X7512Y17962D01*
X7576Y17880D01*
X7658Y17816D01*
X7705Y17797D01*
Y12292D01*
X7716Y12233D01*
X7750Y12184D01*
X8613Y11320D01*
Y11088D01*
X8629Y11007D01*
X8675Y10938D01*
X8744Y10892D01*
X8825Y10876D01*
X8906Y10892D01*
X8937Y10913D01*
X8987Y10886D01*
Y9410D01*
X8999Y9351D01*
X9032Y9302D01*
X9169Y9165D01*
X9159Y9141D01*
X9147Y9050D01*
X9159Y8959D01*
X9194Y8873D01*
X9250Y8800D01*
X9323Y8744D01*
X9409Y8709D01*
X9500Y8697D01*
X9591Y8709D01*
X9677Y8744D01*
X9750Y8800D01*
X9806Y8873D01*
X9841Y8959D01*
X9853Y9050D01*
X9841Y9141D01*
X9806Y9227D01*
X9750Y9300D01*
X9677Y9356D01*
X9591Y9391D01*
X9500Y9403D01*
X9409Y9391D01*
X9385Y9381D01*
X9293Y9473D01*
Y10845D01*
X9343Y10874D01*
X9359Y10864D01*
Y10036D01*
X9371Y9978D01*
X9404Y9928D01*
X11960Y7372D01*
X11943Y7318D01*
X11894Y7308D01*
X11825Y7262D01*
X11810D01*
X11741Y7308D01*
X11660Y7324D01*
X11579Y7308D01*
X11510Y7262D01*
X11495D01*
X11426Y7308D01*
X11345Y7324D01*
X11264Y7308D01*
X11226Y7283D01*
X11187Y7265D01*
X11149Y7283D01*
X11111Y7308D01*
X11030Y7324D01*
X10949Y7308D01*
X10880Y7262D01*
X10865D01*
X10796Y7308D01*
X10765Y7314D01*
Y6876D01*
X10665D01*
Y7314D01*
X10634Y7308D01*
X10565Y7262D01*
X10550D01*
X10481Y7308D01*
X10400Y7324D01*
X10319Y7308D01*
X10250Y7262D01*
X10235D01*
X10166Y7308D01*
X10135Y7314D01*
Y6876D01*
Y6437D01*
X10166Y6443D01*
X10197Y6464D01*
X10247Y6437D01*
Y6076D01*
X10088D01*
Y5324D01*
X10256D01*
X10263Y5287D01*
X10297Y5237D01*
X10519Y5015D01*
X10509Y4991D01*
X10497Y4900D01*
X10509Y4809D01*
X10544Y4723D01*
X10600Y4650D01*
X10673Y4594D01*
X10759Y4559D01*
X10850Y4547D01*
X10941Y4559D01*
X11027Y4594D01*
X11100Y4650D01*
X11156Y4723D01*
X11191Y4809D01*
X11203Y4900D01*
X11191Y4991D01*
X11156Y5077D01*
X11100Y5150D01*
X11027Y5206D01*
X10941Y5241D01*
X10850Y5253D01*
X10759Y5241D01*
X10735Y5231D01*
X10688Y5278D01*
X10707Y5324D01*
X10945D01*
Y5700D01*
X10995D01*
Y5750D01*
X11312D01*
Y5806D01*
X11358Y5825D01*
X11435Y5749D01*
Y5436D01*
X12028D01*
Y6010D01*
X11606D01*
X11258Y6358D01*
X11208Y6391D01*
X11150Y6403D01*
X11141D01*
X11125Y6453D01*
X11180Y6489D01*
X11195D01*
X11264Y6443D01*
X11345Y6427D01*
X11426Y6443D01*
X11495Y6489D01*
X11510D01*
X11579Y6443D01*
X11660Y6427D01*
X11741Y6443D01*
X11810Y6489D01*
X11825D01*
X11894Y6443D01*
X11952Y6432D01*
X12220Y6164D01*
Y5961D01*
X12096D01*
Y5485D01*
X12650D01*
Y5961D01*
X12526D01*
Y6227D01*
X12514Y6286D01*
X12481Y6335D01*
X12185Y6631D01*
X12187Y6639D01*
Y7074D01*
X12237Y7095D01*
X13885Y5447D01*
X13935Y5414D01*
X13993Y5402D01*
X19765D01*
X19785Y5356D01*
X19848Y5273D01*
X19931Y5210D01*
X19946Y5203D01*
X19936Y5153D01*
X19163D01*
Y5304D01*
X18688D01*
Y4749D01*
X18688D01*
X18688Y4731D01*
X18688D01*
Y4177D01*
X18688D01*
X18688Y4159D01*
X18688D01*
Y3604D01*
X18688D01*
X18688Y3586D01*
X18688D01*
Y3287D01*
X18619Y3219D01*
X18573Y3238D01*
Y3586D01*
X18573D01*
X18573Y3604D01*
X18573D01*
Y4127D01*
X18573Y4177D01*
X18573Y4209D01*
Y4731D01*
X18573D01*
X18573Y4749D01*
X18573D01*
Y5304D01*
X18097D01*
Y4749D01*
X18097D01*
X18097Y4731D01*
X18097D01*
Y4209D01*
X18097Y4159D01*
X18097Y4127D01*
Y4053D01*
X15867D01*
X15858Y4077D01*
X15801Y4150D01*
X15728Y4206D01*
X15643Y4241D01*
X15552Y4253D01*
X15460Y4241D01*
X15375Y4206D01*
X15302Y4150D01*
X15246Y4077D01*
X15211Y3991D01*
X15199Y3900D01*
X15211Y3809D01*
X15246Y3723D01*
X15302Y3650D01*
X15375Y3594D01*
X15460Y3559D01*
X15552Y3547D01*
X15643Y3559D01*
X15728Y3594D01*
X15801Y3650D01*
X15858Y3723D01*
X15867Y3747D01*
X18097D01*
Y3604D01*
X18097D01*
X18097Y3586D01*
X18097D01*
Y3032D01*
X18330D01*
X18355Y2982D01*
X18342Y2964D01*
X18028D01*
Y2371D01*
X18602D01*
Y2729D01*
X18608Y2733D01*
X18658Y2706D01*
Y2371D01*
X19232D01*
Y2515D01*
X19242D01*
X19301Y2526D01*
X19350Y2559D01*
X19688Y2897D01*
X19735Y2878D01*
Y2605D01*
X20080D01*
Y2950D01*
X19807D01*
X19788Y2997D01*
X19980Y3189D01*
X20027Y3170D01*
X20130Y3156D01*
X20233Y3170D01*
X20329Y3210D01*
X20412Y3273D01*
X20475Y3356D01*
X20515Y3452D01*
X20529Y3555D01*
X20515Y3658D01*
X20496Y3705D01*
X20601Y3810D01*
X20647Y3791D01*
Y2375D01*
X20571Y2299D01*
X20525Y2318D01*
Y2505D01*
X20180D01*
Y2160D01*
X20367D01*
X20386Y2114D01*
X19975Y1703D01*
X18110D01*
X18032Y1692D01*
X17959Y1662D01*
X17896Y1614D01*
X16234Y-49D01*
X16215Y-46D01*
X16112Y-60D01*
X16016Y-100D01*
X15933Y-163D01*
X15870Y-246D01*
X15830Y-342D01*
X15817Y-445D01*
X15819Y-463D01*
X15576Y-706D01*
X15538Y-673D01*
X15561Y-644D01*
X15600Y-548D01*
X15614Y-445D01*
X15600Y-342D01*
X15561Y-246D01*
X15497Y-163D01*
X15415Y-100D01*
X15319Y-60D01*
X15215Y-46D01*
X15162Y-53D01*
X14115Y994D01*
X14049Y1038D01*
X13970Y1054D01*
X9809D01*
X7104Y3759D01*
Y7041D01*
X7384Y7321D01*
X7897D01*
X7939Y7313D01*
X8412D01*
X8493Y7329D01*
X8562Y7375D01*
X8608Y7444D01*
X8624Y7525D01*
X8608Y7606D01*
X8562Y7675D01*
Y7690D01*
X8608Y7759D01*
X8624Y7840D01*
X8608Y7921D01*
X8562Y7990D01*
Y8005D01*
X8608Y8074D01*
X8624Y8155D01*
X8608Y8236D01*
X8583Y8274D01*
X8565Y8313D01*
X8583Y8351D01*
X8608Y8389D01*
X8624Y8470D01*
X8608Y8551D01*
X8562Y8620D01*
Y8635D01*
X8608Y8704D01*
X8624Y8785D01*
X8608Y8866D01*
X8562Y8935D01*
Y8950D01*
X8608Y9019D01*
X8614Y9050D01*
X8176D01*
X7737D01*
X7739Y9039D01*
X7708Y8989D01*
X7185D01*
Y9085D01*
X6315D01*
Y8452D01*
X6597D01*
Y8391D01*
X6547Y8347D01*
X6500Y8353D01*
X6409Y8341D01*
X6323Y8306D01*
X6250Y8250D01*
X6194Y8177D01*
X6159Y8091D01*
X6147Y8000D01*
X6159Y7909D01*
X6194Y7823D01*
X6250Y7750D01*
X6323Y7694D01*
X6409Y7659D01*
X6500Y7647D01*
X6591Y7659D01*
X6677Y7694D01*
X6714Y7723D01*
X6747Y7685D01*
X6456Y7394D01*
X6412Y7328D01*
X6396Y7250D01*
Y3550D01*
X6412Y3472D01*
X6456Y3406D01*
X6861Y3001D01*
X6839Y2951D01*
X6754Y2940D01*
X6658Y2900D01*
X6576Y2837D01*
X6512Y2754D01*
X6473Y2658D01*
X6459Y2555D01*
X6473Y2452D01*
X6512Y2356D01*
X6576Y2273D01*
X6658Y2210D01*
X6754Y2170D01*
X6858Y2156D01*
X6961Y2170D01*
X7057Y2210D01*
X7140Y2273D01*
X7203Y2356D01*
X7243Y2452D01*
X7254Y2537D01*
X7303Y2558D01*
X9958Y-97D01*
X9955Y-146D01*
X9933Y-163D01*
X9870Y-246D01*
X9830Y-342D01*
X9817Y-445D01*
X9830Y-548D01*
X9870Y-644D01*
X9933Y-727D01*
X10016Y-790D01*
X10112Y-830D01*
X10215Y-844D01*
X10319Y-830D01*
X10415Y-790D01*
X10497Y-727D01*
X10561Y-644D01*
X10600Y-548D01*
X10614Y-445D01*
X10600Y-342D01*
X10561Y-246D01*
X10497Y-163D01*
X10415Y-100D01*
X10404Y-95D01*
Y-50D01*
X10388Y28D01*
X10344Y94D01*
X9839Y600D01*
X9858Y646D01*
X13886D01*
X14843Y-311D01*
X14830Y-342D01*
X14817Y-445D01*
X14830Y-548D01*
X14870Y-644D01*
X14933Y-727D01*
X15016Y-790D01*
X15112Y-830D01*
X15215Y-844D01*
X15319Y-830D01*
X15415Y-790D01*
X15444Y-768D01*
X15477Y-806D01*
X15335Y-947D01*
X3430D01*
X3346Y-863D01*
X3374Y-821D01*
X3397Y-830D01*
X3500Y-844D01*
X3603Y-830D01*
X3699Y-790D01*
X3782Y-727D01*
X3845Y-644D01*
X3885Y-548D01*
X3899Y-445D01*
X3885Y-342D01*
X3845Y-246D01*
X3782Y-163D01*
X3699Y-100D01*
X3603Y-60D01*
X3500Y-46D01*
X3397Y-60D01*
X3301Y-100D01*
X3218Y-163D01*
X3155Y-246D01*
X3115Y-342D01*
X3101Y-445D01*
X3115Y-548D01*
X3124Y-570D01*
X3082Y-599D01*
X2895Y-412D01*
Y-50D01*
X2533D01*
X1803Y680D01*
Y9025D01*
X2969Y10192D01*
X3368D01*
X3372Y10186D01*
X3463Y10116D01*
X3568Y10073D01*
X3681Y10058D01*
X3794Y10073D01*
X3899Y10116D01*
X3989Y10186D01*
X4059Y10276D01*
X4102Y10381D01*
X4117Y10494D01*
X4102Y10607D01*
X4059Y10712D01*
X3989Y10803D01*
X3899Y10872D01*
X3794Y10916D01*
X3681Y10931D01*
X3568Y10916D01*
X3463Y10872D01*
X3372Y10803D01*
X3368Y10797D01*
X2844D01*
X2766Y10786D01*
X2693Y10756D01*
X2630Y10708D01*
X2630Y10708D01*
X1286Y9364D01*
X1238Y9301D01*
X1208Y9228D01*
X1197Y9150D01*
Y555D01*
X1208Y477D01*
X1238Y404D01*
X1286Y341D01*
X2105Y-478D01*
Y-840D01*
X2467D01*
X3091Y-1464D01*
X3154Y-1512D01*
X3227Y-1542D01*
X3305Y-1553D01*
X3305Y-1553D01*
X15460D01*
X15539Y-1542D01*
X15612Y-1512D01*
X15674Y-1464D01*
X16307Y-832D01*
X16319Y-830D01*
X16415Y-790D01*
X16497Y-727D01*
X16561Y-644D01*
X16600Y-548D01*
X16602Y-536D01*
X18236Y1097D01*
X19397D01*
X19403Y1047D01*
X19349Y1034D01*
X19191Y969D01*
X19046Y880D01*
X18916Y769D01*
X18805Y639D01*
X18716Y494D01*
X18651Y336D01*
X18611Y170D01*
X18597Y0D01*
X18611Y-170D01*
X18651Y-336D01*
X18716Y-494D01*
X18805Y-639D01*
X18916Y-769D01*
X19046Y-880D01*
X19191Y-969D01*
X19349Y-1034D01*
X19515Y-1074D01*
X19685Y-1088D01*
X19855Y-1074D01*
X20021Y-1034D01*
X20179Y-969D01*
X20324Y-880D01*
X20454Y-769D01*
X20565Y-639D01*
X20654Y-494D01*
X20719Y-336D01*
X20759Y-170D01*
X20773Y0D01*
X20759Y170D01*
X20719Y336D01*
X20654Y494D01*
X20565Y639D01*
X20454Y769D01*
X20324Y880D01*
X20179Y969D01*
X20021Y1034D01*
X19967Y1047D01*
X19973Y1097D01*
X20100D01*
X20178Y1108D01*
X20251Y1138D01*
X20314Y1186D01*
X21164Y2036D01*
X21164Y2036D01*
X21212Y2099D01*
X21242Y2172D01*
X21253Y2250D01*
X21253Y2250D01*
Y5973D01*
X21242Y6051D01*
X21212Y6124D01*
X21164Y6187D01*
X20710Y6641D01*
Y6905D01*
X20710D01*
Y6923D01*
X20710D01*
Y7674D01*
X20710D01*
Y7692D01*
X20710D01*
Y8444D01*
X20710D01*
Y8462D01*
X20710D01*
Y9331D01*
X20710D01*
Y9365D01*
X20710D01*
Y10235D01*
X20696D01*
Y12836D01*
X20686Y12915D01*
X20656Y12988D01*
X20608Y13050D01*
X20525Y13133D01*
Y13495D01*
X19735D01*
Y13403D01*
X19422D01*
Y13407D01*
X18971D01*
X17876Y14502D01*
Y17766D01*
X17968D01*
Y18557D01*
X17178D01*
Y17766D01*
X17270D01*
Y14377D01*
X17281Y14299D01*
X17311Y14226D01*
X17359Y14163D01*
X18278Y13245D01*
Y12793D01*
X19422D01*
Y12797D01*
X19735D01*
Y12705D01*
X20091D01*
Y10235D01*
X20077D01*
Y9365D01*
X20077D01*
Y9331D01*
X20077D01*
Y8462D01*
X20035Y8444D01*
X19716D01*
X19647Y8512D01*
Y9331D01*
X19647D01*
Y9365D01*
X19647D01*
Y10235D01*
X19014D01*
Y9365D01*
X19014D01*
Y9331D01*
X19014D01*
Y8462D01*
X19143D01*
X19187Y8396D01*
X19487Y8096D01*
Y7692D01*
X19487D01*
Y7674D01*
X19487D01*
Y6923D01*
X19487D01*
Y6905D01*
X19487D01*
Y6795D01*
X19252D01*
Y6888D01*
X18884D01*
X18665Y7108D01*
X18615Y7141D01*
X18556Y7153D01*
X18363D01*
X18319Y7167D01*
X18319Y7203D01*
Y7355D01*
X18041D01*
X17764D01*
X17764Y7210D01*
X17714Y7182D01*
X17697Y7194D01*
Y7672D01*
X17103D01*
Y7194D01*
X17086Y7181D01*
X17036Y7207D01*
Y7643D01*
X16481D01*
Y7643D01*
X16463Y7643D01*
Y7643D01*
X15909D01*
Y7436D01*
X15863Y7417D01*
X15484Y7796D01*
X15503Y7842D01*
X15909D01*
Y7757D01*
X16431D01*
X16463Y7757D01*
X16513Y7757D01*
X17036D01*
Y7842D01*
X17103D01*
Y7728D01*
X17697D01*
Y7842D01*
X17764D01*
Y7757D01*
X18319D01*
Y8233D01*
X17764D01*
Y8148D01*
X17697D01*
Y8302D01*
X17103D01*
Y8148D01*
X17036D01*
Y8233D01*
X16513D01*
X16481Y8233D01*
X16431Y8233D01*
X15909D01*
Y8148D01*
X15132D01*
X14335Y8945D01*
Y9535D01*
X14222D01*
Y11904D01*
X16627D01*
Y16296D01*
X12923D01*
Y11904D01*
X13815D01*
Y9535D01*
X13702D01*
Y9304D01*
X13092D01*
X13061Y9354D01*
X13073Y9415D01*
X13057Y9496D01*
X13011Y9565D01*
Y9580D01*
X13057Y9649D01*
X13073Y9730D01*
X13057Y9811D01*
X13032Y9849D01*
X13014Y9887D01*
X13032Y9926D01*
X13057Y9964D01*
X13073Y10045D01*
X13057Y10126D01*
X13011Y10195D01*
Y10210D01*
X13057Y10279D01*
X13073Y10360D01*
X13057Y10441D01*
X13011Y10510D01*
Y10525D01*
X13057Y10594D01*
X13073Y10675D01*
X13057Y10756D01*
X13011Y10825D01*
X12942Y10871D01*
X12861Y10887D01*
X12777D01*
Y17507D01*
X13066Y17796D01*
X13112Y17776D01*
X13215Y17763D01*
X13319Y17776D01*
X13415Y17816D01*
X13497Y17880D01*
X13561Y17962D01*
X13600Y18058D01*
X13614Y18161D01*
X13600Y18265D01*
X13561Y18361D01*
X13497Y18443D01*
X13415Y18507D01*
X13319Y18547D01*
X13215Y18560D01*
X13112Y18547D01*
X13016Y18507D01*
X12933Y18443D01*
X12870Y18361D01*
X12830Y18265D01*
X12817Y18161D01*
X12830Y18058D01*
X12849Y18012D01*
X12516Y17679D01*
X12483Y17629D01*
X12471Y17570D01*
Y10887D01*
X12411D01*
X12398Y10900D01*
X12376Y10932D01*
X12376Y10932D01*
X12386Y10981D01*
Y14767D01*
X12374Y14825D01*
X12341Y14875D01*
X9500Y17716D01*
X9521Y17766D01*
X9808D01*
Y18111D01*
X9462D01*
Y17825D01*
X9412Y17804D01*
X9218Y17998D01*
X9243Y18058D01*
X9256Y18161D01*
X9243Y18265D01*
X9203Y18361D01*
X9140Y18443D01*
X9057Y18507D01*
X8961Y18547D01*
X8858Y18560D01*
X8754Y18547D01*
X8658Y18507D01*
X8576Y18443D01*
X8512Y18361D01*
X8473Y18265D01*
X8459Y18161D01*
X8473Y18058D01*
X8512Y17962D01*
X8576Y17880D01*
X8658Y17816D01*
X8754Y17776D01*
X8858Y17763D01*
X8961Y17776D01*
X8994Y17790D01*
X12080Y14704D01*
Y13084D01*
X12034Y13065D01*
X10187Y14912D01*
X10199Y15000D01*
X10185Y15103D01*
X10145Y15199D01*
X10082Y15282D01*
X9999Y15345D01*
X9903Y15385D01*
X9800Y15399D01*
X9697Y15385D01*
X9601Y15345D01*
X9547Y15304D01*
X9535Y15304D01*
X9486Y15319D01*
X9463Y15353D01*
X9195Y15621D01*
Y16395D01*
X8405D01*
Y15605D01*
X8779D01*
X8974Y15410D01*
X8945Y15368D01*
X8903Y15385D01*
X8800Y15399D01*
X8697Y15385D01*
X8601Y15345D01*
X8518Y15282D01*
X8455Y15199D01*
X8415Y15103D01*
X8401Y15000D01*
X8415Y14897D01*
X8455Y14801D01*
X8518Y14718D01*
X8601Y14655D01*
X8697Y14615D01*
X8800Y14601D01*
X8903Y14615D01*
X8950Y14634D01*
X9202Y14382D01*
Y14194D01*
X9152Y14184D01*
X9145Y14199D01*
X9082Y14282D01*
X8999Y14345D01*
X8903Y14385D01*
X8800Y14399D01*
X8697Y14385D01*
X8601Y14345D01*
X8518Y14282D01*
X8455Y14199D01*
X8415Y14103D01*
X8401Y14000D01*
X8415Y13897D01*
X8455Y13801D01*
X8518Y13718D01*
X8601Y13655D01*
X8647Y13636D01*
Y12933D01*
X8659Y12874D01*
X8692Y12824D01*
X8766Y12751D01*
Y12452D01*
X9320D01*
X9338Y12410D01*
Y12380D01*
X9320Y12337D01*
X9288Y12337D01*
X9093D01*
Y12099D01*
Y11861D01*
X9320D01*
Y11932D01*
X9338Y11974D01*
X9370Y11974D01*
X9605D01*
Y12350D01*
Y12726D01*
X9338D01*
X9320Y12768D01*
Y12928D01*
X9021D01*
X8953Y12996D01*
Y13565D01*
X8999Y13585D01*
X9392Y13192D01*
X9441Y13159D01*
X9500Y13147D01*
X10237D01*
X10873Y12511D01*
Y11766D01*
X10823Y11739D01*
X10796Y11757D01*
X10765Y11763D01*
Y11324D01*
Y10886D01*
X10796Y10892D01*
X10865Y10938D01*
X10880D01*
X10949Y10892D01*
X11030Y10876D01*
X11111Y10892D01*
X11149Y10917D01*
X11187Y10935D01*
X11226Y10917D01*
X11264Y10892D01*
X11345Y10876D01*
X11426Y10892D01*
X11495Y10938D01*
X11510D01*
X11579Y10892D01*
X11660Y10876D01*
X11741Y10892D01*
X11810Y10938D01*
X11825D01*
X11894Y10892D01*
X11905Y10839D01*
X11897Y10798D01*
Y10450D01*
X11909Y10391D01*
X11942Y10342D01*
X12032Y10252D01*
X12082Y10219D01*
X12140Y10207D01*
X12186D01*
X12213Y10157D01*
X12192Y10126D01*
X12176Y10045D01*
X12192Y9964D01*
X12217Y9926D01*
X12235Y9887D01*
X12217Y9849D01*
X12192Y9811D01*
X12176Y9730D01*
X12192Y9649D01*
X12238Y9580D01*
Y9565D01*
X12192Y9496D01*
X12176Y9415D01*
X12192Y9334D01*
X12217Y9296D01*
X12235Y9257D01*
X12217Y9219D01*
X12192Y9181D01*
X12176Y9100D01*
X12192Y9019D01*
X12238Y8950D01*
Y8935D01*
X12192Y8866D01*
X12186Y8835D01*
X12624D01*
X13063D01*
X13061Y8846D01*
X13092Y8896D01*
X13702D01*
Y8665D01*
X14182D01*
X14960Y7887D01*
X15956Y6892D01*
X16005Y6859D01*
X16064Y6847D01*
X18048D01*
Y6295D01*
X18182D01*
Y6227D01*
X18097D01*
Y5708D01*
X14056D01*
X12498Y7267D01*
X12517Y7313D01*
X12861D01*
X12942Y7329D01*
X13011Y7375D01*
X13057Y7444D01*
X13073Y7525D01*
X13057Y7606D01*
X13011Y7675D01*
Y7690D01*
X13057Y7759D01*
X13073Y7840D01*
X13057Y7921D01*
X13011Y7990D01*
Y8005D01*
X13057Y8074D01*
X13073Y8155D01*
X13057Y8236D01*
X13032Y8274D01*
X13014Y8313D01*
X13032Y8351D01*
X13057Y8389D01*
X13073Y8470D01*
X13057Y8551D01*
X13011Y8620D01*
Y8635D01*
X13057Y8704D01*
X13063Y8735D01*
X12624D01*
X12186D01*
X12192Y8704D01*
X12238Y8635D01*
Y8620D01*
X12192Y8551D01*
X12176Y8470D01*
X12192Y8389D01*
X12217Y8351D01*
X12235Y8313D01*
X12217Y8274D01*
X12192Y8236D01*
X12176Y8155D01*
X12192Y8074D01*
X12238Y8005D01*
Y7990D01*
X12192Y7921D01*
X12176Y7840D01*
X12192Y7759D01*
X12238Y7690D01*
Y7675D01*
X12207Y7628D01*
X12147Y7617D01*
X9665Y10100D01*
Y10853D01*
X9715Y10887D01*
X9770Y10876D01*
X9851Y10892D01*
X9920Y10938D01*
X9935D01*
X10004Y10892D01*
X10085Y10876D01*
X10166Y10892D01*
X10197Y10913D01*
X10247Y10886D01*
Y10665D01*
X10223Y10656D01*
X10150Y10600D01*
X10094Y10527D01*
X10059Y10441D01*
X10047Y10350D01*
X10059Y10259D01*
X10094Y10173D01*
X10150Y10100D01*
X10223Y10044D01*
X10309Y10009D01*
X10400Y9997D01*
X10491Y10009D01*
X10577Y10044D01*
X10650Y10100D01*
X10706Y10173D01*
X10741Y10259D01*
X10753Y10350D01*
X10741Y10441D01*
X10706Y10527D01*
X10650Y10600D01*
X10577Y10656D01*
X10553Y10665D01*
Y10886D01*
X10603Y10913D01*
X10634Y10892D01*
X10665Y10886D01*
Y11324D01*
Y11763D01*
X10634Y11757D01*
X10603Y11736D01*
X10553Y11763D01*
Y11974D01*
X10562D01*
Y12726D01*
X9705D01*
Y12350D01*
Y11974D01*
X10247D01*
Y11763D01*
X10197Y11736D01*
X10166Y11757D01*
X10085Y11773D01*
X10004Y11757D01*
X9935Y11711D01*
X9920D01*
X9851Y11757D01*
X9770Y11773D01*
X9689Y11757D01*
X9651Y11732D01*
X9613Y11714D01*
X9574Y11732D01*
X9536Y11757D01*
X9455Y11773D01*
X9374Y11757D01*
X9305Y11711D01*
X9290D01*
X9221Y11757D01*
X9140Y11773D01*
X9059Y11757D01*
X9021Y11732D01*
X8983Y11714D01*
X8944Y11732D01*
X8906Y11757D01*
X8825Y11773D01*
X8744Y11757D01*
X8675Y11711D01*
X8657Y11709D01*
X8011Y12355D01*
Y17797D01*
X8057Y17816D01*
X8140Y17880D01*
X8203Y17962D01*
X8243Y18058D01*
X8256Y18161D01*
X8243Y18265D01*
X8203Y18361D01*
X8140Y18443D01*
X8057Y18507D01*
X7961Y18547D01*
X7858Y18560D01*
X7754Y18547D01*
X7658Y18507D01*
X7633Y18487D01*
X7595Y18459D01*
X7594Y18460D01*
D01*
X7590Y18465D01*
X7562Y18496D01*
X7713Y18647D01*
X11513D01*
X11849Y18311D01*
X11830Y18265D01*
X11817Y18161D01*
X11830Y18058D01*
X11870Y17962D01*
X11933Y17880D01*
X12016Y17816D01*
X12112Y17776D01*
X12215Y17763D01*
X12319Y17776D01*
X12415Y17816D01*
X12497Y17880D01*
X12561Y17962D01*
X12600Y18058D01*
X12614Y18161D01*
X12600Y18265D01*
X12561Y18361D01*
X12497Y18443D01*
X12415Y18507D01*
X12319Y18547D01*
X12215Y18560D01*
X12112Y18547D01*
X12066Y18527D01*
X11685Y18908D01*
X11635Y18941D01*
X11577Y18953D01*
D02*
G37*
G36*
X4500Y18560D02*
X4397Y18547D01*
X4301Y18507D01*
X4218Y18443D01*
X4155Y18361D01*
X4115Y18265D01*
X4101Y18161D01*
X4115Y18058D01*
X4155Y17962D01*
X4218Y17880D01*
X4301Y17816D01*
X4397Y17776D01*
X4500Y17763D01*
X4603Y17776D01*
X4699Y17816D01*
X4782Y17880D01*
X4845Y17962D01*
X4885Y18058D01*
X4899Y18161D01*
X4885Y18265D01*
X4845Y18361D01*
X4782Y18443D01*
X4699Y18507D01*
X4603Y18547D01*
X4500Y18560D01*
D02*
G37*
G36*
X9850Y16392D02*
Y16050D01*
X10192D01*
X10185Y16103D01*
X10145Y16199D01*
X10082Y16282D01*
X9999Y16345D01*
X9903Y16385D01*
X9850Y16392D01*
D02*
G37*
G36*
X9750D02*
X9697Y16385D01*
X9601Y16345D01*
X9518Y16282D01*
X9455Y16199D01*
X9415Y16103D01*
X9408Y16050D01*
X9750D01*
Y16392D01*
D02*
G37*
G36*
X19685Y18804D02*
X19515Y18791D01*
X19349Y18751D01*
X19191Y18686D01*
X19046Y18596D01*
X18916Y18486D01*
X18805Y18356D01*
X18716Y18210D01*
X18651Y18053D01*
X18611Y17887D01*
X18597Y17717D01*
X18611Y17546D01*
X18651Y17380D01*
X18716Y17223D01*
X18805Y17077D01*
X18916Y16947D01*
X19046Y16837D01*
X19191Y16747D01*
X19349Y16682D01*
X19515Y16642D01*
X19685Y16629D01*
X19855Y16642D01*
X20021Y16682D01*
X20179Y16747D01*
X20324Y16837D01*
X20454Y16947D01*
X20565Y17077D01*
X20654Y17223D01*
X20719Y17380D01*
X20759Y17546D01*
X20773Y17717D01*
X20759Y17887D01*
X20719Y18053D01*
X20654Y18210D01*
X20565Y18356D01*
X20454Y18486D01*
X20324Y18596D01*
X20179Y18686D01*
X20021Y18751D01*
X19855Y18791D01*
X19685Y18804D01*
D02*
G37*
G36*
X0D02*
X-170Y18791D01*
X-336Y18751D01*
X-494Y18686D01*
X-639Y18596D01*
X-769Y18486D01*
X-880Y18356D01*
X-969Y18210D01*
X-1034Y18053D01*
X-1074Y17887D01*
X-1088Y17717D01*
X-1074Y17546D01*
X-1034Y17380D01*
X-969Y17223D01*
X-880Y17077D01*
X-769Y16947D01*
X-639Y16837D01*
X-494Y16747D01*
X-336Y16682D01*
X-170Y16642D01*
X0Y16629D01*
X170Y16642D01*
X336Y16682D01*
X494Y16747D01*
X639Y16837D01*
X769Y16947D01*
X880Y17077D01*
X969Y17223D01*
X1034Y17380D01*
X1074Y17546D01*
X1088Y17717D01*
X1074Y17887D01*
X1034Y18053D01*
X969Y18210D01*
X880Y18356D01*
X769Y18486D01*
X639Y18596D01*
X494Y18686D01*
X336Y18751D01*
X170Y18791D01*
X0Y18804D01*
D02*
G37*
G36*
X16573Y18560D02*
X16470Y18547D01*
X16374Y18507D01*
X16291Y18443D01*
X16228Y18361D01*
X16188Y18265D01*
X16174Y18161D01*
X16188Y18058D01*
X16228Y17962D01*
X16291Y17880D01*
X16374Y17816D01*
X16470Y17776D01*
X16573Y17763D01*
X16676Y17776D01*
X16772Y17816D01*
X16855Y17880D01*
X16918Y17962D01*
X16958Y18058D01*
X16972Y18161D01*
X16958Y18265D01*
X16918Y18361D01*
X16855Y18443D01*
X16772Y18507D01*
X16676Y18547D01*
X16573Y18560D01*
D02*
G37*
G36*
X9808Y18557D02*
X9462D01*
Y18211D01*
X9808D01*
Y18557D01*
D02*
G37*
G36*
X14165D02*
X13820D01*
Y18211D01*
X14165D01*
Y18557D01*
D02*
G37*
G36*
X10253D02*
X9908D01*
Y18211D01*
X10253D01*
Y18557D01*
D02*
G37*
G36*
X14611D02*
X14265D01*
Y18211D01*
X14611D01*
Y18557D01*
D02*
G37*
G36*
X10253Y18111D02*
X9908D01*
Y17766D01*
X10253D01*
Y18111D01*
D02*
G37*
G36*
X5895Y18557D02*
X5105D01*
Y17766D01*
X5895D01*
Y18557D01*
D02*
G37*
G36*
X14611Y18111D02*
X14265D01*
Y17766D01*
X14611D01*
Y18111D01*
D02*
G37*
G36*
X14165D02*
X13820D01*
Y17766D01*
X14165D01*
Y18111D01*
D02*
G37*
G36*
X6700Y10148D02*
X6315D01*
Y9882D01*
X6700D01*
Y10148D01*
D02*
G37*
G36*
X15398Y9535D02*
X15131D01*
Y9150D01*
X15398D01*
Y9535D01*
D02*
G37*
G36*
X8993Y12049D02*
X8766D01*
Y11861D01*
X8993D01*
Y12049D01*
D02*
G37*
G36*
X7185Y10148D02*
X6800D01*
Y9882D01*
X7185D01*
Y10148D01*
D02*
G37*
G36*
X15031Y9050D02*
X14765D01*
Y8665D01*
X15031D01*
Y9050D01*
D02*
G37*
G36*
X3681Y8749D02*
X3568Y8735D01*
X3463Y8691D01*
X3372Y8622D01*
X3303Y8531D01*
X3259Y8426D01*
X3244Y8313D01*
X3259Y8200D01*
X3303Y8095D01*
X3372Y8004D01*
X3463Y7935D01*
X3568Y7891D01*
X3681Y7877D01*
X3794Y7891D01*
X3899Y7935D01*
X3989Y8004D01*
X4059Y8095D01*
X4102Y8200D01*
X4117Y8313D01*
X4102Y8426D01*
X4059Y8531D01*
X3989Y8622D01*
X3899Y8691D01*
X3794Y8735D01*
X3681Y8749D01*
D02*
G37*
G36*
X15031Y9535D02*
X14765D01*
Y9150D01*
X15031D01*
Y9535D01*
D02*
G37*
G36*
X15398Y9050D02*
X15131D01*
Y8665D01*
X15398D01*
Y9050D01*
D02*
G37*
G36*
X8993Y12337D02*
X8766D01*
Y12149D01*
X8993D01*
Y12337D01*
D02*
G37*
G36*
X19422Y15407D02*
X18900D01*
Y15150D01*
X19422D01*
Y15407D01*
D02*
G37*
G36*
X18800D02*
X18278D01*
Y15150D01*
X18800D01*
Y15407D01*
D02*
G37*
G36*
X10192Y15950D02*
X9850D01*
Y15608D01*
X9903Y15615D01*
X9999Y15655D01*
X10082Y15718D01*
X10145Y15801D01*
X10185Y15897D01*
X10192Y15950D01*
D02*
G37*
G36*
X9750D02*
X9408D01*
X9415Y15897D01*
X9455Y15801D01*
X9518Y15718D01*
X9601Y15655D01*
X9697Y15615D01*
X9750Y15608D01*
Y15950D01*
D02*
G37*
G36*
X20130Y14499D02*
X20027Y14485D01*
X19931Y14445D01*
X19848Y14382D01*
X19785Y14299D01*
X19745Y14203D01*
X19731Y14100D01*
X19745Y13997D01*
X19785Y13901D01*
X19848Y13818D01*
X19931Y13755D01*
X20027Y13715D01*
X20130Y13701D01*
X20233Y13715D01*
X20329Y13755D01*
X20412Y13818D01*
X20475Y13901D01*
X20515Y13997D01*
X20529Y14100D01*
X20515Y14203D01*
X20475Y14299D01*
X20412Y14382D01*
X20329Y14445D01*
X20233Y14485D01*
X20130Y14499D01*
D02*
G37*
G36*
X4240Y14818D02*
X4077Y14805D01*
X3918Y14767D01*
X3768Y14704D01*
X3628Y14619D01*
X3504Y14513D01*
X3398Y14389D01*
X3313Y14250D01*
X3251Y14099D01*
X3212Y13940D01*
X3200Y13778D01*
X3212Y13615D01*
X3251Y13456D01*
X3313Y13305D01*
X3398Y13166D01*
X3504Y13042D01*
X3628Y12936D01*
X3768Y12851D01*
X3918Y12788D01*
X4077Y12750D01*
X4240Y12737D01*
X4403Y12750D01*
X4561Y12788D01*
X4712Y12851D01*
X4851Y12936D01*
X4975Y13042D01*
X5081Y13166D01*
X5167Y13305D01*
X5229Y13456D01*
X5267Y13615D01*
X5280Y13778D01*
X5267Y13940D01*
X5229Y14099D01*
X5167Y14250D01*
X5081Y14389D01*
X4975Y14513D01*
X4851Y14619D01*
X4712Y14704D01*
X4561Y14767D01*
X4403Y14805D01*
X4240Y14818D01*
D02*
G37*
G36*
X19422Y15050D02*
X18900D01*
Y14793D01*
X19422D01*
Y15050D01*
D02*
G37*
G36*
X18800D02*
X18278D01*
Y14793D01*
X18800D01*
Y15050D01*
D02*
G37*
%LPD*%
D10*
X12624Y10675D02*
D03*
Y10360D02*
D03*
Y10045D02*
D03*
Y9730D02*
D03*
Y9415D02*
D03*
Y9100D02*
D03*
Y8785D02*
D03*
Y8470D02*
D03*
Y8155D02*
D03*
Y7840D02*
D03*
Y7525D02*
D03*
X8176D02*
D03*
Y7840D02*
D03*
Y8155D02*
D03*
Y8470D02*
D03*
Y8785D02*
D03*
Y9100D02*
D03*
Y9415D02*
D03*
Y9730D02*
D03*
Y10045D02*
D03*
Y10360D02*
D03*
Y10675D02*
D03*
D11*
X11975Y6876D02*
D03*
X11660D02*
D03*
X11345D02*
D03*
X11030D02*
D03*
X10715D02*
D03*
X10400D02*
D03*
X10085D02*
D03*
X9770D02*
D03*
X9455D02*
D03*
X9140D02*
D03*
X8825D02*
D03*
Y11324D02*
D03*
X9140D02*
D03*
X9455D02*
D03*
X9770D02*
D03*
X10085D02*
D03*
X10400D02*
D03*
X10715D02*
D03*
X11030D02*
D03*
X11345D02*
D03*
X11660D02*
D03*
X11975D02*
D03*
D12*
X18335Y3882D02*
D03*
X18926D02*
D03*
X18926Y4454D02*
D03*
X18335D02*
D03*
X18335Y5950D02*
D03*
X18926D02*
D03*
X18926Y3309D02*
D03*
X18335D02*
D03*
X18335Y5027D02*
D03*
X18926D02*
D03*
D13*
X12373Y5133D02*
D03*
Y5723D02*
D03*
X9043Y12690D02*
D03*
Y12099D02*
D03*
X16186Y7995D02*
D03*
Y7405D02*
D03*
X18041Y7995D02*
D03*
Y7405D02*
D03*
X16759Y7405D02*
D03*
Y7995D02*
D03*
D14*
X11731Y5093D02*
D03*
Y5723D02*
D03*
X17400Y7385D02*
D03*
Y8015D02*
D03*
D15*
X18335Y6591D02*
D03*
X18965D02*
D03*
X18315Y2668D02*
D03*
X18945D02*
D03*
D16*
X10405Y5700D02*
D03*
X10995D02*
D03*
X10245Y12350D02*
D03*
X9655D02*
D03*
X20394Y7299D02*
D03*
X19803D02*
D03*
X20394Y8068D02*
D03*
X19803D02*
D03*
X20394Y6529D02*
D03*
X19803D02*
D03*
D17*
X18850Y13100D02*
D03*
Y15100D02*
D03*
D18*
X14775Y14100D02*
D03*
D19*
X6750Y8769D02*
D03*
Y9832D02*
D03*
D20*
X14018Y9100D02*
D03*
X15081D02*
D03*
X19331Y8896D02*
D03*
X20394D02*
D03*
X19331Y9800D02*
D03*
X20394D02*
D03*
D21*
X6600Y3550D02*
X10200Y-50D01*
Y-380D02*
Y-50D01*
X6600Y3550D02*
Y7250D01*
X13620Y4150D02*
X15215Y2555D01*
X10400Y4150D02*
X13620D01*
X9140Y5410D02*
X10400Y4150D01*
X9140Y5410D02*
Y6876D01*
X9724Y850D02*
X13970D01*
X6900Y3674D02*
X9724Y850D01*
X6900Y3674D02*
Y7126D01*
X8825Y3945D02*
X10215Y2555D01*
X6900Y7126D02*
X7299Y7525D01*
X8176D01*
X7183Y7833D02*
X8169D01*
X6600Y7250D02*
X7183Y7833D01*
X8825Y3945D02*
Y6876D01*
X8169Y7833D02*
X8176Y7840D01*
X10200Y-380D02*
X10265Y-445D01*
X13970Y850D02*
X15265Y-445D01*
X6767Y8785D02*
X8176D01*
X6750Y8769D02*
X6767Y8785D01*
X12624Y9100D02*
X14018D01*
Y13343D01*
X19331Y8540D02*
Y8896D01*
Y8540D02*
X19803Y8068D01*
Y6529D02*
Y7299D01*
Y8068D01*
X18965Y6591D02*
X19741D01*
X19803Y6529D01*
X14018Y13343D02*
X14775Y14100D01*
D22*
X8858Y18142D02*
X12233Y14767D01*
X8858Y18142D02*
Y18161D01*
X12233Y10981D02*
Y14767D01*
X10400Y10350D02*
X10400Y10350D01*
Y11324D01*
X10405Y5345D02*
X10850Y4900D01*
X10405Y5345D02*
Y5700D01*
X18317Y3900D02*
X18335Y3882D01*
X15552Y3900D02*
X18317D01*
X19242Y2668D02*
X20130Y3555D01*
X18945Y2668D02*
X19242D01*
X20575Y4000D02*
Y4740D01*
X20130Y3555D02*
X20575Y4000D01*
X20314Y5000D02*
X20575Y4740D01*
X18952Y5000D02*
X20314D01*
X18926Y5027D02*
X18952Y5000D01*
X18335Y3882D02*
X18335Y3882D01*
Y3309D02*
Y3882D01*
X18315Y2668D02*
Y2699D01*
X18926Y3309D01*
Y4454D02*
X19027Y4555D01*
X20130D01*
X18926Y3882D02*
X18926Y3882D01*
Y4454D01*
X18335Y4454D02*
X18335Y4454D01*
X18335Y4454D02*
Y5027D01*
X8800Y12933D02*
X9043Y12690D01*
X8800Y12933D02*
Y14000D01*
X19735Y5950D02*
X20130Y5555D01*
X18926Y5950D02*
X19735D01*
X18335D02*
Y6591D01*
X11750Y5100D02*
X11783Y5133D01*
X12373D01*
X10800Y6250D02*
X11150D01*
X10400Y5850D02*
X10800Y6250D01*
X10400Y5850D02*
Y6876D01*
X11150Y6250D02*
X11650Y5750D01*
X12373Y5723D02*
Y6227D01*
X11975Y6625D02*
X12373Y6227D01*
X11975Y6625D02*
Y6876D01*
X9512Y10036D02*
X13993Y5555D01*
X20130D01*
X9512Y10036D02*
Y11268D01*
X9455Y11324D02*
X9512Y11268D01*
X12568Y9157D02*
X12624Y9100D01*
X10343Y6932D02*
X10400Y6876D01*
X6800Y17950D02*
X7650Y18800D01*
X6800Y12050D02*
Y17950D01*
Y12050D02*
X8176Y10675D01*
X10245Y12350D02*
X10400Y12195D01*
Y11324D02*
Y12195D01*
X11975Y11324D02*
Y12908D01*
X9883Y15000D02*
X11975Y12908D01*
X9800Y15000D02*
X9883D01*
X11660Y11324D02*
Y12940D01*
X10045Y14555D02*
X11660Y12940D01*
X9616Y14555D02*
X10045D01*
X9355Y14816D02*
X9616Y14555D01*
X9355Y14816D02*
Y15245D01*
X8800Y15800D02*
X9355Y15245D01*
X8800Y15800D02*
Y16000D01*
Y15000D02*
X9355Y14445D01*
Y13728D02*
Y14445D01*
X11345Y11324D02*
Y12538D01*
X10383Y13500D02*
X11345Y12538D01*
X9583Y13500D02*
X10383D01*
X9355Y13728D02*
X9583Y13500D01*
X10300Y13300D02*
X11026Y12574D01*
X9500Y13300D02*
X10300D01*
X8800Y14000D02*
X9500Y13300D01*
X11026Y11324D02*
X11030D01*
X12050Y10798D02*
X12233Y10981D01*
X7650Y18800D02*
X11577D01*
X12215Y18161D01*
X12050Y10450D02*
Y10798D01*
Y10450D02*
X12140Y10360D01*
X12624D01*
X7858Y12292D02*
X8825Y11324D01*
X7858Y12292D02*
Y18161D01*
X12624Y10675D02*
Y17570D01*
X13215Y18161D01*
X11026Y11324D02*
Y12574D01*
X17400Y7250D02*
Y7385D01*
X17150Y7000D02*
X17400Y7250D01*
X16064Y7000D02*
X17150D01*
X14018Y9045D02*
Y9100D01*
X16186Y7405D02*
X16759D01*
X16759Y7405D01*
X15068Y7995D02*
X16186D01*
X14018Y9045D02*
X15068Y7995D01*
X16064Y7000D01*
X18041Y7995D02*
X18041Y7995D01*
X16759Y7995D02*
X18041D01*
X17150Y7000D02*
X18556D01*
X18965Y6591D01*
X9140Y9410D02*
X9500Y9050D01*
X9140Y9410D02*
Y11324D01*
X4799Y8858D02*
X5358D01*
X5850Y9350D01*
X7050D01*
X7745Y10045D01*
X8176D01*
X3681Y9513D02*
X4667Y10500D01*
X3681Y9404D02*
Y9513D01*
X4667Y10500D02*
X7250D01*
X7390Y10360D01*
X8176D01*
X6750Y8250D02*
Y8769D01*
X6500Y8000D02*
X6750Y8250D01*
X11650Y5750D02*
X11750D01*
D23*
X20100Y1400D02*
X20950Y2250D01*
X18110Y1400D02*
X20100D01*
X3305Y-1250D02*
X15460D01*
X2500Y-445D02*
X3305Y-1250D01*
X1500Y555D02*
X2500Y-445D01*
X20394Y6529D02*
X20950Y5973D01*
Y2250D02*
Y5973D01*
X20394Y6529D02*
Y7299D01*
Y8068D01*
Y8896D01*
Y9800D01*
X20130Y13100D02*
X20394Y12836D01*
Y9800D02*
Y12836D01*
X18850Y13100D02*
X20130D01*
X17573Y14377D02*
Y18161D01*
Y14377D02*
X18850Y13100D01*
X19331Y8896D02*
Y9800D01*
X1500Y555D02*
Y9150D01*
X2844Y10494D01*
X3681D01*
X15460Y-1250D02*
X18110Y1400D01*
D24*
X8800Y16000D02*
D03*
X6858Y-445D02*
D03*
X20130Y2555D02*
D03*
Y13100D02*
D03*
D25*
X9800Y16000D02*
D03*
X8800Y15000D02*
D03*
X9800D02*
D03*
X8800Y14000D02*
D03*
X9800D02*
D03*
X2500Y18161D02*
D03*
X3500D02*
D03*
X4500D02*
D03*
X13215D02*
D03*
X12215D02*
D03*
X8858D02*
D03*
X7858D02*
D03*
X6858Y2555D02*
D03*
Y1555D02*
D03*
Y555D02*
D03*
X16573Y18161D02*
D03*
X10215Y2555D02*
D03*
X11215D02*
D03*
X12215D02*
D03*
X13215D02*
D03*
X14215D02*
D03*
X15215D02*
D03*
X16215D02*
D03*
X10215Y-445D02*
D03*
X11215D02*
D03*
X12215D02*
D03*
X13215D02*
D03*
X14215D02*
D03*
X15215D02*
D03*
X16215D02*
D03*
X3500D02*
D03*
X4500D02*
D03*
X20130Y5555D02*
D03*
Y4555D02*
D03*
Y3555D02*
D03*
Y14100D02*
D03*
D26*
X5500Y18161D02*
D03*
X14215D02*
D03*
X9858D02*
D03*
X17573D02*
D03*
X9215Y2555D02*
D03*
Y-445D02*
D03*
X2500D02*
D03*
D27*
X4799Y11039D02*
D03*
X3681Y10494D02*
D03*
X4799Y9949D02*
D03*
X3681Y9404D02*
D03*
X4799Y8858D02*
D03*
X3681Y8313D02*
D03*
X4799Y7768D02*
D03*
X3681Y7222D02*
D03*
D28*
X4799Y6677D02*
D03*
D29*
X4240Y3939D02*
D03*
Y13778D02*
D03*
D30*
X10400Y10350D02*
D03*
X10850Y4900D02*
D03*
X15552Y3900D02*
D03*
X9500Y9050D02*
D03*
X6500Y8000D02*
D03*
X14750Y14125D02*
D03*
Y15200D02*
D03*
Y13050D02*
D03*
D31*
X19685Y17717D02*
D03*
Y0D02*
D03*
X0Y17717D02*
D03*
Y0D02*
D03*
M02*
