%FSDAX24Y24*%
%MOIN*%
%SFA1B1*%

%IPPOS*%
%ADD21C,0.020000*%
%ADD22C,0.010000*%
%ADD23C,0.040000*%
%ADD24R,0.059100X0.059100*%
%ADD25C,0.059100*%
%ADD26R,0.059100X0.059100*%
%ADD27C,0.066500*%
%ADD28R,0.066500X0.066500*%
%ADD29C,0.187400*%
%ADD30C,0.050000*%
%ADD31C,0.196900*%
%ADD35C,0.005000*%
%ADD57C,0.080000*%
%ADD58C,0.160000*%
%ADD59C,0.320000*%
%LNmetr4810_pcb_c_layout-1*%
%LPD*%
G54D35*
X019918Y019493D02*
X020148Y019447D01*
X020371Y019372*
X020581Y019268*
X020775Y019138*
X020952Y018984*
X021107Y018807*
X021237Y018612*
X021340Y018402*
X021416Y018180*
X021462Y017950*
X021477Y017721*
X021476Y017719*
X021475Y-000001*
X021476Y-000007*
X021462Y-000233*
X021416Y-000463*
X021340Y-000685*
X021237Y-000896*
X021107Y-001090*
X020952Y-001267*
X020775Y-001422*
X020581Y-001552*
X020371Y-001655*
X020148Y-001730*
X019918Y-001777*
X019692Y-001791*
X019686Y-001791*
X-000001*
X-000007Y-001791*
X-000233Y-001777*
X-000463Y-001730*
X-000685Y-001655*
X-000896Y-001552*
X-001090Y-001422*
X-001267Y-001267*
X-001422Y-001090*
X-001552Y-000896*
X-001655Y-000685*
X-001730Y-000463*
X-001777Y-000233*
X-001791Y-000007*
X-001791Y-000001*
Y017719*
X-001791Y017724*
X-001777Y017950*
X-001730Y018180*
X-001655Y018402*
X-001552Y018612*
X-001422Y018807*
X-001267Y018984*
X-001090Y019138*
X-000896Y019268*
X-000685Y019372*
X-000463Y019447*
X-000233Y019493*
X-000007Y019507*
X-000001Y019507*
X019686*
X019692Y019507*
X019918Y019493*
G54D22*
X019912Y019443D02*
X020135Y019399D01*
X020352Y019326*
X020556Y019225*
X020745Y019098*
X020916Y018948*
X021067Y018777*
X021193Y018587*
X021294Y018383*
X021368Y018167*
X021412Y017944*
X021426Y017725*
X021426Y017725*
X021425Y-000005*
X021426Y-000009*
X021412Y-000227*
X021368Y-000450*
X021294Y-000666*
X021193Y-000871*
X021067Y-001060*
X020916Y-001231*
X020745Y-001382*
X020556Y-001508*
X020352Y-001609*
X020135Y-001682*
X019912Y-001727*
X019694Y-001741*
X019690Y-001741*
X-000005*
X-000009Y-001741*
X-000227Y-001727*
X-000450Y-001682*
X-000666Y-001609*
X-000871Y-001508*
X-001060Y-001382*
X-001231Y-001231*
X-001382Y-001060*
X-001508Y-000871*
X-001609Y-000666*
X-001682Y-000450*
X-001727Y-000227*
X-001741Y-000009*
X-001741Y-000005*
Y017723*
X-001741Y017726*
X-001727Y017944*
X-001682Y018167*
X-001609Y018383*
X-001508Y018587*
X-001382Y018777*
X-001231Y018948*
X-001060Y019098*
X-000871Y019224*
X-000666Y019326*
X-000450Y019399*
X-000227Y019443*
X-000009Y019457*
X-000005Y019457*
X019690*
X019694Y019457*
X019912Y019443*
G54D21*
X019899Y019344D02*
X020109Y019302D01*
X020313Y019233*
X020505Y019138*
X020684Y019018*
X020846Y018877*
X020987Y018716*
X021107Y018537*
X021202Y018344*
X021271Y018141*
X021313Y017931*
X021326Y017724*
X021325Y-000012*
X021326Y-000013*
X021313Y-000214*
X021271Y-000424*
X021201Y-000627*
X021107Y-000821*
X020987Y-000999*
X020845Y-001160*
X020684Y-001302*
X020506Y-001422*
X020314Y-001516*
X020109Y-001585*
X019898Y-001628*
X019698Y-001641*
X019697Y-001641*
X-000012*
X-000013Y-001641*
X-000213Y-001628*
X-000424Y-001585*
X-000628Y-001516*
X-000821Y-001422*
X-000999Y-001302*
X-001160Y-001160*
X-001302Y-000999*
X-001422Y-000821*
X-001516Y-000628*
X-001585Y-000424*
X-001628Y-000213*
X-001641Y-000013*
X-001641Y-000012*
Y017731*
X-001641Y017731*
X-001628Y017930*
X-001585Y018141*
X-001516Y018345*
X-001422Y018537*
X-001302Y018716*
X-001161Y018877*
X-000999Y019018*
X-000821Y019138*
X-000627Y019233*
X-000424Y019302*
X-000214Y019344*
X-000013Y019357*
X-000012Y019357*
X019697*
X019698Y019357*
X019899Y019344*
G54D23*
X019873Y019145D02*
X020058Y019108D01*
X020237Y019048*
X020405Y018965*
X020562Y018859*
X020704Y018735*
X020828Y018594*
X020933Y018437*
X021016Y018267*
X021078Y018089*
X021114Y017905*
X021126Y017718*
X021125Y-000027*
X021125Y-000022*
X021114Y-000188*
X021078Y-000372*
X021016Y-000551*
X020933Y-000721*
X020828Y-000877*
X020704Y-001019*
X020562Y-001144*
X020405Y-001248*
X020237Y-001331*
X020057Y-001392*
X019872Y-001429*
X019705Y-001440*
X019710Y-001441*
X-000025*
X-000020Y-001440*
X-000187Y-001429*
X-000372Y-001392*
X-000551Y-001331*
X-000721Y-001248*
X-000877Y-001143*
X-001019Y-001019*
X-001143Y-000877*
X-001248Y-000721*
X-001331Y-000551*
X-001392Y-000372*
X-001429Y-000187*
X-001440Y-000020*
X-001441Y-000025*
Y017725*
X-001429Y017904*
X-001392Y018089*
X-001331Y018268*
X-001248Y018437*
X-001143Y018594*
X-001019Y018735*
X-000877Y018859*
X-000720Y018964*
X-000551Y019048*
X-000373Y019108*
X-000188Y019145*
X-000020Y019156*
X-000025Y019157*
X019710*
X019705Y019156*
X019873Y019145*
G54D57*
X019821Y018747D02*
X019955Y018721D01*
X020083Y018678*
X020204Y018618*
X020318Y018541*
X020421Y018451*
X020510Y018350*
X020586Y018237*
X020646Y018113*
X020690Y017985*
X020716Y017853*
X020726Y017705*
X020726Y005314*
X020967Y003709*
X020716Y-000136*
X020690Y-000268*
X020646Y-000397*
X020586Y-000520*
X020511Y-000632*
X020420Y-000735*
X020317Y-000826*
X020205Y-000901*
X020084Y-000960*
X019954Y-001004*
X019819Y-001032*
X015695Y-001301*
X013775Y-001041*
X005909*
X003989Y-001301*
X-000134Y-001032*
X-000268Y-001004*
X-000399Y-000960*
X-000520Y-000901*
X-000632Y-000826*
X-000735Y-000735*
X-000826Y-000632*
X-000901Y-000520*
X-000960Y-000399*
X-001004Y-000268*
X-001032Y-000134*
X-001301Y003989*
X-001041Y005909*
Y017712*
X-001031Y017851*
X-001004Y017985*
X-000961Y018115*
X-000901Y018237*
X-000825Y018350*
X-000736Y018451*
X-000633Y018541*
X-000519Y018617*
X-000397Y018678*
X-000270Y018721*
X-000136Y018747*
X003955Y019014*
X005838Y018757*
X013846*
X015727Y019014*
X019821Y018747*
G54D58*
X019717Y017952D02*
X019749Y017946D01*
X019776Y017937*
X019801Y017925*
X019831Y017905*
X019855Y017883*
X019874Y017862*
X019891Y017836*
X019906Y017806*
X019916Y017777*
X019921Y017749*
X019926Y017679*
X019926Y005254*
X020163Y003675*
X019921Y-000032*
X019916Y-000060*
X019906Y-000090*
X019891Y-000120*
X019875Y-000144*
X019853Y-000168*
X019829Y-000190*
X019803Y-000207*
X019779Y-000219*
X019746Y-000230*
X019714Y-000237*
X015723Y-000497*
X013829Y-000240*
X005855Y-000241*
X003961Y-000497*
X-000029Y-000237*
X-000060Y-000230*
X-000093Y-000219*
X-000120Y-000206*
X-000144Y-000190*
X-000168Y-000168*
X-000190Y-000144*
X-000206Y-000120*
X-000219Y-000093*
X-000230Y-000060*
X-000237Y-000029*
X-000497Y003961*
X-000240Y005855*
X-000241Y017687*
X-000237Y017746*
X-000230Y017777*
X-000220Y017809*
X-000206Y017836*
X-000189Y017862*
X-000170Y017884*
X-000146Y017905*
X-000117Y017924*
X-000090Y017937*
X-000063Y017946*
X-000032Y017952*
X003927Y018211*
X005783Y017957*
X013901*
X015756Y018211*
X019717Y017952*
G54D59*
X019509Y016363D02*
X019337Y016397D01*
X019162Y016456*
X018996Y016538*
X018856Y016632*
X018723Y016748*
X018601Y016887*
X018502Y017035*
X018426Y017190*
X018367Y017361*
X018332Y017542*
X018326Y017627*
X018326Y005134*
X018556Y003607*
X018332Y000175*
X018367Y000355*
X018425Y000523*
X018502Y000680*
X018604Y000832*
X018720Y000964*
X018852Y001080*
X019001Y001180*
X019167Y001262*
X019331Y001317*
X019503Y001352*
X015779Y001109*
X013936Y001359*
X005748Y001358*
X003905Y001109*
X000181Y001352*
X000355Y001317*
X000517Y001262*
X000681Y001182*
X000832Y001080*
X000964Y000964*
X001080Y000832*
X001182Y000681*
X001262Y000517*
X001317Y000355*
X001352Y000181*
X001109Y003905*
X001359Y005748*
X001359Y017635*
X001352Y017535*
X001317Y017361*
X001261Y017196*
X001182Y017035*
X001083Y016887*
X000961Y016748*
X000828Y016632*
X000685Y016536*
X000523Y016456*
X000349Y016397*
X000175Y016363*
X003870Y016604*
X005674Y016357*
X014010*
X015813Y016604*
X019509Y016363*
X001840Y001830D02*
X017830D01*
X001840Y005030D02*
X017830D01*
X001840Y008230D02*
X017830D01*
X001840Y011430D02*
X017830D01*
X001840Y014630D02*
X017830D01*
%LNmetr4810_pcb_c_layout-2*%
%LPC*%
G36*
X013165Y002947D02*
X013112Y002940D01*
X013016Y002900*
X012933Y002837*
X012870Y002754*
X012830Y002658*
X012823Y002605*
X013165*
Y002947*
G37*
G36*
X012265D02*
Y002605D01*
X012607*
X012600Y002658*
X012561Y002754*
X012497Y002837*
X012415Y002900*
X012319Y002940*
X012265Y002947*
G37*
G36*
X012165D02*
X012112Y002940D01*
X012016Y002900*
X011933Y002837*
X011870Y002754*
X011830Y002658*
X011823Y002605*
X012165*
Y002947*
G37*
G36*
X020080Y003505D02*
X019738D01*
X019745Y003452*
X019785Y003356*
X019848Y003273*
X019931Y003210*
X020027Y003170*
X020080Y003163*
Y003505*
G37*
G36*
X020522D02*
X020180D01*
Y003163*
X020233Y003170*
X020329Y003210*
X020412Y003273*
X020475Y003356*
X020515Y003452*
X020522Y003505*
G37*
G36*
X013265Y002947D02*
Y002605D01*
X013607*
X013600Y002658*
X013561Y002754*
X013497Y002837*
X013415Y002900*
X013319Y002940*
X013265Y002947*
G37*
G36*
X012165Y002505D02*
X011823D01*
X011830Y002452*
X011870Y002356*
X011933Y002273*
X012016Y002210*
X012112Y002170*
X012165Y002163*
Y002505*
G37*
G36*
X020525Y002950D02*
X019735D01*
Y002160*
X020525*
Y002950*
G37*
G36*
X009611D02*
X008820D01*
Y002160*
X009611*
Y002950*
G37*
G36*
X013607Y002505D02*
X013265D01*
Y002163*
X013319Y002170*
X013415Y002210*
X013497Y002273*
X013561Y002356*
X013600Y002452*
X013607Y002505*
G37*
G36*
X013165D02*
X012823D01*
X012830Y002452*
X012870Y002356*
X012933Y002273*
X013016Y002210*
X013112Y002170*
X013165Y002163*
Y002505*
G37*
G36*
X012607D02*
X012265D01*
Y002163*
X012319Y002170*
X012415Y002210*
X012497Y002273*
X012561Y002356*
X012600Y002452*
X012607Y002505*
G37*
G36*
X020130Y005954D02*
X020027Y005940D01*
X019931Y005900*
X019848Y005837*
X019785Y005754*
X019745Y005658*
X019731Y005555*
X019745Y005452*
X019785Y005356*
X019848Y005273*
X019931Y005210*
X020027Y005170*
X020130Y005156*
X020233Y005170*
X020329Y005210*
X020412Y005273*
X020475Y005356*
X020515Y005452*
X020529Y005555*
X020515Y005658*
X020475Y005754*
X020412Y005837*
X020329Y005900*
X020233Y005940*
X020130Y005954*
G37*
G36*
X010900Y005246D02*
Y004950D01*
X011196*
X011191Y004991*
X011156Y005077*
X011100Y005150*
X011027Y005206*
X010941Y005241*
X010900Y005246*
G37*
G36*
X010800D02*
X010759Y005241D01*
X010673Y005206*
X010600Y005150*
X010544Y005077*
X010509Y004991*
X010504Y004950*
X010800*
Y005246*
G37*
G36*
X006450Y008346D02*
X006409Y008341D01*
X006323Y008306*
X006250Y008250*
X006194Y008177*
X006159Y008091*
X006154Y008050*
X006450*
Y008346*
G37*
G36*
X006846Y007950D02*
X006550D01*
Y007654*
X006591Y007659*
X006677Y007694*
X006750Y007750*
X006806Y007823*
X006841Y007909*
X006846Y007950*
G37*
G36*
X006450D02*
X006154D01*
X006159Y007909*
X006194Y007823*
X006250Y007750*
X006323Y007694*
X006409Y007659*
X006450Y007654*
Y007950*
G37*
G36*
X020180Y003947D02*
Y003605D01*
X020522*
X020515Y003658*
X020475Y003754*
X020412Y003837*
X020329Y003900*
X020233Y003940*
X020180Y003947*
G37*
G36*
X020080D02*
X020027Y003940D01*
X019931Y003900*
X019848Y003837*
X019785Y003754*
X019745Y003658*
X019738Y003605*
X020080*
Y003947*
G37*
G36*
X009500Y009403D02*
X009409Y009391D01*
X009323Y009356*
X009250Y009300*
X009194Y009227*
X009159Y009141*
X009147Y009050*
X009159Y008959*
X009194Y008873*
X009250Y008800*
X009323Y008744*
X009409Y008709*
X009500Y008697*
X009591Y008709*
X009677Y008744*
X009750Y008800*
X009806Y008873*
X009815Y008897*
X010339*
X015221Y004015*
X015211Y003991*
X015199Y003900*
X015211Y003809*
X015246Y003723*
X015302Y003650*
X015375Y003594*
X015460Y003559*
X015552Y003547*
X015643Y003559*
X015728Y003594*
X015801Y003650*
X015858Y003723*
X015893Y003809*
X015905Y003900*
X015893Y003991*
X015858Y004077*
X015801Y004150*
X015728Y004206*
X015643Y004241*
X015552Y004253*
X015460Y004241*
X015437Y004231*
X010510Y009158*
X010460Y009191*
X010402Y009203*
X009815*
X009806Y009227*
X009750Y009300*
X009677Y009356*
X009591Y009391*
X009500Y009403*
G37*
G36*
X011196Y004850D02*
X010900D01*
Y004554*
X010941Y004559*
X011027Y004594*
X011100Y004650*
X011156Y004723*
X011191Y004809*
X011196Y004850*
G37*
G36*
X010800D02*
X010504D01*
X010509Y004809*
X010544Y004723*
X010600Y004650*
X010673Y004594*
X010759Y004559*
X010800Y004554*
Y004850*
G37*
G36*
X020130Y004954D02*
X020027Y004940D01*
X019931Y004900*
X019848Y004837*
X019785Y004754*
X019745Y004658*
X019731Y004555*
X019745Y004452*
X019785Y004356*
X019848Y004273*
X019931Y004210*
X020027Y004170*
X020130Y004156*
X020233Y004170*
X020329Y004210*
X020412Y004273*
X020475Y004356*
X020515Y004452*
X020529Y004555*
X020515Y004658*
X020475Y004754*
X020412Y004837*
X020329Y004900*
X020233Y004940*
X020130Y004954*
G37*
G36*
X004450Y-000495D02*
X004108D01*
X004115Y-000548*
X004155Y-000644*
X004218Y-000727*
X004301Y-000790*
X004397Y-000830*
X004450Y-000837*
Y-000495*
G37*
G36*
X009611Y-000050D02*
X008820D01*
Y-000840*
X009611*
Y-000050*
G37*
G36*
X002895D02*
X002105D01*
Y-000840*
X002895*
Y-000050*
G37*
G36*
X012607Y-000495D02*
X012265D01*
Y-000837*
X012319Y-000830*
X012415Y-000790*
X012497Y-000727*
X012561Y-000644*
X012600Y-000548*
X012607Y-000495*
G37*
G36*
X012165D02*
X011823D01*
X011830Y-000548*
X011870Y-000644*
X011933Y-000727*
X012016Y-000790*
X012112Y-000830*
X012165Y-000837*
Y-000495*
G37*
G36*
X004892D02*
X004550D01*
Y-000837*
X004603Y-000830*
X004699Y-000790*
X004782Y-000727*
X004845Y-000644*
X004885Y-000548*
X004892Y-000495*
G37*
G36*
X010215Y-000046D02*
X010112Y-000060D01*
X010016Y-000100*
X009933Y-000163*
X009870Y-000246*
X009830Y-000342*
X009817Y-000445*
X009830Y-000548*
X009870Y-000644*
X009933Y-000727*
X010016Y-000790*
X010112Y-000830*
X010215Y-000844*
X010319Y-000830*
X010415Y-000790*
X010497Y-000727*
X010561Y-000644*
X010600Y-000548*
X010614Y-000445*
X010600Y-000342*
X010561Y-000246*
X010497Y-000163*
X010415Y-000100*
X010319Y-000060*
X010215Y-000046*
G37*
G36*
X019685Y001088D02*
X019515Y001074D01*
X019349Y001034*
X019191Y000969*
X019046Y000880*
X018916Y000769*
X018805Y000639*
X018716Y000494*
X018651Y000336*
X018611Y000170*
X018597Y000000*
X018611Y-000170*
X018651Y-000336*
X018716Y-000494*
X018805Y-000639*
X018916Y-000769*
X019046Y-000880*
X019191Y-000969*
X019349Y-001034*
X019515Y-001074*
X019685Y-001088*
X019855Y-001074*
X020021Y-001034*
X020179Y-000969*
X020324Y-000880*
X020454Y-000769*
X020565Y-000639*
X020654Y-000494*
X020719Y-000336*
X020759Y-000170*
X020773Y000000*
X020759Y000170*
X020719Y000336*
X020654Y000494*
X020565Y000639*
X020454Y000769*
X020324Y000880*
X020179Y000969*
X020021Y001034*
X019855Y001074*
X019685Y001088*
G37*
G36*
X000000D02*
X-000170Y001074D01*
X-000336Y001034*
X-000494Y000969*
X-000639Y000880*
X-000769Y000769*
X-000880Y000639*
X-000969Y000494*
X-001034Y000336*
X-001074Y000170*
X-001088Y000000*
X-001074Y-000170*
X-001034Y-000336*
X-000969Y-000494*
X-000880Y-000639*
X-000769Y-000769*
X-000639Y-000880*
X-000494Y-000969*
X-000336Y-001034*
X-000170Y-001074*
X000000Y-001088*
X000170Y-001074*
X000336Y-001034*
X000494Y-000969*
X000639Y-000880*
X000769Y-000769*
X000880Y-000639*
X000969Y-000494*
X001034Y-000336*
X001074Y-000170*
X001088Y000000*
X001074Y000170*
X001034Y000336*
X000969Y000494*
X000880Y000639*
X000769Y000769*
X000639Y000880*
X000494Y000969*
X000336Y001034*
X000170Y001074*
X000000Y001088*
G37*
G36*
X016215Y-000046D02*
X016112Y-000060D01*
X016016Y-000100*
X015933Y-000163*
X015870Y-000246*
X015830Y-000342*
X015817Y-000445*
X015830Y-000548*
X015870Y-000644*
X015933Y-000727*
X016016Y-000790*
X016112Y-000830*
X016215Y-000844*
X016319Y-000830*
X016415Y-000790*
X016497Y-000727*
X016561Y-000644*
X016600Y-000548*
X016614Y-000445*
X016600Y-000342*
X016561Y-000246*
X016497Y-000163*
X016415Y-000100*
X016319Y-000060*
X016215Y-000046*
G37*
G36*
X015215D02*
X015112Y-000060D01*
X015016Y-000100*
X014933Y-000163*
X014870Y-000246*
X014830Y-000342*
X014817Y-000445*
X014830Y-000548*
X014870Y-000644*
X014933Y-000727*
X015016Y-000790*
X015112Y-000830*
X015215Y-000844*
X015319Y-000830*
X015415Y-000790*
X015497Y-000727*
X015561Y-000644*
X015600Y-000548*
X015614Y-000445*
X015600Y-000342*
X015561Y-000246*
X015497Y-000163*
X015415Y-000100*
X015319Y-000060*
X015215Y-000046*
G37*
G36*
X006858Y000954D02*
X006754Y000940D01*
X006658Y000900*
X006576Y000837*
X006512Y000754*
X006473Y000658*
X006459Y000555*
X006473Y000452*
X006512Y000356*
X006576Y000273*
X006658Y000210*
X006754Y000170*
X006858Y000156*
X006961Y000170*
X007057Y000210*
X007140Y000273*
X007199Y000351*
X007300*
X007319Y000305*
X006965Y-000050*
X006462*
Y-000840*
X007253*
Y-000338*
X007637Y000046*
X010486*
X010843Y-000311*
X010830Y-000342*
X010817Y-000445*
X010830Y-000548*
X010870Y-000644*
X010933Y-000727*
X011016Y-000790*
X011112Y-000830*
X011215Y-000844*
X011319Y-000830*
X011415Y-000790*
X011497Y-000727*
X011561Y-000644*
X011600Y-000548*
X011614Y-000445*
X011600Y-000342*
X011561Y-000246*
X011497Y-000163*
X011415Y-000100*
X011319Y-000060*
X011215Y-000046*
X011162Y-000053*
X010804Y000305*
X010823Y000351*
X013181*
X013843Y-000311*
X013830Y-000342*
X013817Y-000445*
X013830Y-000548*
X013870Y-000644*
X013933Y-000727*
X014016Y-000790*
X014112Y-000830*
X014215Y-000844*
X014319Y-000830*
X014415Y-000790*
X014497Y-000727*
X014561Y-000644*
X014600Y-000548*
X014614Y-000445*
X014600Y-000342*
X014561Y-000246*
X014497Y-000163*
X014415Y-000100*
X014319Y-000060*
X014215Y-000046*
X014162Y-000053*
X013410Y000699*
X013343Y000744*
X013265Y000759*
X007199*
X007140Y000837*
X007057Y000900*
X006961Y000940*
X006858Y000954*
G37*
G36*
X010215Y002954D02*
X010112Y002940D01*
X010016Y002900*
X009933Y002837*
X009870Y002754*
X009830Y002658*
X009817Y002555*
X009830Y002452*
X009870Y002356*
X009933Y002273*
X010016Y002210*
X010112Y002170*
X010215Y002156*
X010319Y002170*
X010415Y002210*
X010497Y002273*
X010561Y002356*
X010600Y002452*
X010614Y002555*
X010600Y002658*
X010561Y002754*
X010497Y002837*
X010415Y002900*
X010319Y002940*
X010215Y002954*
G37*
G36*
X013265Y-000053D02*
Y-000395D01*
X013607*
X013600Y-000342*
X013561Y-000246*
X013497Y-000163*
X013415Y-000100*
X013319Y-000060*
X013265Y-000053*
G37*
G36*
X013165D02*
X013112Y-000060D01*
X013016Y-000100*
X012933Y-000163*
X012870Y-000246*
X012830Y-000342*
X012823Y-000395*
X013165*
Y-000053*
G37*
G36*
X016215Y002954D02*
X016112Y002940D01*
X016016Y002900*
X015933Y002837*
X015870Y002754*
X015830Y002658*
X015817Y002555*
X015830Y002452*
X015870Y002356*
X015933Y002273*
X016016Y002210*
X016112Y002170*
X016215Y002156*
X016319Y002170*
X016415Y002210*
X016497Y002273*
X016561Y002356*
X016600Y002452*
X016614Y002555*
X016600Y002658*
X016561Y002754*
X016497Y002837*
X016415Y002900*
X016319Y002940*
X016215Y002954*
G37*
G36*
X015215D02*
X015112Y002940D01*
X015016Y002900*
X014933Y002837*
X014870Y002754*
X014830Y002658*
X014817Y002555*
X014830Y002452*
X014870Y002356*
X014933Y002273*
X015016Y002210*
X015112Y002170*
X015215Y002156*
X015319Y002170*
X015415Y002210*
X015497Y002273*
X015561Y002356*
X015600Y002452*
X015614Y002555*
X015600Y002658*
X015561Y002754*
X015497Y002837*
X015415Y002900*
X015319Y002940*
X015215Y002954*
G37*
G36*
X014215D02*
X014112Y002940D01*
X014016Y002900*
X013933Y002837*
X013870Y002754*
X013830Y002658*
X013817Y002555*
X013830Y002458*
X013131Y001759*
X010773*
X010754Y001805*
X011118Y002169*
X011215Y002156*
X011319Y002170*
X011415Y002210*
X011497Y002273*
X011561Y002356*
X011600Y002452*
X011614Y002555*
X011600Y002658*
X011561Y002754*
X011497Y002837*
X011415Y002900*
X011319Y002940*
X011215Y002954*
X011112Y002940*
X011016Y002900*
X010933Y002837*
X010870Y002754*
X010830Y002658*
X010817Y002555*
X010830Y002458*
X010476Y002104*
X007597*
X007244Y002458*
X007256Y002555*
X007243Y002658*
X007203Y002754*
X007140Y002837*
X007057Y002900*
X006961Y002940*
X006858Y002954*
X006754Y002940*
X006658Y002900*
X006576Y002837*
X006512Y002754*
X006473Y002658*
X006459Y002555*
X006473Y002452*
X006512Y002356*
X006576Y002273*
X006658Y002210*
X006754Y002170*
X006858Y002156*
X006955Y002169*
X007319Y001805*
X007300Y001759*
X007199*
X007140Y001837*
X007057Y001900*
X006961Y001940*
X006858Y001954*
X006754Y001940*
X006658Y001900*
X006576Y001837*
X006512Y001754*
X006473Y001658*
X006459Y001555*
X006473Y001452*
X006512Y001356*
X006576Y001273*
X006658Y001210*
X006754Y001170*
X006858Y001156*
X006961Y001170*
X007057Y001210*
X007140Y001273*
X007199Y001351*
X013215*
X013293Y001367*
X013360Y001411*
X014118Y002169*
X014215Y002156*
X014319Y002170*
X014415Y002210*
X014497Y002273*
X014561Y002356*
X014600Y002452*
X014614Y002555*
X014600Y002658*
X014561Y002754*
X014497Y002837*
X014415Y002900*
X014319Y002940*
X014215Y002954*
G37*
G36*
X004450Y-000053D02*
X004397Y-000060D01*
X004301Y-000100*
X004218Y-000163*
X004155Y-000246*
X004115Y-000342*
X004108Y-000395*
X004450*
Y-000053*
G37*
G36*
X013607Y-000495D02*
X013265D01*
Y-000837*
X013319Y-000830*
X013415Y-000790*
X013497Y-000727*
X013561Y-000644*
X013600Y-000548*
X013607Y-000495*
G37*
G36*
X013165D02*
X012823D01*
X012830Y-000548*
X012870Y-000644*
X012933Y-000727*
X013016Y-000790*
X013112Y-000830*
X013165Y-000837*
Y-000495*
G37*
G36*
X012265Y-000053D02*
Y-000395D01*
X012607*
X012600Y-000342*
X012561Y-000246*
X012497Y-000163*
X012415Y-000100*
X012319Y-000060*
X012265Y-000053*
G37*
G36*
X012165D02*
X012112Y-000060D01*
X012016Y-000100*
X011933Y-000163*
X011870Y-000246*
X011830Y-000342*
X011823Y-000395*
X012165*
Y-000053*
G37*
G36*
X004550D02*
Y-000395D01*
X004892*
X004885Y-000342*
X004845Y-000246*
X004782Y-000163*
X004699Y-000100*
X004603Y-000060*
X004550Y-000053*
G37*
G36*
X006550Y008346D02*
Y008050D01*
X006846*
X006841Y008091*
X006806Y008177*
X006750Y008250*
X006677Y008306*
X006591Y008341*
X006550Y008346*
G37*
G36*
X009800Y016399D02*
X009697Y016385D01*
X009601Y016345*
X009518Y016282*
X009455Y016199*
X009415Y016103*
X009401Y016000*
X009415Y015897*
X009455Y015801*
X009518Y015718*
X009601Y015655*
X009697Y015615*
X009800Y015601*
X009903Y015615*
X009999Y015655*
X010082Y015718*
X010145Y015801*
X010185Y015897*
X010199Y016000*
X010185Y016103*
X010145Y016199*
X010082Y016282*
X009999Y016345*
X009903Y016385*
X009800Y016399*
G37*
G36*
X014800Y015546D02*
Y015250D01*
X015096*
X015091Y015291*
X015056Y015377*
X015000Y015450*
X014927Y015506*
X014841Y015541*
X014800Y015546*
G37*
G36*
X014700D02*
X014659Y015541D01*
X014573Y015506*
X014500Y015450*
X014444Y015377*
X014409Y015291*
X014404Y015250*
X014700*
Y015546*
G37*
G36*
X019685Y018804D02*
X019515Y018791D01*
X019349Y018751*
X019191Y018686*
X019046Y018596*
X018916Y018486*
X018805Y018356*
X018716Y018210*
X018651Y018053*
X018611Y017887*
X018597Y017717*
X018611Y017546*
X018651Y017380*
X018716Y017223*
X018805Y017077*
X018916Y016947*
X019046Y016837*
X019191Y016747*
X019349Y016682*
X019515Y016642*
X019685Y016629*
X019855Y016642*
X020021Y016682*
X020179Y016747*
X020324Y016837*
X020454Y016947*
X020565Y017077*
X020654Y017223*
X020719Y017380*
X020759Y017546*
X020773Y017717*
X020759Y017887*
X020719Y018053*
X020654Y018210*
X020565Y018356*
X020454Y018486*
X020324Y018596*
X020179Y018686*
X020021Y018751*
X019855Y018791*
X019685Y018804*
G37*
G36*
X000000D02*
X-000170Y018791D01*
X-000336Y018751*
X-000494Y018686*
X-000639Y018596*
X-000769Y018486*
X-000880Y018356*
X-000969Y018210*
X-001034Y018053*
X-001074Y017887*
X-001088Y017717*
X-001074Y017546*
X-001034Y017380*
X-000969Y017223*
X-000880Y017077*
X-000769Y016947*
X-000639Y016837*
X-000494Y016747*
X-000336Y016682*
X-000170Y016642*
X000000Y016629*
X000170Y016642*
X000336Y016682*
X000494Y016747*
X000639Y016837*
X000769Y016947*
X000880Y017077*
X000969Y017223*
X001034Y017380*
X001074Y017546*
X001088Y017717*
X001074Y017887*
X001034Y018053*
X000969Y018210*
X000880Y018356*
X000769Y018486*
X000639Y018596*
X000494Y018686*
X000336Y018751*
X000170Y018791*
X000000Y018804*
G37*
G36*
X009195Y016395D02*
X008405D01*
Y015605*
X009195*
Y016395*
G37*
G36*
X008800Y015399D02*
X008697Y015385D01*
X008601Y015345*
X008518Y015282*
X008455Y015199*
X008415Y015103*
X008401Y015000*
X008415Y014897*
X008455Y014801*
X008518Y014718*
X008601Y014655*
X008697Y014615*
X008800Y014601*
X008903Y014615*
X008999Y014655*
X009082Y014718*
X009145Y014801*
X009185Y014897*
X009199Y015000*
X009185Y015103*
X009145Y015199*
X009082Y015282*
X008999Y015345*
X008903Y015385*
X008800Y015399*
G37*
G36*
X014800Y014471D02*
Y014175D01*
X015096*
X015091Y014216*
X015056Y014302*
X015000Y014375*
X014927Y014431*
X014841Y014466*
X014800Y014471*
G37*
G36*
X014700D02*
X014659Y014466D01*
X014573Y014431*
X014500Y014375*
X014444Y014302*
X014409Y014216*
X014404Y014175*
X014700*
Y014471*
G37*
G36*
X015096Y015150D02*
X014800D01*
Y014854*
X014841Y014859*
X014927Y014894*
X015000Y014950*
X015056Y015023*
X015091Y015109*
X015096Y015150*
G37*
G36*
X014700D02*
X014404D01*
X014409Y015109*
X014444Y015023*
X014500Y014950*
X014573Y014894*
X014659Y014859*
X014700Y014854*
Y015150*
G37*
G36*
X009800Y015399D02*
X009697Y015385D01*
X009601Y015345*
X009518Y015282*
X009455Y015199*
X009415Y015103*
X009401Y015000*
X009415Y014897*
X009455Y014801*
X009518Y014718*
X009601Y014655*
X009697Y014615*
X009800Y014601*
X009903Y014615*
X009999Y014655*
X010082Y014718*
X010145Y014801*
X010185Y014897*
X010199Y015000*
X010185Y015103*
X010145Y015199*
X010082Y015282*
X009999Y015345*
X009903Y015385*
X009800Y015399*
G37*
G36*
X016523Y018111D02*
X016181D01*
X016188Y018058*
X016228Y017962*
X016291Y017880*
X016374Y017816*
X016470Y017776*
X016523Y017769*
Y018111*
G37*
G36*
X017968Y018557D02*
X017178D01*
Y017766*
X017968*
Y018557*
G37*
G36*
X014611D02*
X013820D01*
Y017766*
X014611*
Y018557*
G37*
G36*
X016623Y018554D02*
Y018211D01*
X016965*
X016958Y018265*
X016918Y018361*
X016855Y018443*
X016772Y018507*
X016676Y018547*
X016623Y018554*
G37*
G36*
X016523D02*
X016470Y018547D01*
X016374Y018507*
X016291Y018443*
X016228Y018361*
X016188Y018265*
X016181Y018211*
X016523*
Y018554*
G37*
G36*
X016965Y018111D02*
X016623D01*
Y017769*
X016676Y017776*
X016772Y017816*
X016855Y017880*
X016918Y017962*
X016958Y018058*
X016965Y018111*
G37*
G36*
X008858Y018560D02*
X008754Y018547D01*
X008658Y018507*
X008576Y018443*
X008512Y018361*
X008473Y018265*
X008459Y018161*
X008473Y018058*
X008512Y017962*
X008576Y017880*
X008658Y017816*
X008754Y017776*
X008858Y017763*
X008961Y017776*
X009057Y017816*
X009140Y017880*
X009203Y017962*
X009243Y018058*
X009256Y018161*
X009243Y018265*
X009203Y018361*
X009140Y018443*
X009057Y018507*
X008961Y018547*
X008858Y018560*
G37*
G36*
X007858D02*
X007754Y018547D01*
X007658Y018507*
X007576Y018443*
X007512Y018361*
X007473Y018265*
X007459Y018161*
X007473Y018058*
X007512Y017962*
X007576Y017880*
X007658Y017816*
X007754Y017776*
X007858Y017763*
X007961Y017776*
X008057Y017816*
X008140Y017880*
X008203Y017962*
X008243Y018058*
X008256Y018161*
X008243Y018265*
X008203Y018361*
X008140Y018443*
X008057Y018507*
X007961Y018547*
X007858Y018560*
G37*
G36*
X004500D02*
X004397Y018547D01*
X004301Y018507*
X004218Y018443*
X004155Y018361*
X004115Y018265*
X004101Y018161*
X004115Y018058*
X004155Y017962*
X004218Y017880*
X004301Y017816*
X004397Y017776*
X004500Y017763*
X004597Y017776*
X005346Y017027*
Y008603*
X004926Y008183*
X004912Y008189*
X004799Y008204*
X004686Y008189*
X004581Y008146*
X004490Y008076*
X004453Y008028*
X004403Y008045*
Y008581*
X004453Y008598*
X004490Y008550*
X004581Y008480*
X004686Y008437*
X004799Y008422*
X004912Y008437*
X005017Y008480*
X005108Y008550*
X005177Y008640*
X005220Y008745*
X005235Y008858*
X005220Y008971*
X005177Y009076*
X005108Y009167*
X005017Y009236*
X004912Y009280*
X004799Y009295*
X004686Y009280*
X004581Y009236*
X004490Y009167*
X004453Y009118*
X004403Y009135*
Y009587*
X004459Y009642*
X004490Y009640*
X004581Y009571*
X004686Y009527*
X004799Y009512*
X004912Y009527*
X005017Y009571*
X005108Y009640*
X005177Y009731*
X005220Y009836*
X005235Y009949*
X005220Y010062*
X005177Y010167*
X005108Y010257*
X005017Y010327*
X004912Y010370*
X004799Y010385*
X004686Y010370*
X004581Y010327*
X004490Y010257*
X004421Y010167*
X004377Y010062*
X004367Y009983*
X004142Y009758*
X004109Y009709*
X004098Y009653*
X004089Y009648*
X004047Y009637*
X003989Y009712*
X003899Y009781*
X003794Y009825*
X003681Y009840*
X003568Y009825*
X003463Y009781*
X003372Y009712*
X003303Y009622*
X003259Y009516*
X003254Y009476*
X003204Y009479*
Y010418*
X003254Y010422*
X003259Y010381*
X003303Y010276*
X003372Y010186*
X003463Y010116*
X003568Y010073*
X003681Y010058*
X003794Y010073*
X003899Y010116*
X003989Y010186*
X004059Y010276*
X004102Y010381*
X004117Y010494*
X004102Y010607*
X004059Y010712*
X003989Y010803*
X003899Y010872*
X003794Y010916*
X003681Y010931*
X003568Y010916*
X003463Y010872*
X003372Y010803*
X003303Y010712*
X003259Y010607*
X003254Y010566*
X003204Y010570*
Y013442*
X003251Y013456*
X003313Y013305*
X003398Y013166*
X003504Y013042*
X003628Y012936*
X003768Y012851*
X003918Y012788*
X004077Y012750*
X004240Y012737*
X004403Y012750*
X004561Y012788*
X004712Y012851*
X004851Y012936*
X004975Y013042*
X005081Y013166*
X005167Y013305*
X005229Y013456*
X005267Y013615*
X005280Y013778*
X005267Y013940*
X005229Y014099*
X005167Y014250*
X005081Y014389*
X004975Y014513*
X004851Y014619*
X004712Y014704*
X004561Y014767*
X004403Y014805*
X004240Y014818*
X004077Y014805*
X003918Y014767*
X003768Y014704*
X003628Y014619*
X003504Y014513*
X003398Y014389*
X003313Y014250*
X003251Y014099*
X003204Y014113*
Y017577*
X003403Y017776*
X003500Y017763*
X003603Y017776*
X003699Y017816*
X003782Y017880*
X003845Y017962*
X003885Y018058*
X003899Y018161*
X003885Y018265*
X003845Y018361*
X003782Y018443*
X003699Y018507*
X003603Y018547*
X003500Y018560*
X003397Y018547*
X003301Y018507*
X003218Y018443*
X003155Y018361*
X003115Y018265*
X003101Y018161*
X003114Y018064*
X002856Y017806*
X002812Y017739*
X002796Y017661*
Y008994*
X002812Y008916*
X002856Y008850*
X003265Y008440*
X003259Y008426*
X003244Y008313*
X003259Y008200*
X003303Y008095*
X003372Y008004*
X003463Y007935*
X003568Y007891*
X003681Y007877*
X003794Y007891*
X003899Y007935*
X003989Y008004*
X004047Y008080*
X004097Y008063*
Y007473*
X004047Y007456*
X003989Y007531*
X003899Y007600*
X003794Y007644*
X003681Y007659*
X003568Y007644*
X003554Y007638*
X002704Y008488*
Y017820*
X002782Y017880*
X002845Y017962*
X002885Y018058*
X002899Y018161*
X002885Y018265*
X002845Y018361*
X002782Y018443*
X002699Y018507*
X002603Y018547*
X002500Y018560*
X002397Y018547*
X002301Y018507*
X002218Y018443*
X002155Y018361*
X002115Y018265*
X002101Y018161*
X002115Y018058*
X002155Y017962*
X002218Y017880*
X002296Y017820*
Y008403*
X002312Y008325*
X002356Y008259*
X003265Y007350*
X003259Y007335*
X003244Y007222*
X003259Y007109*
X003303Y007004*
X003372Y006914*
X003463Y006844*
X003568Y006801*
X003681Y006786*
X003794Y006801*
X003899Y006844*
X003989Y006914*
X004047Y006989*
X004097Y006972*
Y005550*
X003045Y004497*
X003012Y004448*
X003000Y004389*
Y-000098*
X003012Y-000156*
X003045Y-000206*
X003134Y-000295*
X003115Y-000342*
X003101Y-000445*
X003115Y-000548*
X003155Y-000644*
X003218Y-000727*
X003301Y-000790*
X003397Y-000830*
X003500Y-000844*
X003603Y-000830*
X003699Y-000790*
X003782Y-000727*
X003845Y-000644*
X003885Y-000548*
X003899Y-000445*
X003885Y-000342*
X003845Y-000246*
X003782Y-000163*
X003699Y-000100*
X003603Y-000060*
X003500Y-000046*
X003397Y-000060*
X003350Y-000079*
X003306Y-000034*
Y003383*
X003356Y003397*
X003398Y003328*
X003504Y003203*
X003628Y003097*
X003768Y003012*
X003918Y002950*
X004077Y002912*
X004240Y002899*
X004403Y002912*
X004561Y002950*
X004712Y003012*
X004851Y003097*
X004975Y003203*
X005081Y003328*
X005167Y003467*
X005229Y003618*
X005267Y003776*
X005280Y003939*
X005267Y004102*
X005229Y004260*
X005167Y004411*
X005081Y004550*
X004975Y004675*
X004851Y004781*
X004712Y004866*
X004561Y004928*
X004403Y004966*
X004240Y004979*
X004077Y004966*
X003998Y004947*
X003973Y004993*
X004358Y005378*
X004391Y005428*
X004403Y005486*
Y006244*
X005232*
Y006821*
X005994Y007584*
X006038Y007650*
X006054Y007728*
Y017811*
X006038Y017889*
X005994Y017956*
X005895Y018055*
Y018557*
X005105*
Y017910*
X005059Y017891*
X004886Y018064*
X004899Y018161*
X004885Y018265*
X004845Y018361*
X004782Y018443*
X004699Y018507*
X004603Y018547*
X004500Y018560*
G37*
G36*
X010253Y018557D02*
X009462D01*
Y017766*
X010253*
Y018557*
G37*
G36*
X013215Y018560D02*
X013112Y018547D01*
X013016Y018507*
X012933Y018443*
X012870Y018361*
X012830Y018265*
X012817Y018161*
X012830Y018058*
X012870Y017962*
X012933Y017880*
X013016Y017816*
X013112Y017776*
X013215Y017763*
X013319Y017776*
X013415Y017816*
X013497Y017880*
X013561Y017962*
X013600Y018058*
X013614Y018161*
X013600Y018265*
X013561Y018361*
X013497Y018443*
X013415Y018507*
X013319Y018547*
X013215Y018560*
G37*
G36*
X012215D02*
X012112Y018547D01*
X012016Y018507*
X011933Y018443*
X011870Y018361*
X011830Y018265*
X011817Y018161*
X011830Y018058*
X011870Y017962*
X011933Y017880*
X012016Y017816*
X012112Y017776*
X012215Y017763*
X012319Y017776*
X012415Y017816*
X012497Y017880*
X012561Y017962*
X012600Y018058*
X012614Y018161*
X012600Y018265*
X012561Y018361*
X012497Y018443*
X012415Y018507*
X012319Y018547*
X012215Y018560*
G37*
G36*
X014700Y013000D02*
X014404D01*
X014409Y012959*
X014444Y012873*
X014500Y012800*
X014573Y012744*
X014659Y012709*
X014700Y012704*
Y013000*
G37*
G36*
X004849Y011469D02*
Y011089D01*
X005229*
X005220Y011152*
X005177Y011258*
X005108Y011348*
X005017Y011417*
X004912Y011461*
X004849Y011469*
G37*
G36*
X004749D02*
X004686Y011461D01*
X004581Y011417*
X004490Y011348*
X004421Y011258*
X004377Y011152*
X004369Y011089*
X004749*
Y011469*
G37*
G36*
X014700Y013396D02*
X014659Y013391D01*
X014573Y013356*
X014500Y013300*
X014444Y013227*
X014409Y013141*
X014404Y013100*
X014700*
Y013396*
G37*
G36*
X020525Y013495D02*
X019735D01*
Y012705*
X020525*
Y013495*
G37*
G36*
X015096Y013000D02*
X014800D01*
Y012704*
X014841Y012709*
X014927Y012744*
X015000Y012800*
X015056Y012873*
X015091Y012959*
X015096Y013000*
G37*
G36*
X010350Y010696D02*
X010309Y010691D01*
X010223Y010656*
X010150Y010600*
X010094Y010527*
X010059Y010441*
X010054Y010400*
X010350*
Y010696*
G37*
G36*
X010746Y010300D02*
X010450D01*
Y010004*
X010491Y010009*
X010577Y010044*
X010650Y010100*
X010706Y010173*
X010741Y010259*
X010746Y010300*
G37*
G36*
X010350D02*
X010054D01*
X010059Y010259*
X010094Y010173*
X010150Y010100*
X010223Y010044*
X010309Y010009*
X010350Y010004*
Y010300*
G37*
G36*
X005229Y010989D02*
X004849D01*
Y010610*
X004912Y010618*
X005017Y010661*
X005108Y010731*
X005177Y010821*
X005220Y010926*
X005229Y010989*
G37*
G36*
X004749D02*
X004369D01*
X004377Y010926*
X004421Y010821*
X004490Y010731*
X004581Y010661*
X004686Y010618*
X004749Y010610*
Y010989*
G37*
G36*
X010450Y010696D02*
Y010400D01*
X010746*
X010741Y010441*
X010706Y010527*
X010650Y010600*
X010577Y010656*
X010491Y010691*
X010450Y010696*
G37*
G36*
X009750Y014392D02*
X009697Y014385D01*
X009601Y014345*
X009518Y014282*
X009455Y014199*
X009415Y014103*
X009408Y014050*
X009750*
Y014392*
G37*
G36*
X015096Y014075D02*
X014800D01*
Y013779*
X014841Y013784*
X014927Y013819*
X015000Y013875*
X015056Y013948*
X015091Y014034*
X015096Y014075*
G37*
G36*
X014700D02*
X014404D01*
X014409Y014034*
X014444Y013948*
X014500Y013875*
X014573Y013819*
X014659Y013784*
X014700Y013779*
Y014075*
G37*
G36*
X020180Y014492D02*
Y014150D01*
X020522*
X020515Y014203*
X020475Y014299*
X020412Y014382*
X020329Y014445*
X020233Y014485*
X020180Y014492*
G37*
G36*
X020080D02*
X020027Y014485D01*
X019931Y014445*
X019848Y014382*
X019785Y014299*
X019745Y014203*
X019738Y014150*
X020080*
Y014492*
G37*
G36*
X009850Y014392D02*
Y014050D01*
X010192*
X010185Y014103*
X010145Y014199*
X010082Y014282*
X009999Y014345*
X009903Y014385*
X009850Y014392*
G37*
G36*
X009750Y013950D02*
X009408D01*
X009415Y013897*
X009455Y013801*
X009518Y013718*
X009601Y013655*
X009697Y013615*
X009750Y013608*
Y013950*
G37*
G36*
X008800Y014399D02*
X008697Y014385D01*
X008601Y014345*
X008518Y014282*
X008455Y014199*
X008415Y014103*
X008401Y014000*
X008415Y013897*
X008455Y013801*
X008518Y013718*
X008601Y013655*
X008697Y013615*
X008800Y013601*
X008903Y013615*
X008999Y013655*
X009082Y013718*
X009145Y013801*
X009185Y013897*
X009199Y014000*
X009185Y014103*
X009145Y014199*
X009082Y014282*
X008999Y014345*
X008903Y014385*
X008800Y014399*
G37*
G36*
X014800Y013396D02*
Y013100D01*
X015096*
X015091Y013141*
X015056Y013227*
X015000Y013300*
X014927Y013356*
X014841Y013391*
X014800Y013396*
G37*
G36*
X020080Y014050D02*
X019738D01*
X019745Y013997*
X019785Y013901*
X019848Y013818*
X019931Y013755*
X020027Y013715*
X020080Y013708*
Y014050*
G37*
G36*
X020522D02*
X020180D01*
Y013708*
X020233Y013715*
X020329Y013755*
X020412Y013818*
X020475Y013901*
X020515Y013997*
X020522Y014050*
G37*
G36*
X010192Y013950D02*
X009850D01*
Y013608*
X009903Y013615*
X009999Y013655*
X010082Y013718*
X010145Y013801*
X010185Y013897*
X010192Y013950*
G37*
%LNmetr4810_pcb_c_layout-3*%
%LPD*%
G54D21*
X007553Y000250D02*
X010570D01*
X006858Y000555D02*
X013265D01*
X006858Y-000445D02*
X007553Y000250D01*
X013215Y001555D02*
X014215Y002555D01*
X006858Y001555D02*
X013215D01*
X010560Y001900D02*
X011215Y002555D01*
X007513Y001900D02*
X010560D01*
X006858Y002555D02*
X007513Y001900D01*
X010570Y000250D02*
X011265Y-000445D01*
X013265Y000555D02*
X014265Y-000445D01*
X005500Y018161D02*
X005850Y017811D01*
Y007728D02*
Y017811D01*
X004799Y006677D02*
X005850Y007728D01*
X004799Y007768D02*
X005550Y008519D01*
Y017111*
X004500Y018161D02*
X005550Y017111D01*
X003000Y017661D02*
X003500Y018161D01*
X003000Y008994D02*
Y017661D01*
Y008994D02*
X003681Y008313D01*
X002500Y008403D02*
X003681Y007222D01*
X002500Y008403D02*
Y018161D01*
G54D22*
X004549Y009949D02*
X004799D01*
X004250Y009650D02*
X004549Y009949D01*
X004250Y005486D02*
Y009650D01*
X003153Y004389D02*
X004250Y005486D01*
X003153Y-000098D02*
Y004389D01*
Y-000098D02*
X003500Y-000445D01*
X009500Y009050D02*
X010402D01*
X015552Y003900*
G54D24*
X008800Y016000D03*
X006858Y-000445D03*
X020130Y002555D03*
Y013100D03*
G54D25*
X009800Y016000D03*
X008800Y015000D03*
X009800D03*
X008800Y014000D03*
X009800D03*
X002500Y018161D03*
X003500D03*
X004500D03*
X013215D03*
X012215D03*
X008858D03*
X007858D03*
X006858Y002555D03*
Y001555D03*
Y000555D03*
X016573Y018161D03*
X010215Y002555D03*
X011215D03*
X012215D03*
X013215D03*
X014215D03*
X015215D03*
X016215D03*
X010215Y-000445D03*
X011215D03*
X012215D03*
X013215D03*
X014215D03*
X015215D03*
X016215D03*
X003500D03*
X004500D03*
X020130Y005555D03*
Y004555D03*
Y003555D03*
Y014100D03*
G54D26*
X005500Y018161D03*
X014215D03*
X009858D03*
X017573D03*
X009215Y002555D03*
Y-000445D03*
X002500D03*
G54D27*
X004799Y011039D03*
X003681Y010494D03*
X004799Y009949D03*
X003681Y009404D03*
X004799Y008858D03*
X003681Y008313D03*
X004799Y007768D03*
X003681Y007222D03*
G54D28*
X004799Y006677D03*
G54D29*
X004240Y003939D03*
Y013778D03*
G54D30*
X010400Y010350D03*
X010850Y004900D03*
X015552Y003900D03*
X009500Y009050D03*
X006500Y008000D03*
X014750Y014125D03*
Y015200D03*
Y013050D03*
G54D31*
X019685Y017717D03*
Y000000D03*
X000000Y017717D03*
Y000000D03*
M02*