%FSDAX24Y24*%
%MOIN*%
%SFA1B1*%

%IPPOS*%
%ADD49R,0.067100X0.067100*%
%ADD50C,0.067100*%
%ADD51R,0.067100X0.067100*%
%ADD52C,0.074500*%
%ADD53R,0.074500X0.074500*%
%ADD54C,0.195400*%
%ADD55C,0.058000*%
%ADD56C,0.204900*%
%LNmetr4810_pcb_c_layout-1*%
%LPD*%
G54D49*
X008800Y016000D03*
X006858Y-000445D03*
X020130Y002555D03*
Y013100D03*
G54D50*
X009800Y016000D03*
X008800Y015000D03*
X009800D03*
X008800Y014000D03*
X009800D03*
X002500Y018161D03*
X003500D03*
X004500D03*
X013215D03*
X012215D03*
X008858D03*
X007858D03*
X006858Y002555D03*
Y001555D03*
Y000555D03*
X016573Y018161D03*
X010215Y002555D03*
X011215D03*
X012215D03*
X013215D03*
X014215D03*
X015215D03*
X016215D03*
X010215Y-000445D03*
X011215D03*
X012215D03*
X013215D03*
X014215D03*
X015215D03*
X016215D03*
X003500D03*
X004500D03*
X020130Y005555D03*
Y004555D03*
Y003555D03*
Y014100D03*
G54D51*
X005500Y018161D03*
X014215D03*
X009858D03*
X017573D03*
X009215Y002555D03*
Y-000445D03*
X002500D03*
G54D52*
X004799Y011039D03*
X003681Y010494D03*
X004799Y009949D03*
X003681Y009404D03*
X004799Y008858D03*
X003681Y008313D03*
X004799Y007768D03*
X003681Y007222D03*
G54D53*
X004799Y006677D03*
G54D54*
X004240Y003939D03*
Y013778D03*
G54D55*
X010400Y010350D03*
X010850Y004900D03*
X015552Y003900D03*
X009500Y009050D03*
X006500Y008000D03*
X014750Y014125D03*
Y015200D03*
Y013050D03*
G54D56*
X019685Y017717D03*
Y000000D03*
X000000Y017717D03*
Y000000D03*
M02*