%FSDAX24Y24*%
%MOIN*%
%SFA1B1*%

%IPPOS*%
%ADD38O,0.076900X0.029700*%
%ADD39O,0.029700X0.076900*%
%ADD40R,0.035600X0.043400*%
%ADD41R,0.043400X0.035600*%
%ADD42R,0.047400X0.045400*%
%ADD43R,0.045400X0.047400*%
%ADD44R,0.051300X0.063100*%
%ADD45R,0.102500X0.049300*%
%ADD46R,0.358400X0.427300*%
%ADD47R,0.074900X0.051300*%
%ADD48R,0.051300X0.074900*%
%ADD49R,0.067100X0.067100*%
%ADD50C,0.067100*%
%ADD51R,0.067100X0.067100*%
%ADD52C,0.074500*%
%ADD53R,0.074500X0.074500*%
%ADD54C,0.195400*%
%ADD55C,0.058000*%
%ADD56C,0.204900*%
%LNmetr4810_pcb_c_layout-1*%
%LPD*%
G54D38*
X012624Y010675D03*
Y010360D03*
Y010045D03*
Y009730D03*
Y009415D03*
Y009100D03*
Y008785D03*
Y008470D03*
Y008155D03*
Y007840D03*
Y007525D03*
X008176D03*
Y007840D03*
Y008155D03*
Y008470D03*
Y008785D03*
Y009100D03*
Y009415D03*
Y009730D03*
Y010045D03*
Y010360D03*
Y010675D03*
G54D39*
X011975Y006876D03*
X011660D03*
X011345D03*
X011030D03*
X010715D03*
X010400D03*
X010085D03*
X009770D03*
X009455D03*
X009140D03*
X008825D03*
Y011324D03*
X009140D03*
X009455D03*
X009770D03*
X010085D03*
X010400D03*
X010715D03*
X011030D03*
X011345D03*
X011660D03*
X011975D03*
G54D40*
X018335Y003882D03*
X018926D03*
Y004454D03*
X018335D03*
Y005950D03*
X018926D03*
Y003309D03*
X018335D03*
Y005027D03*
X018926D03*
G54D41*
X012373Y005133D03*
Y005723D03*
X009043Y012690D03*
Y012099D03*
X016186Y007995D03*
Y007405D03*
X018041Y007995D03*
Y007405D03*
X016759D03*
Y007995D03*
G54D42*
X011731Y005093D03*
Y005723D03*
X017400Y007385D03*
Y008015D03*
G54D43*
X018335Y006591D03*
X018965D03*
X018315Y002668D03*
X018945D03*
G54D44*
X010405Y005700D03*
X010995D03*
X010245Y012350D03*
X009655D03*
X020394Y007299D03*
X019803D03*
X020394Y008068D03*
X019803D03*
X020394Y006529D03*
X019803D03*
G54D45*
X018850Y013100D03*
Y015100D03*
G54D46*
X014775Y014100D03*
G54D47*
X006750Y008769D03*
Y009832D03*
G54D48*
X014018Y009100D03*
X015081D03*
X019331Y008896D03*
X020394D03*
X019331Y009800D03*
X020394D03*
G54D49*
X008800Y016000D03*
X006858Y-000445D03*
X020130Y002555D03*
Y013100D03*
G54D50*
X009800Y016000D03*
X008800Y015000D03*
X009800D03*
X008800Y014000D03*
X009800D03*
X002500Y018161D03*
X003500D03*
X004500D03*
X013215D03*
X012215D03*
X008858D03*
X007858D03*
X006858Y002555D03*
Y001555D03*
Y000555D03*
X016573Y018161D03*
X010215Y002555D03*
X011215D03*
X012215D03*
X013215D03*
X014215D03*
X015215D03*
X016215D03*
X010215Y-000445D03*
X011215D03*
X012215D03*
X013215D03*
X014215D03*
X015215D03*
X016215D03*
X003500D03*
X004500D03*
X020130Y005555D03*
Y004555D03*
Y003555D03*
Y014100D03*
G54D51*
X005500Y018161D03*
X014215D03*
X009858D03*
X017573D03*
X009215Y002555D03*
Y-000445D03*
X002500D03*
G54D52*
X004799Y011039D03*
X003681Y010494D03*
X004799Y009949D03*
X003681Y009404D03*
X004799Y008858D03*
X003681Y008313D03*
X004799Y007768D03*
X003681Y007222D03*
G54D53*
X004799Y006677D03*
G54D54*
X004240Y003939D03*
Y013778D03*
G54D55*
X010400Y010350D03*
X010850Y004900D03*
X015552Y003900D03*
X009500Y009050D03*
X006500Y008000D03*
X014750Y014125D03*
Y015200D03*
Y013050D03*
G54D56*
X019685Y017717D03*
Y000000D03*
X000000Y017717D03*
Y000000D03*
M02*