%FSDAX24Y24*%
%MOIN*%
%SFA1B1*%

%IPPOS*%
%ADD10O,0.068900X0.021700*%
%ADD11O,0.021700X0.068900*%
%ADD12R,0.027600X0.035400*%
%ADD13R,0.035400X0.027600*%
%ADD14R,0.039400X0.037400*%
%ADD15R,0.037400X0.039400*%
%ADD16R,0.043300X0.055100*%
%ADD17R,0.094500X0.041300*%
%ADD18R,0.350400X0.419300*%
%ADD19R,0.066900X0.043300*%
%ADD20R,0.043300X0.066900*%
%ADD21C,0.020000*%
%ADD22C,0.010000*%
%ADD23C,0.040000*%
%ADD24R,0.059100X0.059100*%
%ADD25C,0.059100*%
%ADD26R,0.059100X0.059100*%
%ADD27C,0.066500*%
%ADD28R,0.066500X0.066500*%
%ADD29C,0.187400*%
%ADD30C,0.050000*%
%ADD31C,0.196900*%
%ADD35C,0.005000*%
%ADD57C,0.080000*%
%ADD58C,0.160000*%
%ADD59C,0.320000*%
%LNmetr4810_pcb_c_layout-1*%
%LPD*%
G54D35*
X019918Y019493D02*
X020148Y019447D01*
X020371Y019372*
X020581Y019268*
X020775Y019138*
X020952Y018984*
X021107Y018807*
X021237Y018612*
X021340Y018402*
X021416Y018180*
X021462Y017950*
X021477Y017721*
X021476Y017719*
X021475Y-000001*
X021476Y-000007*
X021462Y-000233*
X021416Y-000463*
X021340Y-000685*
X021237Y-000896*
X021107Y-001090*
X020952Y-001267*
X020775Y-001422*
X020581Y-001552*
X020371Y-001655*
X020148Y-001730*
X019918Y-001777*
X019692Y-001791*
X019686Y-001791*
X-000001*
X-000007Y-001791*
X-000233Y-001777*
X-000463Y-001730*
X-000685Y-001655*
X-000896Y-001552*
X-001090Y-001422*
X-001267Y-001267*
X-001422Y-001090*
X-001552Y-000896*
X-001655Y-000685*
X-001730Y-000463*
X-001777Y-000233*
X-001791Y-000007*
X-001791Y-000001*
Y017719*
X-001791Y017724*
X-001777Y017950*
X-001730Y018180*
X-001655Y018402*
X-001552Y018612*
X-001422Y018807*
X-001267Y018984*
X-001090Y019138*
X-000896Y019268*
X-000685Y019372*
X-000463Y019447*
X-000233Y019493*
X-000007Y019507*
X-000001Y019507*
X019686*
X019692Y019507*
X019918Y019493*
G54D22*
X019912Y019443D02*
X020135Y019399D01*
X020352Y019326*
X020556Y019225*
X020745Y019098*
X020916Y018948*
X021067Y018777*
X021193Y018587*
X021294Y018383*
X021368Y018167*
X021412Y017944*
X021426Y017725*
X021426Y017725*
X021425Y-000005*
X021426Y-000009*
X021412Y-000227*
X021368Y-000450*
X021294Y-000666*
X021193Y-000871*
X021067Y-001060*
X020916Y-001231*
X020745Y-001382*
X020556Y-001508*
X020352Y-001609*
X020135Y-001682*
X019912Y-001727*
X019694Y-001741*
X019690Y-001741*
X-000005*
X-000009Y-001741*
X-000227Y-001727*
X-000450Y-001682*
X-000666Y-001609*
X-000871Y-001508*
X-001060Y-001382*
X-001231Y-001231*
X-001382Y-001060*
X-001508Y-000871*
X-001609Y-000666*
X-001682Y-000450*
X-001727Y-000227*
X-001741Y-000009*
X-001741Y-000005*
Y017723*
X-001741Y017726*
X-001727Y017944*
X-001682Y018167*
X-001609Y018383*
X-001508Y018587*
X-001382Y018777*
X-001231Y018948*
X-001060Y019098*
X-000871Y019224*
X-000666Y019326*
X-000450Y019399*
X-000227Y019443*
X-000009Y019457*
X-000005Y019457*
X019690*
X019694Y019457*
X019912Y019443*
G54D21*
X019899Y019344D02*
X020109Y019302D01*
X020313Y019233*
X020505Y019138*
X020684Y019018*
X020846Y018877*
X020987Y018716*
X021107Y018537*
X021202Y018344*
X021271Y018141*
X021313Y017931*
X021326Y017724*
X021325Y-000012*
X021326Y-000013*
X021313Y-000214*
X021271Y-000424*
X021201Y-000627*
X021107Y-000821*
X020987Y-000999*
X020845Y-001160*
X020684Y-001302*
X020506Y-001422*
X020314Y-001516*
X020109Y-001585*
X019898Y-001628*
X019698Y-001641*
X019697Y-001641*
X-000012*
X-000013Y-001641*
X-000213Y-001628*
X-000424Y-001585*
X-000628Y-001516*
X-000821Y-001422*
X-000999Y-001302*
X-001160Y-001160*
X-001302Y-000999*
X-001422Y-000821*
X-001516Y-000628*
X-001585Y-000424*
X-001628Y-000213*
X-001641Y-000013*
X-001641Y-000012*
Y017731*
X-001641Y017731*
X-001628Y017930*
X-001585Y018141*
X-001516Y018345*
X-001422Y018537*
X-001302Y018716*
X-001161Y018877*
X-000999Y019018*
X-000821Y019138*
X-000627Y019233*
X-000424Y019302*
X-000214Y019344*
X-000013Y019357*
X-000012Y019357*
X019697*
X019698Y019357*
X019899Y019344*
G54D23*
X019873Y019145D02*
X020058Y019108D01*
X020237Y019048*
X020405Y018965*
X020562Y018859*
X020704Y018735*
X020828Y018594*
X020933Y018437*
X021016Y018267*
X021078Y018089*
X021114Y017905*
X021126Y017718*
X021125Y-000027*
X021125Y-000022*
X021114Y-000188*
X021078Y-000372*
X021016Y-000551*
X020933Y-000721*
X020828Y-000877*
X020704Y-001019*
X020562Y-001144*
X020405Y-001248*
X020237Y-001331*
X020057Y-001392*
X019872Y-001429*
X019705Y-001440*
X019710Y-001441*
X-000025*
X-000020Y-001440*
X-000187Y-001429*
X-000372Y-001392*
X-000551Y-001331*
X-000721Y-001248*
X-000877Y-001143*
X-001019Y-001019*
X-001143Y-000877*
X-001248Y-000721*
X-001331Y-000551*
X-001392Y-000372*
X-001429Y-000187*
X-001440Y-000020*
X-001441Y-000025*
Y017725*
X-001429Y017904*
X-001392Y018089*
X-001331Y018268*
X-001248Y018437*
X-001143Y018594*
X-001019Y018735*
X-000877Y018859*
X-000720Y018964*
X-000551Y019048*
X-000373Y019108*
X-000188Y019145*
X-000020Y019156*
X-000025Y019157*
X019710*
X019705Y019156*
X019873Y019145*
G54D57*
X019821Y018747D02*
X019955Y018721D01*
X020083Y018678*
X020204Y018618*
X020318Y018541*
X020421Y018451*
X020510Y018350*
X020586Y018237*
X020646Y018113*
X020690Y017985*
X020716Y017853*
X020726Y017705*
X020726Y005314*
X020967Y003709*
X020716Y-000136*
X020690Y-000268*
X020646Y-000397*
X020586Y-000520*
X020511Y-000632*
X020420Y-000735*
X020317Y-000826*
X020205Y-000901*
X020084Y-000960*
X019954Y-001004*
X019819Y-001032*
X015695Y-001301*
X013775Y-001041*
X005909*
X003989Y-001301*
X-000134Y-001032*
X-000268Y-001004*
X-000399Y-000960*
X-000520Y-000901*
X-000632Y-000826*
X-000735Y-000735*
X-000826Y-000632*
X-000901Y-000520*
X-000960Y-000399*
X-001004Y-000268*
X-001032Y-000134*
X-001301Y003989*
X-001041Y005909*
Y017712*
X-001031Y017851*
X-001004Y017985*
X-000961Y018115*
X-000901Y018237*
X-000825Y018350*
X-000736Y018451*
X-000633Y018541*
X-000519Y018617*
X-000397Y018678*
X-000270Y018721*
X-000136Y018747*
X003955Y019014*
X005838Y018757*
X013846*
X015727Y019014*
X019821Y018747*
G54D58*
X019717Y017952D02*
X019749Y017946D01*
X019776Y017937*
X019801Y017925*
X019831Y017905*
X019855Y017883*
X019874Y017862*
X019891Y017836*
X019906Y017806*
X019916Y017777*
X019921Y017749*
X019926Y017679*
X019926Y005254*
X020163Y003675*
X019921Y-000032*
X019916Y-000060*
X019906Y-000090*
X019891Y-000120*
X019875Y-000144*
X019853Y-000168*
X019829Y-000190*
X019803Y-000207*
X019779Y-000219*
X019746Y-000230*
X019714Y-000237*
X015723Y-000497*
X013829Y-000240*
X005855Y-000241*
X003961Y-000497*
X-000029Y-000237*
X-000060Y-000230*
X-000093Y-000219*
X-000120Y-000206*
X-000144Y-000190*
X-000168Y-000168*
X-000190Y-000144*
X-000206Y-000120*
X-000219Y-000093*
X-000230Y-000060*
X-000237Y-000029*
X-000497Y003961*
X-000240Y005855*
X-000241Y017687*
X-000237Y017746*
X-000230Y017777*
X-000220Y017809*
X-000206Y017836*
X-000189Y017862*
X-000170Y017884*
X-000146Y017905*
X-000117Y017924*
X-000090Y017937*
X-000063Y017946*
X-000032Y017952*
X003927Y018211*
X005783Y017957*
X013901*
X015756Y018211*
X019717Y017952*
G54D59*
X019509Y016363D02*
X019337Y016397D01*
X019162Y016456*
X018996Y016538*
X018856Y016632*
X018723Y016748*
X018601Y016887*
X018502Y017035*
X018426Y017190*
X018367Y017361*
X018332Y017542*
X018326Y017627*
X018326Y005134*
X018556Y003607*
X018332Y000175*
X018367Y000355*
X018425Y000523*
X018502Y000680*
X018604Y000832*
X018720Y000964*
X018852Y001080*
X019001Y001180*
X019167Y001262*
X019331Y001317*
X019503Y001352*
X015779Y001109*
X013936Y001359*
X005748Y001358*
X003905Y001109*
X000181Y001352*
X000355Y001317*
X000517Y001262*
X000681Y001182*
X000832Y001080*
X000964Y000964*
X001080Y000832*
X001182Y000681*
X001262Y000517*
X001317Y000355*
X001352Y000181*
X001109Y003905*
X001359Y005748*
X001359Y017635*
X001352Y017535*
X001317Y017361*
X001261Y017196*
X001182Y017035*
X001083Y016887*
X000961Y016748*
X000828Y016632*
X000685Y016536*
X000523Y016456*
X000349Y016397*
X000175Y016363*
X003870Y016604*
X005674Y016357*
X014010*
X015813Y016604*
X019509Y016363*
X001840Y001830D02*
X017830D01*
X001840Y005030D02*
X017830D01*
X001840Y008230D02*
X017830D01*
X001840Y011430D02*
X017830D01*
X001840Y014630D02*
X017830D01*
%LNmetr4810_pcb_c_layout-2*%
%LPC*%
G36*
X009165Y002950D02*
X008820D01*
Y002605*
X009165*
Y002950*
G37*
G36*
X016607Y002505D02*
X016265D01*
Y002163*
X016319Y002170*
X016415Y002210*
X016497Y002273*
X016561Y002356*
X016600Y002452*
X016607Y002505*
G37*
G36*
X016265Y002947D02*
Y002605D01*
X016607*
X016600Y002658*
X016561Y002754*
X016497Y002837*
X016415Y002900*
X016319Y002940*
X016265Y002947*
G37*
G36*
X016165D02*
X016112Y002940D01*
X016016Y002900*
X015933Y002837*
X015870Y002754*
X015830Y002658*
X015823Y002605*
X016165*
Y002947*
G37*
G36*
X009611Y002505D02*
X009265D01*
Y002160*
X009611*
Y002505*
G37*
G36*
X009165D02*
X008820D01*
Y002160*
X009165*
Y002505*
G37*
G36*
X016165D02*
X015823D01*
X015830Y002452*
X015870Y002356*
X015933Y002273*
X016016Y002210*
X016112Y002170*
X016165Y002163*
Y002505*
G37*
G36*
X020080D02*
X019735D01*
Y002160*
X020080*
Y002505*
G37*
G36*
X020525Y002950D02*
X020180D01*
Y002605*
X020525*
Y002950*
G37*
G36*
X009770Y007324D02*
X009689Y007308D01*
X009620Y007262*
X009605*
X009536Y007308*
X009455Y007324*
X009374Y007308*
X009305Y007262*
X009290*
X009221Y007308*
X009140Y007324*
X009059Y007308*
X008990Y007262*
X008975*
X008906Y007308*
X008825Y007324*
X008744Y007308*
X008675Y007262*
X008629Y007193*
X008613Y007112*
Y006639*
X008621Y006597*
Y003945*
X008637Y003867*
X008681Y003801*
X009486Y002997*
X009466Y002950*
X009265*
Y002605*
X009611*
Y002806*
X009657Y002825*
X009830Y002653*
X009817Y002555*
X009830Y002452*
X009870Y002356*
X009933Y002273*
X010016Y002210*
X010112Y002170*
X010215Y002156*
X010319Y002170*
X010415Y002210*
X010497Y002273*
X010561Y002356*
X010600Y002452*
X010614Y002555*
X010600Y002658*
X010561Y002754*
X010497Y002837*
X010415Y002900*
X010319Y002940*
X010215Y002954*
X010118Y002941*
X009029Y004030*
Y005167*
X009075Y005186*
X010256Y004006*
X010322Y003962*
X010400Y003946*
X013536*
X014830Y002653*
X014817Y002555*
X014830Y002452*
X014870Y002356*
X014933Y002273*
X015016Y002210*
X015112Y002170*
X015215Y002156*
X015319Y002170*
X015415Y002210*
X015497Y002273*
X015561Y002356*
X015600Y002452*
X015614Y002555*
X015600Y002658*
X015561Y002754*
X015497Y002837*
X015415Y002900*
X015319Y002940*
X015215Y002954*
X015118Y002941*
X013765Y004294*
X013699Y004338*
X013620Y004354*
X010484*
X009344Y005494*
Y006408*
X009394Y006439*
X009455Y006427*
X009536Y006443*
X009605Y006489*
X009620*
X009689Y006443*
X009770Y006427*
X009851Y006443*
X009920Y006489*
X009935*
X010004Y006443*
X010035Y006437*
Y006876*
Y007314*
X010004Y007308*
X009935Y007262*
X009920*
X009851Y007308*
X009770Y007324*
G37*
G36*
X003681Y007659D02*
X003568Y007644D01*
X003463Y007600*
X003372Y007531*
X003303Y007441*
X003259Y007335*
X003244Y007222*
X003259Y007109*
X003303Y007004*
X003372Y006914*
X003463Y006844*
X003568Y006801*
X003681Y006786*
X003794Y006801*
X003899Y006844*
X003989Y006914*
X004059Y007004*
X004102Y007109*
X004117Y007222*
X004102Y007335*
X004059Y007441*
X003989Y007531*
X003899Y007600*
X003794Y007644*
X003681Y007659*
G37*
G36*
X017991Y007643D02*
X017764D01*
Y007455*
X017991*
Y007643*
G37*
G36*
X004799Y008204D02*
X004686Y008189D01*
X004581Y008146*
X004490Y008076*
X004421Y007986*
X004377Y007881*
X004363Y007768*
X004377Y007655*
X004421Y007550*
X004490Y007459*
X004581Y007390*
X004686Y007346*
X004799Y007331*
X004912Y007346*
X005017Y007390*
X005108Y007459*
X005177Y007550*
X005220Y007655*
X005235Y007768*
X005220Y007881*
X005177Y007986*
X005108Y008076*
X005017Y008146*
X004912Y008189*
X004799Y008204*
G37*
G36*
X012028Y005380D02*
X011435D01*
Y004806*
X012028*
Y004980*
X012096*
Y004895*
X012650*
Y005370*
X012096*
Y005286*
X012028*
Y005380*
G37*
G36*
X004240Y004979D02*
X004077Y004966D01*
X003918Y004928*
X003768Y004866*
X003628Y004781*
X003504Y004675*
X003398Y004550*
X003313Y004411*
X003251Y004260*
X003212Y004102*
X003200Y003939*
X003212Y003776*
X003251Y003618*
X003313Y003467*
X003398Y003328*
X003504Y003203*
X003628Y003097*
X003768Y003012*
X003918Y002950*
X004077Y002912*
X004240Y002899*
X004403Y002912*
X004561Y002950*
X004712Y003012*
X004851Y003097*
X004975Y003203*
X005081Y003328*
X005167Y003467*
X005229Y003618*
X005267Y003776*
X005280Y003939*
X005267Y004102*
X005229Y004260*
X005167Y004411*
X005081Y004550*
X004975Y004675*
X004851Y004781*
X004712Y004866*
X004561Y004928*
X004403Y004966*
X004240Y004979*
G37*
G36*
X005232Y007110D02*
X004366D01*
Y006244*
X005232*
Y007110*
G37*
G36*
X011312Y005650D02*
X011045D01*
Y005324*
X011312*
Y005650*
G37*
G36*
X014215Y-000046D02*
X014112Y-000060D01*
X014016Y-000100*
X013933Y-000163*
X013870Y-000246*
X013830Y-000342*
X013817Y-000445*
X013830Y-000548*
X013870Y-000644*
X013933Y-000727*
X014016Y-000790*
X014112Y-000830*
X014215Y-000844*
X014319Y-000830*
X014415Y-000790*
X014497Y-000727*
X014561Y-000644*
X014600Y-000548*
X014614Y-000445*
X014600Y-000342*
X014561Y-000246*
X014497Y-000163*
X014415Y-000100*
X014319Y-000060*
X014215Y-000046*
G37*
G36*
X013215D02*
X013112Y-000060D01*
X013016Y-000100*
X012933Y-000163*
X012870Y-000246*
X012830Y-000342*
X012817Y-000445*
X012830Y-000548*
X012870Y-000644*
X012933Y-000727*
X013016Y-000790*
X013112Y-000830*
X013215Y-000844*
X013319Y-000830*
X013415Y-000790*
X013497Y-000727*
X013561Y-000644*
X013600Y-000548*
X013614Y-000445*
X013600Y-000342*
X013561Y-000246*
X013497Y-000163*
X013415Y-000100*
X013319Y-000060*
X013215Y-000046*
G37*
G36*
X009165Y-000495D02*
X008820D01*
Y-000840*
X009165*
Y-000495*
G37*
G36*
X007253Y-000050D02*
X006462D01*
Y-000840*
X007253*
Y-000050*
G37*
G36*
X004500Y-000046D02*
X004397Y-000060D01*
X004301Y-000100*
X004218Y-000163*
X004155Y-000246*
X004115Y-000342*
X004101Y-000445*
X004115Y-000548*
X004155Y-000644*
X004218Y-000727*
X004301Y-000790*
X004397Y-000830*
X004500Y-000844*
X004603Y-000830*
X004699Y-000790*
X004782Y-000727*
X004845Y-000644*
X004885Y-000548*
X004899Y-000445*
X004885Y-000342*
X004845Y-000246*
X004782Y-000163*
X004699Y-000100*
X004603Y-000060*
X004500Y-000046*
G37*
G36*
X000000Y001088D02*
X-000170Y001074D01*
X-000336Y001034*
X-000494Y000969*
X-000639Y000880*
X-000769Y000769*
X-000880Y000639*
X-000969Y000494*
X-001034Y000336*
X-001074Y000170*
X-001088Y000000*
X-001074Y-000170*
X-001034Y-000336*
X-000969Y-000494*
X-000880Y-000639*
X-000769Y-000769*
X-000639Y-000880*
X-000494Y-000969*
X-000336Y-001034*
X-000170Y-001074*
X000000Y-001088*
X000170Y-001074*
X000336Y-001034*
X000494Y-000969*
X000639Y-000880*
X000769Y-000769*
X000880Y-000639*
X000969Y-000494*
X001034Y-000336*
X001074Y-000170*
X001088Y000000*
X001074Y000170*
X001034Y000336*
X000969Y000494*
X000880Y000639*
X000769Y000769*
X000639Y000880*
X000494Y000969*
X000336Y001034*
X000170Y001074*
X000000Y001088*
G37*
G36*
X012215Y-000046D02*
X012112Y-000060D01*
X012016Y-000100*
X011933Y-000163*
X011870Y-000246*
X011830Y-000342*
X011817Y-000445*
X011830Y-000548*
X011870Y-000644*
X011933Y-000727*
X012016Y-000790*
X012112Y-000830*
X012215Y-000844*
X012319Y-000830*
X012415Y-000790*
X012497Y-000727*
X012561Y-000644*
X012600Y-000548*
X012614Y-000445*
X012600Y-000342*
X012561Y-000246*
X012497Y-000163*
X012415Y-000100*
X012319Y-000060*
X012215Y-000046*
G37*
G36*
X011215D02*
X011112Y-000060D01*
X011016Y-000100*
X010933Y-000163*
X010870Y-000246*
X010830Y-000342*
X010817Y-000445*
X010830Y-000548*
X010870Y-000644*
X010933Y-000727*
X011016Y-000790*
X011112Y-000830*
X011215Y-000844*
X011319Y-000830*
X011415Y-000790*
X011497Y-000727*
X011561Y-000644*
X011600Y-000548*
X011614Y-000445*
X011600Y-000342*
X011561Y-000246*
X011497Y-000163*
X011415Y-000100*
X011319Y-000060*
X011215Y-000046*
G37*
G36*
X009611Y-000495D02*
X009265D01*
Y-000840*
X009611*
Y-000495*
G37*
G36*
X012215Y002954D02*
X012112Y002940D01*
X012016Y002900*
X011933Y002837*
X011870Y002754*
X011830Y002658*
X011817Y002555*
X011830Y002452*
X011870Y002356*
X011933Y002273*
X012016Y002210*
X012112Y002170*
X012215Y002156*
X012319Y002170*
X012415Y002210*
X012497Y002273*
X012561Y002356*
X012600Y002452*
X012614Y002555*
X012600Y002658*
X012561Y002754*
X012497Y002837*
X012415Y002900*
X012319Y002940*
X012215Y002954*
G37*
G36*
X011215D02*
X011112Y002940D01*
X011016Y002900*
X010933Y002837*
X010870Y002754*
X010830Y002658*
X010817Y002555*
X010830Y002452*
X010870Y002356*
X010933Y002273*
X011016Y002210*
X011112Y002170*
X011215Y002156*
X011319Y002170*
X011415Y002210*
X011497Y002273*
X011561Y002356*
X011600Y002452*
X011614Y002555*
X011600Y002658*
X011561Y002754*
X011497Y002837*
X011415Y002900*
X011319Y002940*
X011215Y002954*
G37*
G36*
X014215D02*
X014112Y002940D01*
X014016Y002900*
X013933Y002837*
X013870Y002754*
X013830Y002658*
X013817Y002555*
X013830Y002452*
X013870Y002356*
X013933Y002273*
X014016Y002210*
X014112Y002170*
X014215Y002156*
X014319Y002170*
X014415Y002210*
X014497Y002273*
X014561Y002356*
X014600Y002452*
X014614Y002555*
X014600Y002658*
X014561Y002754*
X014497Y002837*
X014415Y002900*
X014319Y002940*
X014215Y002954*
G37*
G36*
X013215D02*
X013112Y002940D01*
X013016Y002900*
X012933Y002837*
X012870Y002754*
X012830Y002658*
X012817Y002555*
X012830Y002452*
X012870Y002356*
X012933Y002273*
X013016Y002210*
X013112Y002170*
X013215Y002156*
X013319Y002170*
X013415Y002210*
X013497Y002273*
X013561Y002356*
X013600Y002452*
X013614Y002555*
X013600Y002658*
X013561Y002754*
X013497Y002837*
X013415Y002900*
X013319Y002940*
X013215Y002954*
G37*
G36*
X009611Y-000050D02*
X009265D01*
Y-000395*
X009611*
Y-000050*
G37*
G36*
X009165D02*
X008820D01*
Y-000395*
X009165*
Y-000050*
G37*
G36*
X006858Y001954D02*
X006754Y001940D01*
X006658Y001900*
X006576Y001837*
X006512Y001754*
X006473Y001658*
X006459Y001555*
X006473Y001452*
X006512Y001356*
X006576Y001273*
X006658Y001210*
X006754Y001170*
X006858Y001156*
X006961Y001170*
X007057Y001210*
X007140Y001273*
X007203Y001356*
X007243Y001452*
X007256Y001555*
X007243Y001658*
X007203Y001754*
X007140Y001837*
X007057Y001900*
X006961Y001940*
X006858Y001954*
G37*
G36*
Y000954D02*
X006754Y000940D01*
X006658Y000900*
X006576Y000837*
X006512Y000754*
X006473Y000658*
X006459Y000555*
X006473Y000452*
X006512Y000356*
X006576Y000273*
X006658Y000210*
X006754Y000170*
X006858Y000156*
X006961Y000170*
X007057Y000210*
X007140Y000273*
X007203Y000356*
X007243Y000452*
X007256Y000555*
X007243Y000658*
X007203Y000754*
X007140Y000837*
X007057Y000900*
X006961Y000940*
X006858Y000954*
G37*
G36*
X018319Y007643D02*
X018091D01*
Y007455*
X018319*
Y007643*
G37*
G36*
X003500Y018560D02*
X003397Y018547D01*
X003301Y018507*
X003218Y018443*
X003155Y018361*
X003115Y018265*
X003101Y018161*
X003115Y018058*
X003155Y017962*
X003218Y017880*
X003301Y017816*
X003397Y017776*
X003500Y017763*
X003603Y017776*
X003699Y017816*
X003782Y017880*
X003845Y017962*
X003885Y018058*
X003899Y018161*
X003885Y018265*
X003845Y018361*
X003782Y018443*
X003699Y018507*
X003603Y018547*
X003500Y018560*
G37*
G36*
X002500D02*
X002397Y018547D01*
X002301Y018507*
X002218Y018443*
X002155Y018361*
X002115Y018265*
X002101Y018161*
X002115Y018058*
X002155Y017962*
X002218Y017880*
X002301Y017816*
X002397Y017776*
X002500Y017763*
X002603Y017776*
X002699Y017816*
X002782Y017880*
X002845Y017962*
X002885Y018058*
X002899Y018161*
X002885Y018265*
X002845Y018361*
X002782Y018443*
X002699Y018507*
X002603Y018547*
X002500Y018560*
G37*
G36*
X011577Y018953D02*
X007650D01*
X007591Y018941*
X007542Y018908*
X006692Y018058*
X006659Y018009*
X006647Y017950*
Y012050*
X006659Y011992*
X006692Y011942*
X007791Y010843*
X007789Y010825*
X007743Y010756*
X007727Y010675*
X007743Y010594*
X007764Y010563*
X007737Y010513*
X007454*
X007358Y010608*
X007309Y010641*
X007250Y010653*
X005088*
X005071Y010703*
X005108Y010731*
X005177Y010821*
X005220Y010926*
X005235Y011039*
X005220Y011152*
X005177Y011258*
X005108Y011348*
X005017Y011417*
X004912Y011461*
X004799Y011476*
X004686Y011461*
X004581Y011417*
X004490Y011348*
X004421Y011258*
X004377Y011152*
X004363Y011039*
X004377Y010926*
X004421Y010821*
X004490Y010731*
X004566Y010673*
X004570Y010626*
X004567Y010613*
X004559Y010608*
X003778Y009827*
X003681Y009840*
X003568Y009825*
X003463Y009781*
X003372Y009712*
X003303Y009622*
X003259Y009516*
X003244Y009404*
X003259Y009291*
X003303Y009185*
X003372Y009095*
X003463Y009026*
X003568Y008982*
X003681Y008967*
X003794Y008982*
X003899Y009026*
X003989Y009095*
X004059Y009185*
X004102Y009291*
X004117Y009404*
X004102Y009516*
X004059Y009622*
X004036Y009652*
X004314Y009931*
X004367Y009913*
X004377Y009836*
X004421Y009731*
X004490Y009640*
X004581Y009571*
X004686Y009527*
X004799Y009512*
X004912Y009527*
X005017Y009571*
X005108Y009640*
X005177Y009731*
X005220Y009836*
X005235Y009949*
X005220Y010062*
X005177Y010167*
X005108Y010257*
X005056Y010297*
X005073Y010347*
X007187*
X007282Y010252*
X007332Y010219*
X007390Y010207*
X007627*
X007643Y010157*
X007637Y010153*
X007231Y009747*
X007185Y009766*
Y009782*
X006750*
X006315*
Y009515*
X006270Y009503*
X005850*
X005791Y009491*
X005742Y009458*
X005295Y009011*
X005204*
X005177Y009076*
X005108Y009167*
X005017Y009236*
X004912Y009280*
X004799Y009295*
X004686Y009280*
X004581Y009236*
X004490Y009167*
X004421Y009076*
X004377Y008971*
X004363Y008858*
X004377Y008745*
X004421Y008640*
X004490Y008550*
X004581Y008480*
X004686Y008437*
X004799Y008422*
X004912Y008437*
X005017Y008480*
X005108Y008550*
X005177Y008640*
X005204Y008705*
X005358*
X005417Y008717*
X005466Y008750*
X005913Y009197*
X007050*
X007109Y009209*
X007158Y009242*
X007683Y009767*
X007730Y009743*
X007727Y009730*
X007743Y009649*
X007789Y009580*
Y009565*
X007743Y009496*
X007727Y009415*
X007743Y009334*
X007768Y009296*
X007786Y009257*
X007768Y009219*
X007743Y009181*
X007737Y009150*
X008176*
X008614*
X008608Y009181*
X008583Y009219*
X008565Y009257*
X008583Y009296*
X008608Y009334*
X008624Y009415*
X008608Y009496*
X008562Y009565*
Y009580*
X008608Y009649*
X008624Y009730*
X008608Y009811*
X008583Y009849*
X008565Y009887*
X008583Y009926*
X008608Y009964*
X008624Y010045*
X008608Y010126*
X008562Y010195*
Y010210*
X008608Y010279*
X008624Y010360*
X008608Y010441*
X008562Y010510*
Y010525*
X008608Y010594*
X008624Y010675*
X008608Y010756*
X008562Y010825*
X008493Y010871*
X008412Y010887*
X008180*
X006953Y012114*
Y017887*
X007523Y018457*
X007559Y018425*
X007560Y018424*
X007532Y018386*
X007512Y018361*
X007473Y018265*
X007459Y018161*
X007473Y018058*
X007512Y017962*
X007576Y017880*
X007658Y017816*
X007705Y017797*
Y012292*
X007716Y012233*
X007750Y012184*
X008613Y011320*
Y011088*
X008629Y011007*
X008675Y010938*
X008744Y010892*
X008825Y010876*
X008906Y010892*
X008937Y010913*
X008987Y010886*
Y009410*
X008999Y009351*
X009032Y009302*
X009169Y009165*
X009159Y009141*
X009147Y009050*
X009159Y008959*
X009194Y008873*
X009250Y008800*
X009323Y008744*
X009409Y008709*
X009500Y008697*
X009591Y008709*
X009677Y008744*
X009750Y008800*
X009806Y008873*
X009841Y008959*
X009853Y009050*
X009841Y009141*
X009806Y009227*
X009750Y009300*
X009677Y009356*
X009591Y009391*
X009500Y009403*
X009409Y009391*
X009385Y009381*
X009293Y009473*
Y010845*
X009343Y010874*
X009359Y010864*
Y010036*
X009371Y009978*
X009404Y009928*
X011960Y007372*
X011943Y007318*
X011894Y007308*
X011825Y007262*
X011810*
X011741Y007308*
X011660Y007324*
X011579Y007308*
X011510Y007262*
X011495*
X011426Y007308*
X011345Y007324*
X011264Y007308*
X011226Y007283*
X011187Y007265*
X011149Y007283*
X011111Y007308*
X011030Y007324*
X010949Y007308*
X010880Y007262*
X010865*
X010796Y007308*
X010765Y007314*
Y006876*
X010665*
Y007314*
X010634Y007308*
X010565Y007262*
X010550*
X010481Y007308*
X010400Y007324*
X010319Y007308*
X010250Y007262*
X010235*
X010166Y007308*
X010135Y007314*
Y006876*
Y006437*
X010166Y006443*
X010197Y006464*
X010247Y006437*
Y006076*
X010088*
Y005324*
X010256*
X010263Y005287*
X010297Y005237*
X010519Y005015*
X010509Y004991*
X010497Y004900*
X010509Y004809*
X010544Y004723*
X010600Y004650*
X010673Y004594*
X010759Y004559*
X010850Y004547*
X010941Y004559*
X011027Y004594*
X011100Y004650*
X011156Y004723*
X011191Y004809*
X011203Y004900*
X011191Y004991*
X011156Y005077*
X011100Y005150*
X011027Y005206*
X010941Y005241*
X010850Y005253*
X010759Y005241*
X010735Y005231*
X010688Y005278*
X010707Y005324*
X010945*
Y005700*
X010995*
Y005750*
X011312*
Y005806*
X011358Y005825*
X011435Y005749*
Y005436*
X012028*
Y006010*
X011606*
X011258Y006358*
X011208Y006391*
X011150Y006403*
X011141*
X011125Y006453*
X011180Y006489*
X011195*
X011264Y006443*
X011345Y006427*
X011426Y006443*
X011495Y006489*
X011510*
X011579Y006443*
X011660Y006427*
X011741Y006443*
X011810Y006489*
X011825*
X011894Y006443*
X011952Y006432*
X012220Y006164*
Y005961*
X012096*
Y005485*
X012650*
Y005961*
X012526*
Y006227*
X012514Y006286*
X012481Y006335*
X012185Y006631*
X012187Y006639*
Y007074*
X012237Y007095*
X013885Y005447*
X013935Y005414*
X013993Y005402*
X019765*
X019785Y005356*
X019848Y005273*
X019931Y005210*
X019946Y005203*
X019936Y005153*
X019163*
Y005304*
X018688*
Y004749*
Y004731*
Y004177*
Y004159*
Y003604*
Y003586*
Y003287*
X018619Y003219*
X018573Y003238*
Y003586*
Y003604*
Y004127*
Y004177*
Y004209*
Y004731*
Y004749*
Y005304*
X018097*
Y004749*
Y004731*
Y004209*
Y004159*
Y004127*
Y004053*
X015867*
X015858Y004077*
X015801Y004150*
X015728Y004206*
X015643Y004241*
X015552Y004253*
X015460Y004241*
X015375Y004206*
X015302Y004150*
X015246Y004077*
X015211Y003991*
X015199Y003900*
X015211Y003809*
X015246Y003723*
X015302Y003650*
X015375Y003594*
X015460Y003559*
X015552Y003547*
X015643Y003559*
X015728Y003594*
X015801Y003650*
X015858Y003723*
X015867Y003747*
X018097*
Y003604*
Y003586*
Y003032*
X018330*
X018355Y002982*
X018342Y002964*
X018028*
Y002371*
X018602*
Y002729*
X018608Y002733*
X018658Y002706*
Y002371*
X019232*
Y002515*
X019242*
X019301Y002526*
X019350Y002559*
X019688Y002897*
X019735Y002878*
Y002605*
X020080*
Y002950*
X019807*
X019788Y002997*
X019980Y003189*
X020027Y003170*
X020130Y003156*
X020233Y003170*
X020329Y003210*
X020412Y003273*
X020475Y003356*
X020515Y003452*
X020529Y003555*
X020515Y003658*
X020496Y003705*
X020601Y003810*
X020647Y003791*
Y002375*
X020571Y002299*
X020525Y002318*
Y002505*
X020180*
Y002160*
X020367*
X020386Y002114*
X019975Y001703*
X018110*
X018032Y001692*
X017959Y001662*
X017896Y001614*
X016234Y-000049*
X016215Y-000046*
X016112Y-000060*
X016016Y-000100*
X015933Y-000163*
X015870Y-000246*
X015830Y-000342*
X015817Y-000445*
X015819Y-000463*
X015576Y-000706*
X015538Y-000673*
X015561Y-000644*
X015600Y-000548*
X015614Y-000445*
X015600Y-000342*
X015561Y-000246*
X015497Y-000163*
X015415Y-000100*
X015319Y-000060*
X015215Y-000046*
X015162Y-000053*
X014115Y000994*
X014049Y001038*
X013970Y001054*
X009809*
X007104Y003759*
Y007041*
X007384Y007321*
X007897*
X007939Y007313*
X008412*
X008493Y007329*
X008562Y007375*
X008608Y007444*
X008624Y007525*
X008608Y007606*
X008562Y007675*
Y007690*
X008608Y007759*
X008624Y007840*
X008608Y007921*
X008562Y007990*
Y008005*
X008608Y008074*
X008624Y008155*
X008608Y008236*
X008583Y008274*
X008565Y008313*
X008583Y008351*
X008608Y008389*
X008624Y008470*
X008608Y008551*
X008562Y008620*
Y008635*
X008608Y008704*
X008624Y008785*
X008608Y008866*
X008562Y008935*
Y008950*
X008608Y009019*
X008614Y009050*
X008176*
X007737*
X007739Y009039*
X007708Y008989*
X007185*
Y009085*
X006315*
Y008452*
X006597*
Y008391*
X006547Y008347*
X006500Y008353*
X006409Y008341*
X006323Y008306*
X006250Y008250*
X006194Y008177*
X006159Y008091*
X006147Y008000*
X006159Y007909*
X006194Y007823*
X006250Y007750*
X006323Y007694*
X006409Y007659*
X006500Y007647*
X006591Y007659*
X006677Y007694*
X006714Y007723*
X006747Y007685*
X006456Y007394*
X006412Y007328*
X006396Y007250*
Y003550*
X006412Y003472*
X006456Y003406*
X006861Y003001*
X006839Y002951*
X006754Y002940*
X006658Y002900*
X006576Y002837*
X006512Y002754*
X006473Y002658*
X006459Y002555*
X006473Y002452*
X006512Y002356*
X006576Y002273*
X006658Y002210*
X006754Y002170*
X006858Y002156*
X006961Y002170*
X007057Y002210*
X007140Y002273*
X007203Y002356*
X007243Y002452*
X007254Y002537*
X007303Y002558*
X009958Y-000097*
X009955Y-000146*
X009933Y-000163*
X009870Y-000246*
X009830Y-000342*
X009817Y-000445*
X009830Y-000548*
X009870Y-000644*
X009933Y-000727*
X010016Y-000790*
X010112Y-000830*
X010215Y-000844*
X010319Y-000830*
X010415Y-000790*
X010497Y-000727*
X010561Y-000644*
X010600Y-000548*
X010614Y-000445*
X010600Y-000342*
X010561Y-000246*
X010497Y-000163*
X010415Y-000100*
X010404Y-000095*
Y-000050*
X010388Y000028*
X010344Y000094*
X009839Y000600*
X009858Y000646*
X013886*
X014843Y-000311*
X014830Y-000342*
X014817Y-000445*
X014830Y-000548*
X014870Y-000644*
X014933Y-000727*
X015016Y-000790*
X015112Y-000830*
X015215Y-000844*
X015319Y-000830*
X015415Y-000790*
X015444Y-000768*
X015477Y-000806*
X015335Y-000947*
X003430*
X003346Y-000863*
X003374Y-000821*
X003397Y-000830*
X003500Y-000844*
X003603Y-000830*
X003699Y-000790*
X003782Y-000727*
X003845Y-000644*
X003885Y-000548*
X003899Y-000445*
X003885Y-000342*
X003845Y-000246*
X003782Y-000163*
X003699Y-000100*
X003603Y-000060*
X003500Y-000046*
X003397Y-000060*
X003301Y-000100*
X003218Y-000163*
X003155Y-000246*
X003115Y-000342*
X003101Y-000445*
X003115Y-000548*
X003124Y-000570*
X003082Y-000599*
X002895Y-000412*
Y-000050*
X002533*
X001803Y000680*
Y009025*
X002969Y010192*
X003368*
X003372Y010186*
X003463Y010116*
X003568Y010073*
X003681Y010058*
X003794Y010073*
X003899Y010116*
X003989Y010186*
X004059Y010276*
X004102Y010381*
X004117Y010494*
X004102Y010607*
X004059Y010712*
X003989Y010803*
X003899Y010872*
X003794Y010916*
X003681Y010931*
X003568Y010916*
X003463Y010872*
X003372Y010803*
X003368Y010797*
X002844*
X002766Y010786*
X002693Y010756*
X002630Y010708*
X001286Y009364*
X001238Y009301*
X001208Y009228*
X001197Y009150*
Y000555*
X001208Y000477*
X001238Y000404*
X001286Y000341*
X002105Y-000478*
Y-000840*
X002467*
X003091Y-001464*
X003154Y-001512*
X003227Y-001542*
X003305Y-001553*
X015460*
X015539Y-001542*
X015612Y-001512*
X015674Y-001464*
X016307Y-000832*
X016319Y-000830*
X016415Y-000790*
X016497Y-000727*
X016561Y-000644*
X016600Y-000548*
X016602Y-000536*
X018236Y001097*
X019397*
X019403Y001047*
X019349Y001034*
X019191Y000969*
X019046Y000880*
X018916Y000769*
X018805Y000639*
X018716Y000494*
X018651Y000336*
X018611Y000170*
X018597Y000000*
X018611Y-000170*
X018651Y-000336*
X018716Y-000494*
X018805Y-000639*
X018916Y-000769*
X019046Y-000880*
X019191Y-000969*
X019349Y-001034*
X019515Y-001074*
X019685Y-001088*
X019855Y-001074*
X020021Y-001034*
X020179Y-000969*
X020324Y-000880*
X020454Y-000769*
X020565Y-000639*
X020654Y-000494*
X020719Y-000336*
X020759Y-000170*
X020773Y000000*
X020759Y000170*
X020719Y000336*
X020654Y000494*
X020565Y000639*
X020454Y000769*
X020324Y000880*
X020179Y000969*
X020021Y001034*
X019967Y001047*
X019973Y001097*
X020100*
X020178Y001108*
X020251Y001138*
X020314Y001186*
X021164Y002036*
X021212Y002099*
X021242Y002172*
X021253Y002250*
Y005973*
X021242Y006051*
X021212Y006124*
X021164Y006187*
X020710Y006641*
Y006905*
Y006923*
Y007674*
Y007692*
Y008444*
Y008462*
Y009331*
Y009365*
Y010235*
X020696*
Y012836*
X020686Y012915*
X020656Y012988*
X020608Y013050*
X020525Y013133*
Y013495*
X019735*
Y013403*
X019422*
Y013407*
X018971*
X017876Y014502*
Y017766*
X017968*
Y018557*
X017178*
Y017766*
X017270*
Y014377*
X017281Y014299*
X017311Y014226*
X017359Y014163*
X018278Y013245*
Y012793*
X019422*
Y012797*
X019735*
Y012705*
X020091*
Y010235*
X020077*
Y009365*
Y009331*
Y008462*
X020035Y008444*
X019716*
X019647Y008512*
Y009331*
Y009365*
Y010235*
X019014*
Y009365*
Y009331*
Y008462*
X019143*
X019187Y008396*
X019487Y008096*
Y007692*
Y007674*
Y006923*
Y006905*
Y006795*
X019252*
Y006888*
X018884*
X018665Y007108*
X018615Y007141*
X018556Y007153*
X018363*
X018319Y007167*
Y007203*
Y007355*
X018041*
X017764*
Y007210*
X017714Y007182*
X017697Y007194*
Y007672*
X017103*
Y007194*
X017086Y007181*
X017036Y007207*
Y007643*
X016481*
X016463*
X015909*
Y007436*
X015863Y007417*
X015484Y007796*
X015503Y007842*
X015909*
Y007757*
X016431*
X016463*
X016513*
X017036*
Y007842*
X017103*
Y007728*
X017697*
Y007842*
X017764*
Y007757*
X018319*
Y008233*
X017764*
Y008148*
X017697*
Y008302*
X017103*
Y008148*
X017036*
Y008233*
X016513*
X016481*
X016431*
X015909*
Y008148*
X015132*
X014335Y008945*
Y009535*
X014222*
Y011904*
X016627*
Y016296*
X012923*
Y011904*
X013815*
Y009535*
X013702*
Y009304*
X013092*
X013061Y009354*
X013073Y009415*
X013057Y009496*
X013011Y009565*
Y009580*
X013057Y009649*
X013073Y009730*
X013057Y009811*
X013032Y009849*
X013014Y009887*
X013032Y009926*
X013057Y009964*
X013073Y010045*
X013057Y010126*
X013011Y010195*
Y010210*
X013057Y010279*
X013073Y010360*
X013057Y010441*
X013011Y010510*
Y010525*
X013057Y010594*
X013073Y010675*
X013057Y010756*
X013011Y010825*
X012942Y010871*
X012861Y010887*
X012777*
Y017507*
X013066Y017796*
X013112Y017776*
X013215Y017763*
X013319Y017776*
X013415Y017816*
X013497Y017880*
X013561Y017962*
X013600Y018058*
X013614Y018161*
X013600Y018265*
X013561Y018361*
X013497Y018443*
X013415Y018507*
X013319Y018547*
X013215Y018560*
X013112Y018547*
X013016Y018507*
X012933Y018443*
X012870Y018361*
X012830Y018265*
X012817Y018161*
X012830Y018058*
X012849Y018012*
X012516Y017679*
X012483Y017629*
X012471Y017570*
Y010887*
X012411*
X012398Y010900*
X012376Y010932*
X012386Y010981*
Y014767*
X012374Y014825*
X012341Y014875*
X009500Y017716*
X009521Y017766*
X009808*
Y018111*
X009462*
Y017825*
X009412Y017804*
X009218Y017998*
X009243Y018058*
X009256Y018161*
X009243Y018265*
X009203Y018361*
X009140Y018443*
X009057Y018507*
X008961Y018547*
X008858Y018560*
X008754Y018547*
X008658Y018507*
X008576Y018443*
X008512Y018361*
X008473Y018265*
X008459Y018161*
X008473Y018058*
X008512Y017962*
X008576Y017880*
X008658Y017816*
X008754Y017776*
X008858Y017763*
X008961Y017776*
X008994Y017790*
X012080Y014704*
Y013084*
X012034Y013065*
X010187Y014912*
X010199Y015000*
X010185Y015103*
X010145Y015199*
X010082Y015282*
X009999Y015345*
X009903Y015385*
X009800Y015399*
X009697Y015385*
X009601Y015345*
X009547Y015304*
X009535*
X009486Y015319*
X009463Y015353*
X009195Y015621*
Y016395*
X008405*
Y015605*
X008779*
X008974Y015410*
X008945Y015368*
X008903Y015385*
X008800Y015399*
X008697Y015385*
X008601Y015345*
X008518Y015282*
X008455Y015199*
X008415Y015103*
X008401Y015000*
X008415Y014897*
X008455Y014801*
X008518Y014718*
X008601Y014655*
X008697Y014615*
X008800Y014601*
X008903Y014615*
X008950Y014634*
X009202Y014382*
Y014194*
X009152Y014184*
X009145Y014199*
X009082Y014282*
X008999Y014345*
X008903Y014385*
X008800Y014399*
X008697Y014385*
X008601Y014345*
X008518Y014282*
X008455Y014199*
X008415Y014103*
X008401Y014000*
X008415Y013897*
X008455Y013801*
X008518Y013718*
X008601Y013655*
X008647Y013636*
Y012933*
X008659Y012874*
X008692Y012824*
X008766Y012751*
Y012452*
X009320*
X009338Y012410*
Y012380*
X009320Y012337*
X009288*
X009093*
Y012099*
Y011861*
X009320*
Y011932*
X009338Y011974*
X009370*
X009605*
Y012350*
Y012726*
X009338*
X009320Y012768*
Y012928*
X009021*
X008953Y012996*
Y013565*
X008999Y013585*
X009392Y013192*
X009441Y013159*
X009500Y013147*
X010237*
X010873Y012511*
Y011766*
X010823Y011739*
X010796Y011757*
X010765Y011763*
Y011324*
Y010886*
X010796Y010892*
X010865Y010938*
X010880*
X010949Y010892*
X011030Y010876*
X011111Y010892*
X011149Y010917*
X011187Y010935*
X011226Y010917*
X011264Y010892*
X011345Y010876*
X011426Y010892*
X011495Y010938*
X011510*
X011579Y010892*
X011660Y010876*
X011741Y010892*
X011810Y010938*
X011825*
X011894Y010892*
X011905Y010839*
X011897Y010798*
Y010450*
X011909Y010391*
X011942Y010342*
X012032Y010252*
X012082Y010219*
X012140Y010207*
X012186*
X012213Y010157*
X012192Y010126*
X012176Y010045*
X012192Y009964*
X012217Y009926*
X012235Y009887*
X012217Y009849*
X012192Y009811*
X012176Y009730*
X012192Y009649*
X012238Y009580*
Y009565*
X012192Y009496*
X012176Y009415*
X012192Y009334*
X012217Y009296*
X012235Y009257*
X012217Y009219*
X012192Y009181*
X012176Y009100*
X012192Y009019*
X012238Y008950*
Y008935*
X012192Y008866*
X012186Y008835*
X012624*
X013063*
X013061Y008846*
X013092Y008896*
X013702*
Y008665*
X014182*
X014960Y007887*
X015956Y006892*
X016005Y006859*
X016064Y006847*
X018048*
Y006295*
X018182*
Y006227*
X018097*
Y005708*
X014056*
X012498Y007267*
X012517Y007313*
X012861*
X012942Y007329*
X013011Y007375*
X013057Y007444*
X013073Y007525*
X013057Y007606*
X013011Y007675*
Y007690*
X013057Y007759*
X013073Y007840*
X013057Y007921*
X013011Y007990*
Y008005*
X013057Y008074*
X013073Y008155*
X013057Y008236*
X013032Y008274*
X013014Y008313*
X013032Y008351*
X013057Y008389*
X013073Y008470*
X013057Y008551*
X013011Y008620*
Y008635*
X013057Y008704*
X013063Y008735*
X012624*
X012186*
X012192Y008704*
X012238Y008635*
Y008620*
X012192Y008551*
X012176Y008470*
X012192Y008389*
X012217Y008351*
X012235Y008313*
X012217Y008274*
X012192Y008236*
X012176Y008155*
X012192Y008074*
X012238Y008005*
Y007990*
X012192Y007921*
X012176Y007840*
X012192Y007759*
X012238Y007690*
Y007675*
X012207Y007628*
X012147Y007617*
X009665Y010100*
Y010853*
X009715Y010887*
X009770Y010876*
X009851Y010892*
X009920Y010938*
X009935*
X010004Y010892*
X010085Y010876*
X010166Y010892*
X010197Y010913*
X010247Y010886*
Y010665*
X010223Y010656*
X010150Y010600*
X010094Y010527*
X010059Y010441*
X010047Y010350*
X010059Y010259*
X010094Y010173*
X010150Y010100*
X010223Y010044*
X010309Y010009*
X010400Y009997*
X010491Y010009*
X010577Y010044*
X010650Y010100*
X010706Y010173*
X010741Y010259*
X010753Y010350*
X010741Y010441*
X010706Y010527*
X010650Y010600*
X010577Y010656*
X010553Y010665*
Y010886*
X010603Y010913*
X010634Y010892*
X010665Y010886*
Y011324*
Y011763*
X010634Y011757*
X010603Y011736*
X010553Y011763*
Y011974*
X010562*
Y012726*
X009705*
Y012350*
Y011974*
X010247*
Y011763*
X010197Y011736*
X010166Y011757*
X010085Y011773*
X010004Y011757*
X009935Y011711*
X009920*
X009851Y011757*
X009770Y011773*
X009689Y011757*
X009651Y011732*
X009613Y011714*
X009574Y011732*
X009536Y011757*
X009455Y011773*
X009374Y011757*
X009305Y011711*
X009290*
X009221Y011757*
X009140Y011773*
X009059Y011757*
X009021Y011732*
X008983Y011714*
X008944Y011732*
X008906Y011757*
X008825Y011773*
X008744Y011757*
X008675Y011711*
X008657Y011709*
X008011Y012355*
Y017797*
X008057Y017816*
X008140Y017880*
X008203Y017962*
X008243Y018058*
X008256Y018161*
X008243Y018265*
X008203Y018361*
X008140Y018443*
X008057Y018507*
X007961Y018547*
X007858Y018560*
X007754Y018547*
X007658Y018507*
X007633Y018487*
X007595Y018459*
X007594Y018460*
X007590Y018465*
X007562Y018496*
X007713Y018647*
X011513*
X011849Y018311*
X011830Y018265*
X011817Y018161*
X011830Y018058*
X011870Y017962*
X011933Y017880*
X012016Y017816*
X012112Y017776*
X012215Y017763*
X012319Y017776*
X012415Y017816*
X012497Y017880*
X012561Y017962*
X012600Y018058*
X012614Y018161*
X012600Y018265*
X012561Y018361*
X012497Y018443*
X012415Y018507*
X012319Y018547*
X012215Y018560*
X012112Y018547*
X012066Y018527*
X011685Y018908*
X011635Y018941*
X011577Y018953*
G37*
G36*
X004500Y018560D02*
X004397Y018547D01*
X004301Y018507*
X004218Y018443*
X004155Y018361*
X004115Y018265*
X004101Y018161*
X004115Y018058*
X004155Y017962*
X004218Y017880*
X004301Y017816*
X004397Y017776*
X004500Y017763*
X004603Y017776*
X004699Y017816*
X004782Y017880*
X004845Y017962*
X004885Y018058*
X004899Y018161*
X004885Y018265*
X004845Y018361*
X004782Y018443*
X004699Y018507*
X004603Y018547*
X004500Y018560*
G37*
G36*
X009850Y016392D02*
Y016050D01*
X010192*
X010185Y016103*
X010145Y016199*
X010082Y016282*
X009999Y016345*
X009903Y016385*
X009850Y016392*
G37*
G36*
X009750D02*
X009697Y016385D01*
X009601Y016345*
X009518Y016282*
X009455Y016199*
X009415Y016103*
X009408Y016050*
X009750*
Y016392*
G37*
G36*
X019685Y018804D02*
X019515Y018791D01*
X019349Y018751*
X019191Y018686*
X019046Y018596*
X018916Y018486*
X018805Y018356*
X018716Y018210*
X018651Y018053*
X018611Y017887*
X018597Y017717*
X018611Y017546*
X018651Y017380*
X018716Y017223*
X018805Y017077*
X018916Y016947*
X019046Y016837*
X019191Y016747*
X019349Y016682*
X019515Y016642*
X019685Y016629*
X019855Y016642*
X020021Y016682*
X020179Y016747*
X020324Y016837*
X020454Y016947*
X020565Y017077*
X020654Y017223*
X020719Y017380*
X020759Y017546*
X020773Y017717*
X020759Y017887*
X020719Y018053*
X020654Y018210*
X020565Y018356*
X020454Y018486*
X020324Y018596*
X020179Y018686*
X020021Y018751*
X019855Y018791*
X019685Y018804*
G37*
G36*
X000000D02*
X-000170Y018791D01*
X-000336Y018751*
X-000494Y018686*
X-000639Y018596*
X-000769Y018486*
X-000880Y018356*
X-000969Y018210*
X-001034Y018053*
X-001074Y017887*
X-001088Y017717*
X-001074Y017546*
X-001034Y017380*
X-000969Y017223*
X-000880Y017077*
X-000769Y016947*
X-000639Y016837*
X-000494Y016747*
X-000336Y016682*
X-000170Y016642*
X000000Y016629*
X000170Y016642*
X000336Y016682*
X000494Y016747*
X000639Y016837*
X000769Y016947*
X000880Y017077*
X000969Y017223*
X001034Y017380*
X001074Y017546*
X001088Y017717*
X001074Y017887*
X001034Y018053*
X000969Y018210*
X000880Y018356*
X000769Y018486*
X000639Y018596*
X000494Y018686*
X000336Y018751*
X000170Y018791*
X000000Y018804*
G37*
G36*
X016573Y018560D02*
X016470Y018547D01*
X016374Y018507*
X016291Y018443*
X016228Y018361*
X016188Y018265*
X016174Y018161*
X016188Y018058*
X016228Y017962*
X016291Y017880*
X016374Y017816*
X016470Y017776*
X016573Y017763*
X016676Y017776*
X016772Y017816*
X016855Y017880*
X016918Y017962*
X016958Y018058*
X016972Y018161*
X016958Y018265*
X016918Y018361*
X016855Y018443*
X016772Y018507*
X016676Y018547*
X016573Y018560*
G37*
G36*
X009808Y018557D02*
X009462D01*
Y018211*
X009808*
Y018557*
G37*
G36*
X014165D02*
X013820D01*
Y018211*
X014165*
Y018557*
G37*
G36*
X010253D02*
X009908D01*
Y018211*
X010253*
Y018557*
G37*
G36*
X014611D02*
X014265D01*
Y018211*
X014611*
Y018557*
G37*
G36*
X010253Y018111D02*
X009908D01*
Y017766*
X010253*
Y018111*
G37*
G36*
X005895Y018557D02*
X005105D01*
Y017766*
X005895*
Y018557*
G37*
G36*
X014611Y018111D02*
X014265D01*
Y017766*
X014611*
Y018111*
G37*
G36*
X014165D02*
X013820D01*
Y017766*
X014165*
Y018111*
G37*
G36*
X006700Y010148D02*
X006315D01*
Y009882*
X006700*
Y010148*
G37*
G36*
X015398Y009535D02*
X015131D01*
Y009150*
X015398*
Y009535*
G37*
G36*
X008993Y012049D02*
X008766D01*
Y011861*
X008993*
Y012049*
G37*
G36*
X007185Y010148D02*
X006800D01*
Y009882*
X007185*
Y010148*
G37*
G36*
X015031Y009050D02*
X014765D01*
Y008665*
X015031*
Y009050*
G37*
G36*
X003681Y008749D02*
X003568Y008735D01*
X003463Y008691*
X003372Y008622*
X003303Y008531*
X003259Y008426*
X003244Y008313*
X003259Y008200*
X003303Y008095*
X003372Y008004*
X003463Y007935*
X003568Y007891*
X003681Y007877*
X003794Y007891*
X003899Y007935*
X003989Y008004*
X004059Y008095*
X004102Y008200*
X004117Y008313*
X004102Y008426*
X004059Y008531*
X003989Y008622*
X003899Y008691*
X003794Y008735*
X003681Y008749*
G37*
G36*
X015031Y009535D02*
X014765D01*
Y009150*
X015031*
Y009535*
G37*
G36*
X015398Y009050D02*
X015131D01*
Y008665*
X015398*
Y009050*
G37*
G36*
X008993Y012337D02*
X008766D01*
Y012149*
X008993*
Y012337*
G37*
G36*
X019422Y015407D02*
X018900D01*
Y015150*
X019422*
Y015407*
G37*
G36*
X018800D02*
X018278D01*
Y015150*
X018800*
Y015407*
G37*
G36*
X010192Y015950D02*
X009850D01*
Y015608*
X009903Y015615*
X009999Y015655*
X010082Y015718*
X010145Y015801*
X010185Y015897*
X010192Y015950*
G37*
G36*
X009750D02*
X009408D01*
X009415Y015897*
X009455Y015801*
X009518Y015718*
X009601Y015655*
X009697Y015615*
X009750Y015608*
Y015950*
G37*
G36*
X020130Y014499D02*
X020027Y014485D01*
X019931Y014445*
X019848Y014382*
X019785Y014299*
X019745Y014203*
X019731Y014100*
X019745Y013997*
X019785Y013901*
X019848Y013818*
X019931Y013755*
X020027Y013715*
X020130Y013701*
X020233Y013715*
X020329Y013755*
X020412Y013818*
X020475Y013901*
X020515Y013997*
X020529Y014100*
X020515Y014203*
X020475Y014299*
X020412Y014382*
X020329Y014445*
X020233Y014485*
X020130Y014499*
G37*
G36*
X004240Y014818D02*
X004077Y014805D01*
X003918Y014767*
X003768Y014704*
X003628Y014619*
X003504Y014513*
X003398Y014389*
X003313Y014250*
X003251Y014099*
X003212Y013940*
X003200Y013778*
X003212Y013615*
X003251Y013456*
X003313Y013305*
X003398Y013166*
X003504Y013042*
X003628Y012936*
X003768Y012851*
X003918Y012788*
X004077Y012750*
X004240Y012737*
X004403Y012750*
X004561Y012788*
X004712Y012851*
X004851Y012936*
X004975Y013042*
X005081Y013166*
X005167Y013305*
X005229Y013456*
X005267Y013615*
X005280Y013778*
X005267Y013940*
X005229Y014099*
X005167Y014250*
X005081Y014389*
X004975Y014513*
X004851Y014619*
X004712Y014704*
X004561Y014767*
X004403Y014805*
X004240Y014818*
G37*
G36*
X019422Y015050D02*
X018900D01*
Y014793*
X019422*
Y015050*
G37*
G36*
X018800D02*
X018278D01*
Y014793*
X018800*
Y015050*
G37*
%LNmetr4810_pcb_c_layout-3*%
%LPD*%
G54D10*
X012624Y010675D03*
Y010360D03*
Y010045D03*
Y009730D03*
Y009415D03*
Y009100D03*
Y008785D03*
Y008470D03*
Y008155D03*
Y007840D03*
Y007525D03*
X008176D03*
Y007840D03*
Y008155D03*
Y008470D03*
Y008785D03*
Y009100D03*
Y009415D03*
Y009730D03*
Y010045D03*
Y010360D03*
Y010675D03*
G54D11*
X011975Y006876D03*
X011660D03*
X011345D03*
X011030D03*
X010715D03*
X010400D03*
X010085D03*
X009770D03*
X009455D03*
X009140D03*
X008825D03*
Y011324D03*
X009140D03*
X009455D03*
X009770D03*
X010085D03*
X010400D03*
X010715D03*
X011030D03*
X011345D03*
X011660D03*
X011975D03*
G54D12*
X018335Y003882D03*
X018926D03*
Y004454D03*
X018335D03*
Y005950D03*
X018926D03*
Y003309D03*
X018335D03*
Y005027D03*
X018926D03*
G54D13*
X012373Y005133D03*
Y005723D03*
X009043Y012690D03*
Y012099D03*
X016186Y007995D03*
Y007405D03*
X018041Y007995D03*
Y007405D03*
X016759D03*
Y007995D03*
G54D14*
X011731Y005093D03*
Y005723D03*
X017400Y007385D03*
Y008015D03*
G54D15*
X018335Y006591D03*
X018965D03*
X018315Y002668D03*
X018945D03*
G54D16*
X010405Y005700D03*
X010995D03*
X010245Y012350D03*
X009655D03*
X020394Y007299D03*
X019803D03*
X020394Y008068D03*
X019803D03*
X020394Y006529D03*
X019803D03*
G54D17*
X018850Y013100D03*
Y015100D03*
G54D18*
X014775Y014100D03*
G54D19*
X006750Y008769D03*
Y009832D03*
G54D20*
X014018Y009100D03*
X015081D03*
X019331Y008896D03*
X020394D03*
X019331Y009800D03*
X020394D03*
G54D21*
X006600Y003550D02*
X010200Y-000050D01*
Y-000380D02*
Y-000050D01*
X006600Y003550D02*
Y007250D01*
X013620Y004150D02*
X015215Y002555D01*
X010400Y004150D02*
X013620D01*
X009140Y005410D02*
X010400Y004150D01*
X009140Y005410D02*
Y006876D01*
X009724Y000850D02*
X013970D01*
X006900Y003674D02*
X009724Y000850D01*
X006900Y003674D02*
Y007126D01*
X008825Y003945D02*
X010215Y002555D01*
X006900Y007126D02*
X007299Y007525D01*
X008176*
X007183Y007833D02*
X008169D01*
X006600Y007250D02*
X007183Y007833D01*
X008825Y003945D02*
Y006876D01*
X008169Y007833D02*
X008176Y007840D01*
X010200Y-000380D02*
X010265Y-000445D01*
X013970Y000850D02*
X015265Y-000445D01*
X006767Y008785D02*
X008176D01*
X006750Y008769D02*
X006767Y008785D01*
X012624Y009100D02*
X014018D01*
Y013343*
X019331Y008540D02*
Y008896D01*
Y008540D02*
X019803Y008068D01*
Y006529D02*
Y007299D01*
Y008068*
X018965Y006591D02*
X019741D01*
X019803Y006529*
X014018Y013343D02*
X014775Y014100D01*
G54D22*
X008858Y018142D02*
X012233Y014767D01*
X008858Y018142D02*
Y018161D01*
X012233Y010981D02*
Y014767D01*
X010400Y010350D02*
D01*
Y011324*
X010405Y005345D02*
X010850Y004900D01*
X010405Y005345D02*
Y005700D01*
X018317Y003900D02*
X018335Y003882D01*
X015552Y003900D02*
X018317D01*
X019242Y002668D02*
X020130Y003555D01*
X018945Y002668D02*
X019242D01*
X020575Y004000D02*
Y004740D01*
X020130Y003555D02*
X020575Y004000D01*
X020314Y005000D02*
X020575Y004740D01*
X018952Y005000D02*
X020314D01*
X018926Y005027D02*
X018952Y005000D01*
X018335Y003882D02*
D01*
Y003309D02*
Y003882D01*
X018315Y002668D02*
Y002699D01*
X018926Y003309*
Y004454D02*
X019027Y004555D01*
X020130*
X018926Y003882D02*
D01*
Y004454*
X018335D02*
D01*
Y005027D01*
X008800Y012933D02*
X009043Y012690D01*
X008800Y012933D02*
Y014000D01*
X019735Y005950D02*
X020130Y005555D01*
X018926Y005950D02*
X019735D01*
X018335D02*
Y006591D01*
X011750Y005100D02*
X011783Y005133D01*
X012373*
X010800Y006250D02*
X011150D01*
X010400Y005850D02*
X010800Y006250D01*
X010400Y005850D02*
Y006876D01*
X011150Y006250D02*
X011650Y005750D01*
X012373Y005723D02*
Y006227D01*
X011975Y006625D02*
X012373Y006227D01*
X011975Y006625D02*
Y006876D01*
X009512Y010036D02*
X013993Y005555D01*
X020130*
X009512Y010036D02*
Y011268D01*
X009455Y011324D02*
X009512Y011268D01*
X012568Y009157D02*
X012624Y009100D01*
X010343Y006932D02*
X010400Y006876D01*
X006800Y017950D02*
X007650Y018800D01*
X006800Y012050D02*
Y017950D01*
Y012050D02*
X008176Y010675D01*
X010245Y012350D02*
X010400Y012195D01*
Y011324D02*
Y012195D01*
X011975Y011324D02*
Y012908D01*
X009883Y015000D02*
X011975Y012908D01*
X009800Y015000D02*
X009883D01*
X011660Y011324D02*
Y012940D01*
X010045Y014555D02*
X011660Y012940D01*
X009616Y014555D02*
X010045D01*
X009355Y014816D02*
X009616Y014555D01*
X009355Y014816D02*
Y015245D01*
X008800Y015800D02*
X009355Y015245D01*
X008800Y015800D02*
Y016000D01*
Y015000D02*
X009355Y014445D01*
Y013728D02*
Y014445D01*
X011345Y011324D02*
Y012538D01*
X010383Y013500D02*
X011345Y012538D01*
X009583Y013500D02*
X010383D01*
X009355Y013728D02*
X009583Y013500D01*
X010300Y013300D02*
X011026Y012574D01*
X009500Y013300D02*
X010300D01*
X008800Y014000D02*
X009500Y013300D01*
X011026Y011324D02*
X011030D01*
X012050Y010798D02*
X012233Y010981D01*
X007650Y018800D02*
X011577D01*
X012215Y018161*
X012050Y010450D02*
Y010798D01*
Y010450D02*
X012140Y010360D01*
X012624*
X007858Y012292D02*
X008825Y011324D01*
X007858Y012292D02*
Y018161D01*
X012624Y010675D02*
Y017570D01*
X013215Y018161*
X011026Y011324D02*
Y012574D01*
X017400Y007250D02*
Y007385D01*
X017150Y007000D02*
X017400Y007250D01*
X016064Y007000D02*
X017150D01*
X014018Y009045D02*
Y009100D01*
X016186Y007405D02*
X016759D01*
X015068Y007995D02*
X016186D01*
X014018Y009045D02*
X015068Y007995D01*
X016064Y007000*
X018041Y007995D02*
D01*
X016759D02*
X018041D01*
X017150Y007000D02*
X018556D01*
X018965Y006591*
X009140Y009410D02*
X009500Y009050D01*
X009140Y009410D02*
Y011324D01*
X004799Y008858D02*
X005358D01*
X005850Y009350*
X007050*
X007745Y010045*
X008176*
X003681Y009513D02*
X004667Y010500D01*
X003681Y009404D02*
Y009513D01*
X004667Y010500D02*
X007250D01*
X007390Y010360*
X008176*
X006750Y008250D02*
Y008769D01*
X006500Y008000D02*
X006750Y008250D01*
X011650Y005750D02*
X011750D01*
G54D23*
X020100Y001400D02*
X020950Y002250D01*
X018110Y001400D02*
X020100D01*
X003305Y-001250D02*
X015460D01*
X002500Y-000445D02*
X003305Y-001250D01*
X001500Y000555D02*
X002500Y-000445D01*
X020394Y006529D02*
X020950Y005973D01*
Y002250D02*
Y005973D01*
X020394Y006529D02*
Y007299D01*
Y008068*
Y008896*
Y009800*
X020130Y013100D02*
X020394Y012836D01*
Y009800D02*
Y012836D01*
X018850Y013100D02*
X020130D01*
X017573Y014377D02*
Y018161D01*
Y014377D02*
X018850Y013100D01*
X019331Y008896D02*
Y009800D01*
X001500Y000555D02*
Y009150D01*
X002844Y010494*
X003681*
X015460Y-001250D02*
X018110Y001400D01*
G54D24*
X008800Y016000D03*
X006858Y-000445D03*
X020130Y002555D03*
Y013100D03*
G54D25*
X009800Y016000D03*
X008800Y015000D03*
X009800D03*
X008800Y014000D03*
X009800D03*
X002500Y018161D03*
X003500D03*
X004500D03*
X013215D03*
X012215D03*
X008858D03*
X007858D03*
X006858Y002555D03*
Y001555D03*
Y000555D03*
X016573Y018161D03*
X010215Y002555D03*
X011215D03*
X012215D03*
X013215D03*
X014215D03*
X015215D03*
X016215D03*
X010215Y-000445D03*
X011215D03*
X012215D03*
X013215D03*
X014215D03*
X015215D03*
X016215D03*
X003500D03*
X004500D03*
X020130Y005555D03*
Y004555D03*
Y003555D03*
Y014100D03*
G54D26*
X005500Y018161D03*
X014215D03*
X009858D03*
X017573D03*
X009215Y002555D03*
Y-000445D03*
X002500D03*
G54D27*
X004799Y011039D03*
X003681Y010494D03*
X004799Y009949D03*
X003681Y009404D03*
X004799Y008858D03*
X003681Y008313D03*
X004799Y007768D03*
X003681Y007222D03*
G54D28*
X004799Y006677D03*
G54D29*
X004240Y003939D03*
Y013778D03*
G54D30*
X010400Y010350D03*
X010850Y004900D03*
X015552Y003900D03*
X009500Y009050D03*
X006500Y008000D03*
X014750Y014125D03*
Y015200D03*
Y013050D03*
G54D31*
X019685Y017717D03*
Y000000D03*
X000000Y017717D03*
Y000000D03*
M02*