%FSDAX24Y24*%
%MOIN*%
%SFA1B1*%

%IPPOS*%
%ADD10O,0.068900X0.021700*%
%ADD11O,0.021700X0.068900*%
%ADD12R,0.027600X0.035400*%
%ADD13R,0.035400X0.027600*%
%ADD14R,0.039400X0.037400*%
%ADD15R,0.037400X0.039400*%
%ADD16R,0.043300X0.055100*%
%ADD17R,0.094500X0.041300*%
%ADD18R,0.350400X0.419300*%
%ADD19R,0.066900X0.043300*%
%ADD20R,0.043300X0.066900*%
%LNmetr4810_pcb_c_layout-1*%
%LPD*%
G54D10*
X012624Y010675D03*
Y010360D03*
Y010045D03*
Y009730D03*
Y009415D03*
Y009100D03*
Y008785D03*
Y008470D03*
Y008155D03*
Y007840D03*
Y007525D03*
X008176D03*
Y007840D03*
Y008155D03*
Y008470D03*
Y008785D03*
Y009100D03*
Y009415D03*
Y009730D03*
Y010045D03*
Y010360D03*
Y010675D03*
G54D11*
X011975Y006876D03*
X011660D03*
X011345D03*
X011030D03*
X010715D03*
X010400D03*
X010085D03*
X009770D03*
X009455D03*
X009140D03*
X008825D03*
Y011324D03*
X009140D03*
X009455D03*
X009770D03*
X010085D03*
X010400D03*
X010715D03*
X011030D03*
X011345D03*
X011660D03*
X011975D03*
G54D12*
X018335Y003882D03*
X018926D03*
Y004454D03*
X018335D03*
Y005950D03*
X018926D03*
Y003309D03*
X018335D03*
Y005027D03*
X018926D03*
G54D13*
X012373Y005133D03*
Y005723D03*
X009043Y012690D03*
Y012099D03*
X016186Y007995D03*
Y007405D03*
X018041Y007995D03*
Y007405D03*
X016759D03*
Y007995D03*
G54D14*
X011731Y005093D03*
Y005723D03*
X017400Y007385D03*
Y008015D03*
G54D15*
X018335Y006591D03*
X018965D03*
X018315Y002668D03*
X018945D03*
G54D16*
X010405Y005700D03*
X010995D03*
X010245Y012350D03*
X009655D03*
X020394Y007299D03*
X019803D03*
X020394Y008068D03*
X019803D03*
X020394Y006529D03*
X019803D03*
G54D17*
X018850Y013100D03*
Y015100D03*
G54D18*
X014775Y014100D03*
G54D19*
X006750Y008769D03*
Y009832D03*
G54D20*
X014018Y009100D03*
X015081D03*
X019331Y008896D03*
X020394D03*
X019331Y009800D03*
X020394D03*
M02*