%FSDAX24Y24*%
%MOIN*%
%SFA1B1*%

%IPPOS*%
%ADD10R,0.037400X0.039400*%
%ADD11R,0.027600X0.035400*%
%ADD12R,0.055100X0.043300*%
%ADD13R,0.066900X0.043300*%
%ADD14C,0.020000*%
%ADD15C,0.157500*%
%ADD16C,0.060000*%
%ADD17R,0.059100X0.059100*%
%ADD18C,0.059100*%
%ADD19R,0.059100X0.059100*%
%ADD20C,0.196900*%
%ADD21C,0.010000*%
%ADD23C,0.005000*%
%ADD34C,0.040000*%
%ADD35C,0.080000*%
%LNdistro_layout_top_buck-1*%
%LPD*%
G54D23*
X-000001Y012649D02*
X015570D01*
Y-001822*
X-000001*
X-000007Y-001822*
X-000237Y-001808*
X-000472Y-001761*
X-000698Y-001684*
X-000911Y-001579*
X-001110Y-001447*
X-001289Y-001289*
X-001447Y-001110*
X-001579Y-000911*
X-001684Y-000698*
X-001761Y-000472*
X-001808Y-000237*
X-001822Y-000007*
X-001822Y-000001*
Y010828*
X-001822Y010834*
X-001808Y011064*
X-001761Y011298*
X-001684Y011524*
X-001579Y011738*
X-001447Y011936*
X-001289Y012116*
X-001110Y012274*
X-000911Y012406*
X-000698Y012511*
X-000472Y012588*
X-000237Y012635*
X-000007Y012649*
X-000001Y012649*
G54D21*
X-000005Y012599D02*
X015520D01*
Y-001772*
X-000005*
X-000009Y-001772*
X-000231Y-001758*
X-000459Y-001713*
X-000679Y-001638*
X-000886Y-001535*
X-001080Y-001407*
X-001253Y-001253*
X-001407Y-001080*
X-001535Y-000886*
X-001638Y-000679*
X-001713Y-000459*
X-001758Y-000231*
X-001772Y-000009*
X-001772Y-000005*
Y010832*
X-001772Y010836*
X-001758Y011058*
X-001713Y011285*
X-001638Y011505*
X-001535Y011713*
X-001407Y011906*
X-001253Y012080*
X-001080Y012234*
X-000886Y012362*
X-000679Y012465*
X-000459Y012540*
X-000231Y012585*
X-000009Y012599*
X-000005Y012599*
G54D14*
X-000012Y012499D02*
X015420D01*
Y-001672*
X-000012*
X-000013Y-001672*
X-000218Y-001659*
X-000433Y-001616*
X-000640Y-001546*
X-000836Y-001449*
X-001019Y-001327*
X-001183Y-001183*
X-001327Y-001019*
X-001449Y-000836*
X-001546Y-000640*
X-001616Y-000433*
X-001659Y-000218*
X-001672Y-000013*
X-001672Y-000012*
Y010839*
X-001672Y010840*
X-001659Y011045*
X-001616Y011259*
X-001545Y011466*
X-001449Y011663*
X-001327Y011845*
X-001182Y012010*
X-001019Y012154*
X-000836Y012276*
X-000640Y012373*
X-000433Y012443*
X-000218Y012486*
X-000013Y012499*
X-000012Y012499*
G54D34*
X-000025Y012299D02*
X015220D01*
Y-001472*
X-000025*
X-000020Y-001471*
X-000192Y-001460*
X-000381Y-001422*
X-000563Y-001360*
X-000736Y-001275*
X-000897Y-001168*
X-001041Y-001041*
X-001168Y-000897*
X-001275Y-000736*
X-001360Y-000563*
X-001422Y-000381*
X-001460Y-000192*
X-001471Y-000020*
X-001472Y-000025*
Y010852*
X-001471Y010847*
X-001460Y011019*
X-001423Y011207*
X-001360Y011390*
X-001275Y011563*
X-001168Y011723*
X-001040Y011868*
X-000897Y011995*
X-000736Y012102*
X-000563Y012187*
X-000381Y012249*
X-000192Y012287*
X-000020Y012298*
X-000025Y012299*
G54D35*
X005860Y011899D02*
X014820D01*
Y-001071*
X005860*
X003988Y-001327*
X-000140Y-001062*
X-000278Y-001035*
X-000409Y-000990*
X-000536Y-000928*
X-000652Y-000850*
X-000757Y-000757*
X-000850Y-000652*
X-000928Y-000536*
X-000990Y-000409*
X-001035Y-000278*
X-001062Y-000140*
X-001327Y003988*
X-001072Y005860*
Y004966*
X-001327Y006837*
X-001062Y010967*
X-001035Y011103*
X-000990Y011236*
X-000928Y011363*
X-000850Y011479*
X-000757Y011585*
X-000652Y011677*
X-000536Y011755*
X-000409Y011817*
X-000278Y011862*
X-000140Y011889*
X003988Y012154*
X005860Y011899*
X-000520Y-000920D02*
X014820D01*
X-000920Y-000120D02*
X014820D01*
X-000920Y000680D02*
X014820D01*
X-001120Y001480D02*
X014820D01*
X-001120Y002280D02*
X014820D01*
X-001120Y003080D02*
X014820D01*
X-001120Y003880D02*
X014820D01*
X-001120Y004680D02*
X014820D01*
X-001120Y005480D02*
X014820D01*
X-001120Y006280D02*
X014820D01*
X-001120Y007080D02*
X014820D01*
X-001120Y007880D02*
X014820D01*
X-001120Y008680D02*
X014820D01*
X-001120Y009480D02*
X014820D01*
X-000920Y010280D02*
X014820D01*
X-000920Y011080D02*
X014820D01*
X-000120Y011880D02*
X014820D01*
%LNdistro_layout_top_buck-2*%
%LPC*%
G36*
X009893Y006710D02*
Y006363D01*
X010239*
X010232Y006418*
X010192Y006515*
X010128Y006599*
X010044Y006663*
X009947Y006703*
X009893Y006710*
G37*
G36*
X000000Y007399D02*
X-000103Y007385D01*
X-000199Y007345*
X-000282Y007282*
X-000345Y007199*
X-000385Y007103*
X-000399Y007000*
X-000385Y006897*
X-000345Y006801*
X-000282Y006718*
X-000199Y006655*
X-000103Y006615*
X000000Y006601*
X000103Y006615*
X000199Y006655*
X000282Y006718*
X000345Y006801*
X000385Y006897*
X000399Y007000*
X000385Y007103*
X000345Y007199*
X000282Y007282*
X000199Y007345*
X000103Y007385*
X000000Y007399*
G37*
G36*
X009793Y007163D02*
X009446D01*
X009453Y007109*
X009493Y007012*
X009557Y006928*
X009641Y006864*
X009738Y006824*
X009793Y006817*
Y007163*
G37*
G36*
X011843Y005817D02*
X011738Y005803D01*
X011641Y005763*
X011557Y005699*
X011493Y005615*
X011453Y005518*
X011439Y005413*
X011453Y005309*
X011493Y005212*
X011557Y005128*
X011641Y005064*
X011738Y005024*
X011843Y005010*
X011947Y005024*
X012044Y005064*
X012128Y005128*
X012192Y005212*
X012232Y005309*
X012246Y005413*
X012232Y005518*
X012192Y005615*
X012128Y005699*
X012044Y005763*
X011947Y005803*
X011843Y005817*
G37*
G36*
X010239Y006263D02*
X009893D01*
Y005917*
X009947Y005924*
X010044Y005964*
X010128Y006028*
X010192Y006112*
X010232Y006209*
X010239Y006263*
G37*
G36*
X009793Y006710D02*
X009738Y006703D01*
X009641Y006663*
X009557Y006599*
X009493Y006515*
X009453Y006418*
X009446Y006363*
X009793*
Y006710*
G37*
G36*
X009893Y007610D02*
Y007263D01*
X010239*
X010232Y007318*
X010192Y007415*
X010128Y007499*
X010044Y007563*
X009947Y007603*
X009893Y007610*
G37*
G36*
X-000050Y007950D02*
X-000392D01*
X-000385Y007897*
X-000345Y007801*
X-000282Y007718*
X-000199Y007655*
X-000103Y007615*
X-000050Y007608*
Y007950*
G37*
G36*
X000392D02*
X000050D01*
Y007608*
X000103Y007615*
X000199Y007655*
X000282Y007718*
X000345Y007801*
X000385Y007897*
X000392Y007950*
G37*
G36*
X010239Y007163D02*
X009893D01*
Y006817*
X009947Y006824*
X010044Y006864*
X010128Y006928*
X010192Y007012*
X010232Y007109*
X010239Y007163*
G37*
G36*
X000395Y009395D02*
X-000395D01*
Y008605*
X000395*
Y008796*
X002229*
X002248Y008750*
X002034Y008537*
X001937Y008549*
X001834Y008536*
X001738Y008496*
X001655Y008433*
X001592Y008350*
X001552Y008254*
X001538Y008151*
X001552Y008048*
X001592Y007951*
X001655Y007869*
X001738Y007805*
X001834Y007766*
X001937Y007752*
X002040Y007766*
X002136Y007805*
X002219Y007869*
X002282Y007951*
X002322Y008048*
X002336Y008151*
X002323Y008248*
X002534Y008460*
X002613*
X002638Y008410*
X002592Y008350*
X002552Y008254*
X002538Y008151*
X002552Y008048*
X002592Y007951*
X002655Y007869*
X002738Y007805*
X002834Y007766*
X002937Y007752*
X003040Y007766*
X003080Y007782*
X004143Y006719*
X004124Y006672*
X003113*
Y006785*
X002244*
X002226*
X001357*
Y006152*
X002226*
X002244*
X003113*
Y006265*
X006308*
X006327Y006218*
X005686Y005577*
X005467*
Y005209*
X005417Y005178*
X005358Y005190*
X003183*
X003113Y005259*
Y005722*
X002244*
X002226*
X001357*
Y005089*
X002176*
X002197Y005039*
X002034Y004876*
X001937Y004889*
X001834Y004876*
X001738Y004836*
X001655Y004772*
X001592Y004690*
X001552Y004594*
X001538Y004490*
X001552Y004387*
X001592Y004291*
X001655Y004209*
X001738Y004145*
X001834Y004105*
X001937Y004092*
X002040Y004105*
X002136Y004145*
X002219Y004209*
X002282Y004291*
X002322Y004387*
X002336Y004490*
X002323Y004588*
X002517Y004782*
X002599*
X002624Y004732*
X002592Y004690*
X002552Y004594*
X002538Y004490*
X002552Y004387*
X002592Y004291*
X002655Y004209*
X002738Y004145*
X002834Y004105*
X002937Y004092*
X003034Y004105*
X004723Y002416*
X004789Y002372*
X004867Y002356*
X008789*
X008867Y002372*
X008934Y002416*
X009741Y003223*
X009794Y003216*
X009811Y003164*
X008852Y002204*
X003107*
X003029Y002188*
X002963Y002144*
X002044Y001225*
X001542*
Y000435*
X001733*
Y-000605*
X001542*
Y-001395*
X002332*
Y-000605*
X002141*
Y000435*
X002332*
Y000937*
X003191Y001796*
X003549*
X003568Y001750*
X003034Y001216*
X002937Y001229*
X002834Y001215*
X002738Y001175*
X002655Y001112*
X002592Y001029*
X002552Y000933*
X002538Y000830*
X002552Y000727*
X002592Y000631*
X002655Y000548*
X002733Y000488*
Y-000658*
X002655Y-000718*
X002592Y-000801*
X002552Y-000897*
X002538Y-001000*
X002552Y-001103*
X002592Y-001199*
X002655Y-001282*
X002738Y-001345*
X002834Y-001385*
X002937Y-001399*
X003040Y-001385*
X003136Y-001345*
X003219Y-001282*
X003282Y-001199*
X003322Y-001103*
X003336Y-001000*
X003322Y-000897*
X003282Y-000801*
X003219Y-000718*
X003141Y-000658*
Y000488*
X003219Y000548*
X003282Y000631*
X003322Y000727*
X003336Y000830*
X003323Y000928*
X003891Y001496*
X004249*
X004268Y001450*
X004034Y001216*
X003937Y001229*
X003834Y001215*
X003738Y001175*
X003655Y001112*
X003592Y001029*
X003552Y000933*
X003538Y000830*
X003552Y000727*
X003592Y000631*
X003655Y000548*
X003733Y000488*
Y-000658*
X003655Y-000718*
X003592Y-000801*
X003552Y-000897*
X003538Y-001000*
X003552Y-001103*
X003592Y-001199*
X003655Y-001282*
X003738Y-001345*
X003834Y-001385*
X003937Y-001399*
X004040Y-001385*
X004136Y-001345*
X004219Y-001282*
X004282Y-001199*
X004322Y-001103*
X004336Y-001000*
X004322Y-000897*
X004282Y-000801*
X004219Y-000718*
X004141Y-000658*
Y000488*
X004219Y000548*
X004282Y000631*
X004322Y000727*
X004336Y000830*
X004323Y000928*
X004591Y001196*
X004682*
X004699Y001146*
X004655Y001112*
X004592Y001029*
X004552Y000933*
X004538Y000830*
X004552Y000727*
X004592Y000631*
X004655Y000548*
X004733Y000488*
Y-000658*
X004655Y-000718*
X004592Y-000801*
X004552Y-000897*
X004538Y-001000*
X004552Y-001103*
X004592Y-001199*
X004655Y-001282*
X004738Y-001345*
X004834Y-001385*
X004937Y-001399*
X005040Y-001385*
X005136Y-001345*
X005219Y-001282*
X005282Y-001199*
X005322Y-001103*
X005336Y-001000*
X005322Y-000897*
X005282Y-000801*
X005219Y-000718*
X005141Y-000658*
Y000488*
X005219Y000548*
X005279Y000626*
X009830*
X009908Y000642*
X009947Y000667*
X009989Y000636*
X009968Y000566*
X009951Y000392*
X009968Y000218*
X010019Y000050*
X010101Y-000104*
X010212Y-000239*
X010347Y-000350*
X010501Y-000432*
X010669Y-000483*
X010843Y-000500*
X011016Y-000483*
X011184Y-000432*
X011338Y-000350*
X011473Y-000239*
X011584Y-000104*
X011666Y000050*
X011717Y000218*
X011734Y000392*
X011717Y000566*
X011666Y000733*
X011584Y000887*
X011473Y001022*
X011338Y001133*
X011184Y001216*
X011016Y001266*
X010843Y001283*
X010669Y001266*
X010604Y001247*
X010578Y001289*
X012487Y003198*
X012531Y003264*
X012546Y003343*
Y004013*
X012531Y004091*
X012487Y004158*
X012233Y004412*
X012246Y004513*
X012232Y004618*
X012192Y004715*
X012128Y004799*
X012044Y004863*
X011947Y004903*
X011843Y004917*
X011738Y004903*
X011641Y004863*
X011557Y004799*
X011493Y004715*
X011453Y004618*
X011439Y004513*
X011453Y004409*
X011493Y004312*
X011557Y004228*
X011641Y004164*
X011738Y004124*
X011843Y004110*
X011944Y004123*
X012055Y004012*
X012027Y003970*
X011947Y004003*
X011843Y004017*
X011738Y004003*
X011641Y003963*
X011557Y003899*
X011493Y003815*
X011453Y003718*
X011439Y003613*
X011453Y003509*
X011493Y003412*
X011528Y003366*
X011289Y003127*
X011244Y003149*
X011246Y003163*
X011232Y003268*
X011192Y003365*
X011128Y003449*
X011044Y003513*
X010947Y003553*
X010860Y003565*
X010838Y003613*
X010891Y003666*
X010947Y003674*
X011044Y003714*
X011128Y003778*
X011192Y003862*
X011232Y003959*
X011246Y004063*
X011232Y004168*
X011192Y004265*
X011128Y004349*
X011044Y004413*
X010947Y004453*
X010843Y004467*
X010738Y004453*
X010641Y004413*
X010557Y004349*
X010493Y004265*
X010453Y004168*
X010439Y004063*
X010453Y003959*
X010493Y003862*
X010500Y003852*
X010292Y003644*
X010240Y003662*
X010232Y003718*
X010192Y003815*
X010128Y003899*
X010046Y003961*
Y004166*
X010128Y004228*
X010192Y004312*
X010232Y004409*
X010246Y004513*
X010232Y004618*
X010192Y004715*
X010128Y004799*
X010046Y004861*
Y005066*
X010128Y005128*
X010192Y005212*
X010232Y005309*
X010246Y005413*
X010232Y005518*
X010192Y005615*
X010128Y005699*
X010044Y005763*
X009947Y005803*
X009843Y005817*
X009741Y005803*
X009630Y005914*
X009658Y005957*
X009738Y005924*
X009793Y005917*
Y006263*
X009446*
X009453Y006209*
X009486Y006129*
X009444Y006101*
X008932Y006613*
X007513Y008031*
X007447Y008075*
X007369Y008091*
X006526*
Y008794*
X006575Y008796*
X009516*
X011139Y007173*
Y007103*
X011089Y007079*
X011044Y007113*
X010947Y007153*
X010843Y007167*
X010738Y007153*
X010641Y007113*
X010557Y007049*
X010493Y006965*
X010453Y006868*
X010439Y006763*
X010453Y006659*
X010493Y006562*
X010557Y006478*
X010641Y006414*
X010738Y006374*
X010843Y006360*
X010947Y006374*
X011027Y006407*
X011055Y006364*
X010944Y006253*
X010843Y006267*
X010738Y006253*
X010641Y006213*
X010557Y006149*
X010493Y006065*
X010453Y005968*
X010439Y005863*
X010453Y005759*
X010493Y005662*
X010557Y005578*
X010641Y005514*
X010738Y005474*
X010843Y005460*
X010947Y005474*
X011044Y005514*
X011128Y005578*
X011192Y005662*
X011232Y005759*
X011246Y005863*
X011233Y005965*
X011428Y006160*
X011477Y006151*
X011493Y006112*
X011557Y006028*
X011641Y005964*
X011738Y005924*
X011843Y005910*
X011947Y005924*
X012044Y005964*
X012128Y006028*
X012192Y006112*
X012232Y006209*
X012246Y006313*
X012232Y006418*
X012192Y006515*
X012128Y006599*
X012044Y006663*
X011947Y006703*
X011843Y006717*
X011738Y006703*
X011641Y006663*
X011596Y006629*
X011546Y006653*
Y006873*
X011596Y006898*
X011641Y006864*
X011738Y006824*
X011843Y006810*
X011947Y006824*
X012044Y006864*
X012128Y006928*
X012192Y007012*
X012232Y007109*
X012246Y007213*
X012232Y007318*
X012192Y007415*
X012128Y007499*
X012044Y007563*
X011947Y007603*
X011843Y007617*
X011738Y007603*
X011641Y007563*
X011557Y007499*
X011515Y007444*
X011452Y007437*
X011451Y007438*
X009744Y009144*
X009678Y009188*
X009600Y009204*
X000395*
Y009395*
G37*
G36*
X009793Y007610D02*
X009738Y007603D01*
X009641Y007563*
X009557Y007499*
X009493Y007415*
X009453Y007318*
X009446Y007263*
X009793*
Y007610*
G37*
G36*
X-000050Y002395D02*
X-000395D01*
Y002050*
X-000050*
Y002395*
G37*
G36*
X000395D02*
X000050D01*
Y002050*
X000395*
Y002395*
G37*
G36*
X-000050Y002950D02*
X-000392D01*
X-000385Y002897*
X-000345Y002801*
X-000282Y002718*
X-000199Y002655*
X-000103Y002615*
X-000050Y002608*
Y002950*
G37*
G36*
X000000Y001088D02*
X-000170Y001074D01*
X-000336Y001034*
X-000494Y000969*
X-000639Y000880*
X-000769Y000769*
X-000880Y000639*
X-000969Y000494*
X-001034Y000336*
X-001074Y000170*
X-001088Y000000*
X-001074Y-000170*
X-001034Y-000336*
X-000969Y-000494*
X-000880Y-000639*
X-000769Y-000769*
X-000639Y-000880*
X-000494Y-000969*
X-000336Y-001034*
X-000170Y-001074*
X000000Y-001088*
X000170Y-001074*
X000336Y-001034*
X000494Y-000969*
X000639Y-000880*
X000769Y-000769*
X000880Y-000639*
X000969Y-000494*
X001034Y-000336*
X001074Y-000170*
X001088Y000000*
X001074Y000170*
X001034Y000336*
X000969Y000494*
X000880Y000639*
X000769Y000769*
X000639Y000880*
X000494Y000969*
X000336Y001034*
X000170Y001074*
X000000Y001088*
G37*
G36*
X-000050Y001950D02*
X-000395D01*
Y001605*
X-000050*
Y001950*
G37*
G36*
X000395D02*
X000050D01*
Y001605*
X000395*
Y001950*
G37*
G36*
X000000Y004399D02*
X-000103Y004385D01*
X-000199Y004345*
X-000282Y004282*
X-000345Y004199*
X-000385Y004103*
X-000399Y004000*
X-000385Y003897*
X-000345Y003801*
X-000282Y003718*
X-000199Y003655*
X-000103Y003615*
X000000Y003601*
X000103Y003615*
X000199Y003655*
X000282Y003718*
X000345Y003801*
X000385Y003897*
X000399Y004000*
X000385Y004103*
X000345Y004199*
X000282Y004282*
X000199Y004345*
X000103Y004385*
X000000Y004399*
G37*
G36*
X010843Y005367D02*
X010738Y005353D01*
X010641Y005313*
X010557Y005249*
X010493Y005165*
X010453Y005068*
X010439Y004963*
X010453Y004859*
X010493Y004762*
X010557Y004678*
X010641Y004614*
X010738Y004574*
X010843Y004560*
X010947Y004574*
X011044Y004614*
X011128Y004678*
X011192Y004762*
X011232Y004859*
X011246Y004963*
X011232Y005068*
X011192Y005165*
X011128Y005249*
X011044Y005313*
X010947Y005353*
X010843Y005367*
G37*
G36*
X000000Y005399D02*
X-000103Y005385D01*
X-000199Y005345*
X-000282Y005282*
X-000345Y005199*
X-000385Y005103*
X-000399Y005000*
X-000385Y004897*
X-000345Y004801*
X-000282Y004718*
X-000199Y004655*
X-000103Y004615*
X000000Y004601*
X000103Y004615*
X000199Y004655*
X000282Y004718*
X000345Y004801*
X000385Y004897*
X000399Y005000*
X000385Y005103*
X000345Y005199*
X000282Y005282*
X000199Y005345*
X000103Y005385*
X000000Y005399*
G37*
G36*
X000392Y002950D02*
X000050D01*
Y002608*
X000103Y002615*
X000199Y002655*
X000282Y002718*
X000345Y002801*
X000385Y002897*
X000392Y002950*
G37*
G36*
X-000050Y003392D02*
X-000103Y003385D01*
X-000199Y003345*
X-000282Y003282*
X-000345Y003199*
X-000385Y003103*
X-000392Y003050*
X-000050*
Y003392*
G37*
G36*
X000050D02*
Y003050D01*
X000392*
X000385Y003103*
X000345Y003199*
X000282Y003282*
X000199Y003345*
X000103Y003385*
X000050Y003392*
G37*
G36*
X-000050Y008392D02*
X-000103Y008385D01*
X-000199Y008345*
X-000282Y008282*
X-000345Y008199*
X-000385Y008103*
X-000392Y008050*
X-000050*
Y008392*
G37*
G36*
X002887Y010373D02*
X002834Y010366D01*
X002738Y010326*
X002655Y010263*
X002592Y010180*
X002552Y010084*
X002545Y010031*
X002887*
Y010373*
G37*
G36*
X002987D02*
Y010031D01*
X003329*
X003322Y010084*
X003282Y010180*
X003219Y010263*
X003136Y010326*
X003040Y010366*
X002987Y010373*
G37*
G36*
X003887D02*
X003834Y010366D01*
X003738Y010326*
X003655Y010263*
X003592Y010180*
X003552Y010084*
X003545Y010031*
X003887*
Y010373*
G37*
G36*
X000000Y011914D02*
X-000170Y011901D01*
X-000336Y011861*
X-000494Y011796*
X-000639Y011707*
X-000769Y011596*
X-000880Y011466*
X-000969Y011321*
X-001034Y011163*
X-001074Y010997*
X-001088Y010827*
X-001074Y010657*
X-001034Y010491*
X-000969Y010333*
X-000880Y010187*
X-000769Y010058*
X-000639Y009947*
X-000494Y009858*
X-000336Y009792*
X-000170Y009753*
X000000Y009739*
X000170Y009753*
X000336Y009792*
X000494Y009858*
X000639Y009947*
X000769Y010058*
X000880Y010187*
X000969Y010333*
X001034Y010491*
X001074Y010657*
X001088Y010827*
X001074Y010997*
X001034Y011163*
X000969Y011321*
X000880Y011466*
X000769Y011596*
X000639Y011707*
X000494Y011796*
X000336Y011861*
X000170Y011901*
X000000Y011914*
G37*
G36*
X001887Y010376D02*
X001542D01*
Y010031*
X001887*
Y010376*
G37*
G36*
X002332D02*
X001987D01*
Y010031*
X002332*
Y010376*
G37*
G36*
X002937Y012210D02*
X002834Y012196D01*
X002738Y012156*
X002655Y012093*
X002592Y012010*
X002552Y011914*
X002538Y011811*
X002552Y011708*
X002592Y011612*
X002655Y011529*
X002738Y011466*
X002834Y011426*
X002937Y011412*
X003040Y011426*
X003136Y011466*
X003219Y011529*
X003282Y011612*
X003322Y011708*
X003336Y011811*
X003322Y011914*
X003282Y012010*
X003219Y012093*
X003136Y012156*
X003040Y012196*
X002937Y012210*
G37*
G36*
X003937D02*
X003834Y012196D01*
X003738Y012156*
X003655Y012093*
X003592Y012010*
X003552Y011914*
X003538Y011811*
X003552Y011708*
X003592Y011612*
X003655Y011529*
X003738Y011466*
X003834Y011426*
X003937Y011412*
X004040Y011426*
X004136Y011466*
X004219Y011529*
X004282Y011612*
X004322Y011708*
X004336Y011811*
X004322Y011914*
X004282Y012010*
X004219Y012093*
X004136Y012156*
X004040Y012196*
X003937Y012210*
G37*
G36*
X002332Y012206D02*
X001542D01*
Y011416*
X002332*
Y012206*
G37*
G36*
X003987Y010373D02*
Y010031D01*
X004329*
X004322Y010084*
X004282Y010180*
X004219Y010263*
X004136Y010326*
X004040Y010366*
X003987Y010373*
G37*
G36*
X004887D02*
X004834Y010366D01*
X004738Y010326*
X004655Y010263*
X004592Y010180*
X004552Y010084*
X004545Y010031*
X004887*
Y010373*
G37*
G36*
X004987D02*
Y010031D01*
X005329*
X005322Y010084*
X005282Y010180*
X005219Y010263*
X005136Y010326*
X005040Y010366*
X004987Y010373*
G37*
G36*
X005329Y009931D02*
X004987D01*
Y009589*
X005040Y009596*
X005136Y009636*
X005219Y009699*
X005282Y009782*
X005322Y009878*
X005329Y009931*
G37*
G36*
X007314Y009648D02*
X006988D01*
Y009382*
X007314*
Y009648*
G37*
G36*
X010843Y011327D02*
X010669Y011310D01*
X010501Y011259*
X010347Y011176*
X010212Y011066*
X010101Y010930*
X010019Y010776*
X009968Y010609*
X009951Y010435*
X009968Y010261*
X010019Y010094*
X010101Y009940*
X010212Y009805*
X010347Y009694*
X010501Y009611*
X010669Y009560*
X010843Y009543*
X011016Y009560*
X011184Y009611*
X011338Y009694*
X011473Y009805*
X011584Y009940*
X011666Y010094*
X011717Y010261*
X011734Y010435*
X011717Y010609*
X011666Y010776*
X011584Y010930*
X011473Y011066*
X011338Y011176*
X011184Y011259*
X011016Y011310*
X010843Y011327*
G37*
G36*
X001887Y009931D02*
X001542D01*
Y009586*
X001887*
Y009931*
G37*
G36*
X000050Y008392D02*
Y008050D01*
X000392*
X000385Y008103*
X000345Y008199*
X000282Y008282*
X000199Y008345*
X000103Y008385*
X000050Y008392*
G37*
G36*
X004937Y012210D02*
X004834Y012196D01*
X004738Y012156*
X004655Y012093*
X004592Y012010*
X004552Y011914*
X004538Y011811*
X004552Y011708*
X004592Y011612*
X004655Y011529*
X004738Y011466*
X004834Y011426*
X004937Y011412*
X005034Y011425*
X005811Y010648*
X005793Y010605*
Y009972*
Y009748*
X006169*
Y009698*
X006219*
Y009382*
X006545*
Y009381*
X006563*
Y009382*
X006888*
Y009698*
X006938*
Y009748*
X007314*
Y009972*
Y010605*
X006563*
X006545*
X006368*
X006357Y010657*
X006313Y010723*
X005323Y011714*
X005336Y011811*
X005322Y011914*
X005282Y012010*
X005219Y012093*
X005136Y012156*
X005040Y012196*
X004937Y012210*
G37*
G36*
X006119Y009648D02*
X005793D01*
Y009382*
X006119*
Y009648*
G37*
G36*
X003887Y009931D02*
X003545D01*
X003552Y009878*
X003592Y009782*
X003655Y009699*
X003738Y009636*
X003834Y009596*
X003887Y009589*
Y009931*
G37*
G36*
X004329D02*
X003987D01*
Y009589*
X004040Y009596*
X004136Y009636*
X004219Y009699*
X004282Y009782*
X004322Y009878*
X004329Y009931*
G37*
G36*
X004887D02*
X004545D01*
X004552Y009878*
X004592Y009782*
X004655Y009699*
X004738Y009636*
X004834Y009596*
X004887Y009589*
Y009931*
G37*
G36*
X002332D02*
X001987D01*
Y009586*
X002332*
Y009931*
G37*
G36*
X002887D02*
X002545D01*
X002552Y009878*
X002592Y009782*
X002655Y009699*
X002738Y009636*
X002834Y009596*
X002887Y009589*
Y009931*
G37*
G36*
X003329D02*
X002987D01*
Y009589*
X003040Y009596*
X003136Y009636*
X003219Y009699*
X003282Y009782*
X003322Y009878*
X003329Y009931*
G37*
%LNdistro_layout_top_buck-3*%
%LPD*%
G54D10*
X005685Y004659D03*
X006315D03*
G54D11*
X006295Y003445D03*
X005705D03*
Y004017D03*
X006295D03*
Y005300D03*
X005705D03*
G54D12*
X006150Y007887D03*
Y008478D03*
X005381Y007887D03*
Y008478D03*
X006169Y009698D03*
Y010289D03*
X006938Y009698D03*
Y010289D03*
G54D13*
X001791Y005405D03*
Y006468D03*
X002679Y005405D03*
Y006468D03*
G54D14*
X003937Y000830D02*
X004507Y001400D01*
X001937Y000830D02*
X003107Y002000D01*
X002937Y000830D02*
X003807Y001700D01*
X004937Y000830D02*
X009830D01*
X005358Y004986D02*
X005685Y004659D01*
X004614Y004986D02*
X005358D01*
X001937Y004490D02*
X002432Y004986D01*
X004614D02*
X005000Y004600D01*
Y003552D02*
Y004600D01*
Y003552D02*
X005484Y003067D01*
X005891*
X005908Y003050*
X006295Y003437*
Y003445*
X005705D02*
D01*
Y004017*
X006295D02*
D01*
X005705Y005300D02*
X005713Y005308D01*
X006169Y010289D02*
X006938D01*
X006169D02*
Y010579D01*
X004937Y011811D02*
X006169Y010579D01*
X006150Y007887D02*
X007369D01*
X005381D02*
X006150D01*
X005381Y008478D02*
X006150D01*
X001937Y008151D02*
X002450Y008664D01*
X004937Y-001000D02*
Y000830D01*
X003937Y-001000D02*
Y000830D01*
X002937Y-001000D02*
Y000830D01*
X001937Y-001000D02*
Y000830D01*
X012343Y003343D02*
Y004013D01*
X009830Y000830D02*
X012343Y003343D01*
X011843Y004513D02*
X012343Y004013D01*
X011843Y003393D02*
Y003613D01*
X009850Y001400D02*
X011843Y003393D01*
X009379Y001700D02*
X010843Y003163D01*
X003807Y001700D02*
X009379D01*
X004507Y001400D02*
X009850D01*
X008936Y002000D02*
X010843Y003906D01*
X003107Y002000D02*
X008936D01*
X009843Y004513D02*
Y005413D01*
Y003613D02*
Y004513D01*
X008789Y002560D02*
X009843Y003613D01*
X004867Y002560D02*
X008789D01*
X010843Y003906D02*
Y004063D01*
Y005863D02*
X011343Y006363D01*
Y007257*
X009600Y009000D02*
X011343Y007257D01*
X005194Y008664D02*
X005381Y008478D01*
X000000Y009000D02*
X009600D01*
X002450Y008664D02*
X005194D01*
X002937Y008151D02*
X002999D01*
X005705Y005300D02*
Y005307D01*
X002937Y004490D02*
X004867Y002560D01*
X006295Y004017D02*
Y005300D01*
X001791Y005405D02*
X002679D01*
X003099Y004986*
X004614*
X002432D02*
X003099D01*
X001791Y006468D02*
X002679D01*
X004682*
X002999Y008151D02*
X004682Y006468D01*
X005705Y005307D02*
X006866Y006468D01*
X004682D02*
X006866D01*
X008787*
X009843Y005413*
X007369Y007887D02*
X008787Y006468D01*
G54D15*
X010843Y000392D03*
Y010435D03*
G54D16*
X009843Y003613D03*
Y005413D03*
Y004513D03*
Y006313D03*
Y007213D03*
X010843Y006763D03*
Y005863D03*
Y004063D03*
Y004963D03*
Y003163D03*
X011843Y007213D03*
Y006313D03*
Y004513D03*
Y005413D03*
Y003613D03*
G54D17*
X001937Y011811D03*
Y009981D03*
X003937Y004490D03*
Y008151D03*
X001937Y-001000D03*
Y000830D03*
G54D18*
X002937Y011811D03*
X003937D03*
X004937D03*
X000000Y003000D03*
Y004000D03*
Y005000D03*
X002937Y009981D03*
X003937D03*
X004937D03*
X000000Y007000D03*
Y008000D03*
X001937Y004490D03*
X002937D03*
X001937Y008151D03*
X002937D03*
Y-001000D03*
X003937D03*
X004937D03*
X002937Y000830D03*
X003937D03*
X004937D03*
G54D19*
X000000Y002000D03*
Y009000D03*
G54D20*
X000000Y010827D03*
Y000000D03*
M02*