%FSDAX24Y24*%
%MOIN*%
%SFA1B1*%

%IPPOS*%
%ADD21C,0.010000*%
%ADD22C,0.007900*%
%ADD23C,0.005000*%
%LNdistro_layout_top_buck-1*%
%LPD*%
G54D21*
X007862Y-000550D02*
D01*
D01*
G75*
G03X005838I-1012J0D01*
G74*G01*
D01*
G75*
G03X007862I1012J0D01*
G74*G01*
X006250Y-000800D02*
X007500D01*
X007100Y-000200D02*
X007500D01*
X006250D02*
X006650D01*
X010843Y010435D02*
X015343D01*
Y000392D02*
Y010435D01*
X010843Y000392D02*
X015343D01*
X006100Y011880D02*
Y012330D01*
X006250Y012180*
X006400Y012330*
Y011880*
X006850Y012330D02*
X006550D01*
Y011880*
X006850*
X006550Y012105D02*
X006700D01*
X007000Y012330D02*
X007300D01*
X007150*
Y011880*
X007450D02*
Y012330D01*
X007674*
X007749Y012255*
Y012105*
X007674Y012030*
X007450*
X007600D02*
X007749Y011880D01*
X008124D02*
Y012330D01*
X007899Y012105*
X008199*
X008349Y012255D02*
X008424Y012330D01*
X008574*
X008649Y012255*
Y012180*
X008574Y012105*
X008649Y012030*
Y011955*
X008574Y011880*
X008424*
X008349Y011955*
Y012030*
X008424Y012105*
X008349Y012180*
Y012255*
X008424Y012105D02*
X008574D01*
X008799Y011880D02*
X008949D01*
X008874*
Y012330*
X008799Y012255*
X009174D02*
X009249Y012330D01*
X009399*
X009474Y012255*
Y011955*
X009399Y011880*
X009249*
X009174Y011955*
Y012255*
X006100Y011550D02*
X006400D01*
X006250*
Y011100*
X006850Y011550D02*
X006550D01*
Y011100*
X006850*
X006550Y011325D02*
X006700D01*
X007000Y011100D02*
Y011400D01*
X007150Y011550*
X007300Y011400*
Y011100*
Y011325*
X007000*
X007450Y011100D02*
Y011550D01*
X007600Y011400*
X007749Y011550*
Y011100*
X008349D02*
X008499D01*
X008424*
Y011550*
X008349Y011475*
X008724D02*
X008799Y011550D01*
X008949*
X009024Y011475*
Y011175*
X008949Y011100*
X008799*
X008724Y011175*
Y011475*
G54D22*
X005437Y011311D02*
Y012311D01*
X001437Y011311D02*
X005437D01*
X001437Y012311D02*
X005437D01*
X001437Y011311D02*
Y012311D01*
X-000500Y005500D02*
X000500D01*
Y001500D02*
Y005500D01*
X-000500Y001500D02*
Y005500D01*
Y001500D02*
X000500D01*
X005437Y009481D02*
Y010481D01*
X001437Y009481D02*
X005437D01*
X001437Y010481D02*
X005437D01*
X001437Y009481D02*
Y010481D01*
X-000500Y009500D02*
X000500D01*
Y006500D02*
Y009500D01*
X-000500Y006500D02*
X000500D01*
X-000500D02*
Y009500D01*
X004437Y003990D02*
Y004990D01*
X001437Y003990D02*
X004437D01*
X001437D02*
Y004990D01*
X004437*
Y007651D02*
Y008651D01*
X001437Y007651D02*
X004437D01*
X001437D02*
Y008651D01*
X004437*
X005437Y-001500D02*
Y-000500D01*
X001437Y-001500D02*
X005437D01*
X001437Y-000500D02*
X005437D01*
X001437Y-001500D02*
Y-000500D01*
X005437Y000330D02*
Y001330D01*
X001437Y000330D02*
X005437D01*
X001437Y001330D02*
X005437D01*
X001437Y000330D02*
Y001330D01*
X005921Y003307D02*
X006079D01*
X005921Y003582D02*
X006079D01*
X005921Y004155D02*
X006079D01*
X005921Y003879D02*
X006079D01*
X005921Y005162D02*
X006079D01*
X005921Y005438D02*
X006079D01*
X001496Y005780D02*
Y006094D01*
X002087Y005780D02*
Y006094D01*
X002384Y005780D02*
Y006094D01*
X002974Y005780D02*
Y006094D01*
G54D23*
X001937Y007400D02*
X001987Y007450D01*
X002087*
X002137Y007400*
Y007200*
X002087Y007150*
X001987*
X001937Y007200*
Y007400*
X002237Y007300D02*
X002437D01*
X002737Y007450D02*
X002537D01*
Y007300*
X002637Y007350*
X002687*
X002737Y007300*
Y007200*
X002687Y007150*
X002587*
X002537Y007200*
X002837Y007300D02*
X003037D01*
X003137Y007150D02*
Y007450D01*
X003287*
X003337Y007400*
Y007300*
X003287Y007250*
X003137*
X003437Y007450D02*
Y007150D01*
X003537Y007250*
X003637Y007150*
Y007450*
X003737Y007150D02*
Y007450D01*
X003837Y007350*
X003937Y007450*
Y007150*
X005050Y004450D02*
X005000Y004400D01*
Y004300*
X005050Y004250*
X005250*
X005300Y004300*
Y004400*
X005250Y004450*
X005150*
Y004350*
X005300Y004550D02*
X005000D01*
X005300Y004750*
X005000*
Y004850D02*
X005300D01*
Y005000*
X005250Y005050*
X005050*
X005000Y005000*
Y004850*
X001888Y-000250D02*
X001987D01*
X001937*
Y000050*
X001888Y000000*
X002137Y-000250D02*
Y-000050D01*
X002237Y000050*
X002337Y-000050*
Y-000250*
Y-000100*
X002137*
X002437D02*
X002637D01*
X002737Y-000250D02*
X002837D01*
X002787*
Y000050*
X002737Y000000*
X002987Y000050D02*
Y-000250D01*
X003137*
X003187Y-000200*
Y-000150*
X003137Y-000100*
X002987*
X003137*
X003187Y-000050*
Y000000*
X003137Y000050*
X002987*
X003287Y-000100D02*
X003487D01*
X003787Y-000250D02*
X003587D01*
X003787Y-000050*
Y000000*
X003737Y000050*
X003637*
X003587Y000000*
X003887Y-000250D02*
Y-000050D01*
X003987Y000050*
X004087Y-000050*
Y-000250*
Y-000100*
X003887*
X004187D02*
X004387D01*
X004687Y-000250D02*
X004487D01*
X004687Y-000050*
Y000000*
X004637Y000050*
X004537*
X004487Y000000*
X004787Y000050D02*
Y-000250D01*
X004937*
X004987Y-000200*
Y-000150*
X004937Y-000100*
X004787*
X004937*
X004987Y-000050*
Y000000*
X004937Y000050*
X004787*
X001937Y003750D02*
X001987Y003800D01*
X002087*
X002137Y003750*
Y003550*
X002087Y003500*
X001987*
X001937Y003550*
Y003750*
X002237Y003650D02*
X002437D01*
X002737Y003800D02*
X002537D01*
Y003650*
X002637Y003700*
X002687*
X002737Y003650*
Y003550*
X002687Y003500*
X002587*
X002537Y003550*
X002837Y003650D02*
X003037D01*
X003137Y003500D02*
Y003800D01*
X003287*
X003337Y003750*
Y003650*
X003287Y003600*
X003137*
X003437Y003800D02*
Y003500D01*
X003537Y003600*
X003637Y003500*
Y003800*
X003737Y003500D02*
Y003800D01*
X003837Y003700*
X003937Y003800*
Y003500*
X002437Y009300D02*
Y009000D01*
X002587*
X002637Y009050*
Y009100*
X002587Y009150*
X002437*
X002587*
X002637Y009200*
Y009250*
X002587Y009300*
X002437*
X002737Y009150D02*
X002937D01*
X003037Y009300D02*
Y009000D01*
X003187*
X003237Y009050*
Y009100*
X003187Y009150*
X003037*
X003187*
X003237Y009200*
Y009250*
X003187Y009300*
X003037*
X003337Y009150D02*
X003537D01*
X003637Y009300D02*
Y009000D01*
X003787*
X003837Y009050*
Y009100*
X003787Y009150*
X003637*
X003787*
X003837Y009200*
Y009250*
X003787Y009300*
X003637*
X003937Y009150D02*
X004137D01*
X004237Y009300D02*
Y009000D01*
X004387*
X004437Y009050*
Y009100*
X004387Y009150*
X004237*
X004387*
X004437Y009200*
Y009250*
X004387Y009300*
X004237*
X002437Y011050D02*
X002487Y011100D01*
X002587*
X002637Y011050*
Y010850*
X002587Y010800*
X002487*
X002437Y010850*
Y011050*
X002737Y010950D02*
X002937D01*
X003037Y011050D02*
X003087Y011100D01*
X003187*
X003237Y011050*
Y010850*
X003187Y010800*
X003087*
X003037Y010850*
Y011050*
X003337Y010950D02*
X003537D01*
X003637Y011050D02*
X003687Y011100D01*
X003787*
X003837Y011050*
Y010850*
X003787Y010800*
X003687*
X003637Y010850*
Y011050*
X003937Y010950D02*
X004137D01*
X004237Y011050D02*
X004287Y011100D01*
X004387*
X004437Y011050*
Y010850*
X004387Y010800*
X004287*
X004237Y010850*
Y011050*
X-000950Y007025D02*
X-001000Y007075D01*
Y007175*
X-000950Y007225*
X-000750*
X-000700Y007175*
Y007075*
X-000750Y007025*
X-000950*
X-000850Y007325D02*
Y007525D01*
X-001000Y007625D02*
X-000700D01*
Y007775*
X-000750Y007825*
X-000800*
X-000850Y007775*
Y007625*
Y007775*
X-000900Y007825*
X-000950*
X-001000Y007775*
Y007625*
X-000850Y007925D02*
Y008125D01*
X-000950Y008425D02*
X-001000Y008375D01*
Y008275*
X-000950Y008225*
X-000900*
X-000850Y008275*
Y008375*
X-000800Y008425*
X-000750*
X-000700Y008375*
Y008275*
X-000750Y008225*
X-001000Y008525D02*
Y008625D01*
Y008575*
X-000700*
Y008525*
Y008625*
X-000950Y008975D02*
X-001000Y008925D01*
Y008825*
X-000950Y008775*
X-000750*
X-000700Y008825*
Y008925*
X-000750Y008975*
X-000850*
Y008875*
X-001000Y002500D02*
X-000700D01*
Y002650*
X-000750Y002700*
X-000800*
X-000850Y002650*
Y002500*
Y002650*
X-000900Y002700*
X-000950*
X-001000Y002650*
Y002500*
X-000850Y002800D02*
Y003000D01*
X-001000Y003100D02*
X-000700D01*
Y003250*
X-000750Y003300*
X-000800*
X-000850Y003250*
Y003100*
Y003250*
X-000900Y003300*
X-000950*
X-001000Y003250*
Y003100*
X-000850Y003400D02*
Y003600D01*
X-000950Y003700D02*
X-001000Y003750D01*
Y003850*
X-000950Y003900*
X-000750*
X-000700Y003850*
Y003750*
X-000750Y003700*
X-000950*
X-000850Y004000D02*
Y004200D01*
X-000950Y004300D02*
X-001000Y004350D01*
Y004450*
X-000950Y004500*
X-000750*
X-000700Y004450*
Y004350*
X-000750Y004300*
X-000950*
M02*