%FSDAX24Y24*%
%MOIN*%
%SFA1B1*%

%IPPOS*%
%ADD24R,0.045400X0.047400*%
%ADD25R,0.035600X0.043400*%
%ADD26R,0.063100X0.051300*%
%ADD27R,0.074900X0.051300*%
%ADD28C,0.165500*%
%ADD29C,0.068000*%
%ADD30R,0.067100X0.067100*%
%ADD31C,0.067100*%
%ADD32R,0.067100X0.067100*%
%ADD33C,0.204900*%
%LNdistro_layout_top_buck-1*%
%LPD*%
G54D24*
X005685Y004659D03*
X006315D03*
G54D25*
X006295Y003445D03*
X005705D03*
Y004017D03*
X006295D03*
Y005300D03*
X005705D03*
G54D26*
X006150Y007887D03*
Y008478D03*
X005381Y007887D03*
Y008478D03*
X006169Y009698D03*
Y010289D03*
X006938Y009698D03*
Y010289D03*
G54D27*
X001791Y005405D03*
Y006468D03*
X002679Y005405D03*
Y006468D03*
G54D28*
X010843Y000392D03*
Y010435D03*
G54D29*
X009843Y003613D03*
Y005413D03*
Y004513D03*
Y006313D03*
Y007213D03*
X010843Y006763D03*
Y005863D03*
Y004063D03*
Y004963D03*
Y003163D03*
X011843Y007213D03*
Y006313D03*
Y004513D03*
Y005413D03*
Y003613D03*
G54D30*
X001937Y011811D03*
Y009981D03*
X003937Y004490D03*
Y008151D03*
X001937Y-001000D03*
Y000830D03*
G54D31*
X002937Y011811D03*
X003937D03*
X004937D03*
X000000Y003000D03*
Y004000D03*
Y005000D03*
X002937Y009981D03*
X003937D03*
X004937D03*
X000000Y007000D03*
Y008000D03*
X001937Y004490D03*
X002937D03*
X001937Y008151D03*
X002937D03*
Y-001000D03*
X003937D03*
X004937D03*
X002937Y000830D03*
X003937D03*
X004937D03*
G54D32*
X000000Y002000D03*
Y009000D03*
G54D33*
X000000Y010827D03*
Y000000D03*
M02*