M48
;Layer_Color=9474304
;FILE_FORMAT=2:4
INCH,LZ
;TYPE=PLATED
T1F00S00C0.0300
T2F00S00C0.0354
T3F00S00C0.1000
T4F00S00C0.1260
%
T01
X02185Y005315
X01752
X014862Y00689
X011992Y006909
X011995Y005531
X003134Y008563
X004851Y010728
X004852Y013259
X001073
X007677Y0125
X007953Y011024
X006806Y010925
X007205Y010276
X008376Y010197
X0081Y009459
X006841Y009262
X006026Y008036
X010699Y008809
X011516Y009183
X012323Y009665
X014365Y008957
X020276Y010138
X021024Y010748
X021152Y014291
X02063Y015354
X02122Y016604
X00936Y016467
X008415
X009449Y013287
X009252Y011713
X010728Y013878
T02
X006677Y001476
X007677
X005118
X004118
X002559
X001559
X-0Y002248
Y003248
Y005594
Y006594
Y008957
Y009957
Y012344
Y013344
Y014344
Y015344
X002134
X003134
X004134
Y014344
X003134
X002134
X00677
X00777
X00877
Y015344
X00777
X00677
X012356
Y014344
Y013344
Y012344
X013356
Y013344
Y014344
Y015344
X015358Y015354
X016358
Y014354
X015358
Y013354
X016358
Y012354
X015358
X018498
Y013354
Y014354
Y015354
X019498
Y014354
Y013354
Y012354
X02185Y01235
Y01335
Y01435
Y01535
X02285
Y01435
Y01335
Y01235
Y009744
X02185
Y007382
X02285
T03
X012992Y002953
T04
X023622Y0
X0
Y017717
X023622
M30
