%FSDAX24Y24*%
%MOIN*%
%SFA1B1*%

%IPPOS*%
%ADD32R,0.035600X0.043400*%
%ADD33R,0.051300X0.074900*%
%ADD34R,0.043400X0.035600*%
%ADD35R,0.098600X0.187100*%
%ADD36R,0.031600X0.047400*%
%ADD37R,0.049300X0.102500*%
%ADD38R,0.427300X0.358400*%
%ADD39R,0.047400X0.045400*%
%ADD40R,0.045400X0.047400*%
%ADD41O,0.029700X0.076900*%
%ADD42O,0.076900X0.029700*%
%ADD43R,0.067100X0.067100*%
%ADD44C,0.067100*%
%ADD45R,0.067100X0.067100*%
%ADD46C,0.204900*%
%ADD47C,0.058000*%
%LN7april_pcb-1*%
%LPD*%
G54D32*
X021721Y002350D03*
X021131D03*
X021721Y003400D03*
X021131D03*
X021721Y004400D03*
X021131D03*
X021721Y005250D03*
X021131D03*
X021721Y006350D03*
X021131D03*
X021721Y007450D03*
X021131D03*
X019227Y014600D03*
X018636D03*
X013872Y015118D03*
X013281D03*
X015212D03*
X014622D03*
X018636Y014027D03*
X019227D03*
Y013455D03*
X018636D03*
G54D33*
X-000210Y002983D03*
X000853D03*
X-000210Y003871D03*
X000853D03*
G54D34*
X014379Y006432D03*
Y005842D03*
X014952Y006432D03*
Y005842D03*
X015524Y006432D03*
Y005842D03*
X011523Y006432D03*
Y005842D03*
X012095Y006432D03*
Y005842D03*
X010950Y006432D03*
Y005842D03*
X006176Y005595D03*
Y005005D03*
X005603D03*
Y005595D03*
X004320D03*
Y005005D03*
X018276Y008809D03*
Y009400D03*
X007458Y005005D03*
Y005595D03*
G54D35*
X003305Y000318D03*
Y003271D03*
X007559Y000318D03*
Y003271D03*
G54D36*
X019415Y009435D03*
X020163D03*
X019789Y010340D03*
X021021Y009435D03*
X021769D03*
X021395Y010340D03*
G54D37*
X017450Y004954D03*
X015450D03*
X012940D03*
X010940D03*
G54D38*
X016450Y000879D03*
X011940D03*
G54D39*
X004962Y004985D03*
Y005615D03*
X006817Y004985D03*
Y005615D03*
G54D40*
X013892Y015759D03*
X013262D03*
X015232D03*
X014602D03*
G54D41*
X011725Y012174D03*
X011410D03*
X011095D03*
X010780D03*
X010465D03*
X010150D03*
X009835D03*
X009520D03*
X009205D03*
X008890D03*
X008575D03*
Y007726D03*
X008890D03*
X009205D03*
X009520D03*
X009835D03*
X010150D03*
X010465D03*
X010780D03*
X011095D03*
X011410D03*
X011725D03*
G54D42*
X007926Y011525D03*
Y011210D03*
Y010895D03*
Y010580D03*
Y010265D03*
Y009950D03*
Y009635D03*
Y009320D03*
Y009005D03*
Y008690D03*
Y008375D03*
X012374D03*
Y008690D03*
Y009005D03*
Y009320D03*
Y009635D03*
Y009950D03*
Y010265D03*
Y010580D03*
Y010895D03*
Y011210D03*
Y011525D03*
G54D43*
X020294Y002400D03*
X-000411Y012219D03*
X002589D03*
X017400Y007400D03*
Y011650D03*
G54D44*
X019294Y002400D03*
X020294Y003400D03*
X019294D03*
X020294Y004400D03*
X019294D03*
X020294Y005400D03*
X019294D03*
X020294Y006400D03*
X019294D03*
X020294Y007400D03*
X019294D03*
X-000411Y005219D03*
Y006219D03*
Y007219D03*
Y008219D03*
Y009219D03*
Y010219D03*
Y011219D03*
X002589Y005219D03*
Y006219D03*
Y007219D03*
Y008219D03*
Y009219D03*
Y010219D03*
Y011219D03*
X016400Y009400D03*
X017400D03*
X016400Y008400D03*
X017400D03*
X016400Y007400D03*
X003150Y014945D03*
Y015945D03*
X004150Y014945D03*
Y015945D03*
X005150Y014945D03*
X016400Y011650D03*
X017400Y012650D03*
X016400D03*
X017400Y013650D03*
X016400D03*
X017400Y014650D03*
X016400D03*
X-000411Y001950D03*
X007410Y015945D03*
X008410Y014945D03*
Y015945D03*
X009410Y014945D03*
Y015945D03*
X010410Y014945D03*
Y015945D03*
X000589Y013398D03*
X001589D03*
X002589D03*
G54D45*
X005150Y015945D03*
X000589Y001950D03*
X007410Y014945D03*
X-000411Y013398D03*
G54D46*
X000000Y000000D03*
X021000D03*
Y015500D03*
X000000D03*
G54D47*
X003305Y000318D03*
X007559D03*
X013370Y000750D03*
X011860D03*
X016390D03*
X014880D03*
X010350D03*
X017900D03*
X010150Y009950D03*
X017450Y004954D03*
M02*