%FSDAX24Y24*%
%MOIN*%
%SFA1B1*%

%IPPOS*%
%ADD9500C,0.028000*%
%ADD9501C,0.035400*%
%ADD9502C,0.126000*%
%LN7april_pcb-1*%
%LPD*%
G54D9500*
X017900Y000750D03*
X017450Y004954D03*
X016390Y000750D03*
X014880D03*
X013370D03*
X011860D03*
X010350D03*
X007559Y000318D03*
X003305D03*
X010150Y009950D03*
G54D9501*
X019294Y002400D03*
X020294D03*
Y003400D03*
X019294D03*
Y004400D03*
X020294D03*
Y005400D03*
X019294D03*
Y006400D03*
X020294D03*
Y007400D03*
X019294D03*
X017400D03*
X016400D03*
X002589Y007219D03*
Y006219D03*
Y005219D03*
Y008219D03*
X-000411D03*
Y007219D03*
Y006219D03*
Y005219D03*
Y001950D03*
X000589D03*
X-000411Y009219D03*
Y010219D03*
Y011219D03*
Y012219D03*
Y013398D03*
X000589D03*
X001589D03*
X002589D03*
Y012219D03*
Y011219D03*
Y010219D03*
Y009219D03*
X003150Y014945D03*
Y015945D03*
X004150D03*
Y014945D03*
X005150D03*
Y015945D03*
X007410D03*
Y014945D03*
X008410D03*
Y015945D03*
X009410D03*
Y014945D03*
X010410D03*
Y015945D03*
X016400Y014650D03*
Y013650D03*
Y012650D03*
Y011650D03*
Y009400D03*
Y008400D03*
X017400D03*
Y009400D03*
Y011650D03*
Y012650D03*
Y013650D03*
Y014650D03*
G54D9502*
X021000Y000000D03*
X000000D03*
Y015500D03*
X021000D03*
M02*