%FSDAX24Y24*%
%MOIN*%
%SFA1B1*%

%IPPOS*%
%ADD15C,0.020000*%
%ADD16C,0.187400*%
%ADD17R,0.066500X0.066500*%
%ADD18C,0.066500*%
%ADD19C,0.059100*%
%ADD20R,0.059100X0.059100*%
%ADD21R,0.059100X0.059100*%
%ADD22C,0.196900*%
%ADD24C,0.010000*%
%ADD26C,0.005000*%
%ADD39C,0.040000*%
%ADD40C,0.080000*%
%LNdistro_layout_b-1*%
%LPD*%
G54D26*
X-000001Y012649D02*
X015570D01*
Y-001822*
X-000001*
X-000007Y-001822*
X-000237Y-001808*
X-000472Y-001761*
X-000698Y-001684*
X-000911Y-001579*
X-001110Y-001447*
X-001289Y-001289*
X-001447Y-001110*
X-001579Y-000911*
X-001684Y-000698*
X-001761Y-000472*
X-001808Y-000237*
X-001822Y-000007*
X-001822Y-000001*
Y010828*
X-001822Y010834*
X-001808Y011064*
X-001761Y011298*
X-001684Y011524*
X-001579Y011738*
X-001447Y011936*
X-001289Y012116*
X-001110Y012274*
X-000911Y012406*
X-000698Y012511*
X-000472Y012588*
X-000237Y012635*
X-000007Y012649*
X-000001Y012649*
G54D24*
X-000005Y012599D02*
X015520D01*
Y-001772*
X-000005*
X-000009Y-001772*
X-000231Y-001758*
X-000459Y-001713*
X-000679Y-001638*
X-000886Y-001535*
X-001080Y-001407*
X-001253Y-001253*
X-001407Y-001080*
X-001535Y-000886*
X-001638Y-000679*
X-001713Y-000459*
X-001758Y-000231*
X-001772Y-000009*
X-001772Y-000005*
Y010832*
X-001772Y010836*
X-001758Y011058*
X-001713Y011285*
X-001638Y011505*
X-001535Y011713*
X-001407Y011906*
X-001253Y012080*
X-001080Y012234*
X-000886Y012362*
X-000679Y012465*
X-000459Y012540*
X-000231Y012585*
X-000009Y012599*
X-000005Y012599*
G54D15*
X-000012Y012499D02*
X015420D01*
Y-001672*
X-000012*
X-000013Y-001672*
X-000218Y-001659*
X-000433Y-001616*
X-000640Y-001546*
X-000836Y-001449*
X-001019Y-001327*
X-001183Y-001183*
X-001327Y-001019*
X-001449Y-000836*
X-001546Y-000640*
X-001616Y-000433*
X-001659Y-000218*
X-001672Y-000013*
X-001672Y-000012*
Y010839*
X-001672Y010840*
X-001659Y011045*
X-001616Y011259*
X-001545Y011466*
X-001449Y011663*
X-001327Y011845*
X-001182Y012010*
X-001019Y012154*
X-000836Y012276*
X-000640Y012373*
X-000433Y012443*
X-000218Y012486*
X-000013Y012499*
X-000012Y012499*
G54D39*
X-000025Y012299D02*
X015220D01*
Y-001472*
X-000025*
X-000020Y-001471*
X-000192Y-001460*
X-000381Y-001422*
X-000563Y-001360*
X-000736Y-001275*
X-000897Y-001168*
X-001041Y-001041*
X-001168Y-000897*
X-001275Y-000736*
X-001360Y-000563*
X-001422Y-000381*
X-001460Y-000192*
X-001471Y-000020*
X-001472Y-000025*
Y010852*
X-001471Y010847*
X-001460Y011019*
X-001423Y011207*
X-001360Y011390*
X-001275Y011563*
X-001168Y011723*
X-001040Y011868*
X-000897Y011995*
X-000736Y012102*
X-000563Y012187*
X-000381Y012249*
X-000192Y012287*
X-000020Y012298*
X-000025Y012299*
G54D40*
X005860Y011899D02*
X014820D01*
Y-001071*
X005860*
X003988Y-001327*
X-000140Y-001062*
X-000278Y-001035*
X-000409Y-000990*
X-000536Y-000928*
X-000652Y-000850*
X-000757Y-000757*
X-000850Y-000652*
X-000928Y-000536*
X-000990Y-000409*
X-001035Y-000278*
X-001062Y-000140*
X-001327Y003988*
X-001072Y005860*
Y004966*
X-001327Y006837*
X-001062Y010967*
X-001035Y011103*
X-000990Y011236*
X-000928Y011363*
X-000850Y011479*
X-000757Y011585*
X-000652Y011677*
X-000536Y011755*
X-000409Y011817*
X-000278Y011862*
X-000140Y011889*
X003988Y012154*
X005860Y011899*
X-000520Y-000920D02*
X014820D01*
X-000920Y-000120D02*
X014820D01*
X-000920Y000680D02*
X014820D01*
X-001120Y001480D02*
X014820D01*
X-001120Y002280D02*
X014820D01*
X-001120Y003080D02*
X014820D01*
X-001120Y003880D02*
X014820D01*
X-001120Y004680D02*
X014820D01*
X-001120Y005480D02*
X014820D01*
X-001120Y006280D02*
X014820D01*
X-001120Y007080D02*
X014820D01*
X-001120Y007880D02*
X014820D01*
X-001120Y008680D02*
X014820D01*
X-001120Y009480D02*
X014820D01*
X-000920Y010280D02*
X014820D01*
X-000920Y011080D02*
X014820D01*
X-000120Y011880D02*
X014820D01*
%LNdistro_layout_b-2*%
%LPC*%
G36*
X008859Y003669D02*
X008746Y003654D01*
X008641Y003610*
X008550Y003541*
X008481Y003450*
X008437Y003345*
X008422Y003232*
X008437Y003119*
X008481Y003014*
X008550Y002924*
X008641Y002854*
X008746Y002811*
X008859Y002796*
X008972Y002811*
X009077Y002854*
X009167Y002924*
X009237Y003014*
X009280Y003119*
X009295Y003232*
X009280Y003345*
X009237Y003450*
X009167Y003541*
X009077Y003610*
X008972Y003654*
X008859Y003669*
G37*
G36*
X000000Y003399D02*
X-000103Y003385D01*
X-000199Y003345*
X-000282Y003282*
X-000345Y003199*
X-000385Y003103*
X-000399Y003000*
X-000385Y002897*
X-000345Y002801*
X-000282Y002718*
X-000199Y002655*
X-000103Y002615*
X000000Y002601*
X000103Y002615*
X000199Y002655*
X000282Y002718*
X000345Y002801*
X000385Y002897*
X000399Y003000*
X000385Y003103*
X000345Y003199*
X000282Y003282*
X000199Y003345*
X000103Y003385*
X000000Y003399*
G37*
G36*
X-000050Y003950D02*
X-000392D01*
X-000385Y003897*
X-000345Y003801*
X-000282Y003718*
X-000199Y003655*
X-000103Y003615*
X-000050Y003608*
Y003950*
G37*
G36*
X009977Y004214D02*
X009864Y004199D01*
X009759Y004155*
X009668Y004086*
X009599Y003996*
X009555Y003891*
X009540Y003778*
X009555Y003665*
X009599Y003559*
X009668Y003469*
X009759Y003400*
X009864Y003356*
X009977Y003341*
X010090Y003356*
X010195Y003400*
X010285Y003469*
X010355Y003559*
X010398Y003665*
X010413Y003778*
X010398Y003891*
X010355Y003996*
X010285Y004086*
X010195Y004155*
X010090Y004199*
X009977Y004214*
G37*
G36*
X006850Y002392D02*
Y002050D01*
X007192*
X007185Y002103*
X007145Y002199*
X007082Y002282*
X006999Y002345*
X006903Y002385*
X006850Y002392*
G37*
G36*
X006750D02*
X006697Y002385D01*
X006601Y002345*
X006518Y002282*
X006455Y002199*
X006415Y002103*
X006408Y002050*
X006750*
Y002392*
G37*
G36*
X007192Y001950D02*
X006850D01*
Y001608*
X006903Y001615*
X006999Y001655*
X007082Y001718*
X007145Y001801*
X007185Y001897*
X007192Y001950*
G37*
G36*
X000050Y002392D02*
Y002050D01*
X000392*
X000385Y002103*
X000345Y002199*
X000282Y002282*
X000199Y002345*
X000103Y002385*
X000050Y002392*
G37*
G36*
X-000050D02*
X-000103Y002385D01*
X-000199Y002345*
X-000282Y002282*
X-000345Y002199*
X-000385Y002103*
X-000392Y002050*
X-000050*
Y002392*
G37*
G36*
X000392Y003950D02*
X000050D01*
Y003608*
X000103Y003615*
X000199Y003655*
X000282Y003718*
X000345Y003801*
X000385Y003897*
X000392Y003950*
G37*
G36*
X009977Y005305D02*
X009864Y005290D01*
X009759Y005246*
X009668Y005177*
X009599Y005086*
X009555Y004981*
X009540Y004868*
X009555Y004755*
X009599Y004650*
X009668Y004560*
X009759Y004490*
X009864Y004447*
X009977Y004432*
X010090Y004447*
X010195Y004490*
X010285Y004560*
X010355Y004650*
X010398Y004755*
X010413Y004868*
X010398Y004981*
X010355Y005086*
X010285Y005177*
X010195Y005246*
X010090Y005290*
X009977Y005305*
G37*
G36*
X002329Y004440D02*
X001987D01*
Y004098*
X002040Y004105*
X002136Y004145*
X002219Y004209*
X002282Y004291*
X002322Y004387*
X002329Y004440*
G37*
G36*
X001987Y004883D02*
Y004540D01*
X002329*
X002322Y004594*
X002282Y004690*
X002219Y004772*
X002136Y004836*
X002040Y004876*
X001987Y004883*
G37*
G36*
X001887D02*
X001834Y004876D01*
X001738Y004836*
X001655Y004772*
X001592Y004690*
X001552Y004594*
X001545Y004540*
X001887*
Y004883*
G37*
G36*
Y004440D02*
X001545D01*
X001552Y004387*
X001592Y004291*
X001655Y004209*
X001738Y004145*
X001834Y004105*
X001887Y004098*
Y004440*
G37*
G36*
X-000050Y004392D02*
X-000103Y004385D01*
X-000199Y004345*
X-000282Y004282*
X-000345Y004199*
X-000385Y004103*
X-000392Y004050*
X-000050*
Y004392*
G37*
G36*
X008859Y004759D02*
X008746Y004744D01*
X008641Y004701*
X008550Y004631*
X008481Y004541*
X008437Y004436*
X008422Y004323*
X008437Y004210*
X008481Y004105*
X008550Y004014*
X008641Y003945*
X008746Y003901*
X008859Y003886*
X008972Y003901*
X009077Y003945*
X009167Y004014*
X009237Y004105*
X009280Y004210*
X009295Y004323*
X009280Y004436*
X009237Y004541*
X009167Y004631*
X009077Y004701*
X008972Y004744*
X008859Y004759*
G37*
G36*
X002937Y004889D02*
X002834Y004876D01*
X002738Y004836*
X002655Y004772*
X002592Y004690*
X002552Y004594*
X002538Y004490*
X002552Y004387*
X002592Y004291*
X002655Y004209*
X002738Y004145*
X002834Y004105*
X002937Y004092*
X003040Y004105*
X003136Y004145*
X003219Y004209*
X003282Y004291*
X003322Y004387*
X003336Y004490*
X003322Y004594*
X003282Y004690*
X003219Y004772*
X003136Y004836*
X003040Y004876*
X002937Y004889*
G37*
G36*
X000050Y004392D02*
Y004050D01*
X000392*
X000385Y004103*
X000345Y004199*
X000282Y004282*
X000199Y004345*
X000103Y004385*
X000050Y004392*
G37*
G36*
X009418Y001534D02*
X009255Y001522D01*
X009096Y001483*
X008946Y001421*
X008806Y001336*
X008682Y001230*
X008576Y001106*
X008491Y000966*
X008429Y000816*
X008390Y000657*
X008378Y000494*
X008390Y000331*
X008429Y000173*
X008491Y000022*
X008576Y-000117*
X008682Y-000241*
X008806Y-000347*
X008946Y-000433*
X009096Y-000495*
X009255Y-000533*
X009418Y-000546*
X009581Y-000533*
X009739Y-000495*
X009890Y-000433*
X010029Y-000347*
X010153Y-000241*
X010259Y-000117*
X010345Y000022*
X010407Y000173*
X010445Y000331*
X010458Y000494*
X010445Y000657*
X010407Y000816*
X010345Y000966*
X010259Y001106*
X010153Y001230*
X010029Y001336*
X009890Y001421*
X009739Y001483*
X009581Y001522*
X009418Y001534*
G37*
G36*
X000000Y001088D02*
X-000170Y001074D01*
X-000336Y001034*
X-000494Y000969*
X-000639Y000880*
X-000769Y000769*
X-000880Y000639*
X-000969Y000494*
X-001034Y000336*
X-001074Y000170*
X-001088Y000000*
X-001074Y-000170*
X-001034Y-000336*
X-000969Y-000494*
X-000880Y-000639*
X-000769Y-000769*
X-000639Y-000880*
X-000494Y-000969*
X-000336Y-001034*
X-000170Y-001074*
X000000Y-001088*
X000170Y-001074*
X000336Y-001034*
X000494Y-000969*
X000639Y-000880*
X000769Y-000769*
X000880Y-000639*
X000969Y-000494*
X001034Y-000336*
X001074Y-000170*
X001088Y000000*
X001074Y000170*
X001034Y000336*
X000969Y000494*
X000880Y000639*
X000769Y000769*
X000639Y000880*
X000494Y000969*
X000336Y001034*
X000170Y001074*
X000000Y001088*
G37*
G36*
X002937Y001229D02*
X002834Y001215D01*
X002738Y001175*
X002655Y001112*
X002592Y001029*
X002552Y000933*
X002538Y000830*
X002552Y000727*
X002592Y000631*
X002655Y000548*
X002738Y000485*
X002834Y000445*
X002937Y000431*
X003040Y000445*
X003136Y000485*
X003219Y000548*
X003282Y000631*
X003322Y000727*
X003336Y000830*
X003322Y000933*
X003282Y001029*
X003219Y001112*
X003136Y001175*
X003040Y001215*
X002937Y001229*
G37*
G36*
X006800Y000399D02*
X006697Y000385D01*
X006601Y000345*
X006518Y000282*
X006455Y000199*
X006415Y000103*
X006401Y000000*
X006415Y-000103*
X006455Y-000199*
X006518Y-000282*
X006601Y-000345*
X006697Y-000385*
X006800Y-000399*
X006903Y-000385*
X006999Y-000345*
X007082Y-000282*
X007145Y-000199*
X007185Y-000103*
X007199Y000000*
X007185Y000103*
X007145Y000199*
X007082Y000282*
X006999Y000345*
X006903Y000385*
X006800Y000399*
G37*
G36*
X007195Y-000605D02*
X006405D01*
Y-001395*
X007195*
Y-000605*
G37*
G36*
X003937Y-000601D02*
X003834Y-000615D01*
X003738Y-000655*
X003655Y-000718*
X003592Y-000801*
X003552Y-000897*
X003538Y-001000*
X003552Y-001103*
X003592Y-001199*
X003655Y-001282*
X003738Y-001345*
X003834Y-001385*
X003937Y-001399*
X004040Y-001385*
X004136Y-001345*
X004219Y-001282*
X004282Y-001199*
X004322Y-001103*
X004336Y-001000*
X004322Y-000897*
X004282Y-000801*
X004219Y-000718*
X004136Y-000655*
X004040Y-000615*
X003937Y-000601*
G37*
G36*
X002937D02*
X002834Y-000615D01*
X002738Y-000655*
X002655Y-000718*
X002592Y-000801*
X002552Y-000897*
X002538Y-001000*
X002552Y-001103*
X002592Y-001199*
X002655Y-001282*
X002738Y-001345*
X002834Y-001385*
X002937Y-001399*
X003040Y-001385*
X003136Y-001345*
X003219Y-001282*
X003282Y-001199*
X003322Y-001103*
X003336Y-001000*
X003322Y-000897*
X003282Y-000801*
X003219Y-000718*
X003136Y-000655*
X003040Y-000615*
X002937Y-000601*
G37*
G36*
X002332Y-000605D02*
X001542D01*
Y-001395*
X002332*
Y-000605*
G37*
G36*
X004937Y-000601D02*
X004834Y-000615D01*
X004738Y-000655*
X004655Y-000718*
X004592Y-000801*
X004552Y-000897*
X004538Y-001000*
X004552Y-001103*
X004592Y-001199*
X004655Y-001282*
X004738Y-001345*
X004834Y-001385*
X004937Y-001399*
X005040Y-001385*
X005136Y-001345*
X005219Y-001282*
X005282Y-001199*
X005322Y-001103*
X005336Y-001000*
X005322Y-000897*
X005282Y-000801*
X005219Y-000718*
X005136Y-000655*
X005040Y-000615*
X004937Y-000601*
G37*
G36*
X003937Y001229D02*
X003834Y001215D01*
X003738Y001175*
X003655Y001112*
X003592Y001029*
X003552Y000933*
X003538Y000830*
X003552Y000727*
X003592Y000631*
X003655Y000548*
X003738Y000485*
X003834Y000445*
X003937Y000431*
X004040Y000445*
X004136Y000485*
X004219Y000548*
X004282Y000631*
X004322Y000727*
X004336Y000830*
X004322Y000933*
X004282Y001029*
X004219Y001112*
X004136Y001175*
X004040Y001215*
X003937Y001229*
G37*
G36*
X006750Y001950D02*
X006408D01*
X006415Y001897*
X006455Y001801*
X006518Y001718*
X006601Y001655*
X006697Y001615*
X006750Y001608*
Y001950*
G37*
G36*
X006850Y001392D02*
Y001050D01*
X007192*
X007185Y001103*
X007145Y001199*
X007082Y001282*
X006999Y001345*
X006903Y001385*
X006850Y001392*
G37*
G36*
X000392Y001950D02*
X000050D01*
Y001608*
X000103Y001615*
X000199Y001655*
X000282Y001718*
X000345Y001801*
X000385Y001897*
X000392Y001950*
G37*
G36*
X-000050D02*
X-000392D01*
X-000385Y001897*
X-000345Y001801*
X-000282Y001718*
X-000199Y001655*
X-000103Y001615*
X-000050Y001608*
Y001950*
G37*
G36*
X006750Y001392D02*
X006697Y001385D01*
X006601Y001345*
X006518Y001282*
X006455Y001199*
X006415Y001103*
X006408Y001050*
X006750*
Y001392*
G37*
G36*
X002332Y001225D02*
X001542D01*
Y000435*
X002332*
Y001225*
G37*
G36*
X004937Y001229D02*
X004834Y001215D01*
X004738Y001175*
X004655Y001112*
X004592Y001029*
X004552Y000933*
X004538Y000830*
X004552Y000727*
X004592Y000631*
X004655Y000548*
X004738Y000485*
X004834Y000445*
X004937Y000431*
X005040Y000445*
X005136Y000485*
X005219Y000548*
X005282Y000631*
X005322Y000727*
X005336Y000830*
X005322Y000933*
X005282Y001029*
X005219Y001112*
X005136Y001175*
X005040Y001215*
X004937Y001229*
G37*
G36*
X007192Y000950D02*
X006850D01*
Y000608*
X006903Y000615*
X006999Y000655*
X007082Y000718*
X007145Y000801*
X007185Y000897*
X007192Y000950*
G37*
G36*
X006750D02*
X006408D01*
X006415Y000897*
X006455Y000801*
X006518Y000718*
X006601Y000655*
X006697Y000615*
X006750Y000608*
Y000950*
G37*
G36*
X000395Y005395D02*
X-000395D01*
Y004605*
X000395*
Y005395*
G37*
G36*
X003329Y011761D02*
X002987D01*
Y011419*
X003040Y011426*
X003136Y011466*
X003219Y011529*
X003282Y011612*
X003322Y011708*
X003329Y011761*
G37*
G36*
X002887D02*
X002545D01*
X002552Y011708*
X002592Y011612*
X002655Y011529*
X002738Y011466*
X002834Y011426*
X002887Y011419*
Y011761*
G37*
G36*
X004329D02*
X003987D01*
Y011419*
X004040Y011426*
X004136Y011466*
X004219Y011529*
X004282Y011612*
X004322Y011708*
X004329Y011761*
G37*
G36*
X003887D02*
X003545D01*
X003552Y011708*
X003592Y011612*
X003655Y011529*
X003738Y011466*
X003834Y011426*
X003887Y011419*
Y011761*
G37*
G36*
X002332D02*
X001987D01*
Y011416*
X002332*
Y011761*
G37*
G36*
Y010376D02*
X001542D01*
Y009586*
X002332*
Y010376*
G37*
G36*
X004937Y010380D02*
X004834Y010366D01*
X004738Y010326*
X004655Y010263*
X004592Y010180*
X004552Y010084*
X004538Y009981*
X004552Y009878*
X004592Y009782*
X004655Y009699*
X004738Y009636*
X004834Y009596*
X004937Y009582*
X005040Y009596*
X005136Y009636*
X005219Y009699*
X005282Y009782*
X005322Y009878*
X005336Y009981*
X005322Y010084*
X005282Y010180*
X005219Y010263*
X005136Y010326*
X005040Y010366*
X004937Y010380*
G37*
G36*
X001887Y011761D02*
X001542D01*
Y011416*
X001887*
Y011761*
G37*
G36*
X000000Y011914D02*
X-000170Y011901D01*
X-000336Y011861*
X-000494Y011796*
X-000639Y011707*
X-000769Y011596*
X-000880Y011466*
X-000969Y011321*
X-001034Y011163*
X-001074Y010997*
X-001088Y010827*
X-001074Y010657*
X-001034Y010491*
X-000969Y010333*
X-000880Y010187*
X-000769Y010058*
X-000639Y009947*
X-000494Y009858*
X-000336Y009792*
X-000170Y009753*
X000000Y009739*
X000170Y009753*
X000336Y009792*
X000494Y009858*
X000639Y009947*
X000769Y010058*
X000880Y010187*
X000969Y010333*
X001034Y010491*
X001074Y010657*
X001088Y010827*
X001074Y010997*
X001034Y011163*
X000969Y011321*
X000880Y011466*
X000769Y011596*
X000639Y011707*
X000494Y011796*
X000336Y011861*
X000170Y011901*
X000000Y011914*
G37*
G36*
X004887Y011761D02*
X004545D01*
X004552Y011708*
X004592Y011612*
X004655Y011529*
X004738Y011466*
X004834Y011426*
X004887Y011419*
Y011761*
G37*
G36*
X003987Y012203D02*
Y011861D01*
X004329*
X004322Y011914*
X004282Y012010*
X004219Y012093*
X004136Y012156*
X004040Y012196*
X003987Y012203*
G37*
G36*
X003887D02*
X003834Y012196D01*
X003738Y012156*
X003655Y012093*
X003592Y012010*
X003552Y011914*
X003545Y011861*
X003887*
Y012203*
G37*
G36*
X004987D02*
Y011861D01*
X005329*
X005322Y011914*
X005282Y012010*
X005219Y012093*
X005136Y012156*
X005040Y012196*
X004987Y012203*
G37*
G36*
X004887D02*
X004834Y012196D01*
X004738Y012156*
X004655Y012093*
X004592Y012010*
X004552Y011914*
X004545Y011861*
X004887*
Y012203*
G37*
G36*
X002987D02*
Y011861D01*
X003329*
X003322Y011914*
X003282Y012010*
X003219Y012093*
X003136Y012156*
X003040Y012196*
X002987Y012203*
G37*
G36*
X001887Y012206D02*
X001542D01*
Y011861*
X001887*
Y012206*
G37*
G36*
X005329Y011761D02*
X004987D01*
Y011419*
X005040Y011426*
X005136Y011466*
X005219Y011529*
X005282Y011612*
X005322Y011708*
X005329Y011761*
G37*
G36*
X002887Y012203D02*
X002834Y012196D01*
X002738Y012156*
X002655Y012093*
X002592Y012010*
X002552Y011914*
X002545Y011861*
X002887*
Y012203*
G37*
G36*
X002332Y012206D02*
X001987D01*
Y011861*
X002332*
Y012206*
G37*
G36*
X003937Y010380D02*
X003834Y010366D01*
X003738Y010326*
X003655Y010263*
X003592Y010180*
X003552Y010084*
X003538Y009981*
X003552Y009878*
X003592Y009782*
X003655Y009699*
X003738Y009636*
X003834Y009596*
X003937Y009582*
X004040Y009596*
X004136Y009636*
X004219Y009699*
X004282Y009782*
X004322Y009878*
X004336Y009981*
X004322Y010084*
X004282Y010180*
X004219Y010263*
X004136Y010326*
X004040Y010366*
X003937Y010380*
G37*
G36*
X008809Y007544D02*
X008426D01*
Y007162*
X008809*
Y007544*
G37*
G36*
X000050Y007392D02*
Y007050D01*
X000392*
X000385Y007103*
X000345Y007199*
X000282Y007282*
X000199Y007345*
X000103Y007385*
X000050Y007392*
G37*
G36*
X000000Y008399D02*
X-000103Y008385D01*
X-000199Y008345*
X-000282Y008282*
X-000345Y008199*
X-000385Y008103*
X-000399Y008000*
X-000385Y007897*
X-000345Y007801*
X-000282Y007718*
X-000199Y007655*
X-000103Y007615*
X000000Y007601*
X000103Y007615*
X000199Y007655*
X000282Y007718*
X000345Y007801*
X000385Y007897*
X000399Y008000*
X000385Y008103*
X000345Y008199*
X000282Y008282*
X000199Y008345*
X000103Y008385*
X000000Y008399*
G37*
G36*
X009291Y007544D02*
X008909D01*
Y007162*
X009291*
Y007544*
G37*
G36*
X-000050Y007392D02*
X-000103Y007385D01*
X-000199Y007345*
X-000282Y007282*
X-000345Y007199*
X-000385Y007103*
X-000392Y007050*
X-000050*
Y007392*
G37*
G36*
Y006950D02*
X-000392D01*
X-000385Y006897*
X-000345Y006801*
X-000282Y006718*
X-000199Y006655*
X-000103Y006615*
X-000050Y006608*
Y006950*
G37*
G36*
X004332Y008546D02*
X003542D01*
Y007755*
X004044*
X005985Y005814*
X006051Y005770*
X006129Y005755*
X008515*
X008537Y005705*
X008481Y005632*
X008475Y005617*
X004860*
X004782Y005602*
X004716Y005558*
X004044Y004886*
X003542*
Y004095*
X004332*
Y004597*
X004944Y005209*
X008475*
X008481Y005195*
X008550Y005105*
X008641Y005035*
X008746Y004992*
X008859Y004977*
X008972Y004992*
X009077Y005035*
X009167Y005105*
X009237Y005195*
X009280Y005300*
X009295Y005413*
X009280Y005526*
X009237Y005632*
X009181Y005705*
X009203Y005755*
X009593*
X009599Y005740*
X009668Y005650*
X009759Y005581*
X009864Y005537*
X009977Y005522*
X010090Y005537*
X010195Y005581*
X010285Y005650*
X010355Y005740*
X010398Y005846*
X010413Y005959*
X010398Y006072*
X010355Y006177*
X010285Y006267*
X010195Y006337*
X010090Y006380*
X009977Y006395*
X009864Y006380*
X009759Y006337*
X009668Y006267*
X009599Y006177*
X009593Y006163*
X009203*
X009181Y006213*
X009237Y006286*
X009280Y006391*
X009295Y006504*
X009280Y006617*
X009237Y006722*
X009167Y006813*
X009077Y006882*
X008972Y006925*
X008859Y006940*
X008746Y006925*
X008641Y006882*
X008550Y006813*
X008481Y006722*
X008437Y006617*
X008422Y006504*
X008437Y006391*
X008481Y006286*
X008537Y006213*
X008515Y006163*
X006214*
X004332Y008044*
Y008546*
G37*
G36*
X009977Y007486D02*
X009864Y007471D01*
X009759Y007427*
X009668Y007358*
X009599Y007267*
X009555Y007162*
X009540Y007049*
X009555Y006936*
X009599Y006831*
X009668Y006741*
X009759Y006671*
X009864Y006628*
X009977Y006613*
X010090Y006628*
X010195Y006671*
X010285Y006741*
X010355Y006831*
X010398Y006936*
X010413Y007049*
X010398Y007162*
X010355Y007267*
X010285Y007358*
X010195Y007427*
X010090Y007471*
X009977Y007486*
G37*
G36*
X000392Y006950D02*
X000050D01*
Y006608*
X000103Y006615*
X000199Y006655*
X000282Y006718*
X000345Y006801*
X000385Y006897*
X000392Y006950*
G37*
G36*
X008809Y008027D02*
X008426D01*
Y007644*
X008809*
Y008027*
G37*
G36*
X000395Y009395D02*
X-000395D01*
Y008605*
X000395*
Y009395*
G37*
G36*
X001987Y008543D02*
Y008201D01*
X002329*
X002322Y008254*
X002282Y008350*
X002219Y008433*
X002136Y008496*
X002040Y008536*
X001987Y008543*
G37*
G36*
X002937Y010380D02*
X002834Y010366D01*
X002738Y010326*
X002655Y010263*
X002592Y010180*
X002552Y010084*
X002538Y009981*
X002552Y009878*
X002592Y009782*
X002655Y009699*
X002738Y009636*
X002834Y009596*
X002937Y009582*
X003040Y009596*
X003136Y009636*
X003219Y009699*
X003282Y009782*
X003322Y009878*
X003336Y009981*
X003322Y010084*
X003282Y010180*
X003219Y010263*
X003136Y010326*
X003040Y010366*
X002937Y010380*
G37*
G36*
X009418Y011373D02*
X009255Y011360D01*
X009096Y011322*
X008946Y011260*
X008806Y011174*
X008682Y011068*
X008576Y010944*
X008491Y010805*
X008429Y010654*
X008390Y010495*
X008378Y010333*
X008390Y010170*
X008429Y010011*
X008491Y009860*
X008576Y009721*
X008682Y009597*
X008806Y009491*
X008946Y009406*
X009096Y009343*
X009255Y009305*
X009418Y009292*
X009581Y009305*
X009739Y009343*
X009890Y009406*
X010029Y009491*
X010153Y009597*
X010259Y009721*
X010345Y009860*
X010407Y010011*
X010445Y010170*
X010458Y010333*
X010445Y010495*
X010407Y010654*
X010345Y010805*
X010259Y010944*
X010153Y011068*
X010029Y011174*
X009890Y011260*
X009739Y011322*
X009581Y011360*
X009418Y011373*
G37*
G36*
X001887Y008543D02*
X001834Y008536D01*
X001738Y008496*
X001655Y008433*
X001592Y008350*
X001552Y008254*
X001545Y008201*
X001887*
Y008543*
G37*
G36*
X002937Y008549D02*
X002834Y008536D01*
X002738Y008496*
X002655Y008433*
X002592Y008350*
X002552Y008254*
X002538Y008151*
X002552Y008048*
X002592Y007951*
X002655Y007869*
X002738Y007805*
X002834Y007766*
X002937Y007752*
X003040Y007766*
X003136Y007805*
X003219Y007869*
X003282Y007951*
X003322Y008048*
X003336Y008151*
X003322Y008254*
X003282Y008350*
X003219Y008433*
X003136Y008496*
X003040Y008536*
X002937Y008549*
G37*
G36*
X009291Y008027D02*
X008909D01*
Y007644*
X009291*
Y008027*
G37*
G36*
X002329Y008101D02*
X001987D01*
Y007759*
X002040Y007766*
X002136Y007805*
X002219Y007869*
X002282Y007951*
X002322Y008048*
X002329Y008101*
G37*
G36*
X001887D02*
X001545D01*
X001552Y008048*
X001592Y007951*
X001655Y007869*
X001738Y007805*
X001834Y007766*
X001887Y007759*
Y008101*
G37*
%LNdistro_layout_b-3*%
%LPD*%
G54D15*
X004860Y005413D02*
X008859D01*
X003937Y004490D02*
X004860Y005413D01*
X006129Y005959D02*
X009977D01*
X003937Y008151D02*
X006129Y005959D01*
G54D16*
X009418Y000494D03*
Y010333D03*
G54D17*
X008859Y007594D03*
G54D18*
X009977Y007049D03*
X008859Y006504D03*
X009977Y005959D03*
X008859Y005413D03*
X009977Y004868D03*
X008859Y004323D03*
X009977Y003778D03*
X008859Y003232D03*
G54D19*
X000000Y002000D03*
Y003000D03*
Y004000D03*
X004937Y000830D03*
X003937D03*
X002937D03*
X004937Y-001000D03*
X003937D03*
X002937D03*
Y008151D03*
X001937D03*
X002937Y004490D03*
X001937D03*
X000000Y008000D03*
Y007000D03*
X004937Y009981D03*
X003937D03*
X002937D03*
X006800Y002000D03*
Y001000D03*
Y000000D03*
X004937Y011811D03*
X003937D03*
X002937D03*
G54D20*
X000000Y005000D03*
Y009000D03*
X006800Y-001000D03*
G54D21*
X001937Y000830D03*
Y-001000D03*
X003937Y008151D03*
Y004490D03*
X001937Y009981D03*
Y011811D03*
G54D22*
X000000Y000000D03*
Y010827D03*
M02*