%FSDAX24Y24*%
%MOIN*%
%SFA1B1*%

%IPPOS*%
%ADD23C,0.007900*%
%ADD24C,0.010000*%
%ADD25C,0.005900*%
%ADD26C,0.005000*%
%LNdistro_layout_b-1*%
%LPD*%
G54D23*
X015247Y001925D02*
D01*
D01*
G75*
G03X015520Y002199I0J272D01*
G74*G01*
X013434Y001923D02*
D01*
D01*
G75*
G03X013160Y001650I0J-274D01*
G74*G01*
X015520Y008628D02*
D01*
D01*
G75*
G03X015247Y008902I-274J0D01*
G74*G01*
X013160Y009177D02*
D01*
D01*
G75*
G03X013434Y008904I272J0D01*
G74*G01*
X001493Y001817D02*
X001807D01*
X001493Y002408D02*
X001807D01*
X001493Y002705D02*
X001807D01*
X001493Y003295D02*
X001807D01*
X013434Y001923D02*
X015245D01*
X013434Y008904D02*
X015245D01*
X008276Y008169D02*
X011977D01*
X013158Y-000650D02*
Y011476D01*
X008276Y002657D02*
X011977D01*
X008276Y-000650D02*
Y011476D01*
X015520Y002199D02*
Y008628D01*
X008276Y011476D02*
X013158D01*
X008276Y-000650D02*
X013158D01*
X011977D02*
Y011476D01*
X-000500Y005500D02*
X000500D01*
Y001500D02*
Y005500D01*
X-000500Y001500D02*
Y005500D01*
Y001500D02*
X000500D01*
X002974Y005780D02*
Y006094D01*
X002384Y005780D02*
Y006094D01*
X002087Y005780D02*
Y006094D01*
X001496Y005780D02*
Y006094D01*
X005921Y005438D02*
X006079D01*
X005921Y005162D02*
X006079D01*
X005921Y003879D02*
X006079D01*
X005921Y004155D02*
X006079D01*
X005921Y003582D02*
X006079D01*
X005921Y003307D02*
X006079D01*
X001437Y000330D02*
Y001330D01*
X005437*
X001437Y000330D02*
X005437D01*
Y001330*
X001437Y-001500D02*
Y-000500D01*
X005437*
X001437Y-001500D02*
X005437D01*
Y-000500*
X001437Y008651D02*
X004437D01*
X001437Y007651D02*
Y008651D01*
Y007651D02*
X004437D01*
Y008651*
X001437Y004990D02*
X004437D01*
X001437Y003990D02*
Y004990D01*
Y003990D02*
X004437D01*
Y004990*
X-000500Y006500D02*
Y009500D01*
Y006500D02*
X000500D01*
Y009500*
X-000500D02*
X000500D01*
X001437Y009481D02*
Y010481D01*
X005437*
X001437Y009481D02*
X005437D01*
Y010481*
X006300Y-001500D02*
X007300D01*
X006300D02*
Y002500D01*
X007300Y-001500D02*
Y002500D01*
X006300D02*
X007300D01*
X001437Y011311D02*
Y012311D01*
X005437*
X001437Y011311D02*
X005437D01*
Y012311*
G54D24*
X006550Y011850D02*
Y012300D01*
X006700Y012150*
X006850Y012300*
Y011850*
X007300Y012300D02*
X007000D01*
Y011850*
X007300*
X007000Y012075D02*
X007150D01*
X007450Y012300D02*
X007750D01*
X007600*
Y011850*
X007900D02*
Y012300D01*
X008124*
X008199Y012225*
Y012075*
X008124Y012000*
X007900*
X008050D02*
X008199Y011850D01*
X008574D02*
Y012300D01*
X008349Y012075*
X008649*
X008799Y012225D02*
X008874Y012300D01*
X009024*
X009099Y012225*
Y012150*
X009024Y012075*
X009099Y012000*
Y011925*
X009024Y011850*
X008874*
X008799Y011925*
Y012000*
X008874Y012075*
X008799Y012150*
Y012225*
X008874Y012075D02*
X009024D01*
X009249Y011850D02*
X009399D01*
X009324*
Y012300*
X009249Y012225*
X009624D02*
X009699Y012300D01*
X009849*
X009924Y012225*
Y011925*
X009849Y011850*
X009699*
X009624Y011925*
Y012225*
X010524Y012300D02*
X010824D01*
X010674*
Y011850*
X011273Y012300D02*
X010974D01*
Y011850*
X011273*
X010974Y012075D02*
X011124D01*
X011423Y011850D02*
Y012150D01*
X011573Y012300*
X011723Y012150*
Y011850*
Y012075*
X011423*
X011873Y011850D02*
Y012300D01*
X012023Y012150*
X012173Y012300*
Y011850*
X012773D02*
X012923D01*
X012848*
Y012300*
X012773Y012225*
X013148D02*
X013223Y012300D01*
X013373*
X013448Y012225*
Y011925*
X013373Y011850*
X013223*
X013148Y011925*
Y012225*
G54D25*
X011790Y006852D02*
X011691Y007049D01*
X011494Y007246*
X011298*
X011199Y007148*
Y006951*
X011298Y006852*
X011396*
X011494Y006951*
Y007246*
X011298Y003974D02*
X011199Y003876D01*
Y003679*
X011298Y003581*
X011691*
X011790Y003679*
Y003876*
X011691Y003974*
X011593*
X011494Y003876*
Y003581*
X008089Y003036D02*
Y003429D01*
X007794*
X007892Y003232*
Y003134*
X007794Y003036*
X007597*
X007499Y003134*
Y003331*
X007597Y003429*
X007499Y007693D02*
Y007496D01*
Y007595*
X008089*
X007990Y007693*
G54D26*
X-000950Y002500D02*
X-001000Y002550D01*
Y002650*
X-000950Y002700*
X-000750*
X-000700Y002650*
Y002550*
X-000750Y002500*
X-000950*
X-000850Y002800D02*
Y003000D01*
X-001000Y003100D02*
X-000700D01*
Y003250*
X-000750Y003300*
X-000800*
X-000850Y003250*
Y003100*
Y003250*
X-000900Y003300*
X-000950*
X-001000Y003250*
Y003100*
X-000850Y003400D02*
Y003600D01*
X-000950Y003700D02*
X-001000Y003750D01*
Y003850*
X-000950Y003900*
X-000750*
X-000700Y003850*
Y003750*
X-000750Y003700*
X-000950*
X-000850Y004000D02*
Y004200D01*
X-001000Y004500D02*
Y004300D01*
X-000850*
X-000900Y004400*
Y004450*
X-000850Y004500*
X-000750*
X-000700Y004450*
Y004350*
X-000750Y004300*
X005800Y-000500D02*
X006100D01*
Y-000350*
X006050Y-000300*
X006000*
X005950Y-000350*
Y-000500*
Y-000350*
X005900Y-000300*
X005850*
X005800Y-000350*
Y-000500*
X005950Y-000200D02*
Y000000D01*
X005800Y000100D02*
X006100D01*
Y000250*
X006050Y000300*
X006000*
X005950Y000250*
Y000100*
Y000250*
X005900Y000300*
X005850*
X005800Y000250*
Y000100*
X005950Y000400D02*
Y000600D01*
X005850Y000700D02*
X005800Y000750D01*
Y000850*
X005850Y000900*
X006050*
X006100Y000850*
Y000750*
X006050Y000700*
X005850*
X005950Y001000D02*
Y001200D01*
X005850Y001300D02*
X005800Y001350D01*
Y001450*
X005850Y001500*
X006050*
X006100Y001450*
Y001350*
X006050Y001300*
X005850*
X-000950Y007025D02*
X-001000Y007075D01*
Y007175*
X-000950Y007225*
X-000750*
X-000700Y007175*
Y007075*
X-000750Y007025*
X-000950*
X-000850Y007325D02*
Y007525D01*
X-001000Y007625D02*
X-000700D01*
Y007775*
X-000750Y007825*
X-000800*
X-000850Y007775*
Y007625*
Y007775*
X-000900Y007825*
X-000950*
X-001000Y007775*
Y007625*
X-000850Y007925D02*
Y008125D01*
X-000950Y008425D02*
X-001000Y008375D01*
Y008275*
X-000950Y008225*
X-000900*
X-000850Y008275*
Y008375*
X-000800Y008425*
X-000750*
X-000700Y008375*
Y008275*
X-000750Y008225*
X-001000Y008525D02*
Y008625D01*
Y008575*
X-000700*
Y008525*
Y008625*
X-000950Y008975D02*
X-001000Y008925D01*
Y008825*
X-000950Y008775*
X-000750*
X-000700Y008825*
Y008925*
X-000750Y008975*
X-000850*
Y008875*
X002437Y011050D02*
X002487Y011100D01*
X002587*
X002637Y011050*
Y010850*
X002587Y010800*
X002487*
X002437Y010850*
Y011050*
X002737Y010950D02*
X002937D01*
X003037Y011050D02*
X003087Y011100D01*
X003187*
X003237Y011050*
Y010850*
X003187Y010800*
X003087*
X003037Y010850*
Y011050*
X003337Y010950D02*
X003537D01*
X003637Y011050D02*
X003687Y011100D01*
X003787*
X003837Y011050*
Y010850*
X003787Y010800*
X003687*
X003637Y010850*
Y011050*
X003937Y010950D02*
X004137D01*
X004237Y011050D02*
X004287Y011100D01*
X004387*
X004437Y011050*
Y010850*
X004387Y010800*
X004287*
X004237Y010850*
Y011050*
X002437Y009300D02*
Y009000D01*
X002587*
X002637Y009050*
Y009100*
X002587Y009150*
X002437*
X002587*
X002637Y009200*
Y009250*
X002587Y009300*
X002437*
X002737Y009150D02*
X002937D01*
X003037Y009300D02*
Y009000D01*
X003187*
X003237Y009050*
Y009100*
X003187Y009150*
X003037*
X003187*
X003237Y009200*
Y009250*
X003187Y009300*
X003037*
X003337Y009150D02*
X003537D01*
X003637Y009300D02*
Y009000D01*
X003787*
X003837Y009050*
Y009100*
X003787Y009150*
X003637*
X003787*
X003837Y009200*
Y009250*
X003787Y009300*
X003637*
X003937Y009150D02*
X004137D01*
X004237Y009300D02*
Y009000D01*
X004387*
X004437Y009050*
Y009100*
X004387Y009150*
X004237*
X004387*
X004437Y009200*
Y009250*
X004387Y009300*
X004237*
X001937Y003750D02*
X001987Y003800D01*
X002087*
X002137Y003750*
Y003550*
X002087Y003500*
X001987*
X001937Y003550*
Y003750*
X002237Y003650D02*
X002437D01*
X002737Y003800D02*
X002537D01*
Y003650*
X002637Y003700*
X002687*
X002737Y003650*
Y003550*
X002687Y003500*
X002587*
X002537Y003550*
X002837Y003650D02*
X003037D01*
X003137Y003500D02*
Y003800D01*
X003287*
X003337Y003750*
Y003650*
X003287Y003600*
X003137*
X003437Y003800D02*
Y003500D01*
X003537Y003600*
X003637Y003500*
Y003800*
X003737Y003500D02*
Y003800D01*
X003837Y003700*
X003937Y003800*
Y003500*
X001888Y-000250D02*
X001987D01*
X001937*
Y000050*
X001888Y000000*
X002137Y-000250D02*
Y-000050D01*
X002237Y000050*
X002337Y-000050*
Y-000250*
Y-000100*
X002137*
X002437D02*
X002637D01*
X002737Y-000250D02*
X002837D01*
X002787*
Y000050*
X002737Y000000*
X002987Y000050D02*
Y-000250D01*
X003137*
X003187Y-000200*
Y-000150*
X003137Y-000100*
X002987*
X003137*
X003187Y-000050*
Y000000*
X003137Y000050*
X002987*
X003287Y-000100D02*
X003487D01*
X003787Y-000250D02*
X003587D01*
X003787Y-000050*
Y000000*
X003737Y000050*
X003637*
X003587Y000000*
X003887Y-000250D02*
Y-000050D01*
X003987Y000050*
X004087Y-000050*
Y-000250*
Y-000100*
X003887*
X004187D02*
X004387D01*
X004687Y-000250D02*
X004487D01*
X004687Y-000050*
Y000000*
X004637Y000050*
X004537*
X004487Y000000*
X004787Y000050D02*
Y-000250D01*
X004937*
X004987Y-000200*
Y-000150*
X004937Y-000100*
X004787*
X004937*
X004987Y-000050*
Y000000*
X004937Y000050*
X004787*
X005300Y004600D02*
X005250D01*
Y004650*
X005300*
Y004600*
X001937Y007400D02*
X001987Y007450D01*
X002087*
X002137Y007400*
Y007200*
X002087Y007150*
X001987*
X001937Y007200*
Y007400*
X002237Y007300D02*
X002437D01*
X002737Y007450D02*
X002537D01*
Y007300*
X002637Y007350*
X002687*
X002737Y007300*
Y007200*
X002687Y007150*
X002587*
X002537Y007200*
X002837Y007300D02*
X003037D01*
X003137Y007150D02*
Y007450D01*
X003287*
X003337Y007400*
Y007300*
X003287Y007250*
X003137*
X003437Y007450D02*
Y007150D01*
X003537Y007250*
X003637Y007150*
Y007450*
X003737Y007150D02*
Y007450D01*
X003837Y007350*
X003937Y007450*
Y007150*
M02*