G04 Layer_Physical_Order=2*
G04 Layer_Color=16711680*
%FSLAX24Y24*%
%MOIN*%
G70*
G01*
G75*
%ADD19C,0.0200*%
%ADD20C,0.0100*%
%ADD21C,0.0400*%
%ADD22C,0.0591*%
%ADD23R,0.0591X0.0591*%
%ADD24R,0.0591X0.0591*%
%ADD25C,0.1890*%
%ADD26C,0.0665*%
%ADD27R,0.0665X0.0665*%
%ADD28C,0.0500*%
%ADD29C,0.1969*%
G36*
X241Y23983D02*
X479Y23936D01*
X708Y23858D01*
X924Y23751D01*
X1126Y23617D01*
X1307Y23457D01*
X1467Y23276D01*
X1601Y23074D01*
X1708Y22858D01*
X1786Y22629D01*
X1833Y22391D01*
X1848Y22157D01*
X1847Y22150D01*
Y0D01*
X1848Y-7D01*
X1833Y-241D01*
X1786Y-479D01*
X1708Y-708D01*
X1601Y-924D01*
X1467Y-1126D01*
X1307Y-1307D01*
X1126Y-1467D01*
X924Y-1601D01*
X708Y-1708D01*
X479Y-1786D01*
X241Y-1833D01*
X7Y-1848D01*
X0Y-1847D01*
X-20000D01*
X-20007Y-1848D01*
X-20241Y-1833D01*
X-20479Y-1786D01*
X-20708Y-1708D01*
X-20924Y-1601D01*
X-21126Y-1467D01*
X-21307Y-1307D01*
X-21467Y-1126D01*
X-21601Y-924D01*
X-21708Y-708D01*
X-21786Y-479D01*
X-21833Y-241D01*
X-21848Y-7D01*
X-21847Y0D01*
Y22150D01*
X-21848Y22157D01*
X-21833Y22391D01*
X-21786Y22629D01*
X-21708Y22858D01*
X-21601Y23074D01*
X-21467Y23276D01*
X-21307Y23457D01*
X-21126Y23617D01*
X-20924Y23751D01*
X-20708Y23858D01*
X-20479Y23936D01*
X-20241Y23983D01*
X-20007Y23998D01*
X-20000Y23997D01*
X0D01*
X7Y23998D01*
X241Y23983D01*
D02*
G37*
%LPC*%
G36*
X-1001Y7860D02*
X-1114Y7845D01*
X-1219Y7802D01*
X-1309Y7732D01*
X-1379Y7642D01*
X-1422Y7537D01*
X-1437Y7424D01*
X-1422Y7311D01*
X-1379Y7205D01*
X-1309Y7115D01*
X-1219Y7046D01*
X-1114Y7002D01*
X-1001Y6987D01*
X-888Y7002D01*
X-783Y7046D01*
X-692Y7115D01*
X-623Y7205D01*
X-579Y7311D01*
X-564Y7424D01*
X-579Y7537D01*
X-623Y7642D01*
X-692Y7732D01*
X-783Y7802D01*
X-888Y7845D01*
X-1001Y7860D01*
D02*
G37*
G36*
X-568Y6766D02*
X-951D01*
Y6383D01*
X-568D01*
Y6766D01*
D02*
G37*
G36*
X-1051D02*
X-1433D01*
Y6383D01*
X-1051D01*
Y6766D01*
D02*
G37*
G36*
X-1001Y11132D02*
X-1114Y11117D01*
X-1219Y11073D01*
X-1309Y11004D01*
X-1379Y10913D01*
X-1422Y10808D01*
X-1437Y10695D01*
X-1422Y10582D01*
X-1379Y10477D01*
X-1309Y10387D01*
X-1219Y10317D01*
X-1114Y10274D01*
X-1001Y10259D01*
X-888Y10274D01*
X-783Y10317D01*
X-692Y10387D01*
X-623Y10477D01*
X-579Y10582D01*
X-564Y10695D01*
X-579Y10808D01*
X-623Y10913D01*
X-692Y11004D01*
X-783Y11073D01*
X-888Y11117D01*
X-1001Y11132D01*
D02*
G37*
G36*
Y8951D02*
X-1114Y8936D01*
X-1219Y8892D01*
X-1309Y8823D01*
X-1379Y8732D01*
X-1422Y8627D01*
X-1437Y8514D01*
X-1422Y8401D01*
X-1379Y8296D01*
X-1309Y8206D01*
X-1219Y8136D01*
X-1114Y8093D01*
X-1001Y8078D01*
X-888Y8093D01*
X-783Y8136D01*
X-692Y8206D01*
X-623Y8296D01*
X-579Y8401D01*
X-564Y8514D01*
X-579Y8627D01*
X-623Y8732D01*
X-692Y8823D01*
X-783Y8892D01*
X-888Y8936D01*
X-1001Y8951D01*
D02*
G37*
G36*
X-2119Y8405D02*
X-2232Y8390D01*
X-2337Y8347D01*
X-2427Y8277D01*
X-2497Y8187D01*
X-2540Y8082D01*
X-2555Y7969D01*
X-2540Y7856D01*
X-2497Y7751D01*
X-2427Y7660D01*
X-2337Y7591D01*
X-2232Y7547D01*
X-2119Y7532D01*
X-2006Y7547D01*
X-1901Y7591D01*
X-1810Y7660D01*
X-1741Y7751D01*
X-1697Y7856D01*
X-1682Y7969D01*
X-1697Y8082D01*
X-1741Y8187D01*
X-1810Y8277D01*
X-1901Y8347D01*
X-2006Y8390D01*
X-2119Y8405D01*
D02*
G37*
G36*
X-14200Y3624D02*
Y3328D01*
X-13904D01*
X-13909Y3369D01*
X-13944Y3454D01*
X-14000Y3527D01*
X-14073Y3583D01*
X-14159Y3619D01*
X-14200Y3624D01*
D02*
G37*
G36*
X-14300D02*
X-14341Y3619D01*
X-14427Y3583D01*
X-14500Y3527D01*
X-14556Y3454D01*
X-14591Y3369D01*
X-14596Y3328D01*
X-14300D01*
Y3624D01*
D02*
G37*
G36*
X-9532Y3228D02*
X-9828D01*
Y2931D01*
X-9787Y2937D01*
X-9702Y2972D01*
X-9629Y3028D01*
X-9573Y3101D01*
X-9537Y3186D01*
X-9532Y3228D01*
D02*
G37*
G36*
X-1051Y6283D02*
X-1433D01*
Y5900D01*
X-1051D01*
Y6283D01*
D02*
G37*
G36*
X-9828Y3624D02*
Y3328D01*
X-9532D01*
X-9537Y3369D01*
X-9573Y3454D01*
X-9629Y3527D01*
X-9702Y3583D01*
X-9787Y3619D01*
X-9828Y3624D01*
D02*
G37*
G36*
X-9928D02*
X-9970Y3619D01*
X-10055Y3583D01*
X-10128Y3527D01*
X-10184Y3454D01*
X-10219Y3369D01*
X-10225Y3328D01*
X-9928D01*
Y3624D01*
D02*
G37*
G36*
X-19750Y11546D02*
Y11250D01*
X-19454D01*
X-19459Y11291D01*
X-19494Y11377D01*
X-19550Y11450D01*
X-19623Y11506D01*
X-19709Y11541D01*
X-19750Y11546D01*
D02*
G37*
G36*
X-19850D02*
X-19891Y11541D01*
X-19977Y11506D01*
X-20050Y11450D01*
X-20106Y11377D01*
X-20141Y11291D01*
X-20146Y11250D01*
X-19850D01*
Y11546D01*
D02*
G37*
G36*
X-18185Y11186D02*
X-18482D01*
Y10889D01*
X-18440Y10895D01*
X-18355Y10930D01*
X-18282Y10986D01*
X-18226Y11059D01*
X-18191Y11144D01*
X-18185Y11186D01*
D02*
G37*
G36*
X-18582Y11582D02*
X-18623Y11577D01*
X-18708Y11542D01*
X-18781Y11485D01*
X-18837Y11412D01*
X-18873Y11327D01*
X-18878Y11286D01*
X-18582D01*
Y11582D01*
D02*
G37*
G36*
X-17250Y11546D02*
Y11250D01*
X-16954D01*
X-16959Y11291D01*
X-16994Y11377D01*
X-17050Y11450D01*
X-17123Y11506D01*
X-17209Y11541D01*
X-17250Y11546D01*
D02*
G37*
G36*
X-17350D02*
X-17391Y11541D01*
X-17477Y11506D01*
X-17550Y11450D01*
X-17606Y11377D01*
X-17641Y11291D01*
X-17646Y11250D01*
X-17350D01*
Y11546D01*
D02*
G37*
G36*
X-19454Y11150D02*
X-19750D01*
Y10854D01*
X-19709Y10859D01*
X-19623Y10894D01*
X-19550Y10950D01*
X-19494Y11023D01*
X-19459Y11109D01*
X-19454Y11150D01*
D02*
G37*
G36*
X-19850D02*
X-20146D01*
X-20141Y11109D01*
X-20106Y11023D01*
X-20050Y10950D01*
X-19977Y10894D01*
X-19891Y10859D01*
X-19850Y10854D01*
Y11150D01*
D02*
G37*
G36*
X-2119Y11677D02*
X-2232Y11662D01*
X-2337Y11618D01*
X-2427Y11549D01*
X-2497Y11459D01*
X-2540Y11353D01*
X-2555Y11241D01*
X-2540Y11128D01*
X-2497Y11022D01*
X-2427Y10932D01*
X-2337Y10863D01*
X-2232Y10819D01*
X-2119Y10804D01*
X-2006Y10819D01*
X-1901Y10863D01*
X-1810Y10932D01*
X-1741Y11022D01*
X-1697Y11128D01*
X-1682Y11241D01*
X-1697Y11353D01*
X-1741Y11459D01*
X-1810Y11549D01*
X-1901Y11618D01*
X-2006Y11662D01*
X-2119Y11677D01*
D02*
G37*
G36*
X-18582Y11186D02*
X-18878D01*
X-18873Y11144D01*
X-18837Y11059D01*
X-18781Y10986D01*
X-18708Y10930D01*
X-18623Y10895D01*
X-18582Y10889D01*
Y11186D01*
D02*
G37*
G36*
X-16954Y11150D02*
X-17250D01*
Y10854D01*
X-17209Y10859D01*
X-17123Y10894D01*
X-17050Y10950D01*
X-16994Y11023D01*
X-16959Y11109D01*
X-16954Y11150D01*
D02*
G37*
G36*
X-17350D02*
X-17646D01*
X-17641Y11109D01*
X-17606Y11023D01*
X-17550Y10950D01*
X-17477Y10894D01*
X-17391Y10859D01*
X-17350Y10854D01*
Y11150D01*
D02*
G37*
G36*
X-17450Y800D02*
X-17746D01*
X-17741Y759D01*
X-17706Y673D01*
X-17650Y600D01*
X-17577Y544D01*
X-17491Y509D01*
X-17450Y504D01*
Y800D01*
D02*
G37*
G36*
X-19554D02*
X-19850D01*
Y504D01*
X-19809Y509D01*
X-19723Y544D01*
X-19650Y600D01*
X-19594Y673D01*
X-19559Y759D01*
X-19554Y800D01*
D02*
G37*
G36*
X-19950D02*
X-20246D01*
X-20241Y759D01*
X-20206Y673D01*
X-20150Y600D01*
X-20077Y544D01*
X-19991Y509D01*
X-19950Y504D01*
Y800D01*
D02*
G37*
G36*
X-18285Y836D02*
X-18582D01*
Y539D01*
X-18540Y545D01*
X-18455Y580D01*
X-18382Y636D01*
X-18326Y709D01*
X-18291Y794D01*
X-18285Y836D01*
D02*
G37*
G36*
X-18682D02*
X-18978D01*
X-18973Y794D01*
X-18937Y709D01*
X-18881Y636D01*
X-18808Y580D01*
X-18723Y545D01*
X-18682Y539D01*
Y836D01*
D02*
G37*
G36*
X-17054Y800D02*
X-17350D01*
Y504D01*
X-17309Y509D01*
X-17223Y544D01*
X-17150Y600D01*
X-17094Y673D01*
X-17059Y759D01*
X-17054Y800D01*
D02*
G37*
G36*
X-8054Y-495D02*
X-8350D01*
Y-791D01*
X-8309Y-786D01*
X-8223Y-751D01*
X-8150Y-695D01*
X-8094Y-621D01*
X-8059Y-536D01*
X-8054Y-495D01*
D02*
G37*
G36*
X-8450D02*
X-8746D01*
X-8741Y-536D01*
X-8706Y-621D01*
X-8650Y-695D01*
X-8577Y-751D01*
X-8491Y-786D01*
X-8450Y-791D01*
Y-495D01*
D02*
G37*
G36*
X0Y1088D02*
X-170Y1074D01*
X-336Y1034D01*
X-494Y969D01*
X-639Y880D01*
X-769Y769D01*
X-880Y639D01*
X-969Y494D01*
X-1034Y336D01*
X-1074Y170D01*
X-1088Y0D01*
X-1074Y-170D01*
X-1034Y-336D01*
X-969Y-494D01*
X-880Y-639D01*
X-769Y-769D01*
X-639Y-880D01*
X-494Y-969D01*
X-336Y-1034D01*
X-170Y-1074D01*
X0Y-1088D01*
X170Y-1074D01*
X336Y-1034D01*
X494Y-969D01*
X639Y-880D01*
X769Y-769D01*
X880Y-639D01*
X969Y-494D01*
X1034Y-336D01*
X1074Y-170D01*
X1088Y0D01*
X1074Y170D01*
X1034Y336D01*
X969Y494D01*
X880Y639D01*
X769Y769D01*
X639Y880D01*
X494Y969D01*
X336Y1034D01*
X170Y1074D01*
X0Y1088D01*
D02*
G37*
G36*
X-2229Y505D02*
X-2572D01*
Y163D01*
X-2518Y170D01*
X-2422Y210D01*
X-2340Y273D01*
X-2276Y356D01*
X-2236Y452D01*
X-2229Y505D01*
D02*
G37*
G36*
X-2672D02*
X-3014D01*
X-3007Y452D01*
X-2967Y356D01*
X-2903Y273D01*
X-2821Y210D01*
X-2725Y170D01*
X-2672Y163D01*
Y505D01*
D02*
G37*
G36*
X-8450Y-98D02*
X-8491Y-104D01*
X-8577Y-139D01*
X-8650Y-195D01*
X-8706Y-268D01*
X-8741Y-354D01*
X-8746Y-395D01*
X-8450D01*
Y-98D01*
D02*
G37*
G36*
X-1560Y4639D02*
X-1724Y4626D01*
X-1884Y4588D01*
X-2036Y4525D01*
X-2176Y4439D01*
X-2301Y4332D01*
X-2408Y4207D01*
X-2494Y4067D01*
X-2557Y3915D01*
X-2595Y3755D01*
X-2608Y3591D01*
X-2595Y3427D01*
X-2557Y3267D01*
X-2494Y3115D01*
X-2408Y2975D01*
X-2301Y2850D01*
X-2176Y2743D01*
X-2036Y2657D01*
X-1884Y2594D01*
X-1724Y2556D01*
X-1560Y2543D01*
X-1396Y2556D01*
X-1236Y2594D01*
X-1084Y2657D01*
X-944Y2743D01*
X-819Y2850D01*
X-712Y2975D01*
X-626Y3115D01*
X-563Y3267D01*
X-525Y3427D01*
X-512Y3591D01*
X-525Y3755D01*
X-563Y3915D01*
X-626Y4067D01*
X-712Y4207D01*
X-819Y4332D01*
X-944Y4439D01*
X-1084Y4525D01*
X-1236Y4588D01*
X-1396Y4626D01*
X-1560Y4639D01*
D02*
G37*
G36*
X-18582Y1232D02*
Y936D01*
X-18285D01*
X-18291Y977D01*
X-18326Y1062D01*
X-18382Y1135D01*
X-18455Y1192D01*
X-18540Y1227D01*
X-18582Y1232D01*
D02*
G37*
G36*
X-18682D02*
X-18723Y1227D01*
X-18808Y1192D01*
X-18881Y1135D01*
X-18937Y1062D01*
X-18973Y977D01*
X-18978Y936D01*
X-18682D01*
Y1232D01*
D02*
G37*
G36*
X-9928Y3228D02*
X-10225D01*
X-10219Y3186D01*
X-10184Y3101D01*
X-10128Y3028D01*
X-10055Y2972D01*
X-9970Y2937D01*
X-9928Y2931D01*
Y3228D01*
D02*
G37*
G36*
X-13904D02*
X-14200D01*
Y2931D01*
X-14159Y2937D01*
X-14073Y2972D01*
X-14000Y3028D01*
X-13944Y3101D01*
X-13909Y3186D01*
X-13904Y3228D01*
D02*
G37*
G36*
X-14300D02*
X-14596D01*
X-14591Y3186D01*
X-14556Y3101D01*
X-14500Y3028D01*
X-14427Y2972D01*
X-14341Y2937D01*
X-14300Y2931D01*
Y3228D01*
D02*
G37*
G36*
X-19950Y1196D02*
X-19991Y1191D01*
X-20077Y1156D01*
X-20150Y1100D01*
X-20206Y1027D01*
X-20241Y941D01*
X-20246Y900D01*
X-19950D01*
Y1196D01*
D02*
G37*
G36*
X-2572Y947D02*
Y605D01*
X-2229D01*
X-2236Y658D01*
X-2276Y754D01*
X-2340Y837D01*
X-2422Y900D01*
X-2518Y940D01*
X-2572Y947D01*
D02*
G37*
G36*
X-2672D02*
X-2725Y940D01*
X-2821Y900D01*
X-2903Y837D01*
X-2967Y754D01*
X-3007Y658D01*
X-3014Y605D01*
X-2672D01*
Y947D01*
D02*
G37*
G36*
X-17350Y1196D02*
Y900D01*
X-17054D01*
X-17059Y941D01*
X-17094Y1027D01*
X-17150Y1100D01*
X-17223Y1156D01*
X-17309Y1191D01*
X-17350Y1196D01*
D02*
G37*
G36*
X-17450D02*
X-17491Y1191D01*
X-17577Y1156D01*
X-17650Y1100D01*
X-17706Y1027D01*
X-17741Y941D01*
X-17746Y900D01*
X-17450D01*
Y1196D01*
D02*
G37*
G36*
X-19850D02*
Y900D01*
X-19554D01*
X-19559Y941D01*
X-19594Y1027D01*
X-19650Y1100D01*
X-19723Y1156D01*
X-19809Y1191D01*
X-19850Y1196D01*
D02*
G37*
G36*
X-14118Y22649D02*
X-14221Y22635D01*
X-14317Y22595D01*
X-14400Y22532D01*
X-14463Y22449D01*
X-14503Y22353D01*
X-14517Y22250D01*
X-14504Y22153D01*
X-15203Y21454D01*
X-19955D01*
X-20015Y21532D01*
X-20098Y21595D01*
X-20194Y21635D01*
X-20297Y21649D01*
X-20400Y21635D01*
X-20496Y21595D01*
X-20579Y21532D01*
X-20642Y21449D01*
X-20682Y21353D01*
X-20696Y21250D01*
X-20682Y21147D01*
X-20642Y21051D01*
X-20579Y20968D01*
X-20496Y20905D01*
X-20400Y20865D01*
X-20297Y20851D01*
X-20194Y20865D01*
X-20098Y20905D01*
X-20015Y20968D01*
X-19955Y21046D01*
X-15118D01*
X-15040Y21062D01*
X-14974Y21106D01*
X-14216Y21864D01*
X-14118Y21851D01*
X-14015Y21865D01*
X-13919Y21905D01*
X-13836Y21968D01*
X-13773Y22051D01*
X-13733Y22147D01*
X-13719Y22250D01*
X-13733Y22353D01*
X-13773Y22449D01*
X-13836Y22532D01*
X-13919Y22595D01*
X-14015Y22635D01*
X-14118Y22649D01*
D02*
G37*
G36*
X-10375Y23253D02*
X-11418D01*
X-11496Y23242D01*
X-11569Y23212D01*
X-11632Y23164D01*
X-11632Y23164D01*
X-12152Y22644D01*
X-12221Y22635D01*
X-12317Y22595D01*
X-12400Y22532D01*
X-12463Y22449D01*
X-12503Y22353D01*
X-12517Y22250D01*
X-12503Y22147D01*
X-12463Y22051D01*
X-12400Y21968D01*
X-12317Y21905D01*
X-12221Y21865D01*
X-12118Y21851D01*
X-12015Y21865D01*
X-11919Y21905D01*
X-11836Y21968D01*
X-11773Y22051D01*
X-11733Y22147D01*
X-11724Y22216D01*
X-11293Y22647D01*
X-10857D01*
X-10847Y22597D01*
X-10867Y22589D01*
X-10950Y22525D01*
X-11013Y22443D01*
X-11053Y22347D01*
X-11060Y22293D01*
X-10668D01*
X-10276D01*
X-10283Y22347D01*
X-10292Y22369D01*
X-10250Y22397D01*
X-10062Y22210D01*
X-10053Y22140D01*
X-10013Y22044D01*
X-9950Y21962D01*
X-9867Y21898D01*
X-9771Y21858D01*
X-9702Y21849D01*
X-9514Y21662D01*
X-9543Y21619D01*
X-9565Y21629D01*
X-9668Y21642D01*
X-9771Y21629D01*
X-9867Y21589D01*
X-9950Y21525D01*
X-10013Y21443D01*
X-10053Y21347D01*
X-10067Y21243D01*
X-10053Y21140D01*
X-10013Y21044D01*
X-9950Y20962D01*
X-9867Y20898D01*
X-9771Y20858D01*
X-9668Y20845D01*
X-9565Y20858D01*
X-9469Y20898D01*
X-9386Y20962D01*
X-9323Y21044D01*
X-9283Y21140D01*
X-9269Y21243D01*
X-9283Y21347D01*
X-9292Y21369D01*
X-9250Y21397D01*
X-2689Y14836D01*
X-2689Y14836D01*
X-2626Y14788D01*
X-2553Y14758D01*
X-2475Y14747D01*
X-925D01*
X-453Y14275D01*
Y5975D01*
X-518Y5910D01*
X-568Y5931D01*
X-568Y5936D01*
X-568Y5936D01*
X-568Y5938D01*
Y6283D01*
X-951D01*
Y5900D01*
X-606Y5900D01*
X-603D01*
D01*
X-598Y5900D01*
X-595Y5892D01*
X-578Y5850D01*
X-775Y5653D01*
X-2851D01*
X-2871Y5699D01*
X-2126Y6443D01*
X-2119Y6442D01*
X-2006Y6457D01*
X-1901Y6500D01*
X-1810Y6570D01*
X-1741Y6660D01*
X-1697Y6765D01*
X-1682Y6878D01*
X-1697Y6991D01*
X-1741Y7097D01*
X-1810Y7187D01*
X-1901Y7256D01*
X-2006Y7300D01*
X-2119Y7315D01*
X-2232Y7300D01*
X-2337Y7256D01*
X-2427Y7187D01*
X-2497Y7097D01*
X-2540Y6991D01*
X-2555Y6878D01*
X-2554Y6871D01*
X-3861Y5564D01*
X-4814Y4611D01*
X-4862Y4549D01*
X-4892Y4476D01*
X-4903Y4397D01*
Y2702D01*
X-6655Y949D01*
X-6725Y940D01*
X-6821Y900D01*
X-6903Y837D01*
X-6967Y754D01*
X-7007Y658D01*
X-7020Y555D01*
X-7007Y452D01*
X-6967Y356D01*
X-6903Y273D01*
X-6877Y253D01*
X-6894Y203D01*
X-7287D01*
X-7597Y513D01*
Y2833D01*
X-7609Y2891D01*
X-7642Y2941D01*
X-8861Y4161D01*
Y6499D01*
X-8838Y6509D01*
X-8765Y6565D01*
X-8709Y6638D01*
X-8673Y6723D01*
X-8661Y6814D01*
X-8673Y6906D01*
X-8709Y6991D01*
X-8765Y7064D01*
X-8838Y7120D01*
X-8923Y7155D01*
X-9014Y7167D01*
X-9106Y7155D01*
X-9129Y7146D01*
X-10497Y8513D01*
Y13335D01*
X-10473Y13344D01*
X-10400Y13400D01*
X-10344Y13473D01*
X-10309Y13559D01*
X-10297Y13650D01*
X-10309Y13741D01*
X-10331Y13794D01*
X-10288Y13822D01*
X-5418Y8951D01*
X-5368Y8918D01*
X-5309Y8907D01*
X-2524D01*
X-2497Y8841D01*
X-2427Y8751D01*
X-2337Y8682D01*
X-2232Y8638D01*
X-2119Y8623D01*
X-2006Y8638D01*
X-1901Y8682D01*
X-1810Y8751D01*
X-1741Y8841D01*
X-1697Y8946D01*
X-1682Y9059D01*
X-1697Y9172D01*
X-1741Y9278D01*
X-1810Y9368D01*
X-1854Y9402D01*
X-1837Y9452D01*
X-1406D01*
X-1379Y9387D01*
X-1309Y9296D01*
X-1219Y9227D01*
X-1114Y9183D01*
X-1001Y9168D01*
X-888Y9183D01*
X-783Y9227D01*
X-692Y9296D01*
X-623Y9387D01*
X-579Y9492D01*
X-564Y9605D01*
X-579Y9718D01*
X-623Y9823D01*
X-692Y9913D01*
X-783Y9983D01*
X-888Y10026D01*
X-1001Y10041D01*
X-1114Y10026D01*
X-1219Y9983D01*
X-1309Y9913D01*
X-1379Y9823D01*
X-1406Y9758D01*
X-1837D01*
X-1854Y9808D01*
X-1810Y9841D01*
X-1741Y9932D01*
X-1697Y10037D01*
X-1682Y10150D01*
X-1697Y10263D01*
X-1741Y10368D01*
X-1810Y10459D01*
X-1901Y10528D01*
X-2006Y10572D01*
X-2119Y10586D01*
X-2232Y10572D01*
X-2337Y10528D01*
X-2427Y10459D01*
X-2497Y10368D01*
X-2540Y10263D01*
X-2555Y10150D01*
X-2540Y10037D01*
X-2497Y9932D01*
X-2427Y9841D01*
X-2384Y9808D01*
X-2400Y9758D01*
X-5141D01*
X-10507Y15123D01*
X-10497Y15200D01*
X-10509Y15291D01*
X-10544Y15377D01*
X-10600Y15450D01*
X-10673Y15506D01*
X-10759Y15541D01*
X-10850Y15553D01*
X-10941Y15541D01*
X-11027Y15506D01*
X-11100Y15450D01*
X-11125Y15417D01*
X-11175D01*
X-11200Y15450D01*
X-11273Y15506D01*
X-11359Y15541D01*
X-11450Y15553D01*
X-11541Y15541D01*
X-11627Y15506D01*
X-11700Y15450D01*
X-11756Y15377D01*
X-11791Y15291D01*
X-11803Y15200D01*
X-11791Y15109D01*
X-11756Y15023D01*
X-11700Y14951D01*
Y14951D01*
X-11700Y14948D01*
X-11717Y14901D01*
X-11791Y14891D01*
X-11877Y14856D01*
X-11950Y14800D01*
X-11997Y14738D01*
X-12047Y14751D01*
Y15187D01*
X-9092Y18142D01*
X-9059Y18191D01*
X-9047Y18250D01*
Y19775D01*
X-9059Y19834D01*
X-9092Y19884D01*
X-9302Y20094D01*
X-9283Y20140D01*
X-9269Y20243D01*
X-9283Y20347D01*
X-9323Y20443D01*
X-9386Y20525D01*
X-9469Y20589D01*
X-9565Y20629D01*
X-9668Y20642D01*
X-9771Y20629D01*
X-9867Y20589D01*
X-9950Y20525D01*
X-10013Y20443D01*
X-10053Y20347D01*
X-10067Y20243D01*
X-10053Y20140D01*
X-10013Y20044D01*
X-9950Y19962D01*
X-9867Y19898D01*
X-9771Y19858D01*
X-9668Y19845D01*
X-9565Y19858D01*
X-9519Y19878D01*
X-9353Y19712D01*
Y19639D01*
X-10063D01*
Y19396D01*
X-10304D01*
X-10323Y19443D01*
X-10386Y19525D01*
X-10469Y19589D01*
X-10565Y19629D01*
X-10668Y19642D01*
X-10771Y19629D01*
X-10867Y19589D01*
X-10947Y19528D01*
X-10967Y19531D01*
X-10997Y19541D01*
Y19698D01*
X-10818Y19878D01*
X-10771Y19858D01*
X-10668Y19845D01*
X-10565Y19858D01*
X-10469Y19898D01*
X-10386Y19962D01*
X-10323Y20044D01*
X-10283Y20140D01*
X-10269Y20243D01*
X-10283Y20347D01*
X-10323Y20443D01*
X-10386Y20525D01*
X-10469Y20589D01*
X-10565Y20629D01*
X-10668Y20642D01*
X-10771Y20629D01*
X-10867Y20589D01*
X-10950Y20525D01*
X-11013Y20443D01*
X-11053Y20347D01*
X-11067Y20243D01*
X-11053Y20140D01*
X-11034Y20094D01*
X-11258Y19870D01*
X-11291Y19820D01*
X-11303Y19762D01*
Y16646D01*
X-12858Y15091D01*
X-12891Y15041D01*
X-12903Y14983D01*
Y10865D01*
X-12927Y10856D01*
X-13000Y10800D01*
X-13056Y10727D01*
X-13091Y10641D01*
X-13103Y10550D01*
X-13091Y10459D01*
X-13056Y10373D01*
X-13000Y10300D01*
X-12927Y10244D01*
X-12841Y10209D01*
X-12750Y10197D01*
X-12659Y10209D01*
X-12573Y10244D01*
X-12500Y10300D01*
X-12444Y10373D01*
X-12409Y10459D01*
X-12397Y10550D01*
X-12409Y10641D01*
X-12444Y10727D01*
X-12500Y10800D01*
X-12573Y10856D01*
X-12597Y10865D01*
Y11101D01*
X-12547Y11105D01*
X-12541Y11059D01*
X-12506Y10973D01*
X-12450Y10900D01*
X-12377Y10844D01*
X-12291Y10809D01*
X-12200Y10797D01*
X-12109Y10809D01*
X-12023Y10844D01*
X-11950Y10900D01*
X-11894Y10973D01*
X-11859Y11059D01*
X-11847Y11150D01*
X-11859Y11241D01*
X-11894Y11327D01*
X-11950Y11400D01*
X-12023Y11456D01*
X-12047Y11465D01*
Y14349D01*
X-11997Y14362D01*
X-11950Y14300D01*
X-11877Y14244D01*
X-11791Y14209D01*
X-11750Y14204D01*
Y14550D01*
X-11650D01*
Y14204D01*
X-11609Y14209D01*
X-11549Y14234D01*
X-11503Y14200D01*
X-11491Y14109D01*
X-11456Y14023D01*
X-11400Y13950D01*
X-11327Y13894D01*
X-11303Y13885D01*
Y6685D01*
X-11350Y6650D01*
X-11406Y6577D01*
X-11441Y6491D01*
X-11453Y6400D01*
X-11441Y6309D01*
X-11406Y6223D01*
X-11350Y6150D01*
X-11277Y6094D01*
X-11191Y6059D01*
X-11100Y6047D01*
X-11009Y6059D01*
X-10923Y6094D01*
X-10850Y6150D01*
X-10794Y6223D01*
X-10759Y6309D01*
X-10747Y6400D01*
X-10759Y6491D01*
X-10794Y6577D01*
X-10850Y6650D01*
X-10923Y6706D01*
X-10997Y6736D01*
Y13449D01*
X-10947Y13462D01*
X-10900Y13400D01*
X-10827Y13344D01*
X-10803Y13335D01*
Y8450D01*
X-10791Y8391D01*
X-10758Y8342D01*
X-9346Y6929D01*
X-9355Y6906D01*
X-9367Y6814D01*
X-9355Y6723D01*
X-9320Y6638D01*
X-9264Y6565D01*
X-9191Y6509D01*
X-9167Y6499D01*
Y4249D01*
X-9214Y4230D01*
X-9797Y4813D01*
Y6085D01*
X-9773Y6094D01*
X-9700Y6150D01*
X-9644Y6223D01*
X-9609Y6309D01*
X-9597Y6400D01*
X-9609Y6491D01*
X-9644Y6577D01*
X-9700Y6650D01*
X-9773Y6706D01*
X-9859Y6741D01*
X-9950Y6753D01*
X-10041Y6741D01*
X-10127Y6706D01*
X-10200Y6650D01*
X-10256Y6577D01*
X-10291Y6491D01*
X-10303Y6400D01*
X-10291Y6309D01*
X-10256Y6223D01*
X-10200Y6150D01*
X-10127Y6094D01*
X-10103Y6085D01*
Y4750D01*
X-10091Y4691D01*
X-10058Y4642D01*
X-8103Y2687D01*
Y-150D01*
X-8096Y-184D01*
X-8143Y-205D01*
X-8150Y-195D01*
X-8223Y-139D01*
X-8309Y-104D01*
X-8350Y-98D01*
Y-395D01*
X-8054D01*
X-8059Y-354D01*
X-8077Y-310D01*
X-8035Y-282D01*
X-7308Y-1008D01*
X-7259Y-1041D01*
X-7200Y-1053D01*
X-4077D01*
X-4018Y-1041D01*
X-3969Y-1008D01*
X-3771Y-811D01*
X-3725Y-830D01*
X-3622Y-844D01*
X-3518Y-830D01*
X-3422Y-790D01*
X-3340Y-727D01*
X-3276Y-644D01*
X-3236Y-548D01*
X-3223Y-445D01*
X-3236Y-342D01*
X-3276Y-246D01*
X-3340Y-163D01*
X-3356Y-150D01*
X-3340Y-103D01*
X-3180D01*
X-2987Y-295D01*
X-3007Y-342D01*
X-3020Y-445D01*
X-3007Y-548D01*
X-2967Y-644D01*
X-2903Y-727D01*
X-2821Y-790D01*
X-2725Y-830D01*
X-2622Y-844D01*
X-2518Y-830D01*
X-2422Y-790D01*
X-2340Y-727D01*
X-2276Y-644D01*
X-2236Y-548D01*
X-2223Y-445D01*
X-2236Y-342D01*
X-2276Y-246D01*
X-2340Y-163D01*
X-2422Y-100D01*
X-2518Y-60D01*
X-2622Y-46D01*
X-2725Y-60D01*
X-2771Y-79D01*
X-3008Y158D01*
X-3058Y191D01*
X-3116Y203D01*
X-3349D01*
X-3366Y253D01*
X-3340Y273D01*
X-3276Y356D01*
X-3236Y452D01*
X-3223Y555D01*
X-3236Y658D01*
X-3276Y754D01*
X-3340Y837D01*
X-3422Y900D01*
X-3518Y940D01*
X-3588Y949D01*
X-4297Y1659D01*
Y2577D01*
X-4297Y2577D01*
X-4297Y2577D01*
Y4272D01*
X-3522Y5047D01*
X-650D01*
X-572Y5058D01*
X-499Y5088D01*
X-436Y5136D01*
X64Y5636D01*
X112Y5699D01*
X142Y5772D01*
X153Y5850D01*
X153Y5850D01*
Y14400D01*
X153Y14400D01*
X142Y14478D01*
X112Y14551D01*
X64Y14614D01*
X-586Y15264D01*
X-649Y15312D01*
X-722Y15342D01*
X-800Y15353D01*
X-2349D01*
X-9274Y22277D01*
X-9283Y22347D01*
X-9323Y22443D01*
X-9386Y22525D01*
X-9469Y22589D01*
X-9565Y22629D01*
X-9634Y22638D01*
X-10161Y23164D01*
X-10223Y23212D01*
X-10296Y23242D01*
X-10375Y23253D01*
D02*
G37*
G36*
X-6350Y21642D02*
Y21300D01*
X-6008D01*
X-6015Y21353D01*
X-6055Y21449D01*
X-6118Y21532D01*
X-6201Y21595D01*
X-6297Y21635D01*
X-6350Y21642D01*
D02*
G37*
G36*
X-5400Y22649D02*
X-5503Y22635D01*
X-5599Y22595D01*
X-5682Y22532D01*
X-5745Y22449D01*
X-5785Y22353D01*
X-5799Y22250D01*
X-5785Y22147D01*
X-5745Y22051D01*
X-5682Y21968D01*
X-5599Y21905D01*
X-5503Y21865D01*
X-5400Y21851D01*
X-5297Y21865D01*
X-5201Y21905D01*
X-5118Y21968D01*
X-5055Y22051D01*
X-5015Y22147D01*
X-5001Y22250D01*
X-5015Y22353D01*
X-5055Y22449D01*
X-5118Y22532D01*
X-5201Y22595D01*
X-5297Y22635D01*
X-5400Y22649D01*
D02*
G37*
G36*
X-6400D02*
X-6503Y22635D01*
X-6599Y22595D01*
X-6682Y22532D01*
X-6745Y22449D01*
X-6785Y22353D01*
X-6799Y22250D01*
X-6785Y22147D01*
X-6745Y22051D01*
X-6682Y21968D01*
X-6599Y21905D01*
X-6503Y21865D01*
X-6400Y21851D01*
X-6297Y21865D01*
X-6201Y21905D01*
X-6118Y21968D01*
X-6055Y22051D01*
X-6015Y22147D01*
X-6001Y22250D01*
X-6015Y22353D01*
X-6055Y22449D01*
X-6118Y22532D01*
X-6201Y22595D01*
X-6297Y22635D01*
X-6400Y22649D01*
D02*
G37*
G36*
X-13118D02*
X-13221Y22635D01*
X-13317Y22595D01*
X-13400Y22532D01*
X-13463Y22449D01*
X-13503Y22353D01*
X-13517Y22250D01*
X-13503Y22147D01*
X-13463Y22051D01*
X-13400Y21968D01*
X-13317Y21905D01*
X-13221Y21865D01*
X-13118Y21851D01*
X-13015Y21865D01*
X-12919Y21905D01*
X-12836Y21968D01*
X-12773Y22051D01*
X-12733Y22147D01*
X-12719Y22250D01*
X-12733Y22353D01*
X-12773Y22449D01*
X-12836Y22532D01*
X-12919Y22595D01*
X-13015Y22635D01*
X-13118Y22649D01*
D02*
G37*
G36*
X-6450Y21200D02*
X-6792D01*
X-6785Y21147D01*
X-6745Y21051D01*
X-6682Y20968D01*
X-6599Y20905D01*
X-6503Y20865D01*
X-6450Y20858D01*
Y21200D01*
D02*
G37*
G36*
X-4400Y21649D02*
X-4503Y21635D01*
X-4599Y21595D01*
X-4682Y21532D01*
X-4745Y21449D01*
X-4785Y21353D01*
X-4799Y21250D01*
X-4785Y21147D01*
X-4745Y21051D01*
X-4682Y20968D01*
X-4599Y20905D01*
X-4503Y20865D01*
X-4400Y20851D01*
X-4297Y20865D01*
X-4201Y20905D01*
X-4118Y20968D01*
X-4055Y21051D01*
X-4015Y21147D01*
X-4001Y21250D01*
X-4015Y21353D01*
X-4055Y21449D01*
X-4118Y21532D01*
X-4201Y21595D01*
X-4297Y21635D01*
X-4400Y21649D01*
D02*
G37*
G36*
X-5400D02*
X-5503Y21635D01*
X-5599Y21595D01*
X-5682Y21532D01*
X-5745Y21449D01*
X-5785Y21353D01*
X-5799Y21250D01*
X-5785Y21147D01*
X-5745Y21051D01*
X-5682Y20968D01*
X-5599Y20905D01*
X-5503Y20865D01*
X-5400Y20851D01*
X-5297Y20865D01*
X-5201Y20905D01*
X-5118Y20968D01*
X-5055Y21051D01*
X-5015Y21147D01*
X-5001Y21250D01*
X-5015Y21353D01*
X-5055Y21449D01*
X-5118Y21532D01*
X-5201Y21595D01*
X-5297Y21635D01*
X-5400Y21649D01*
D02*
G37*
G36*
X-6450Y21642D02*
X-6503Y21635D01*
X-6599Y21595D01*
X-6682Y21532D01*
X-6745Y21449D01*
X-6785Y21353D01*
X-6792Y21300D01*
X-6450D01*
Y21642D01*
D02*
G37*
G36*
X0Y23238D02*
X-170Y23224D01*
X-336Y23184D01*
X-494Y23119D01*
X-639Y23030D01*
X-769Y22919D01*
X-880Y22789D01*
X-969Y22644D01*
X-1034Y22486D01*
X-1074Y22320D01*
X-1088Y22150D01*
X-1074Y21980D01*
X-1034Y21814D01*
X-969Y21656D01*
X-880Y21511D01*
X-769Y21381D01*
X-639Y21270D01*
X-494Y21181D01*
X-336Y21116D01*
X-170Y21076D01*
X0Y21062D01*
X170Y21076D01*
X336Y21116D01*
X494Y21181D01*
X639Y21270D01*
X769Y21381D01*
X880Y21511D01*
X969Y21656D01*
X1034Y21814D01*
X1074Y21980D01*
X1088Y22150D01*
X1074Y22320D01*
X1034Y22486D01*
X969Y22644D01*
X880Y22789D01*
X769Y22919D01*
X639Y23030D01*
X494Y23119D01*
X336Y23184D01*
X170Y23224D01*
X0Y23238D01*
D02*
G37*
G36*
X-6008Y21200D02*
X-6350D01*
Y20858D01*
X-6297Y20865D01*
X-6201Y20905D01*
X-6118Y20968D01*
X-6055Y21051D01*
X-6015Y21147D01*
X-6008Y21200D01*
D02*
G37*
G36*
X-16168Y22642D02*
X-16221Y22635D01*
X-16317Y22595D01*
X-16400Y22532D01*
X-16463Y22449D01*
X-16503Y22353D01*
X-16510Y22300D01*
X-16168D01*
Y22642D01*
D02*
G37*
G36*
X-17118Y22649D02*
X-17221Y22635D01*
X-17317Y22595D01*
X-17400Y22532D01*
X-17463Y22449D01*
X-17503Y22353D01*
X-17517Y22250D01*
X-17504Y22153D01*
X-17698Y21959D01*
X-17780D01*
X-17805Y22009D01*
X-17773Y22051D01*
X-17733Y22147D01*
X-17719Y22250D01*
X-17733Y22353D01*
X-17773Y22449D01*
X-17836Y22532D01*
X-17919Y22595D01*
X-18015Y22635D01*
X-18118Y22649D01*
X-18221Y22635D01*
X-18317Y22595D01*
X-18400Y22532D01*
X-18463Y22449D01*
X-18503Y22353D01*
X-18517Y22250D01*
X-18503Y22147D01*
X-18463Y22051D01*
X-18431Y22009D01*
X-18456Y21959D01*
X-18723D01*
Y22645D01*
X-19513D01*
Y21959D01*
X-19717D01*
X-19902Y22143D01*
Y22645D01*
X-20692D01*
Y21855D01*
X-20190D01*
X-19946Y21611D01*
X-19880Y21566D01*
X-19802Y21551D01*
X-17613D01*
X-17535Y21566D01*
X-17469Y21611D01*
X-17216Y21864D01*
X-17118Y21851D01*
X-17015Y21865D01*
X-16919Y21905D01*
X-16836Y21968D01*
X-16773Y22051D01*
X-16733Y22147D01*
X-16719Y22250D01*
X-16733Y22353D01*
X-16773Y22449D01*
X-16836Y22532D01*
X-16919Y22595D01*
X-17015Y22635D01*
X-17118Y22649D01*
D02*
G37*
G36*
X-14726Y22200D02*
X-15068D01*
Y21858D01*
X-15015Y21865D01*
X-14919Y21905D01*
X-14836Y21968D01*
X-14773Y22051D01*
X-14733Y22147D01*
X-14726Y22200D01*
D02*
G37*
G36*
X-15068Y22642D02*
Y22300D01*
X-14726D01*
X-14733Y22353D01*
X-14773Y22449D01*
X-14836Y22532D01*
X-14919Y22595D01*
X-15015Y22635D01*
X-15068Y22642D01*
D02*
G37*
G36*
X-15168D02*
X-15221Y22635D01*
X-15317Y22595D01*
X-15400Y22532D01*
X-15463Y22449D01*
X-15503Y22353D01*
X-15510Y22300D01*
X-15168D01*
Y22642D01*
D02*
G37*
G36*
X-16068D02*
Y22300D01*
X-15726D01*
X-15733Y22353D01*
X-15773Y22449D01*
X-15836Y22532D01*
X-15919Y22595D01*
X-16015Y22635D01*
X-16068Y22642D01*
D02*
G37*
G36*
X-4005Y22645D02*
X-4795D01*
Y21855D01*
X-4005D01*
Y22645D01*
D02*
G37*
G36*
X-10276Y22193D02*
X-10618D01*
Y21851D01*
X-10565Y21858D01*
X-10469Y21898D01*
X-10386Y21962D01*
X-10323Y22044D01*
X-10283Y22140D01*
X-10276Y22193D01*
D02*
G37*
G36*
X-10718D02*
X-11060D01*
X-11053Y22140D01*
X-11013Y22044D01*
X-10950Y21962D01*
X-10867Y21898D01*
X-10771Y21858D01*
X-10718Y21851D01*
Y22193D01*
D02*
G37*
G36*
X-15168Y22200D02*
X-15510D01*
X-15503Y22147D01*
X-15463Y22051D01*
X-15400Y21968D01*
X-15317Y21905D01*
X-15221Y21865D01*
X-15168Y21858D01*
Y22200D01*
D02*
G37*
G36*
X-15726D02*
X-16068D01*
Y21858D01*
X-16015Y21865D01*
X-15919Y21905D01*
X-15836Y21968D01*
X-15773Y22051D01*
X-15733Y22147D01*
X-15726Y22200D01*
D02*
G37*
G36*
X-16168D02*
X-16510D01*
X-16503Y22147D01*
X-16463Y22051D01*
X-16400Y21968D01*
X-16317Y21905D01*
X-16221Y21865D01*
X-16168Y21858D01*
Y22200D01*
D02*
G37*
G36*
X-1050Y19575D02*
X-1153Y19562D01*
X-1249Y19522D01*
X-1332Y19459D01*
X-1395Y19376D01*
X-1435Y19280D01*
X-1449Y19177D01*
X-1435Y19074D01*
X-1395Y18977D01*
X-1332Y18895D01*
X-1249Y18831D01*
X-1153Y18792D01*
X-1050Y18778D01*
X-947Y18792D01*
X-851Y18831D01*
X-768Y18895D01*
X-705Y18977D01*
X-665Y19074D01*
X-651Y19177D01*
X-665Y19280D01*
X-705Y19376D01*
X-768Y19459D01*
X-851Y19522D01*
X-947Y19562D01*
X-1050Y19575D01*
D02*
G37*
G36*
X-2050D02*
X-2153Y19562D01*
X-2249Y19522D01*
X-2332Y19459D01*
X-2395Y19376D01*
X-2435Y19280D01*
X-2449Y19177D01*
X-2435Y19074D01*
X-2395Y18977D01*
X-2332Y18895D01*
X-2249Y18831D01*
X-2153Y18792D01*
X-2050Y18778D01*
X-1947Y18792D01*
X-1851Y18831D01*
X-1768Y18895D01*
X-1705Y18977D01*
X-1665Y19074D01*
X-1651Y19177D01*
X-1665Y19280D01*
X-1705Y19376D01*
X-1768Y19459D01*
X-1851Y19522D01*
X-1947Y19562D01*
X-2050Y19575D01*
D02*
G37*
G36*
X-1560Y17757D02*
X-1724Y17744D01*
X-1884Y17706D01*
X-2036Y17643D01*
X-2176Y17557D01*
X-2301Y17450D01*
X-2408Y17325D01*
X-2494Y17185D01*
X-2557Y17033D01*
X-2595Y16873D01*
X-2608Y16709D01*
X-2595Y16545D01*
X-2557Y16385D01*
X-2494Y16233D01*
X-2408Y16093D01*
X-2301Y15968D01*
X-2176Y15861D01*
X-2036Y15775D01*
X-1884Y15712D01*
X-1724Y15674D01*
X-1560Y15661D01*
X-1396Y15674D01*
X-1236Y15712D01*
X-1084Y15775D01*
X-944Y15861D01*
X-819Y15968D01*
X-712Y16093D01*
X-626Y16233D01*
X-563Y16385D01*
X-525Y16545D01*
X-512Y16709D01*
X-525Y16873D01*
X-563Y17033D01*
X-626Y17185D01*
X-712Y17325D01*
X-819Y17450D01*
X-944Y17557D01*
X-1084Y17643D01*
X-1236Y17706D01*
X-1396Y17744D01*
X-1560Y17757D01*
D02*
G37*
G36*
X-12118Y19649D02*
X-12221Y19635D01*
X-12317Y19595D01*
X-12400Y19532D01*
X-12463Y19449D01*
X-12503Y19353D01*
X-12517Y19250D01*
X-12503Y19147D01*
X-12463Y19051D01*
X-12400Y18968D01*
X-12317Y18905D01*
X-12221Y18865D01*
X-12118Y18851D01*
X-12015Y18865D01*
X-11919Y18905D01*
X-11836Y18968D01*
X-11773Y19051D01*
X-11733Y19147D01*
X-11719Y19250D01*
X-11733Y19353D01*
X-11773Y19449D01*
X-11836Y19532D01*
X-11919Y19595D01*
X-12015Y19635D01*
X-12118Y19649D01*
D02*
G37*
G36*
X-13118D02*
X-13221Y19635D01*
X-13317Y19595D01*
X-13400Y19532D01*
X-13463Y19449D01*
X-13503Y19353D01*
X-13517Y19250D01*
X-13503Y19147D01*
X-13463Y19051D01*
X-13400Y18968D01*
X-13317Y18905D01*
X-13221Y18865D01*
X-13118Y18851D01*
X-13015Y18865D01*
X-12919Y18905D01*
X-12836Y18968D01*
X-12773Y19051D01*
X-12733Y19147D01*
X-12719Y19250D01*
X-12733Y19353D01*
X-12773Y19449D01*
X-12836Y19532D01*
X-12919Y19595D01*
X-13015Y19635D01*
X-13118Y19649D01*
D02*
G37*
G36*
X-20297Y20649D02*
X-20400Y20635D01*
X-20496Y20595D01*
X-20579Y20532D01*
X-20642Y20449D01*
X-20682Y20353D01*
X-20696Y20250D01*
X-20682Y20147D01*
X-20642Y20051D01*
X-20579Y19968D01*
X-20496Y19905D01*
X-20400Y19865D01*
X-20297Y19851D01*
X-20194Y19865D01*
X-20098Y19905D01*
X-20015Y19968D01*
X-19955Y20046D01*
X-15203D01*
X-14504Y19347D01*
X-14517Y19250D01*
X-14503Y19147D01*
X-14463Y19051D01*
X-14400Y18968D01*
X-14317Y18905D01*
X-14221Y18865D01*
X-14118Y18851D01*
X-14015Y18865D01*
X-13919Y18905D01*
X-13836Y18968D01*
X-13773Y19051D01*
X-13733Y19147D01*
X-13719Y19250D01*
X-13733Y19353D01*
X-13773Y19449D01*
X-13836Y19532D01*
X-13919Y19595D01*
X-14015Y19635D01*
X-14118Y19649D01*
X-14216Y19636D01*
X-14974Y20394D01*
X-15040Y20438D01*
X-15118Y20454D01*
X-19955D01*
X-20015Y20532D01*
X-20098Y20595D01*
X-20194Y20635D01*
X-20297Y20649D01*
D02*
G37*
G36*
X-2119Y12768D02*
X-2232Y12753D01*
X-2337Y12709D01*
X-2427Y12640D01*
X-2497Y12549D01*
X-2540Y12444D01*
X-2555Y12331D01*
X-2540Y12218D01*
X-2497Y12113D01*
X-2427Y12023D01*
X-2337Y11953D01*
X-2232Y11910D01*
X-2119Y11895D01*
X-2006Y11910D01*
X-1901Y11953D01*
X-1810Y12023D01*
X-1741Y12113D01*
X-1697Y12218D01*
X-1682Y12331D01*
X-1697Y12444D01*
X-1741Y12549D01*
X-1810Y12640D01*
X-1901Y12709D01*
X-2006Y12753D01*
X-2119Y12768D01*
D02*
G37*
G36*
X-1001Y12222D02*
X-1114Y12207D01*
X-1219Y12164D01*
X-1309Y12094D01*
X-1379Y12004D01*
X-1422Y11899D01*
X-1437Y11786D01*
X-1422Y11673D01*
X-1379Y11568D01*
X-1309Y11477D01*
X-1219Y11408D01*
X-1114Y11364D01*
X-1001Y11349D01*
X-888Y11364D01*
X-783Y11408D01*
X-692Y11477D01*
X-623Y11568D01*
X-579Y11673D01*
X-564Y11786D01*
X-579Y11899D01*
X-623Y12004D01*
X-692Y12094D01*
X-783Y12164D01*
X-888Y12207D01*
X-1001Y12222D01*
D02*
G37*
G36*
X-18482Y11582D02*
Y11286D01*
X-18185D01*
X-18191Y11327D01*
X-18226Y11412D01*
X-18282Y11485D01*
X-18355Y11542D01*
X-18440Y11577D01*
X-18482Y11582D01*
D02*
G37*
G36*
X-1001Y14403D02*
X-1114Y14388D01*
X-1219Y14345D01*
X-1309Y14276D01*
X-1379Y14185D01*
X-1422Y14080D01*
X-1437Y13967D01*
X-1422Y13854D01*
X-1379Y13749D01*
X-1309Y13658D01*
X-1219Y13589D01*
X-1114Y13545D01*
X-1001Y13531D01*
X-888Y13545D01*
X-783Y13589D01*
X-692Y13658D01*
X-623Y13749D01*
X-579Y13854D01*
X-564Y13967D01*
X-579Y14080D01*
X-623Y14185D01*
X-692Y14276D01*
X-783Y14345D01*
X-888Y14388D01*
X-1001Y14403D01*
D02*
G37*
G36*
X-2119Y13858D02*
X-2232Y13843D01*
X-2337Y13800D01*
X-2427Y13730D01*
X-2497Y13640D01*
X-2540Y13535D01*
X-2555Y13422D01*
X-2540Y13309D01*
X-2497Y13203D01*
X-2427Y13113D01*
X-2337Y13044D01*
X-2232Y13000D01*
X-2119Y12985D01*
X-2006Y13000D01*
X-1901Y13044D01*
X-1810Y13113D01*
X-1741Y13203D01*
X-1697Y13309D01*
X-1682Y13422D01*
X-1697Y13535D01*
X-1741Y13640D01*
X-1810Y13730D01*
X-1901Y13800D01*
X-2006Y13843D01*
X-2119Y13858D01*
D02*
G37*
G36*
X-1001Y13313D02*
X-1114Y13298D01*
X-1219Y13254D01*
X-1309Y13185D01*
X-1379Y13095D01*
X-1422Y12989D01*
X-1437Y12876D01*
X-1422Y12763D01*
X-1379Y12658D01*
X-1309Y12568D01*
X-1219Y12498D01*
X-1114Y12455D01*
X-1001Y12440D01*
X-888Y12455D01*
X-783Y12498D01*
X-692Y12568D01*
X-623Y12658D01*
X-579Y12763D01*
X-564Y12876D01*
X-579Y12989D01*
X-623Y13095D01*
X-692Y13185D01*
X-783Y13254D01*
X-888Y13298D01*
X-1001Y13313D01*
D02*
G37*
G36*
X-17613Y19949D02*
X-19802D01*
X-19880Y19934D01*
X-19946Y19889D01*
X-20199Y19636D01*
X-20297Y19649D01*
X-20400Y19635D01*
X-20496Y19595D01*
X-20579Y19532D01*
X-20642Y19449D01*
X-20682Y19353D01*
X-20696Y19250D01*
X-20682Y19147D01*
X-20642Y19051D01*
X-20579Y18968D01*
X-20496Y18905D01*
X-20400Y18865D01*
X-20297Y18851D01*
X-20194Y18865D01*
X-20098Y18905D01*
X-20015Y18968D01*
X-19952Y19051D01*
X-19912Y19147D01*
X-19898Y19250D01*
X-19911Y19347D01*
X-19717Y19541D01*
X-19513D01*
Y18855D01*
X-18723D01*
Y19541D01*
X-18456D01*
X-18431Y19491D01*
X-18463Y19449D01*
X-18503Y19353D01*
X-18517Y19250D01*
X-18503Y19147D01*
X-18463Y19051D01*
X-18400Y18968D01*
X-18317Y18905D01*
X-18221Y18865D01*
X-18118Y18851D01*
X-18015Y18865D01*
X-17919Y18905D01*
X-17836Y18968D01*
X-17773Y19051D01*
X-17733Y19147D01*
X-17719Y19250D01*
X-17733Y19353D01*
X-17773Y19449D01*
X-17805Y19491D01*
X-17780Y19541D01*
X-17698D01*
X-17504Y19347D01*
X-17517Y19250D01*
X-17503Y19147D01*
X-17463Y19051D01*
X-17400Y18968D01*
X-17317Y18905D01*
X-17221Y18865D01*
X-17118Y18851D01*
X-17015Y18865D01*
X-16919Y18905D01*
X-16836Y18968D01*
X-16773Y19051D01*
X-16733Y19147D01*
X-16719Y19250D01*
X-16733Y19353D01*
X-16773Y19449D01*
X-16836Y19532D01*
X-16919Y19595D01*
X-17015Y19635D01*
X-17118Y19649D01*
X-17216Y19636D01*
X-17469Y19889D01*
X-17535Y19934D01*
X-17613Y19949D01*
D02*
G37*
G36*
X-15068Y19642D02*
Y19300D01*
X-14726D01*
X-14733Y19353D01*
X-14773Y19449D01*
X-14836Y19532D01*
X-14919Y19595D01*
X-15015Y19635D01*
X-15068Y19642D01*
D02*
G37*
G36*
X-15168D02*
X-15221Y19635D01*
X-15317Y19595D01*
X-15400Y19532D01*
X-15463Y19449D01*
X-15503Y19353D01*
X-15510Y19300D01*
X-15168D01*
Y19642D01*
D02*
G37*
G36*
X-10668Y21642D02*
X-10771Y21629D01*
X-10867Y21589D01*
X-10950Y21525D01*
X-11013Y21443D01*
X-11053Y21347D01*
X-11067Y21243D01*
X-11053Y21140D01*
X-11013Y21044D01*
X-10950Y20962D01*
X-10867Y20898D01*
X-10771Y20858D01*
X-10668Y20845D01*
X-10565Y20858D01*
X-10469Y20898D01*
X-10386Y20962D01*
X-10323Y21044D01*
X-10283Y21140D01*
X-10269Y21243D01*
X-10283Y21347D01*
X-10323Y21443D01*
X-10386Y21525D01*
X-10469Y21589D01*
X-10565Y21629D01*
X-10668Y21642D01*
D02*
G37*
G36*
X-1655Y20572D02*
X-2445D01*
Y19781D01*
X-1655D01*
Y20572D01*
D02*
G37*
G36*
X-1050Y20575D02*
X-1153Y20562D01*
X-1249Y20522D01*
X-1332Y20459D01*
X-1395Y20376D01*
X-1435Y20280D01*
X-1449Y20177D01*
X-1435Y20074D01*
X-1395Y19977D01*
X-1332Y19895D01*
X-1249Y19831D01*
X-1153Y19792D01*
X-1050Y19778D01*
X-947Y19792D01*
X-851Y19831D01*
X-768Y19895D01*
X-705Y19977D01*
X-665Y20074D01*
X-651Y20177D01*
X-665Y20280D01*
X-705Y20376D01*
X-768Y20459D01*
X-851Y20522D01*
X-947Y20562D01*
X-1050Y20575D01*
D02*
G37*
G36*
X-16168Y19200D02*
X-16510D01*
X-16503Y19147D01*
X-16463Y19051D01*
X-16400Y18968D01*
X-16317Y18905D01*
X-16221Y18865D01*
X-16168Y18858D01*
Y19200D01*
D02*
G37*
G36*
X-15168D02*
X-15510D01*
X-15503Y19147D01*
X-15463Y19051D01*
X-15400Y18968D01*
X-15317Y18905D01*
X-15221Y18865D01*
X-15168Y18858D01*
Y19200D01*
D02*
G37*
G36*
X-15726D02*
X-16068D01*
Y18858D01*
X-16015Y18865D01*
X-15919Y18905D01*
X-15836Y18968D01*
X-15773Y19051D01*
X-15733Y19147D01*
X-15726Y19200D01*
D02*
G37*
G36*
X-16068Y19642D02*
Y19300D01*
X-15726D01*
X-15733Y19353D01*
X-15773Y19449D01*
X-15836Y19532D01*
X-15919Y19595D01*
X-16015Y19635D01*
X-16068Y19642D01*
D02*
G37*
G36*
X-16168D02*
X-16221Y19635D01*
X-16317Y19595D01*
X-16400Y19532D01*
X-16463Y19449D01*
X-16503Y19353D01*
X-16510Y19300D01*
X-16168D01*
Y19642D01*
D02*
G37*
G36*
X-14726Y19200D02*
X-15068D01*
Y18858D01*
X-15015Y18865D01*
X-14919Y18905D01*
X-14836Y18968D01*
X-14773Y19051D01*
X-14733Y19147D01*
X-14726Y19200D01*
D02*
G37*
%LPD*%
G36*
X-7458Y-58D02*
X-7409Y-91D01*
X-7350Y-103D01*
X-7017D01*
Y-395D01*
X-6622D01*
Y-495D01*
X-7017D01*
Y-747D01*
X-7137D01*
X-7797Y-87D01*
Y215D01*
X-7751Y235D01*
X-7458Y-58D01*
D02*
G37*
D19*
X-20297Y19250D02*
X-19802Y19745D01*
X-20297Y21250D02*
X-15118D01*
X-20297Y22250D02*
X-19802Y21755D01*
X-20297Y20250D02*
X-15118D01*
Y21250D02*
X-14118Y22250D01*
X-15118Y20250D02*
X-14118Y19250D01*
X-19802Y19745D02*
X-17613D01*
X-17118Y19250D01*
X-19802Y21755D02*
X-17613D01*
X-17118Y22250D01*
D20*
X-11150Y6600D02*
X-11000Y6450D01*
X-10668Y19243D02*
X-9668D01*
Y20243D02*
X-9200Y19775D01*
X-10650Y8450D02*
X-9014Y6814D01*
X-10650Y8450D02*
Y13650D01*
X-11150Y6600D02*
Y14200D01*
X-11450Y15200D02*
X-5309Y9059D01*
X-12200Y15250D02*
X-9200Y18250D01*
Y19775D01*
X-12750Y14983D02*
X-11150Y16583D01*
X-12750Y10550D02*
Y14983D01*
X-11150Y16583D02*
Y19762D01*
X-10668Y20243D01*
X-12200Y11150D02*
Y15250D01*
X-9950Y4750D02*
X-7950Y2750D01*
Y-150D02*
Y2750D01*
X-4077Y-900D02*
X-3622Y-445D01*
X-7950Y-150D02*
X-7200Y-900D01*
X-4077D01*
X-9950Y4750D02*
Y6400D01*
X-3116Y50D02*
X-2622Y-445D01*
X-7350Y50D02*
X-3116D01*
X-7750Y450D02*
X-7350Y50D01*
X-7750Y450D02*
Y2833D01*
X-9014Y4097D02*
X-7750Y2833D01*
X-9014Y4097D02*
Y6814D01*
X-5205Y9605D02*
X-1001D01*
X-5309Y9059D02*
X-2119D01*
X-10850Y15200D02*
X-10800D01*
X-5205Y9605D01*
D21*
X-9668Y22243D02*
X-2475Y15050D01*
X-800D01*
X-6622Y555D02*
X-4600Y2577D01*
X-150Y5850D02*
Y14400D01*
X-800Y15050D02*
X-150Y14400D01*
X-650Y5350D02*
X-150Y5850D01*
X-3647Y5350D02*
X-650D01*
X-3647D02*
X-2119Y6878D01*
X-4600Y4397D02*
X-3647Y5350D01*
X-4600Y1534D02*
Y2577D01*
Y1534D02*
X-3622Y555D01*
X-4600Y2577D02*
Y4397D01*
X-10375Y22950D02*
X-9668Y22243D01*
X-11418Y22950D02*
X-10375D01*
X-12118Y22250D02*
X-11418Y22950D01*
D22*
X-1050Y19177D02*
D03*
X-2050D02*
D03*
X-1050Y20177D02*
D03*
X-2622Y555D02*
D03*
Y-445D02*
D03*
X-3622Y555D02*
D03*
Y-445D02*
D03*
X-4622Y555D02*
D03*
Y-445D02*
D03*
X-5622Y555D02*
D03*
Y-445D02*
D03*
X-6622Y555D02*
D03*
X-12118Y22250D02*
D03*
X-13118D02*
D03*
X-14118D02*
D03*
X-15118D02*
D03*
X-16118D02*
D03*
X-17118D02*
D03*
X-18118D02*
D03*
X-12118Y19250D02*
D03*
X-13118D02*
D03*
X-14118D02*
D03*
X-15118D02*
D03*
X-16118D02*
D03*
X-17118D02*
D03*
X-18118D02*
D03*
X-6400Y21250D02*
D03*
Y22250D02*
D03*
X-5400Y21250D02*
D03*
Y22250D02*
D03*
X-4400Y21250D02*
D03*
X-10668Y19243D02*
D03*
X-9668Y20243D02*
D03*
X-10668D02*
D03*
X-9668Y21243D02*
D03*
X-10668D02*
D03*
X-9668Y22243D02*
D03*
X-10668D02*
D03*
X-20297Y21250D02*
D03*
Y20250D02*
D03*
Y19250D02*
D03*
D23*
X-2050Y20177D02*
D03*
X-9668Y19243D02*
D03*
X-20297Y22250D02*
D03*
D24*
X-6622Y-445D02*
D03*
X-19118Y22250D02*
D03*
Y19250D02*
D03*
X-4400Y22250D02*
D03*
D25*
X-1560Y16709D02*
D03*
Y3591D02*
D03*
D26*
X-1001Y13967D02*
D03*
X-2119Y13422D02*
D03*
X-1001Y12876D02*
D03*
X-2119Y12331D02*
D03*
X-1001Y11786D02*
D03*
X-2119Y11241D02*
D03*
X-1001Y10695D02*
D03*
X-2119Y10150D02*
D03*
X-1001Y9605D02*
D03*
X-2119Y9059D02*
D03*
X-1001Y8514D02*
D03*
X-2119Y7969D02*
D03*
X-1001Y7424D02*
D03*
X-2119Y6878D02*
D03*
D27*
X-1001Y6333D02*
D03*
D28*
X-10650Y13650D02*
D03*
X-11150Y14200D02*
D03*
X-11100Y6400D02*
D03*
X-12200Y11150D02*
D03*
X-12750Y10550D02*
D03*
X-11700Y14550D02*
D03*
X-18532Y11236D02*
D03*
X-19800Y11200D02*
D03*
X-17300D02*
D03*
X-17400Y850D02*
D03*
X-19900D02*
D03*
X-18632Y886D02*
D03*
X-9878Y3278D02*
D03*
X-14250D02*
D03*
X-8400Y-445D02*
D03*
X-9014Y6814D02*
D03*
X-9950Y6400D02*
D03*
X-11450Y15200D02*
D03*
X-10850D02*
D03*
D29*
X0Y22150D02*
D03*
Y0D02*
D03*
M02*
