G04 Layer_Color=65535*
%FSLAX24Y24*%
%MOIN*%
G70*
G01*
G75*
%ADD22C,0.0100*%
%ADD31C,0.0098*%
%ADD32C,0.0236*%
%ADD33C,0.0079*%
%ADD34C,0.0050*%
%ADD35C,0.0080*%
D22*
X15362Y16150D02*
G03*
X15362Y16150I-1012J0D01*
G01*
X-1650Y3747D02*
X2850D01*
X-1650D02*
Y13790D01*
X2850D01*
X13750Y16500D02*
X14150D01*
X14600D02*
X15000D01*
X13750Y15900D02*
X15000D01*
X4650Y14230D02*
Y14680D01*
X4800Y14530D01*
X4950Y14680D01*
Y14230D01*
X5400Y14680D02*
X5100D01*
Y14230D01*
X5400D01*
X5100Y14455D02*
X5250D01*
X5550Y14680D02*
X5850D01*
X5700D01*
Y14230D01*
X6000D02*
Y14680D01*
X6224D01*
X6299Y14605D01*
Y14455D01*
X6224Y14380D01*
X6000D01*
X6150D02*
X6299Y14230D01*
X6674D02*
Y14680D01*
X6449Y14455D01*
X6749D01*
X6899Y14605D02*
X6974Y14680D01*
X7124D01*
X7199Y14605D01*
Y14530D01*
X7124Y14455D01*
X7199Y14380D01*
Y14305D01*
X7124Y14230D01*
X6974D01*
X6899Y14305D01*
Y14380D01*
X6974Y14455D01*
X6899Y14530D01*
Y14605D01*
X6974Y14455D02*
X7124D01*
X7349Y14230D02*
X7499D01*
X7424D01*
Y14680D01*
X7349Y14605D01*
X7724D02*
X7799Y14680D01*
X7949D01*
X8024Y14605D01*
Y14305D01*
X7949Y14230D01*
X7799D01*
X7724Y14305D01*
Y14605D01*
X4650Y13900D02*
X4950D01*
X4800D01*
Y13450D01*
X5400Y13900D02*
X5100D01*
Y13450D01*
X5400D01*
X5100Y13675D02*
X5250D01*
X5550Y13450D02*
Y13750D01*
X5700Y13900D01*
X5850Y13750D01*
Y13450D01*
Y13675D01*
X5550D01*
X6000Y13450D02*
Y13900D01*
X6150Y13750D01*
X6299Y13900D01*
Y13450D01*
X6899D02*
X7049D01*
X6974D01*
Y13900D01*
X6899Y13825D01*
X7274D02*
X7349Y13900D01*
X7499D01*
X7574Y13825D01*
Y13525D01*
X7499Y13450D01*
X7349D01*
X7274Y13525D01*
Y13825D01*
X-1199Y15520D02*
X-1399D01*
X-1299D01*
Y15020D01*
X-1399Y14920D01*
X-1499D01*
X-1599Y15020D01*
X-999Y15420D02*
X-899Y15520D01*
X-699D01*
X-599Y15420D01*
Y15320D01*
X-799Y15120D01*
Y15020D02*
Y14920D01*
X16135Y16492D02*
Y17091D01*
X16434D01*
X16534Y16991D01*
Y16791D01*
X16434Y16691D01*
X16135D01*
X16734Y16991D02*
X16834Y17091D01*
X17034D01*
X17134Y16991D01*
Y16891D01*
X16934Y16691D01*
Y16591D02*
Y16492D01*
D31*
X19149Y11127D02*
G03*
X19149Y11127I-49J0D01*
G01*
X12349Y11324D02*
G03*
X12349Y11324I-49J0D01*
G01*
D32*
X11837Y10419D02*
G03*
X11837Y10419I-118J0D01*
G01*
D33*
X20073Y15150D02*
Y16150D01*
X16073Y15150D02*
X20073D01*
X16073Y16150D02*
X20073D01*
X16073Y15150D02*
Y16150D01*
X16896Y7621D02*
Y7779D01*
X16621Y7621D02*
Y7779D01*
X19705Y9505D02*
X20020D01*
X19705Y10095D02*
X20020D01*
X19705Y8601D02*
X20020D01*
X19705Y9192D02*
X20020D01*
X14393Y8805D02*
X14707D01*
X14393Y9395D02*
X14707D01*
X7045Y8893D02*
Y9207D01*
X6455Y8893D02*
Y9207D01*
X17904Y7621D02*
Y7779D01*
X18179Y7621D02*
Y7779D01*
X19880Y13050D02*
X20880D01*
Y11050D02*
Y13050D01*
X19880Y11050D02*
X20880D01*
X19880D02*
Y13050D01*
X16048Y7621D02*
Y7779D01*
X16324Y7621D02*
Y7779D01*
X16935Y14617D02*
X17486D01*
Y10483D02*
Y14617D01*
X16935Y10483D02*
X17486D01*
X19630Y6055D02*
X20630D01*
Y2055D02*
Y6055D01*
X19630Y2055D02*
Y6055D01*
Y2055D02*
X20630D01*
X2000Y-945D02*
Y55D01*
X5000D01*
Y-945D02*
Y55D01*
X2000Y-945D02*
X5000D01*
X8715Y55D02*
X16715D01*
X8715Y-945D02*
Y55D01*
Y-945D02*
X16715D01*
Y55D01*
X8715Y3055D02*
X16715D01*
X8715Y2055D02*
Y3055D01*
Y2055D02*
X16715D01*
Y3055D01*
X16073Y17661D02*
X18073D01*
Y18661D01*
X16073D02*
X18073D01*
X16073Y17661D02*
Y18661D01*
X8905Y12316D02*
Y12473D01*
X9181Y12316D02*
Y12473D01*
X6358Y3055D02*
X7358D01*
Y-945D02*
Y3055D01*
X6358Y-945D02*
Y3055D01*
Y-945D02*
X7358D01*
X10358Y17661D02*
Y18661D01*
X7358Y17661D02*
X10358D01*
X7358D02*
Y18661D01*
X10358D01*
X14715Y17661D02*
Y18661D01*
X11715Y17661D02*
X14715D01*
X11715D02*
Y18661D01*
X14715D01*
X18552Y4889D02*
X18709D01*
X18552Y5164D02*
X18709D01*
X18552Y3447D02*
X18709D01*
X18552Y3171D02*
X18709D01*
X18552Y5812D02*
X18709D01*
X18552Y6088D02*
X18709D01*
X12511Y5349D02*
Y5507D01*
X12235Y5349D02*
Y5507D01*
X18552Y4592D02*
X18709D01*
X18552Y4316D02*
X18709D01*
X2000Y17661D02*
Y18661D01*
X6000D01*
X2000Y17661D02*
X6000D01*
Y18661D01*
X18552Y3744D02*
X18709D01*
X18552Y4019D02*
X18709D01*
X8687Y10813D02*
X12113D01*
X8687Y7387D02*
X12113D01*
Y10813D01*
X8687Y7387D02*
Y10813D01*
X8300Y13500D02*
Y15417D01*
Y13500D02*
Y16500D01*
X10300Y13500D02*
Y16500D01*
X8300D02*
X10300D01*
X8300Y13500D02*
X10300D01*
D34*
X21100Y11700D02*
X21050Y11750D01*
Y11850D01*
X21100Y11900D01*
X21300D01*
X21350Y11850D01*
Y11750D01*
X21300Y11700D01*
X21100D01*
X21200Y12000D02*
Y12200D01*
X21050Y12300D02*
X21350D01*
Y12450D01*
X21300Y12500D01*
X21250D01*
X21200Y12450D01*
Y12300D01*
Y12450D01*
X21150Y12500D01*
X21100D01*
X21050Y12450D01*
Y12300D01*
X5900Y-319D02*
X5850Y-369D01*
Y-469D01*
X5900Y-519D01*
X5950D01*
X6000Y-469D01*
Y-369D01*
X6050Y-319D01*
X6100D01*
X6150Y-369D01*
Y-469D01*
X6100Y-519D01*
X6150Y-219D02*
Y-120D01*
Y-169D01*
X5850D01*
X5900Y-219D01*
X6000Y30D02*
Y230D01*
X5900Y530D02*
X5850Y480D01*
Y380D01*
X5900Y330D01*
X5950D01*
X6000Y380D01*
Y480D01*
X6050Y530D01*
X6100D01*
X6150Y480D01*
Y380D01*
X6100Y330D01*
X6150Y830D02*
Y630D01*
X5950Y830D01*
X5900D01*
X5850Y780D01*
Y680D01*
X5900Y630D01*
X6000Y930D02*
Y1130D01*
X5900Y1430D02*
X5850Y1380D01*
Y1280D01*
X5900Y1230D01*
X5950D01*
X6000Y1280D01*
Y1380D01*
X6050Y1430D01*
X6100D01*
X6150Y1380D01*
Y1280D01*
X6100Y1230D01*
X5900Y1530D02*
X5850Y1580D01*
Y1680D01*
X5900Y1730D01*
X5950D01*
X6000Y1680D01*
Y1630D01*
Y1680D01*
X6050Y1730D01*
X6100D01*
X6150Y1680D01*
Y1580D01*
X6100Y1530D01*
X6000Y1830D02*
Y2030D01*
X5900Y2330D02*
X5850Y2280D01*
Y2180D01*
X5900Y2130D01*
X5950D01*
X6000Y2180D01*
Y2280D01*
X6050Y2330D01*
X6100D01*
X6150Y2280D01*
Y2180D01*
X6100Y2130D01*
X6150Y2580D02*
X5850D01*
X6000Y2430D01*
Y2630D01*
X2525Y500D02*
Y200D01*
X2675D01*
X2725Y250D01*
Y300D01*
X2675Y350D01*
X2525D01*
X2675D01*
X2725Y400D01*
Y450D01*
X2675Y500D01*
X2525D01*
X2825Y350D02*
X3025D01*
X3325Y450D02*
X3275Y500D01*
X3175D01*
X3125Y450D01*
Y400D01*
X3175Y350D01*
X3275D01*
X3325Y300D01*
Y250D01*
X3275Y200D01*
X3175D01*
X3125Y250D01*
X3425Y500D02*
X3525D01*
X3475D01*
Y200D01*
X3425D01*
X3525D01*
X3875Y450D02*
X3825Y500D01*
X3725D01*
X3675Y450D01*
Y250D01*
X3725Y200D01*
X3825D01*
X3875Y250D01*
Y350D01*
X3775D01*
X3975D02*
X4175D01*
X4275Y450D02*
X4325Y500D01*
X4425D01*
X4475Y450D01*
Y250D01*
X4425Y200D01*
X4325D01*
X4275Y250D01*
Y450D01*
X2650Y18850D02*
X2450D01*
X2650Y19050D01*
Y19100D01*
X2600Y19150D01*
X2500D01*
X2450Y19100D01*
X2750Y19150D02*
Y18850D01*
X2900D01*
X2950Y18900D01*
Y18950D01*
X2900Y19000D01*
X2750D01*
X2900D01*
X2950Y19050D01*
Y19100D01*
X2900Y19150D01*
X2750D01*
X3050Y19000D02*
X3250D01*
X3550Y18850D02*
X3350D01*
X3550Y19050D01*
Y19100D01*
X3500Y19150D01*
X3400D01*
X3350Y19100D01*
X3650Y18850D02*
Y19050D01*
X3750Y19150D01*
X3850Y19050D01*
Y18850D01*
Y19000D01*
X3650D01*
X3950D02*
X4150D01*
X4250Y18850D02*
X4350D01*
X4300D01*
Y19150D01*
X4250Y19100D01*
X4500Y19150D02*
Y18850D01*
X4650D01*
X4700Y18900D01*
Y18950D01*
X4650Y19000D01*
X4500D01*
X4650D01*
X4700Y19050D01*
Y19100D01*
X4650Y19150D01*
X4500D01*
X4800Y19000D02*
X5000D01*
X5100Y18850D02*
X5200D01*
X5150D01*
Y19150D01*
X5100Y19100D01*
X5350Y18850D02*
Y19050D01*
X5450Y19150D01*
X5549Y19050D01*
Y18850D01*
Y19000D01*
X5350D01*
X7408Y19150D02*
Y18850D01*
X7558D01*
X7608Y18900D01*
Y19100D01*
X7558Y19150D01*
X7408D01*
X7908Y19100D02*
X7858Y19150D01*
X7758D01*
X7708Y19100D01*
Y18900D01*
X7758Y18850D01*
X7858D01*
X7908Y18900D01*
X8208Y18850D02*
X8008D01*
X8208Y19050D01*
Y19100D01*
X8158Y19150D01*
X8058D01*
X8008Y19100D01*
X8308Y19000D02*
X8508D01*
X8608Y18850D02*
Y19150D01*
X8758D01*
X8808Y19100D01*
Y19000D01*
X8758Y18950D01*
X8608D01*
X8908Y19150D02*
Y18850D01*
X9008Y18950D01*
X9108Y18850D01*
Y19150D01*
X9208Y18850D02*
Y19150D01*
X9308Y19050D01*
X9408Y19150D01*
Y18850D01*
X9707D02*
X9507D01*
X9707Y19050D01*
Y19100D01*
X9657Y19150D01*
X9557D01*
X9507Y19100D01*
X9807Y19000D02*
X10007D01*
X10307Y19150D02*
X10107D01*
Y19000D01*
X10207Y19050D01*
X10257D01*
X10307Y19000D01*
Y18900D01*
X10257Y18850D01*
X10157D01*
X10107Y18900D01*
X11816Y19150D02*
Y18850D01*
X11966D01*
X12016Y18900D01*
Y19100D01*
X11966Y19150D01*
X11816D01*
X12316Y19100D02*
X12266Y19150D01*
X12166D01*
X12116Y19100D01*
Y18900D01*
X12166Y18850D01*
X12266D01*
X12316Y18900D01*
X12416Y18850D02*
X12516D01*
X12466D01*
Y19150D01*
X12416Y19100D01*
X12666Y19000D02*
X12865D01*
X12965Y18850D02*
Y19150D01*
X13115D01*
X13165Y19100D01*
Y19000D01*
X13115Y18950D01*
X12965D01*
X13265Y19150D02*
Y18850D01*
X13365Y18950D01*
X13465Y18850D01*
Y19150D01*
X13565Y18850D02*
Y19150D01*
X13665Y19050D01*
X13765Y19150D01*
Y18850D01*
X13865D02*
X13965D01*
X13915D01*
Y19150D01*
X13865Y19100D01*
X14115Y19000D02*
X14315D01*
X14615Y19150D02*
X14415D01*
Y19000D01*
X14515Y19050D01*
X14565D01*
X14615Y19000D01*
Y18900D01*
X14565Y18850D01*
X14465D01*
X14415Y18900D01*
X16673Y19100D02*
X16723Y19150D01*
X16823D01*
X16873Y19100D01*
Y18900D01*
X16823Y18850D01*
X16723D01*
X16673Y18900D01*
Y19100D01*
X16973Y19000D02*
X17173D01*
X17273Y19150D02*
Y18850D01*
X17423D01*
X17473Y18900D01*
Y18950D01*
X17423Y19000D01*
X17273D01*
X17423D01*
X17473Y19050D01*
Y19100D01*
X17423Y19150D01*
X17273D01*
X8100Y13276D02*
X7800D01*
Y13426D01*
X7850Y13475D01*
X7950D01*
X8000Y13426D01*
Y13276D01*
Y13376D02*
X8100Y13475D01*
X7850Y13775D02*
X7800Y13725D01*
Y13625D01*
X7850Y13575D01*
X7900D01*
X7950Y13625D01*
Y13725D01*
X8000Y13775D01*
X8050D01*
X8100Y13725D01*
Y13625D01*
X8050Y13575D01*
X7800Y13875D02*
Y14075D01*
Y13975D01*
X8100D01*
X7950Y14175D02*
Y14375D01*
X7850Y14675D02*
X7800Y14625D01*
Y14525D01*
X7850Y14475D01*
X7900D01*
X7950Y14525D01*
Y14625D01*
X8000Y14675D01*
X8050D01*
X8100Y14625D01*
Y14525D01*
X8050Y14475D01*
X7850Y14975D02*
X7800Y14925D01*
Y14825D01*
X7850Y14775D01*
X8050D01*
X8100Y14825D01*
Y14925D01*
X8050Y14975D01*
X7800Y15075D02*
X8100D01*
X8000D01*
X7800Y15275D01*
X7950Y15125D01*
X8100Y15275D01*
X7950Y15375D02*
Y15575D01*
X8100Y15675D02*
X7800D01*
X7900Y15775D01*
X7800Y15875D01*
X8100D01*
X7800Y15975D02*
Y16075D01*
Y16025D01*
X8100D01*
Y15975D01*
Y16075D01*
X7850Y16425D02*
X7800Y16375D01*
Y16275D01*
X7850Y16225D01*
X7900D01*
X7950Y16275D01*
Y16375D01*
X8000Y16425D01*
X8050D01*
X8100Y16375D01*
Y16275D01*
X8050Y16225D01*
X7800Y16674D02*
Y16574D01*
X7850Y16525D01*
X8050D01*
X8100Y16574D01*
Y16674D01*
X8050Y16724D01*
X7850D01*
X7800Y16674D01*
X10450Y13475D02*
X10400Y13426D01*
Y13326D01*
X10450Y13276D01*
X10650D01*
X10700Y13326D01*
Y13426D01*
X10650Y13475D01*
X10550D01*
Y13376D01*
X10700Y13575D02*
X10400D01*
X10700Y13775D01*
X10400D01*
Y13875D02*
X10700D01*
Y14025D01*
X10650Y14075D01*
X10450D01*
X10400Y14025D01*
Y13875D01*
X10550Y14175D02*
Y14375D01*
X10700Y14475D02*
X10400D01*
X10500Y14575D01*
X10400Y14675D01*
X10700D01*
X10400Y14925D02*
Y14825D01*
X10450Y14775D01*
X10650D01*
X10700Y14825D01*
Y14925D01*
X10650Y14975D01*
X10450D01*
X10400Y14925D01*
X10450Y15275D02*
X10400Y15225D01*
Y15125D01*
X10450Y15075D01*
X10500D01*
X10550Y15125D01*
Y15225D01*
X10600Y15275D01*
X10650D01*
X10700Y15225D01*
Y15125D01*
X10650Y15075D01*
X10400Y15375D02*
Y15475D01*
Y15425D01*
X10700D01*
Y15375D01*
Y15475D01*
X10550Y15625D02*
Y15825D01*
X10400Y15925D02*
X10600D01*
X10700Y16025D01*
X10600Y16125D01*
X10400D01*
X10450Y16425D02*
X10400Y16375D01*
Y16275D01*
X10450Y16225D01*
X10650D01*
X10700Y16275D01*
Y16375D01*
X10650Y16425D01*
X10450Y16724D02*
X10400Y16674D01*
Y16574D01*
X10450Y16525D01*
X10650D01*
X10700Y16574D01*
Y16674D01*
X10650Y16724D01*
X20800Y2955D02*
Y2756D01*
X20950D01*
X20900Y2856D01*
Y2905D01*
X20950Y2955D01*
X21050D01*
X21100Y2905D01*
Y2806D01*
X21050Y2756D01*
X20950Y3055D02*
Y3255D01*
X20850Y3355D02*
X20800Y3405D01*
Y3505D01*
X20850Y3555D01*
X21050D01*
X21100Y3505D01*
Y3405D01*
X21050Y3355D01*
X20850D01*
X20950Y3655D02*
Y3855D01*
X20800Y3955D02*
Y4155D01*
Y4055D01*
X21100D01*
X20800Y4255D02*
X21100Y4455D01*
X20800D02*
X21100Y4255D01*
X20950Y4555D02*
Y4755D01*
X21100Y4855D02*
X20800D01*
Y5005D01*
X20850Y5055D01*
X20950D01*
X21000Y5005D01*
Y4855D01*
Y4955D02*
X21100Y5055D01*
X20800Y5155D02*
X21100Y5355D01*
X20800D02*
X21100Y5155D01*
X12200Y1550D02*
X12300D01*
X12250D01*
Y1850D01*
X12200Y1800D01*
X12650Y1850D02*
X12550Y1800D01*
X12450Y1700D01*
Y1600D01*
X12500Y1550D01*
X12600D01*
X12650Y1600D01*
Y1650D01*
X12600Y1700D01*
X12450D01*
X12750D02*
X12950D01*
X13050Y1600D02*
X13100Y1550D01*
X13200D01*
X13250Y1600D01*
Y1800D01*
X13200Y1850D01*
X13100D01*
X13050Y1800D01*
Y1750D01*
X13100Y1700D01*
X13250D01*
X12300Y250D02*
X12400D01*
X12350D01*
Y550D01*
X12300Y500D01*
X12550Y400D02*
X12750D01*
X12850Y500D02*
X12900Y550D01*
X13000D01*
X13050Y500D01*
Y450D01*
X13000Y400D01*
X13050Y350D01*
Y300D01*
X13000Y250D01*
X12900D01*
X12850Y300D01*
Y350D01*
X12900Y400D01*
X12850Y450D01*
Y500D01*
X12900Y400D02*
X13000D01*
X11800Y6100D02*
Y6150D01*
X11850D01*
Y6100D01*
X11800D01*
X19150Y2250D02*
Y2300D01*
X19200D01*
Y2250D01*
X19150D01*
D35*
X8600Y16800D02*
Y16633D01*
Y16717D01*
X9100D01*
X9017Y16800D01*
X9600Y16667D02*
Y17000D01*
X9933Y16667D01*
X10017D01*
X10100Y16750D01*
Y16917D01*
X10017Y17000D01*
X9100Y13067D02*
Y13400D01*
X8850D01*
X8933Y13233D01*
Y13150D01*
X8850Y13067D01*
X8683D01*
X8600Y13150D01*
Y13317D01*
X8683Y13400D01*
X10100Y13067D02*
X10017Y13233D01*
X9850Y13400D01*
X9683D01*
X9600Y13317D01*
Y13150D01*
X9683Y13067D01*
X9767D01*
X9850Y13150D01*
Y13400D01*
M02*
