G04 Layer_Color=16711935*
%FSLAX24Y24*%
%MOIN*%
G70*
G01*
G75*
%ADD45C,0.0671*%
%ADD46R,0.0671X0.0671*%
%ADD47R,0.0671X0.0671*%
%ADD48C,0.1970*%
%ADD49C,0.0745*%
%ADD50R,0.0745X0.0745*%
%ADD51C,0.0580*%
%ADD52C,0.2049*%
D45*
X-1050Y19177D02*
D03*
X-2050D02*
D03*
X-1050Y20177D02*
D03*
X-2622Y555D02*
D03*
Y-445D02*
D03*
X-3622Y555D02*
D03*
Y-445D02*
D03*
X-4622Y555D02*
D03*
Y-445D02*
D03*
X-5622Y555D02*
D03*
Y-445D02*
D03*
X-6622Y555D02*
D03*
X-12118Y22250D02*
D03*
X-13118D02*
D03*
X-14118D02*
D03*
X-15118D02*
D03*
X-16118D02*
D03*
X-17118D02*
D03*
X-18118D02*
D03*
X-12118Y19250D02*
D03*
X-13118D02*
D03*
X-14118D02*
D03*
X-15118D02*
D03*
X-16118D02*
D03*
X-17118D02*
D03*
X-18118D02*
D03*
X-6400Y21250D02*
D03*
Y22250D02*
D03*
X-5400Y21250D02*
D03*
Y22250D02*
D03*
X-4400Y21250D02*
D03*
X-10668Y19243D02*
D03*
X-9668Y20243D02*
D03*
X-10668D02*
D03*
X-9668Y21243D02*
D03*
X-10668D02*
D03*
X-9668Y22243D02*
D03*
X-10668D02*
D03*
X-20297Y21250D02*
D03*
Y20250D02*
D03*
Y19250D02*
D03*
D46*
X-2050Y20177D02*
D03*
X-9668Y19243D02*
D03*
X-20297Y22250D02*
D03*
D47*
X-6622Y-445D02*
D03*
X-19118Y22250D02*
D03*
Y19250D02*
D03*
X-4400Y22250D02*
D03*
D48*
X-1560Y16709D02*
D03*
Y3591D02*
D03*
D49*
X-1001Y13967D02*
D03*
X-2119Y13422D02*
D03*
X-1001Y12876D02*
D03*
X-2119Y12331D02*
D03*
X-1001Y11786D02*
D03*
X-2119Y11241D02*
D03*
X-1001Y10695D02*
D03*
X-2119Y10150D02*
D03*
X-1001Y9605D02*
D03*
X-2119Y9059D02*
D03*
X-1001Y8514D02*
D03*
X-2119Y7969D02*
D03*
X-1001Y7424D02*
D03*
X-2119Y6878D02*
D03*
D50*
X-1001Y6333D02*
D03*
D51*
X-10650Y13650D02*
D03*
X-11150Y14200D02*
D03*
X-11100Y6400D02*
D03*
X-12200Y11150D02*
D03*
X-12750Y10550D02*
D03*
X-11700Y14550D02*
D03*
X-18532Y11236D02*
D03*
X-19800Y11200D02*
D03*
X-17300D02*
D03*
X-17400Y850D02*
D03*
X-19900D02*
D03*
X-18632Y886D02*
D03*
X-9878Y3278D02*
D03*
X-14250D02*
D03*
X-8400Y-445D02*
D03*
X-9014Y6814D02*
D03*
X-9950Y6400D02*
D03*
X-11450Y15200D02*
D03*
X-10850D02*
D03*
D52*
X0Y22150D02*
D03*
Y0D02*
D03*
M02*
