G04 Layer_Color=65535*
%FSLAX24Y24*%
%MOIN*%
G70*
G01*
G75*
%ADD17C,0.0079*%
%ADD18C,0.0080*%
D17*
X32529Y35250D02*
X33529D01*
Y31250D02*
Y35250D01*
X32529Y31250D02*
Y35250D01*
Y31250D02*
X33529D01*
X32903Y25471D02*
X33060D01*
X32903Y25196D02*
X33060D01*
X34186Y30908D02*
X34343D01*
X34186Y30632D02*
X34343D01*
X34186Y30059D02*
X34343D01*
X34186Y30335D02*
X34343D01*
X32588Y30405D02*
Y30562D01*
X32863Y30405D02*
Y30562D01*
X34210Y31480D02*
X34367D01*
X34210Y31205D02*
X34367D01*
X34210Y35191D02*
X34367D01*
X34210Y34915D02*
X34367D01*
X34210Y32922D02*
X34367D01*
X34210Y33198D02*
X34367D01*
X34210Y31777D02*
X34367D01*
X34210Y32053D02*
X34367D01*
X34210Y32625D02*
X34367D01*
X34210Y32350D02*
X34367D01*
X31350Y35250D02*
X32350D01*
Y25250D02*
Y35250D01*
X31350Y25250D02*
X32350D01*
X31350D02*
Y26000D01*
Y35250D01*
X34529Y27333D02*
Y29250D01*
Y26250D02*
Y29250D01*
X32529Y26250D02*
Y29250D01*
Y26250D02*
X34529D01*
X32529Y29250D02*
X34529D01*
D18*
X34229Y25950D02*
Y26117D01*
Y26033D01*
X33729D01*
X33812Y25950D01*
X33229Y26083D02*
Y25750D01*
X32896Y26083D01*
X32812D01*
X32729Y26000D01*
Y25833D01*
X32812Y25750D01*
X33729Y29683D02*
Y29350D01*
X33979D01*
X33896Y29517D01*
Y29600D01*
X33979Y29683D01*
X34146D01*
X34229Y29600D01*
Y29433D01*
X34146Y29350D01*
X32729Y29683D02*
X32812Y29517D01*
X32979Y29350D01*
X33146D01*
X33229Y29433D01*
Y29600D01*
X33146Y29683D01*
X33062D01*
X32979Y29600D01*
Y29350D01*
M02*
