G04 Layer_Color=8388736*
%FSLAX24Y24*%
%MOIN*%
G70*
G01*
G75*
%ADD30R,0.1025X0.0493*%
%ADD31R,0.3584X0.4273*%
%ADD32R,0.0986X0.1871*%
%ADD33R,0.0356X0.0434*%
%ADD34R,0.0454X0.0474*%
%ADD35R,0.0395X0.0434*%
%ADD36R,0.0789X0.0513*%
%ADD37O,0.0297X0.0612*%
%ADD38O,0.0612X0.0297*%
%ADD39C,0.0680*%
%ADD40R,0.0671X0.0671*%
%ADD41C,0.0671*%
%ADD42R,0.0671X0.0671*%
%ADD43C,0.0580*%
%ADD44C,0.1220*%
D30*
X8504Y21720D02*
D03*
Y23720D02*
D03*
D31*
X4429Y22720D02*
D03*
D32*
X2766Y16153D02*
D03*
Y19106D02*
D03*
X7019Y16153D02*
D03*
Y19106D02*
D03*
D33*
X1672Y20751D02*
D03*
X2262D02*
D03*
X5098Y5189D02*
D03*
X4508D02*
D03*
D34*
X1524Y21654D02*
D03*
X2154D02*
D03*
D35*
X2242Y22756D02*
D03*
X1691D02*
D03*
X2242Y23701D02*
D03*
X1691D02*
D03*
D36*
X3701Y4587D02*
D03*
Y3130D02*
D03*
X6142Y4587D02*
D03*
Y3130D02*
D03*
D37*
X6496Y10610D02*
D03*
X6181D02*
D03*
X5866D02*
D03*
X5551D02*
D03*
X5236D02*
D03*
X4921D02*
D03*
X4606D02*
D03*
X4291D02*
D03*
Y7343D02*
D03*
X4606D02*
D03*
X4921D02*
D03*
X5236D02*
D03*
X5551D02*
D03*
X5866D02*
D03*
X6181D02*
D03*
X6496D02*
D03*
D38*
X3760Y10079D02*
D03*
Y9764D02*
D03*
Y9449D02*
D03*
Y9134D02*
D03*
Y8819D02*
D03*
Y8504D02*
D03*
Y8189D02*
D03*
Y7874D02*
D03*
X7028D02*
D03*
Y8189D02*
D03*
Y8504D02*
D03*
Y8819D02*
D03*
Y9134D02*
D03*
Y9449D02*
D03*
Y9764D02*
D03*
Y10079D02*
D03*
D39*
X3533Y13071D02*
D03*
X2362D02*
D03*
X8465Y13189D02*
D03*
X7480Y12205D02*
D03*
Y13189D02*
D03*
D40*
X4386Y14205D02*
D03*
X3886Y1205D02*
D03*
X8386Y14205D02*
D03*
D41*
X3386D02*
D03*
X2386D02*
D03*
X1386D02*
D03*
X5886Y2205D02*
D03*
Y1205D02*
D03*
X4886Y2205D02*
D03*
Y1205D02*
D03*
X3886Y2205D02*
D03*
X1386Y11205D02*
D03*
Y10205D02*
D03*
Y9205D02*
D03*
Y8205D02*
D03*
Y7205D02*
D03*
Y6205D02*
D03*
Y5205D02*
D03*
Y4205D02*
D03*
Y3205D02*
D03*
Y2205D02*
D03*
Y1205D02*
D03*
X8386Y2205D02*
D03*
Y3205D02*
D03*
Y4205D02*
D03*
Y5205D02*
D03*
Y6205D02*
D03*
Y7205D02*
D03*
Y8205D02*
D03*
Y9205D02*
D03*
Y10205D02*
D03*
Y11205D02*
D03*
Y12205D02*
D03*
X7386Y14205D02*
D03*
D42*
X1386Y12205D02*
D03*
X8386Y1205D02*
D03*
D43*
X2352Y11998D02*
D03*
X3533D02*
D03*
X4606Y9724D02*
D03*
X4606Y9094D02*
D03*
Y8465D02*
D03*
X5551Y9685D02*
D03*
X1672Y20039D02*
D03*
D44*
X4488Y22913D02*
D03*
M02*
