M48
;Layer_Color=9474304
;FILE_FORMAT=2:4
INCH,LZ
;TYPE=PLATED
T1F00S00C0.0280
T2F00S00C0.0300
T3F00S00C0.0354
T4F00S00C0.1000
%
T01
X004606Y008465
Y009094
X004606Y009724
X005551Y009685
X003533Y011998
X002352
X001672Y020039
T02
X00748Y012205
Y013189
X008465
X003533Y013071
X002362
T03
X003886Y001205
X004886
X005886
Y002205
X004886
X003886
X008386
Y001205
Y003205
Y004205
Y005205
Y006205
Y007205
Y008205
Y009205
Y010205
Y011205
Y012205
X001386
Y011205
Y010205
Y009205
Y008205
Y007205
Y006205
Y005205
Y004205
Y003205
Y002205
Y001205
Y014205
X002386
X003386
X004386
X007386
X008386
T04
X004488Y022913
M30
